<svg width="175" height="177" viewBox="0 0 175 177" fill="none" xmlns="http://www.w3.org/2000/svg">
<mask id="mask0" mask-type="alpha" maskUnits="userSpaceOnUse" x="1" y="0" width="171" height="174">
<rect x="1" width="171" height="174" rx="10" fill="white"/>
</mask>
<g mask="url(#mask0)">
<path opacity="0.202381" d="M110.485 269.97C171.504 269.97 220.97 220.504 220.97 159.485C220.97 98.4659 171.504 49 110.485 49C49.4659 49 0 98.4659 0 159.485C0 220.504 49.4659 269.97 110.485 269.97Z" fill="#2B5250"/>
<path opacity="0.202381" d="M110.645 251.742C161.509 251.742 202.742 210.509 202.742 159.645C202.742 108.781 161.509 67.5474 110.645 67.5474C59.7808 67.5474 18.5474 108.781 18.5474 159.645C18.5474 210.509 59.7808 251.742 110.645 251.742Z" fill="#2B5250"/>
<path opacity="0.1" d="M110.485 231.596C150.311 231.596 182.596 199.311 182.596 159.485C182.596 119.659 150.311 87.3738 110.485 87.3738C70.659 87.3738 38.3738 119.659 38.3738 159.485C38.3738 199.311 70.659 231.596 110.485 231.596Z" fill="#2B5250"/>
<path d="M96.2998 171.176C96.9376 169.644 97.5069 168.077 98 166.477L97.2989 151.182H96.7399L96.2998 171.176Z" fill="#4F6E6E"/>
<path d="M-4.07129 160.77C-2.81627 161.651 -1.29482 162.178 0.355217 162.178C4.62207 162.178 8.08118 158.718 8.08118 154.452C8.08118 150.185 4.62207 137.069 0.355217 137.069C-1.36642 137.069 -2.95103 139.216 -4.23547 142.044C-4.72883 144.94 -5 147.911 -5 150.947C-5 154.306 -4.67226 157.586 -4.07129 160.77Z" fill="#00A07D"/>
<path d="M45.7823 173.225H43.6936L44.1948 150.448H44.7379L45.7823 173.225Z" fill="#00827E"/>
<path d="M39.5584 173.725H37.4697L37.9709 150.947H38.5141L39.5584 173.725Z" fill="#00827E"/>
<path d="M52.6763 173.226H50.8872L51.3166 153.715H51.7818L52.6763 173.226Z" fill="#00827E"/>
<path d="M49.9146 172.092H48.1255L48.5549 152.581H49.02L49.9146 172.092Z" fill="#00827E"/>
<path d="M61.6109 173.226H59.8218L60.2512 153.715H60.7163L61.6109 173.226Z" fill="#00827E"/>
<path d="M79.662 172.459H77.873L78.3024 152.948H78.7674L79.662 172.459Z" fill="#00827E"/>
<path d="M88.9083 172.092H87.1191L87.5485 152.581H88.0137L88.9083 172.092Z" fill="#00827E"/>
<path d="M93.0235 171.592H91.2344L91.6638 152.081H92.1289L93.0235 171.592Z" fill="#00827E"/>
<path d="M8.09185 172.707H6.30273L6.73212 153.196H7.19729L8.09185 172.707Z" fill="#00827E"/>
<path d="M2.6065 172.459H0.817383L1.24676 152.948H1.71194L2.6065 172.459Z" fill="#00827E"/>
<path d="M35.2374 173.225H33.1487L33.6499 150.448H34.193L35.2374 173.225Z" fill="#00827E"/>
<path d="M28.0989 173.225H26.0103L26.5114 150.448H27.0546L28.0989 173.225Z" fill="#00827E"/>
<path d="M22.9798 173.225H20.8911L21.3923 150.448H21.9355L22.9798 173.225Z" fill="#00827E"/>
<path d="M15.6109 172.898H13.5222L14.0236 150.12H14.5666L15.6109 172.898Z" fill="#00827E"/>
<path d="M53.8702 175.966H51.7815L52.2829 153.188H52.8258L53.8702 175.966Z" fill="#4F6E6E"/>
<path d="M58.7532 175.551H56.6646L57.1657 152.773H57.7089L58.7532 175.551Z" fill="#4F6E6E"/>
<path d="M66.4542 175.551H64.3655L64.8669 152.773H65.4098L66.4542 175.551Z" fill="#4F6E6E"/>
<path d="M72.9354 175.121H70.8467L71.3481 152.343H71.891L72.9354 175.121Z" fill="#4F6E6E"/>
<path d="M80.8565 174.34H78.7678L79.2692 151.562H79.8122L80.8565 174.34Z" fill="#4F6E6E"/>
<path d="M90.1026 173.216H88.0139L88.5151 150.438H89.0583L90.1026 173.216Z" fill="#4F6E6E"/>
<path d="M94.2171 174.093H92.1284L92.6296 151.315H93.1728L94.2171 174.093Z" fill="#4F6E6E"/>
<path d="M10.17 175.121H8.0813L8.58269 152.343H9.12564L10.17 175.121Z" fill="#4F6E6E"/>
<path d="M3.80108 175.551H1.7124L2.21379 152.773H2.75674L3.80108 175.551Z" fill="#4F6E6E"/>
<path d="M34.1927 180.145H31.3376L32.0228 149.01H32.7651L34.1927 180.145Z" fill="#6C5F59"/>
<path d="M42.9093 180.145H40.0542L40.7395 149.01H41.4816L42.9093 180.145Z" fill="#6C5F59"/>
<path d="M55.6812 179.885H52.8262L53.5115 148.749H54.2538L55.6812 179.885Z" fill="#6C5F59"/>
<path d="M63.5709 179.885H60.7158L61.4009 148.749H62.1432L63.5709 179.885Z" fill="#6C5F59"/>
<path d="M77.4539 180.145H74.5989L75.2842 149.01H76.0265L77.4539 180.145Z" fill="#6C5F59"/>
<path d="M85.307 179.224H82.4521L83.1373 148.089H83.8796L85.307 179.224Z" fill="#6C5F59"/>
<path d="M21.9359 178.272H19.0808L19.7659 147.136H20.5082L21.9359 178.272Z" fill="#6C5F59"/>
<path d="M17.0384 175.551H14.9497L15.4509 152.773H15.994L17.0384 175.551Z" fill="#4F6E6E"/>
<path d="M30.0069 175.705H27.9182L28.4194 152.928H28.9626L30.0069 175.705Z" fill="#4F6E6E"/>
<path d="M38.5145 175.966H36.4258L36.9272 153.188H37.4701L38.5145 175.966Z" fill="#4F6E6E"/>
<path d="M47.0679 175.966H44.9792L45.4804 153.188H46.0236L47.0679 175.966Z" fill="#4F6E6E"/>
<path d="M7.19661 178.519H4.34155L5.02667 147.384H5.76898L7.19661 178.519Z" fill="#6C5F59"/>
<path d="M95.6109 159.133C95.6109 164.778 91.0346 169.355 85.3893 169.355C79.744 169.355 75.1677 164.778 75.1677 159.133C75.1677 153.488 79.744 136.134 85.3893 136.134C91.0346 136.134 95.6109 153.488 95.6109 159.133Z" fill="#34BE71"/>
<path d="M84.8585 161.509L84.3711 182.083H87.372L86.3567 161.509H84.8585Z" fill="#805F59"/>
<path d="M85.3884 164.61L90.076 160.798L90.6385 161.827L85.3884 166.515V164.61Z" fill="#805F59"/>
<path d="M85.3886 136.134C83.9789 136.134 82.636 137.216 81.4143 138.928C81.7892 138.775 82.1696 138.687 82.5555 138.687C88.2007 138.687 92.7772 156.04 92.7772 161.686C92.7772 164.01 91.9927 166.145 90.6864 167.862C93.6347 166.069 95.6104 162.836 95.6104 159.133C95.6104 153.487 91.0339 136.134 85.3886 136.134Z" fill="#52C883"/>
<path d="M21.9364 158.255C21.9364 164.117 17.185 168.868 11.3236 168.868C5.46231 168.868 0.710938 164.117 0.710938 158.255C0.710938 152.394 5.46251 134.377 11.3236 134.377C17.1848 134.377 21.9364 152.394 21.9364 158.255Z" fill="#34BE71"/>
<path d="M10.7732 160.722L10.2671 182.083H13.383L12.3286 160.722H10.7732Z" fill="#805F59"/>
<path d="M11.3237 163.942L16.1907 159.983L16.7748 161.052L11.3237 165.919V163.942Z" fill="#805F59"/>
<path d="M11.3231 134.376C9.85947 134.376 8.46517 135.5 7.19678 137.277C7.58583 137.119 7.98085 137.027 8.38164 137.027C14.2428 137.027 18.9943 155.045 18.9943 160.906C18.9943 163.318 18.1798 165.536 16.8236 167.318C19.8846 165.456 21.9358 162.1 21.9358 158.255C21.9358 152.394 17.1844 134.376 11.3231 134.376Z" fill="#52C883"/>
<path d="M40.1672 118.408C39.5522 118.408 38.9712 118.529 38.4143 118.704C36.65 116.168 33.7234 114.501 30.3998 114.501C27.0763 114.501 24.1497 116.168 22.3854 118.704C21.8285 118.529 21.2475 118.408 20.6325 118.408C17.396 118.408 14.7722 121.032 14.7722 124.268H46.0275C46.0275 121.032 43.4037 118.408 40.1672 118.408Z" fill="white"/>
<path d="M56.9731 147.443C56.8155 146.81 56.7228 146.151 56.7228 145.469C56.7228 141.001 60.3152 137.379 64.7466 137.379C65.212 137.379 65.6653 137.428 66.1088 137.504C67.5118 136.641 69.1546 136.134 70.9186 136.134C76.0319 136.134 80.177 140.314 80.177 145.469C80.177 145.7 80.1591 145.927 80.1426 146.154C82.4609 148.791 83.8803 152.248 83.8803 156.049C83.8803 164.298 77.2482 170.985 69.067 170.985C60.8857 170.985 54.2537 164.298 54.2537 156.049C54.2539 152.841 55.2661 149.877 56.9731 147.443Z" fill="#00A07D"/>
<path d="M70.4142 182.083H67.8213L68.4435 155.815H69.1177L70.4142 182.083Z" fill="#805F59"/>
<path d="M68.6774 165.95L62.843 161.205L62.1428 161.594L68.6774 167.428V165.95Z" fill="#805F59"/>
<path d="M69.066 160.202L65.1071 156.982L64.6318 157.246L69.066 161.205V160.202Z" fill="#805F59"/>
<path d="M69.0659 163.461L74.9003 158.716L75.6004 159.105L69.0659 164.939V163.461Z" fill="#805F59"/>
<path d="M80.1419 146.154C80.1584 145.927 80.1763 145.7 80.1763 145.469C80.1763 140.313 76.0312 136.134 70.9179 136.134C69.1539 136.134 67.5111 136.64 66.1079 137.504C65.6644 137.427 65.2111 137.379 64.7457 137.379C62.3497 137.379 60.2232 138.459 58.7529 140.138C59.6006 139.831 60.5013 139.635 61.4537 139.635C61.9191 139.635 62.3723 139.683 62.8159 139.76C64.219 138.896 65.8619 138.39 67.6259 138.39C72.7392 138.39 76.8842 142.569 76.8842 147.725C76.8842 147.956 76.8665 148.183 76.8499 148.41C79.1683 151.046 80.5877 154.504 80.5877 158.304C80.5877 162.721 78.675 166.678 75.6524 169.412C80.5242 166.966 83.8796 161.909 83.8796 156.048C83.8796 152.248 82.4604 148.79 80.1419 146.154Z" fill="#36B294"/>
<path d="M38.9958 143.942C39.1706 143.246 39.2737 142.521 39.2737 141.77C39.2737 136.85 35.2856 132.862 30.366 132.862C29.8494 132.862 29.3461 132.916 28.8538 133C27.2961 132.049 25.4722 131.492 23.514 131.492C17.8376 131.492 13.2358 136.093 13.2358 141.77C13.2358 142.025 13.2556 142.274 13.2739 142.524C10.7003 145.427 9.12451 149.234 9.12451 153.418C9.12451 162.501 16.4871 169.864 25.5695 169.864C34.652 169.864 42.0146 162.501 42.0146 153.418C42.0146 149.887 40.8908 146.622 38.9958 143.942Z" fill="#00A07D"/>
<path d="M38.9959 143.942C39.1707 143.246 39.2738 142.521 39.2738 141.77C39.2738 136.85 35.2857 132.862 30.3661 132.862C29.8495 132.862 29.3462 132.916 28.8539 133C27.2962 132.049 25.4723 131.492 23.5141 131.492C19.2909 131.492 15.6663 134.041 14.0852 137.683C15.9161 135.573 18.6208 134.233 21.6458 134.233C23.548 134.233 25.3195 134.77 26.8325 135.687C27.3108 135.605 27.7997 135.554 28.3015 135.554C33.0802 135.554 36.9541 139.4 36.9541 144.144C36.9541 144.868 36.8539 145.567 36.6839 146.239C38.5247 148.823 39.6164 151.97 39.6164 155.376C39.6164 160.387 37.2687 164.848 33.6122 167.754C38.6237 164.937 42.0147 159.577 42.0147 153.418C42.0147 149.887 40.8909 146.622 38.9959 143.942Z" fill="#36B294"/>
<path d="M27.0557 182.083H24.2007L24.8858 150.948H25.6281L27.0557 182.083Z" fill="#805F59"/>
<path d="M25.1423 162.951L18.7185 157.726L17.9478 158.154L25.1423 164.578V162.951Z" fill="#805F59"/>
<path d="M25.5708 160.21L31.9946 154.985L32.7653 155.413L25.5708 161.837V160.21Z" fill="#805F59"/>
<path d="M63.7951 136.275C64.0052 135.438 64.129 134.567 64.129 133.665C64.129 127.757 59.3392 122.967 53.4305 122.967C52.81 122.967 52.2057 123.031 51.6142 123.133C49.7434 121.991 47.5529 121.321 45.2009 121.321C38.3833 121.321 32.8565 126.848 32.8565 133.665C32.8565 133.971 32.8803 134.271 32.9021 134.572C29.8111 138.058 27.9187 142.63 27.9187 147.656C27.9187 158.564 36.7614 167.407 47.6698 167.407C58.5781 167.407 67.4209 158.564 67.4209 147.656C67.4209 143.414 66.0712 139.494 63.7951 136.275Z" fill="#34BE71"/>
<path d="M63.7965 136.275C64.0066 135.438 64.1304 134.567 64.1304 133.665C64.1304 127.757 59.3406 122.967 53.4319 122.967C52.8114 122.967 52.2071 123.031 51.6156 123.132C49.7448 121.99 47.5543 121.321 45.2023 121.321C40.13 121.321 35.7767 124.382 33.8779 128.756C36.0769 126.223 39.3255 124.613 42.9585 124.613C45.243 124.613 47.3708 125.258 49.1881 126.359C49.7627 126.262 50.3497 126.2 50.9523 126.2C56.6917 126.2 61.3445 130.819 61.3445 136.516C61.3445 137.386 61.2243 138.226 61.02 139.032C63.2309 142.136 64.5419 145.916 64.5419 150.007C64.5419 156.026 61.722 161.384 57.3307 164.874C63.3496 161.49 67.4223 155.052 67.4223 147.656C67.4223 143.413 66.0726 139.493 63.7965 136.275Z" fill="#52C883"/>
<path d="M31.0121 137.39C31.0055 137.3 31.0045 137.208 30.9983 137.117C30.7874 137.449 30.5932 137.792 30.4019 138.136C30.6037 137.886 30.7981 137.63 31.0121 137.39Z" fill="#52C883"/>
<path d="M49.4528 182.083H46.0237L46.8466 147.347H47.7381L49.4528 182.083Z" fill="#805F59"/>
<path d="M47.1555 160.75L39.4402 154.475L38.5144 154.989L47.1555 162.704V160.75Z" fill="#805F59"/>
<path d="M47.671 153.148L42.4357 148.89L41.8074 149.239L47.671 154.475V153.148Z" fill="#805F59"/>
<path d="M47.6699 157.458L55.3852 151.183L56.311 151.697L47.6699 159.412V157.458Z" fill="#805F59"/>
<g opacity="0.6">
<path opacity="0.6" d="M37.4976 111.889C37.4976 109.606 39.3482 107.755 41.6311 107.755C41.9757 107.755 42.3051 107.81 42.625 107.889C43.7035 106.724 45.2328 105.984 46.9456 105.984C50.2068 105.984 52.8505 108.627 52.8505 111.889H37.4976Z" fill="white"/>
</g>
<path d="M58.7526 112.712C58.7526 111.328 57.6327 110.207 56.2514 110.207C56.043 110.207 55.8436 110.24 55.65 110.288C54.9974 109.582 54.072 109.133 53.0355 109.133C51.062 109.133 49.4622 110.735 49.4622 112.711H58.7526V112.712Z" fill="white"/>
<path d="M69.0664 118.29C69.0664 116.685 70.3657 115.384 71.9682 115.384C72.2101 115.384 72.4414 115.422 72.6658 115.478C73.423 114.659 74.4965 114.139 75.6989 114.139C77.9883 114.139 79.8441 115.997 79.8441 118.29H69.0664Z" fill="white"/>
<path d="M58.2256 171.344L57.0157 144.955H56.3435L55.8862 165.73C56.5795 167.645 57.3627 169.517 58.2256 171.344Z" fill="#4F6E6E"/>
<path d="M53.1493 155.708C54.7024 156.798 56.5853 157.45 58.6272 157.45C63.9076 157.45 68.1883 153.169 68.1883 147.889C68.1883 142.608 63.9076 126.376 58.6272 126.376C56.4967 126.376 54.5357 129.034 52.9461 132.533C52.3356 136.117 52 139.794 52 143.552C52 147.708 52.4056 151.768 53.1493 155.708Z" fill="#00A07D"/>
<path d="M114.844 171.122H112.26L112.88 142.934H113.552L114.844 171.122Z" fill="#00827E"/>
<path d="M107.143 171.74H104.558L105.178 143.552H105.85L107.143 171.74Z" fill="#00827E"/>
<path d="M123.376 171.122H121.162L121.693 146.977H122.269L123.376 171.122Z" fill="#00827E"/>
<path d="M119.958 169.719H117.744L118.276 145.574H118.851L119.958 169.719Z" fill="#00827E"/>
<path d="M134.432 171.122H132.218L132.75 146.977H133.325L134.432 171.122Z" fill="#00827E"/>
<path d="M156.772 170.173H154.558L155.089 146.029H155.665L156.772 170.173Z" fill="#00827E"/>
<path d="M168.214 169.719H166L166.532 145.574H167.107L168.214 169.719Z" fill="#00827E"/>
<path d="M173.306 169.1H171.092L171.624 144.955H172.199L173.306 169.1Z" fill="#00827E"/>
<path d="M68.2014 170.48H65.9873L66.5187 146.335H67.0943L68.2014 170.48Z" fill="#00827E"/>
<path d="M61.4135 170.173H59.1995L59.7308 146.029H60.3065L61.4135 170.173Z" fill="#00827E"/>
<path d="M101.795 171.122H99.2097L99.8299 142.934H100.502L101.795 171.122Z" fill="#00827E"/>
<path d="M92.961 171.122H90.3762L90.9964 142.934H91.6686L92.961 171.122Z" fill="#00827E"/>
<path d="M86.6258 171.122H84.041L84.6612 142.934H85.3334L86.6258 171.122Z" fill="#00827E"/>
<path d="M77.5064 170.716H74.9216L75.5421 142.528H76.214L77.5064 170.716Z" fill="#00827E"/>
<path d="M124.854 174.514H122.269L122.89 146.325H123.561L124.854 174.514Z" fill="#4F6E6E"/>
<path d="M130.897 174H128.312L128.932 145.812H129.604L130.897 174Z" fill="#4F6E6E"/>
<path d="M140.427 174H137.842L138.462 145.812H139.134L140.427 174Z" fill="#4F6E6E"/>
<path d="M148.447 173.467H145.862L146.483 145.279H147.155L148.447 173.467Z" fill="#4F6E6E"/>
<path d="M158.25 172.502H155.665L156.286 144.313H156.957L158.25 172.502Z" fill="#4F6E6E"/>
<path d="M169.692 171.11H167.107L167.728 142.922H168.4L169.692 171.11Z" fill="#4F6E6E"/>
<path d="M70.773 173.467H68.1882L68.8087 145.279H69.4806L70.773 173.467Z" fill="#4F6E6E"/>
<path d="M62.8912 174H60.3064L60.9269 145.812H61.5988L62.8912 174Z" fill="#4F6E6E"/>
<path d="M100.502 179.685H96.969L97.8168 141.154H98.7355L100.502 179.685Z" fill="#6C5F59"/>
<path d="M111.29 179.685H107.756L108.604 141.154H109.523L111.29 179.685Z" fill="#6C5F59"/>
<path d="M127.094 179.362H123.561L124.409 140.832H125.328L127.094 179.362Z" fill="#6C5F59"/>
<path d="M136.859 179.362H133.325L134.173 140.832H135.092L136.859 179.362Z" fill="#6C5F59"/>
<path d="M154.039 179.685H150.506L151.354 141.154H152.273L154.039 179.685Z" fill="#6C5F59"/>
<path d="M163.758 178.545H160.225L161.073 140.014H161.991L163.758 178.545Z" fill="#6C5F59"/>
<path d="M85.3338 177.367H81.8005L82.6484 138.835H83.567L85.3338 177.367Z" fill="#6C5F59"/>
<path d="M79.2728 174H76.688L77.3082 145.812H77.9804L79.2728 174Z" fill="#4F6E6E"/>
<path d="M95.3226 174.191H92.7378L93.358 146.003H94.0302L95.3226 174.191Z" fill="#4F6E6E"/>
<path d="M105.85 174.514H103.265L103.886 146.325H104.558L105.85 174.514Z" fill="#4F6E6E"/>
<path d="M116.435 174.514H113.85L114.471 146.325H115.143L116.435 174.514Z" fill="#4F6E6E"/>
<path d="M67.0938 177.673H63.5605L64.4084 139.142H65.327L67.0938 177.673Z" fill="#6C5F59"/>
<path d="M176.508 153.682C176.508 160.668 170.845 166.331 163.859 166.331C156.873 166.331 151.209 160.668 151.209 153.682C151.209 146.695 156.873 125.22 163.859 125.22C170.845 125.22 176.508 146.695 176.508 153.682Z" fill="#34BE71"/>
<path d="M163.202 156.622L162.599 182.083H166.313L165.056 156.622H163.202Z" fill="#805F59"/>
<path d="M163.858 160.46L169.659 155.742L170.355 157.016L163.858 162.817V160.46Z" fill="#805F59"/>
<path d="M163.858 125.22C162.114 125.22 160.452 126.559 158.94 128.678C159.404 128.488 159.875 128.379 160.352 128.379C167.338 128.379 173.002 149.855 173.002 156.841C173.002 159.717 172.031 162.36 170.414 164.485C174.063 162.265 176.508 158.264 176.508 153.682C176.508 146.695 170.844 125.22 163.858 125.22Z" fill="#52C883"/>
<path d="M85.3339 152.596C85.3339 159.849 79.454 165.729 72.2004 165.729C64.9468 165.729 59.0669 159.849 59.0669 152.596C59.0669 145.342 64.9471 123.045 72.2004 123.045C79.4537 123.045 85.3339 145.342 85.3339 152.596Z" fill="#34BE71"/>
<path d="M71.5192 155.648L70.8928 182.083H74.7489L73.444 155.648H71.5192Z" fill="#805F59"/>
<path d="M72.2002 159.633L78.2232 154.734L78.9461 156.057L72.2002 162.08V159.633Z" fill="#805F59"/>
<path d="M72.1995 123.045C70.3882 123.045 68.6627 124.436 67.093 126.635C67.5745 126.438 68.0633 126.325 68.5593 126.325C75.8126 126.325 81.6928 148.622 81.6928 155.876C81.6928 158.861 80.6848 161.605 79.0065 163.811C82.7945 161.507 85.333 157.353 85.333 152.595C85.333 145.342 79.453 123.045 72.1995 123.045Z" fill="#52C883"/>
<path d="M107.896 103.283C107.135 103.283 106.416 103.433 105.727 103.65C103.544 100.512 99.9218 98.4485 95.8089 98.4485C91.6959 98.4485 88.0741 100.512 85.8908 103.65C85.2016 103.433 84.4826 103.283 83.7215 103.283C79.7163 103.283 76.4692 106.53 76.4692 110.536H115.149C115.149 106.53 111.901 103.283 107.896 103.283Z" fill="white"/>
<g opacity="0.6">
<path opacity="0.6" d="M143.833 106.214C143.349 106.214 142.892 106.309 142.453 106.447C141.064 104.45 138.76 103.137 136.143 103.137C133.526 103.137 131.222 104.45 129.833 106.447C129.394 106.309 128.937 106.214 128.453 106.214C125.904 106.214 123.839 108.28 123.839 110.828H148.447C148.447 108.28 146.382 106.214 143.833 106.214Z" fill="white"/>
</g>
<path d="M128.693 139.214C128.498 138.431 128.383 137.616 128.383 136.772C128.383 131.243 132.829 126.76 138.313 126.76C138.889 126.76 139.45 126.82 139.999 126.915C141.735 125.847 143.768 125.22 145.951 125.22C152.279 125.22 157.409 130.392 157.409 136.772C157.409 137.058 157.387 137.339 157.366 137.62C160.235 140.883 161.992 145.162 161.992 149.865C161.992 160.073 153.784 168.349 143.66 168.349C133.535 168.349 125.328 160.073 125.328 149.865C125.328 145.895 126.581 142.226 128.693 139.214Z" fill="#00A07D"/>
<path d="M145.328 182.083H142.119L142.889 149.576H143.723L145.328 182.083Z" fill="#805F59"/>
<path d="M143.178 162.118L135.958 156.246L135.092 156.727L143.178 163.948V162.118Z" fill="#805F59"/>
<path d="M143.659 155.005L138.76 151.02L138.172 151.347L143.659 156.246V155.005Z" fill="#805F59"/>
<path d="M143.659 159.038L150.88 153.166L151.746 153.647L143.659 160.867V159.038Z" fill="#805F59"/>
<path d="M157.366 137.62C157.386 137.339 157.408 137.059 157.408 136.772C157.408 130.392 152.279 125.22 145.951 125.22C143.768 125.22 141.735 125.847 139.999 126.915C139.45 126.82 138.889 126.76 138.313 126.76C135.348 126.76 132.716 128.097 130.896 130.175C131.945 129.795 133.06 129.552 134.239 129.552C134.815 129.552 135.376 129.612 135.925 129.707C137.661 128.638 139.694 128.012 141.877 128.012C148.205 128.012 153.334 133.184 153.334 139.564C153.334 139.85 153.313 140.131 153.292 140.412C156.161 143.674 157.918 147.954 157.918 152.656C157.918 158.122 155.551 163.019 151.81 166.403C157.839 163.376 161.991 157.117 161.991 149.865C161.991 145.162 160.235 140.883 157.366 137.62Z" fill="#36B294"/>
<path d="M106.446 134.883C106.663 134.021 106.79 133.123 106.79 132.194C106.79 126.106 101.855 121.171 95.7666 121.171C95.1273 121.171 94.5045 121.237 93.8953 121.341C91.9676 120.165 89.7105 119.475 87.2871 119.475C80.2625 119.475 74.5676 125.169 74.5676 132.194C74.5676 132.51 74.592 132.818 74.6147 133.128C71.4298 136.72 69.4797 141.432 69.4797 146.61C69.4797 157.849 78.5912 166.961 89.8309 166.961C101.071 166.961 110.182 157.85 110.182 146.61C110.182 142.239 108.791 138.2 106.446 134.883Z" fill="#00A07D"/>
<path d="M106.447 134.883C106.663 134.021 106.791 133.123 106.791 132.194C106.791 126.106 101.855 121.171 95.7672 121.171C95.1278 121.171 94.5051 121.237 93.8958 121.341C91.9681 120.165 89.711 119.475 87.2876 119.475C82.0613 119.475 77.5758 122.629 75.6191 127.136C77.8849 124.526 81.232 122.867 84.9755 122.867C87.3297 122.867 89.5218 123.532 91.3942 124.667C91.9862 124.566 92.5912 124.502 93.2122 124.502C99.126 124.502 103.92 129.261 103.92 135.132C103.92 136.028 103.796 136.893 103.586 137.725C105.864 140.922 107.215 144.817 107.215 149.032C107.215 155.234 104.309 160.755 99.7844 164.351C105.986 160.864 110.183 154.231 110.183 146.61C110.183 142.239 108.792 138.2 106.447 134.883Z" fill="#36B294"/>
<path d="M91.6702 182.083H88.137L88.9848 143.552H89.9034L91.6702 182.083Z" fill="#805F59"/>
<path d="M89.3024 158.406L81.3527 151.94L80.3989 152.47L89.3024 160.42V158.406Z" fill="#805F59"/>
<path d="M89.8328 155.014L97.7824 148.548L98.7362 149.078L89.8328 157.028V155.014Z" fill="#805F59"/>
<path d="M137.136 125.394C137.396 124.359 137.549 123.281 137.549 122.165C137.549 114.853 131.622 108.926 124.309 108.926C123.541 108.926 122.794 109.005 122.062 109.131C119.747 107.717 117.036 106.889 114.125 106.889C105.688 106.889 98.8484 113.728 98.8484 122.165C98.8484 122.544 98.878 122.915 98.9049 123.287C95.0797 127.601 92.7378 133.26 92.7378 139.479C92.7378 152.978 103.681 163.921 117.18 163.921C130.68 163.921 141.623 152.978 141.623 139.479C141.623 134.229 139.953 129.378 137.136 125.394Z" fill="#20B58D"/>
<path d="M137.137 125.394C137.397 124.359 137.55 123.281 137.55 122.165C137.55 114.853 131.623 108.925 124.311 108.925C123.543 108.925 122.795 109.004 122.063 109.13C119.748 107.717 117.037 106.888 114.126 106.888C107.849 106.888 102.462 110.677 100.112 116.09C102.833 112.955 106.854 110.962 111.35 110.962C114.177 110.962 116.81 111.761 119.059 113.124C119.77 113.003 120.496 112.926 121.242 112.926C128.345 112.926 134.103 118.642 134.103 125.693C134.103 126.769 133.954 127.808 133.701 128.807C136.437 132.648 138.06 137.326 138.06 142.388C138.06 149.836 134.57 156.467 129.136 160.786C136.584 156.598 141.624 148.632 141.624 139.478C141.624 134.228 139.954 129.377 137.137 125.394Z" fill="#52C883"/>
<path d="M96.5652 126.774C96.5571 126.663 96.5558 126.549 96.5482 126.437C96.2872 126.848 96.0468 127.271 95.8101 127.698C96.0598 127.388 96.3004 127.071 96.5652 126.774Z" fill="#52C883"/>
<path d="M119.387 182.083H115.143L116.162 139.096H117.265L119.387 182.083Z" fill="#805F59"/>
<path d="M116.543 155.683L106.995 147.917L105.85 148.554L116.543 158.101V155.683Z" fill="#805F59"/>
<path d="M117.181 146.275L110.702 141.006L109.925 141.438L117.181 147.917V146.275Z" fill="#805F59"/>
<path d="M117.18 151.609L126.728 143.843L127.873 144.48L117.18 154.027V151.609Z" fill="#805F59"/>
<path d="M143.66 103.138C143.66 101.151 145.268 99.5411 147.251 99.5411C147.55 99.5411 147.836 99.5885 148.114 99.6578C149.051 98.6444 150.38 98 151.868 98C154.701 98 156.997 100.3 156.997 103.138H143.66Z" fill="white"/>
</g>
</svg>
