<svg width="69" height="115" viewBox="0 0 69 115" fill="none" xmlns="http://www.w3.org/2000/svg">
<mask id="mask0" mask-type="alpha" maskUnits="userSpaceOnUse" x="0" y="0" width="69" height="115">
<rect width="69" height="115" rx="10" fill="#C4C4C4"/>
</mask>
<g mask="url(#mask0)">
<g opacity="0.2">
<path d="M8.40723 15.4265C8.40723 15.7575 8.5396 16.0554 8.77124 16.2872C9.00289 16.5189 9.30072 16.6513 9.63164 16.6513H35.2781C35.9399 16.6513 36.4694 16.1216 36.4694 15.4596C36.4694 15.1286 36.337 14.8306 36.1054 14.5989C35.8737 14.3672 35.5759 14.2348 35.245 14.2348H34.0206C33.5573 13.1093 32.4321 12.348 31.1416 12.348C30.2812 12.348 29.4869 12.7121 28.9244 13.2748C28.1633 11.9838 26.7734 11.1232 25.185 11.1232C24.7548 11.1232 24.3246 11.1894 23.9275 11.3218C23.1002 9.76597 21.4455 8.67358 19.5262 8.67358C17.2428 8.67358 15.3235 10.2294 14.7278 12.3149C14.2976 12.1162 13.8343 11.9838 13.338 11.9838C11.915 11.9838 10.7237 12.9438 10.3266 14.2348H9.59855C8.9367 14.2017 8.40723 14.7644 8.40723 15.4265Z" fill="#65A4C5"/>
</g>
<g opacity="0.2">
<path d="M64.2339 9.43488C64.2339 9.6335 64.3001 9.79901 64.4324 9.93142C64.5648 10.0638 64.7303 10.13 64.9288 10.13H80.3498C80.7469 10.13 81.0778 9.79901 81.0778 9.40178C81.0778 9.20317 81.0116 9.03765 80.8793 8.90524C80.7469 8.77283 80.5814 8.70663 80.3829 8.70663H79.6548C79.357 8.04458 78.6952 7.58115 77.9341 7.58115C77.4046 7.58115 76.9413 7.77976 76.6104 8.14389C76.1471 7.38253 75.3198 6.85289 74.3601 6.85289C74.0954 6.85289 73.8306 6.88599 73.599 6.9522C73.1026 5.99223 72.1098 5.36328 70.9516 5.36328C69.5617 5.36328 68.4366 6.29015 68.0726 7.54804C67.8078 7.41563 67.5431 7.34943 67.2453 7.34943C66.3849 7.34943 65.6568 7.91217 65.4252 8.70663H64.9619C64.5648 8.70663 64.2339 9.03765 64.2339 9.43488Z" fill="#65A4C5"/>
</g>
<path opacity="0.1" d="M78.8241 133C107.371 133 130.513 109.587 130.513 80.7051C130.513 51.8233 107.371 28.4099 78.8241 28.4099C50.2772 28.4099 27.1353 51.8233 27.1353 80.7051C27.1353 109.587 50.2772 133 78.8241 133Z" fill="#138175"/>
<path opacity="0.15" d="M78.899 124.373C102.695 124.373 121.986 104.857 121.986 80.7814C121.986 56.7062 102.695 37.1895 78.899 37.1895C55.103 37.1895 35.8125 56.7062 35.8125 80.7814C35.8125 104.857 55.103 124.373 78.899 124.373Z" fill="#138175"/>
<path opacity="0.2" d="M79.0122 115.023C97.6441 115.023 112.748 99.7419 112.748 80.8914C112.748 62.0409 97.6441 46.7595 79.0122 46.7595C60.3802 46.7595 45.276 62.0409 45.276 80.8914C45.276 99.7419 60.3802 115.023 79.0122 115.023Z" fill="white"/>
<path d="M61.9167 62.4502C61.9167 62.4502 61.8836 62.4502 61.9167 62.4502C61.685 62.6158 61.3872 62.5826 61.2218 62.3509C55.7285 54.4725 51.5919 47.4548 48.9446 41.5626C45.867 34.6442 44.808 29.2154 45.8008 25.3755C45.867 25.1107 46.1317 24.9783 46.3634 25.0445C46.6281 25.1107 46.7605 25.3755 46.6943 25.6072C44.9404 32.3932 50.2021 44.9059 61.9829 61.7882C62.1483 62.0199 62.1152 62.2847 61.9167 62.4502Z" fill="#138175"/>
<path d="M46.7247 35.1733C46.7247 35.1733 43.2831 37.1595 40.0401 31.0024C40.007 30.9693 46.129 29.4135 46.7247 35.1733Z" fill="#138175"/>
<path d="M48.2468 38.4177C48.2468 38.4177 46.0628 35.1074 52.0524 31.4993C52.0194 31.4993 53.9387 37.5239 48.2468 38.4177Z" fill="#138175"/>
<path d="M45.9267 28.4543C45.9267 28.4543 42.7829 26.0709 47.2173 20.6752C47.2173 20.6421 50.9898 25.7068 45.9267 28.4543Z" fill="#138175"/>
<path d="M51.0943 45.1049C51.0943 45.1049 48.5462 48.1503 43.3838 43.4498C43.3838 43.4166 48.6124 39.9078 51.0943 45.1049Z" fill="#138175"/>
<path d="M53.1419 48.1835C53.1419 48.1835 50.4284 45.3036 55.69 40.7024C55.69 40.7355 58.6021 46.3298 53.1419 48.1835Z" fill="#138175"/>
<path d="M55.5256 52.7183C55.5256 52.7183 53.0436 55.7968 47.782 51.1956C47.782 51.1956 52.9444 47.5543 55.5256 52.7183Z" fill="#138175"/>
<path d="M57.8435 90.4555C56.9169 91.0845 55.9242 91.6141 54.9314 92.0445C54.6667 92.1769 54.3688 92.2762 54.1041 92.4086C45.6987 95.7519 36.0027 93.832 36.0027 93.832C36.0027 93.832 18.4638 92.0776 19.4235 83.6033C20.3832 75.1291 28.1598 80.3924 31.0389 78.9359C33.9179 77.4794 26.1081 72.1499 19.953 66.4231C13.7978 60.6964 15.9488 55.6649 19.2911 55.8635C22.6334 56.0952 22.5342 51.6925 18.8278 48.1837C14.8899 44.4431 8.76783 34.8765 14.5921 32.8903C21.2105 30.6063 25.1485 44.4762 30.6418 44.2776C36.1351 44.079 31.1712 38.5178 35.3408 37.9881C39.5105 37.4585 44.1434 46.4624 42.6873 54.3739C41.2313 62.2853 46.1289 68.7734 47.618 66.4563C49.1072 64.1391 47.7504 56.4924 51.2913 55.3007C58.0752 53.0166 66.7453 84.5633 57.8435 90.4555Z" fill="#138175"/>
<path d="M54.9303 92.0447C54.6656 92.1772 54.3677 92.2765 54.103 92.4089C43.8444 76.0563 20.1835 42.1262 19.9188 41.7621C19.7864 41.5635 19.8195 41.2656 20.0181 41.1332C20.2166 41.0007 20.5144 41.0338 20.6468 41.2325C20.8784 41.6297 44.7048 75.7252 54.9303 92.0447Z" fill="#2B5250"/>
<path d="M33.1581 60.5313C33.0919 60.5313 32.9927 60.5313 32.9265 60.4982C32.6948 60.3989 32.5955 60.134 32.6617 59.9023C32.6948 59.8361 35.2098 53.4804 35.4415 49.2433C35.4415 49.0116 35.6731 48.813 35.9048 48.813C36.1364 48.813 36.335 49.0447 36.335 49.2764C36.1033 53.6791 33.5883 59.9685 33.489 60.2333C33.4559 60.3989 33.3236 60.5313 33.1581 60.5313Z" fill="#2B5250"/>
<path d="M35.801 64.867C35.5032 64.9001 28.9178 65.3304 24.0864 63.907C23.8547 63.8408 23.7223 63.576 23.7885 63.3443C23.8547 63.1125 24.1194 62.9801 24.3511 63.0463C29.0171 64.4035 35.6686 63.9732 35.7348 63.9732C35.9664 63.9401 36.1981 64.1387 36.1981 64.4035C36.1981 64.6352 36.0326 64.8339 35.801 64.867Z" fill="#2B5250"/>
<path d="M47.2855 81.4526C47.1862 81.4526 47.0539 81.4526 46.9546 81.3533C46.756 81.1878 46.7229 80.923 46.8553 80.7244C46.8884 80.6582 51.4882 74.5011 51.7198 70.2309C51.7198 69.9992 51.9515 69.8005 52.1831 69.8005C52.4148 69.8005 52.6133 70.0323 52.6133 70.264C52.3817 74.799 47.7819 80.9892 47.5833 81.254C47.5171 81.3864 47.4179 81.4526 47.2855 81.4526Z" fill="#2B5250"/>
<path d="M42.6558 86.4512C40.1077 86.7822 37.2618 86.9146 34.7799 86.4512C34.5482 86.4181 34.3827 86.1863 34.4158 85.9215C34.4489 85.6898 34.6806 85.5243 34.9453 85.5574C40.8688 86.6498 49.3735 84.1671 49.4728 84.134C49.7044 84.0678 49.9692 84.2002 50.0354 84.4319C50.1015 84.6636 49.9692 84.9284 49.7375 84.9947C49.5059 85.0609 46.3952 85.9546 42.6558 86.4512Z" fill="#2B5250"/>
<path d="M16.7777 102.273C28.6247 111.476 41.0343 106.477 43.5162 105.683C46.7261 104.623 49.0426 102.372 50.3332 100.883C50.5979 100.552 50.8296 100.287 50.995 100.055C51.2929 99.658 51.4583 99.3932 51.4583 99.3932C51.4583 99.3932 44.6413 94.5933 37.0632 89.5948C30.3124 85.126 17.5388 79.3993 0 80.6572C0 80.591 4.2358 92.541 16.7777 102.273Z" fill="#20B58D"/>
<path d="M8.76788 86.9149C8.83407 86.948 12.6728 89.2652 18.5632 92.0127C18.5963 92.0127 18.5963 92.0458 18.6294 92.0458C19.3905 92.4099 20.1847 92.7741 21.012 93.1382C21.3098 93.2706 21.6407 93.403 21.9717 93.5354C22.9644 93.9657 23.9903 94.3961 25.0492 94.7933C26.1082 95.2236 27.2002 95.6209 28.3585 96.0512C28.3915 96.0512 28.3915 96.0843 28.4246 96.0843C29.6821 96.5477 30.9727 96.9781 32.3295 97.4084C32.6935 97.5077 33.0575 97.6401 33.3885 97.7394C35.1423 98.2691 36.9293 98.7656 38.7825 99.1959C38.8487 99.1959 38.9149 99.229 38.981 99.229C40.3047 99.527 41.6284 99.8249 42.9852 100.057C43.4154 100.123 43.8456 100.189 44.2427 100.255C46.2613 100.553 48.2799 100.785 50.3317 100.884C50.5964 100.553 50.828 100.288 50.9935 100.057C47.0886 99.9242 43.0845 99.2952 39.312 98.4346C38.981 98.3684 38.617 98.2691 38.2861 98.2029C34.9438 97.3753 31.7669 96.3822 28.8879 95.356C28.5239 95.2236 28.1599 95.0912 27.829 94.9588C27.0017 94.6609 26.1744 94.3299 25.4132 94.0319C23.163 93.1382 21.0782 92.2444 19.1919 91.3506C18.861 91.1851 18.5301 91.0527 18.1992 90.8872C12.8051 88.3383 9.33045 86.2529 9.26427 86.2198C9.06571 86.0874 8.80098 86.1536 8.66861 86.3522C8.50315 86.5177 8.56933 86.7825 8.76788 86.9149Z" fill="#138175"/>
<path d="M19.0611 91.9455C19.1934 91.8462 19.2265 91.6807 19.1934 91.5152C19.1603 91.3497 18.2338 87.1788 17.2079 85.5568C17.0755 85.3581 16.8108 85.2919 16.6122 85.4244C16.4137 85.5568 16.3475 85.8216 16.4799 86.0202C17.4065 87.5098 18.333 91.6476 18.333 91.7138C18.3992 91.9455 18.6309 92.111 18.8625 92.0448C18.9287 92.0117 18.9949 92.0117 19.0611 91.9455Z" fill="#138175"/>
<path d="M22.2017 93.3686C22.3672 93.2362 22.4003 92.9714 22.2679 92.7728C22.1355 92.5741 21.8708 92.541 21.6722 92.6734C21.6391 92.7065 18.1645 95.1561 15.9142 95.6857C15.6826 95.752 15.5502 95.9837 15.5833 96.2154C15.6495 96.4471 15.8811 96.5795 16.1128 96.5464C18.4954 95.9506 22.0032 93.4679 22.2017 93.3686C22.1686 93.3686 22.1686 93.3686 22.2017 93.3686Z" fill="#138175"/>
<path d="M28.7914 95.9841C28.9238 95.8848 28.99 95.6861 28.9238 95.5206C28.8245 95.2889 26.8059 89.4629 24.1916 86.3182C24.0261 86.1195 23.7614 86.1195 23.5959 86.2519C23.3974 86.4175 23.3974 86.6823 23.5298 86.8478C26.0448 89.8601 28.0634 95.6861 28.0965 95.7524C28.1627 95.9841 28.4274 96.0834 28.659 96.0172C28.7252 96.0503 28.7583 96.0172 28.7914 95.9841Z" fill="#138175"/>
<path d="M33.5528 97.572C33.7182 97.4396 33.7513 97.1747 33.619 96.9761C33.4866 96.7775 33.2218 96.7444 33.0233 96.8768C32.9902 96.9099 28.7875 99.9222 24.1877 100.452C23.956 100.485 23.7906 100.684 23.8237 100.948C23.8568 101.18 24.0553 101.346 24.3201 101.313C29.1184 100.75 33.3542 97.7044 33.5528 97.572Z" fill="#138175"/>
<path d="M39.2457 99.096C39.3781 98.9967 39.4442 98.7981 39.3781 98.6326C39.3119 98.434 37.7235 93.8327 34.8113 90.3901C34.6459 90.2246 34.3811 90.1915 34.2157 90.3239C34.0171 90.4894 34.0171 90.7542 34.1495 90.9197C36.9623 94.2631 38.5508 98.8312 38.5838 98.8974C38.65 99.1291 38.9148 99.2284 39.1464 99.1622C39.1464 99.1622 39.2126 99.1291 39.2457 99.096Z" fill="#138175"/>
<path d="M44.409 100.122C44.5745 99.9901 44.6076 99.7253 44.4752 99.5267C44.3429 99.328 44.0781 99.2949 43.8796 99.4273C43.8465 99.4605 39.7761 102.407 34.1174 103.4C33.8857 103.433 33.7203 103.664 33.7534 103.896C33.7865 104.128 34.0181 104.293 34.2497 104.26C40.1071 103.234 44.2105 100.255 44.409 100.122C44.409 100.122 44.3759 100.122 44.409 100.122Z" fill="#138175"/>
<path d="M71.6457 46.3065L71.6492 46.3057L72.5895 46.0941C73.8215 45.9501 75.063 45.9039 76.3023 45.9561C78.0321 46.0448 79.696 46.1669 81.4118 46.4227L81.4962 46.4353L81.5815 46.4406C82.3063 46.4861 83.1092 46.6255 83.9995 46.7896L84.0158 46.7926L84.0322 46.7953L84.6622 46.9007C84.8104 46.928 84.9557 46.9545 85.0986 46.9805C86.0346 47.1509 86.8627 47.3017 87.6682 47.5247L87.6758 47.5268L87.6834 47.5289C89.0508 47.8959 90.3989 48.3316 91.7228 48.8345C92.9582 49.3091 94.1315 49.933 95.2169 50.6925C95.2176 50.6929 95.2183 50.6934 95.219 50.6939L95.7543 51.07L95.7729 51.0831L95.7918 51.0957C96.3025 51.4375 96.8145 51.7971 97.3275 52.1747C98.1622 52.7987 98.9409 53.3897 99.7668 54.0633C100.46 54.629 101.115 55.231 101.827 55.8851C101.941 55.9898 102.056 56.0958 102.174 56.2032L102.197 56.2243L102.22 56.2447L102.324 56.3337C103.095 57.038 103.851 57.746 104.566 58.4638L104.569 58.4664C105.841 59.7389 107.045 61.0788 108.175 62.4804C108.74 63.2292 109.165 64.0756 109.428 64.9782L109.441 65.0228L109.456 65.0667C109.654 65.6459 109.875 66.2742 110.116 66.9091L110.499 67.9908C110.599 68.2866 110.691 68.5585 110.783 68.83C110.971 69.3826 111.157 69.9331 111.409 70.6776C111.781 71.7826 112.134 72.8618 112.467 73.9542L112.483 74.0058L112.502 74.0565C112.666 74.5053 112.826 75.0619 112.981 75.6677L112.987 75.6906L112.993 75.7134L113.222 76.5243L113.227 76.5419L113.253 76.641C113.462 77.4081 113.639 78.059 113.758 78.7158L113.762 78.7379L113.766 78.7599C114.022 80.0094 114.201 81.2733 114.302 82.5447C114.311 83.1803 114.248 83.8149 114.113 84.436L114.067 84.6462V84.8613V84.9522C113.842 86.1886 113.585 87.4197 113.297 88.6456C113.057 89.6231 112.782 90.6072 112.488 91.5823L112.366 91.9657L112.362 91.9782L112.358 91.9907C112.078 92.918 111.785 93.8454 111.481 94.773C110.902 96.4222 110.214 98.0308 109.422 99.5882L109.408 99.6161L109.394 99.6444C108.866 100.769 108.13 101.782 107.225 102.63C107.223 102.632 107.221 102.635 107.218 102.637L106.418 103.371C106.416 103.372 106.414 103.373 106.413 103.375C105.958 103.786 105.492 104.215 105.034 104.636C104.154 105.445 103.308 106.223 102.644 106.786C102.337 107.047 102.025 107.313 101.712 107.58C100.941 108.237 100.172 108.894 99.4955 109.447C98.7268 110.076 97.9375 110.679 97.1233 111.301C96.9449 111.438 96.7653 111.575 96.5845 111.713L96.5774 111.719L96.5704 111.724L96.2475 111.976L96.2418 111.981L96.2361 111.985L95.8952 112.256L95.8446 112.296L95.7966 112.339C95.3398 112.752 94.8171 113.153 94.2634 113.508L94.2588 113.511L94.0076 113.673L93.9479 113.712L93.8911 113.755C93.523 114.031 93.116 114.25 92.6837 114.404L92.0132 114.601C91.8467 114.648 91.6978 114.7 91.591 114.738C91.5394 114.757 91.5001 114.771 91.467 114.783C91.413 114.803 91.3751 114.816 91.3266 114.833C91.3062 114.84 91.2898 114.845 91.2769 114.849H91.1501L90.9449 114.892C89.6888 115.159 88.444 115.405 87.2063 115.615C85.1867 115.953 83.163 116.256 81.1323 116.542C81.0591 116.552 80.987 116.561 80.9161 116.571C80.1382 116.673 79.4941 116.758 78.8717 116.758H78.8344L78.797 116.76L75.4612 116.884H74.5464C73.7062 116.87 72.8725 116.732 72.0716 116.475L72.0448 116.467L72.0177 116.459C69.8712 115.837 67.7826 115.03 65.7754 114.045L65.7554 114.035L65.7352 114.026C64.1391 113.286 62.4579 112.442 60.9954 111.638C59.5259 110.83 58.0689 109.967 56.6234 109.065L56.6144 109.059C56.0287 108.698 55.4753 108.286 54.9605 107.828C54.5776 107.466 54.2183 107.079 53.8849 106.67L53.8791 106.663L53.8733 106.656L53.6117 106.341L53.6041 106.332L53.3605 106.035L53.3605 106.035C53.204 105.844 53.0575 105.668 52.9188 105.502C52.5671 105.08 52.2651 104.717 51.9743 104.32L51.967 104.31L51.9596 104.3C50.9836 103.002 50.0371 101.686 49.1201 100.352L49.0887 100.307L49.0548 100.263C48.4448 99.4733 47.9362 98.6701 47.3901 97.7683C46.5678 96.402 45.8533 94.9732 45.2531 93.4948C44.9184 92.6643 44.6595 91.805 44.4796 90.9274C44.1168 89.1412 43.8373 87.2529 43.5872 85.4603C43.4497 84.3884 43.3536 83.3331 43.3536 82.3218V82.3176V82.3135V82.3094V82.3053V82.3012V82.2971V82.2929V82.2888V82.2847V82.2806V82.2765V82.2723V82.2682V82.2641V82.26V82.2559V82.2517V82.2476V82.2435V82.2394V82.2352V82.2311V82.227V82.2229V82.2187V82.2146V82.2105V82.2064V82.2022V82.1981V82.194V82.1898V82.1857V82.1816V82.1775V82.1733V82.1692V82.1651V82.1609V82.1568V82.1527V82.1486V82.1444V82.1403V82.1362V82.132V82.1279V82.1238V82.1196V82.1155V82.1114V82.1072V82.1031V82.0989V82.0948V82.0907V82.0865V82.0824V82.0783V82.0741V82.07V82.0658V82.0617V82.0576V82.0534V82.0493V82.0452V82.041V82.0369V82.0327V82.0286V82.0245V82.0203V82.0162V82.012V82.0079V82.0037V81.9996V81.9955V81.9913V81.9872V81.983V81.9789V81.9747V81.9706V81.9664V81.9623V81.9582V81.954V81.9499V81.9457V81.9416V81.9374V81.9333V81.9291V81.925V81.9208V81.9167V81.9125V81.9084V81.9042V81.9001V81.8959V81.8918V81.8876V81.8835V81.8793V81.8752V81.871V81.8669V81.8627V81.8586V81.8544V81.8503V81.8461V81.842V81.8378V81.8337V81.8295V81.8254V81.8212V81.8171V81.8129V81.8087V81.8046V81.8004V81.7963V81.7921V81.788V81.7838V81.7797V81.7755V81.7713V81.7672V81.763V81.7589V81.7547V81.7506V81.7464V81.7422V81.7381V81.7339V81.7298V81.7256V81.7215V81.7173V81.7131V81.709V81.7048V81.7007V81.6965V81.6923V81.6882V81.684V81.6799V81.6757V81.6715V81.6674V81.6632V81.659V81.6549V81.6507V81.6466V81.6424V81.6382V81.6341V81.6299V81.6258V81.6216V81.6174V81.6133V81.6091V81.6049V81.6008V81.5966V81.5925V81.5883V81.5841V81.58V81.5758V81.5716V81.5675V81.5633V81.5591V81.555V81.5508V81.5466V81.5425V81.5383V81.5342V81.53V81.5258V81.5217V81.5175V81.5133V81.5092V81.505V81.5008V81.4967V81.4925V81.4883V81.4842V81.48V81.4758V81.4717V81.4675V81.4633V81.4592V81.455V81.4508V81.4467V81.4425V81.4383V81.4342V81.43V81.4258V81.4217V81.4175V81.4133V81.4092V81.405V81.4008V81.3967V81.3925V81.3883V81.3842V81.38V81.3758V81.3717V81.3675V81.3633V81.3591V81.355V81.3508V81.3466V81.3425V81.3383V81.3341V81.33V81.3258V81.3216V81.3175V81.3133V81.3091V81.305V81.3008V81.2966V81.2925V81.2883V81.2841V81.2799V81.2758V81.2716V81.2674V81.2633V81.2591V81.2549V81.2508V81.2466V81.2424V81.2383V81.2341V81.2299V81.2258V81.2216V81.2174V81.2133V81.2091V81.2049V81.2007V81.1966V81.1924V81.1882V81.1841V81.1799V81.1757V81.1716V81.1674V81.1632V81.1591V81.1549V81.1507V81.1466V81.1424V81.1382V81.1341V81.1299V81.1257V81.1216V81.1174V81.1132V81.1091V81.1049V81.1007V81.0965V81.0924V81.0882V81.084V81.0799V81.0757V81.0715V81.0674V81.0632V81.059V81.0549V81.0507V81.0465V81.0424V81.0382V81.034V81.0299V81.0257V81.0215V81.0174V81.0132V81.009V81.0049V81.0007V80.9966V80.9924V80.9882V80.9841V80.9799V80.9757V80.9716V80.9674V80.9632V80.9591V80.9549V80.9507V80.9466V80.9424V80.9382V80.9341V80.9299V80.9258V80.9216V80.9174V80.9133V80.9091V80.9049V80.9008V80.8966V80.8925V80.8883V80.8841V80.88V80.8758V80.8716V80.8675V80.8633V80.8592V80.855V80.8508V80.8467V80.8425V80.8384V80.8342V80.83V80.8259V80.8217V80.8176V80.8134V80.8092V80.8051V80.8009V80.7968V80.7926V80.7884V80.7843V80.7801V80.776V80.7718V80.7677V80.7635V80.7593V80.7552V80.751V80.7469V80.7427V80.7386V80.7344V80.7302V80.7261V80.7219V80.7178V80.7136V80.7095V80.7053V80.7012V80.697V80.6929V80.6887V80.6845V80.6804V80.6762V80.6721V80.6679V80.6638V80.6596V80.6555V80.6513V80.6472V80.643V80.6389V80.6347V80.6306V80.6264V80.6223V80.6181V80.614V80.6098V80.6057V80.6015V80.5974V80.5932V80.5891V80.5849V80.5808V80.5766V80.5725V80.5683V80.5642V80.5601V80.5559V80.5518V80.5476V80.5435V80.5393V80.5352V80.531V80.5269V80.5228V80.5186V80.5145V80.5103V80.5062V80.502V80.4979V80.4938V80.4896V80.4855V80.4813V80.4772V80.4731V80.4689V80.4648V80.4606V80.4565V80.4524V80.4482V80.4441V80.4399V80.4358V80.4317V80.4275V80.4234V80.4193V80.4151V80.411V80.4069V80.4027V80.3986V80.3945V80.3903V80.3862V80.3821V80.3779V80.3738V80.3697V80.3655V80.3614V80.3573V80.3531V80.349V80.3449V80.3407V80.3366V80.3325V80.3284V80.3242V80.3201V80.316V80.3119V80.3077V80.3036V80.2995V80.2953V80.2912V80.2871V80.283V80.2789V80.2747V80.2706V80.2665V80.2624V80.2582V80.2541V80.25V80.2459V80.2418V80.2376V80.2335V80.2294V80.2253V80.2212V80.217V80.2129V80.2088V80.2047V80.2006V80.1965V79.6381V79.6336V79.629V79.6245V79.6199V79.6154V79.6108V79.6063V79.6017V79.5971V79.5926V79.588V79.5834V79.5788V79.5742V79.5696V79.565V79.5604V79.5558V79.5512V79.5466V79.542V79.5374V79.5328V79.5282V79.5235V79.5189V79.5143V79.5096V79.505V79.5004V79.4957V79.4911V79.4864V79.4818V79.4771V79.4724V79.4678V79.4631V79.4584V79.4537V79.4491V79.4444V79.4397V79.435V79.4303V79.4256V79.4209V79.4162V79.4115V79.4068V79.4021V79.3974V79.3927V79.3879V79.3832V79.3785V79.3737V79.369V79.3643V79.3595V79.3548V79.35V79.3453V79.3405V79.3358V79.331V79.3263V79.3215V79.3167V79.312V79.3072V79.3024V79.2976V79.2929V79.2881V79.2833V79.2785V79.2737V79.2689V79.2641V79.2593V79.2545V79.2497V79.2449V79.2401V79.2352V79.2304V79.2256V79.2208V79.2159V79.2111V79.2063V79.2014V79.1966V79.1918V79.1869V79.1821V79.1772V79.1724V79.1675V79.1627V79.1578V79.1529V79.1481V79.1432V79.1383V79.1335V79.1286V79.1237V79.1188V79.1139V79.109V79.1042V79.0993V79.0944V79.0895V79.0846V79.0797V79.0748V79.0699V79.065V79.06V79.0551V79.0502V79.0453V79.0404V79.0354V79.0305V79.0256V79.0207V79.0157V79.0108V79.0059V79.0009V78.996V78.991V78.9861V78.9811V78.9762V78.9712V78.9663V78.9613V78.9564V78.9514V78.9464V78.9415V78.9365V78.9315V78.9265V78.9216V78.9166V78.9116V78.9066V78.9016V78.8967V78.8917V78.8867V78.8817V78.8767V78.8717V78.8667V78.8617V78.8567V78.8517V78.8467V78.8417V78.8367V78.8317V78.8266V78.8216V78.8166V78.8116V78.8066V78.8015V78.7965V78.7915V78.7865V78.7814V78.7764V78.7714V78.7663V78.7613V78.7562V78.7512V78.7462V78.7411V78.7361V78.731V78.726V78.7209V78.7158V78.7108V78.7057V78.7007V78.6956V78.6905V78.6855V78.6804V78.6754V78.6703V78.6652V78.6601V78.6551V78.65V78.6449V78.6398V78.6347V78.6297V78.6246V78.6195V78.6144V78.6093V78.6042V78.5991V78.594V78.5889V78.5839V78.5788V78.5737V78.5686V78.5635V78.5584V78.5532V78.5481V78.543V78.5379V78.5328V78.5277V78.5226V78.5175V78.5124V78.5072V78.5021V78.497V78.4919V78.4868V78.4816V78.4765V78.4714V78.4663V78.4611V78.456V78.4509V78.4458V78.4406V78.4355V78.4304V78.4252V78.4201V78.4149V78.4098V78.4047V78.3995V78.3944V78.3892V78.3841V78.3789V78.3738V78.3687V78.3635V78.3584V78.3532V78.3481V78.3429V78.3378V78.3326V78.3274V78.3223V78.3171V78.312V78.3068V78.3017V78.2965V78.2913V78.2862V78.281V78.2758V78.2707V78.2655V78.2603V78.2552V78.25V78.2448V78.2397V78.2345V78.2293V78.2242V78.219V78.2138V78.2086V78.2035V78.1983V78.1931V78.1879V78.1828V78.1776V78.1724V78.1672V78.1621V78.1569V78.1517V78.1465V78.1413V78.1362V78.131V78.1258V78.1206V78.1154V78.1102V78.105V78.0999V78.0947V78.0895V78.0843V78.0791V78.0739V78.0687V78.0636V78.0584V78.0532V78.048V78.0428V78.0376V78.0324V78.0272V78.022V78.0168V78.0117V78.0065V78.0013V77.9961V77.9909V77.9857V77.9805V77.9753V77.9701V77.9649V77.9597V77.9545V77.9493V77.9441V77.9389V77.9338V77.9286V77.9234V77.9182V77.913V77.9078V77.9026V77.8974V77.8922V77.887V77.8818V77.8766V77.8714V77.8662V77.861V77.8558V77.8506V77.8454V77.8402V77.835V77.8298V77.8246V77.8195V77.8143V77.8091V77.8039V77.7987V77.7935V77.7883V77.7831V77.7779V77.7727V77.7675V77.7623V77.7571V77.7519V77.7467V77.7415V77.7364V77.7312V77.726V77.7208V77.7156V77.7104V77.7052V77.7V77.6948V77.6896V77.6845V77.6793V77.6741V77.6689V77.6637V77.6585V77.6533V77.6481V77.643V77.6378V77.6326V77.6274V77.6222V77.617V77.6119V77.6067V77.6015V77.5963V77.5911V77.586V77.5808V77.5756V77.5704V77.5652V77.5601V77.5549V77.5497V77.5445V77.5394V77.5342V77.529V77.5238V77.5187V77.5135V77.5083V77.5032V77.498V77.4928V77.4877V77.4825V77.4773V77.4722V77.467V77.4618V77.4567V77.4515V77.4464V77.4412V77.436V77.4309V77.4257V77.4206V77.4154V77.4103V77.4051V77.4V77.3948V77.3897V77.3845V77.3794V77.3742V77.3691V77.3639V77.3588V77.3536V77.3485V77.3433V77.3382V77.3331V77.3279V77.3228V77.3177V77.3125V77.3074V77.3023V77.2971V77.292V77.2869V77.2817V77.2766V77.2715V77.2664V77.2612V77.2561V77.251V77.2459V77.2408V77.2356V77.2305V77.2254V77.2203V77.2152V77.2101V77.205V77.1999V77.1948V77.1897V77.1846V77.1795V77.1744V77.1693V77.1642V77.1591V77.154V77.1489V77.1438V77.1387V77.1336V77.1317C43.4643 75.5546 43.6786 73.9866 43.995 72.4378L43.9999 72.414L44.0041 72.3901C44.3287 70.5782 44.9025 68.8205 45.7089 67.1674C46.4398 65.7357 47.224 64.319 48.0443 62.9349L48.0779 62.8782L48.1077 62.8194C48.4954 62.0545 48.9481 61.4015 49.5121 60.5876C49.5939 60.4697 49.6779 60.3485 49.7645 60.223L49.7645 60.223L49.9234 59.9926C49.9238 59.9919 49.9243 59.9913 49.9247 59.9906C49.9764 59.9161 50.0274 59.8423 50.078 59.7692C50.6092 59.0015 51.0848 58.3143 51.6097 57.6849L51.6213 57.6709L51.6327 57.6568C52.4763 56.6071 53.3712 55.6002 54.314 54.6396C54.6853 54.3042 55.0907 54.0091 55.5235 53.7593L55.574 53.7302L55.6226 53.6981L56.1363 53.3603C56.8154 52.9214 57.4999 52.5 58.1897 52.096L58.1964 52.0921L58.203 52.0882C59.3296 51.4167 60.6682 50.6566 61.609 50.1494C62.0655 49.9033 62.5933 49.6361 63.1189 49.3711C63.1589 49.351 63.1989 49.3308 63.2389 49.3107C63.7101 49.0733 64.1842 48.8344 64.551 48.6368C65.0399 48.3735 65.6475 48.1471 66.3925 47.8694C66.5356 47.8161 66.6837 47.7609 66.8371 47.7031C67.7058 47.3762 68.6058 47.05 69.3051 46.8628C70.0652 46.6593 70.8317 46.4881 71.6457 46.3065Z" fill="#FFD064" stroke="#FFC250" stroke-width="4"/>
</g>
</svg>
