<svg width="80" height="80" viewBox="0 0 80 80" fill="none" xmlns="http://www.w3.org/2000/svg">
<path opacity="0.2" d="M40 80C62.0914 80 80 62.0914 80 40C80 17.9086 62.0914 0 40 0C17.9086 0 0 17.9086 0 40C0 62.0914 17.9086 80 40 80Z" fill="#61C1B8"/>
<path opacity="0.15" d="M40.0581 73.4011C58.4729 73.4011 73.4011 58.4729 73.4011 40.0581C73.4011 21.6433 58.4729 6.71509 40.0581 6.71509C21.6433 6.71509 6.71509 21.6433 6.71509 40.0581C6.71509 58.4729 21.6433 73.4011 40.0581 73.4011Z" fill="#61C1B8"/>
<path opacity="0.3" d="M40.1422 66.2493C54.5608 66.2493 66.2493 54.5608 66.2493 40.1422C66.2493 25.7237 54.5608 14.0352 40.1422 14.0352C25.7237 14.0352 14.0352 25.7237 14.0352 40.1422C14.0352 54.5608 25.7237 66.2493 40.1422 66.2493Z" fill="white"/>
<path d="M63.8594 32.846C63.606 32.3175 63.0435 31.9842 62.4249 32.0674L55.1967 32.8735L55.3373 28.2592C55.3373 27.7311 55.0564 27.2305 54.5499 26.9803C54.0717 26.7577 53.4813 26.8135 53.0313 27.1472L48.2782 30.9554L49.9093 22.9495C50.0221 22.4214 49.8251 21.8929 49.375 21.5596C48.9531 21.2537 48.3906 21.198 47.9127 21.4206L43.7218 23.4776L41.4074 16.6763C41.2107 16.1203 40.5545 15.8145 39.992 15.8145C39.4295 15.8145 38.9607 16.1203 38.7637 16.6763L36.4577 23.4776L32.2667 21.4206C31.7888 21.198 31.2263 21.2537 30.8045 21.5596C30.3544 21.8929 30.1574 22.4214 30.2702 22.9495L31.9013 30.9554L27.1482 27.1472C26.6981 26.8135 26.1356 26.7577 25.6295 26.9803C25.1231 27.2305 24.8418 27.7311 24.8418 28.2592L24.9824 32.8735L17.567 32.0674C16.9481 31.9842 16.3856 32.3175 16.1326 32.846C15.8795 33.402 15.992 34.0412 16.442 34.4582L21.8891 39.4066L18.2324 42.2697C17.8106 42.6035 17.6139 43.1595 17.7545 43.6876C17.8952 44.2157 18.317 44.6048 18.8513 44.7159L27.9074 46.4396L24.7576 52.639C24.5324 53.1113 24.5888 53.6673 24.8982 54.0843C25.2355 54.5291 25.7702 54.7239 26.3045 54.6124L39.992 51.8882L53.875 54.6124C53.9592 54.6403 54.0717 54.6403 54.1563 54.6403C54.5781 54.6403 55 54.4455 55.2813 54.0843C55.5907 53.6673 55.6467 53.1113 55.4219 52.639L52.2717 46.4396L61.3281 44.7159C61.8624 44.6048 62.2843 44.2157 62.4249 43.6876C62.5652 43.1595 62.3685 42.6035 61.9467 42.2697L58.2904 39.4066L63.5499 34.4582C64 34.0412 64.1124 33.402 63.8594 32.846Z" fill="#EC5569"/>
<path d="M63.5502 34.4582L58.2906 39.4066L61.9469 42.2698C62.3688 42.6035 62.5658 43.1595 62.4252 43.6876C62.2845 44.2157 61.8627 44.6048 61.3284 44.7159L52.272 46.4396L55.4221 52.639C55.647 53.1113 55.5909 53.6673 55.2815 54.0843C55.0002 54.4455 54.5784 54.6403 54.1565 54.6403C54.0719 54.6403 53.9595 54.6403 53.8752 54.6124L39.9922 51.8882V15.8145C40.5547 15.8145 41.2109 16.1203 41.4076 16.6763L43.722 23.4776L47.9126 21.4206C48.3909 21.198 48.9534 21.2537 49.3752 21.5596C49.8253 21.8929 50.022 22.4214 49.9095 22.9495L48.2781 30.9554L53.0315 27.1472C53.4816 26.8135 54.0719 26.7577 54.5502 26.9803C55.0563 27.2305 55.3375 27.7311 55.3375 28.2592L55.1969 32.8735L62.4252 32.0674C63.0437 31.9842 63.6062 32.3175 63.8596 32.846C64.1127 33.402 64.0002 34.0412 63.5502 34.4582Z" fill="#E63950"/>
<path d="M49.3105 40.5182L41.4919 45.6614V61.868C41.4919 62.6466 40.7792 63.2579 39.9919 63.2579C39.2042 63.2579 38.6794 62.6466 38.6794 61.868V45.6614L30.8604 40.5186C30.2137 40.0737 30.0449 39.2119 30.4667 38.5726C30.9168 37.9331 31.7888 37.7665 32.4355 38.1835L38.6794 42.3255V36.571C38.6794 35.7924 39.2042 35.181 39.9919 35.181C40.7792 35.181 41.4919 35.7924 41.4919 36.571V42.3255L47.7354 38.1832C48.3825 37.7662 49.2541 37.9331 49.7042 38.5723C50.126 39.2119 49.9576 40.0737 49.3105 40.5182Z" fill="#CC2E43"/>
<path d="M49.3108 40.5182L41.4922 45.6614V61.868C41.4922 62.6466 40.7795 63.2579 39.9922 63.2579V35.181C40.7795 35.181 41.4922 35.7924 41.4922 36.571V42.3255L47.7357 38.1832C48.3828 37.7662 49.2547 37.9331 49.7045 38.5723C50.1263 39.2119 49.9579 40.0737 49.3108 40.5182Z" fill="#AE2538"/>
</svg>
