<svg width="80" height="80" viewBox="0 0 80 80" fill="none" xmlns="http://www.w3.org/2000/svg">
<path opacity="0.2" d="M40 80C62.0914 80 80 62.0914 80 40C80 17.9086 62.0914 0 40 0C17.9086 0 0 17.9086 0 40C0 62.0914 17.9086 80 40 80Z" fill="#61C1B8"/>
<path opacity="0.15" d="M40.0581 73.4011C58.4729 73.4011 73.4011 58.4729 73.4011 40.0581C73.4011 21.6433 58.4729 6.71509 40.0581 6.71509C21.6433 6.71509 6.71509 21.6433 6.71509 40.0581C6.71509 58.4729 21.6433 73.4011 40.0581 73.4011Z" fill="#61C1B8"/>
<path opacity="0.3" d="M40.1422 66.2493C54.5608 66.2493 66.2493 54.5608 66.2493 40.1422C66.2493 25.7237 54.5608 14.0352 40.1422 14.0352C25.7237 14.0352 14.0352 25.7237 14.0352 40.1422C14.0352 54.5608 25.7237 66.2493 40.1422 66.2493Z" fill="white"/>
<path d="M42.3448 63.2579H37.3793L38.2069 53.442H41.5172L42.3448 63.2579Z" fill="#F8664F"/>
<path d="M39.862 58.35V53.442H38.2069L37.3793 63.2579H42.3448L42.1933 61.4583C41.52 61.254 40.9304 60.8421 40.5109 60.2828C40.0914 59.7235 39.8641 59.0462 39.862 58.35Z" fill="#CC5144"/>
<path d="M39.8621 53.442L48.1379 55.078L46.8386 53.3651C46.7409 53.2362 46.6838 53.0817 46.6746 52.9209C46.6654 52.76 46.7044 52.6001 46.7868 52.4611C46.8692 52.3221 46.9912 52.2103 47.1376 52.1396C47.2841 52.0689 47.4484 52.0425 47.6099 52.0637L58.069 53.442L52.0085 48.7836C51.8845 48.6881 51.7905 48.5597 51.7375 48.4134C51.6846 48.2671 51.6749 48.1089 51.7097 47.9573C51.7444 47.8058 51.8221 47.6671 51.9336 47.5576C52.0452 47.4481 52.186 47.3723 52.3396 47.339L58.069 46.0801L55.8701 44.4507C55.5699 44.2278 55.3674 43.8997 55.3041 43.5339C55.2409 43.1681 55.3217 42.7922 55.5299 42.4834L59.7241 36.2642H53.3302C53.1069 36.2642 52.8866 36.2139 52.6859 36.1171C52.4852 36.0204 52.3094 35.8797 52.172 35.7057C52.0345 35.5318 51.939 35.3292 51.8926 35.1133C51.8462 34.8974 51.8502 34.6739 51.9043 34.4597L52.2759 32.9923L47.8069 35.7554C47.6589 35.847 47.4854 35.8899 47.3113 35.8781C47.1371 35.8663 46.9712 35.8004 46.8372 35.6898C46.7033 35.5791 46.6081 35.4295 46.5654 35.2622C46.5227 35.0949 46.5346 34.9185 46.5994 34.7583L50.6207 24.8124L47.6314 25.9944C47.31 26.1216 46.9534 26.1325 46.6246 26.025C46.2958 25.9175 46.0161 25.6986 45.8348 25.407L39.8621 15.8145L33.2414 26.4483L29.1034 24.8124L33.1288 34.7583C33.1936 34.9185 33.2056 35.0949 33.1628 35.2622C33.1201 35.4295 33.025 35.5791 32.891 35.6898C32.7571 35.8004 32.5911 35.8663 32.417 35.8781C32.2428 35.8899 32.0694 35.847 31.9214 35.7554L27.4483 32.9923L27.8199 34.4597C27.8739 34.6739 27.8779 34.8974 27.8315 35.1133C27.7851 35.3292 27.6896 35.5318 27.5521 35.7057C27.4147 35.8797 27.239 36.0204 27.0383 36.1171C26.8376 36.2139 26.6172 36.2642 26.3939 36.2642H20L24.1942 42.481C24.4025 42.7898 24.4833 43.1656 24.42 43.5315C24.3568 43.8973 24.1543 44.2253 23.8541 44.4482L21.6552 46.0801L27.5079 47.366C27.6571 47.3988 27.7942 47.4719 27.904 47.577C28.0138 47.6822 28.0919 47.8154 28.1298 47.9617C28.1677 48.1081 28.1638 48.262 28.1186 48.4064C28.0734 48.5507 27.9886 48.6799 27.8737 48.7795L22.4828 53.442L32.091 52.085C32.253 52.0622 32.4183 52.0874 32.5658 52.1574C32.7133 52.2273 32.8366 52.339 32.9199 52.4782C33.0033 52.6174 33.043 52.7779 33.0341 52.9394C33.0251 53.1009 32.968 53.2562 32.8698 53.3856L31.5862 55.078L39.8621 53.442Z" fill="#F9E109"/>
<path d="M47.6099 52.0637L58.069 53.442L51.3953 51.3431C48.0481 50.2904 45.1264 48.2125 43.0531 45.41C40.9797 42.6075 39.8622 39.2257 39.8621 35.7538V15.8145L33.2414 26.4483L29.1034 24.8124L33.1288 34.7583C33.1936 34.9185 33.2056 35.0949 33.1628 35.2622C33.1201 35.4295 33.025 35.5791 32.891 35.6898C32.7571 35.8004 32.5911 35.8663 32.417 35.8781C32.2428 35.8899 32.0694 35.847 31.9214 35.7554L27.4483 32.9923L27.8199 34.4597C27.8739 34.6739 27.8779 34.8974 27.8315 35.1133C27.7851 35.3292 27.6896 35.5318 27.5521 35.7057C27.4147 35.8797 27.239 36.0204 27.0383 36.1171C26.8376 36.2139 26.6172 36.2642 26.3939 36.2642H20L24.1942 42.481C24.4025 42.7898 24.4833 43.1656 24.42 43.5315C24.3568 43.8973 24.1543 44.2253 23.8541 44.4482L21.6552 46.0801L27.5079 47.366C27.6571 47.3988 27.7942 47.4719 27.904 47.577C28.0138 47.6822 28.0919 47.8154 28.1298 47.9617C28.1677 48.1081 28.1638 48.262 28.1186 48.4064C28.0734 48.5507 27.9886 48.6799 27.8737 48.7795L22.4828 53.442L32.091 52.085C32.253 52.0622 32.4183 52.0874 32.5658 52.1574C32.7133 52.2273 32.8366 52.339 32.9199 52.4782C33.0033 52.6174 33.043 52.7779 33.0341 52.9394C33.0252 53.1009 32.968 53.2562 32.8698 53.3856L31.5862 55.078L39.8621 53.442L48.1379 55.078L46.8386 53.3651C46.7409 53.2362 46.6838 53.0817 46.6746 52.9209C46.6654 52.76 46.7044 52.6001 46.7868 52.4611C46.8692 52.3221 46.9912 52.2103 47.1376 52.1396C47.2841 52.0689 47.4484 52.0425 47.6099 52.0637Z" fill="#FCBC04"/>
<path d="M39.1446 45.7252C33.7752 43.0717 29.6034 38.5302 27.4483 32.9923L27.8199 34.4598C27.8739 34.6739 27.8779 34.8974 27.8315 35.1133C27.7851 35.3292 27.6896 35.5318 27.5521 35.7058C27.4147 35.8797 27.239 36.0204 27.0383 36.1172C26.8376 36.2139 26.6172 36.2643 26.3939 36.2643H20L24.1942 42.481C24.4025 42.7898 24.4833 43.1657 24.42 43.5315C24.3568 43.8973 24.1543 44.2254 23.8541 44.4483L21.6552 46.0802L27.5079 47.366C27.6571 47.3989 27.7942 47.4719 27.904 47.5771C28.0138 47.6822 28.0919 47.8154 28.1298 47.9618C28.1677 48.1082 28.1638 48.2621 28.1186 48.4064C28.0734 48.5508 27.9886 48.6799 27.8737 48.7795L22.4828 53.4421L32.091 52.085C32.253 52.0622 32.4183 52.0874 32.5658 52.1574C32.7133 52.2274 32.8366 52.339 32.9199 52.4782C33.0033 52.6174 33.043 52.778 33.0341 52.9395C33.0251 53.101 32.968 53.2562 32.8698 53.3856L31.5862 55.0781L39.8621 53.4421V46.8736C39.8615 46.6358 39.7941 46.4028 39.6674 46.2006C39.5407 45.9984 39.3597 45.8349 39.1446 45.7284V45.7252Z" fill="#E59730"/>
<path d="M39.8621 53.4421L40.6897 53.6057V46.5857L43.0583 45.4151L47.61 49.1623C47.7792 49.2951 47.9943 49.3571 48.2092 49.3352C48.4241 49.3133 48.6218 49.2093 48.7602 49.0452C48.8985 48.8812 48.9664 48.6701 48.9494 48.4573C48.9324 48.2444 48.8319 48.0465 48.6693 47.9059L44.6762 44.6167L46.6674 43.6352L52.1567 44.4376C52.1962 44.4429 52.2361 44.4451 52.2759 44.4442C52.4846 44.4436 52.6853 44.3651 52.8379 44.2244C52.9905 44.0838 53.0838 43.8913 53.0989 43.6856C53.1141 43.4799 53.0501 43.2762 52.9197 43.1151C52.7894 42.9541 52.6023 42.8477 52.3959 42.8172L49.2511 42.3566L55.8296 39.1051C56.0242 39.0071 56.1717 38.8371 56.24 38.6321C56.3082 38.4271 56.2918 38.2037 56.1942 38.0106C56.0966 37.8176 55.9257 37.6704 55.7188 37.6013C55.5119 37.5322 55.2858 37.5468 55.0897 37.6417L49.0483 40.629L50.5024 38.3387C50.619 38.1543 50.6566 37.9317 50.6071 37.7198C50.5576 37.508 50.425 37.3242 50.2384 37.209C50.0518 37.0938 49.8266 37.0566 49.6123 37.1055C49.3979 37.1545 49.2121 37.2856 49.0955 37.47L46.199 42.0376L40.6897 44.7566V34.9669L45.4128 30.2986C45.5635 30.1444 45.6469 29.9377 45.645 29.7233C45.6431 29.5088 45.5561 29.3036 45.4027 29.152C45.2492 29.0003 45.0417 28.9143 44.8247 28.9124C44.6077 28.9105 44.3986 28.993 44.2425 29.142L40.6897 32.6536V21.5404C40.6897 21.3235 40.6025 21.1154 40.4473 20.962C40.2921 20.8086 40.0816 20.7224 39.8621 20.7224C39.6426 20.7224 39.4321 20.8086 39.2769 20.962C39.1217 21.1154 39.0345 21.3235 39.0345 21.5404V32.8818L35.4263 29.9101C35.257 29.7774 35.042 29.7153 34.8271 29.7372C34.6121 29.7591 34.4144 29.8632 34.2761 30.0272C34.1378 30.1913 34.0699 30.4023 34.0868 30.6151C34.1038 30.828 34.2043 31.0259 34.367 31.1665L39.0345 35.0111V44.7566L33.8083 42.1734L30.6196 37.4462C30.4978 37.2657 30.3085 37.1405 30.0932 37.098C29.8779 37.0555 29.6544 37.0993 29.4718 37.2197C29.2892 37.3401 29.1624 37.5272 29.1194 37.74C29.0764 37.9528 29.1207 38.1737 29.2425 38.3542L30.8241 40.6994L24.8704 37.7546C24.7731 37.7056 24.6669 37.6761 24.558 37.6679C24.4491 37.6596 24.3396 37.6727 24.2359 37.7065C24.1321 37.7403 24.0362 37.794 23.9535 37.8646C23.8709 37.9352 23.8032 38.0212 23.7544 38.1178C23.7056 38.2144 23.6766 38.3195 23.6691 38.4272C23.6616 38.535 23.6757 38.6431 23.7107 38.7453C23.7456 38.8476 23.8007 38.942 23.8728 39.0232C23.9449 39.1043 24.0325 39.1705 24.1305 39.218L30.503 42.3665L27.3325 42.8139C27.2249 42.8291 27.1214 42.8652 27.0279 42.92C26.9344 42.9748 26.8527 43.0472 26.7876 43.1332C26.7224 43.2192 26.675 43.317 26.6481 43.4211C26.6212 43.5252 26.6152 43.6335 26.6307 43.7399C26.6461 43.8462 26.6826 43.9485 26.738 44.0409C26.7934 44.1333 26.8668 44.2141 26.9537 44.2785C27.0407 44.3429 27.1397 44.3897 27.245 44.4163C27.3503 44.4429 27.4599 44.4488 27.5675 44.4335L33.1041 43.6515L35.0514 44.6143L31.0566 47.9059C30.9702 47.9737 30.8983 48.0579 30.8453 48.1535C30.7922 48.2492 30.7591 48.3543 30.7478 48.4628C30.7365 48.5713 30.7472 48.681 30.7794 48.7853C30.8116 48.8896 30.8646 48.9865 30.9352 49.0703C31.0059 49.1541 31.0928 49.2231 31.1908 49.2732C31.2888 49.3233 31.396 49.3536 31.506 49.3621C31.616 49.3707 31.7266 49.3574 31.8314 49.3231C31.9361 49.2888 32.0329 49.2341 32.1159 49.1623L36.6676 45.4151L39.0345 46.5857V53.6057L39.8621 53.4421Z" fill="#F89C8D"/>
<path d="M29.5809 37.1755C30.736 38.9795 32.1315 40.6218 33.7296 42.0581L30.6196 37.4462C30.5088 37.2846 30.3426 37.1681 30.1516 37.1184C29.9607 37.0686 29.7579 37.0889 29.5809 37.1755Z" fill="#F8664F"/>
<path d="M43.0574 45.4159C42.7264 44.9726 42.4326 44.508 42.1512 44.0343L40.6897 44.7566V40.8614C40.1409 39.2131 39.8615 37.489 39.8621 35.7538V20.7224C39.6426 20.7224 39.4321 20.8086 39.2769 20.962C39.1217 21.1154 39.0345 21.3235 39.0345 21.5404V32.8818L35.4262 29.9101C35.257 29.7774 35.0419 29.7153 34.827 29.7372C34.6121 29.7591 34.4144 29.8632 34.2761 30.0272C34.1378 30.1913 34.0698 30.4023 34.0868 30.6151C34.1038 30.828 34.2043 31.0259 34.3669 31.1665L39.0345 35.0111V44.7566L33.9382 42.2356C35.5118 43.6181 37.2622 44.7905 39.1446 45.7227C39.3606 45.8296 39.5422 45.994 39.669 46.1973C39.7957 46.4006 39.8626 46.6348 39.8621 46.8736V53.4421L40.6897 53.6057V46.5857L43.0574 45.4159Z" fill="#F8664F"/>
<path d="M39.1446 45.7252C37.2621 44.7923 35.5117 43.6191 33.9383 42.2356L33.8083 42.171L33.7297 42.0557C32.1315 40.6194 30.7361 38.9772 29.581 37.1731C29.5434 37.1848 29.5069 37.1996 29.4718 37.2173C29.3813 37.2769 29.3037 37.3535 29.2432 37.4428C29.1828 37.5321 29.1407 37.6323 29.1194 37.7376C29.0981 37.843 29.098 37.9514 29.1192 38.0568C29.1403 38.1622 29.1822 38.2625 29.2425 38.3518L30.8241 40.697L24.8704 37.7522C24.7731 37.7032 24.6669 37.6737 24.558 37.6655C24.4491 37.6572 24.3396 37.6704 24.2359 37.7041C24.1321 37.7379 24.0362 37.7916 23.9535 37.8622C23.8709 37.9328 23.8032 38.0189 23.7544 38.1154C23.7056 38.212 23.6766 38.3172 23.6691 38.4249C23.6616 38.5326 23.6757 38.6407 23.7107 38.7429C23.7456 38.8452 23.8007 38.9396 23.8728 39.0208C23.9449 39.1019 24.0325 39.1681 24.1305 39.2156L30.503 42.3641L27.3325 42.8115C27.2249 42.8268 27.1214 42.8628 27.0279 42.9176C26.9344 42.9724 26.8527 43.0448 26.7876 43.1308C26.7224 43.2168 26.675 43.3146 26.6481 43.4187C26.6212 43.5228 26.6152 43.6311 26.6307 43.7375C26.6461 43.8438 26.6826 43.9461 26.738 44.0385C26.7934 44.1309 26.8668 44.2117 26.9537 44.2761C27.0407 44.3405 27.1397 44.3873 27.245 44.4139C27.3503 44.4405 27.4599 44.4464 27.5675 44.4311L33.1041 43.6491L35.0514 44.6119L31.0566 47.906C30.9702 47.9737 30.8983 48.0579 30.8453 48.1536C30.7922 48.2492 30.7591 48.3544 30.7478 48.4629C30.7365 48.5714 30.7472 48.681 30.7794 48.7854C30.8116 48.8897 30.8646 48.9866 30.9352 49.0704C31.0059 49.1542 31.0928 49.2232 31.1908 49.2733C31.2888 49.3234 31.396 49.3536 31.506 49.3622C31.616 49.3708 31.7266 49.3575 31.8314 49.3232C31.9361 49.2889 32.0329 49.2342 32.1159 49.1624L36.6676 45.4152L39.0345 46.5857V53.6057L39.8621 53.4421V46.8736C39.8622 46.6353 39.7951 46.4016 39.6683 46.1987C39.5416 45.9959 39.3603 45.8319 39.1446 45.7252Z" fill="#CC5144"/>
</svg>
