<svg width="80" height="80" viewBox="0 0 80 80" fill="none" xmlns="http://www.w3.org/2000/svg">
<path opacity="0.2" d="M40 80C62.0914 80 80 62.0914 80 40C80 17.9086 62.0914 0 40 0C17.9086 0 0 17.9086 0 40C0 62.0914 17.9086 80 40 80Z" fill="#61C1B8"/>
<path opacity="0.15" d="M40.0581 73.4011C58.4729 73.4011 73.4011 58.4729 73.4011 40.0581C73.4011 21.6433 58.4729 6.71509 40.0581 6.71509C21.6433 6.71509 6.71509 21.6433 6.71509 40.0581C6.71509 58.4729 21.6433 73.4011 40.0581 73.4011Z" fill="#61C1B8"/>
<path opacity="0.3" d="M40.1422 66.2493C54.5608 66.2493 66.2493 54.5608 66.2493 40.1422C66.2493 25.7237 54.5608 14.0352 40.1422 14.0352C25.7237 14.0352 14.0352 25.7237 14.0352 40.1422C14.0352 54.5608 25.7237 66.2493 40.1422 66.2493Z" fill="white"/>
<path d="M60.8032 43.8704C58.4298 45.8691 55.4378 47.6753 52.4565 49.2108L54.4923 52.4149C55.3558 53.7741 54.2509 55.5173 52.6367 55.3425C49.3756 54.9888 44.5379 54.5787 39.6406 54.5787C34.7443 54.5787 29.9056 54.9888 26.6456 55.3425C25.0313 55.5173 23.9265 53.7741 24.79 52.4149L26.8258 49.2108C23.8444 47.6753 20.8525 45.8691 18.4783 43.8704C17.7738 43.2771 17.8616 42.1756 18.649 41.6931L20.3925 40.6232C21.4326 39.9854 21.5996 38.5556 20.7338 37.7003L18.4223 35.4163C17.5394 34.5429 18.2052 33.0534 19.4528 33.1106L22.5535 33.2525C23.6218 33.3013 24.5201 32.4695 24.5402 31.413L24.5904 28.8593C24.6058 28.0659 25.4865 27.5892 26.1706 28.004L32.6815 31.9527C32.6485 31.8709 30.4893 26.6202 29.8389 22.2419C29.6141 20.7303 31.2738 19.6433 32.5994 20.4291L34.1104 21.3254C35.1754 21.957 36.5589 21.4752 36.9885 20.3231L38.3332 16.7157C38.5573 16.1149 39.0986 15.8145 39.6406 15.8145C40.1829 15.8145 40.7249 16.1149 40.949 16.7157L42.2938 20.3231C42.7233 21.4752 44.1069 21.957 45.1711 21.3254L46.6828 20.4291C48.0078 19.6433 49.6682 20.7303 49.4433 22.2419C48.7929 26.6202 46.6337 31.8709 46.6008 31.9527L53.1116 28.004C53.7957 27.5892 54.6765 28.0659 54.6918 28.8593L54.742 31.413C54.7622 32.4695 55.6605 33.3013 56.7287 33.2525L59.8294 33.1106C61.0771 33.0534 61.7429 34.5429 60.8599 35.4163L58.5484 37.7003C57.6827 38.5556 57.8497 39.9854 58.8897 40.6232L60.6333 41.6931C61.4206 42.1756 61.5085 43.2771 60.8032 43.8704Z" fill="#FF694F"/>
<path d="M39.6406 15.8145V54.5787C34.7443 54.5787 29.9056 54.9888 26.6456 55.3425C25.0313 55.5173 23.9265 53.7741 24.79 52.4149L26.8258 49.2108C23.8444 47.6753 20.8525 45.8691 18.4783 43.8704C17.7738 43.2771 17.8616 42.1756 18.649 41.6931L20.3925 40.6232C21.4326 39.9854 21.5996 38.5556 20.7338 37.7003L18.4223 35.4163C17.5394 34.5429 18.2052 33.0534 19.4528 33.1106L22.5535 33.2525C23.6218 33.3013 24.5201 32.4695 24.5402 31.413L24.5904 28.8593C24.6058 28.0659 25.4865 27.5892 26.1706 28.004L32.6815 31.9527C32.6485 31.8709 30.4893 26.6202 29.8389 22.2419C29.6141 20.7303 31.2738 19.6433 32.5994 20.4291L34.1104 21.3254C35.1754 21.957 36.5589 21.4752 36.9885 20.3231L38.3332 16.7157C38.5573 16.1149 39.0986 15.8145 39.6406 15.8145V15.8145Z" fill="#ED2867"/>
<path d="M39.642 48.8084C39.5662 48.8084 39.4908 48.7968 39.4179 48.7733C39.3674 48.757 34.2807 47.1104 28.6733 44.4402C28.3133 44.269 28.162 43.8415 28.3356 43.4857C28.5089 43.1299 28.9413 42.9804 29.3013 43.1516C34.1591 45.4649 38.6097 46.9943 39.642 47.3392C40.6747 46.9939 45.1275 45.4628 49.9816 43.1516C50.3416 42.9801 50.7741 43.1299 50.9473 43.4857C51.1209 43.8415 50.9697 44.269 50.6097 44.4402C45.0023 47.1104 39.9167 48.757 39.8661 48.7733C39.7933 48.7968 39.7175 48.8084 39.642 48.8084Z" fill="#51A2AF"/>
<path d="M39.6417 41.4011C39.5662 41.4011 39.4904 41.3892 39.4179 41.366C39.2813 41.3219 36.0312 40.27 32.3365 38.5105C31.9765 38.3393 31.8253 37.9118 31.9988 37.556C32.1724 37.2002 32.6046 37.0503 32.9649 37.2219C36.0257 38.6795 38.8437 39.6622 39.6417 39.9312C40.4396 39.6622 43.2569 38.6795 46.318 37.2219C46.678 37.0503 47.1105 37.1998 47.2841 37.556C47.4577 37.9118 47.3064 38.3393 46.9461 38.5105C43.2518 40.27 40.0024 41.3219 39.8658 41.366C39.7929 41.3895 39.7175 41.4011 39.6417 41.4011Z" fill="#51A2AF"/>
<path d="M39.6416 63.2579C39.2417 63.2579 38.918 62.9376 38.918 62.5427V32.8587C38.918 32.4634 39.2417 32.1434 39.6416 32.1434C40.0411 32.1434 40.3649 32.4634 40.3649 32.8587V62.5427C40.3649 62.9376 40.0411 63.2579 39.6416 63.2579Z" fill="#51A2AF"/>
</svg>
