<svg width="40" height="40" viewBox="0 0 40 40" fill="none" xmlns="http://www.w3.org/2000/svg">
<g filter="url(#filter0_d)">
<path fill-rule="evenodd" clip-rule="evenodd" d="M20 34C28.8366 34 36 26.8366 36 18C36 9.16344 28.8366 2 20 2C11.1634 2 4 9.16344 4 18C4 26.8366 11.1634 34 20 34Z" fill="#FDE9C2"/>
</g>
<path d="M27.9999 15.3875V23.7911C27.9999 24.2221 27.8165 24.6102 27.5236 24.882C27.2579 25.1283 26.9024 25.2789 26.5118 25.2789H13.9893C13.5987 25.2789 13.2432 25.1283 12.9778 24.8822C12.6849 24.6102 12.5015 24.2221 12.5015 23.7911V15.3875H27.9999Z" fill="#FEC970"/>
<path d="M27.9994 15.3876L22.0422 10.4272C21.0039 9.56266 19.4965 9.56266 18.4582 10.4272L12.501 15.3876H12.5011L14.2569 16.8494L18.4582 20.3476C19.4966 21.2124 21.004 21.2124 22.0421 20.3476L26.2438 16.8494L27.9996 15.3876" fill="#FBA028"/>
<path d="M25.2307 17.6926L24.1728 18.5735L23.6031 19.048L22.8433 19.6805L22.2735 20.155L22.0421 20.3476C21.0041 21.2123 19.4967 21.2123 18.4582 20.3476L18.227 20.155L17.657 19.6805L16.8974 19.048L16.3277 18.5735L15.27 17.693C15.3219 17.6998 15.375 17.7036 15.4291 17.7036H25.0713C25.1255 17.7036 25.1786 17.6998 25.2307 17.6926Z" fill="#20B58D"/>
<path d="M14.3157 16.8982C14.2778 16.7827 14.2573 16.6597 14.2573 16.5316V12.0861C14.2573 11.4386 14.782 10.9136 15.4295 10.9136H25.0717C25.7192 10.9136 26.2442 11.4386 26.2442 12.0861V16.5316C26.2442 16.6597 26.2237 16.7827 26.1857 16.8982L25.2311 17.6927C25.179 17.7 25.1258 17.7038 25.0717 17.7038H15.4295C15.3753 17.7038 15.3222 17.7 15.2703 17.693" fill="#20B58D"/>
<path d="M14.2573 15.8533L16.4799 17.7039H15.4295C15.3753 17.7039 15.3222 17.7001 15.2703 17.6931L14.3157 16.8983C14.2778 16.7828 14.2573 16.6598 14.2573 16.5317V15.8533Z" fill="#20B58D"/>
<path d="M26.2439 15.8533V16.5317C26.2439 16.6598 26.2233 16.7828 26.1853 16.8983L25.2308 17.6928C25.1786 17.7001 25.1254 17.7039 25.0714 17.7039H24.021L26.2439 15.8533Z" fill="#20B58D"/>
<path d="M24.1727 18.5737L23.6031 19.0482H16.8973L16.3276 18.5737H24.1727Z" fill="#138175"/>
<path d="M22.843 19.6807L22.2732 20.1551H18.2267L17.6567 19.6807H22.843Z" fill="#138175"/>
<path d="M25.0656 12.8722C24.6282 12.8722 24.2722 12.5163 24.2722 12.0788C24.2722 11.9477 24.166 11.8416 24.035 11.8416H16.4656C16.3346 11.8416 16.2284 11.9477 16.2284 12.0788C16.2284 12.5163 15.8725 12.8722 15.435 12.8722C15.3039 12.8722 15.1978 12.9785 15.1978 13.1094V15.5078C15.1978 15.6388 15.3039 15.745 15.435 15.745C15.8725 15.745 16.2284 16.1008 16.2284 16.5384C16.2284 16.6694 16.3346 16.7756 16.4656 16.7756H24.0351C24.166 16.7756 24.2724 16.6694 24.2724 16.5384C24.2724 16.1008 24.6282 15.745 25.0657 15.745C25.1967 15.745 25.303 15.6388 25.303 15.5078V13.1094C25.3028 12.9785 25.1967 12.8722 25.0656 12.8722ZM22.2428 14.3085C22.2428 15.4073 21.349 16.3012 20.2503 16.3012C19.1516 16.3012 18.2578 15.4073 18.2578 14.3085C18.2578 13.2099 19.1516 12.316 20.2503 12.316C21.349 12.316 22.2428 13.2099 22.2428 14.3085ZM16.6806 16.3012C16.5837 15.7919 16.1814 15.3896 15.6722 15.2928V13.3244C16.1814 13.2276 16.5837 12.8252 16.6806 12.3161H18.7981C18.1836 12.7651 17.7833 13.4909 17.7833 14.3086C17.7833 15.1264 18.1835 15.852 18.7981 16.3012H16.6806ZM24.8284 15.2928C24.3192 15.3895 23.9169 15.7919 23.8201 16.3012H21.7025C22.3171 15.852 22.7173 15.1263 22.7173 14.3085C22.7173 13.4908 22.3171 12.7651 21.7025 12.316H23.8201C23.9169 12.8252 24.3193 13.2275 24.8284 13.3244V15.2928Z" fill="#138175"/>
<path d="M20.2502 15.6245C20.9759 15.6245 21.5663 15.034 21.5663 14.3083C21.5663 13.5826 20.9759 12.9922 20.2502 12.9922C19.5245 12.9922 18.9341 13.5826 18.9341 14.3083C18.9341 15.034 19.5245 15.6245 20.2502 15.6245ZM20.2502 13.4666C20.7143 13.4666 21.0918 13.8442 21.0918 14.3083C21.0918 14.7724 20.7142 15.15 20.2502 15.15C19.7861 15.15 19.4085 14.7724 19.4085 14.3083C19.4085 13.8442 19.7861 13.4666 20.2502 13.4666Z" fill="#138175"/>
<path d="M23.2627 14.3083C23.2627 14.4393 23.3689 14.5455 23.4999 14.5455H24.2115C24.3425 14.5455 24.4487 14.4393 24.4487 14.3083C24.4487 14.1774 24.3425 14.071 24.2115 14.071H23.4999C23.3689 14.071 23.2627 14.1774 23.2627 14.3083Z" fill="#138175"/>
<path d="M17.0007 14.071H16.289C16.158 14.071 16.0518 14.1774 16.0518 14.3083C16.0518 14.4393 16.158 14.5455 16.289 14.5455H17.0007C17.1317 14.5455 17.2379 14.4393 17.2379 14.3083C17.2379 14.1774 17.1317 14.071 17.0007 14.071Z" fill="#138175"/>
<path d="M26.5548 24.3135C26.5014 24.3135 26.4476 24.2955 26.4032 24.2586L22.6205 21.1092C22.5199 21.0254 22.5063 20.8758 22.59 20.7751C22.6739 20.6745 22.8235 20.6608 22.9241 20.7446L26.7067 23.8939C26.8074 23.9778 26.8212 24.1272 26.7373 24.228C26.6904 24.2844 26.6228 24.3135 26.5548 24.3135Z" fill="#FBA028"/>
<path d="M17.8728 21.1152L14.7642 23.7705C14.336 24.1364 14.5275 24.8356 15.0824 24.9321C15.975 25.0873 17.0183 25.2614 17.2987 25.279H13.9894C13.5987 25.279 13.2432 25.1284 12.9778 24.8823C12.6849 24.6103 12.5015 24.2222 12.5015 23.7912V15.3875H13.6247V21.116C13.6354 22.2739 14.9929 22.8954 15.883 22.1546L17.5767 20.7443C17.6792 20.6592 17.8326 20.6747 17.9155 20.7807C17.9956 20.8828 17.9724 21.0324 17.8728 21.1152Z" fill="#FBA028"/>
<defs>
<filter id="filter0_d" x="0" y="0" width="40" height="40" filterUnits="userSpaceOnUse" color-interpolation-filters="sRGB">
<feFlood flood-opacity="0" result="BackgroundImageFix"/>
<feColorMatrix in="SourceAlpha" type="matrix" values="0 0 0 0 0 0 0 0 0 0 0 0 0 0 0 0 0 0 127 0"/>
<feOffset dy="2"/>
<feGaussianBlur stdDeviation="2"/>
<feColorMatrix type="matrix" values="0 0 0 0 0.188536 0 0 0 0 0.188536 0 0 0 0 0.188536 0 0 0 0.200889 0"/>
<feBlend mode="normal" in2="BackgroundImageFix" result="effect1_dropShadow"/>
<feBlend mode="normal" in="SourceGraphic" in2="effect1_dropShadow" result="shape"/>
</filter>
</defs>
</svg>
