<?xml version="1.0" encoding="UTF-8"?>
<svg width="171px" height="330px" viewBox="0 0 171 330" version="1.1" xmlns="http://www.w3.org/2000/svg" xmlns:xlink="http://www.w3.org/1999/xlink">
    <title>earth</title>
    <defs>
        <rect id="path-1" x="0" y="0" width="171" height="174" rx="10"></rect>
    </defs>
    <g id="Page-1" stroke="none" stroke-width="1" fill="none" fill-rule="evenodd">
        <g id="Artboard" transform="translate(-22.000000, -24.000000)">
            <g id="Group" transform="translate(22.000000, 24.000000)">
                <rect id="Rectangle" fill="#61C1B8" fill-rule="nonzero" x="0" y="0" width="171" height="330" rx="10"></rect>
                <g id="Clipped" transform="translate(0.000000, 156.000000)">
                    <mask id="mask-2" fill="white">
                        <use xlink:href="#path-1"></use>
                    </mask>
                    <g id="Rectangle"></g>
                    <g id="Group" mask="url(#mask-2)">
                        <g transform="translate(-11.000000, 46.000000)">
                            <g id="Group" opacity="0.5" style="mix-blend-mode: multiply;" stroke-width="1" fill="none" fill-rule="evenodd" transform="translate(0.000000, 17.000000)">
                                <path d="M110.485,220.97 C171.504,220.97 220.97,171.504 220.97,110.485 C220.97,49.466 171.504,0 110.485,0 C49.4659,0 0,49.466 0,110.485 C0,171.504 49.4659,220.97 110.485,220.97 Z" id="Path" fill="#2B5250" fill-rule="nonzero" opacity="0.202381"></path>
                                <path d="M110.645,202.742 C161.509,202.742 202.743,161.509 202.743,110.645 C202.743,59.781 161.509,18.547 110.645,18.547 C59.781,18.547 18.54749,59.781 18.54749,110.645 C18.54749,161.509 59.781,202.742 110.645,202.742 Z" id="Path" fill="#2B5250" fill-rule="nonzero" opacity="0.202381"></path>
                                <path d="M110.485,182.596 C150.311,182.596 182.596,150.311 182.596,110.485 C182.596,70.659 150.311,38.374 110.485,38.374 C70.6591,38.374 38.3739,70.659 38.3739,110.485 C38.3739,150.311 70.6591,182.596 110.485,182.596 Z" id="Path" fill="#2B5250" fill-rule="nonzero" opacity="0.1"></path>
                            </g>
                            <path d="M51.8149,47.249 C55.0748,46.594 48.5358,41.126 47.6037,40.213 C45.2137,37.875 40.6344,33.865 41.1937,30.027 C41.753,26.188 45.8016,29.009 48.0578,28.421 C47.618,25.758 43.9087,23.163 42.2692,21.184 C41.0073,19.659 39.7597,18.015 39.3438,16.002 C38.4691,11.786 41.2128,11.012 44.4011,12.876 C44.8791,12.202 44.7118,11.222 44.6305,10.381 C44.4154,8.182 42.6468,0.639 46.38,0.018 C48.3541,-0.302 50.008,3.78 50.6294,5.113 C51.3225,6.624 52.2068,10.582 53.593,11.49 C55.0748,12.489 55.0987,9.955 56.7192,10.142 C58.4686,10.343 58.8893,13.966 59.1092,15.323 C59.5155,17.756 59.2191,20.261 58.9562,22.675 C58.808,24.042 58.2201,25.863 59.0327,27.106 C59.9361,26.403 60.8586,25.256 61.8577,24.63 C64.2955,23.1 64.7974,25.768 65.2897,27.857 C66.1262,31.379 65.5574,35.208 65.543,38.808 C65.543,40.112 65.0029,43.42 65.9111,44.295 C68.0382,42.684 71.4033,39.367 72.4979,43.989 C73.2149,47.02 72.9425,50.624 72.3306,53.645 C71.3058,58.306 70.013,62.904 68.4588,67.416 L67.5602,66.775 C64.9886,64.906 62.1922,63.515 59.5489,61.728 C55.9065,59.266 51.8531,55.992 49.6065,52.168 C49.0425,51.212 47.4603,48.138 48.1151,47.077 C48.9803,45.624 50.8302,47.45 51.8149,47.249 Z" id="Path" fill="#95DC8F" fill-rule="nonzero"></path>
                            <path d="M48.0942,47.067 C48.9785,45.633 50.8284,47.454 51.8131,47.254 C51.938,47.229 52.0598,47.19 52.1764,47.139 C57.6447,51.551 62.7545,56.422 66.7888,62.158 C67.5887,63.295 68.3455,64.449 69.0593,65.618 C68.8538,66.235 68.6482,66.833 68.4379,67.401 L67.5393,66.761 C64.9676,64.892 62.1713,63.501 59.528,61.713 C55.8856,59.251 51.8322,55.977 49.5856,52.153 C49.0215,51.192 47.425,48.124 48.0942,47.067 Z" id="Path" fill="#138175" fill-rule="nonzero"></path>
                            <path d="M35.8956,69.352 C33.1124,59.734 32.019,49.707 32.6644,39.716 C32.9457,35.755 32.8079,31.775 32.2533,27.842 C33.5678,29.162 35.0591,30.39 35.8431,31.231 C38.539,34.128 41.4404,36.896 44.0886,39.893 C51.3016,48.062 58.5003,56.79 62.6302,67.005 C65.3404,73.697 66.8748,80.561 66.5259,87.693 C66.3446,91.005 65.7898,94.285 64.872,97.473 C64.5756,98.524 64.2219,99.996 63.7678,101.493 C49.815,95.288 40.1307,84.007 35.8956,69.352 Z" id="Path" fill="#60CA8E" fill-rule="nonzero"></path>
                            <path d="M61.3419,64.07 C61.8199,65.026 62.2357,66.011 62.6373,67.005 C65.3475,73.697 66.8819,80.561 66.533,87.693 C66.3516,91.005 65.7968,94.285 64.8791,97.473 C64.5827,98.524 64.229,99.997 63.7749,101.493 C59.6375,99.669 55.7605,97.305 52.2455,94.461 C52.6026,83.715 55.7364,73.245 61.3419,64.07 Z" id="Path" fill="#138175" fill-rule="nonzero"></path>
                            <path d="M37.5225,74.108 C46.3559,76.145 54.0374,80.203 61.2217,85.542 C63.0162,86.878 64.7334,88.314 66.365,89.844 C66.0865,92.423 65.5892,94.974 64.8784,97.468 C64.5821,98.52 64.2283,99.992 63.7742,101.488 C51.3558,95.982 42.3455,86.455 37.5225,74.108 Z" id="Path" fill="#60CA8E" fill-rule="nonzero"></path>
                            <path d="M61.2171,89.882 C53.7651,84.347 45.7872,80.174 36.5332,78.223 C33.8372,77.655 28.5936,77.745 24,77.033 C33.2397,86.378 37.5657,101.187 45.2232,111.344 C54.984,124.284 68.0286,133.232 83.6831,135.693 C81.9862,117.744 77.8515,102.252 61.2171,89.882 Z" id="Path" fill="#95DC8F" fill-rule="nonzero"></path>
                            <path d="M83.6831,135.703 C74.7671,134.282 66.3331,130.705 59.1139,125.283 C52.7089,112.789 50.6759,98.509 53.3396,84.724 C56.0673,86.283 58.6979,88.005 61.2171,89.882 C77.8515,102.253 81.9862,117.745 83.6831,135.703 Z" id="Path" fill="#138175" fill-rule="nonzero"></path>
                            <path d="M70.7061,81.316 L71.1411,81.225 C70.7492,79.347 70.5436,77.473 70.3429,75.661 C70.1342,73.052 69.6764,70.469 68.9758,67.946 C68.5504,66.575 68.1632,65.337 67.6852,64.008 C67.1307,62.478 66.6145,60.891 66.1126,59.352 C65.3382,56.991 64.5399,54.548 63.5744,52.182 C62.6996,50.017 61.605,47.813 60.5486,45.676 C59.4301,43.415 58.2734,41.083 57.3747,38.793 C56.5526,36.7 55.9407,34.491 55.3145,32.388 C54.5717,29.51 53.5949,26.698 52.394,23.98 C50.9026,20.84 50.2334,17.819 49.526,14.626 C49.2296,13.292 48.9237,11.915 48.57,10.529 L48.1397,10.644 C48.5078,12.025 48.8137,13.397 49.0957,14.726 C49.8127,17.948 50.4867,20.988 51.9972,24.176 C53.188,26.873 54.1568,29.663 54.8939,32.517 C55.5057,34.649 56.1367,36.853 56.9684,38.965 C57.8766,41.274 59.0382,43.616 60.1567,45.887 C61.2083,48.014 62.2981,50.189 63.1681,52.359 C64.1241,54.749 64.9223,57.168 65.6919,59.529 C66.1938,61.068 66.7148,62.66 67.2693,64.194 C67.7473,65.513 68.1345,66.747 68.5551,68.114 C69.3343,70.638 69.6115,73.118 69.9031,75.762 C70.0991,77.535 70.3094,79.418 70.7061,81.316 Z" id="Path" fill="#138175" fill-rule="nonzero"></path>
                            <path d="M70.3708,107.329 L70.6528,106.985 C69.3001,105.861 68.5018,104.222 67.737,102.63 C67.2261,101.473 66.5982,100.371 65.8633,99.341 C65.4665,98.83 65.0841,98.385 64.7113,97.936 C63.8065,96.943 63.0264,95.844 62.3882,94.662 C60.9976,91.788 59.9346,88.767 59.2191,85.656 C58.9705,84.7 58.7411,83.687 58.483,82.693 C57.527,78.835 56.571,74.849 55.0461,71.374 L54.42,69.94 C52.3263,65.126 50.161,60.145 46.9201,56.02 C43.9658,52.266 41.4809,48.164 39.5207,43.807 L39.1192,43.999 C41.0934,48.385 43.5959,52.513 46.5712,56.293 C49.7738,60.375 51.9296,65.327 54.0136,70.116 L54.6398,71.55 C56.1503,74.992 57.1159,78.96 58.0528,82.798 C58.2965,83.797 58.5307,84.791 58.7889,85.766 C59.5131,88.904 60.5874,91.95 61.9915,94.848 C62.6468,96.067 63.4495,97.2 64.3815,98.223 C64.7495,98.658 65.1272,99.107 65.5191,99.614 C66.2348,100.62 66.8466,101.696 67.3451,102.826 C68.129,104.456 68.9368,106.134 70.3708,107.329 Z" id="Path" fill="#138175" fill-rule="nonzero"></path>
                            <path d="M90.5994,144.775 L90.8336,144.393 C90.1211,143.925 89.5416,143.281 89.1511,142.524 C88.9341,142.16 88.6979,141.807 88.4436,141.468 C86.1014,138.427 83.8357,135.32 81.6465,132.314 C78.3483,127.787 74.9544,123.108 71.2165,118.6 C69.1945,116.153 66.7328,114.179 64.3476,112.267 C61.9624,110.355 59.5676,108.443 57.6174,106.053 L56.5706,104.776 C52.106,99.318 47.8853,94.165 43.0479,89.165 L42.7277,89.475 C47.5507,94.461 51.7667,99.609 56.2264,105.058 L57.2732,106.335 C59.2474,108.725 61.6995,110.708 64.0704,112.611 C66.4413,114.513 68.8838,116.468 70.8723,118.877 C74.5864,123.37 77.9898,128.045 81.288,132.567 C83.4772,135.574 85.7477,138.686 88.0947,141.73 C88.3402,142.058 88.5684,142.397 88.7782,142.749 C89.2009,143.57 89.8281,144.268 90.5994,144.775 Z" id="Path" fill="#138175" fill-rule="nonzero"></path>
                            <path d="M134.392,173.818 C174.803,173.818 207.563,141.059 207.563,100.648 C207.563,60.237 174.803,27.478 134.392,27.478 C93.9813,27.478 61.2218,60.237 61.2218,100.648 C61.2218,141.059 93.9813,173.818 134.392,173.818 Z" id="Path" fill="#61C1B8" fill-rule="nonzero"></path>
                            <path d="M187.244,50.048 C193.362,65.826 193.823,83.237 188.549,99.317 C183.275,115.397 172.592,129.152 158.317,138.242 C144.043,147.332 127.059,151.193 110.258,149.17 C93.4565,147.147 77.8753,139.364 66.1664,127.146 C70.0805,137.24 76.1853,146.34 84.0408,153.79 C91.8963,161.24 101.3068,166.855 111.594,170.229 C121.881,173.603 132.789,174.653 143.531,173.302 C154.273,171.952 164.581,168.236 173.713,162.421 C182.845,156.606 190.574,148.837 196.341,139.675 C202.109,130.512 205.771,120.185 207.066,109.436 C208.36,98.687 207.253,87.785 203.826,77.516 C200.398,67.246 194.735,57.865 187.244,50.048 Z" id="Path" fill="#61C1B8" fill-rule="nonzero"></path>
                            <path d="M193.321,137.682 C193.321,137.682 191.483,137.989 191.176,138.089 C190.869,138.19 190.059,138.296 189.746,138.598 C189.433,138.9 189.338,138.497 188.316,138.805 C187.293,139.112 186.986,138.905 187.601,137.782 C188.215,136.659 187.807,136.352 187.701,135.547 C187.595,134.743 188.818,134.218 186.785,134.117 C184.751,134.017 184.64,133.609 183.215,134.424 C181.79,135.24 180.662,136.056 180.662,136.056 L179.231,135.24 C178.634,134.578 177.985,133.964 177.293,133.402 C176.786,133.327 176.274,133.293 175.762,133.302 C175.586,132.671 175.551,132.009 175.662,131.363 C175.868,130.447 175.561,130.139 174.946,130.447 C174.332,130.754 173.209,131.363 173.209,131.363 C172.185,131.478 171.186,131.753 170.248,132.179 C169.131,132.793 169.024,133.201 167.186,132.994 C165.348,132.788 165.248,134.424 163.834,133.503 C162.421,132.581 161.689,132.279 161.08,131.564 C160.471,130.849 160.058,131.257 160.264,132.329 C160.471,133.402 161.795,133.195 160.415,133.659 C159.035,134.123 158.32,133.452 158.577,135.039 C158.834,136.626 158.884,137.693 158.426,137.693 C158.209,137.626 158.012,137.508 157.849,137.35 C157.687,137.191 157.565,136.996 157.493,136.781 C157.422,136.565 157.403,136.336 157.438,136.112 C157.473,135.888 157.561,135.675 157.694,135.492 C158.51,134.469 157.745,133.91 157.745,133.91 C157.745,133.91 158.102,133.145 158.611,133.045 C159.119,132.944 159.527,131.821 158.56,131.972 C157.594,132.123 157.644,131.665 157.387,132.531 C157.13,133.397 156.929,133.603 155.957,133.86 C154.985,134.117 154.884,133.86 154.169,134.369 C153.454,134.877 154.169,135.084 153.096,135.084 C152.024,135.084 151.716,135.391 151.716,136.201 C151.716,137.011 151.359,137.067 150.901,137.581 C150.443,138.095 150.342,138.196 149.985,138.603 C149.772,138.824 149.645,139.113 149.627,139.419 C149.577,139.626 149.169,139.726 148.912,139.626 C148.655,139.525 148.297,139.067 147.381,138.453 C146.638,137.874 145.719,137.568 144.778,137.587 C143.705,137.587 142.789,139.782 141.308,139.067 C139.828,138.352 139.979,138.201 139.113,137.637 C138.247,137.073 138.498,136.972 138.347,136.207 C138.196,135.441 137.889,135.341 138.297,134.726 C138.705,134.112 138.755,133.704 138.705,132.43 C138.654,131.156 139.621,129.419 138.705,128.91 C137.789,128.402 139.777,128.296 136.867,128.195 C133.956,128.095 134.52,127.48 132.582,127.787 C130.643,128.095 129.57,128.346 129.006,128.296 C128.442,128.245 127.576,128.039 128.598,127.123 C129.621,126.206 129.978,126.815 129.928,125.642 C129.878,124.469 129.47,123.547 130.079,123.905 C130.688,124.262 131.101,123.698 131.509,123.189 C131.917,122.681 130.844,121.608 131.917,120.742 C132.989,119.876 133.906,119.362 132.274,119.362 C130.643,119.362 131.967,118.597 129.822,118.804 C127.676,119.01 127.727,118.904 127.626,119.569 C127.526,120.234 125.995,118.955 126.71,120.592 C127.425,122.228 127.475,123.039 126.81,123.145 C126.226,123.19 125.645,123.276 125.073,123.402 C123.492,123.709 122.52,124.832 122.112,124.067 C121.704,123.301 122.369,123.094 121.196,123.094 C120.022,123.094 119.866,123.553 119.458,121.977 C119.05,120.402 117.313,118.966 118.078,118.966 C118.844,118.966 118.743,118.15 118.386,117.29 C118.028,116.429 118.129,115.251 118.129,114.329 C118.129,113.407 118.078,111.826 118.743,112.39 C119.408,112.954 119.458,112.597 119.458,111.625 C119.458,110.653 118.643,109.993 119.251,109.122 C119.86,108.25 119.201,108.306 120.525,107.792 C121.849,107.278 121.442,107.233 122.76,107.178 C124.078,107.122 124.034,107.384 124.548,106.82 C125.062,106.256 124.598,105.189 125.263,105.747 C125.928,106.306 125.57,106.155 126.939,106.055 C128.308,105.954 129.084,106.513 129.235,105.496 C129.386,104.479 128.827,104.345 130.459,104.245 C131.492,104.138 132.531,104.087 133.57,104.094 C134.286,104.144 134.336,103.636 134.487,104.502 C134.638,105.367 135.459,105.01 136.068,104.909 C136.677,104.809 136.733,103.993 137.291,104.502 C137.85,105.01 139.079,105.574 139.33,106.178 C139.582,106.781 139.839,107.044 139.587,108.016 C139.336,108.988 138.822,109.345 139.437,109.854 C140.051,110.362 140.353,110.111 140.409,110.876 C140.465,111.641 141.074,112.306 141.124,112.664 C141.174,113.021 141.99,113.278 142.241,113.172 C142.493,113.066 143.571,112.2 142.8,109.496 C142.029,106.792 142.493,106.703 142.135,105.211 C141.778,103.719 141.521,103.58 142.442,102.25 C143.364,100.92 143.56,100.462 144.638,99.954 C145.716,99.445 146.068,99.138 146.873,97.915 C147.489,96.951 148.403,96.215 149.476,95.82 C150.499,95.362 149.627,95.233 149.655,94.702 C149.683,94.172 150.342,94.445 150.772,94.144 C151.202,93.842 151.538,93.786 151.331,93.378 C151.124,92.97 150.515,93.479 150.593,93.149 C150.672,92.82 151.744,92.233 151.459,91.926 C151.314,91.756 151.11,91.646 150.888,91.618 C150.666,91.59 150.441,91.646 150.258,91.775 C149.7,92.054 149.141,91.875 149.392,91.546 C149.644,91.216 149.979,91.724 149.878,90.702 C149.778,89.68 149.085,88.406 149.42,87.87 C149.755,87.333 149.856,86.825 149.906,88.378 C149.957,89.931 149.755,91.518 150.465,91.06 C151.175,90.602 151.795,90.216 151.409,89.3 C151.024,88.384 150.437,87.898 151.152,88.182 C151.867,88.467 151.711,89.512 152.27,88.898 C152.828,88.283 153.543,87.624 153.085,87.11 C152.627,86.596 152.985,85.992 153.007,85.68 C153.029,85.367 152.448,84.886 153.314,84.864 C154.18,84.842 154.923,85.322 155.303,84.607 C155.683,83.892 156.018,83.691 155.454,83.763 C154.89,83.836 154.253,84.322 153.895,84.221 C153.538,84.121 154.532,83.585 155.376,83.428 C156.219,83.272 155.426,83.043 156.242,83.02 C157.057,82.998 158.03,83.227 158.052,82.691 C158.074,82.154 157.314,81.573 157.007,81.746 C156.7,81.92 156.499,81.746 156.521,81.26 C156.543,80.774 157.136,80.495 157.365,79.908 C157.746,79.251 158.259,78.68 158.873,78.232 C159.152,78.059 160.158,78.657 160.359,77.914 C160.56,77.171 160.599,76.886 160.734,76.797 C160.868,76.707 161.242,76.986 161.482,76.523 C161.722,76.059 162.041,75.031 162.114,75.752 C162.186,76.472 161.94,76.595 162.577,76.053 C163.214,75.512 163.454,74.83 163.488,75.271 C163.521,75.713 163.739,76.02 164.007,75.713 C164.276,75.405 164.236,76.165 163.862,76.227 C163.488,76.288 162.784,75.45 162.845,76.277 C162.907,77.104 162.56,76.528 162.477,77.243 C162.393,77.959 162.398,79.478 163.281,78.741 C164.164,78.003 164.019,77.439 164.639,76.981 C165.15,76.631 165.686,76.319 166.242,76.048 L167.186,74.897 C167.186,74.897 167.89,74.456 167.08,74.456 C166.27,74.456 166.521,74.322 165.901,74.528 C165.281,74.735 164.974,74.679 164.639,74.383 C164.304,74.087 164.371,73.981 163.655,74.014 C162.94,74.048 162.817,74.176 162.477,73.081 C162.136,71.986 163.253,72.059 162.136,71.964 C161.571,71.851 160.985,71.917 160.46,72.154 C159.795,72.372 159.544,72.193 159.974,71.835 C160.404,71.478 160.946,71.657 161.532,71.377 C162.119,71.098 163.063,71.199 162.488,70.511 C162.078,70.072 161.537,69.776 160.946,69.668 L158.711,70.612 L157.309,71.863 C157.309,71.863 156.577,72.919 156.136,73.478 C155.694,74.037 154.985,74.545 155.398,73.83 C155.829,72.952 156.352,72.123 156.957,71.355 C157.442,70.887 157.953,70.446 158.488,70.036 C159.046,69.567 158.974,68.394 159.739,68.265 C160.505,68.137 161.231,68.215 162.588,68.059 C163.946,67.902 165.505,67.802 165.991,67.55 C166.477,67.299 166.549,66.869 166.728,66.394 C166.907,65.919 166.929,66.003 167.689,65.835 C168.449,65.668 168.449,64.774 168.449,64.327 C168.449,63.88 167.628,63.712 167.494,63.137 C167.36,62.561 167.544,62.081 167.108,62.388 C166.672,62.695 166.812,63.444 166.549,63.137 C166.287,62.83 166.924,61.98 166.075,62.181 C165.225,62.383 165.633,62.081 164.818,63.031 C164.002,63.98 163.505,63.813 164.007,63.031 C164.508,62.406 165.162,61.922 165.907,61.628 C166.248,61.461 165.259,61.26 164.231,61.07 C163.494,60.961 162.801,60.654 162.225,60.181 C161.988,60.013 161.701,59.928 161.41,59.941 C161.309,59.941 161.136,59.567 160.08,58.578 C159.024,57.589 157.666,56.299 156.985,55.55 C156.303,54.801 156.169,53.678 155.996,54.734 C155.823,55.79 156.404,56.299 155.722,56.673 C155.041,57.047 155.303,57.232 154.644,57.455 C153.985,57.678 154.214,57.522 153.655,57.321 C153.096,57.12 152.538,57.561 152.487,57.114 C152.437,56.667 153.605,57.282 152.588,56.299 C151.571,55.315 152.147,55.857 152.18,55.109 C152.214,54.36 150.75,54.259 149.901,54.053 C149.052,53.846 149.493,53.405 148.336,53.338 C147.599,53.3 146.866,53.197 146.146,53.03 C145.85,52.963 143.878,52.589 143.878,52.589 C143.878,52.589 143.13,51.634 143.096,52.796 C143.062,53.958 143.062,54.053 143.062,54.533 C143.147,54.968 143.339,55.375 143.621,55.717 C143.621,55.717 144.342,55.209 144.498,55.617 C144.655,56.025 143.275,56.254 142.917,56.511 C142.56,56.768 142.359,56.589 143.146,57.198 C143.934,57.807 144.576,57.963 144.755,58.349 C144.934,58.734 145.241,59.422 145.241,59.422 C145.241,59.422 146.035,59.98 145.627,60.036 C145.219,60.092 145.297,60.215 144.733,60.98 C144.253,61.633 143.599,62.137 142.845,62.433 C142.286,62.64 142.208,62.69 142.409,63.405 C142.61,64.12 143.224,64.019 143.353,64.679 C143.481,65.338 143.118,64.936 143.61,65.796 L144.102,66.668 C144.102,66.668 143.588,66.17 143.895,66.886 C144.202,67.601 144.152,68.159 143.744,67.5 C143.336,66.841 143.537,66.634 143.185,66.992 C142.833,67.349 142.778,67.4 143.085,67.886 C143.392,68.372 143.75,69.215 143.392,68.729 C143.035,68.243 143.007,67.684 142.448,67.936 C141.889,68.187 141.504,68.657 141.247,68.601 C140.99,68.545 141.247,67.886 141.247,67.886 L141.733,66.891 L140.934,66.277 C140.934,66.277 139.755,66.606 140.18,66.098 C140.604,65.589 139.889,65.433 139.66,65.433 C139.431,65.433 138.688,64.874 139.275,64.874 C139.861,64.874 139.934,64.925 140.18,64.517 C140.425,64.109 139.99,63.573 139.811,63.243 C139.632,62.913 139.99,62.126 139.224,62.126 C138.459,62.126 137.157,62.332 136.9,62.126 C136.539,61.788 136.114,61.528 135.649,61.36 C135.103,61.293 134.55,61.327 134.017,61.461 C133.738,61.461 133.917,61.036 133.71,60.774 C133.377,60.507 132.98,60.33 132.559,60.26 L132.001,60.181 C131.843,60.106 131.71,59.986 131.62,59.836 C131.529,59.686 131.485,59.513 131.492,59.338 C131.492,58.701 131.056,58.114 130.677,58.472 C130.423,58.712 130.184,58.968 129.961,59.237 C129.961,59.237 129.168,58.165 129.274,57.706 C129.38,57.248 129.833,57.477 129.833,56.941 C129.833,56.405 129.883,56.891 130.319,56.204 C130.755,55.516 130.805,54.874 131.542,54.98 C132.28,55.086 132.766,55.209 132.816,54.215 C132.867,53.22 132.967,52.097 133.582,51.689 C134.196,51.282 133.682,51.74 134.476,51.181 C135.269,50.622 135.805,50.337 135.291,50.187 C134.777,50.036 134.448,50.365 134.068,50.008 C133.688,49.65 133.023,49.371 133.889,49.449 C134.755,49.527 135.163,50.064 135.565,49.935 C136,49.734 136.371,49.417 136.638,49.019 C136.738,48.812 136.867,49.119 137.096,48.84 C137.325,48.561 137.146,48.281 137.733,48.583 C138.319,48.885 138.548,48.941 138.576,48.455 C138.604,47.969 139.191,47.818 139.191,47.41 C139.191,47.002 138.705,47.281 138.526,46.594 C138.449,46.058 138.209,45.559 137.839,45.164 C137.559,44.985 137.174,44.577 136.766,44.885 C136.358,45.192 136.129,45.214 136.207,45.622 C136.242,45.91 136.198,46.202 136.079,46.466 C135.832,46.649 135.602,46.855 135.392,47.08 C134.906,47.566 134.984,48.561 134.576,47.438 C134.168,46.315 134.269,45.907 133.861,45.806 C133.623,45.718 133.361,45.718 133.124,45.806 C132.822,45.871 132.509,45.871 132.207,45.806 C131.649,45.756 131.47,45.449 131.414,45.806 C131.358,46.164 131.414,46.572 131.593,46.622 C131.772,46.672 131.542,46.779 130.928,47.08 C130.624,47.222 130.334,47.392 130.062,47.589 C130.062,47.589 130.777,47.997 130.341,48.226 C129.906,48.455 129.984,48.583 129.755,48.455 C129.526,48.326 129.068,48.097 129.269,47.689 C129.349,47.472 129.46,47.267 129.598,47.08 C129.906,46.622 130.285,46.415 130.313,46.287 C130.341,46.158 130.034,45.801 129.548,45.522 C129.062,45.242 128.732,44.756 128.347,45.086 C128.058,45.318 127.784,45.568 127.526,45.834 C127.425,45.985 128.084,45.935 128.291,46.013 C128.498,46.091 128.699,46.6 128.699,46.6 C128.688,46.686 128.653,46.768 128.599,46.836 C128.545,46.904 128.473,46.955 128.392,46.985 C128.112,47.086 127.676,47.293 127.676,47.293 C127.676,47.293 128.246,47.779 126.967,47.22 C125.996,46.772 125.05,46.27 124.134,45.717 C123.017,45.158 122.983,44.6 122.682,45.158 C122.38,45.717 122.961,45.795 122.095,45.924 C121.229,46.052 121.123,45.974 120.922,46.309 C120.781,46.58 120.687,46.873 120.643,47.175 L120.592,47.633 C120.592,47.633 120.285,48.091 120.184,48.119 C120.004,48.117 119.829,48.064 119.676,47.969 C119.576,47.89 119.855,47.304 119.855,47.175 C119.753,46.908 119.623,46.651 119.469,46.41 C119.469,46.41 119.112,45.773 118.654,45.851 C118.249,45.925 117.841,45.976 117.43,46.002 C117.43,46.002 116.179,45.594 116.257,45.415 C116.335,45.237 117.022,45.237 116.972,45.108 C116.922,44.98 117.179,44.834 116.358,44.745 C115.536,44.656 114.29,44.32 114.29,43.706 C114.29,43.091 113.804,43.019 113.089,43.041 C112.374,43.063 113.089,42.404 112.223,42.683 C112.026,42.778 111.808,42.821 111.589,42.81 C111.37,42.798 111.158,42.732 110.972,42.616 C110.972,42.616 111.279,42.276 110.028,42.304 C108.7762,42.331 109.184,42.382 108.6254,42.583 C108.0667,42.784 108.0387,42.633 107.9885,42.304 C107.9382,41.974 107.3739,41.873 106.994,41.924 C106.7395,41.97 106.5022,42.084 106.3068,42.253 C106.2713,41.886 106.159,41.53 105.9772,41.209 C105.6476,40.544 106.0778,40.722 105.3403,40.493 C104.6029,40.264 103.8095,39.907 104.3179,39.627 C104.8263,39.348 105.7202,38.784 105.1113,38.354 C104.5023,37.923 104.6252,37.845 103.6084,38.074 C102.5916,38.303 102.2564,37.868 101.8988,38.354 C101.5413,38.84 101.9491,38.789 100.8541,39.197 C99.7591,39.605 100.0105,39.376 99.5021,40.091 C98.9937,40.806 98.9434,41.035 98.8149,40.756 C98.6864,40.477 98.9155,39.683 99.4015,39.125 C99.6867,38.742 99.9373,38.334 100.1502,37.907 C99.2041,38.383 98.273,38.881 97.3568,39.398 C97.1229,39.578 96.9653,39.84 96.9154,40.13 C96.7813,41.119 97.4238,41.572 96.6752,41.717 C95.9265,41.862 95.6863,42.41 95.2785,42.443 C94.8706,42.477 95.1444,42.136 94.1611,42.069 C93.6695,42.035 93.4236,41.935 93.1443,41.935 C91.6284,42.918 90.1516,43.955 88.714,45.047 C89.1527,45.496 89.4044,46.095 89.4179,46.723 L87.5351,47.985 L85.0378,48.695 C85.3846,48.933 85.7808,49.09 86.1968,49.154 C86.6128,49.218 87.0378,49.187 87.4402,49.064 C88.971,48.689 89.8928,46.902 89.8425,47.617 C89.7922,48.332 88.9263,48.673 88.4626,49.164 C87.9989,49.656 90.0436,48.991 90.4515,48.483 C90.8593,47.974 91.3174,46.086 91.8817,46.494 C92.2263,46.759 92.4627,47.14 92.5465,47.566 L91.6806,48.432 L92.9544,49.058 L94.8427,50.064 C94.8427,50.064 94.9433,50.064 94.8427,50.622 C94.7421,51.181 94.4013,51.304 94.5689,51.522 C94.7366,51.74 94.7198,51.729 94.4069,52.237 C94.1165,52.663 93.8534,53.107 93.6192,53.567 C93.5521,53.79 93.9767,53.924 94.1108,53.567 C94.2449,53.209 94.4851,52.701 94.4851,52.701 C94.4851,52.701 95.1332,51.527 95.2841,51.661 C95.4062,51.806 95.4992,51.973 95.5578,52.153 L94.9991,53.365 C94.9991,53.365 94.9488,53.689 94.8818,53.997 C94.8148,54.304 94.9153,54.371 94.7477,54.505 C94.5801,54.639 94.189,54.03 94.5801,54.639 C94.9712,55.248 94.8204,55.254 94.5801,55.522 C94.3399,55.79 94.0829,55.863 94.3846,56.137 C94.6863,56.41 95.0941,55.729 95.2617,55.93 C95.4293,56.131 95.636,55.963 95.5355,56.371 C95.4349,56.779 95.9656,57.019 95.5355,57.254 C95.1053,57.489 94.5689,56.913 94.3566,56.98 C94.1443,57.047 94.0438,57.03 93.9767,57.31 C93.9097,57.589 93.6695,57.729 93.9767,57.93 C94.284,58.131 93.9097,58.405 93.8762,58.611 C93.8427,58.818 95.6807,58.053 94.9935,58.611 C94.3064,59.17 94.1779,59.226 93.9712,59.768 C93.7644,60.31 93.4125,60.79 93.8371,60.79 C94.2617,60.79 94.6192,60.176 94.893,60.176 C95.1667,60.176 94.9824,60.483 94.6472,60.79 C94.312,61.098 93.7365,60.757 93.5298,61.198 C93.4031,61.503 93.1893,61.763 92.9152,61.947 C92.608,62.221 92.6415,62.288 93.0493,62.628 C93.4572,62.969 94.4907,62.494 94.3511,62.628 C94.2114,62.762 94.027,62.762 93.8427,62.986 C93.6583,63.209 93.4348,63.545 93.798,63.461 C94.0825,63.44 94.3563,63.343 94.5913,63.181 C94.7589,63.036 95.2952,62.723 95.0103,63.064 C94.7254,63.405 94.5075,63.304 94.5522,63.584 C94.5969,63.863 94.703,63.668 94.6695,63.941 C94.636,64.215 94.636,64.383 94.7701,64.45 C94.8696,64.463 94.9709,64.449 95.0633,64.41 C95.1558,64.371 95.2359,64.307 95.2952,64.226 C95.3623,64.092 95.7031,64.019 95.5355,64.293 C95.3679,64.567 95.0271,64.768 95.1779,65.042 C95.3288,65.316 95.4852,65.534 95.4852,65.534 L95.2617,66.092 L95.1947,67.025 C95.0749,67.421 94.9274,67.807 94.7533,68.182 C94.5131,68.657 94.1388,69.539 94.1388,69.539 L93.6639,69.539 L93.7644,67.958 C93.7093,67.596 93.6176,67.24 93.4907,66.897 C93.3901,66.796 93.1499,66.74 92.9823,67.081 C92.8639,67.337 92.7722,67.605 92.7085,67.88 C92.7289,68.113 92.6824,68.348 92.5745,68.556 C92.4376,68.83 92.3452,69.124 92.3007,69.428 C91.7813,69.726 91.3927,70.209 91.2113,70.78 C90.8034,71.835 90.5353,71.83 90.3286,72.713 C90.1218,73.595 90.4626,74.104 89.647,74.618 C88.8313,75.132 88.6916,74.819 88.457,75.774 C88.2223,76.729 88.5911,76.797 88.1497,77.646 C87.7083,78.495 87.4346,78.495 87.3675,79.21 C87.3005,79.925 87.0212,80.623 87.0267,81.21 C87.0323,81.797 86.5798,82.272 87.0267,82.679 C87.4737,83.087 87.2335,83.054 87.4737,83.087 C87.7139,83.121 87.6413,82.814 88.1218,83.087 C88.6022,83.361 88.971,82.987 88.5966,83.361 C88.2223,83.735 88.0882,83.92 88.0882,83.92 C88.0882,83.92 87.848,83.646 87.7474,84.126 C87.6469,84.607 87.1888,84.562 87.2726,84.802 C87.3927,85.044 87.5533,85.263 87.7474,85.45 C87.7474,85.45 86.9318,85.518 87.3396,86.333 C87.7474,87.149 87.6804,86.981 87.6804,87.624 C87.6752,87.994 87.7318,88.362 87.848,88.713 L88.4067,89.691 L88.9151,90.35 C88.9151,90.35 88.4737,90.384 89.2559,90.909 C90.038,91.434 89.971,90.4 90.1721,91.624 C90.2923,92.195 90.3392,92.779 90.3118,93.361 L90.8705,94.077 C91.0147,94.489 91.0699,94.927 91.0325,95.362 C90.999,96.216 91.0325,95.674 91.0325,96.73 C91.0325,97.786 91.0325,98.021 91.4403,98.736 C91.8482,99.451 92.77,99.792 92.9376,100.2 C93.0529,100.609 93.1094,101.032 93.1052,101.457 C93.1052,101.457 93.1387,101.764 93.2393,102.272 C93.3398,102.781 93.1722,102.647 92.7309,102.138 C92.6823,102.072 92.6176,102.02 92.5429,101.986 C92.4682,101.952 92.3861,101.937 92.3043,101.944 C92.2225,101.951 92.1438,101.978 92.0757,102.024 C92.0076,102.07 91.9523,102.132 91.9152,102.205 C91.8972,102.369 91.9187,102.535 91.978,102.688 C92.0373,102.842 92.1327,102.979 92.256,103.088 C92.6974,103.563 93.446,104.345 93.446,104.345 C93.446,104.345 93.7197,104.138 93.9209,105.027 C94.122,105.915 94.3455,105.675 94.3343,106.39 C94.3231,107.105 94.055,108.021 95.2114,108.977 C96.3679,109.932 95.7701,109.535 96.2338,110.608 C96.5485,111.418 97.0637,112.135 97.7311,112.692 C98.206,113.061 99.6362,114.569 98.7535,112.692 C97.8708,110.815 97.407,110.921 97.0271,110.289 C96.6472,109.658 97.0271,108.977 96.5076,107.278 C95.988,105.58 95.0773,103.881 94.8762,102.686 C94.6751,101.49 94.7421,100.278 93.8538,98.267 C92.9655,96.255 92.4236,95.093 93.2393,95.641 C94.055,96.188 95.122,95.267 95.1891,96.384 C95.2561,97.501 95.3232,99.278 95.3232,99.278 C95.4867,99.999 95.7381,100.697 96.0718,101.356 C96.8204,103.127 97.2953,103.194 97.6361,103.535 C97.9256,103.971 98.1338,104.455 98.2507,104.965 C98.2507,104.965 99.7479,105.58 99.7479,106.122 C99.7479,106.664 99.1334,106.395 99.7479,107.552 C100.3625,108.708 99.5412,107.759 100.3625,108.708 C100.8795,109.32 101.336,109.981 101.7257,110.681 L103.8375,113.334 C103.8671,113.814 104.0066,114.28 104.2453,114.697 C104.6531,115.446 105.3627,115.385 104.899,115.949 C104.4353,116.513 103.8263,116.664 104.1336,116.843 C104.4408,117.022 104.5191,117.122 104.2844,117.329 C104.0498,117.536 104.8431,118.374 105.1951,119.396 C105.547,120.418 106.0107,120.513 106.6588,121.133 C107.0952,121.494 107.4447,121.949 107.6812,122.463 C108.089,123.178 107.5806,122.631 108.9047,123.111 C109.714,123.417 110.455,123.88 111.084,124.474 C111.391,124.681 112.017,124.815 114.212,125.938 C116.408,127.061 117.006,127.614 118.089,127.977 C119.173,128.34 119.313,128.793 120.129,128.592 C120.944,128.391 121.352,127.927 121.866,128.184 C122.38,128.441 122.073,129.05 122.782,128.642 C123.492,128.234 123.598,128.301 123.805,128.776 C124.011,129.251 125.336,130.123 125.336,130.123 C125.336,130.123 124.313,130.581 126,131.603 C127.537,132.536 129.034,133.279 129.593,133.145 C129.593,133.24 129.766,133.38 130.151,133.592 C131.092,134.086 131.926,134.762 132.604,135.581 C132.998,136.078 133.23,136.685 133.269,137.318 C133.252,137.532 133.309,137.745 133.43,137.922 C133.551,138.099 133.729,138.229 133.934,138.291 C134.492,138.548 135.263,138.391 135.872,138.799 C136.481,139.207 135.721,139.358 136.844,139.872 C137.391,140.146 137.977,140.334 138.582,140.43 L139.196,140.173 L140.828,140.43 C140.828,140.43 141.543,140.838 141.593,141.145 C141.643,141.453 141.236,141.704 141.85,141.961 C142.009,142.039 142.184,142.08 142.361,142.08 C142.539,142.08 142.714,142.039 142.873,141.961 C142.873,141.961 144.454,141.704 144.146,141.145 C143.839,140.587 142.716,140.687 143.532,140.173 C144.347,139.659 144.705,139.458 145.063,139.257 C145.42,139.056 145.571,138.9 146.18,139.514 C146.789,140.129 147.152,139.414 146.794,140.129 C146.437,140.844 146.415,141.045 146.934,141.101 C147.254,141.136 147.558,141.26 147.811,141.458 C147.811,141.458 148.476,141.738 148.476,142.084 C148.476,142.43 147.968,142.33 148.018,142.788 C148.068,143.246 147.303,143.095 147.66,143.553 C148.018,144.011 147.353,144.218 147.61,144.727 C147.867,145.235 147.102,145.285 147.66,146 C148.219,146.715 147.867,147.33 146.845,147.632 C145.822,147.933 146.23,147.123 145.672,148.19 C145.113,149.257 145.264,149.308 144.789,149.447 C144.155,149.682 143.54,149.966 142.951,150.297 C142.135,150.704 142.236,149.889 141.833,151.079 C141.431,152.269 141.833,152.269 141.018,152.95 C140.79,153.117 140.608,153.339 140.489,153.595 C140.37,153.851 140.317,154.132 140.336,154.414 C140.336,154.414 143.431,154.04 142.208,154.822 C141.608,155.133 141.076,155.56 140.643,156.079 C140.44,156.303 140.253,156.542 140.085,156.794 L139.526,157.783 L139.392,158.939 C139.392,158.939 139.666,158.699 140.582,159.314 C141.498,159.928 141.699,159.962 141.839,160.163 C142.285,160.986 142.85,161.739 143.515,162.398 C144.101,163.022 144.732,163.603 145.403,164.135 C145.861,164.493 146.32,164.342 146.269,164.951 C146.219,165.56 146.169,165.308 147.342,165.666 C148.515,166.023 149.281,166.381 150.096,166.381 C150.912,166.381 152.8,166.688 153.365,166.688 C153.929,166.688 154.281,166.638 153.923,167.046 C153.566,167.454 152.901,168.985 152.035,169.839 C151.169,170.694 150.918,171.219 149.688,171.627 C148.459,172.035 147.75,172.392 146.984,172.649 C146.219,172.906 145.711,174.018 145.711,174.024 C156.6,171.996 166.88,167.501 175.763,160.885 C184.646,154.269 191.897,145.707 196.958,135.855 L195.472,136.05 L193.321,137.682 Z M157.203,60.919 C157.46,60.785 157.8,61.086 158.052,61.293 C158.195,61.442 158.386,61.534 158.592,61.552 C158.797,61.571 159.002,61.514 159.169,61.394 C159.694,61.086 160.002,61.276 160.516,61.494 C161.03,61.712 160.449,61.952 159.784,62.209 C159.119,62.466 159.666,62.45 159.069,62.45 C158.471,62.45 158.884,62.774 158.694,63.008 C158.504,63.243 158.03,62.483 157.331,61.919 C156.633,61.355 156.655,61.187 157.203,60.919 Z M131.615,72.456 C133.604,71.791 133.146,71.31 134.319,72.215 C135.492,73.12 136.057,72.567 136.207,73.484 C136.358,74.4 137.688,75.16 137.688,75.16 L139.526,75.506 L142.28,76.065 C142.28,76.065 143.113,76.355 143.303,76.998 C143.493,77.64 144.068,77.908 142.945,77.897 C142.094,77.85 141.253,77.692 140.442,77.428 C140.442,77.428 140.157,77.685 140.196,78.808 C140.236,79.931 140.755,79.724 139.984,80.389 C139.213,81.054 137.431,81.612 138.811,81.562 C140.191,81.512 141.264,80.797 141.872,81.205 C142.481,81.612 142.889,80.696 143.504,80.646 C144.118,80.596 143.403,80.182 144.169,79.623 C144.934,79.065 145.012,78.657 146.146,78.757 C147.281,78.858 147.079,78.501 148.146,78.501 C149.214,78.501 150.085,79.411 148.655,79.618 C147.225,79.825 147.024,79.568 145.901,80.031 C144.778,80.495 144.783,79.774 144.521,80.797 C144.258,81.819 145.236,81.663 143.856,82.177 C142.476,82.691 143.241,82.305 141.66,82.545 C140.079,82.786 140.437,82.892 139.157,82.786 C137.878,82.679 136.811,82.685 137.42,81.713 C138.029,80.741 139.615,81.098 139.258,79.975 C138.9,78.852 138.392,79.003 137.677,79.26 C136.962,79.517 138.006,78.311 138.023,77.892 C138.04,77.473 137.627,76.947 136.861,76.774 C136.096,76.601 136.096,75.919 135.431,76.964 C134.766,78.009 134.766,77.26 134.515,77.864 C134.263,78.467 134.107,77.797 134.107,79.584 C134.107,81.372 134.464,82.473 132.934,82.791 C131.403,83.11 131.258,80.601 131.911,79.584 C132.565,78.568 133.185,77.819 132.369,77.864 C131.554,77.908 132.42,76.411 133.341,76.238 C134.263,76.065 134.671,76.148 135.436,76.031 C136.202,75.914 136.816,76.031 136.917,75.813 C137.018,75.595 136.101,74.539 135.179,74.696 C134.258,74.852 134.973,74.947 133.8,75.087 C132.626,75.227 131.503,75.026 131.811,74.696 C132.118,74.366 132.369,74.366 131.542,74.059 C130.716,73.752 131.615,72.456 131.615,72.456 Z M124.453,64.634 C125.011,64.545 124.52,64.176 124.62,63.6 C124.721,63.025 125.268,63.293 126.458,63.327 C126.458,63.327 126.665,63.735 126.118,63.885 C125.57,64.036 125.844,64.126 125.71,64.444 C125.569,64.777 125.512,65.14 125.542,65.5 C125.482,65.751 125.484,66.013 125.55,66.262 C125.615,66.512 125.741,66.741 125.917,66.93 C126.358,67.489 126.157,67.489 126.324,68.651 C126.492,69.813 125.816,69.243 125.101,69.411 C124.386,69.578 125.101,69.411 125.062,68.852 C125.023,68.293 125.268,67.897 124.861,67.103 C124.453,66.31 124.213,66.813 124.146,66.232 C124.078,65.651 124.352,65.673 123.861,65.176 C123.369,64.679 123.872,64.695 124.447,64.606 L124.453,64.634 Z M122.648,64.634 C122.648,64.634 123.207,65.483 122.816,65.835 C122.425,66.187 122.509,66.539 123.056,66.813 C123.604,67.087 123.704,66.981 123.497,67.494 C123.291,68.008 123.665,68.176 123.838,69.059 C124.011,69.942 123.056,69.433 123.056,68.634 C123.056,67.835 122.749,68.036 122.24,67.629 C121.732,67.221 121.766,67.014 121.877,66.606 C121.989,66.198 122.073,65.992 121.391,65.316 C120.71,64.64 121.285,64.539 122.648,64.628 L122.648,64.634 Z M120.263,58.824 C120.341,57.88 120.134,58.064 121.084,58.209 C121.419,58.259 121.721,58.516 121.414,59.461 C121.106,60.405 120.955,59.818 120.112,60.304 C119.268,60.79 120.207,59.768 120.263,58.824 Z M102.4966,81.791 C102.0609,82.786 102.0106,82.249 101.0161,82.35 C100.0217,82.45 101.0161,81.841 101.0161,80.489 C101.0161,79.137 100.8876,79.579 102.2899,79.517 C102.8765,79.473 102.9436,80.797 102.4966,81.791 Z M109.4131,47.622 C109.4131,47.622 109.8209,47.494 110.866,47.265 C111.91,47.036 111.044,47.114 110.424,46.829 C109.8042,46.544 109.9494,46.751 108.6198,46.572 C107.2901,46.393 109.5919,46.343 110.916,46.293 C112.24,46.242 111.279,46.237 112.626,46.443 C113.156,46.527 112.575,47.002 113.313,47.237 C114.05,47.471 113.313,47.415 113.313,47.823 C113.313,48.231 113.033,48.309 112.396,47.902 C111.76,47.494 111.888,47.902 111.681,48.08 C111.475,48.259 110.637,48.896 110.637,48.896 C110.071,48.7 109.5254,48.454 109.0053,48.159 C108.3404,47.751 109.4131,47.622 109.4131,47.622 Z M116.402,51.689 C116.017,51.689 115.816,51.997 115.33,52.505 C115.172,52.699 114.966,52.847 114.732,52.936 C114.499,53.026 114.247,53.052 114,53.013 C113.441,53.013 113.335,53.114 112.033,53.472 C110.732,53.829 111.139,53.622 110.452,53.164 C109.7651,52.706 109.6366,52.678 109.5584,52.449 C109.4801,52.22 110.603,52.499 110.961,52.27 C111.263,52.039 111.537,51.773 111.776,51.477 C111.776,51.477 111.525,50.712 112.234,50.505 C112.558,50.41 112.464,50.835 112.693,51.371 C112.922,51.907 113.151,52.164 113.994,52.075 C114.838,51.986 114.966,51.55 116.14,51.421 C117.313,51.293 116.788,51.689 116.402,51.689 Z M129.855,132.978 C130.263,132.637 130.799,132.268 130.85,132.681 C130.878,132.922 130.235,132.91 129.855,132.978 Z" id="Shape" fill="#20B58D" fill-rule="nonzero"></path>
                            <path d="M166.069,101.141 C163.209,85.571 152.102,92.565 152.102,92.565 C136.543,77.9 133.861,96.856 133.861,96.856 C126.71,94.174 124.744,101.147 124.744,101.147 C114.872,98.756 111.821,103.94 111,108.655 L176.991,108.655 C175.165,97.348 166.069,101.141 166.069,101.141 Z" id="Path" fill="#FFFFFF" fill-rule="nonzero"></path>
                            <path d="M76.9165,85.396 C75.1175,75.608 68.1508,80.005 68.1508,80.005 C58.3739,70.786 56.6867,82.703 56.6867,82.703 C52.2172,81.027 50.9546,85.401 50.9546,85.401 C44.7476,83.899 42.8314,87.145 42.3174,90.122 L83.7939,90.122 C82.6374,83.016 76.9165,85.396 76.9165,85.396 Z" id="Path" fill="#FFFFFF" fill-rule="nonzero"></path>
                            <path d="M101.2084,43.606 C98.9178,31.148 90.0348,36.746 90.0348,36.746 C77.5874,25.014 75.4365,40.182 75.4365,40.182 C69.71,38.036 68.1345,43.618 68.1345,43.618 C60.2347,41.707 57.7933,45.852 57.1396,49.629 L109.9406,49.629 C108.4713,40.55 101.2084,43.606 101.2084,43.606 Z" id="Path" fill="#FFFFFF" fill-rule="nonzero"></path>
                            <path d="M107.6652,79.211 C117.701,66.343 120.624,51.845 114.193,46.83 C107.7626,41.815 94.4139,48.181 84.3779,61.05 C74.342,73.918 71.4193,88.416 77.8499,93.431 C84.2806,98.446 97.6293,92.08 107.6652,79.211 Z" id="Path" fill="#FFFFFF" fill-rule="nonzero" opacity="0.5"></path>
                        </g>
                    </g>
                </g>
            </g>
        </g>
    </g>
</svg>