<?xml version="1.0" encoding="UTF-8"?>
<svg width="171px" height="330px" viewBox="0 0 171 330" version="1.1" xmlns="http://www.w3.org/2000/svg" xmlns:xlink="http://www.w3.org/1999/xlink">
    <title>trees</title>
    <defs>
        <rect id="path-1" x="0" y="0" width="171" height="174" rx="10"></rect>
    </defs>
    <g id="Page-1" stroke="none" stroke-width="1" fill="none" fill-rule="evenodd">
        <g id="Artboard" transform="translate(-620.000000, -26.000000)">
            <g id="trees" transform="translate(620.000000, 26.000000)">
                <rect id="Rectangle" fill="#138175" fill-rule="nonzero" x="0" y="0" width="171" height="330" rx="10"></rect>
                <g id="Clipped" transform="translate(0.000000, 156.000000)">
                    <mask id="mask-2" fill="white">
                        <use xlink:href="#path-1"></use>
                    </mask>
                    <g id="Rectangle"></g>
                    <g id="Group" mask="url(#mask-2)">
                        <g transform="translate(-6.000000, 49.000000)">
                            <path d="M115.485,220.97 C176.504,220.97 225.97,171.504 225.97,110.485 C225.97,49.466 176.504,0 115.485,0 C54.4659,0 5,49.466 5,110.485 C5,171.504 54.4659,220.97 115.485,220.97 Z" id="Path" fill="#2B5250" fill-rule="nonzero" opacity="0.202381"></path>
                            <path d="M115.645,202.742 C166.509,202.742 207.743,161.509 207.743,110.645 C207.743,59.781 166.509,18.547 115.645,18.547 C64.781,18.547 23.5475,59.781 23.5475,110.645 C23.5475,161.509 64.781,202.742 115.645,202.742 Z" id="Path" fill="#2B5250" fill-rule="nonzero" opacity="0.202381"></path>
                            <path d="M115.485,182.596 C155.311,182.596 187.596,150.311 187.596,110.485 C187.596,70.659 155.311,38.374 115.485,38.374 C75.6591,38.374 43.3739,70.659 43.3739,110.485 C43.3739,150.311 75.6591,182.596 115.485,182.596 Z" id="Path" fill="#2B5250" fill-rule="nonzero" opacity="0.1"></path>
                            <path d="M101.2998,122.176 C101.9376,120.644 102.5069,119.077 103,117.477 L102.2989,102.182 L101.7399,102.182 L101.2998,122.176 Z" id="Path" fill="#4F6E6E" fill-rule="nonzero"></path>
                            <path d="M0.92871,111.77 C2.18373,112.651 3.70518,113.178 5.355217,113.178 C9.62207,113.178 13.08118,109.718 13.08118,105.452 C13.08118,101.185 9.62207,88.069 5.355217,88.069 C3.63358,88.069 2.04897,90.216 0.76453,93.044 C0.27117,95.94 0,98.911 0,101.947 C0,105.306 0.32774,108.586 0.92871,111.77 Z" id="Path" fill="#00A07D" fill-rule="nonzero"></path>
                            <polygon id="Path" fill="#00827E" fill-rule="nonzero" points="50.7823 124.225 48.6937 124.225 49.1948 101.448 49.738 101.448"></polygon>
                            <polygon id="Path" fill="#00827E" fill-rule="nonzero" points="44.5585 124.725 42.4698 124.725 42.971 101.947 43.5142 101.947"></polygon>
                            <polygon id="Path" fill="#00827E" fill-rule="nonzero" points="57.6764 124.226 55.8873 124.226 56.3167 104.715 56.7819 104.715"></polygon>
                            <polygon id="Path" fill="#00827E" fill-rule="nonzero" points="54.9145 123.092 53.1254 123.092 53.5547 103.581 54.0199 103.581"></polygon>
                            <polygon id="Path" fill="#00827E" fill-rule="nonzero" points="66.6109 124.226 64.8217 124.226 65.2511 104.715 65.7163 104.715"></polygon>
                            <polygon id="Path" fill="#00827E" fill-rule="nonzero" points="84.6619 123.459 82.873 123.459 83.3023 103.948 83.7673 103.948"></polygon>
                            <polygon id="Path" fill="#00827E" fill-rule="nonzero" points="93.9082 123.092 92.1191 123.092 92.5485 103.581 93.0137 103.581"></polygon>
                            <polygon id="Path" fill="#00827E" fill-rule="nonzero" points="98.0235 122.592 96.2344 122.592 96.6638 103.081 97.1289 103.081"></polygon>
                            <polygon id="Path" fill="#00827E" fill-rule="nonzero" points="13.09173 123.707 11.30261 123.707 11.73199 104.196 12.19717 104.196"></polygon>
                            <polygon id="Path" fill="#00827E" fill-rule="nonzero" points="7.60653 123.459 5.817413 123.459 6.24679 103.948 6.71197 103.948"></polygon>
                            <polygon id="Path" fill="#00827E" fill-rule="nonzero" points="40.2373 124.225 38.1486 124.225 38.6498 101.448 39.1929 101.448"></polygon>
                            <polygon id="Path" fill="#00827E" fill-rule="nonzero" points="33.0989 124.225 31.0102 124.225 31.5114 101.448 32.0545 101.448"></polygon>
                            <polygon id="Path" fill="#00827E" fill-rule="nonzero" points="27.9798 124.225 25.8911 124.225 26.3923 101.448 26.9355 101.448"></polygon>
                            <polygon id="Path" fill="#00827E" fill-rule="nonzero" points="20.611 123.898 18.5223 123.898 19.0237 101.12 19.5666 101.12"></polygon>
                            <polygon id="Path" fill="#4F6E6E" fill-rule="nonzero" points="58.8701 126.966 56.7814 126.966 57.2828 104.188 57.8257 104.188"></polygon>
                            <polygon id="Path" fill="#4F6E6E" fill-rule="nonzero" points="63.7531 126.551 61.6645 126.551 62.1656 103.773 62.7088 103.773"></polygon>
                            <polygon id="Path" fill="#4F6E6E" fill-rule="nonzero" points="71.4542 126.551 69.3655 126.551 69.8669 103.773 70.4099 103.773"></polygon>
                            <polygon id="Path" fill="#4F6E6E" fill-rule="nonzero" points="77.9353 126.121 75.8466 126.121 76.348 103.343 76.8909 103.343"></polygon>
                            <polygon id="Path" fill="#4F6E6E" fill-rule="nonzero" points="85.8565 125.34 83.7678 125.34 84.2692 102.562 84.8122 102.562"></polygon>
                            <polygon id="Path" fill="#4F6E6E" fill-rule="nonzero" points="95.1027 124.216 93.014 124.216 93.5152 101.438 94.0583 101.438"></polygon>
                            <polygon id="Path" fill="#4F6E6E" fill-rule="nonzero" points="99.2171 125.093 97.1285 125.093 97.6296 102.315 98.1728 102.315"></polygon>
                            <polygon id="Path" fill="#4F6E6E" fill-rule="nonzero" points="15.17 126.121 13.0813 126.121 13.58269 103.343 14.12564 103.343"></polygon>
                            <polygon id="Path" fill="#4F6E6E" fill-rule="nonzero" points="8.80096 126.551 6.71228 126.551 7.21367 103.773 7.75662 103.773"></polygon>
                            <polygon id="Path" fill="#6C5F59" fill-rule="nonzero" points="39.1926 131.145 36.3376 131.145 37.0227 100.01 37.765 100.01"></polygon>
                            <polygon id="Path" fill="#6C5F59" fill-rule="nonzero" points="47.9093 131.145 45.0542 131.145 45.7395 100.01 46.4816 100.01"></polygon>
                            <polygon id="Path" fill="#6C5F59" fill-rule="nonzero" points="60.6812 130.885 57.8262 130.885 58.5115 99.749 59.2538 99.749"></polygon>
                            <polygon id="Path" fill="#6C5F59" fill-rule="nonzero" points="68.5709 130.885 65.7158 130.885 66.4009 99.749 67.1432 99.749"></polygon>
                            <polygon id="Path" fill="#6C5F59" fill-rule="nonzero" points="82.4539 131.145 79.5989 131.145 80.2842 100.01 81.0265 100.01"></polygon>
                            <polygon id="Path" fill="#6C5F59" fill-rule="nonzero" points="90.3071 130.224 87.4522 130.224 88.1374 99.089 88.8797 99.089"></polygon>
                            <polygon id="Path" fill="#6C5F59" fill-rule="nonzero" points="26.936 129.272 24.0809 129.272 24.766 98.136 25.5083 98.136"></polygon>
                            <polygon id="Path" fill="#4F6E6E" fill-rule="nonzero" points="22.0385 126.551 19.9498 126.551 20.451 103.773 20.9942 103.773"></polygon>
                            <polygon id="Path" fill="#4F6E6E" fill-rule="nonzero" points="35.0069 126.705 32.9183 126.705 33.4195 103.928 33.9626 103.928"></polygon>
                            <polygon id="Path" fill="#4F6E6E" fill-rule="nonzero" points="43.5145 126.966 41.4258 126.966 41.9272 104.188 42.4701 104.188"></polygon>
                            <polygon id="Path" fill="#4F6E6E" fill-rule="nonzero" points="52.0678 126.966 49.9791 126.966 50.4803 104.188 51.0235 104.188"></polygon>
                            <polygon id="Path" fill="#6C5F59" fill-rule="nonzero" points="12.1967 129.519 9.34164 129.519 10.02676 98.384 10.76907 98.384"></polygon>
                            <path d="M100.611,110.133 C100.611,115.778 96.0348,120.355 90.3894,120.355 C84.7441,120.355 80.1678,115.778 80.1678,110.133 C80.1678,104.488 84.7441,87.134 90.3894,87.134 C96.0348,87.134 100.611,104.488 100.611,110.133 Z" id="Path" fill="#34BE71" fill-rule="nonzero"></path>
                            <polygon id="Path" fill="#805F59" fill-rule="nonzero" points="89.8587 112.509 89.3713 133.083 92.3722 133.083 91.3569 112.509"></polygon>
                            <polygon id="Path" fill="#805F59" fill-rule="nonzero" points="90.3884 115.61 95.076 111.798 95.6385 112.827 90.3884 117.515"></polygon>
                            <path d="M90.3887,87.134 C88.979,87.134 87.6361,88.216 86.4144,89.928 C86.7893,89.775 87.1697,89.687 87.5557,89.687 C93.2008,89.687 97.7773,107.04 97.7773,112.686 C97.7773,115.01 96.9928,117.145 95.6865,118.862 C98.6348,117.069 100.6105,113.836 100.6105,110.133 C100.6105,104.487 96.034,87.134 90.3887,87.134 Z" id="Path" fill="#52C883" fill-rule="nonzero"></path>
                            <path d="M26.9363,109.255 C26.9363,115.117 22.1849,119.868 16.3236,119.868 C10.46225,119.868 5.710876,115.117 5.710876,109.255 C5.710876,103.394 10.46245,85.377 16.3236,85.377 C22.1847,85.377 26.9363,103.394 26.9363,109.255 Z" id="Path" fill="#34BE71" fill-rule="nonzero"></path>
                            <polygon id="Path" fill="#805F59" fill-rule="nonzero" points="15.7732 111.722 15.2671 133.083 18.3831 133.083 17.3286 111.722"></polygon>
                            <polygon id="Path" fill="#805F59" fill-rule="nonzero" points="16.3237 114.942 21.1907 110.983 21.7748 112.052 16.3237 116.919"></polygon>
                            <path d="M16.323,85.376 C14.85932,85.376 13.46501,86.5 12.19662,88.277 C12.58568,88.119 12.9807,88.027 13.38148,88.027 C19.2426,88.027 23.9942,106.045 23.9942,111.906 C23.9942,114.318 23.1797,116.536 21.8234,118.318 C24.8844,116.456 26.9357,113.1 26.9357,109.255 C26.9357,103.394 22.1843,85.376 16.323,85.376 Z" id="Path" fill="#52C883" fill-rule="nonzero"></path>
                            <path d="M45.1672,69.408 C44.5523,69.408 43.9713,69.529 43.4143,69.704 C41.6501,67.168 38.7234,65.501 35.3999,65.501 C32.0764,65.501 29.1497,67.168 27.3855,69.704 C26.8286,69.529 26.2475,69.408 25.6326,69.408 C22.3961,69.408 19.7723,72.032 19.7723,75.268 L51.0275,75.268 C51.0275,72.032 48.4037,69.408 45.1672,69.408 Z" id="Path" fill="#FFFFFF" fill-rule="nonzero"></path>
                            <path d="M61.9732,98.443 C61.8156,97.81 61.7228,97.151 61.7228,96.469 C61.7228,92.001 65.3152,88.379 69.7467,88.379 C70.212,88.379 70.6653,88.428 71.1089,88.504 C72.5118,87.641 74.1547,87.134 75.9187,87.134 C81.0319,87.134 85.177,91.314 85.177,96.469 C85.177,96.7 85.1591,96.927 85.1426,97.154 C87.4609,99.791 88.8803,103.248 88.8803,107.049 C88.8803,115.298 82.2483,121.985 74.067,121.985 C65.8857,121.985 59.2537,115.298 59.2537,107.049 C59.2537,103.841 60.2661,100.877 61.9732,98.443 Z" id="Path" fill="#00A07D" fill-rule="nonzero"></path>
                            <polygon id="Path" fill="#805F59" fill-rule="nonzero" points="75.4144 133.083 72.8215 133.083 73.4436 106.815 74.1178 106.815"></polygon>
                            <polygon id="Path" fill="#805F59" fill-rule="nonzero" points="73.6775 116.95 67.8431 112.205 67.1429 112.594 73.6775 118.428"></polygon>
                            <polygon id="Path" fill="#805F59" fill-rule="nonzero" points="74.066 111.202 70.1071 107.982 69.6318 108.246 74.066 112.205"></polygon>
                            <polygon id="Path" fill="#805F59" fill-rule="nonzero" points="74.0659 114.461 79.9003 109.716 80.6004 110.105 74.0659 115.939"></polygon>
                            <path d="M85.142,97.154 C85.1585,96.927 85.1764,96.7 85.1764,96.469 C85.1764,91.313 81.0313,87.134 75.9181,87.134 C74.154,87.134 72.5112,87.64 71.1081,88.504 C70.6645,88.427 70.2112,88.379 69.7459,88.379 C67.3498,88.379 65.2233,89.459 63.7531,91.138 C64.6007,90.831 65.5014,90.635 66.4538,90.635 C66.9192,90.635 67.3724,90.683 67.816,90.76 C69.2192,89.896 70.862,89.39 72.626,89.39 C77.7393,89.39 81.8843,93.569 81.8843,98.725 C81.8843,98.956 81.8666,99.183 81.85,99.41 C84.1685,102.046 85.5879,105.504 85.5879,109.304 C85.5879,113.721 83.6751,117.678 80.6526,120.412 C85.5243,117.966 88.8797,112.909 88.8797,107.048 C88.8797,103.248 87.4605,99.79 85.142,97.154 Z" id="Path" fill="#36B294" fill-rule="nonzero"></path>
                            <path d="M43.9958,94.942 C44.1706,94.246 44.2737,93.521 44.2737,92.77 C44.2737,87.85 40.2856,83.862 35.366,83.862 C34.8494,83.862 34.3461,83.916 33.8538,84 C32.2961,83.049 30.4722,82.492 28.514,82.492 C22.8376,82.492 18.2358,87.093 18.2358,92.77 C18.2358,93.025 18.2556,93.274 18.2739,93.524 C15.7003,96.427 14.12451,100.234 14.12451,104.418 C14.12451,113.501 21.4871,120.864 30.5695,120.864 C39.652,120.864 47.0146,113.501 47.0146,104.418 C47.0146,100.887 45.8908,97.622 43.9958,94.942 Z" id="Path" fill="#00A07D" fill-rule="nonzero"></path>
                            <path d="M43.9959,94.942 C44.1708,94.246 44.2738,93.521 44.2738,92.77 C44.2738,87.85 40.2858,83.862 35.3661,83.862 C34.8495,83.862 34.3462,83.916 33.8539,84 C32.2962,83.049 30.4724,82.492 28.5141,82.492 C24.2909,82.492 20.6664,85.041 19.0852,88.683 C20.9161,86.573 23.6208,85.233 26.6458,85.233 C28.5481,85.233 30.3195,85.77 31.8325,86.687 C32.3109,86.605 32.7997,86.554 33.3015,86.554 C38.0802,86.554 41.9541,90.4 41.9541,95.144 C41.9541,95.868 41.8539,96.567 41.684,97.239 C43.5247,99.823 44.6164,102.97 44.6164,106.376 C44.6164,111.387 42.2687,115.848 38.6123,118.754 C43.6237,115.937 47.0147,110.577 47.0147,104.418 C47.0147,100.887 45.891,97.622 43.9959,94.942 Z" id="Path" fill="#36B294" fill-rule="nonzero"></path>
                            <polygon id="Path" fill="#805F59" fill-rule="nonzero" points="32.0557 133.083 29.2007 133.083 29.8858 101.948 30.6281 101.948"></polygon>
                            <polygon id="Path" fill="#805F59" fill-rule="nonzero" points="30.1422 113.951 23.7184 108.726 22.9477 109.154 30.1422 115.578"></polygon>
                            <polygon id="Path" fill="#805F59" fill-rule="nonzero" points="30.5706 111.21 36.9944 105.985 37.7651 106.413 30.5706 112.837"></polygon>
                            <path d="M68.795,87.275 C69.005,86.438 69.1289,85.567 69.1289,84.665 C69.1289,78.757 64.3391,73.967 58.4304,73.967 C57.8099,73.967 57.2056,74.031 56.6141,74.133 C54.7433,72.991 52.5528,72.321 50.2008,72.321 C43.3832,72.321 37.8563,77.848 37.8563,84.665 C37.8563,84.971 37.8802,85.271 37.902,85.572 C34.811,89.058 32.9186,93.63 32.9186,98.656 C32.9186,109.564 41.7613,118.407 52.6697,118.407 C63.578,118.407 72.4207,109.564 72.4207,98.656 C72.4207,94.414 71.0711,90.494 68.795,87.275 Z" id="Path" fill="#34BE71" fill-rule="nonzero"></path>
                            <path d="M68.7963,87.275 C69.0063,86.438 69.1302,85.567 69.1302,84.665 C69.1302,78.757 64.3404,73.967 58.4317,73.967 C57.8112,73.967 57.2069,74.031 56.6154,74.132 C54.7446,72.99 52.5541,72.321 50.2021,72.321 C45.1298,72.321 40.7765,75.382 38.8777,79.756 C41.0767,77.223 44.3253,75.613 47.9583,75.613 C50.2428,75.613 52.3706,76.258 54.1879,77.359 C54.7625,77.262 55.3495,77.2 55.9521,77.2 C61.6915,77.2 66.3443,81.819 66.3443,87.516 C66.3443,88.386 66.2241,89.226 66.0198,90.032 C68.2307,93.136 69.5417,96.916 69.5417,101.007 C69.5417,107.026 66.7218,112.384 62.3305,115.874 C68.3494,112.49 72.422,106.052 72.422,98.656 C72.422,94.413 71.0724,90.493 68.7963,87.275 Z" id="Path" fill="#52C883" fill-rule="nonzero"></path>
                            <path d="M36.0119,88.39 C36.0053,88.3 36.0043,88.208 35.9981,88.117 C35.7872,88.449 35.593,88.792 35.4016,89.136 C35.6035,88.886 35.7979,88.63 36.0119,88.39 Z" id="Path" fill="#52C883" fill-rule="nonzero"></path>
                            <polygon id="Path" fill="#805F59" fill-rule="nonzero" points="54.4527 133.083 51.0236 133.083 51.8466 98.347 52.7381 98.347"></polygon>
                            <polygon id="Path" fill="#805F59" fill-rule="nonzero" points="52.1554 111.75 44.4401 105.475 43.5143 105.989 52.1554 113.704"></polygon>
                            <polygon id="Path" fill="#805F59" fill-rule="nonzero" points="52.6709 104.148 47.4356 99.89 46.8073 100.239 52.6709 105.475"></polygon>
                            <polygon id="Path" fill="#805F59" fill-rule="nonzero" points="52.6697 108.458 60.385 102.183 61.3108 102.697 52.6697 110.412"></polygon>
                            <g id="Group" opacity="0.6" stroke-width="1" fill="none" fill-rule="evenodd" transform="translate(42.000000, 56.000000)">
                                <path d="M0.4974,6.889 C0.4974,4.606 2.3481,2.755 4.631,2.755 C4.9756,2.755 5.305,2.81 5.6249,2.889 C6.7034,1.724 8.2327,0.984 9.9454,0.984 C13.2066,0.984 15.8504,3.627 15.8504,6.889 L0.4974,6.889 Z" id="Path" fill="#FFFFFF" fill-rule="nonzero"></path>
                            </g>
                            <path d="M63.7526,63.712 C63.7526,62.328 62.6327,61.207 61.2514,61.207 C61.043,61.207 60.8436,61.24 60.65,61.288 C59.9974,60.582 59.072,60.133 58.0355,60.133 C56.062,60.133 54.4622,61.735 54.4622,63.711 L63.7526,63.711 L63.7526,63.712 Z" id="Path" fill="#FFFFFF" fill-rule="nonzero"></path>
                            <path d="M74.0663,69.29 C74.0663,67.685 75.3656,66.384 76.9681,66.384 C77.2101,66.384 77.4413,66.422 77.6658,66.478 C78.4229,65.659 79.4965,65.139 80.6988,65.139 C82.9883,65.139 84.8441,66.997 84.8441,69.29 L74.0663,69.29 Z" id="Path" fill="#FFFFFF" fill-rule="nonzero"></path>
                            <path d="M63.2255,122.344 L62.0156,95.955 L61.3434,95.955 L60.8862,116.73 C61.5795,118.645 62.3626,120.517 63.2255,122.344 Z" id="Path" fill="#4F6E6E" fill-rule="nonzero"></path>
                            <path d="M58.1493,106.708 C59.7024,107.798 61.5853,108.45 63.6272,108.45 C68.9076,108.45 73.1883,104.169 73.1883,98.889 C73.1883,93.608 68.9076,77.376 63.6272,77.376 C61.4967,77.376 59.5357,80.034 57.9461,83.533 C57.3356,87.117 57,90.794 57,94.552 C57,98.708 57.4056,102.768 58.1493,106.708 Z" id="Path" fill="#00A07D" fill-rule="nonzero"></path>
                            <polygon id="Path" fill="#00827E" fill-rule="nonzero" points="119.844 122.122 117.26 122.122 117.88 93.934 118.552 93.934"></polygon>
                            <polygon id="Path" fill="#00827E" fill-rule="nonzero" points="112.143 122.74 109.558 122.74 110.178 94.552 110.85 94.552"></polygon>
                            <polygon id="Path" fill="#00827E" fill-rule="nonzero" points="128.376 122.122 126.162 122.122 126.693 97.977 127.269 97.977"></polygon>
                            <polygon id="Path" fill="#00827E" fill-rule="nonzero" points="124.959 120.719 122.744 120.719 123.276 96.574 123.852 96.574"></polygon>
                            <polygon id="Path" fill="#00827E" fill-rule="nonzero" points="139.432 122.122 137.218 122.122 137.75 97.977 138.325 97.977"></polygon>
                            <polygon id="Path" fill="#00827E" fill-rule="nonzero" points="161.772 121.173 159.558 121.173 160.089 97.029 160.665 97.029"></polygon>
                            <polygon id="Path" fill="#00827E" fill-rule="nonzero" points="173.214 120.719 171 120.719 171.532 96.574 172.107 96.574"></polygon>
                            <polygon id="Path" fill="#00827E" fill-rule="nonzero" points="178.306 120.1 176.092 120.1 176.624 95.955 177.199 95.955"></polygon>
                            <polygon id="Path" fill="#00827E" fill-rule="nonzero" points="73.2015 121.48 70.9874 121.48 71.5188 97.335 72.0944 97.335"></polygon>
                            <polygon id="Path" fill="#00827E" fill-rule="nonzero" points="66.4135 121.173 64.1994 121.173 64.7308 97.029 65.3064 97.029"></polygon>
                            <polygon id="Path" fill="#00827E" fill-rule="nonzero" points="106.794 122.122 104.2097 122.122 104.8299 93.934 105.502 93.934"></polygon>
                            <polygon id="Path" fill="#00827E" fill-rule="nonzero" points="97.961 122.122 95.3762 122.122 95.9964 93.934 96.6686 93.934"></polygon>
                            <polygon id="Path" fill="#00827E" fill-rule="nonzero" points="91.6259 122.122 89.0411 122.122 89.6613 93.934 90.3335 93.934"></polygon>
                            <polygon id="Path" fill="#00827E" fill-rule="nonzero" points="82.5063 121.716 79.9215 121.716 80.542 93.528 81.2139 93.528"></polygon>
                            <polygon id="Path" fill="#4F6E6E" fill-rule="nonzero" points="129.854 125.514 127.269 125.514 127.889 97.325 128.561 97.325"></polygon>
                            <polygon id="Path" fill="#4F6E6E" fill-rule="nonzero" points="135.897 125 133.312 125 133.932 96.812 134.604 96.812"></polygon>
                            <polygon id="Path" fill="#4F6E6E" fill-rule="nonzero" points="145.427 125 142.842 125 143.462 96.812 144.134 96.812"></polygon>
                            <polygon id="Path" fill="#4F6E6E" fill-rule="nonzero" points="153.447 124.467 150.862 124.467 151.483 96.279 152.155 96.279"></polygon>
                            <polygon id="Path" fill="#4F6E6E" fill-rule="nonzero" points="163.25 123.502 160.665 123.502 161.286 95.313 161.958 95.313"></polygon>
                            <polygon id="Path" fill="#4F6E6E" fill-rule="nonzero" points="174.692 122.11 172.107 122.11 172.728 93.922 173.4 93.922"></polygon>
                            <polygon id="Path" fill="#4F6E6E" fill-rule="nonzero" points="75.7731 124.467 73.1883 124.467 73.8087 96.279 74.4807 96.279"></polygon>
                            <polygon id="Path" fill="#4F6E6E" fill-rule="nonzero" points="67.8913 125 65.3065 125 65.9269 96.812 66.5989 96.812"></polygon>
                            <polygon id="Path" fill="#6C5F59" fill-rule="nonzero" points="105.502 130.685 101.9691 130.685 102.8169 92.154 103.7356 92.154"></polygon>
                            <polygon id="Path" fill="#6C5F59" fill-rule="nonzero" points="116.289 130.685 112.756 130.685 113.604 92.154 114.523 92.154"></polygon>
                            <polygon id="Path" fill="#6C5F59" fill-rule="nonzero" points="132.095 130.362 128.561 130.362 129.409 91.832 130.328 91.832"></polygon>
                            <polygon id="Path" fill="#6C5F59" fill-rule="nonzero" points="141.859 130.362 138.325 130.362 139.173 91.832 140.092 91.832"></polygon>
                            <polygon id="Path" fill="#6C5F59" fill-rule="nonzero" points="159.039 130.685 155.506 130.685 156.354 92.154 157.273 92.154"></polygon>
                            <polygon id="Path" fill="#6C5F59" fill-rule="nonzero" points="168.758 129.545 165.225 129.545 166.073 91.014 166.991 91.014"></polygon>
                            <polygon id="Path" fill="#6C5F59" fill-rule="nonzero" points="90.3337 128.367 86.8005 128.367 87.6483 89.835 88.567 89.835"></polygon>
                            <polygon id="Path" fill="#4F6E6E" fill-rule="nonzero" points="84.2728 125 81.688 125 82.3083 96.812 82.9804 96.812"></polygon>
                            <polygon id="Path" fill="#4F6E6E" fill-rule="nonzero" points="100.3225 125.191 97.7377 125.191 98.358 97.003 99.0301 97.003"></polygon>
                            <polygon id="Path" fill="#4F6E6E" fill-rule="nonzero" points="110.85 125.514 108.265 125.514 108.886 97.325 109.558 97.325"></polygon>
                            <polygon id="Path" fill="#4F6E6E" fill-rule="nonzero" points="121.435 125.514 118.85 125.514 119.471 97.325 120.143 97.325"></polygon>
                            <polygon id="Path" fill="#6C5F59" fill-rule="nonzero" points="72.0937 128.673 68.5605 128.673 69.4084 90.142 70.327 90.142"></polygon>
                            <path d="M181.509,104.682 C181.509,111.668 175.845,117.331 168.859,117.331 C161.873,117.331 156.21,111.668 156.21,104.682 C156.21,97.695 161.873,76.22 168.859,76.22 C175.845,76.22 181.509,97.695 181.509,104.682 Z" id="Path" fill="#34BE71" fill-rule="nonzero"></path>
                            <polygon id="Path" fill="#805F59" fill-rule="nonzero" points="168.202 107.622 167.599 133.083 171.313 133.083 170.056 107.622"></polygon>
                            <polygon id="Path" fill="#805F59" fill-rule="nonzero" points="168.858 111.46 174.659 106.742 175.355 108.016 168.858 113.817"></polygon>
                            <path d="M168.858,76.22 C167.114,76.22 165.452,77.559 163.94,79.678 C164.404,79.488 164.875,79.379 165.352,79.379 C172.338,79.379 178.002,100.855 178.002,107.841 C178.002,110.717 177.031,113.36 175.414,115.485 C179.063,113.265 181.508,109.264 181.508,104.682 C181.508,97.695 175.844,76.22 168.858,76.22 Z" id="Path" fill="#52C883" fill-rule="nonzero"></path>
                            <path d="M90.334,103.596 C90.334,110.849 84.4541,116.729 77.2005,116.729 C69.9469,116.729 64.067,110.849 64.067,103.596 C64.067,96.342 69.9472,74.045 77.2005,74.045 C84.4538,74.045 90.334,96.342 90.334,103.596 Z" id="Path" fill="#34BE71" fill-rule="nonzero"></path>
                            <polygon id="Path" fill="#805F59" fill-rule="nonzero" points="76.5191 106.648 75.8928 133.083 79.7489 133.083 78.444 106.648"></polygon>
                            <polygon id="Path" fill="#805F59" fill-rule="nonzero" points="77.2003 110.633 83.2233 105.734 83.9461 107.057 77.2003 113.08"></polygon>
                            <path d="M77.1996,74.045 C75.3883,74.045 73.6628,75.436 72.0931,77.635 C72.5746,77.438 73.0635,77.325 73.5594,77.325 C80.8128,77.325 86.693,99.622 86.693,106.876 C86.693,109.861 85.685,112.605 84.0066,114.811 C87.7947,112.507 90.3331,108.353 90.3331,103.595 C90.3331,96.342 84.4532,74.045 77.1996,74.045 Z" id="Path" fill="#52C883" fill-rule="nonzero"></path>
                            <path d="M112.896,54.283 C112.135,54.283 111.416,54.433 110.727,54.65 C108.544,51.512 104.9217,49.448 100.8087,49.448 C96.6958,49.448 93.074,51.512 90.8907,54.65 C90.2015,54.433 89.4824,54.283 88.7214,54.283 C84.7162,54.283 81.4691,57.53 81.4691,61.536 L120.148,61.536 C120.148,57.53 116.901,54.283 112.896,54.283 Z" id="Path" fill="#FFFFFF" fill-rule="nonzero"></path>
                            <g id="Group" opacity="0.6" stroke-width="1" fill="none" fill-rule="evenodd" transform="translate(128.000000, 54.000000)">
                                <path d="M20.833,3.214 C20.349,3.214 19.892,3.309 19.453,3.447 C18.064,1.45 15.76,0.137 13.143,0.137 C10.526,0.137 8.222,1.45 6.833,3.447 C6.394,3.309 5.937,3.214 5.453,3.214 C2.904,3.214 0.839,5.28 0.839,7.828 L25.447,7.828 C25.447,5.28 23.382,3.214 20.833,3.214 Z" id="Path" fill="#FFFFFF" fill-rule="nonzero"></path>
                            </g>
                            <path d="M133.693,90.214 C133.498,89.431 133.383,88.616 133.383,87.772 C133.383,82.243 137.829,77.76 143.313,77.76 C143.889,77.76 144.45,77.82 144.999,77.915 C146.735,76.847 148.768,76.22 150.951,76.22 C157.279,76.22 162.409,81.392 162.409,87.772 C162.409,88.058 162.387,88.339 162.366,88.62 C165.235,91.883 166.992,96.162 166.992,100.865 C166.992,111.073 158.784,119.349 148.66,119.349 C138.535,119.349 130.328,111.073 130.328,100.865 C130.328,96.895 131.581,93.226 133.693,90.214 Z" id="Path" fill="#00A07D" fill-rule="nonzero"></path>
                            <polygon id="Path" fill="#805F59" fill-rule="nonzero" points="150.328 133.083 147.119 133.083 147.889 100.576 148.723 100.576"></polygon>
                            <polygon id="Path" fill="#805F59" fill-rule="nonzero" points="148.178 113.118 140.958 107.246 140.092 107.727 148.178 114.948"></polygon>
                            <polygon id="Path" fill="#805F59" fill-rule="nonzero" points="148.659 106.005 143.76 102.02 143.172 102.347 148.659 107.246"></polygon>
                            <polygon id="Path" fill="#805F59" fill-rule="nonzero" points="148.66 110.038 155.88 104.166 156.746 104.647 148.66 111.867"></polygon>
                            <path d="M162.366,88.62 C162.386,88.339 162.408,88.059 162.408,87.772 C162.408,81.392 157.279,76.22 150.951,76.22 C148.768,76.22 146.735,76.847 144.999,77.915 C144.45,77.82 143.889,77.76 143.313,77.76 C140.348,77.76 137.716,79.097 135.897,81.175 C136.946,80.795 138.06,80.552 139.239,80.552 C139.815,80.552 140.376,80.612 140.925,80.707 C142.661,79.638 144.694,79.012 146.877,79.012 C153.205,79.012 158.334,84.184 158.334,90.564 C158.334,90.85 158.313,91.131 158.292,91.412 C161.161,94.674 162.918,98.954 162.918,103.656 C162.918,109.122 160.551,114.019 156.81,117.403 C162.839,114.376 166.991,108.117 166.991,100.865 C166.991,96.162 165.235,91.883 162.366,88.62 Z" id="Path" fill="#36B294" fill-rule="nonzero"></path>
                            <path d="M111.446,85.883 C111.663,85.021 111.79,84.123 111.79,83.194 C111.79,77.106 106.855,72.171 100.7667,72.171 C100.1274,72.171 99.5046,72.237 98.8954,72.341 C96.9677,71.165 94.7106,70.475 92.2872,70.475 C85.2625,70.475 79.5677,76.169 79.5677,83.194 C79.5677,83.51 79.5921,83.818 79.6148,84.128 C76.4299,87.72 74.4798,92.432 74.4798,97.61 C74.4798,108.849 83.5913,117.961 94.831,117.961 C106.071,117.961 115.182,108.85 115.182,97.61 C115.182,93.239 113.792,89.2 111.446,85.883 Z" id="Path" fill="#00A07D" fill-rule="nonzero"></path>
                            <path d="M111.447,85.883 C111.663,85.021 111.791,84.123 111.791,83.194 C111.791,77.106 106.856,72.171 100.7673,72.171 C100.128,72.171 99.5052,72.237 98.8959,72.341 C96.9683,71.165 94.7112,70.475 92.2878,70.475 C87.0614,70.475 82.576,73.629 80.6193,78.136 C82.8851,75.526 86.2322,73.867 89.9757,73.867 C92.3298,73.867 94.522,74.532 96.3944,75.667 C96.9864,75.566 97.5913,75.502 98.2123,75.502 C104.1261,75.502 108.92,80.261 108.92,86.132 C108.92,87.028 108.796,87.893 108.586,88.725 C110.864,91.922 112.215,95.817 112.215,100.032 C112.215,106.234 109.309,111.755 104.7846,115.351 C110.986,111.864 115.183,105.231 115.183,97.61 C115.183,93.239 113.792,89.2 111.447,85.883 Z" id="Path" fill="#36B294" fill-rule="nonzero"></path>
                            <polygon id="Path" fill="#805F59" fill-rule="nonzero" points="96.6701 133.083 93.1369 133.083 93.9848 94.552 94.9034 94.552"></polygon>
                            <polygon id="Path" fill="#805F59" fill-rule="nonzero" points="94.3024 109.406 86.3528 102.94 85.399 103.47 94.3024 111.42"></polygon>
                            <polygon id="Path" fill="#805F59" fill-rule="nonzero" points="94.8328 106.014 102.7825 99.548 103.7363 100.078 94.8328 108.028"></polygon>
                            <path d="M142.136,76.394 C142.396,75.359 142.549,74.281 142.549,73.165 C142.549,65.853 136.621,59.926 129.309,59.926 C128.541,59.926 127.794,60.005 127.062,60.131 C124.746,58.717 122.036,57.889 119.125,57.889 C110.688,57.889 103.8484,64.728 103.8484,73.165 C103.8484,73.544 103.8779,73.915 103.9049,74.287 C100.0796,78.601 97.7377,84.26 97.7377,90.479 C97.7377,103.978 108.681,114.921 122.18,114.921 C135.68,114.921 146.623,103.978 146.623,90.479 C146.623,85.229 144.953,80.378 142.136,76.394 Z" id="Path" fill="#20B58D" fill-rule="nonzero"></path>
                            <path d="M142.137,76.394 C142.397,75.359 142.55,74.281 142.55,73.165 C142.55,65.853 136.623,59.925 129.311,59.925 C128.543,59.925 127.795,60.004 127.063,60.13 C124.748,58.717 122.037,57.888 119.126,57.888 C112.849,57.888 107.462,61.677 105.112,67.09 C107.833,63.955 111.853,61.962 116.349,61.962 C119.177,61.962 121.81,62.761 124.059,64.124 C124.77,64.003 125.496,63.926 126.242,63.926 C133.345,63.926 139.103,69.642 139.103,76.693 C139.103,77.769 138.954,78.808 138.701,79.807 C141.437,83.648 143.059,88.326 143.059,93.388 C143.059,100.836 139.57,107.467 134.135,111.786 C141.584,107.598 146.624,99.632 146.624,90.478 C146.624,85.228 144.954,80.377 142.137,76.394 Z" id="Path" fill="#52C883" fill-rule="nonzero"></path>
                            <path d="M101.5651,77.774 C101.557,77.663 101.5557,77.549 101.5481,77.437 C101.2871,77.848 101.0467,78.271 100.8099,78.698 C101.0597,78.388 101.3003,78.071 101.5651,77.774 Z" id="Path" fill="#52C883" fill-rule="nonzero"></path>
                            <polygon id="Path" fill="#805F59" fill-rule="nonzero" points="124.387 133.083 120.143 133.083 121.161 90.096 122.265 90.096"></polygon>
                            <polygon id="Path" fill="#805F59" fill-rule="nonzero" points="121.543 106.683 111.995 98.917 110.85 99.554 121.543 109.101"></polygon>
                            <polygon id="Path" fill="#805F59" fill-rule="nonzero" points="122.181 97.275 115.702 92.006 114.925 92.438 122.181 98.917"></polygon>
                            <polygon id="Path" fill="#805F59" fill-rule="nonzero" points="122.18 102.609 131.728 94.843 132.873 95.48 122.18 105.027"></polygon>
                            <path d="M148.66,54.138 C148.66,52.151 150.268,50.541 152.251,50.541 C152.55,50.541 152.836,50.589 153.114,50.658 C154.051,49.644 155.38,49 156.868,49 C159.701,49 161.997,51.3 161.997,54.138 L148.66,54.138 Z" id="Path" fill="#FFFFFF" fill-rule="nonzero"></path>
                        </g>
                    </g>
                </g>
            </g>
        </g>
    </g>
</svg>