<?xml version="1.0" encoding="UTF-8"?>
<svg width="171px" height="330px" viewBox="0 0 171 330" version="1.1" xmlns="http://www.w3.org/2000/svg" xmlns:xlink="http://www.w3.org/1999/xlink">
    <title>water</title>
    <defs>
        <rect id="path-1" x="0" y="0" width="171" height="174" rx="10"></rect>
        <linearGradient x1="63.0801599%" y1="89.5998685%" x2="34.5691612%" y2="14.2156974%" id="linearGradient-3">
            <stop stop-color="#27C3DA" offset="0%"></stop>
            <stop stop-color="#85DBF0" offset="45.33%"></stop>
            <stop stop-color="#C4EEF8" offset="100%"></stop>
        </linearGradient>
        <linearGradient x1="116.857097%" y1="50.8594809%" x2="0.235677983%" y2="50.8594809%" id="linearGradient-4">
            <stop stop-color="#27C3DA" offset="0%"></stop>
            <stop stop-color="#85DBF0" offset="45.33%"></stop>
            <stop stop-color="#C4EEF8" offset="100%"></stop>
        </linearGradient>
        <linearGradient x1="100.816062%" y1="49.774584%" x2="-27.9885613%" y2="49.774584%" id="linearGradient-5">
            <stop stop-color="#27C3DA" offset="0%"></stop>
            <stop stop-color="#85DBF0" offset="45.33%"></stop>
            <stop stop-color="#C4EEF8" offset="100%"></stop>
        </linearGradient>
        <linearGradient x1="129.822498%" y1="50.2038928%" x2="0.126738233%" y2="50.2038928%" id="linearGradient-6">
            <stop stop-color="#27C3DA" offset="0%"></stop>
            <stop stop-color="#85DBF0" offset="45.33%"></stop>
            <stop stop-color="#C4EEF8" offset="100%"></stop>
        </linearGradient>
        <linearGradient x1="114.590126%" y1="50.0119251%" x2="2.71389135%" y2="50.0119251%" id="linearGradient-7">
            <stop stop-color="#27C3DA" offset="0%"></stop>
            <stop stop-color="#85DBF0" offset="45.33%"></stop>
            <stop stop-color="#C4EEF8" offset="100%"></stop>
        </linearGradient>
        <linearGradient x1="115.057505%" y1="50.6494642%" x2="3.14080121%" y2="50.6494642%" id="linearGradient-8">
            <stop stop-color="#27C3DA" offset="0%"></stop>
            <stop stop-color="#85DBF0" offset="45.33%"></stop>
            <stop stop-color="#C4EEF8" offset="100%"></stop>
        </linearGradient>
        <linearGradient x1="98.2964282%" y1="49.8292555%" x2="-26.0915043%" y2="49.8292555%" id="linearGradient-9">
            <stop stop-color="#27C3DA" offset="0%"></stop>
            <stop stop-color="#85DBF0" offset="45.33%"></stop>
            <stop stop-color="#C4EEF8" offset="100%"></stop>
        </linearGradient>
        <linearGradient x1="124.995828%" y1="49.891549%" x2="6.39800969%" y2="49.891549%" id="linearGradient-10">
            <stop stop-color="#27C3DA" offset="0%"></stop>
            <stop stop-color="#85DBF0" offset="45.33%"></stop>
            <stop stop-color="#C4EEF8" offset="100%"></stop>
        </linearGradient>
        <linearGradient x1="67.055521%" y1="77.1893814%" x2="34.7939676%" y2="32.3833451%" id="linearGradient-11">
            <stop stop-color="#27C3DA" offset="0%"></stop>
            <stop stop-color="#85DBF0" offset="45.33%"></stop>
            <stop stop-color="#C4EEF8" offset="100%"></stop>
        </linearGradient>
    </defs>
    <g id="Page-1" stroke="none" stroke-width="1" fill="none" fill-rule="evenodd">
        <g id="Artboard" transform="translate(-220.000000, -26.000000)">
            <g id="water" transform="translate(220.000000, 26.000000)">
                <rect id="Rectangle" fill="#65A4C5" fill-rule="nonzero" x="0" y="0" width="171" height="330" rx="10"></rect>
                <g id="Clipped" transform="translate(0.000000, 156.000000)">
                    <mask id="mask-2" fill="white">
                        <use xlink:href="#path-1"></use>
                    </mask>
                    <g id="Rectangle"></g>
                    <g id="Group" mask="url(#mask-2)">
                        <g transform="translate(-11.000000, 63.000000)">
                            <g id="Group" opacity="0.5" style="mix-blend-mode: multiply;" stroke-width="1" fill="none" fill-rule="evenodd">
                                <path d="M110.485,220.97 C171.504,220.97 220.97,171.504 220.97,110.485 C220.97,49.466 171.504,0 110.485,0 C49.4659,0 0,49.466 0,110.485 C0,171.504 49.4659,220.97 110.485,220.97 Z" id="Path" fill="#2B5250" fill-rule="nonzero" opacity="0.202381"></path>
                                <path d="M110.645,202.742 C161.51,202.742 202.743,161.509 202.743,110.645 C202.743,59.781 161.51,18.547 110.645,18.547 C59.7813,18.547 18.54785,59.781 18.54785,110.645 C18.54785,161.509 59.7813,202.742 110.645,202.742 Z" id="Path" fill="#2B5250" fill-rule="nonzero" opacity="0.202381"></path>
                                <path d="M110.485,182.596 C150.311,182.596 182.596,150.311 182.596,110.485 C182.596,70.659 150.311,38.374 110.485,38.374 C70.6593,38.374 38.374,70.659 38.374,110.485 C38.374,150.311 70.6593,182.596 110.485,182.596 Z" id="Path" fill="#2B5250" fill-rule="nonzero" opacity="0.1"></path>
                            </g>
                            <path d="M157.714,105.804 C174.194,58.088 130.633,37.078 112.02,37.855 C101,38.308 92.2425,42.225 86.4904,47.469 C85.1008,48.732 86.0379,51.03 87.9122,50.998 C94.0522,50.836 100.3214,52.131 106.2351,55.012 C111.147,57.408 115.348,60.677 118.741,64.562 C119.194,65.048 119.646,65.566 120.034,66.116 C129.211,77.737 131.506,94.053 124.623,108.297 C117.222,123.544 104.8455,131.054 85.1331,132.187 C59.1838,133.676 40.6985476,119.368 40.6985476,119.368 C40.6985476,119.368 40.0208,139.342 76.9573,146.722 C104.3285,152.161 143.947,145.719 157.714,105.804 Z" id="Path" fill="url(#linearGradient-3)" fill-rule="nonzero"></path>
                            <g id="Group" opacity="0.4" stroke-width="1" fill="none" fill-rule="evenodd" transform="translate(47.000000, 50.000000)">
                                <path d="M85.151,32.205 C75.488,-2.562 40.9108,0.966 40.9108,0.966 C47.0507,0.804 53.3199,2.099 59.2336,4.98 C64.146,7.376 68.347,10.645 71.74,14.53 C72.192,15.016 72.644,15.534 73.032,16.084 C82.21,27.706 84.504,44.021 77.621,58.265 C70.221,73.512 52.1242,84.227 36.225,82.9 C33.6398,83.127 32.0886,83.386 29.2126,83.321 C16.0925,83.127 7.0442,81.929 0.8073,80.31 C2.0353,82.706 3.1987,85.134 4.2651,87.562 C22.7495,83.062 45.0794,88.177 57.6501,84.454 C77.847,78.53 91.387,54.672 85.151,32.205 Z" id="Path" fill="#27C3DA" fill-rule="nonzero"></path>
                            </g>
                            <path d="M157.843,105.804 C165.792,80.554 157.94,62.879 145.983,51.872 C158.78,67.055 163.272,89.618 153.189,110.401 C139.811,137.982 101.8725,153.909 74.3397,140.507 C72.013,139.374 65.4207,137.237 63.3525,135.845 C31.3602,134.583 34.3656,123.35 34.8826,119.821 C34.8826,119.821 45.5467,141.964 77.3451,148.535 C94.1168,152.031 143.075,152.646 157.843,105.804 Z" id="Path" fill="#27C3DA" fill-rule="nonzero" opacity="0.6"></path>
                            <g id="Group" opacity="0.4" stroke-width="1" fill="none" fill-rule="evenodd" transform="translate(120.000000, 49.000000)">
                                <path d="M4.751,91.054 C4.751,91.054 5.139,90.859 5.818,90.536 C5.882,90.503 6.011,90.439 6.141,90.374 C6.27,90.309 6.399,90.244 6.529,90.18 C6.787,90.05 7.078,89.888 7.401,89.726 C7.95,89.37 8.629,89.014 9.34,88.529 C10.762,87.59 12.378,86.36 14.058,84.806 C15.738,83.252 17.483,81.342 19.132,79.108 C19.939,78.008 20.747,76.81 21.491,75.547 C21.588,75.386 21.684,75.224 21.781,75.062 L21.814,74.997 C21.814,74.997 21.878,74.868 21.846,74.932 L21.846,74.9 L21.911,74.803 L22.04,74.576 C22.202,74.285 22.363,73.961 22.557,73.637 C22.751,73.281 22.912,72.925 23.106,72.602 C23.268,72.245 23.429,71.922 23.623,71.566 C24.948,68.782 26.079,65.771 27.017,62.631 C27.469,61.077 27.889,59.458 28.244,57.84 C28.438,57.031 28.6,56.221 28.762,55.38 C28.826,54.959 28.923,54.57 28.988,54.149 L29.02,53.955 L29.052,53.793 L29.117,53.502 L29.214,52.887 L29.311,52.272 L29.408,51.624 C29.472,51.171 29.537,50.75 29.569,50.297 C29.634,49.423 29.731,48.549 29.796,47.675 C29.86,46.801 29.86,45.927 29.893,45.053 C29.893,44.179 29.86,43.305 29.828,42.431 C29.634,38.935 29.02,35.503 28.18,32.234 C27.76,30.615 27.275,29.029 26.758,27.475 C26.629,27.086 26.499,26.698 26.37,26.309 C26.241,25.921 26.112,25.565 25.982,25.176 C25.821,24.788 25.692,24.399 25.562,24.011 C25.401,23.623 25.239,23.266 25.11,22.878 C23.85,19.932 22.331,17.213 20.65,14.85 C19.81,13.652 18.938,12.551 18.033,11.515 C17.128,10.479 16.223,9.541 15.318,8.667 C13.476,6.919 11.634,5.494 9.922,4.393 C8.209,3.293 6.593,2.484 5.268,1.933 C3.911,1.383 2.812,1.059 2.069,0.865 C1.681,0.768 1.39,0.703 1.196,0.671 C1.003,0.638 0.906,0.606 0.906,0.606 C0.906,0.606 1.003,0.638 1.196,0.703 C1.39,0.768 1.681,0.833 2.037,0.962 C2.78,1.189 3.846,1.609 5.107,2.257 C6.399,2.904 7.886,3.811 9.469,5.041 C11.053,6.239 12.733,7.76 14.381,9.605 C15.189,10.512 15.997,11.515 16.773,12.551 C17.548,13.62 18.291,14.753 19.002,15.95 C20.424,18.346 21.652,21.033 22.622,23.882 C22.751,24.238 22.848,24.594 22.977,24.95 C23.074,25.306 23.171,25.662 23.3,26.018 C23.397,26.374 23.494,26.795 23.591,27.151 L23.656,27.442 L23.688,27.507 L23.688,27.54 C23.688,27.572 23.688,27.507 23.688,27.54 L23.72,27.669 L23.85,28.252 C24.173,29.806 24.464,31.359 24.69,32.946 C25.142,36.086 25.336,39.291 25.142,42.431 C25.11,43.208 25.013,43.985 24.948,44.762 C24.851,45.538 24.754,46.315 24.625,47.092 C24.496,47.869 24.334,48.614 24.173,49.391 C24.076,49.747 23.979,50.135 23.914,50.491 L23.785,51.042 L23.623,51.624 C22.783,54.667 21.781,57.613 20.65,60.365 C19.519,63.117 18.259,65.642 16.869,67.875 C16.708,68.167 16.514,68.426 16.352,68.685 C16.191,68.944 16.029,69.202 15.835,69.429 C15.771,69.559 15.641,69.688 15.545,69.85 C15.448,69.979 15.351,70.141 15.254,70.271 L15.092,70.465 L15.027,70.562 L14.995,70.594 C14.963,70.659 15.027,70.562 14.995,70.562 L14.963,70.594 L14.704,70.951 C13.993,71.922 13.25,72.828 12.475,73.637 C10.988,75.288 9.469,76.616 8.08,77.652 C6.69,78.688 5.397,79.464 4.331,80.015 C3.782,80.306 3.297,80.5 2.877,80.727 C2.489,80.889 2.134,81.018 1.875,81.115 C1.132,81.374 0.744,81.536 0.744,81.536 L4.751,91.054 Z" id="Path" fill="#27C3DA" fill-rule="nonzero"></path>
                            </g>
                            <g id="Group" opacity="0.4" stroke-width="1" fill="none" fill-rule="evenodd" transform="translate(138.000000, 73.000000)">
                                <path d="M4.298,54.688 C4.298,54.688 4.395,54.493 4.621,54.137 C4.815,53.781 5.138,53.263 5.494,52.583 C5.687,52.227 5.881,51.871 6.14,51.45 C6.366,51.03 6.592,50.576 6.851,50.091 C7.368,49.12 7.917,48.019 8.499,46.821 C9.081,45.623 9.695,44.296 10.309,42.904 C10.923,41.48 11.537,39.991 12.118,38.437 C12.409,37.66 12.7,36.851 12.991,36.041 C13.249,35.232 13.54,34.39 13.799,33.549 C14.348,31.865 14.8,30.15 15.22,28.402 C15.641,26.653 15.964,24.905 16.222,23.19 C16.481,21.441 16.642,19.726 16.739,18.075 C16.836,16.391 16.804,14.805 16.707,13.251 C16.578,11.73 16.448,10.305 16.19,8.978 C15.964,7.683 15.641,6.486 15.35,5.45 C15.22,4.932 15.027,4.446 14.865,4.025 C14.736,3.572 14.542,3.184 14.413,2.828 C14.122,2.115 13.863,1.565 13.702,1.209 C13.54,0.853 13.443,0.626 13.443,0.626 C13.443,0.626 13.508,0.82 13.669,1.209 C13.799,1.597 14.025,2.148 14.251,2.892 C14.38,3.248 14.51,3.669 14.606,4.122 C14.703,4.576 14.865,5.061 14.962,5.579 C15.188,6.615 15.382,7.813 15.511,9.108 C15.673,10.403 15.673,11.827 15.673,13.316 C15.641,14.805 15.511,16.359 15.317,17.978 C15.091,19.596 14.8,21.247 14.413,22.898 C14.025,24.549 13.572,26.233 13.023,27.851 C12.538,29.47 11.957,31.088 11.31,32.642 C10.987,33.419 10.664,34.196 10.341,34.973 C9.985,35.718 9.662,36.495 9.307,37.207 C8.628,38.663 7.885,40.055 7.206,41.35 C6.495,42.645 5.817,43.875 5.138,44.976 C4.492,46.077 3.845,47.113 3.296,47.987 C3.005,48.44 2.747,48.828 2.488,49.217 C2.23,49.605 2.003,49.929 1.81,50.253 C1.389,50.868 1.034,51.386 0.808,51.709 C0.582,52.033 0.452,52.227 0.452,52.227 L4.298,54.688 Z" id="Path" fill="#27C3DA" fill-rule="nonzero"></path>
                            </g>
                            <g id="Group" opacity="0.4" stroke-width="1" fill="none" fill-rule="evenodd" transform="translate(120.000000, 79.000000)">
                                <path d="M4.138,57.655 C4.138,57.655 4.267,57.46 4.558,57.104 C4.687,56.942 4.849,56.716 5.043,56.457 C5.237,56.198 5.463,55.907 5.721,55.583 C6.238,54.903 6.852,54.061 7.531,53.09 C7.887,52.605 8.21,52.087 8.597,51.536 C8.791,51.277 8.953,50.986 9.147,50.695 C9.341,50.403 9.535,50.112 9.728,49.788 C9.922,49.497 10.116,49.173 10.31,48.849 C10.504,48.526 10.698,48.202 10.892,47.878 C11.312,47.231 11.7,46.519 12.088,45.806 C12.508,45.094 12.895,44.317 13.316,43.573 C13.703,42.796 14.123,42.019 14.511,41.177 C15.287,39.559 16.03,37.843 16.709,36.062 C17.387,34.282 18.001,32.469 18.518,30.624 C19.035,28.779 19.455,26.901 19.779,25.024 C20.069,23.146 20.296,21.301 20.36,19.52 C20.425,17.707 20.393,15.992 20.263,14.341 C20.102,12.69 19.908,11.168 19.585,9.776 C19.52,9.42 19.455,9.096 19.358,8.74 C19.262,8.417 19.197,8.093 19.1,7.769 C18.938,7.154 18.712,6.571 18.551,6.021 C18.454,5.73 18.357,5.471 18.26,5.244 C18.163,4.985 18.066,4.759 17.969,4.532 C17.807,4.046 17.613,3.658 17.42,3.27 C17.096,2.525 16.773,1.942 16.579,1.554 C16.385,1.165 16.256,0.939 16.256,0.939 C16.256,0.939 16.353,1.165 16.515,1.554 C16.676,1.975 16.967,2.557 17.226,3.334 C17.355,3.723 17.517,4.144 17.678,4.629 C17.743,4.856 17.84,5.115 17.904,5.374 C18.001,5.633 18.066,5.892 18.13,6.183 C18.26,6.733 18.421,7.316 18.551,7.963 C18.615,8.287 18.68,8.611 18.744,8.935 C18.809,9.258 18.841,9.614 18.906,9.938 C19.1,11.33 19.197,12.852 19.229,14.438 C19.229,16.024 19.132,17.707 18.938,19.456 C18.712,21.171 18.389,22.952 17.969,24.7 C17.517,26.48 16.967,28.228 16.353,29.977 C15.739,31.725 14.996,33.408 14.22,35.059 C13.445,36.71 12.605,38.296 11.764,39.785 C11.344,40.53 10.892,41.274 10.472,41.987 C10.019,42.699 9.599,43.379 9.147,44.026 C8.694,44.673 8.274,45.321 7.854,45.936 C7.628,46.227 7.434,46.551 7.208,46.842 C6.982,47.134 6.788,47.425 6.562,47.684 C6.368,47.975 6.141,48.234 5.948,48.493 C5.754,48.752 5.56,49.011 5.334,49.27 C4.946,49.756 4.59,50.241 4.203,50.662 C3.492,51.536 2.845,52.249 2.328,52.864 C2.07,53.155 1.811,53.446 1.617,53.673 C1.391,53.9 1.23,54.126 1.068,54.288 C0.777,54.612 0.616,54.806 0.616,54.806 L4.138,57.655 Z" id="Path" fill="#27C3DA" fill-rule="nonzero"></path>
                            </g>
                            <path d="M11.00093,105.901 C18.33653,105.286 31.0365,112.505 40.7311,119.336 C48.0021,124.483 63.2226,135.619 85.9081,139.471 C111.243,143.777 130.633,135.619 142.719,125.843 C154.546,116.26 157.713,105.804 157.713,105.804 C157.713,105.804 149.796,138.824 110.759,148.73 C71.7216,158.636 31.3596,126.781 31.3596,126.781 L11.00093,122.055 L11.00093,105.901 Z" id="Path" fill="#85DBF0" fill-rule="nonzero"></path>
                            <path d="M119.386,34.165 C119.386,34.165 119.289,34.035 119.095,33.776 C118.998,33.647 118.901,33.485 118.772,33.323 C118.643,33.129 118.481,32.967 118.32,32.74 C118.126,32.546 117.964,32.287 117.738,32.06 C117.512,31.834 117.286,31.575 117.027,31.348 C116.768,31.122 116.51,30.863 116.219,30.636 C115.928,30.409 115.637,30.183 115.314,29.956 C114.991,29.762 114.668,29.535 114.345,29.341 C114.022,29.147 113.698,28.985 113.343,28.823 C113.02,28.661 112.697,28.532 112.374,28.402 C112.05,28.273 111.76,28.176 111.469,28.079 C110.887,27.884 110.402,27.787 110.015,27.69 C109.8206,27.658 109.6914,27.625 109.5621,27.625 C109.4652,27.625 109.3359,27.593 109.3359,27.593 C108.1726,27.658 107.2677,28.629 107.3324,29.794 C107.397,30.96 108.3665,31.866 109.5298,31.801 C109.5298,31.801 109.4975,31.801 109.5621,31.769 C109.5944,31.769 109.6914,31.737 109.8206,31.704 C110.047,31.672 110.435,31.607 110.887,31.575 C111.113,31.542 111.372,31.575 111.63,31.575 C111.889,31.607 112.18,31.575 112.471,31.607 C112.761,31.64 113.085,31.672 113.375,31.737 C113.698,31.769 114.022,31.866 114.312,31.931 C114.636,31.996 114.959,32.093 115.25,32.19 C115.573,32.287 115.864,32.416 116.154,32.514 C116.445,32.611 116.736,32.773 116.995,32.902 C117.253,33.032 117.479,33.161 117.738,33.291 C117.964,33.42 118.19,33.517 118.352,33.647 C118.546,33.776 118.675,33.873 118.804,33.97 C119.063,34.132 119.224,34.229 119.224,34.229 C119.257,34.262 119.321,34.229 119.354,34.197 C119.418,34.229 119.418,34.197 119.386,34.165 Z" id="Path" fill="url(#linearGradient-4)" fill-rule="nonzero"></path>
                            <path d="M157.778,118.979 C157.778,118.979 157.94,118.818 158.263,118.526 C158.424,118.364 158.586,118.202 158.812,118.008 C159.006,117.782 159.265,117.523 159.491,117.264 C159.749,117.005 160.008,116.681 160.266,116.357 C160.557,116.034 160.816,115.677 161.107,115.321 C161.397,114.965 161.688,114.577 161.947,114.156 C162.238,113.768 162.496,113.347 162.787,112.926 C163.078,112.505 163.336,112.084 163.595,111.663 C163.853,111.242 164.08,110.822 164.338,110.401 C164.564,109.98 164.79,109.591 164.984,109.203 C165.178,108.815 165.372,108.458 165.534,108.102 C165.857,107.423 166.148,106.84 166.309,106.387 C166.406,106.16 166.471,105.998 166.503,105.869 C166.536,105.772 166.568,105.642 166.568,105.674 C166.891,104.153 165.922,102.631 164.37,102.308 C162.852,101.984 161.333,102.955 161.01,104.509 C161.01,104.509 161.01,104.541 161.01,104.639 C161.01,104.736 161.01,104.898 160.977,105.092 C160.945,105.48 160.913,106.063 160.848,106.743 C160.816,107.099 160.783,107.455 160.719,107.843 C160.686,108.232 160.589,108.653 160.525,109.074 C160.46,109.494 160.363,109.948 160.299,110.401 C160.202,110.854 160.137,111.307 160.008,111.76 C159.911,112.214 159.782,112.667 159.685,113.12 C159.555,113.573 159.458,113.994 159.297,114.415 C159.168,114.836 159.038,115.257 158.877,115.613 C158.747,116.001 158.618,116.357 158.457,116.681 C158.327,117.005 158.198,117.296 158.069,117.587 C157.94,117.846 157.843,118.073 157.746,118.267 C157.552,118.656 157.455,118.882 157.455,118.882 C157.423,118.947 157.455,119.012 157.52,119.044 C157.713,119.012 157.746,119.012 157.778,118.979 Z" id="Path" fill="url(#linearGradient-5)" fill-rule="nonzero"></path>
                            <path d="M159.652,64.336 C160.201,57.829 156.453,53.944 156.453,53.944 L159.652,64.336 Z" id="Path" fill="#85DBF0" fill-rule="nonzero"></path>
                            <path d="M159.781,64.336 C159.781,64.336 159.845,64.174 159.942,63.85 C160.007,63.688 160.072,63.526 160.136,63.3 C160.201,63.105 160.265,62.846 160.33,62.555 C160.395,62.264 160.492,61.972 160.524,61.649 C160.589,61.325 160.653,60.969 160.686,60.613 C160.718,60.257 160.75,59.868 160.783,59.48 C160.783,59.091 160.815,58.67 160.783,58.282 C160.75,57.894 160.75,57.473 160.686,57.084 C160.653,56.663 160.589,56.275 160.492,55.886 C160.427,55.498 160.33,55.142 160.233,54.786 C160.136,54.43 160.039,54.106 159.91,53.782 C159.813,53.459 159.684,53.2 159.587,52.941 C159.49,52.682 159.361,52.455 159.296,52.261 C159.199,52.067 159.134,51.905 159.037,51.808 C159.005,51.743 158.973,51.71 158.941,51.646 C158.908,51.613 158.876,51.581 158.876,51.581 C157.583,50.221 155.418,50.189 154.093,51.484 C152.768,52.779 152.704,54.948 153.996,56.275 C153.996,56.275 153.996,56.275 153.996,56.243 C153.996,56.21 153.996,56.21 154.029,56.243 C154.061,56.243 154.126,56.275 154.222,56.307 C154.319,56.372 154.449,56.437 154.578,56.502 C154.707,56.599 154.869,56.696 155.063,56.825 C155.257,56.955 155.418,57.117 155.612,57.278 C155.806,57.44 156,57.635 156.194,57.861 C156.388,58.055 156.614,58.282 156.808,58.541 C157.002,58.768 157.196,59.027 157.389,59.286 C157.583,59.545 157.745,59.836 157.906,60.095 C158.068,60.386 158.197,60.645 158.359,60.937 C158.52,61.228 158.617,61.487 158.747,61.778 C158.876,62.037 158.941,62.296 159.037,62.555 C159.102,62.814 159.199,63.008 159.264,63.235 C159.328,63.462 159.361,63.623 159.393,63.785 C159.458,64.109 159.522,64.271 159.522,64.271 C159.555,64.336 159.619,64.4 159.684,64.368 C159.748,64.4 159.781,64.368 159.781,64.336 Z" id="Path" fill="url(#linearGradient-6)" fill-rule="nonzero"></path>
                            <path d="M116.123,68.609 C116.123,68.609 115.767,68.317 115.186,67.832 C114.895,67.573 114.539,67.281 114.087,66.958 C113.634,66.634 113.15,66.246 112.6,65.857 C112.051,65.469 111.437,65.048 110.758,64.627 C110.435,64.433 110.08,64.206 109.7243,63.98 C109.3689,63.785 108.9811,63.559 108.5933,63.364 C108.2055,63.138 107.8177,62.976 107.3976,62.749 C106.9775,62.555 106.5897,62.329 106.1696,62.167 C105.7495,61.972 105.2971,61.811 104.877,61.616 C104.4246,61.454 103.9722,61.293 103.5521,61.131 C103.0997,60.969 102.6472,60.839 102.1948,60.678 C101.7424,60.548 101.29,60.386 100.8053,60.289 C100.3529,60.16 99.9004,60.062 99.4157,59.965 C98.9633,59.868 98.5109,59.771 98.0585,59.706 C97.606,59.609 97.1536,59.577 96.7335,59.48 C96.2811,59.415 95.861,59.35 95.4409,59.318 C94.6007,59.221 93.7928,59.156 93.0496,59.124 C92.6941,59.091 92.3063,59.091 91.9832,59.091 C91.66,59.091 91.3369,59.091 91.0137,59.091 C90.3997,59.091 89.8827,59.091 89.4626,59.124 C88.59,59.156 88.1053,59.188 88.1053,59.188 C85.2939,59.318 83.1287,61.681 83.258,64.497 C83.3873,67.314 85.7463,69.483 88.5577,69.353 C89.1394,69.321 89.7211,69.191 90.2381,68.997 L90.2704,68.997 C90.2704,68.997 90.6259,68.835 91.2722,68.576 C91.5954,68.447 91.9832,68.285 92.4356,68.123 C92.6618,68.026 92.888,67.961 93.1465,67.864 C93.405,67.799 93.6636,67.702 93.9544,67.605 C94.5038,67.411 95.1501,67.281 95.7964,67.087 C96.1195,66.99 96.475,66.925 96.8305,66.861 C97.1859,66.796 97.5414,66.699 97.8969,66.666 C98.2847,66.602 98.6401,66.569 99.0279,66.505 C99.4157,66.472 99.8035,66.44 100.1913,66.375 C100.5791,66.343 100.9992,66.31 101.3869,66.31 C101.807,66.31 102.1948,66.246 102.6149,66.278 C103.035,66.278 103.4551,66.278 103.8429,66.278 C104.263,66.31 104.6508,66.343 105.0709,66.343 C105.491,66.343 105.8788,66.407 106.2989,66.472 C106.6867,66.537 107.1068,66.537 107.4946,66.634 C107.8823,66.699 108.2701,66.764 108.6579,66.828 C109.0457,66.893 109.4012,66.99 109.7566,67.055 C110.468,67.184 111.146,67.379 111.793,67.54 C112.439,67.702 112.988,67.897 113.505,68.058 C113.764,68.156 113.99,68.22 114.216,68.285 C114.442,68.382 114.636,68.447 114.83,68.512 C115.573,68.771 115.961,68.932 115.961,68.932 C116.058,68.965 116.187,68.932 116.22,68.803 C116.22,68.738 116.187,68.673 116.123,68.609 Z" id="Path" fill="url(#linearGradient-7)" fill-rule="nonzero"></path>
                            <path d="M120.065,74.727 C120.065,74.727 119.904,74.598 119.645,74.403 C119.516,74.306 119.354,74.177 119.16,74.015 C118.967,73.885 118.74,73.723 118.482,73.562 C118.223,73.4 117.965,73.238 117.674,73.044 C117.383,72.882 117.06,72.72 116.704,72.526 C116.349,72.364 115.994,72.202 115.638,72.04 C115.283,71.878 114.862,71.749 114.475,71.619 C114.087,71.49 113.667,71.36 113.279,71.296 C112.891,71.198 112.471,71.134 112.083,71.037 C111.696,70.972 111.308,70.907 110.952,70.875 C110.597,70.842 110.241,70.81 109.9182,70.81 C109.5951,70.778 109.3042,70.778 109.0457,70.778 C108.7872,70.778 108.561,70.778 108.3671,70.778 C107.9793,70.81 107.7531,70.81 107.7531,70.81 C106.4605,70.875 105.491,71.975 105.5556,73.27 C105.6203,74.565 106.719,75.536 108.0116,75.472 C108.3024,75.472 108.5933,75.374 108.8195,75.277 C108.8195,75.277 108.9811,75.213 109.2396,75.083 C109.3689,75.018 109.5304,74.954 109.7243,74.889 C109.9182,74.824 110.144,74.727 110.371,74.662 C110.597,74.565 110.888,74.5 111.179,74.436 C111.469,74.339 111.76,74.306 112.083,74.241 C112.407,74.177 112.73,74.112 113.085,74.08 C113.441,74.015 113.796,74.015 114.152,73.982 C114.507,73.982 114.862,73.95 115.218,73.982 C115.573,73.982 115.929,74.015 116.284,74.047 C116.64,74.08 116.963,74.112 117.286,74.177 C117.609,74.241 117.9,74.274 118.159,74.339 C118.449,74.403 118.676,74.468 118.902,74.533 C119.128,74.598 119.322,74.662 119.484,74.695 C119.807,74.792 120.001,74.856 120.001,74.856 C120.033,74.856 120.098,74.856 120.13,74.792 C120.13,74.792 120.098,74.759 120.065,74.727 Z" id="Path" fill="url(#linearGradient-8)" fill-rule="nonzero"></path>
                            <path d="M121.972,79.874 C121.972,79.874 121.939,79.809 121.875,79.679 C121.81,79.55 121.713,79.356 121.552,79.161 C121.487,79.064 121.39,78.935 121.293,78.838 C121.196,78.708 121.099,78.611 121.002,78.482 C120.776,78.255 120.517,78.028 120.227,77.802 C119.936,77.608 119.613,77.413 119.322,77.252 C119.16,77.187 118.999,77.122 118.869,77.057 C118.708,76.993 118.579,76.96 118.449,76.928 C118.191,76.863 117.932,76.798 117.771,76.766 C117.609,76.734 117.512,76.734 117.512,76.734 L117.48,76.734 C116.866,76.636 116.284,77.09 116.187,77.705 C116.09,78.32 116.543,78.903 117.157,79 C117.318,79.032 117.512,79 117.641,78.967 C117.641,78.967 117.706,78.935 117.803,78.903 C117.9,78.87 118.062,78.838 118.255,78.805 C118.352,78.773 118.449,78.773 118.579,78.773 C118.708,78.773 118.805,78.773 118.934,78.773 C119.193,78.773 119.483,78.805 119.742,78.87 C120.033,78.935 120.291,79 120.55,79.129 C120.679,79.194 120.808,79.226 120.905,79.291 C121.035,79.356 121.131,79.42 121.228,79.485 C121.422,79.615 121.584,79.712 121.681,79.809 C121.778,79.906 121.842,79.938 121.842,79.938 C121.875,79.938 121.875,79.938 121.907,79.938 C121.972,79.906 121.972,79.906 121.972,79.874 Z" id="Path" fill="#85DBF0" fill-rule="nonzero"></path>
                            <path d="M161.881,64.335 C161.881,64.335 161.945,64.303 162.107,64.271 C162.236,64.238 162.462,64.173 162.689,64.076 C162.818,64.044 162.947,63.979 163.076,63.914 C163.206,63.85 163.335,63.785 163.496,63.688 C163.787,63.526 164.046,63.332 164.337,63.105 C164.595,62.879 164.854,62.62 165.08,62.328 C165.177,62.199 165.274,62.069 165.371,61.94 C165.468,61.81 165.532,61.681 165.597,61.551 C165.726,61.292 165.823,61.098 165.888,60.936 C165.952,60.774 165.985,60.677 165.985,60.677 L165.985,60.645 C166.211,60.062 165.92,59.382 165.338,59.156 C164.757,58.929 164.078,59.221 163.852,59.803 C163.787,59.965 163.755,60.127 163.787,60.289 C163.787,60.289 163.787,60.354 163.787,60.451 C163.787,60.548 163.787,60.71 163.787,60.904 C163.787,61.001 163.755,61.098 163.755,61.228 C163.755,61.357 163.723,61.454 163.69,61.584 C163.626,61.843 163.529,62.102 163.4,62.361 C163.27,62.62 163.141,62.879 162.979,63.105 C162.882,63.202 162.818,63.332 162.721,63.429 C162.624,63.526 162.559,63.623 162.462,63.688 C162.301,63.85 162.172,63.979 162.042,64.076 C161.945,64.173 161.881,64.206 161.881,64.206 C161.848,64.206 161.848,64.238 161.881,64.271 C161.848,64.303 161.881,64.335 161.881,64.335 Z" id="Path" fill="url(#linearGradient-9)" fill-rule="nonzero"></path>
                            <path d="M122.813,35.913 C122.813,35.913 122.845,35.848 122.878,35.686 C122.91,35.557 122.942,35.33 122.975,35.103 C122.975,34.974 123.007,34.844 123.007,34.682 C123.007,34.521 123.007,34.391 123.007,34.229 C122.975,33.906 122.942,33.549 122.845,33.226 C122.748,32.87 122.651,32.546 122.49,32.222 C122.425,32.06 122.361,31.898 122.264,31.769 C122.199,31.639 122.102,31.51 122.037,31.381 C121.876,31.154 121.747,30.96 121.617,30.83 C121.52,30.701 121.456,30.636 121.456,30.636 L121.423,30.604 C121.003,30.118 120.292,30.086 119.808,30.506 C119.323,30.927 119.291,31.639 119.711,32.125 C119.84,32.255 119.969,32.352 120.131,32.416 C120.131,32.416 120.195,32.449 120.292,32.481 C120.389,32.514 120.551,32.611 120.712,32.708 C120.809,32.773 120.874,32.805 120.971,32.902 C121.068,32.967 121.165,33.064 121.262,33.129 C121.456,33.29 121.65,33.517 121.843,33.744 C122.005,33.97 122.167,34.229 122.296,34.456 C122.361,34.585 122.425,34.715 122.457,34.812 C122.522,34.941 122.554,35.039 122.587,35.168 C122.651,35.395 122.716,35.557 122.716,35.718 C122.748,35.848 122.748,35.945 122.748,35.945 C122.748,35.977 122.781,35.977 122.813,35.977 C122.813,35.945 122.813,35.945 122.813,35.913 Z" id="Path" fill="url(#linearGradient-10)" fill-rule="nonzero"></path>
                            <path d="M118.062,29.891 C118.062,29.891 118.062,29.73 117.997,29.535 C117.965,29.309 117.868,29.017 117.706,28.758 C117.641,28.629 117.544,28.467 117.448,28.37 C117.351,28.24 117.254,28.143 117.157,28.046 C117.06,27.949 116.995,27.884 116.93,27.852 C116.866,27.82 116.834,27.787 116.834,27.787 C116.607,27.625 116.316,27.658 116.123,27.852 C115.961,28.079 115.993,28.37 116.187,28.564 C116.252,28.597 116.316,28.629 116.349,28.661 C116.349,28.661 116.381,28.661 116.413,28.694 C116.478,28.694 116.543,28.726 116.607,28.758 C116.704,28.791 116.801,28.823 116.898,28.888 C116.995,28.953 117.124,29.017 117.221,29.114 C117.415,29.276 117.609,29.503 117.738,29.665 C117.868,29.827 117.932,29.956 117.932,29.956 C118.029,29.891 118.029,29.924 118.062,29.891 C118.029,29.891 118.062,29.891 118.062,29.891 Z" id="Path" fill="#7DDBE9" fill-rule="nonzero"></path>
                            <path d="M47.0645,118.203 C47.0645,118.203 47.1615,118.17 47.2907,118.105 C47.4523,118.041 47.7432,117.976 48.0986,117.911 C48.7773,117.814 49.8114,117.782 51.0717,117.879 C52.332,117.976 53.8508,118.203 55.5958,118.494 C57.3085,118.785 59.2151,119.141 61.3156,119.53 C62.3497,119.692 63.4161,119.886 64.5149,120.015 C64.7734,120.048 65.0642,120.08 65.3228,120.112 C65.6136,120.145 65.9044,120.177 66.1953,120.21 C66.7769,120.274 67.3263,120.307 67.9403,120.339 C70.2993,120.501 72.7553,120.566 75.179,120.436 C77.6349,120.274 80.0263,119.886 82.353,119.206 L82.4822,119.174 L82.5792,119.141 L82.7731,119.077 L83.1609,118.947 C83.4517,118.85 83.7102,118.753 83.9687,118.656 C84.5181,118.429 85.0352,118.203 85.5522,117.944 C86.5863,117.426 87.5234,116.843 88.396,116.195 C90.141,114.901 91.4659,113.379 92.2738,111.793 C92.6616,111.048 92.9201,110.304 93.0494,109.527 C93.2109,108.75 93.2433,108.005 93.2109,107.293 C93.1786,106.581 93.0171,105.933 92.8232,105.383 C92.6293,104.833 92.3707,104.412 92.0799,104.088 C91.6275,103.57 91.1751,103.344 91.1751,103.344 L90.1733,104.218 C85.6491,108.329 78.669,107.973 74.5973,103.441 C70.4932,98.909 71.3011,91.593 75.3728,87.837 C79.4446,84.082 85.1967,82.626 90.8196,83.435 C95.7962,84.147 98.0583,85.604 101.0959,87.967 C101.8715,88.55 102.5824,89.229 103.2934,89.942 C103.6488,90.298 104.0043,90.686 104.3274,91.107 C104.586,91.431 105.1676,92.175 105.4262,92.531 L105.6524,92.92 L105.6847,92.952 C105.6524,92.92 105.9755,93.373 105.8463,93.179 L105.8786,93.211 L105.9755,93.373 L106.1694,93.697 C106.4279,94.15 106.6542,94.603 106.8804,95.056 C107.3328,95.963 107.6883,96.934 107.9791,97.905 C108.5931,99.848 108.8839,101.887 108.9162,103.862 C108.9486,105.869 108.69,107.811 108.2376,109.721 C107.7529,111.631 107.0743,113.444 106.1371,115.192 C105.2,116.94 104.0366,118.559 102.6794,119.983 C100.0618,122.799 96.8626,124.806 93.5987,126.134 C91.983,126.781 90.3349,127.299 88.6868,127.655 C87.8789,127.817 87.0387,127.979 86.2308,128.076 C85.8107,128.141 85.4229,128.141 85.0028,128.173 L84.3888,128.206 L84.0657,128.238 L83.9041,128.303 L83.7749,128.335 L83.5163,128.367 L83.3871,128.367 L83.3547,128.367 L83.2578,128.367 L83.1932,128.367 L82.6115,128.367 C82.2237,128.367 81.8359,128.367 81.4158,128.367 C80.6403,128.367 79.8647,128.335 79.0891,128.27 C77.5703,128.141 76.1161,127.947 74.6942,127.688 C71.8828,127.17 69.2652,126.457 66.8739,125.68 C66.2922,125.486 65.6782,125.292 65.0965,125.098 C64.8057,125.001 64.5472,124.904 64.2563,124.806 C63.9332,124.709 63.6747,124.612 63.3838,124.483 C62.2528,124.062 61.2187,123.609 60.2169,123.188 C58.278,122.314 56.5006,121.537 54.9172,120.857 C53.3337,120.177 51.9765,119.627 50.8131,119.238 C49.6821,118.85 48.7449,118.656 48.131,118.623 C47.8078,118.591 47.6139,118.591 47.42,118.623 C47.2584,118.656 47.1615,118.656 47.1615,118.656 C47.0322,118.688 46.9353,118.591 46.903,118.462 C46.903,118.332 46.9676,118.235 47.0645,118.203 Z" id="Path" fill="url(#linearGradient-11)" fill-rule="nonzero"></path>
                            <path d="M74.5012,103.408 C78.2821,107.584 84.4867,108.199 88.9785,105.059 C86.4902,105.674 83.8404,105.545 81.4813,104.541 C75.406,101.951 73.0147,95.056 75.2768,89.067 C75.5676,88.258 75.9877,87.481 76.4725,86.801 C76.0524,87.125 75.6646,87.449 75.2768,87.805 C71.1727,91.592 70.3972,98.908 74.5012,103.408 Z" id="Path" fill="#27C3DA" fill-rule="nonzero" opacity="0.4"></path>
                            <path d="M108.1097,109.721 C108.5621,107.811 108.8206,105.869 108.7883,103.862 C108.756,101.887 108.4651,99.848 107.8512,97.906 C107.5603,96.934 107.1725,95.963 106.7524,95.057 C106.5262,94.604 106.3,94.15 106.0415,93.697 L105.8476,93.373 L105.7507,93.212 L105.7183,93.179 C105.8476,93.341 105.5244,92.888 105.5568,92.953 L105.5244,92.92 L105.2982,92.532 C105.072,92.176 104.4904,91.431 104.1995,91.107 C103.8764,90.687 103.5209,90.33 103.1654,89.942 C102.4545,89.23 101.7112,88.55 100.968,87.967 C98.7705,86.284 96.9932,85.054 94.311,84.212 C97.7041,85.539 100.871,87.967 102.8746,90.687 C104.4257,92.629 105.4275,94.83 105.8476,97.258 C106.6555,99.589 106.8494,102.017 106.4293,104.509 C106.2354,108.75 104.3611,115.16 96.7347,121.343 C95.1512,122.605 93.1476,123.512 91.2087,124.224 C84.7456,126.62 81.2556,128.4 59.2165,122.832 C59.5073,122.962 59.7981,123.091 60.1213,123.221 C61.1231,123.641 62.1572,124.095 63.2882,124.515 C63.579,124.613 63.8376,124.71 64.1607,124.839 C64.4516,124.936 64.7101,125.033 65.0009,125.131 C65.5826,125.325 66.1643,125.519 66.7783,125.713 C69.1696,126.49 71.7872,127.202 74.5986,127.72 C76.0205,127.979 77.4747,128.173 78.9935,128.303 C79.7367,128.368 80.5123,128.4 81.3202,128.4 C81.708,128.4 82.0958,128.4 82.5159,128.4 L83.0976,128.4 L83.1622,128.4 C83.1299,128.4 83.2591,128.4 83.2591,128.4 L83.2914,128.4 L83.4207,128.4 L83.6792,128.4 L83.8085,128.4 L83.9701,128.4 L84.2932,128.368 L84.9072,128.303 C85.3273,128.271 85.7151,128.206 86.1352,128.173 C86.9431,128.076 87.7833,127.915 88.5912,127.753 C90.2393,127.397 91.8873,126.911 93.5031,126.231 C96.7347,124.904 99.9339,122.897 102.5837,120.08 C103.9087,118.656 105.1043,117.005 106.0415,115.289 C106.9463,113.444 107.6249,111.631 108.1097,109.721 Z" id="Path" fill="#27C3DA" fill-rule="nonzero" opacity="0.4"></path>
                            <g id="Group" opacity="0.6" stroke-width="1" fill="none" fill-rule="evenodd" transform="translate(76.000000, 86.000000)">
                                <path d="M3.7034,9.769 C3.7034,9.769 3.6388,9.64 3.5095,9.445 C3.4772,9.381 3.4772,9.348 3.4772,9.348 C3.4772,9.316 3.4449,9.283 3.4449,9.251 C3.4126,9.219 3.4126,9.154 3.4126,9.089 C3.3803,9.024 3.3803,8.96 3.3803,8.895 C3.3156,8.604 3.3156,8.248 3.4126,7.762 C3.5095,7.309 3.7357,6.758 4.0912,6.176 C4.2528,5.884 4.479,5.625 4.7052,5.334 C4.8345,5.205 4.9637,5.075 5.093,4.946 L5.1576,4.881 C5.1576,4.881 5.093,4.913 5.1253,4.913 L5.1576,4.881 L5.2869,4.784 C5.3838,4.719 5.4484,4.654 5.5454,4.557 C5.6423,4.492 5.707,4.395 5.8039,4.331 L6.0301,4.169 C6.1917,4.039 6.3533,3.942 6.5472,3.813 C6.9026,3.586 7.2904,3.359 7.7105,3.165 C9.3263,2.356 11.2975,1.935 13.3011,2 C14.3029,2.032 15.3047,2.162 16.2418,2.388 L16.5973,2.485 C16.6296,2.485 16.6619,2.518 16.6619,2.518 L16.7588,2.55 L16.9527,2.615 C17.179,2.712 17.4375,2.777 17.6637,2.874 C18.1161,3.036 18.5362,3.23 18.9886,3.456 C19.8611,3.877 20.6367,4.395 21.3476,4.913 C22.0586,5.431 22.7049,6.014 23.2219,6.564 C23.5128,6.823 23.739,7.115 23.9975,7.373 C24.2237,7.665 24.4499,7.891 24.6438,8.15 C25.0316,8.636 25.3548,9.122 25.581,9.51 C25.7102,9.704 25.8072,9.866 25.9041,10.028 C26.0011,10.19 26.0657,10.319 26.1303,10.416 C26.2596,10.643 26.3242,10.74 26.3242,10.74 C26.3242,10.74 26.2596,10.611 26.1626,10.384 C26.098,10.287 26.0334,10.125 25.9687,9.963 C25.8718,9.801 25.8072,9.607 25.6779,9.413 C25.4517,8.992 25.1932,8.507 24.8377,7.989 C24.6761,7.73 24.4499,7.438 24.256,7.147 C24.0298,6.856 23.8036,6.532 23.5451,6.24 C23.028,5.625 22.4464,5.01 21.7677,4.395 C21.0891,3.78 20.3135,3.165 19.441,2.647 C19.0209,2.388 18.5685,2.129 18.0838,1.903 C17.8253,1.773 17.599,1.676 17.3728,1.579 L17.2113,1.514 L17.1143,1.482 L17.0174,1.449 L16.6296,1.32 C15.6278,0.964 14.5291,0.705 13.4304,0.608 C11.2329,0.381 8.9708,0.64 6.9673,1.417 C6.4825,1.611 5.9978,1.805 5.5454,2.064 C5.3192,2.162 5.093,2.323 4.8668,2.453 C4.7698,2.518 4.6406,2.582 4.5436,2.647 C4.4144,2.712 4.3497,2.777 4.2528,2.841 C4.1558,2.906 4.0589,2.971 3.9943,3.036 L3.865,3.133 L3.8327,3.165 L3.768,3.23 L3.7034,3.295 C3.5095,3.456 3.3156,3.618 3.154,3.78 C2.7986,4.104 2.4754,4.46 2.2169,4.848 C1.6675,5.593 1.2474,6.338 1.0212,7.115 C0.7627,7.891 0.6981,8.636 0.7627,9.251 C0.7627,9.413 0.795,9.575 0.8273,9.704 C0.8597,9.866 0.8597,9.963 0.9243,10.125 C0.9566,10.255 1.0212,10.384 1.0535,10.514 C1.0859,10.643 1.1505,10.74 1.1505,10.773 C1.2474,10.999 1.3121,11.129 1.3121,11.129 C1.6352,11.873 2.5077,12.197 3.2187,11.873 C3.9619,11.549 4.2851,10.675 3.9619,9.963 C3.7357,9.834 3.7034,9.801 3.7034,9.769 Z" id="Path" fill="#E7F8FC" fill-rule="nonzero"></path>
                            </g>
                            <g id="Group" opacity="0.6" stroke-width="1" fill="none" fill-rule="evenodd" transform="translate(84.000000, 60.000000)">
                                <path d="M3.5881,5.145 C3.5881,5.145 3.5557,5.112 3.5234,5.048 C3.5234,5.015 3.4911,5.015 3.4911,4.983 L3.4588,4.951 C3.4588,4.951 3.4265,4.951 3.4265,4.918 C3.3618,4.789 3.2649,4.562 3.2649,4.238 C3.2649,3.915 3.3619,3.461 3.6204,3.041 L3.685,2.976 L3.685,2.943 C3.685,2.943 3.7173,2.911 3.6527,2.976 L3.685,2.911 L3.8466,2.749 C3.9112,2.684 4.0082,2.555 4.1374,2.458 C4.3636,2.264 4.5898,2.102 4.8807,1.972 C5.1715,1.843 5.4624,1.713 5.7855,1.616 C6.1087,1.519 6.3995,1.454 6.7226,1.422 C7.3366,1.357 7.983,1.357 8.5,1.39 C9.0494,1.422 9.4695,1.454 9.7926,1.487 C10.1158,1.519 10.2773,1.551 10.2773,1.551 C10.2773,1.551 10.1158,1.487 9.8249,1.39 C9.5341,1.292 9.114,1.131 8.5646,0.969 C8.0476,0.807 7.4013,0.645 6.6903,0.548 C6.3349,0.516 5.9471,0.483 5.5593,0.483 C5.1715,0.483 4.7837,0.548 4.3636,0.613 C3.9758,0.71 3.5557,0.839 3.168,1.033 C2.9741,1.131 2.8125,1.228 2.5863,1.357 C2.5216,1.422 2.4247,1.454 2.3601,1.519 L2.2954,1.551 L2.1985,1.616 L2.0692,1.713 C1.4229,2.296 1.0028,3.041 0.7766,3.785 C0.5504,4.497 0.5827,5.209 0.6797,5.695 C0.712,5.825 0.7443,5.954 0.7766,6.084 C0.8089,6.148 0.8089,6.213 0.8412,6.278 C0.8736,6.375 0.8736,6.407 0.8736,6.407 C1.0998,7.184 1.9077,7.637 2.6832,7.378 C3.4588,7.152 3.9112,6.343 3.6527,5.566 C3.685,5.371 3.6527,5.242 3.5881,5.145 Z" id="Path" fill="#E7F8FC" fill-rule="nonzero"></path>
                            </g>
                            <g id="Group" opacity="0.6" stroke-width="1" fill="none" fill-rule="evenodd" transform="translate(104.000000, 40.000000)">
                                <path d="M2.558,3.682 C2.558,3.682 2.7519,3.65 3.1073,3.585 C3.3012,3.552 3.5274,3.52 3.7859,3.455 C3.9152,3.423 4.0768,3.423 4.206,3.391 C4.3676,3.358 4.4969,3.358 4.6585,3.326 C4.9816,3.293 5.3371,3.229 5.7572,3.164 C6.177,3.132 6.597,3.067 7.082,3.034 C7.535,3.002 8.052,2.97 8.569,2.937 C9.086,2.937 9.635,2.905 10.217,2.905 C11.38,2.905 12.608,3.002 13.933,3.164 C15.258,3.326 16.647,3.585 18.069,3.941 C19.491,4.297 20.945,4.718 22.432,5.203 C23.175,5.462 23.918,5.689 24.662,5.98 C25.017,6.11 25.405,6.239 25.76,6.401 L26.859,6.854 C28.313,7.469 29.735,8.117 31.092,8.861 C31.448,9.023 31.771,9.218 32.127,9.412 C32.45,9.606 32.805,9.8 33.128,9.994 C33.775,10.383 34.421,10.771 35.035,11.192 C36.295,12.002 37.426,12.876 38.525,13.685 C39.042,14.106 39.559,14.527 40.044,14.947 C40.529,15.368 41.013,15.757 41.433,16.178 C42.306,16.987 43.081,17.764 43.76,18.476 C44.083,18.832 44.406,19.156 44.697,19.479 C44.988,19.803 45.214,20.095 45.441,20.354 C45.893,20.871 46.248,21.325 46.475,21.616 C46.701,21.907 46.83,22.069 46.83,22.069 C46.83,22.069 46.701,21.907 46.507,21.616 C46.281,21.325 45.99,20.871 45.537,20.321 C45.311,20.03 45.085,19.738 44.827,19.415 C44.568,19.091 44.277,18.735 43.954,18.379 C43.308,17.634 42.597,16.825 41.757,15.951 C41.336,15.498 40.884,15.077 40.432,14.624 C39.979,14.17 39.462,13.717 38.945,13.264 C37.911,12.358 36.78,11.419 35.552,10.545 C34.938,10.092 34.324,9.671 33.678,9.218 C33.355,8.991 33.031,8.797 32.676,8.57 C32.353,8.343 31.997,8.149 31.674,7.955 C30.317,7.113 28.895,6.369 27.409,5.657 L26.31,5.171 C25.922,4.977 25.567,4.847 25.211,4.685 C24.468,4.362 23.725,4.07 23.014,3.747 C21.527,3.164 20.073,2.614 18.586,2.16 C17.132,1.707 15.678,1.351 14.288,1.092 C12.899,0.833 11.574,0.671 10.314,0.574 C9.7,0.509 9.086,0.509 8.536,0.477 C7.987,0.477 7.438,0.477 6.921,0.477 C6.403,0.509 5.9511,0.509 5.4987,0.542 C5.0462,0.574 4.6585,0.607 4.303,0.639 C4.1091,0.639 3.9475,0.671 3.7859,0.671 C3.6244,0.704 3.4951,0.704 3.3335,0.704 C3.075,0.736 2.8488,0.768 2.6549,0.768 C2.2671,0.801 2.0732,0.833 2.0732,0.833 C1.2653,0.93 0.716,1.642 0.7806,2.452 C0.8776,3.261 1.5885,3.811 2.3964,3.747 C2.4933,3.682 2.5256,3.682 2.558,3.682 Z" id="Path" fill="#E7F8FC" fill-rule="nonzero"></path>
                            </g>
                        </g>
                    </g>
                </g>
            </g>
        </g>
    </g>
</svg>