<?xml version="1.0" encoding="UTF-8"?>
<svg width="351px" height="174px" viewBox="0 0 351 174" version="1.1" xmlns="http://www.w3.org/2000/svg" xmlns:xlink="http://www.w3.org/1999/xlink">
    <title>Group</title>
    <defs>
        <rect id="path-1" x="0" y="0" width="171" height="174" rx="10"></rect>
        <linearGradient x1="63.0806%" y1="89.6000072%" x2="34.5692199%" y2="14.2155721%" id="linearGradient-3">
            <stop stop-color="#27C3DA" offset="0%"></stop>
            <stop stop-color="#85DBF0" offset="45.33%"></stop>
            <stop stop-color="#C4EEF8" offset="100%"></stop>
        </linearGradient>
        <linearGradient x1="116.856634%" y1="50.8637918%" x2="0.241727443%" y2="50.8637918%" id="linearGradient-4">
            <stop stop-color="#27C3DA" offset="0%"></stop>
            <stop stop-color="#85DBF0" offset="45.33%"></stop>
            <stop stop-color="#C4EEF8" offset="100%"></stop>
        </linearGradient>
        <linearGradient x1="100.826922%" y1="49.774584%" x2="-27.9776703%" y2="49.774584%" id="linearGradient-5">
            <stop stop-color="#27C3DA" offset="0%"></stop>
            <stop stop-color="#85DBF0" offset="45.33%"></stop>
            <stop stop-color="#C4EEF8" offset="100%"></stop>
        </linearGradient>
        <linearGradient x1="129.824425%" y1="50.2038928%" x2="0.13321076%" y2="50.2038928%" id="linearGradient-6">
            <stop stop-color="#27C3DA" offset="0%"></stop>
            <stop stop-color="#85DBF0" offset="45.33%"></stop>
            <stop stop-color="#C4EEF8" offset="100%"></stop>
        </linearGradient>
        <linearGradient x1="114.587103%" y1="50.0119251%" x2="2.71321273%" y2="50.0119251%" id="linearGradient-7">
            <stop stop-color="#27C3DA" offset="0%"></stop>
            <stop stop-color="#85DBF0" offset="45.33%"></stop>
            <stop stop-color="#C4EEF8" offset="100%"></stop>
        </linearGradient>
        <linearGradient x1="115.057881%" y1="50.6494642%" x2="3.14249431%" y2="50.6494642%" id="linearGradient-8">
            <stop stop-color="#27C3DA" offset="0%"></stop>
            <stop stop-color="#85DBF0" offset="45.33%"></stop>
            <stop stop-color="#C4EEF8" offset="100%"></stop>
        </linearGradient>
        <linearGradient x1="98.2964282%" y1="49.8292555%" x2="-26.0915043%" y2="49.8292555%" id="linearGradient-9">
            <stop stop-color="#27C3DA" offset="0%"></stop>
            <stop stop-color="#85DBF0" offset="45.33%"></stop>
            <stop stop-color="#C4EEF8" offset="100%"></stop>
        </linearGradient>
        <linearGradient x1="125.026109%" y1="49.890891%" x2="6.41684308%" y2="49.890891%" id="linearGradient-10">
            <stop stop-color="#27C3DA" offset="0%"></stop>
            <stop stop-color="#85DBF0" offset="45.33%"></stop>
            <stop stop-color="#C4EEF8" offset="100%"></stop>
        </linearGradient>
        <linearGradient x1="67.0545671%" y1="77.1887385%" x2="34.7938788%" y2="32.3837616%" id="linearGradient-11">
            <stop stop-color="#27C3DA" offset="0%"></stop>
            <stop stop-color="#85DBF0" offset="45.33%"></stop>
            <stop stop-color="#C4EEF8" offset="100%"></stop>
        </linearGradient>
    </defs>
    <g id="Page-1" stroke="none" stroke-width="1" fill="none" fill-rule="evenodd">
        <g id="Artboard" transform="translate(-397.000000, -498.000000)">
            <g id="Group" transform="translate(397.000000, 498.000000)">
                <rect id="Rectangle" fill="#65A4C5" fill-rule="nonzero" x="0" y="0" width="351" height="174" rx="10"></rect>
                <g id="Clipped" transform="translate(180.000000, 0.000000)">
                    <mask id="mask-2" fill="white">
                        <use xlink:href="#path-1"></use>
                    </mask>
                    <g id="Rectangle"></g>
                    <g id="Group" mask="url(#mask-2)">
                        <g transform="translate(0.000000, 63.000000)">
                            <g id="Group" opacity="0.5" style="mix-blend-mode: multiply;" stroke-width="1" fill="none" fill-rule="evenodd">
                                <path d="M110.485,220.97 C171.504,220.97 220.97,171.504 220.97,110.485 C220.97,49.466 171.504,0 110.485,0 C49.466,0 0,49.466 0,110.485 C0,171.504 49.466,220.97 110.485,220.97 Z" id="Path" fill="#2B5250" fill-rule="nonzero" opacity="0.202381"></path>
                                <path d="M110.645,202.742 C161.509,202.742 202.743,161.509 202.743,110.645 C202.743,59.781 161.509,18.5474 110.645,18.5474 C59.781,18.5474 18.547,59.781 18.547,110.645 C18.547,161.509 59.781,202.742 110.645,202.742 Z" id="Path" fill="#2B5250" fill-rule="nonzero" opacity="0.202381"></path>
                                <path d="M110.485,182.596 C150.311,182.596 182.596,150.311 182.596,110.485 C182.596,70.659 150.311,38.374 110.485,38.374 C70.659,38.374 38.374,70.659 38.374,110.485 C38.374,150.311 70.659,182.596 110.485,182.596 Z" id="Path" fill="#2B5250" fill-rule="nonzero" opacity="0.1"></path>
                            </g>
                            <path d="M157.713,105.804 C174.194,58.088 130.633,37.078 112.019,37.855 C101,38.308 92.242,42.225 86.49,47.469 C85.101,48.732 86.038,51.03 87.912,50.998 C94.052,50.836 100.321,52.131 106.235,55.012 C111.147,57.408 115.348,60.677 118.741,64.562 C119.193,65.048 119.646,65.566 120.034,66.116 C129.211,77.737 131.506,94.053 124.622,108.297 C117.222,123.544 104.845,131.054 85.133,132.187 C59.184,133.676 40.6981498,119.368 40.6981498,119.368 C40.6981498,119.368 40.021,139.342 76.957,146.722 C104.328,152.161 143.947,145.719 157.713,105.804 Z" id="Path" fill="url(#linearGradient-3)" fill-rule="nonzero"></path>
                            <g id="Group" opacity="0.4" stroke-width="1" fill="none" fill-rule="evenodd" transform="translate(47.000000, 50.000000)">
                                <path d="M85.151,32.205 C75.488,-2.562 40.911,0.966 40.911,0.966 C47.051,0.804 53.32,2.099 59.234,4.98 C64.146,7.376 68.347,10.645 71.74,14.53 C72.192,15.016 72.645,15.534 73.032,16.084 C82.21,27.706 84.504,44.021 77.621,58.265 C70.221,73.512 52.124,84.227 36.225,82.9 C33.64,83.127 32.089,83.386 29.213,83.321 C16.093,83.127 7.044,81.929 0.808,80.31 C2.036,82.706 3.199,85.134 4.265,87.562 C22.75,83.062 45.08,88.177 57.65,84.454 C77.847,78.53 91.388,54.672 85.151,32.205 Z" id="Path" fill="#27C3DA" fill-rule="nonzero"></path>
                            </g>
                            <path d="M157.842,105.804 C165.792,80.554 157.939,62.879 145.982,51.872 C158.779,67.055 163.271,89.618 153.189,110.401 C139.81,137.982 101.872,153.909 74.339,140.507 C72.012,139.374 65.42,137.237 63.352,135.845 C31.36,134.583 34.365,123.35 34.882,119.821 C34.882,119.821 45.546,141.964 77.345,148.535 C94.116,152.031 143.074,152.646 157.842,105.804 Z" id="Path" fill="#27C3DA" fill-rule="nonzero" opacity="0.6"></path>
                            <g id="Group" opacity="0.4" stroke-width="1" fill="none" fill-rule="evenodd" transform="translate(120.000000, 49.000000)">
                                <path d="M4.751,91.054 C4.751,91.054 5.138,90.859 5.817,90.536 C5.882,90.503 6.011,90.439 6.14,90.374 C6.269,90.309 6.399,90.244 6.528,90.18 C6.787,90.05 7.077,89.888 7.401,89.726 C7.95,89.37 8.628,89.014 9.339,88.529 C10.761,87.59 12.377,86.36 14.057,84.806 C15.738,83.252 17.483,81.342 19.131,79.108 C19.939,78.008 20.747,76.81 21.49,75.547 C21.587,75.386 21.684,75.224 21.781,75.062 L21.813,74.997 C21.813,74.997 21.878,74.868 21.845,74.932 L21.845,74.9 L21.91,74.803 L22.039,74.576 C22.201,74.285 22.363,73.961 22.556,73.637 C22.75,73.281 22.912,72.925 23.106,72.602 C23.267,72.245 23.429,71.922 23.623,71.566 C24.948,68.782 26.079,65.771 27.016,62.631 C27.468,61.077 27.888,59.458 28.244,57.84 C28.438,57.031 28.599,56.221 28.761,55.38 C28.826,54.959 28.923,54.57 28.987,54.149 L29.02,53.955 L29.052,53.793 L29.116,53.502 L29.213,52.887 L29.31,52.272 L29.407,51.624 C29.472,51.171 29.537,50.75 29.569,50.297 C29.634,49.423 29.73,48.549 29.795,47.675 C29.86,46.801 29.86,45.927 29.892,45.053 C29.892,44.179 29.86,43.305 29.827,42.431 C29.634,38.935 29.02,35.503 28.179,32.234 C27.759,30.615 27.274,29.029 26.757,27.475 C26.628,27.086 26.499,26.698 26.37,26.309 C26.24,25.921 26.111,25.565 25.982,25.176 C25.82,24.788 25.691,24.399 25.562,24.011 C25.4,23.623 25.239,23.266 25.109,22.878 C23.849,19.932 22.33,17.213 20.65,14.85 C19.81,13.652 18.937,12.551 18.032,11.515 C17.127,10.479 16.223,9.541 15.318,8.667 C13.476,6.919 11.634,5.494 9.921,4.393 C8.208,3.293 6.593,2.484 5.268,1.933 C3.91,1.383 2.812,1.059 2.068,0.865 C1.681,0.768 1.39,0.703 1.196,0.671 C1.002,0.638 0.905,0.606 0.905,0.606 C0.905,0.606 1.002,0.638 1.196,0.703 C1.39,0.768 1.681,0.833 2.036,0.962 C2.779,1.189 3.846,1.609 5.106,2.257 C6.399,2.904 7.885,3.811 9.469,5.041 C11.052,6.239 12.733,7.76 14.381,9.605 C15.189,10.512 15.996,11.515 16.772,12.551 C17.548,13.62 18.291,14.753 19.002,15.95 C20.424,18.346 21.652,21.033 22.621,23.882 C22.75,24.238 22.847,24.594 22.977,24.95 C23.073,25.306 23.17,25.662 23.3,26.018 C23.397,26.374 23.494,26.795 23.591,27.151 L23.655,27.442 L23.687,27.507 L23.687,27.54 C23.687,27.572 23.687,27.507 23.687,27.54 L23.72,27.669 L23.849,28.252 C24.172,29.806 24.463,31.359 24.689,32.946 C25.142,36.086 25.336,39.291 25.142,42.431 C25.109,43.208 25.012,43.985 24.948,44.762 C24.851,45.538 24.754,46.315 24.625,47.092 C24.495,47.869 24.334,48.614 24.172,49.391 C24.075,49.747 23.978,50.135 23.914,50.491 L23.784,51.042 L23.623,51.624 C22.783,54.667 21.781,57.613 20.65,60.365 C19.519,63.117 18.258,65.642 16.869,67.875 C16.707,68.167 16.513,68.426 16.352,68.685 C16.19,68.944 16.029,69.202 15.835,69.429 C15.77,69.559 15.641,69.688 15.544,69.85 C15.447,69.979 15.35,70.141 15.253,70.271 L15.092,70.465 L15.027,70.562 L14.995,70.594 C14.962,70.659 15.027,70.562 14.995,70.562 L14.962,70.594 L14.704,70.951 C13.993,71.922 13.25,72.828 12.474,73.637 C10.988,75.288 9.469,76.616 8.079,77.652 C6.69,78.688 5.397,79.464 4.331,80.015 C3.781,80.306 3.296,80.5 2.876,80.727 C2.489,80.889 2.133,81.018 1.875,81.115 C1.131,81.374 0.744,81.536 0.744,81.536 L4.751,91.054 Z" id="Path" fill="#27C3DA" fill-rule="nonzero"></path>
                            </g>
                            <g id="Group" opacity="0.4" stroke-width="1" fill="none" fill-rule="evenodd" transform="translate(138.000000, 73.000000)">
                                <path d="M4.298,54.688 C4.298,54.688 4.395,54.493 4.621,54.137 C4.815,53.781 5.138,53.263 5.494,52.583 C5.688,52.227 5.882,51.871 6.14,51.45 C6.366,51.03 6.592,50.576 6.851,50.091 C7.368,49.12 7.917,48.019 8.499,46.821 C9.081,45.623 9.695,44.296 10.309,42.904 C10.923,41.48 11.537,39.991 12.118,38.437 C12.409,37.66 12.7,36.851 12.991,36.041 C13.249,35.232 13.54,34.39 13.799,33.549 C14.348,31.865 14.801,30.15 15.221,28.402 C15.641,26.653 15.964,24.905 16.222,23.19 C16.481,21.441 16.643,19.726 16.739,18.075 C16.836,16.391 16.804,14.805 16.707,13.251 C16.578,11.73 16.449,10.305 16.19,8.978 C15.964,7.683 15.641,6.486 15.35,5.45 C15.221,4.932 15.027,4.446 14.865,4.025 C14.736,3.572 14.542,3.184 14.413,2.828 C14.122,2.115 13.863,1.565 13.702,1.209 C13.54,0.853 13.443,0.626 13.443,0.626 C13.443,0.626 13.508,0.82 13.67,1.209 C13.799,1.597 14.025,2.148 14.251,2.892 C14.38,3.248 14.51,3.669 14.607,4.122 C14.704,4.576 14.865,5.061 14.962,5.579 C15.188,6.615 15.382,7.813 15.512,9.108 C15.673,10.403 15.673,11.827 15.673,13.316 C15.641,14.805 15.512,16.359 15.318,17.978 C15.091,19.596 14.801,21.247 14.413,22.898 C14.025,24.549 13.573,26.233 13.023,27.851 C12.538,29.47 11.957,31.088 11.311,32.642 C10.987,33.419 10.664,34.196 10.341,34.973 C9.986,35.718 9.662,36.495 9.307,37.207 C8.628,38.663 7.885,40.055 7.206,41.35 C6.496,42.645 5.817,43.875 5.138,44.976 C4.492,46.077 3.846,47.113 3.296,47.987 C3.005,48.44 2.747,48.828 2.488,49.217 C2.23,49.605 2.004,49.929 1.81,50.253 C1.39,50.868 1.034,51.386 0.808,51.709 C0.582,52.033 0.453,52.227 0.453,52.227 L4.298,54.688 Z" id="Path" fill="#27C3DA" fill-rule="nonzero"></path>
                            </g>
                            <g id="Group" opacity="0.4" stroke-width="1" fill="none" fill-rule="evenodd" transform="translate(120.000000, 79.000000)">
                                <path d="M4.138,57.655 C4.138,57.655 4.267,57.46 4.558,57.104 C4.687,56.942 4.849,56.716 5.042,56.457 C5.236,56.198 5.463,55.907 5.721,55.583 C6.238,54.903 6.852,54.061 7.531,53.09 C7.886,52.605 8.209,52.087 8.597,51.536 C8.791,51.277 8.953,50.986 9.147,50.695 C9.34,50.403 9.534,50.112 9.728,49.788 C9.922,49.497 10.116,49.173 10.31,48.849 C10.504,48.526 10.698,48.202 10.892,47.878 C11.312,47.231 11.699,46.519 12.087,45.806 C12.507,45.094 12.895,44.317 13.315,43.573 C13.703,42.796 14.123,42.019 14.511,41.177 C15.286,39.559 16.03,37.843 16.708,36.062 C17.387,34.282 18.001,32.469 18.518,30.624 C19.035,28.779 19.455,26.901 19.778,25.024 C20.069,23.146 20.295,21.301 20.36,19.52 C20.425,17.707 20.392,15.992 20.263,14.341 C20.101,12.69 19.908,11.168 19.584,9.776 C19.52,9.42 19.455,9.096 19.358,8.74 C19.261,8.417 19.197,8.093 19.1,7.769 C18.938,7.154 18.712,6.571 18.55,6.021 C18.453,5.73 18.356,5.471 18.259,5.244 C18.163,4.985 18.066,4.759 17.969,4.532 C17.807,4.046 17.613,3.658 17.419,3.27 C17.096,2.525 16.773,1.942 16.579,1.554 C16.385,1.165 16.256,0.939 16.256,0.939 C16.256,0.939 16.353,1.165 16.514,1.554 C16.676,1.975 16.967,2.557 17.225,3.334 C17.355,3.723 17.516,4.144 17.678,4.629 C17.742,4.856 17.839,5.115 17.904,5.374 C18.001,5.633 18.066,5.892 18.13,6.183 C18.259,6.733 18.421,7.316 18.55,7.963 C18.615,8.287 18.68,8.611 18.744,8.935 C18.809,9.258 18.841,9.614 18.906,9.938 C19.1,11.33 19.197,12.852 19.229,14.438 C19.229,16.024 19.132,17.707 18.938,19.456 C18.712,21.171 18.389,22.952 17.969,24.7 C17.516,26.48 16.967,28.228 16.353,29.977 C15.739,31.725 14.996,33.408 14.22,35.059 C13.444,36.71 12.604,38.296 11.764,39.785 C11.344,40.53 10.892,41.274 10.471,41.987 C10.019,42.699 9.599,43.379 9.147,44.026 C8.694,44.673 8.274,45.321 7.854,45.936 C7.628,46.227 7.434,46.551 7.208,46.842 C6.981,47.134 6.787,47.425 6.561,47.684 C6.367,47.975 6.141,48.234 5.947,48.493 C5.753,48.752 5.56,49.011 5.333,49.27 C4.946,49.756 4.59,50.241 4.202,50.662 C3.491,51.536 2.845,52.249 2.328,52.864 C2.069,53.155 1.811,53.446 1.617,53.673 C1.391,53.9 1.229,54.126 1.068,54.288 C0.777,54.612 0.615,54.806 0.615,54.806 L4.138,57.655 Z" id="Path" fill="#27C3DA" fill-rule="nonzero"></path>
                            </g>
                            <path d="M11.001,105.901 C18.337,105.286 31.037,112.505 40.731,119.336 C48.002,124.483 63.223,135.619 85.908,139.471 C111.244,143.777 130.633,135.619 142.719,125.843 C154.546,116.261 157.713,105.804 157.713,105.804 C157.713,105.804 149.796,138.824 110.759,148.73 C71.722,158.636 31.36,126.781 31.36,126.781 L11.001,122.055 L11.001,105.901 Z" id="Path" fill="#85DBF0" fill-rule="nonzero"></path>
                            <path d="M119.386,34.1646 C119.386,34.1646 119.289,34.0351 119.095,33.7761 C118.998,33.6466 118.901,33.4847 118.772,33.3229 C118.643,33.1287 118.481,32.9668 118.32,32.7402 C118.126,32.546 117.964,32.287 117.738,32.0604 C117.512,31.8338 117.285,31.5748 117.027,31.3482 C116.768,31.1216 116.51,30.8626 116.219,30.636 C115.928,30.4094 115.637,30.1828 115.314,29.9562 C114.991,29.7619 114.668,29.5353 114.345,29.3411 C114.022,29.1469 113.698,28.985 113.343,28.8232 C113.02,28.6613 112.697,28.5318 112.374,28.4023 C112.05,28.2728 111.76,28.1757 111.469,28.0786 C110.887,27.8844 110.402,27.7873 110.014,27.6901 C109.821,27.6578 109.691,27.6254 109.562,27.6254 C109.465,27.6254 109.336,27.593 109.336,27.593 C108.173,27.6578 107.268,28.6289 107.332,29.7943 C107.397,30.9597 108.366,31.8661 109.53,31.8014 C109.53,31.8014 109.497,31.8014 109.562,31.769 C109.594,31.769 109.691,31.7366 109.821,31.7043 C110.047,31.6719 110.435,31.6072 110.887,31.5748 C111.113,31.5424 111.372,31.5748 111.63,31.5748 C111.889,31.6072 112.18,31.5748 112.47,31.6072 C112.761,31.6395 113.084,31.6719 113.375,31.7366 C113.698,31.769 114.022,31.8661 114.312,31.9309 C114.636,31.9956 114.959,32.0927 115.25,32.1899 C115.573,32.287 115.864,32.4165 116.154,32.5136 C116.445,32.6107 116.736,32.7726 116.995,32.902 C117.253,33.0315 117.479,33.161 117.738,33.2905 C117.964,33.42 118.19,33.5171 118.352,33.6466 C118.546,33.7761 118.675,33.8732 118.804,33.9703 C119.063,34.1322 119.224,34.2293 119.224,34.2293 C119.257,34.2617 119.321,34.2293 119.354,34.1969 C119.418,34.2293 119.418,34.1969 119.386,34.1646 Z" id="Path" fill="url(#linearGradient-4)" fill-rule="nonzero"></path>
                            <path d="M157.778,118.979 C157.778,118.979 157.939,118.817 158.262,118.526 C158.424,118.364 158.585,118.202 158.812,118.008 C159.006,117.782 159.264,117.523 159.49,117.264 C159.749,117.005 160.007,116.681 160.266,116.357 C160.557,116.033 160.815,115.677 161.106,115.321 C161.397,114.965 161.688,114.577 161.946,114.156 C162.237,113.767 162.496,113.347 162.786,112.926 C163.077,112.505 163.336,112.084 163.594,111.663 C163.853,111.242 164.079,110.822 164.338,110.401 C164.564,109.98 164.79,109.591 164.984,109.203 C165.178,108.814 165.372,108.458 165.533,108.102 C165.856,107.422 166.147,106.84 166.309,106.387 C166.406,106.16 166.47,105.998 166.503,105.869 C166.535,105.771 166.567,105.642 166.567,105.674 C166.89,104.153 165.921,102.631 164.37,102.308 C162.851,101.984 161.332,102.955 161.009,104.509 C161.009,104.509 161.009,104.541 161.009,104.638 C161.009,104.736 161.009,104.897 160.977,105.092 C160.944,105.48 160.912,106.063 160.848,106.743 C160.815,107.099 160.783,107.455 160.718,107.843 C160.686,108.232 160.589,108.653 160.524,109.073 C160.46,109.494 160.363,109.947 160.298,110.401 C160.201,110.854 160.137,111.307 160.007,111.76 C159.91,112.214 159.781,112.667 159.684,113.12 C159.555,113.573 159.458,113.994 159.296,114.415 C159.167,114.836 159.038,115.256 158.876,115.613 C158.747,116.001 158.618,116.357 158.456,116.681 C158.327,117.005 158.198,117.296 158.068,117.587 C157.939,117.846 157.842,118.073 157.745,118.267 C157.551,118.656 157.454,118.882 157.454,118.882 C157.422,118.947 157.454,119.012 157.519,119.044 C157.713,119.012 157.745,119.012 157.778,118.979 Z" id="Path" fill="url(#linearGradient-5)" fill-rule="nonzero"></path>
                            <path d="M159.653,64.336 C160.202,57.829 156.453,53.944 156.453,53.944 L159.653,64.336 Z" id="Path" fill="#85DBF0" fill-rule="nonzero"></path>
                            <path d="M159.781,64.336 C159.781,64.336 159.846,64.174 159.943,63.85 C160.007,63.688 160.072,63.526 160.136,63.3 C160.201,63.105 160.266,62.846 160.33,62.555 C160.395,62.264 160.492,61.972 160.524,61.649 C160.589,61.325 160.653,60.969 160.686,60.613 C160.718,60.257 160.75,59.868 160.783,59.48 C160.783,59.091 160.815,58.67 160.783,58.282 C160.75,57.894 160.75,57.473 160.686,57.084 C160.653,56.663 160.589,56.275 160.492,55.886 C160.427,55.498 160.33,55.142 160.233,54.786 C160.136,54.43 160.04,54.106 159.91,53.782 C159.813,53.459 159.684,53.2 159.587,52.941 C159.49,52.682 159.361,52.455 159.296,52.261 C159.199,52.067 159.135,51.905 159.038,51.808 C159.005,51.743 158.973,51.71 158.941,51.646 C158.908,51.613 158.876,51.581 158.876,51.581 C157.584,50.221 155.418,50.189 154.093,51.484 C152.769,52.779 152.704,54.948 153.997,56.275 C153.997,56.275 153.997,56.275 153.997,56.243 C153.997,56.21 153.997,56.21 154.029,56.243 C154.061,56.243 154.126,56.275 154.223,56.307 C154.32,56.372 154.449,56.437 154.578,56.502 C154.707,56.599 154.869,56.696 155.063,56.825 C155.257,56.955 155.418,57.117 155.612,57.278 C155.806,57.44 156,57.635 156.194,57.861 C156.388,58.055 156.614,58.282 156.808,58.541 C157.002,58.768 157.196,59.027 157.39,59.286 C157.584,59.545 157.745,59.836 157.907,60.095 C158.068,60.386 158.198,60.645 158.359,60.937 C158.521,61.228 158.618,61.487 158.747,61.778 C158.876,62.037 158.941,62.296 159.038,62.555 C159.102,62.814 159.199,63.008 159.264,63.235 C159.329,63.462 159.361,63.623 159.393,63.785 C159.458,64.109 159.522,64.271 159.522,64.271 C159.555,64.336 159.619,64.4 159.684,64.368 C159.749,64.4 159.781,64.368 159.781,64.336 Z" id="Path" fill="url(#linearGradient-6)" fill-rule="nonzero"></path>
                            <path d="M116.123,68.609 C116.123,68.609 115.767,68.317 115.186,67.832 C114.895,67.573 114.539,67.281 114.087,66.958 C113.634,66.634 113.15,66.246 112.6,65.857 C112.051,65.469 111.437,65.048 110.758,64.627 C110.435,64.433 110.08,64.206 109.724,63.98 C109.369,63.785 108.981,63.559 108.593,63.364 C108.205,63.138 107.818,62.976 107.397,62.749 C106.977,62.555 106.59,62.329 106.17,62.167 C105.749,61.972 105.297,61.811 104.877,61.616 C104.424,61.454 103.972,61.293 103.552,61.131 C103.1,60.969 102.647,60.839 102.195,60.678 C101.742,60.548 101.29,60.386 100.805,60.289 C100.353,60.16 99.9,60.062 99.416,59.965 C98.963,59.868 98.511,59.771 98.058,59.706 C97.606,59.609 97.154,59.577 96.733,59.48 C96.281,59.415 95.861,59.35 95.441,59.318 C94.601,59.221 93.793,59.156 93.049,59.124 C92.694,59.091 92.306,59.091 91.983,59.091 C91.66,59.091 91.337,59.091 91.014,59.091 C90.4,59.091 89.883,59.091 89.462,59.124 C88.59,59.156 88.105,59.188 88.105,59.188 C85.294,59.318 83.129,61.681 83.258,64.497 C83.387,67.314 85.746,69.483 88.558,69.353 C89.139,69.321 89.721,69.191 90.238,68.997 L90.27,68.997 C90.27,68.997 90.626,68.835 91.272,68.576 C91.595,68.447 91.983,68.285 92.435,68.123 C92.662,68.026 92.888,67.961 93.146,67.864 C93.405,67.799 93.663,67.702 93.954,67.605 C94.504,67.411 95.15,67.281 95.796,67.087 C96.119,66.99 96.475,66.925 96.83,66.861 C97.186,66.796 97.541,66.699 97.897,66.666 C98.285,66.602 98.64,66.569 99.028,66.505 C99.416,66.472 99.803,66.44 100.191,66.375 C100.579,66.343 100.999,66.31 101.387,66.31 C101.807,66.31 102.195,66.246 102.615,66.278 C103.035,66.278 103.455,66.278 103.843,66.278 C104.263,66.31 104.651,66.343 105.071,66.343 C105.491,66.343 105.879,66.407 106.299,66.472 C106.687,66.537 107.107,66.537 107.494,66.634 C107.882,66.699 108.27,66.764 108.658,66.828 C109.046,66.893 109.401,66.99 109.757,67.055 C110.467,67.184 111.146,67.379 111.792,67.54 C112.439,67.702 112.988,67.897 113.505,68.058 C113.764,68.156 113.99,68.22 114.216,68.285 C114.442,68.382 114.636,68.447 114.83,68.512 C115.573,68.771 115.961,68.932 115.961,68.932 C116.058,68.965 116.187,68.932 116.22,68.803 C116.22,68.738 116.187,68.673 116.123,68.609 Z" id="Path" fill="url(#linearGradient-7)" fill-rule="nonzero"></path>
                            <path d="M120.065,74.727 C120.065,74.727 119.904,74.598 119.645,74.403 C119.516,74.306 119.355,74.177 119.161,74.015 C118.967,73.885 118.741,73.723 118.482,73.562 C118.224,73.4 117.965,73.238 117.674,73.044 C117.383,72.882 117.06,72.72 116.705,72.526 C116.349,72.364 115.994,72.202 115.638,72.04 C115.283,71.878 114.863,71.749 114.475,71.619 C114.087,71.49 113.667,71.36 113.279,71.296 C112.891,71.198 112.471,71.134 112.084,71.037 C111.696,70.972 111.308,70.907 110.953,70.875 C110.597,70.842 110.242,70.81 109.918,70.81 C109.595,70.778 109.304,70.778 109.046,70.778 C108.787,70.778 108.561,70.778 108.367,70.778 C107.98,70.81 107.753,70.81 107.753,70.81 C106.461,70.875 105.491,71.975 105.556,73.27 C105.621,74.565 106.719,75.536 108.012,75.472 C108.303,75.472 108.594,75.374 108.82,75.277 C108.82,75.277 108.981,75.213 109.24,75.083 C109.369,75.018 109.531,74.954 109.725,74.889 C109.918,74.824 110.145,74.727 110.371,74.662 C110.597,74.565 110.888,74.5 111.179,74.436 C111.47,74.339 111.76,74.306 112.084,74.241 C112.407,74.177 112.73,74.112 113.085,74.08 C113.441,74.015 113.796,74.015 114.152,73.982 C114.507,73.982 114.863,73.95 115.218,73.982 C115.574,73.982 115.929,74.015 116.285,74.047 C116.64,74.08 116.963,74.112 117.286,74.177 C117.61,74.241 117.9,74.274 118.159,74.339 C118.45,74.403 118.676,74.468 118.902,74.533 C119.128,74.598 119.322,74.662 119.484,74.695 C119.807,74.792 120.001,74.856 120.001,74.856 C120.033,74.856 120.098,74.856 120.13,74.792 C120.13,74.792 120.098,74.759 120.065,74.727 Z" id="Path" fill="url(#linearGradient-8)" fill-rule="nonzero"></path>
                            <path d="M121.971,79.874 C121.971,79.874 121.939,79.809 121.874,79.679 C121.81,79.55 121.713,79.356 121.551,79.161 C121.486,79.064 121.39,78.935 121.293,78.838 C121.196,78.708 121.099,78.611 121.002,78.482 C120.776,78.255 120.517,78.028 120.226,77.802 C119.935,77.608 119.612,77.413 119.321,77.252 C119.16,77.187 118.998,77.122 118.869,77.057 C118.707,76.993 118.578,76.96 118.449,76.928 C118.19,76.863 117.932,76.798 117.77,76.766 C117.609,76.734 117.512,76.734 117.512,76.734 L117.479,76.734 C116.865,76.636 116.284,77.09 116.187,77.705 C116.09,78.32 116.542,78.903 117.156,79 C117.318,79.032 117.512,79 117.641,78.967 C117.641,78.967 117.706,78.935 117.803,78.903 C117.899,78.87 118.061,78.838 118.255,78.805 C118.352,78.773 118.449,78.773 118.578,78.773 C118.707,78.773 118.804,78.773 118.934,78.773 C119.192,78.773 119.483,78.805 119.741,78.87 C120.032,78.935 120.291,79 120.549,79.129 C120.679,79.194 120.808,79.226 120.905,79.291 C121.034,79.356 121.131,79.42 121.228,79.485 C121.422,79.615 121.583,79.712 121.68,79.809 C121.777,79.906 121.842,79.938 121.842,79.938 C121.874,79.938 121.874,79.938 121.907,79.938 C121.971,79.906 121.971,79.906 121.971,79.874 Z" id="Path" fill="#85DBF0" fill-rule="nonzero"></path>
                            <path d="M161.881,64.335 C161.881,64.335 161.945,64.303 162.107,64.271 C162.236,64.238 162.462,64.173 162.689,64.076 C162.818,64.044 162.947,63.979 163.076,63.914 C163.206,63.85 163.335,63.785 163.496,63.688 C163.787,63.526 164.046,63.332 164.337,63.105 C164.595,62.879 164.854,62.62 165.08,62.328 C165.177,62.199 165.274,62.069 165.371,61.94 C165.468,61.81 165.532,61.681 165.597,61.551 C165.726,61.292 165.823,61.098 165.888,60.936 C165.952,60.774 165.985,60.677 165.985,60.677 L165.985,60.645 C166.211,60.062 165.92,59.382 165.338,59.156 C164.757,58.929 164.078,59.221 163.852,59.803 C163.787,59.965 163.755,60.127 163.787,60.289 C163.787,60.289 163.787,60.354 163.787,60.451 C163.787,60.548 163.787,60.71 163.787,60.904 C163.787,61.001 163.755,61.098 163.755,61.228 C163.755,61.357 163.723,61.454 163.69,61.584 C163.626,61.843 163.529,62.102 163.399,62.361 C163.27,62.62 163.141,62.879 162.979,63.105 C162.882,63.202 162.818,63.332 162.721,63.429 C162.624,63.526 162.559,63.623 162.462,63.688 C162.301,63.85 162.171,63.979 162.042,64.076 C161.945,64.173 161.881,64.206 161.881,64.206 C161.848,64.206 161.848,64.238 161.881,64.271 C161.848,64.303 161.881,64.335 161.881,64.335 Z" id="Path" fill="url(#linearGradient-9)" fill-rule="nonzero"></path>
                            <path d="M122.813,35.9126 C122.813,35.9126 122.845,35.8479 122.877,35.686 C122.91,35.5565 122.942,35.3299 122.974,35.1033 C122.974,34.9738 123.006,34.8443 123.006,34.6825 C123.006,34.5206 123.006,34.3911 123.006,34.2293 C122.974,33.9055 122.942,33.5494 122.845,33.2257 C122.748,32.8696 122.651,32.5459 122.489,32.2222 C122.425,32.0603 122.36,31.8985 122.263,31.769 C122.199,31.6395 122.102,31.51 122.037,31.3805 C121.875,31.1539 121.746,30.9597 121.617,30.8302 C121.52,30.7007 121.455,30.636 121.455,30.636 L121.423,30.6036 C121.003,30.118 120.292,30.0856 119.807,30.5065 C119.323,30.9273 119.29,31.6395 119.71,32.1251 C119.84,32.2546 119.969,32.3517 120.13,32.4164 C120.13,32.4164 120.195,32.4488 120.292,32.4812 C120.389,32.5135 120.55,32.6107 120.712,32.7078 C120.809,32.7725 120.874,32.8049 120.971,32.902 C121.068,32.9667 121.164,33.0639 121.261,33.1286 C121.455,33.2905 121.649,33.5171 121.843,33.7437 C122.005,33.9703 122.166,34.2293 122.296,34.4559 C122.36,34.5854 122.425,34.7148 122.457,34.812 C122.522,34.9414 122.554,35.0386 122.586,35.168 C122.651,35.3947 122.716,35.5565 122.716,35.7184 C122.748,35.8479 122.748,35.945 122.748,35.945 C122.748,35.9774 122.78,35.9774 122.813,35.9774 C122.813,35.945 122.813,35.945 122.813,35.9126 Z" id="Path" fill="url(#linearGradient-10)" fill-rule="nonzero"></path>
                            <path d="M118.062,29.8914 C118.062,29.8914 118.062,29.7296 117.997,29.5353 C117.965,29.3087 117.868,29.0174 117.706,28.7584 C117.642,28.6289 117.545,28.467 117.448,28.3699 C117.351,28.2404 117.254,28.1433 117.157,28.0462 C117.06,27.9491 116.995,27.8843 116.931,27.852 C116.866,27.8196 116.834,27.7872 116.834,27.7872 C116.608,27.6254 116.317,27.6577 116.123,27.852 C115.961,28.0786 115.994,28.3699 116.187,28.5642 C116.252,28.5965 116.317,28.6289 116.349,28.6613 C116.349,28.6613 116.381,28.6613 116.414,28.6936 C116.478,28.6936 116.543,28.726 116.608,28.7584 C116.704,28.7908 116.801,28.8231 116.898,28.8879 C116.995,28.9526 117.125,29.0174 117.222,29.1145 C117.415,29.2763 117.609,29.503 117.739,29.6648 C117.868,29.8267 117.932,29.9562 117.932,29.9562 C118.029,29.8914 118.029,29.9238 118.062,29.8914 C118.062,29.8914 118.029,29.8914 118.062,29.8914 Z" id="Path" fill="#7DDBE9" fill-rule="nonzero"></path>
                            <path d="M47.065,118.203 C47.065,118.203 47.162,118.17 47.291,118.105 C47.453,118.041 47.743,117.976 48.099,117.911 C48.778,117.814 49.812,117.782 51.072,117.879 C52.332,117.976 53.851,118.203 55.596,118.494 C57.309,118.785 59.215,119.141 61.316,119.53 C62.35,119.692 63.416,119.886 64.515,120.015 C64.774,120.048 65.065,120.08 65.323,120.112 C65.614,120.145 65.905,120.177 66.196,120.21 C66.777,120.274 67.327,120.307 67.941,120.339 C70.3,120.501 72.756,120.566 75.179,120.436 C77.635,120.274 80.027,119.886 82.353,119.206 L82.483,119.174 L82.579,119.141 L82.773,119.077 L83.161,118.947 C83.452,118.85 83.711,118.753 83.969,118.656 C84.518,118.429 85.035,118.203 85.553,117.944 C86.587,117.426 87.524,116.843 88.396,116.195 C90.141,114.901 91.466,113.379 92.274,111.793 C92.662,111.048 92.92,110.304 93.05,109.527 C93.211,108.75 93.244,108.005 93.211,107.293 C93.179,106.581 93.017,105.933 92.823,105.383 C92.63,104.833 92.371,104.412 92.08,104.088 C91.628,103.57 91.175,103.344 91.175,103.344 L90.174,104.218 C85.649,108.329 78.669,107.973 74.598,103.441 C70.494,98.909 71.301,91.593 75.373,87.837 C79.445,84.082 85.197,82.626 90.82,83.435 C95.796,84.147 98.059,85.604 101.096,87.967 C101.872,88.55 102.583,89.229 103.294,89.942 C103.649,90.298 104.005,90.686 104.328,91.107 C104.586,91.431 105.168,92.175 105.426,92.531 L105.653,92.92 L105.685,92.952 C105.653,92.92 105.976,93.373 105.847,93.179 L105.879,93.211 L105.976,93.373 L106.17,93.697 C106.428,94.15 106.654,94.603 106.881,95.056 C107.333,95.963 107.689,96.934 107.979,97.905 C108.593,99.848 108.884,101.887 108.917,103.862 C108.949,105.869 108.69,107.811 108.238,109.721 C107.753,111.631 107.075,113.444 106.137,115.192 C105.2,116.94 104.037,118.559 102.68,119.983 C100.062,122.799 96.863,124.806 93.599,126.134 C91.983,126.781 90.335,127.299 88.687,127.655 C87.879,127.817 87.039,127.979 86.231,128.076 C85.811,128.141 85.423,128.141 85.003,128.173 L84.389,128.206 L84.066,128.238 L83.904,128.303 L83.775,128.335 L83.517,128.367 L83.387,128.367 L83.355,128.367 L83.258,128.367 L83.193,128.367 L82.612,128.367 C82.224,128.367 81.836,128.367 81.416,128.367 C80.641,128.367 79.865,128.335 79.089,128.27 C77.571,128.141 76.116,127.947 74.695,127.688 C71.883,127.17 69.266,126.457 66.874,125.68 C66.293,125.486 65.679,125.292 65.097,125.098 C64.806,125.001 64.547,124.904 64.257,124.806 C63.933,124.709 63.675,124.612 63.384,124.483 C62.253,124.062 61.219,123.609 60.217,123.188 C58.278,122.314 56.501,121.537 54.917,120.857 C53.334,120.177 51.977,119.627 50.813,119.238 C49.682,118.85 48.745,118.656 48.131,118.623 C47.808,118.591 47.614,118.591 47.42,118.623 C47.259,118.656 47.162,118.656 47.162,118.656 C47.033,118.688 46.936,118.591 46.903,118.462 C46.903,118.332 46.968,118.235 47.065,118.203 Z" id="Path" fill="url(#linearGradient-11)" fill-rule="nonzero"></path>
                            <path d="M74.502,103.408 C78.283,107.584 84.487,108.199 88.979,105.059 C86.491,105.674 83.841,105.545 81.482,104.541 C75.407,101.951 73.015,95.056 75.277,89.067 C75.568,88.258 75.988,87.481 76.473,86.801 C76.053,87.125 75.665,87.449 75.277,87.805 C71.173,91.592 70.398,98.908 74.502,103.408 Z" id="Path" fill="#27C3DA" fill-rule="nonzero" opacity="0.4"></path>
                            <path d="M108.11,109.721 C108.563,107.811 108.821,105.869 108.789,103.862 C108.757,101.887 108.466,99.848 107.852,97.905 C107.561,96.934 107.173,95.963 106.753,95.057 C106.527,94.603 106.301,94.15 106.042,93.697 L105.848,93.373 L105.751,93.211 L105.719,93.179 C105.848,93.341 105.525,92.888 105.557,92.953 L105.525,92.92 L105.299,92.532 C105.073,92.176 104.491,91.431 104.2,91.107 C103.877,90.686 103.522,90.33 103.166,89.942 C102.455,89.23 101.712,88.55 100.969,87.967 C98.771,86.284 96.994,85.054 94.312,84.212 C97.705,85.539 100.872,87.967 102.875,90.686 C104.426,92.629 105.428,94.83 105.848,97.258 C106.656,99.589 106.85,102.017 106.43,104.509 C106.236,108.75 104.362,115.16 96.735,121.343 C95.152,122.605 93.148,123.512 91.209,124.224 C84.746,126.62 81.256,128.4 59.217,122.832 C59.508,122.961 59.799,123.091 60.122,123.22 C61.124,123.641 62.158,124.094 63.289,124.515 C63.58,124.612 63.838,124.71 64.161,124.839 C64.452,124.936 64.711,125.033 65.002,125.13 C65.583,125.325 66.165,125.519 66.779,125.713 C69.17,126.49 71.788,127.202 74.599,127.72 C76.021,127.979 77.475,128.173 78.994,128.303 C79.737,128.368 80.513,128.4 81.321,128.4 C81.709,128.4 82.096,128.4 82.517,128.4 L83.098,128.4 L83.163,128.4 C83.131,128.4 83.26,128.4 83.26,128.4 L83.292,128.4 L83.421,128.4 L83.68,128.4 L83.809,128.4 L83.971,128.4 L84.294,128.368 L84.908,128.303 C85.328,128.27 85.716,128.206 86.136,128.173 C86.944,128.076 87.784,127.914 88.592,127.753 C90.24,127.396 91.888,126.911 93.504,126.231 C96.735,124.904 99.935,122.897 102.584,120.08 C103.909,118.656 105.105,117.005 106.042,115.289 C106.947,113.444 107.626,111.631 108.11,109.721 Z" id="Path" fill="#27C3DA" fill-rule="nonzero" opacity="0.4"></path>
                            <g id="Group" opacity="0.6" stroke-width="1" fill="none" fill-rule="evenodd" transform="translate(76.000000, 86.000000)">
                                <path d="M3.704,9.769 C3.704,9.769 3.639,9.64 3.51,9.445 C3.477,9.381 3.477,9.348 3.477,9.348 C3.477,9.316 3.445,9.284 3.445,9.251 C3.413,9.219 3.413,9.154 3.413,9.089 C3.38,9.025 3.38,8.96 3.38,8.895 C3.316,8.604 3.316,8.248 3.413,7.762 C3.51,7.309 3.736,6.759 4.091,6.176 C4.253,5.884 4.479,5.626 4.705,5.334 C4.835,5.205 4.964,5.075 5.093,4.946 L5.158,4.881 C5.158,4.881 5.093,4.913 5.125,4.913 L5.158,4.881 L5.287,4.784 C5.384,4.719 5.449,4.654 5.546,4.557 C5.643,4.492 5.707,4.395 5.804,4.331 L6.03,4.169 C6.192,4.039 6.353,3.942 6.547,3.813 C6.903,3.586 7.291,3.359 7.711,3.165 C9.326,2.356 11.298,1.935 13.301,2 C14.303,2.032 15.305,2.162 16.242,2.388 L16.597,2.485 C16.63,2.485 16.662,2.518 16.662,2.518 L16.759,2.55 L16.953,2.615 C17.179,2.712 17.438,2.777 17.664,2.874 C18.116,3.036 18.536,3.23 18.989,3.457 C19.861,3.877 20.637,4.395 21.348,4.913 C22.059,5.431 22.705,6.014 23.222,6.564 C23.513,6.823 23.739,7.115 23.998,7.374 C24.224,7.665 24.45,7.892 24.644,8.151 C25.032,8.636 25.355,9.122 25.581,9.51 C25.71,9.704 25.807,9.866 25.904,10.028 C26.001,10.19 26.066,10.319 26.131,10.417 C26.26,10.643 26.324,10.74 26.324,10.74 C26.324,10.74 26.26,10.611 26.163,10.384 C26.098,10.287 26.034,10.125 25.969,9.963 C25.872,9.802 25.807,9.607 25.678,9.413 C25.452,8.992 25.193,8.507 24.838,7.989 C24.676,7.73 24.45,7.438 24.256,7.147 C24.03,6.856 23.804,6.532 23.545,6.241 C23.028,5.626 22.447,5.01 21.768,4.395 C21.089,3.78 20.314,3.165 19.441,2.647 C19.021,2.388 18.569,2.129 18.084,1.903 C17.825,1.773 17.599,1.676 17.373,1.579 L17.211,1.514 L17.115,1.482 L17.018,1.45 L16.63,1.32 C15.628,0.964 14.529,0.705 13.431,0.608 C11.233,0.381 8.971,0.64 6.967,1.417 C6.483,1.611 5.998,1.806 5.546,2.065 C5.319,2.162 5.093,2.324 4.867,2.453 C4.77,2.518 4.641,2.583 4.544,2.647 C4.415,2.712 4.35,2.777 4.253,2.842 C4.156,2.906 4.059,2.971 3.994,3.036 L3.865,3.133 L3.833,3.165 L3.768,3.23 L3.704,3.295 C3.51,3.457 3.316,3.618 3.154,3.78 C2.799,4.104 2.476,4.46 2.217,4.849 C1.668,5.593 1.248,6.338 1.021,7.115 C0.763,7.892 0.698,8.636 0.763,9.251 C0.763,9.413 0.795,9.575 0.828,9.704 C0.86,9.866 0.86,9.963 0.924,10.125 C0.957,10.255 1.021,10.384 1.054,10.514 C1.086,10.643 1.151,10.74 1.151,10.773 C1.248,10.999 1.312,11.129 1.312,11.129 C1.635,11.873 2.508,12.197 3.219,11.873 C3.962,11.55 4.285,10.676 3.962,9.963 C3.736,9.834 3.704,9.802 3.704,9.769 Z" id="Path" fill="#E7F8FC" fill-rule="nonzero"></path>
                            </g>
                            <g id="Group" opacity="0.6" stroke-width="1" fill="none" fill-rule="evenodd" transform="translate(84.000000, 60.000000)">
                                <path d="M3.588,5.145 C3.588,5.145 3.556,5.112 3.524,5.048 C3.524,5.015 3.491,5.015 3.491,4.983 L3.459,4.951 C3.459,4.951 3.427,4.951 3.427,4.918 C3.362,4.789 3.265,4.562 3.265,4.238 C3.265,3.915 3.362,3.461 3.621,3.041 L3.685,2.976 L3.685,2.943 C3.685,2.943 3.718,2.911 3.653,2.976 L3.685,2.911 L3.847,2.749 C3.912,2.684 4.008,2.555 4.138,2.458 C4.364,2.264 4.59,2.102 4.881,1.972 C5.172,1.843 5.463,1.713 5.786,1.616 C6.109,1.519 6.4,1.454 6.723,1.422 C7.337,1.357 7.983,1.357 8.5,1.39 C9.05,1.422 9.47,1.454 9.793,1.487 C10.116,1.519 10.278,1.551 10.278,1.551 C10.278,1.551 10.116,1.487 9.825,1.39 C9.534,1.292 9.114,1.131 8.565,0.969 C8.048,0.807 7.402,0.645 6.691,0.548 C6.335,0.516 5.947,0.483 5.56,0.483 C5.172,0.483 4.784,0.548 4.364,0.613 C3.976,0.71 3.556,0.839 3.168,1.033 C2.974,1.131 2.813,1.228 2.587,1.357 C2.522,1.422 2.425,1.454 2.36,1.519 L2.296,1.551 L2.199,1.616 L2.07,1.713 C1.423,2.296 1.003,3.041 0.777,3.785 C0.551,4.497 0.583,5.209 0.68,5.695 C0.712,5.825 0.745,5.954 0.777,6.084 C0.809,6.148 0.809,6.213 0.842,6.278 C0.874,6.375 0.874,6.407 0.874,6.407 C1.1,7.184 1.908,7.637 2.684,7.378 C3.459,7.152 3.912,6.343 3.653,5.566 C3.685,5.371 3.653,5.242 3.588,5.145 Z" id="Path" fill="#E7F8FC" fill-rule="nonzero"></path>
                            </g>
                            <g id="Group" opacity="0.6" stroke-width="1" fill="none" fill-rule="evenodd" transform="translate(104.000000, 40.000000)">
                                <path d="M2.558,3.682 C2.558,3.682 2.752,3.65 3.107,3.585 C3.301,3.552 3.527,3.52 3.786,3.455 C3.915,3.423 4.077,3.423 4.206,3.391 C4.368,3.358 4.497,3.358 4.658,3.326 C4.981,3.293 5.337,3.229 5.757,3.164 C6.177,3.132 6.597,3.067 7.082,3.034 C7.534,3.002 8.051,2.97 8.569,2.937 C9.086,2.937 9.635,2.905 10.217,2.905 C11.38,2.905 12.608,3.002 13.933,3.164 C15.258,3.326 16.647,3.585 18.069,3.941 C19.491,4.297 20.945,4.718 22.432,5.203 C23.175,5.462 23.918,5.689 24.662,5.98 C25.017,6.11 25.405,6.239 25.76,6.401 L26.859,6.854 C28.313,7.469 29.735,8.117 31.092,8.861 C31.448,9.023 31.771,9.218 32.126,9.412 C32.45,9.606 32.805,9.8 33.128,9.994 C33.775,10.383 34.421,10.771 35.035,11.192 C36.295,12.002 37.426,12.876 38.525,13.685 C39.042,14.106 39.559,14.527 40.044,14.947 C40.528,15.368 41.013,15.757 41.433,16.178 C42.306,16.987 43.081,17.764 43.76,18.476 C44.083,18.832 44.406,19.156 44.697,19.479 C44.988,19.803 45.214,20.095 45.44,20.354 C45.893,20.871 46.248,21.325 46.474,21.616 C46.701,21.907 46.83,22.069 46.83,22.069 C46.83,22.069 46.701,21.907 46.507,21.616 C46.281,21.325 45.99,20.871 45.537,20.321 C45.311,20.03 45.085,19.738 44.826,19.415 C44.568,19.091 44.277,18.735 43.954,18.379 C43.308,17.634 42.597,16.825 41.756,15.951 C41.336,15.498 40.884,15.077 40.432,14.624 C39.979,14.17 39.462,13.717 38.945,13.264 C37.911,12.358 36.78,11.419 35.552,10.545 C34.938,10.092 34.324,9.671 33.678,9.218 C33.354,8.991 33.031,8.797 32.676,8.57 C32.353,8.343 31.997,8.149 31.674,7.955 C30.317,7.113 28.895,6.369 27.408,5.657 L26.31,5.171 C25.922,4.977 25.566,4.847 25.211,4.685 C24.468,4.362 23.724,4.07 23.013,3.747 C21.527,3.164 20.073,2.614 18.586,2.16 C17.132,1.707 15.678,1.351 14.288,1.092 C12.899,0.833 11.574,0.671 10.314,0.574 C9.7,0.509 9.086,0.509 8.536,0.477 C7.987,0.477 7.437,0.477 6.92,0.477 C6.403,0.509 5.951,0.509 5.499,0.542 C5.046,0.574 4.658,0.607 4.303,0.639 C4.109,0.639 3.947,0.671 3.786,0.671 C3.624,0.704 3.495,0.704 3.333,0.704 C3.075,0.736 2.849,0.768 2.655,0.768 C2.267,0.801 2.073,0.833 2.073,0.833 C1.265,0.93 0.716,1.642 0.78,2.452 C0.877,3.261 1.588,3.811 2.396,3.747 C2.493,3.682 2.526,3.682 2.558,3.682 Z" id="Path" fill="#E7F8FC" fill-rule="nonzero"></path>
                            </g>
                        </g>
                    </g>
                </g>
            </g>
        </g>
    </g>
</svg>