<?xml version="1.0" encoding="UTF-8"?>
<svg width="171px" height="330px" viewBox="0 0 171 330" version="1.1" xmlns="http://www.w3.org/2000/svg" xmlns:xlink="http://www.w3.org/1999/xlink">
    <title>wind</title>
    <defs>
        <rect id="path-1" x="0" y="0" width="171" height="174" rx="10"></rect>
    </defs>
    <g id="Page-1" stroke="none" stroke-width="1" fill="none" fill-rule="evenodd">
        <g id="Artboard" transform="translate(-420.000000, -26.000000)">
            <g id="wind" transform="translate(420.000000, 26.000000)">
                <rect id="Rectangle" fill="#FECCA1" fill-rule="nonzero" x="0" y="0" width="171" height="330" rx="10"></rect>
                <g id="Clipped" transform="translate(0.000000, 156.000000)">
                    <mask id="mask-2" fill="white">
                        <use xlink:href="#path-1"></use>
                    </mask>
                    <g id="Rectangle"></g>
                    <g id="Group" mask="url(#mask-2)">
                        <g transform="translate(-11.000000, 63.000000)">
                            <g id="Group" opacity="0.5" style="mix-blend-mode: multiply;" stroke-width="1" fill="none" fill-rule="evenodd">
                                <path d="M110.485,220.97 C171.504,220.97 220.97,171.504 220.97,110.485 C220.97,49.466 171.504,0 110.485,0 C49.4659,0 0,49.466 0,110.485 C0,171.504 49.4659,220.97 110.485,220.97 Z" id="Path" fill="#F18182" fill-rule="nonzero" opacity="0.202381"></path>
                                <path d="M110.645,202.742 C161.51,202.742 202.743,161.509 202.743,110.645 C202.743,59.781 161.51,18.547 110.645,18.547 C59.7813,18.547 18.54785,59.781 18.54785,110.645 C18.54785,161.509 59.7813,202.742 110.645,202.742 Z" id="Path" fill="#F18182" fill-rule="nonzero" opacity="0.202381"></path>
                                <path d="M110.485,182.596 C150.311,182.596 182.596,150.311 182.596,110.485 C182.596,70.659 150.311,38.374 110.485,38.374 C70.6593,38.374 38.374,70.659 38.374,110.485 C38.374,150.311 70.6593,182.596 110.485,182.596 Z" id="Path" fill="#F18182" fill-rule="nonzero" opacity="0.1"></path>
                            </g>
                            <path d="M180.973,76.261 C180.973,76.261 180.633,76.033 180.112,75.713 C179.595,75.386 178.888,74.984 178.184,74.576 C177.47,74.189 176.756,73.802 176.221,73.511 C176.139,73.504 175.975,73.671 175.93,73.608 C175.889,73.302 175.722,73.048 175.475,72.887 C175.473,72.884 175.467,72.882 175.467,72.879 C175.427,72.81 175.653,72.736 175.684,72.66 C175.658,72.051 175.625,71.239 175.591,70.428 C175.535,69.616 175.485,68.805 175.42,68.196 C175.362,67.588 175.307,67.182 175.307,67.182 C175.275,66.946 175.057,66.781 174.821,66.813 C174.623,66.84 174.474,66.999 174.451,67.189 C174.451,67.189 174.403,67.595 174.354,68.204 C174.298,68.814 174.261,69.626 174.217,70.438 C174.196,71.251 174.175,72.062 174.16,72.672 C174.19,72.746 174.399,72.815 174.375,72.883 C174.125,73.043 173.954,73.3 173.914,73.608 C173.868,73.671 173.704,73.505 173.622,73.511 C173.087,73.802 172.373,74.189 171.659,74.577 C170.955,74.985 170.249,75.387 169.731,75.713 C169.211,76.033 168.871,76.261 168.871,76.261 C168.712,76.368 168.638,76.573 168.704,76.762 C168.782,76.986 169.028,77.105 169.253,77.026 C169.253,77.026 169.64,76.891 170.208,76.667 C170.78,76.449 171.525,76.125 172.274,75.806 C173.012,75.468 173.751,75.129 174.304,74.875 C174.353,74.819 174.337,74.641 174.391,74.606 C174.41,74.618 174.427,74.633 174.447,74.644 L174.231,85.286 L173.865,85.286 L173.622,92.992 L176.223,92.992 L175.979,85.286 L175.614,85.286 L175.397,74.644 C175.418,74.633 175.434,74.618 175.454,74.606 C175.507,74.641 175.491,74.819 175.54,74.875 C176.094,75.129 176.832,75.468 177.57,75.806 C178.319,76.125 179.065,76.449 179.636,76.667 C180.205,76.891 180.591,77.026 180.591,77.026 C180.816,77.105 181.062,76.987 181.14,76.762 C181.206,76.572 181.132,76.368 180.973,76.261 Z" id="Path" fill="#FFFFFF" fill-rule="nonzero"></path>
                            <path d="M154.939,83.682 C154.939,83.682 154.666,83.499 154.248,83.242 C153.832,82.98 153.265,82.657 152.699,82.33 C152.126,82.018 151.552,81.707 151.122,81.474 C151.056,81.469 150.924,81.602 150.888,81.552 C150.855,81.306 150.721,81.102 150.522,80.972 C150.522,80.972 150.516,80.968 150.516,80.967 C150.484,80.911 150.666,80.851 150.69,80.79 C150.67,80.301 150.643,79.649 150.616,78.997 C150.571,78.345 150.531,77.693 150.478,77.204 C150.432,76.716 150.387,76.39 150.387,76.39 C150.361,76.2 150.187,76.067 149.997,76.093 C149.837,76.115 149.718,76.242 149.7,76.395 C149.7,76.395 149.661,76.722 149.621,77.211 C149.576,77.701 149.547,78.353 149.512,79.006 C149.495,79.658 149.478,80.311 149.465,80.8 C149.49,80.859 149.658,80.915 149.638,80.97 C149.437,81.099 149.3,81.305 149.268,81.552 C149.231,81.603 149.099,81.469 149.033,81.474 C148.603,81.707 148.03,82.019 147.456,82.33 C146.891,82.657 146.323,82.981 145.907,83.243 C145.489,83.5 145.216,83.683 145.216,83.683 C145.088,83.768 145.029,83.933 145.082,84.085 C145.145,84.265 145.343,84.36 145.523,84.297 C145.523,84.297 145.834,84.189 146.29,84.009 C146.749,83.833 147.348,83.573 147.95,83.317 C148.543,83.045 149.136,82.773 149.581,82.569 C149.62,82.524 149.607,82.381 149.65,82.353 C149.666,82.362 149.679,82.375 149.696,82.383 L149.522,90.932 L149.229,90.932 L149.033,97.122 L151.122,97.122 L150.926,90.932 L150.633,90.932 L150.459,82.383 C150.476,82.375 150.489,82.362 150.505,82.353 C150.547,82.381 150.535,82.524 150.574,82.569 C151.019,82.773 151.612,83.045 152.205,83.317 C152.806,83.573 153.406,83.833 153.865,84.009 C154.321,84.189 154.632,84.297 154.632,84.297 C154.812,84.36 155.01,84.265 155.073,84.085 C155.127,83.933 155.067,83.768 154.939,83.682 Z" id="Path" fill="#FFFFFF" fill-rule="nonzero"></path>
                            <path d="M129.582,89.636 C129.582,89.636 129.387,89.505 129.088,89.322 C128.791,89.134 128.386,88.904 127.983,88.67 C127.573,88.448 127.164,88.226 126.857,88.059 C126.81,88.055 126.716,88.151 126.689,88.115 C126.666,87.939 126.57,87.794 126.429,87.702 C126.428,87.7 126.425,87.699 126.424,87.697 C126.402,87.658 126.531,87.615 126.548,87.571 C126.534,87.223 126.515,86.757 126.495,86.291 C126.463,85.826 126.435,85.361 126.397,85.012 C126.364,84.663 126.332,84.431 126.332,84.431 C126.314,84.295 126.189,84.201 126.054,84.219 C125.94,84.234 125.855,84.326 125.842,84.434 C125.842,84.434 125.814,84.667 125.786,85.017 C125.753,85.366 125.733,85.832 125.707,86.297 C125.696,86.763 125.684,87.229 125.675,87.578 C125.692,87.62 125.812,87.66 125.798,87.699 C125.654,87.791 125.557,87.938 125.533,88.115 C125.507,88.151 125.413,88.056 125.366,88.059 C125.059,88.226 124.65,88.448 124.24,88.67 C123.837,88.904 123.431,89.135 123.134,89.322 C122.836,89.505 122.641,89.636 122.641,89.636 C122.55,89.697 122.507,89.814 122.545,89.922 C122.59,90.051 122.731,90.119 122.86,90.074 C122.86,90.074 123.081,89.997 123.407,89.868 C123.735,89.743 124.163,89.557 124.592,89.375 C125.015,89.181 125.439,88.986 125.756,88.841 C125.785,88.809 125.775,88.706 125.806,88.686 C125.817,88.693 125.826,88.702 125.838,88.708 L125.714,94.81 L125.505,94.81 L125.366,99.228 L126.857,99.228 L126.717,94.81 L126.508,94.81 L126.384,88.708 C126.396,88.702 126.406,88.693 126.416,88.686 C126.447,88.706 126.438,88.808 126.466,88.841 C126.783,88.986 127.207,89.181 127.63,89.375 C128.06,89.557 128.487,89.743 128.815,89.868 C129.141,89.997 129.362,90.074 129.362,90.074 C129.491,90.119 129.632,90.051 129.677,89.922 C129.715,89.814 129.673,89.697 129.582,89.636 Z" id="Path" fill="#FFFFFF" fill-rule="nonzero"></path>
                            <path d="M65.4003,84.519 C65.4003,84.519 65.2054,84.388 64.9067,84.205 C64.6097,84.018 64.2044,83.787 63.8009,83.554 C63.3914,83.331 62.9823,83.109 62.675,82.943 C62.6282,82.939 62.534,83.035 62.5078,82.998 C62.4846,82.823 62.3885,82.677 62.2472,82.585 C62.2461,82.584 62.2431,82.582 62.2431,82.582 C62.2199,82.541 62.3493,82.498 62.3668,82.455 C62.3523,82.106 62.3332,81.64 62.3137,81.175 C62.2812,80.709 62.2532,80.244 62.2154,79.895 C62.1821,79.546 62.1503,79.314 62.1503,79.314 C62.132,79.178 62.0075,79.084 61.8721,79.102 C61.7581,79.117 61.6732,79.209 61.6601,79.318 C61.6601,79.318 61.632,79.55 61.604,79.9 C61.5718,80.249 61.5509,80.715 61.5258,81.18 C61.5139,81.646 61.5019,82.112 61.4929,82.461 C61.5105,82.503 61.6302,82.543 61.6163,82.582 C61.4727,82.674 61.3751,82.821 61.3516,82.998 C61.3254,83.034 61.2312,82.939 61.1844,82.942 C60.8774,83.109 60.468,83.331 60.0585,83.553 C59.655,83.787 59.2497,84.018 58.9527,84.205 C58.6543,84.388 58.4591,84.519 58.4591,84.519 C58.3679,84.58 58.3256,84.697 58.3634,84.805 C58.4087,84.935 58.5496,85.002 58.6783,84.957 C58.6783,84.957 58.8996,84.88 59.2257,84.751 C59.5537,84.626 59.9811,84.44 60.4104,84.258 C60.8337,84.064 61.257,83.869 61.5748,83.724 C61.6029,83.692 61.5935,83.589 61.6242,83.569 C61.6354,83.576 61.6448,83.585 61.6564,83.591 L61.5326,89.693 L61.3232,89.693 L61.1833,94.111 L62.6746,94.111 L62.5347,89.693 L62.3253,89.693 L62.2016,83.591 C62.2131,83.585 62.2229,83.576 62.2337,83.569 C62.264,83.589 62.2554,83.692 62.2831,83.724 C62.6006,83.869 63.0239,84.064 63.4475,84.258 C63.8768,84.44 64.3042,84.626 64.6322,84.751 C64.9583,84.88 65.1796,84.957 65.1796,84.957 C65.3086,85.002 65.4496,84.935 65.4945,84.805 C65.5338,84.697 65.4911,84.58 65.4003,84.519 Z" id="Path" fill="#FFAB2F" fill-rule="nonzero"></path>
                            <path d="M81.0555,89.189 C81.0555,89.189 80.8607,89.058 80.5619,88.875 C80.265,88.688 79.86,88.458 79.4562,88.224 C79.0467,88.002 78.6376,87.78 78.3302,87.613 C78.2835,87.609 78.1893,87.705 78.1631,87.669 C78.1399,87.493 78.0438,87.348 77.9025,87.255 C77.9013,87.254 77.8983,87.252 77.898,87.251 C77.8752,87.212 78.0045,87.169 78.0221,87.125 C78.0075,86.776 77.9885,86.311 77.969,85.845 C77.9365,85.38 77.9084,84.915 77.8707,84.566 C77.8374,84.217 77.8056,83.984 77.8056,83.984 C77.7873,83.849 77.6628,83.754 77.5274,83.773 C77.4133,83.788 77.3285,83.879 77.3154,83.988 C77.3154,83.988 77.2873,84.221 77.2593,84.57 C77.2271,84.92 77.2062,85.386 77.1811,85.851 C77.1692,86.317 77.1572,86.782 77.1482,87.132 C77.1658,87.174 77.2854,87.214 77.2716,87.253 C77.128,87.345 77.0304,87.492 77.0069,87.669 C76.9807,87.705 76.8865,87.609 76.8397,87.613 C76.5327,87.78 76.1232,88.002 75.7138,88.224 C75.3103,88.458 74.9049,88.688 74.608,88.875 C74.3096,89.059 74.1144,89.189 74.1144,89.189 C74.0232,89.251 73.9809,89.368 74.0187,89.476 C74.0639,89.605 74.2049,89.673 74.3336,89.628 C74.3336,89.628 74.5549,89.551 74.881,89.422 C75.2089,89.297 75.6364,89.111 76.0657,88.928 C76.489,88.734 76.9123,88.54 77.2301,88.394 C77.2582,88.363 77.2488,88.26 77.2795,88.24 C77.2907,88.247 77.3,88.256 77.3116,88.262 L77.1879,94.364 L76.9784,94.364 L76.8386,98.782 L78.3299,98.782 L78.19,94.364 L77.9806,94.364 L77.8568,88.262 C77.8684,88.255 77.8781,88.247 77.889,88.24 C77.9193,88.26 77.9107,88.362 77.9384,88.394 C78.2558,88.54 78.6791,88.734 79.1028,88.928 C79.5321,89.111 79.9595,89.297 80.2875,89.422 C80.6135,89.551 80.8349,89.628 80.8349,89.628 C80.9639,89.673 81.1049,89.605 81.1498,89.476 C81.189,89.368 81.1468,89.251 81.0555,89.189 Z" id="Path" fill="#74FF9E" fill-rule="nonzero"></path>
                            <path d="M81.0555,89.636 C81.0555,89.636 80.8607,89.505 80.5619,89.322 C80.265,89.134 79.8597,88.904 79.4562,88.67 C79.0467,88.448 78.6376,88.226 78.3303,88.059 C78.2835,88.055 78.1893,88.151 78.1631,88.115 C78.1399,87.939 78.0438,87.794 77.9025,87.702 C77.9013,87.7 77.8983,87.699 77.898,87.697 C77.8752,87.658 78.0045,87.615 78.0221,87.571 C78.0075,87.223 77.9885,86.757 77.969,86.291 C77.9365,85.826 77.9084,85.361 77.8707,85.012 C77.8374,84.663 77.8056,84.431 77.8056,84.431 C77.7873,84.295 77.6628,84.201 77.5274,84.219 C77.4133,84.234 77.3285,84.326 77.3154,84.434 C77.3154,84.434 77.2873,84.667 77.2593,85.017 C77.2271,85.366 77.2062,85.832 77.1811,86.297 C77.1692,86.763 77.1572,87.229 77.1482,87.578 C77.1658,87.62 77.2855,87.66 77.2716,87.699 C77.128,87.791 77.0304,87.938 77.0069,88.115 C76.9807,88.151 76.8865,88.056 76.8397,88.059 C76.5327,88.226 76.1232,88.448 75.7138,88.67 C75.3103,88.904 74.9049,89.135 74.608,89.322 C74.3096,89.505 74.1144,89.636 74.1144,89.636 C74.0232,89.697 73.9809,89.814 74.0187,89.922 C74.0639,90.051 74.2049,90.119 74.3336,90.074 C74.3336,90.074 74.5549,89.997 74.881,89.868 C75.2089,89.743 75.6364,89.557 76.0657,89.375 C76.489,89.181 76.9123,88.986 77.2301,88.841 C77.2582,88.809 77.2488,88.706 77.2795,88.686 C77.2907,88.693 77.3,88.702 77.3116,88.708 L77.1879,94.81 L76.9784,94.81 L76.8397,99.228 L78.331,99.228 L78.1911,94.81 L77.9817,94.81 L77.858,88.708 C77.8696,88.702 77.8793,88.693 77.8901,88.686 C77.9204,88.706 77.9118,88.808 77.9395,88.841 C78.257,88.986 78.6803,89.181 79.1039,89.375 C79.5332,89.557 79.9606,89.743 80.2886,89.868 C80.6147,89.997 80.836,90.074 80.836,90.074 C80.965,90.119 81.106,90.051 81.1509,89.922 C81.189,89.814 81.1468,89.697 81.0555,89.636 Z" id="Path" fill="#FFAB2F" fill-rule="nonzero"></path>
                            <path d="M26.5115,73.522 C26.5115,73.522 26.2546,73.349 25.8612,73.108 C25.4701,72.861 24.9361,72.557 24.4044,72.249 C23.8651,71.957 23.3255,71.664 22.9209,71.444 C22.8592,71.439 22.7355,71.565 22.7007,71.517 C22.67,71.286 22.5436,71.095 22.357,70.973 C22.3555,70.971 22.3514,70.969 22.3511,70.967 C22.3211,70.915 22.4917,70.859 22.5148,70.801 C22.4958,70.341 22.4703,69.728 22.4449,69.115 C22.4023,68.502 22.3649,67.888 22.3155,67.429 C22.2714,66.969 22.2299,66.663 22.2299,66.663 C22.2056,66.484 22.0414,66.359 21.8631,66.384 C21.7131,66.404 21.6009,66.524 21.5837,66.668 C21.5837,66.668 21.5471,66.975 21.5101,67.435 C21.4678,67.895 21.4401,68.509 21.4068,69.123 C21.3911,69.736 21.3751,70.35 21.3631,70.81 C21.3863,70.866 21.5441,70.918 21.5258,70.97 C21.3365,71.091 21.2079,71.285 21.1769,71.518 C21.1421,71.566 21.0183,71.44 20.9566,71.445 C20.552,71.664 20.0128,71.957 19.47319,72.25 C18.94145,72.558 18.40746,72.861 18.01631,73.108 C17.62293,73.35 17.36603,73.522 17.36603,73.522 C17.24599,73.603 17.1899,73.757 17.24001,73.9 C17.29947,74.07 17.48532,74.159 17.65509,74.1 C17.65509,74.1 17.94713,73.998 18.37642,73.829 C18.80832,73.664 19.37148,73.419 19.93726,73.179 C20.4952,72.923 21.0531,72.667 21.4715,72.475 C21.5082,72.433 21.4962,72.298 21.5366,72.271 C21.5512,72.28 21.5639,72.292 21.5792,72.3 L21.4162,80.34 L21.1402,80.34 L20.9559,86.162 L22.9209,86.162 L22.7366,80.34 L22.4606,80.34 L22.2976,72.3 C22.3129,72.292 22.3256,72.28 22.3402,72.271 C22.3802,72.298 22.3686,72.433 22.4053,72.475 C22.8237,72.667 23.3816,72.922 23.9396,73.179 C24.505,73.419 25.0685,73.664 25.5004,73.829 C25.9301,73.998 26.2217,74.1 26.2217,74.1 C26.3915,74.16 26.5773,74.07 26.6368,73.9 C26.6873,73.757 26.6316,73.603 26.5115,73.522 Z" id="Path" fill="#FFAB2F" fill-rule="nonzero"></path>
                            <path d="M47.0924,80.39 C47.0924,80.39 46.8804,80.248 46.5554,80.048 C46.2324,79.844 45.7915,79.594 45.3525,79.339 C44.9071,79.098 44.4617,78.856 44.1274,78.674 C44.0766,78.671 43.9741,78.775 43.9457,78.735 C43.9203,78.544 43.8159,78.386 43.6619,78.285 C43.6604,78.284 43.6574,78.282 43.6574,78.282 C43.6323,78.238 43.7733,78.191 43.792,78.143 C43.7763,77.763 43.7554,77.257 43.7344,76.75 C43.6993,76.244 43.6682,75.738 43.6275,75.358 C43.5912,74.979 43.5568,74.726 43.5568,74.726 C43.537,74.578 43.4012,74.475 43.2539,74.495 C43.1301,74.512 43.0374,74.611 43.0232,74.73 C43.0232,74.73 42.9929,74.983 42.9622,75.363 C42.9275,75.744 42.9043,76.25 42.877,76.757 C42.8639,77.264 42.8508,77.771 42.8411,78.15 C42.8601,78.196 42.9907,78.24 42.9757,78.282 C42.8194,78.382 42.7132,78.542 42.6878,78.735 C42.6593,78.774 42.5569,78.67 42.506,78.674 C42.1717,78.855 41.7264,79.097 41.281,79.339 C40.842,79.594 40.4007,79.844 40.078,80.048 C39.7531,80.248 39.541,80.39 39.541,80.39 C39.4419,80.457 39.3956,80.584 39.4371,80.702 C39.4861,80.842 39.6398,80.916 39.7796,80.867 C39.7796,80.867 40.0208,80.783 40.3753,80.643 C40.732,80.507 41.1972,80.304 41.6643,80.106 C42.125,79.895 42.5857,79.683 42.9312,79.525 C42.9615,79.49 42.9518,79.379 42.985,79.357 C42.997,79.364 43.0075,79.374 43.0202,79.38 L42.8856,86.02 L42.6575,86.02 L42.5053,90.829 L44.1282,90.829 L43.976,86.02 L43.7479,86.02 L43.6133,79.38 C43.626,79.374 43.6364,79.364 43.6484,79.357 C43.6817,79.379 43.672,79.49 43.7023,79.525 C44.0478,79.683 44.5085,79.895 44.9692,80.106 C45.4362,80.304 45.9014,80.507 46.2582,80.643 C46.613,80.783 46.8538,80.867 46.8538,80.867 C46.9941,80.916 47.1474,80.842 47.1964,80.702 C47.2375,80.584 47.1915,80.457 47.0924,80.39 Z" id="Path" fill="#FFAB2F" fill-rule="nonzero"></path>
                            <path d="M82.4169,137.638 L119.661,99.61 C79.5764,99.61 56.5763,82.156 0.07516,81.684 C0.04487,82.672 0,83.657 0,84.653 C0,103.095 5.22771,120.311 14.26402,134.923 C34.0183,135.807 82.4169,137.638 82.4169,137.638 Z" id="Path" fill="#FECCA1" fill-rule="nonzero"></path>
                            <path d="M0.0748,81.302 C0.07293,81.359 0.07218,81.418 0.07031,81.476 C51.2536,84.846 63.6005,100.921 86.7542,104.226 C86.7542,104.226 103.2077,106.333 113.678,105.337 L119.661,99.228 C79.576,99.228 56.576,81.774 0.0748,81.302 Z" id="Path" fill="#FFAB2F" fill-rule="nonzero"></path>
                            <path d="M21.6885,113.508 C34.9111,118.554 129.623,102.51 189.812,101.694 C190.501,97.949 191.013,94.143 191.253,90.259 C141.725,90.313 75.087,110.065 23.3379,112.107 L21.6885,113.508 Z" id="Path" fill="#FFAB2F" fill-rule="nonzero"></path>
                            <path d="M53.0049,63.71 C52.9338,61.994 52.8389,59.705 52.7439,57.417 C52.585,55.129 52.4451,52.841 52.2607,51.125 C52.0966,49.41 51.941,48.266 51.941,48.266 C51.8509,47.601 51.2384,47.135 50.5728,47.225 C50.0126,47.301 49.5938,47.748 49.5295,48.285 C49.5295,48.285 49.3919,49.431 49.2542,51.149 C49.0968,52.867 48.9925,55.157 48.8691,57.447 C48.8096,59.737 48.7506,62.026 48.7061,63.743 C48.7954,63.957 49.4352,64.158 49.326,64.355 C49.3234,64.369 49.292,64.384 49.2808,64.398 C50.3439,64.292 51.4183,64.283 52.484,64.416 C52.4485,64.387 52.3991,64.359 52.3935,64.331 C52.2824,64.136 52.9189,63.925 53.0049,63.71 Z" id="Path" fill="#FFFFFF" fill-rule="nonzero"></path>
                            <polygon id="Path" fill="#FFFCE5" fill-rule="nonzero" points="52.8157 99.859 48.8945 99.859 49.5482 67.681 52.162 67.681"></polygon>
                            <polygon id="Path" fill="#E9DCB8" fill-rule="nonzero" points="54.5232 121.036 47.1895 121.036 47.8768 99.309 53.8359 99.309"></polygon>
                            <path d="M48.0357,66.325 C48.0275,66.342 48.029,66.376 48.017,66.385 C47.8914,66.572 47.4221,66.093 47.191,66.111 C45.6814,66.93 43.6681,68.023 41.6552,69.115 C39.671,70.265 37.6779,71.398 36.2188,72.319 C34.7507,73.221 33.7926,73.864 33.7926,73.864 C33.3439,74.165 33.1356,74.742 33.3222,75.275 C33.544,75.909 34.2373,76.243 34.8711,76.021 C34.8711,76.021 35.9604,75.64 37.5635,75.007 C39.1755,74.393 41.2775,73.478 43.388,72.581 C45.4701,71.625 47.5519,70.671 49.1134,69.955 C49.266,69.78 49.1647,69.117 49.389,69.129 C49.4174,69.121 49.4649,69.152 49.5061,69.171 C48.9044,68.282 48.4235,67.321 48.0357,66.325 Z" id="Path" fill="#FFFFFF" fill-rule="nonzero"></path>
                            <path d="M53.6754,66.325 C53.6836,66.341 53.6822,66.376 53.6941,66.385 C53.8198,66.572 54.2891,66.093 54.5202,66.11 C56.0298,66.93 58.0431,68.022 60.056,69.115 C62.0401,70.265 64.0332,71.398 65.4924,72.319 C66.9605,73.221 67.9185,73.864 67.9185,73.864 C68.3672,74.165 68.5755,74.741 68.3889,75.275 C68.1672,75.909 67.4739,76.243 66.8401,76.021 C66.8401,76.021 65.7508,75.64 64.1477,75.007 C62.5356,74.392 60.4337,73.478 58.3231,72.58 C56.241,71.625 54.1593,70.671 52.5977,69.954 C52.4452,69.78 52.5465,69.117 52.3221,69.129 C52.2937,69.121 52.2462,69.152 52.2051,69.171 C52.8068,68.282 53.2876,67.32 53.6754,66.325 Z" id="Path" fill="#FFFFFF" fill-rule="nonzero"></path>
                            <path d="M50.8556,69.67 C52.4667,69.67 53.7727,68.364 53.7727,66.753 C53.7727,65.142 52.4667,63.836 50.8556,63.836 C49.2445,63.836 47.9385,65.142 47.9385,66.753 C47.9385,68.364 49.2445,69.67 50.8556,69.67 Z" id="Path" fill="#E9DCB8" fill-rule="nonzero"></path>
                            <path d="M98.6512,50.827 C98.5544,48.493 98.4253,45.381 98.2967,42.27 C98.0806,39.159 97.8906,36.048 97.6401,33.715 C97.4168,31.383 97.2055,29.828 97.2055,29.828 C97.0829,28.924 96.2501,28.29 95.3452,28.413 C94.5835,28.516 94.0143,29.125 93.9265,29.854 C93.9265,29.854 93.7395,31.412 93.5525,33.747 C93.3382,36.083 93.1965,39.197 93.029,42.311 C92.9482,45.424 92.8678,48.537 92.8076,50.872 C92.9288,51.162 93.7989,51.435 93.6505,51.702 C93.6467,51.723 93.6041,51.742 93.5892,51.762 C95.0348,51.618 96.4954,51.606 97.9445,51.786 C97.8962,51.748 97.8289,51.71 97.8211,51.67 C97.6689,51.406 98.5342,51.119 98.6512,50.827 Z" id="Path" fill="#FFFFFF" fill-rule="nonzero"></path>
                            <polygon id="Path" fill="#FFFCE5" fill-rule="nonzero" points="98.3951 99.977 93.0635 99.977 93.9523 56.225 97.5063 56.225"></polygon>
                            <polygon id="Path" fill="#E9DCB8" fill-rule="nonzero" points="100.7147 128.77 90.7432 128.77 91.678 99.229 99.7798 99.229"></polygon>
                            <path d="M91.895,54.382 C91.8842,54.405 91.886,54.452 91.87,54.464 C91.6991,54.718 91.0611,54.067 90.7466,54.09 C88.6941,55.205 85.9568,56.69 83.2199,58.176 C80.5219,59.74 77.8123,61.28 75.8282,62.531 C73.8321,63.759 72.5293,64.633 72.5293,64.633 C71.9194,65.042 71.6359,65.826 71.8899,66.551 C72.1912,67.413 73.134,67.867 73.9959,67.566 C73.9959,67.566 75.4767,67.048 77.6564,66.188 C79.8481,65.351 82.7061,64.108 85.5758,62.888 C88.4065,61.59 91.2372,60.292 93.3601,59.318 C93.5676,59.081 93.4297,58.18 93.7348,58.195 C93.7733,58.184 93.838,58.227 93.8941,58.252 C93.0763,57.042 92.4226,55.735 91.895,54.382 Z" id="Path" fill="#FFFFFF" fill-rule="nonzero"></path>
                            <path d="M99.5645,54.382 C99.5754,54.405 99.5735,54.452 99.5896,54.464 C99.7605,54.718 100.3984,54.067 100.7129,54.09 C102.7655,55.205 105.5027,56.69 108.2396,58.176 C110.938,59.74 113.647,61.28 115.631,62.531 C117.627,63.759 118.93,64.633 118.93,64.633 C119.54,65.042 119.824,65.826 119.57,66.551 C119.268,67.413 118.326,67.867 117.464,67.566 C117.464,67.566 115.983,67.048 113.803,66.188 C111.611,65.351 108.7534,64.108 105.8838,62.888 C103.053,61.59 100.2223,60.292 98.0994,59.318 C97.8919,59.081 98.0299,58.18 97.7247,58.195 C97.6862,58.184 97.6215,58.227 97.5654,58.252 C98.3832,57.042 99.0369,55.735 99.5645,54.382 Z" id="Path" fill="#FFFFFF" fill-rule="nonzero"></path>
                            <path d="M95.7301,58.93 C97.9207,58.93 99.6965,57.155 99.6965,54.964 C99.6965,52.773 97.9207,50.998 95.7301,50.998 C93.5395,50.998 91.7637,52.773 91.7637,54.964 C91.7637,57.155 93.5395,58.93 95.7301,58.93 Z" id="Path" fill="#E9DCB8" fill-rule="nonzero"></path>
                            <path d="M142.751,63.71 C142.68,61.994 142.585,59.705 142.49,57.417 C142.331,55.129 142.191,52.841 142.007,51.125 C141.843,49.41 141.687,48.266 141.687,48.266 C141.597,47.601 140.984,47.135 140.319,47.225 C139.759,47.301 139.34,47.748 139.276,48.285 C139.276,48.285 139.138,49.431 139,51.149 C138.843,52.867 138.739,55.157 138.615,57.447 C138.556,59.737 138.497,62.026 138.452,63.743 C138.542,63.957 139.181,64.158 139.072,64.355 C139.07,64.369 139.038,64.384 139.027,64.398 C140.09,64.292 141.164,64.283 142.23,64.416 C142.195,64.387 142.145,64.359 142.14,64.331 C142.029,64.136 142.665,63.925 142.751,63.71 Z" id="Path" fill="#FFFFFF" fill-rule="nonzero"></path>
                            <polygon id="Path" fill="#FFFCE5" fill-rule="nonzero" points="142.562 99.859 138.641 99.859 139.294 67.681 141.908 67.681"></polygon>
                            <polygon id="Path" fill="#E9DCB8" fill-rule="nonzero" points="144.269 121.036 136.936 121.036 137.623 99.309 143.582 99.309"></polygon>
                            <path d="M137.782,66.325 C137.774,66.342 137.775,66.376 137.763,66.385 C137.637,66.572 137.168,66.093 136.937,66.111 C135.427,66.93 133.414,68.023 131.401,69.115 C129.417,70.265 127.424,71.398 125.965,72.319 C124.497,73.221 123.539,73.864 123.539,73.864 C123.09,74.165 122.882,74.742 123.068,75.275 C123.29,75.909 123.983,76.243 124.617,76.021 C124.617,76.021 125.706,75.64 127.31,75.007 C128.922,74.393 131.024,73.478 133.134,72.581 C135.216,71.625 137.298,70.671 138.86,69.955 C139.012,69.78 138.911,69.117 139.135,69.129 C139.164,69.121 139.211,69.152 139.252,69.171 C138.65,68.282 138.17,67.321 137.782,66.325 Z" id="Path" fill="#FFFFFF" fill-rule="nonzero"></path>
                            <path d="M143.422,66.325 C143.43,66.341 143.428,66.376 143.44,66.385 C143.566,66.572 144.035,66.093 144.266,66.11 C145.776,66.93 147.789,68.022 149.802,69.115 C151.786,70.265 153.779,71.398 155.238,72.319 C156.707,73.221 157.665,73.864 157.665,73.864 C158.113,74.165 158.322,74.741 158.135,75.275 C157.913,75.909 157.22,76.243 156.586,76.021 C156.586,76.021 155.497,75.64 153.894,75.007 C152.282,74.392 150.18,73.478 148.069,72.58 C145.987,71.625 143.905,70.671 142.344,69.954 C142.191,69.78 142.293,69.117 142.068,69.129 C142.04,69.121 141.992,69.152 141.951,69.171 C142.553,68.282 143.034,67.32 143.422,66.325 Z" id="Path" fill="#FFFFFF" fill-rule="nonzero"></path>
                            <path d="M140.602,69.67 C142.213,69.67 143.519,68.364 143.519,66.753 C143.519,65.142 142.213,63.836 140.602,63.836 C138.991,63.836 137.685,65.142 137.685,66.753 C137.685,68.364 138.991,69.67 140.602,69.67 Z" id="Path" fill="#E9DCB8" fill-rule="nonzero"></path>
                            <g id="Group" opacity="0.6" stroke-width="1" fill="none" fill-rule="evenodd" transform="translate(75.000000, 9.000000)">
                                <path d="M33.1421,4.965 C32.3605,4.965 31.6224,5.119 30.9145,5.342 C28.6723,2.119 24.9535,0 20.7298,0 C16.5061,0 12.7873,2.119 10.5451,5.342 C9.8372,5.119 9.0987,4.965 8.3175,4.965 C4.2046,4.965 0.8701,8.299 0.8701,12.412 L40.589,12.412 C40.589,8.299 37.255,4.965 33.1421,4.965 Z" id="Path" fill="#FFFFFF" fill-rule="nonzero"></path>
                            </g>
                            <g id="Group" opacity="0.6" stroke-width="1" fill="none" fill-rule="evenodd" transform="translate(26.000000, 41.000000)">
                                <path d="M20.2414,3.929 C19.7571,3.929 19.2998,4.025 18.8612,4.163 C17.472,2.166 15.1681,0.854 12.5513,0.854 C9.9348,0.854 7.6306,2.166 6.2414,4.163 C5.8027,4.025 5.3454,3.929 4.8611,3.929 C2.3131,3.929 0.2471,5.995 0.2471,8.543 L24.8555,8.543 C24.8555,5.995 22.7898,3.929 20.2414,3.929 Z" id="Path" fill="#FFFFFF" fill-rule="nonzero"></path>
                            </g>
                            <path d="M126.151,45.649 C125.743,45.649 125.357,45.73 124.987,45.846 C123.814,44.161 121.87,43.053 119.661,43.053 C117.453,43.053 115.508,44.161 114.336,45.846 C113.966,45.73 113.58,45.649 113.171,45.649 C111.021,45.649 109.2773,47.393 109.2773,49.543 L130.045,49.543 C130.045,47.393 128.302,45.649 126.151,45.649 Z" id="Path" fill="#FFFFFF" fill-rule="nonzero"></path>
                            <g id="Group" opacity="0.6" stroke-width="1" fill="none" fill-rule="evenodd" transform="translate(61.000000, 48.000000)">
                                <path d="M0.9297,6.791 C0.9297,4.468 2.8129,2.585 5.1358,2.585 C5.4865,2.585 5.8216,2.64 6.1473,2.721 C7.2448,1.535 8.8008,0.782 10.5437,0.782 C13.8621,0.782 16.5522,3.472 16.5522,6.79 L0.9297,6.79 L0.9297,6.791 Z" id="Path" fill="#FFFFFF" fill-rule="nonzero"></path>
                            </g>
                            <g id="Group" opacity="0.6" stroke-width="1" fill="none" fill-rule="evenodd" transform="translate(132.000000, 27.000000)">
                                <path d="M14.725,6.891 C11.3,6.891 8.524,9.668 8.524,13.092 L31.556,13.092 C31.556,8.2 27.59,4.234 22.697,4.234 C21.625,4.234 20.617,4.466 19.67,4.819 C19.077,3.55 17.809,2.658 16.316,2.658 C15.926,2.658 15.556,2.735 15.202,2.847 C14.081,1.235 12.221,0.176 10.11,0.176 C7.998,0.176 6.138,1.235 5.017,2.847 C4.664,2.735 4.294,2.658 3.903,2.658 C1.847,2.658 0.18,4.325 0.18,6.382 L17.016,6.382 C16.745,6.614 16.459,6.83 16.216,7.092 C15.736,6.973 15.242,6.891 14.725,6.891 Z" id="Path" fill="#FFFFFF" fill-rule="nonzero"></path>
                            </g>
                        </g>
                    </g>
                </g>
            </g>
        </g>
    </g>
</svg>