<svg width="32" height="32" viewBox="0 0 32 32" fill="none" xmlns="http://www.w3.org/2000/svg">
<path fill-rule="evenodd" clip-rule="evenodd" d="M10.3482 7.53922C12.0222 6.42065 13.9904 5.82361 16.0038 5.82361C18.7026 5.82688 21.29 6.90045 23.1984 8.80883C25.1067 10.7172 26.1803 13.3046 26.1836 16.0034C26.1836 18.0168 25.5865 19.985 24.4679 21.659C23.3494 23.3331 21.7595 24.6379 19.8994 25.4084C18.0393 26.1789 15.9925 26.3805 14.0178 25.9877C12.0431 25.5949 10.2292 24.6253 8.80557 23.2017C7.3819 21.778 6.41237 19.9641 6.01958 17.9894C5.62679 16.0147 5.82839 13.9679 6.59887 12.1078C7.36935 10.2477 8.67412 8.6578 10.3482 7.53922ZM30.3137 12.1321C30.4446 12.6246 30.6816 13.0825 31.008 13.4738L31.0044 13.4701C32.3511 15.5853 32.314 16.4724 31 18.5317C30.6749 18.9226 30.439 19.3799 30.3088 19.8714C30.1785 20.3629 30.1571 20.877 30.246 21.3777C30.3413 23.7554 29.9683 24.5138 27.7534 25.6677C27.2738 25.8426 26.8382 26.1203 26.4772 26.4813C26.1162 26.8423 25.8385 27.2779 25.6637 27.7575C24.5177 29.9593 23.7673 30.3475 21.3736 30.2501C20.8732 30.1611 20.3593 30.1824 19.868 30.3127C19.3767 30.4429 18.9197 30.6789 18.5291 31.0041C16.4131 32.3508 15.526 32.313 13.469 31.0041C13.0779 30.6792 12.6207 30.4434 12.1292 30.3131C11.6377 30.1829 11.1237 30.1614 10.623 30.2501C8.21768 30.3483 7.47383 29.9469 6.33297 27.7575C6.15855 27.2774 5.88115 26.8413 5.52027 26.4797C5.15938 26.1182 4.72374 25.8401 4.24393 25.6648C2.02474 24.5094 1.65681 23.7496 1.75206 21.3748C1.84102 20.8739 1.81942 20.3597 1.6888 19.8681C1.55817 19.3765 1.32167 18.9194 0.995852 18.5288C-0.350789 16.4128 -0.312978 15.5257 0.995852 13.4687C1.3209 13.0776 1.55681 12.6204 1.68716 12.1289C1.81751 11.6374 1.83916 11.1234 1.75061 10.6227C1.65536 8.24496 2.02765 7.48729 4.24248 6.33261C4.72219 6.15791 5.15788 5.8804 5.519 5.51952C5.88013 5.15865 6.15794 4.72315 6.33297 4.24356C7.48328 2.03308 8.22786 1.65934 10.623 1.75168C11.1244 1.84084 11.6393 1.8195 12.1316 1.68914C12.6239 1.55878 13.0818 1.32254 13.4734 0.99692C15.5806 -0.345363 16.4677 -0.319186 18.5334 0.99692C18.9245 1.32174 19.3816 1.55747 19.8729 1.68769C20.3643 1.81791 20.8781 1.8395 21.3787 1.75095C23.7782 1.65279 24.5242 2.04908 25.6687 4.24356C25.8432 4.7231 26.1206 5.15862 26.4814 5.51952C26.8422 5.88042 27.2776 6.15795 27.7571 6.33261C29.9653 7.48002 30.3464 8.23114 30.2504 10.6227C30.1612 11.1244 30.1828 11.6396 30.3137 12.1321ZM9.54024 25.6768C11.4534 26.9552 13.7028 27.6375 16.0038 27.6375C19.0882 27.6341 22.0454 26.4072 24.2264 24.2262C26.4075 22.0451 27.6343 19.0879 27.6378 16.0034C27.6378 13.7024 26.9555 11.4531 25.6771 9.53989C24.3988 7.62667 22.5818 6.1355 20.4559 5.25494C18.3301 4.37439 15.9909 4.14399 13.7341 4.5929C11.4773 5.0418 9.40431 6.14984 7.77726 7.7769C6.15021 9.40395 5.04217 11.477 4.59327 13.7337C4.14437 15.9905 4.37476 18.3298 5.25531 20.4556C6.13587 22.5815 7.62703 24.3985 9.54024 25.6768ZM10.709 12.1212C10.3184 11.7306 10.3184 11.0975 10.709 10.707C11.0995 10.3164 11.7327 10.3164 12.1232 10.707L15.6585 14.2423L19.1937 10.7071C19.5843 10.3166 20.2174 10.3166 20.608 10.7071C20.9985 11.0976 20.9985 11.7308 20.608 12.1213L17.0728 15.6565L20.6085 19.1922C20.999 19.5828 20.999 20.2159 20.6085 20.6065C20.2179 20.997 19.5848 20.997 19.1943 20.6065L15.6585 17.0707L12.1227 20.6066C11.7321 20.9971 11.099 20.9971 10.7085 20.6066C10.3179 20.2161 10.3179 19.5829 10.7085 19.1924L14.2443 15.6565L10.709 12.1212Z" fill="#F18182"/>
</svg>
