<svg width="32" height="32" viewBox="0 0 32 32" fill="none" xmlns="http://www.w3.org/2000/svg">
<path d="M16.0038 5.82361C13.9904 5.82361 12.0222 6.42065 10.3482 7.53922C8.67412 8.6578 7.36935 10.2477 6.59887 12.1078C5.82839 13.9679 5.62679 16.0147 6.01958 17.9894C6.41237 19.9641 7.3819 21.778 8.80557 23.2017C10.2292 24.6253 12.0431 25.5949 14.0178 25.9877C15.9925 26.3805 18.0393 26.1789 19.8994 25.4084C21.7595 24.6379 23.3494 23.3331 24.468 21.659C25.5865 19.985 26.1836 18.0168 26.1836 16.0034C26.1803 13.3046 25.1067 10.7172 23.1984 8.80883C21.29 6.90045 18.7026 5.82688 16.0038 5.82361ZM23.1114 12.8281L17.7423 19.3897C17.5328 19.6459 17.2677 19.8511 16.9671 19.9897C16.6666 20.1283 16.3384 20.1967 16.0075 20.1897C15.6766 20.1827 15.3516 20.1005 15.0572 19.9493C14.7628 19.7981 14.5066 19.5818 14.3081 19.317L11.0593 14.9855C11.002 14.9091 10.9603 14.8221 10.9366 14.7296C10.9129 14.6371 10.9077 14.5409 10.9212 14.4463C10.9347 14.3518 10.9667 14.2609 11.0153 14.1787C11.064 14.0965 11.1283 14.0248 11.2047 13.9675C11.2811 13.9102 11.368 13.8685 11.4605 13.8448C11.553 13.8211 11.6493 13.8159 11.7438 13.8294C11.8384 13.8429 11.9293 13.8749 12.0115 13.9235C12.0936 13.9722 12.1654 14.0365 12.2227 14.1129L15.4722 18.4451C15.5384 18.5334 15.6238 18.6054 15.7219 18.6557C15.8201 18.7061 15.9284 18.7335 16.0386 18.7358C16.1489 18.7381 16.2583 18.7153 16.3584 18.6691C16.4586 18.6229 16.5469 18.5545 16.6167 18.4691L21.9851 11.9068C22.1072 11.7574 22.2836 11.6627 22.4755 11.6434C22.6675 11.6241 22.8592 11.6818 23.0086 11.8039C23.1579 11.926 23.2527 12.1024 23.272 12.2943C23.2913 12.4862 23.2335 12.678 23.1114 12.8273V12.8281ZM31.008 13.4738C30.6816 13.0825 30.4446 12.6246 30.3137 12.1321C30.1828 11.6396 30.1612 11.1244 30.2504 10.6227C30.3464 8.23114 29.9653 7.48002 27.7571 6.33261C27.2776 6.15795 26.8422 5.88042 26.4814 5.51952C26.1206 5.15862 25.8432 4.7231 25.6687 4.24356C24.5242 2.04908 23.7782 1.65279 21.3787 1.75095C20.8781 1.8395 20.3643 1.81791 19.8729 1.68769C19.3816 1.55747 18.9245 1.32174 18.5334 0.99692C16.4677 -0.319186 15.5806 -0.345363 13.4734 0.99692C13.0818 1.32254 12.6239 1.55878 12.1316 1.68914C11.6393 1.8195 11.1244 1.84084 10.623 1.75168C8.22786 1.65934 7.48329 2.03308 6.33297 4.24356C6.15794 4.72315 5.88013 5.15865 5.519 5.51952C5.15788 5.8804 4.72219 6.15791 4.24248 6.33261C2.02765 7.48729 1.65536 8.24496 1.75061 10.6227C1.83916 11.1234 1.81751 11.6374 1.68716 12.1289C1.55681 12.6204 1.3209 13.0776 0.995852 13.4687C-0.312978 15.5257 -0.350789 16.4128 0.995852 18.5288C1.32167 18.9194 1.55817 19.3765 1.6888 19.8681C1.81942 20.3597 1.84102 20.8739 1.75206 21.3748C1.65681 23.7496 2.02474 24.5094 4.24393 25.6648C4.72374 25.8401 5.15938 26.1182 5.52027 26.4797C5.88115 26.8413 6.15855 27.2774 6.33297 27.7575C7.47383 29.9469 8.21768 30.3483 10.623 30.2501C11.1237 30.1614 11.6377 30.1829 12.1292 30.3131C12.6207 30.4434 13.0779 30.6792 13.469 31.0041C15.526 32.313 16.4131 32.3508 18.5291 31.0041C18.9197 30.6789 19.3767 30.4429 19.868 30.3127C20.3593 30.1824 20.8732 30.1611 21.3736 30.2501C23.7673 30.3475 24.5177 29.9593 25.6637 27.7575C25.8385 27.2779 26.1162 26.8423 26.4772 26.4813C26.8382 26.1203 27.2738 25.8426 27.7534 25.6677C29.9683 24.5138 30.3413 23.7554 30.246 21.3777C30.1571 20.877 30.1785 20.3629 30.3088 19.8714C30.439 19.3799 30.6749 18.9226 31 18.5317C32.314 16.4724 32.3511 15.5853 31.0044 13.4701L31.008 13.4738ZM16.0038 27.6375C13.7028 27.6375 11.4534 26.9552 9.54024 25.6768C7.62703 24.3985 6.13587 22.5815 5.25531 20.4556C4.37476 18.3298 4.14437 15.9905 4.59327 13.7337C5.04217 11.4769 6.15021 9.40395 7.77726 7.7769C9.40431 6.14984 11.4773 5.0418 13.7341 4.5929C15.9909 4.14399 18.3301 4.37439 20.4559 5.25494C22.5818 6.1355 24.3988 7.62667 25.6771 9.53989C26.9555 11.4531 27.6378 13.7024 27.6378 16.0034C27.6343 19.0879 26.4075 22.0451 24.2264 24.2262C22.0454 26.4072 19.0882 27.6341 16.0038 27.6375Z" fill="#FFAB2F"/>
</svg>
