<svg width="32" height="32" viewBox="0 0 32 32" fill="none" xmlns="http://www.w3.org/2000/svg">
<path fill-rule="evenodd" clip-rule="evenodd" d="M16 0C7.164 0 0 7.164 0 16C0 24.836 7.164 32 16 32C24.836 32 32 24.836 32 16C32 7.164 24.836 0 16 0ZM16 2.66675C23.352 2.66675 29.3334 8.64808 29.3334 16.0001C29.3334 23.3521 23.352 29.3334 16 29.3334C8.64802 29.3334 2.66669 23.3521 2.66669 16.0001C2.66669 8.64808 8.64802 2.66675 16 2.66675ZM10.6667 13.3333H13.3334V11.0773C13.3334 9.056 14.3974 8 16.7947 8H20V11.3333H18.0774C17.4614 11.3333 17.3334 11.5853 17.3334 12.2227V13.3333H20L19.76 16H17.3334V24H13.3334V16H10.6667V13.3333Z" fill="#2B5250"/>
</svg>
