<svg width="32" height="32" viewBox="0 0 32 32" fill="none" xmlns="http://www.w3.org/2000/svg">
<path fill-rule="evenodd" clip-rule="evenodd" d="M16 0C7.164 0 0 7.164 0 16C0 24.836 7.164 32 16 32C24.836 32 32 24.836 32 16C32 7.164 24.836 0 16 0ZM16 2.66675C23.352 2.66675 29.3333 8.64808 29.3333 16.0001C29.3333 23.3521 23.352 29.3334 16 29.3334C8.64796 29.3334 2.66663 23.3521 2.66663 16.0001C2.66663 8.64808 8.64796 2.66675 16 2.66675Z" fill="#2B5250"/>
<defs>
<mask id="medium-letters">
<rect width="32" height="32" fill="white"/>
<g transform="translate(6, 6) scale(0.01953)">
<path d="M1024 704.736V797.736C1018.16 798.3 1012.16 798.588 1006 798.588C896.061 798.588 834.166 707.016 831.497 592.432C831.418 588.002 831.448 583.6 831.546 579.228C831.606 576.501 831.714 573.783 831.852 571.075C831.921 569.628 831.989 568.269 832.098 566.753C832.206 565.236 832.315 563.72 832.443 562.204C836.401 511.613 852.687 466.594 879.568 433.284C896.267 412.606 916.334 396.852 939.09 386.316C959.078 376.253 987.17 370.699 1010.07 370.699H1011.06C1015.4 370.699 1019.71 370.844 1024 371.13V396.717C1019.45 395.47 1014.58 394.801 1009.4 394.715C963.086 395.67 935.486 451.145 932.049 528.007H1024V549.669H929.972L929.942 549.689C925.703 624.579 966.692 687.87 1024 704.736Z" fill="black"/>
<path d="M836.115 244.625L836.923 244.448V238.195H672.014L518.891 598.084L365.768 238.195H188.059V244.448L188.857 244.625C218.957 251.419 234.239 261.551 234.239 298.091V725.872C234.239 762.412 218.898 772.544 188.798 779.338L188 779.516V785.788H308.57V779.535L307.773 779.358C277.672 772.564 262.39 762.432 262.39 725.892V322.905L459.093 785.788H470.249L672.683 309.996V736.457C670.104 765.317 654.96 774.228 627.705 780.382L626.897 780.569V786.773H836.923V780.569L836.115 780.382C808.831 774.228 793.322 765.317 790.743 736.457L790.605 298.091H790.743C790.743 261.551 806.024 251.419 836.115 244.625Z" fill="black"/>
</g>
</mask>
</defs>
<g mask="url(#medium-letters)">
<rect x="6" y="6" width="20" height="20" rx="3.51" fill="#2B5250"/>
</g>
</svg>
