<svg width="233" height="184" viewBox="0 0 233 184" fill="none" xmlns="http://www.w3.org/2000/svg">
<path d="M40.5791 101.117C39.9645 101.253 39.3291 101.266 38.7093 101.156C38.0895 101.047 37.4973 100.816 36.9667 100.478C35.8949 99.7942 35.1386 98.7129 34.8641 97.4716C34.7281 96.8571 34.7146 96.2217 34.8242 95.6019C34.9338 94.9821 35.1645 94.3899 35.5029 93.8592C35.8414 93.3286 36.2811 92.8697 36.7969 92.509C37.3127 92.1482 37.8945 91.8926 38.5091 91.7567C39.7503 91.4822 41.0497 91.712 42.1215 92.3955C43.1932 93.0791 43.9496 94.1604 44.2241 95.4016C44.4986 96.6429 44.2687 97.9423 43.5852 99.0141C42.9016 100.086 41.8203 100.842 40.5791 101.117Z" fill="white"/>
<path d="M60.2291 80.1967C59.7237 80.2931 59.2005 80.191 58.7685 79.9116C58.3364 79.6322 58.0286 79.1971 57.9091 78.6967C57.8153 78.3073 57.8406 77.8988 57.9817 77.524C58.1228 77.1492 58.3731 76.8254 58.7003 76.5945C59.0275 76.3636 59.4164 76.2362 59.8168 76.2289C60.2172 76.2215 60.6106 76.3345 60.9461 76.5533C61.2815 76.7721 61.5435 77.0865 61.6982 77.4558C61.8529 77.8252 61.8932 78.2325 61.8138 78.625C61.7344 79.0176 61.539 79.3772 61.2529 79.6574C60.9668 79.9376 60.6032 80.1255 60.2091 80.1967H60.2291Z" fill="white"/>
<path d="M79.9788 83.9969C79.9302 83.6211 80.0192 83.2404 80.2292 82.9251C80.4393 82.6098 80.7564 82.381 81.1219 82.2811C81.4874 82.1812 81.8767 82.2169 82.218 82.3815C82.5592 82.5462 82.8295 82.8287 82.9788 83.1769C83.0765 83.5585 83.0281 83.9629 82.8431 84.3107C82.6581 84.6585 82.3498 84.9246 81.9788 85.0569C81.573 85.179 81.1355 85.1361 80.7611 84.9377C80.3867 84.7393 80.1056 84.4012 79.9788 83.9969Z" fill="white"/>
<path d="M43.8185 64.0767C44.1625 63.9915 44.5261 64.045 44.831 64.2256C45.1359 64.4062 45.3576 64.6995 45.4481 65.0421C45.5387 65.3847 45.4909 65.7491 45.3151 66.0568C45.1393 66.3645 44.8496 66.5907 44.5085 66.6867C44.1645 66.7719 43.8008 66.7184 43.4959 66.5378C43.191 66.3572 42.9694 66.0639 42.8788 65.7213C42.7883 65.3787 42.836 65.0142 43.0118 64.7066C43.1876 64.3989 43.4773 64.1726 43.8185 64.0767Z" fill="white"/>
<path d="M41.1083 85.9964C40.6183 85.9964 40.2983 85.7364 40.3183 85.3764C40.3182 85.2323 40.3748 85.0939 40.4758 84.991C40.5768 84.8882 40.7141 84.8291 40.8583 84.8264C40.9422 84.8107 41.0287 84.8155 41.1105 84.8404C41.1922 84.8654 41.2666 84.9097 41.3275 84.9696C41.3884 85.0295 41.4339 85.1032 41.4602 85.1845C41.4864 85.2658 41.4926 85.3522 41.4783 85.4364C41.3911 85.6447 41.2656 85.8346 41.1083 85.9964Z" fill="white"/>
<path d="M68.1483 93.4466C67.6583 93.4466 67.3383 93.1866 67.3583 92.8266C67.3583 92.6825 67.4149 92.5441 67.5158 92.4412C67.6168 92.3384 67.7542 92.2792 67.8983 92.2766C67.9823 92.2609 68.0688 92.2657 68.1505 92.2906C68.2322 92.3156 68.3067 92.3599 68.3676 92.4198C68.4284 92.4797 68.474 92.5534 68.5002 92.6347C68.5264 92.716 68.5327 92.8024 68.5183 92.8866C68.4314 93.095 68.3058 93.285 68.1483 93.4466Z" fill="white"/>
<path d="M32.5087 78.9964C32.0187 78.9964 31.6987 78.7364 31.7187 78.3764C31.7186 78.2323 31.7752 78.0939 31.8762 77.991C31.9772 77.8882 32.1145 77.8291 32.2587 77.8264C32.3426 77.8107 32.4291 77.8155 32.5108 77.8404C32.5925 77.8654 32.667 77.9097 32.7279 77.9696C32.7888 78.0295 32.8343 78.1032 32.8605 78.1845C32.8868 78.2658 32.893 78.3522 32.8787 78.4364C32.7915 78.6447 32.666 78.8346 32.5087 78.9964Z" fill="white"/>
<path d="M163.589 24.8963C164.557 24.5957 165.593 24.5892 166.565 24.8779C167.536 25.1665 168.401 25.7373 169.048 26.5177C169.695 27.2982 170.096 28.2532 170.2 29.2617C170.304 30.2703 170.106 31.287 169.631 32.1829C169.157 33.0788 168.427 33.8137 167.534 34.2943C166.641 34.7749 165.626 34.9796 164.617 34.8825C163.607 34.7854 162.65 34.3908 161.865 33.7488C161.08 33.1068 160.504 32.2463 160.209 31.2763C159.823 29.9821 159.961 28.5882 160.593 27.3948C161.226 26.2015 162.301 25.3042 163.589 24.8963Z" fill="white"/>
<path d="M195.409 79.2669C195.216 78.6681 195.143 78.0371 195.193 77.41C195.244 76.7829 195.418 76.1719 195.705 75.612C195.992 75.0521 196.386 74.5541 196.866 74.1466C197.345 73.7391 197.9 73.43 198.499 73.2369C199.098 73.0439 199.729 72.9707 200.356 73.0215C200.983 73.0723 201.594 73.2462 202.154 73.5331C203.285 74.1126 204.139 75.1176 204.529 76.3269C204.919 77.5363 204.812 78.8511 204.233 79.9819C203.653 81.1128 202.648 81.9671 201.439 82.3569C200.229 82.7468 198.915 82.6403 197.784 82.0608C196.653 81.4813 195.799 80.4763 195.409 79.2669Z" fill="white"/>
<path d="M223.679 47.0766C223.867 47.621 223.924 48.2022 223.846 48.773C223.768 49.3437 223.557 49.8881 223.229 50.3621C222.902 50.836 222.467 51.2262 221.961 51.501C221.455 51.7759 220.891 51.9277 220.315 51.9441C219.739 51.9606 219.167 51.8412 218.646 51.5957C218.125 51.3503 217.669 50.9855 217.315 50.5311C216.961 50.0766 216.719 49.5452 216.608 48.9798C216.498 48.4144 216.522 47.8309 216.679 47.2766V47.1166C216.868 46.3416 217.297 45.6458 217.903 45.1273C218.51 44.6087 219.264 44.2937 220.059 44.2266C220.887 44.254 221.685 44.5453 222.336 45.058C222.987 45.5706 223.458 46.2779 223.679 47.0766Z" fill="white"/>
<path d="M184.548 24.2569C185.141 24.0739 185.775 24.0706 186.369 24.2475C186.964 24.4244 187.493 24.7734 187.89 25.2507C188.286 25.7279 188.532 26.3119 188.597 26.9289C188.662 27.5459 188.543 28.1684 188.254 28.7176C187.965 29.2668 187.521 29.7183 186.976 30.0149C186.431 30.3116 185.81 30.4402 185.192 30.3845C184.574 30.3288 183.987 30.0913 183.504 29.7019C183.021 29.3126 182.664 28.7889 182.478 28.1969C182.352 27.8024 182.305 27.3866 182.341 26.9738C182.377 26.5611 182.494 26.1596 182.687 25.7929C182.88 25.4261 183.144 25.1014 183.463 24.8377C183.783 24.5739 184.152 24.3765 184.548 24.2569Z" fill="white"/>
<path d="M195.818 41.7562C196.038 42.4976 195.964 43.2953 195.609 43.9828C195.255 44.6703 194.65 45.1946 193.918 45.4462C193.152 45.6968 192.317 45.6346 191.596 45.2732C190.875 44.9118 190.326 44.2803 190.068 43.5162C189.931 43.1415 189.873 42.7423 189.897 42.3439C189.921 41.9455 190.028 41.5564 190.21 41.2013C190.393 40.8461 190.647 40.5326 190.956 40.2805C191.265 40.0283 191.624 39.843 192.008 39.7362C192.782 39.5072 193.614 39.5905 194.326 39.9682C195.038 40.3459 195.574 40.9878 195.818 41.7562Z" fill="white"/>
<path d="M179.439 65.1165C180.181 64.9008 180.977 64.9674 181.673 65.3035C182.369 65.6395 182.916 66.2212 183.209 66.9365C183.32 67.2751 183.361 67.6326 183.331 67.9876C183.301 68.3426 183.2 68.688 183.034 69.0033C182.868 69.3186 182.641 69.5972 182.365 69.8228C182.089 70.0484 181.771 70.2163 181.429 70.3165C180.694 70.5688 179.889 70.52 179.191 70.1809C178.492 69.8417 177.955 69.2398 177.699 68.5065C177.583 68.17 177.536 67.8135 177.561 67.4584C177.587 67.1034 177.683 66.7571 177.846 66.4404C178.009 66.1238 178.233 65.8433 178.507 65.6157C178.781 65.3882 179.098 65.2184 179.439 65.1165Z" fill="white"/>
<path d="M159.759 46.9061C159.618 46.4141 159.671 45.8869 159.908 45.4331C160.144 44.9792 160.545 44.6331 161.029 44.4661C161.407 44.3354 161.816 44.3212 162.202 44.4253C162.588 44.5295 162.935 44.7471 163.196 45.0501C163.457 45.3532 163.622 45.7276 163.668 46.1251C163.715 46.5226 163.64 46.9249 163.456 47.2798C163.271 47.6348 162.984 47.9262 162.632 48.1163C162.28 48.3064 161.879 48.3866 161.48 48.3463C161.082 48.306 160.705 48.1473 160.398 47.8905C160.091 47.6338 159.869 47.2908 159.759 46.9061Z" fill="white"/>
<path d="M218.079 96.866C217.938 96.374 217.992 95.8469 218.228 95.393C218.464 94.9391 218.865 94.5931 219.349 94.426C219.727 94.2954 220.136 94.2812 220.522 94.3853C220.909 94.4894 221.255 94.7071 221.516 95.0101C221.778 95.3131 221.942 95.6876 221.989 96.0851C222.035 96.4826 221.961 96.8848 221.776 97.2398C221.591 97.5948 221.304 97.8862 220.952 98.0763C220.6 98.2664 220.199 98.3465 219.801 98.3063C219.403 98.266 219.026 98.1072 218.719 97.8505C218.412 97.5937 218.189 97.2508 218.079 96.866Z" fill="white"/>
<path d="M128.618 35.3768C128.479 34.8822 128.535 34.3529 128.775 33.8986C129.015 33.4443 129.421 33.0999 129.908 32.9368C130.286 32.8061 130.695 32.7919 131.082 32.896C131.468 33.0002 131.814 33.2178 132.076 33.5208C132.337 33.8239 132.501 34.1983 132.548 34.5958C132.594 34.9933 132.52 35.3956 132.335 35.7505C132.151 36.1055 131.864 36.3969 131.511 36.587C131.159 36.7771 130.758 36.8573 130.36 36.817C129.962 36.7768 129.585 36.618 129.278 36.3612C128.971 36.1045 128.748 35.7615 128.638 35.3768H128.618Z" fill="white"/>
<path d="M207.639 13.2163C208.037 13.099 208.465 13.137 208.836 13.3226C209.207 13.5081 209.494 13.8275 209.639 14.2163C209.71 14.4208 209.738 14.6383 209.719 14.8542C209.7 15.0701 209.635 15.2795 209.529 15.4686C209.424 15.6577 209.279 15.8221 209.104 15.951C208.93 16.0799 208.731 16.1703 208.519 16.2163C208.322 16.2773 208.115 16.299 207.909 16.28C207.704 16.2611 207.504 16.2018 207.322 16.1057C206.953 15.9116 206.677 15.5791 206.554 15.1813C206.43 14.7834 206.47 14.3529 206.664 13.9844C206.858 13.6159 207.191 13.3396 207.589 13.2163H207.639Z" fill="white"/>
<path d="M179.459 47.2163C179.846 47.0823 180.27 47.1048 180.641 47.2792C181.011 47.4536 181.299 47.766 181.443 48.1497C181.586 48.5334 181.574 48.958 181.409 49.3329C181.244 49.7078 180.939 50.0033 180.559 50.1563C180.181 50.298 179.764 50.2899 179.392 50.1338C179.02 49.9776 178.722 49.6851 178.559 49.3163C178.479 49.1194 178.439 48.9087 178.441 48.6964C178.444 48.484 178.488 48.2742 178.572 48.079C178.655 47.8838 178.777 47.7071 178.929 47.559C179.081 47.411 179.261 47.2945 179.459 47.2163Z" fill="white"/>
<path d="M216.129 116.886C216.516 116.752 216.94 116.775 217.311 116.949C217.681 117.124 217.969 117.436 218.113 117.82C218.256 118.203 218.244 118.628 218.079 119.003C217.914 119.378 217.609 119.673 217.229 119.826C216.851 119.968 216.433 119.96 216.062 119.804C215.69 119.648 215.392 119.355 215.229 118.986C215.149 118.789 215.109 118.579 215.111 118.366C215.114 118.154 215.158 117.944 215.241 117.749C215.325 117.554 215.447 117.377 215.599 117.229C215.751 117.081 215.931 116.964 216.129 116.886Z" fill="white"/>
<path d="M153.248 0.866484C153.361 1.18841 153.348 1.54077 153.213 1.85377C153.078 2.16677 152.83 2.41757 152.518 2.55648C152.35 2.62794 152.169 2.66492 151.986 2.66525C151.803 2.66559 151.622 2.62926 151.453 2.55842C151.284 2.48758 151.132 2.38366 151.004 2.2528C150.876 2.12194 150.775 1.96678 150.708 1.79648C150.595 1.47487 150.608 1.12202 150.746 0.809863C150.883 0.497702 151.134 0.249727 151.448 0.116484C151.615 0.0420154 151.795 0.00241242 151.978 0.000106817C152.161 -0.00219878 152.342 0.0328417 152.51 0.103077C152.679 0.173312 152.831 0.27726 152.958 0.408538C153.085 0.539816 153.184 0.695654 153.248 0.866484Z" fill="white"/>
<path d="M232.579 78.9968C232.64 79.1636 232.667 79.3408 232.66 79.5182C232.652 79.6957 232.61 79.8699 232.535 80.031C232.461 80.1922 232.355 80.337 232.224 80.4572C232.093 80.5774 231.94 80.6708 231.774 80.7318C231.607 80.7929 231.43 80.8205 231.252 80.8131C231.075 80.8057 230.9 80.7634 230.739 80.6887C230.578 80.6139 230.433 80.5082 230.313 80.3774C230.193 80.2467 230.1 80.0936 230.039 79.9268C229.915 79.59 229.931 79.218 230.082 78.8926C230.233 78.5672 230.507 78.3152 230.844 78.1918C231.18 78.0685 231.552 78.084 231.878 78.235C232.203 78.386 232.455 78.66 232.579 78.9968Z" fill="white"/>
<path d="M146.748 28.8562C146.872 29.193 146.856 29.565 146.705 29.8904C146.554 30.2158 146.28 30.4679 145.943 30.5912C145.607 30.7145 145.235 30.699 144.909 30.548C144.584 30.3971 144.332 30.123 144.208 29.7862C144.085 29.4494 144.101 29.0774 144.252 28.752C144.403 28.4266 144.677 28.1745 145.013 28.0512C145.35 27.9279 145.722 27.9434 146.048 28.0944C146.373 28.2453 146.625 28.5194 146.748 28.8562Z" fill="white"/>
<path d="M146.989 32.3869C146.909 31.9069 147.179 31.5569 147.529 31.5369C147.672 31.5227 147.814 31.565 147.926 31.6547C148.039 31.7444 148.111 31.8744 148.129 32.0169C148.153 32.0985 148.157 32.1849 148.141 32.2685C148.125 32.3522 148.089 32.4307 148.036 32.4974C147.983 32.5641 147.914 32.6171 147.837 32.6518C147.759 32.6865 147.674 32.702 147.589 32.6969C147.371 32.6323 147.167 32.5271 146.989 32.3869Z" fill="white"/>
<path d="M210.548 78.3664C210.468 77.8864 210.738 77.5363 211.088 77.5163C211.231 77.5022 211.374 77.5445 211.486 77.6342C211.598 77.7239 211.671 77.8539 211.688 77.9963C211.713 78.078 211.717 78.1644 211.701 78.248C211.684 78.3317 211.648 78.4102 211.595 78.4769C211.542 78.5436 211.474 78.5966 211.396 78.6313C211.318 78.666 211.233 78.6815 211.148 78.6763C210.931 78.6118 210.727 78.5066 210.548 78.3664Z" fill="white"/>
<path d="M205.628 105.996C205.548 105.516 205.818 105.166 206.168 105.146C206.311 105.132 206.454 105.174 206.566 105.264C206.678 105.354 206.751 105.484 206.768 105.626C206.793 105.708 206.797 105.794 206.781 105.878C206.765 105.962 206.728 106.04 206.675 106.107C206.622 106.174 206.554 106.226 206.476 106.261C206.398 106.296 206.313 106.311 206.228 106.306C206.011 106.242 205.807 106.137 205.628 105.996Z" fill="white"/>
<path d="M127.409 10.2765C127.329 9.7965 127.599 9.4465 127.949 9.4265C128.092 9.41237 128.234 9.45466 128.346 9.54435C128.459 9.63404 128.531 9.76401 128.549 9.9065C128.573 9.98818 128.577 10.0745 128.561 10.1582C128.545 10.2418 128.509 10.3203 128.456 10.3871C128.403 10.4538 128.334 10.5068 128.257 10.5415C128.179 10.5762 128.094 10.5916 128.009 10.5865C127.791 10.5222 127.587 10.417 127.409 10.2765Z" fill="white"/>
<path d="M113.218 30.3663C113.138 29.8863 113.408 29.5363 113.758 29.5163C113.901 29.5022 114.044 29.5445 114.156 29.6342C114.268 29.7239 114.341 29.8539 114.358 29.9963C114.383 30.078 114.387 30.1643 114.371 30.248C114.354 30.3317 114.318 30.4102 114.265 30.4769C114.212 30.5436 114.144 30.5966 114.066 30.6313C113.988 30.666 113.903 30.6815 113.818 30.6763C113.6 30.6118 113.397 30.5066 113.218 30.3663Z" fill="white"/>
<path d="M216.638 69.1564C216.558 68.6764 216.828 68.3264 217.178 68.3064C217.321 68.2923 217.464 68.3345 217.576 68.4242C217.688 68.5139 217.761 68.6439 217.778 68.7864C217.802 68.8681 217.807 68.9544 217.79 69.038C217.774 69.1217 217.738 69.2002 217.685 69.2669C217.632 69.3337 217.564 69.3866 217.486 69.4214C217.408 69.4561 217.323 69.4715 217.238 69.4664C217.02 69.4018 216.817 69.2967 216.638 69.1564Z" fill="white"/>
<path d="M66.0984 152.187C64.7318 153.728 63.0862 154.997 61.2484 155.927L60.6284 156.227C58.4941 157.242 56.0984 157.574 53.7684 157.177C52.0276 156.928 50.3994 156.169 49.0884 154.997C48.0324 154.054 47.2077 152.88 46.6784 151.567C46.3244 150.738 46.092 149.862 45.9884 148.967C45.9084 148.217 45.8484 147.457 45.8084 146.697C45.7844 146.028 45.7243 145.36 45.6284 144.697C45.4866 143.866 45.171 143.073 44.7024 142.372C44.2337 141.671 43.6224 141.076 42.9084 140.627C42.6263 140.45 42.3323 140.293 42.0284 140.157C41.3826 139.861 40.7548 139.527 40.1484 139.157C39.5057 138.747 39.0034 138.15 38.7084 137.447C38.4775 136.93 38.329 136.38 38.2684 135.817C38.2184 135.287 38.1884 134.767 38.1784 134.237C38.1684 133.707 38.1784 133.177 38.1784 132.647C38.1784 132.437 38.1784 132.227 38.1784 132.017C38.1555 130.823 37.6718 129.683 36.8284 128.837C36.3463 128.295 35.7573 127.86 35.0984 127.557C34.5684 127.327 34.0284 127.087 33.4784 126.917C32.3962 126.573 31.2393 126.538 30.1384 126.817C29.4482 126.995 28.778 127.243 28.1384 127.557C27.5984 127.817 27.0684 128.087 26.5184 128.337C25.5969 128.772 24.5854 128.983 23.5668 128.951C22.5482 128.92 21.5515 128.648 20.6584 128.157C20.0534 127.853 19.5522 127.376 19.2184 126.787C18.9387 126.317 18.7298 125.808 18.5984 125.277C18.5084 124.897 18.4284 124.517 18.3284 124.147C18.2371 123.715 18.0566 123.306 17.7984 122.947C17.741 122.86 17.674 122.779 17.5984 122.707C17.1727 122.277 16.6345 121.976 16.0455 121.838C15.4566 121.7 14.8407 121.731 14.2684 121.927C13.7084 122.137 13.1684 122.407 12.6184 122.637C12.0684 122.867 11.6184 123.077 11.1584 123.247C10.3587 123.511 9.49608 123.516 8.69346 123.261C7.89083 123.006 7.18915 122.504 6.68841 121.827C6.37773 121.421 6.09698 120.994 5.84841 120.547C5.68333 120.235 5.45178 119.963 5.17012 119.751C4.88847 119.538 4.56358 119.39 4.21841 119.317C3.92545 119.249 3.62803 119.202 3.32841 119.177C2.99841 119.177 2.65841 119.177 2.32841 119.097C1.83424 119.057 1.35393 118.914 0.918414 118.677C0.706764 118.566 0.520696 118.411 0.372098 118.224C0.223501 118.036 0.115641 117.82 0.0554113 117.588C-0.00481886 117.357 -0.0160951 117.115 0.0223029 116.879C0.060701 116.643 0.147929 116.418 0.278414 116.217C0.663742 115.64 1.24714 115.224 1.91841 115.047C2.00223 115.016 2.0946 115.016 2.17841 115.047C2.41642 115.119 2.67041 115.119 2.90841 115.047C3.42016 115.012 3.9332 115.094 4.40841 115.287C4.83841 115.457 5.24841 115.657 5.66841 115.827C6.06919 116.01 6.47983 116.17 6.89841 116.307C7.81764 116.591 8.80688 116.549 9.69841 116.187C10.0784 116.037 10.4484 115.877 10.8184 115.707C11.6467 115.301 12.5653 115.115 13.4863 115.166C14.4072 115.216 15.2997 115.503 16.0784 115.997C16.5884 116.287 17.0784 116.597 17.5784 116.887C18.1593 117.222 18.7811 117.481 19.4284 117.657C20.3654 117.931 21.3614 117.931 22.2984 117.657C22.7384 117.527 23.1584 117.347 23.5884 117.187L26.6884 115.957C27.4076 115.667 28.1549 115.453 28.9184 115.317C31.0396 114.926 33.2305 115.325 35.0784 116.437C36.1857 117.14 37.1467 118.05 37.9084 119.117C38.2584 119.577 38.5784 120.067 38.9084 120.547C39.1184 120.857 39.3184 121.167 39.5184 121.477C40.2721 122.601 41.3926 123.428 42.6884 123.817C43.6311 124.117 44.6099 124.289 45.5984 124.327C46.0384 124.327 46.4784 124.327 46.9184 124.387C48.0706 124.486 49.1575 124.964 50.0084 125.747C50.6128 126.319 51.0692 127.03 51.3384 127.817C51.5441 128.398 51.6947 128.998 51.7884 129.607C51.966 130.638 52.3878 131.612 53.0184 132.447C53.3318 132.872 53.7058 133.25 54.1284 133.567C54.9925 134.198 55.9557 134.682 56.9784 134.997L58.7484 135.547C60.0906 135.922 61.3882 136.442 62.6184 137.097C64.179 137.928 65.5431 139.084 66.6184 140.487C67.5291 141.727 68.1695 143.144 68.4984 144.647C68.6502 145.339 68.6502 146.055 68.4984 146.747C68.2012 148.381 67.5862 149.94 66.6884 151.337C66.4984 151.717 66.2284 151.997 66.0984 152.187Z" fill="#138175"/>
<path d="M82.6985 97.2665C82.6311 99.0119 82.3456 100.742 81.8485 102.416C81.5985 103.276 81.3585 104.146 81.1485 105.006C80.7921 106.514 80.886 108.092 81.4185 109.546C81.9986 111.126 82.8404 112.596 83.9085 113.896C84.2885 114.386 84.6885 114.896 85.0585 115.346C85.8201 116.384 86.3146 117.593 86.4985 118.866C86.7051 120.192 86.5137 121.55 85.9485 122.766C85.6584 123.389 85.3242 123.991 84.9485 124.566C84.6485 125.036 84.2785 125.476 83.9485 125.916C83.0806 126.986 82.4654 128.237 82.1485 129.577C81.8316 130.917 81.8214 132.312 82.1185 133.656C82.3103 134.716 82.6257 135.75 83.0585 136.736C83.4585 137.676 83.8785 138.616 84.2985 139.546C85.2464 141.571 85.919 143.713 86.2985 145.916C86.7845 148.603 86.599 151.369 85.7585 153.966C85.2551 155.421 84.5625 156.803 83.6985 158.076C83.0296 159.084 82.1362 159.923 81.0885 160.526C79.4177 161.482 77.6198 162.196 75.7485 162.646C74.2435 162.986 72.6929 163.078 71.1585 162.916C68.0631 162.64 65.0491 161.774 62.2785 160.366C59.231 158.839 56.743 156.39 55.1685 153.366C53.8893 150.869 53.4058 148.04 53.783 145.26C54.1602 142.48 55.3801 139.882 57.2785 137.816C58.0385 137.016 58.8285 136.246 59.5985 135.456C60.3685 134.666 60.9485 134.126 61.5985 133.456C62.3726 132.558 62.9504 131.508 63.2949 130.373C63.6393 129.238 63.7427 128.044 63.5985 126.866C63.5349 126.257 63.4144 125.654 63.2385 125.066C62.9785 124.156 62.7385 123.236 62.5485 122.306C62.319 121.164 62.4773 119.978 62.9985 118.936C63.3436 118.202 63.8026 117.527 64.3585 116.936C64.9585 116.306 65.5985 115.716 66.2485 115.126C66.8985 114.536 67.5385 114.026 68.1785 113.476C70.5585 111.476 71.1785 108.846 70.5685 105.896C70.3764 104.965 70.0777 104.059 69.6785 103.196C69.0188 101.686 67.9654 100.381 66.6285 99.4165C65.8602 98.8588 65.0357 98.3828 64.1685 97.9965C63.2785 97.5965 62.3785 97.2265 61.4885 96.8365C60.0947 96.2601 58.8601 95.3568 57.8889 94.2028C56.9177 93.0489 56.2384 91.6782 55.9085 90.2065C55.6459 89.2172 55.6877 88.1717 56.0285 87.2065C56.2622 86.4789 56.5989 85.7885 57.0285 85.1565C57.3385 84.7165 57.6785 84.2965 57.9685 83.8465C58.2389 83.4411 58.4795 83.0167 58.6885 82.5765C58.935 82.0495 59.0118 81.459 58.9085 80.8865C58.8585 80.5565 58.7985 80.2265 58.7285 79.8865C58.6063 79.2938 58.3535 78.7359 57.9885 78.2532C57.6235 77.7706 57.1554 77.3754 56.6185 77.0965C55.8785 76.6965 55.1085 76.3465 54.3285 76.0065C53.6001 75.7174 52.8919 75.38 52.2085 74.9965C51.1494 74.3543 50.322 73.3921 49.8456 72.2489C49.3693 71.1057 49.2687 69.8406 49.5585 68.6365C49.6981 67.9347 49.8954 67.2457 50.1485 66.5765C50.333 66.1112 50.4126 65.6109 50.3815 65.1114C50.3504 64.6118 50.2093 64.1252 49.9685 63.6865C49.7697 63.3001 49.5424 62.9291 49.2885 62.5765C49.0185 62.1765 48.6985 61.7965 48.4185 61.4065C48.0228 60.8686 47.7311 60.2615 47.5585 59.6165C47.4442 59.2531 47.4138 58.8684 47.4695 58.4916C47.5253 58.1147 47.6658 57.7554 47.8804 57.4407C48.0951 57.1259 48.3783 56.8639 48.7088 56.6744C49.0392 56.4849 49.4084 56.3728 49.7885 56.3465C50.741 56.2728 51.6901 56.5268 52.4785 57.0665C52.5888 57.1288 52.6738 57.2279 52.7185 57.3465C52.8353 57.6609 53.0401 57.9351 53.3085 58.1365C53.7909 58.6017 54.1633 59.1689 54.3985 59.7965C54.6285 60.4165 54.8185 61.0565 55.0285 61.6865C55.2385 62.3165 55.3685 62.8165 55.5885 63.3665C56.1674 64.9244 57.3394 66.1899 58.8485 66.8865L60.5085 67.6865C61.4763 68.1536 62.3336 68.8215 63.0232 69.6457C63.7129 70.4699 64.2192 71.4315 64.5085 72.4665C64.7766 73.4522 64.9803 74.4543 65.1185 75.4665C65.2922 76.3903 65.5568 77.2947 65.9085 78.1665C66.5734 79.87 67.8157 81.2858 69.4185 82.1665C69.8385 82.4065 70.2785 82.6265 70.7085 82.8465L75.0085 85.0765C75.9191 85.5507 76.7829 86.1098 77.5885 86.7465C80.2268 88.7581 81.9802 91.7163 82.4785 94.9965C82.5985 95.7365 82.6285 96.5065 82.6985 97.2665ZM61.1185 135.996V135.946L60.9085 135.996H61.1185Z" fill="#61C1B8"/>
<path d="M161.528 144.636C161.818 144.496 161.988 144.426 162.148 144.326C164.342 142.967 166.754 141.996 169.278 141.456C171.278 141.006 173.198 140.586 175.138 140.076C176.345 139.756 177.534 139.369 178.698 138.916C179.428 138.604 180.134 138.236 180.808 137.816C181.166 137.633 181.456 137.34 181.636 136.98C181.815 136.62 181.876 136.213 181.808 135.816C181.728 135.136 181.688 134.456 181.618 133.816C181.345 131.672 181.382 129.5 181.728 127.366C182.08 125.204 182.886 123.141 184.093 121.312C185.299 119.484 186.879 117.931 188.728 116.756C189.898 115.996 191.158 115.356 192.378 114.676C192.978 114.346 193.598 114.056 194.198 113.736C195.78 112.889 197.052 111.56 197.831 109.942C198.609 108.325 198.853 106.502 198.528 104.736C198.282 103.474 197.968 102.225 197.588 100.996C197.108 99.4063 196.588 97.8263 196.018 96.2563C195.16 93.7874 194.492 91.2567 194.018 88.6863C193.728 87.1263 193.248 85.6063 192.828 84.0663C192.248 81.9463 191.608 79.8463 191.058 77.7263C190.756 76.5906 190.519 75.4388 190.348 74.2763C190.235 73.3742 190.189 72.4651 190.208 71.5563C190.216 70.7193 190.414 69.8951 190.788 69.1463C191.012 68.6675 191.297 68.2202 191.638 67.8163C191.928 67.4627 192.287 67.1723 192.694 66.9628C193.1 66.7534 193.545 66.6294 194.002 66.5985C194.458 66.5676 194.916 66.6304 195.347 66.7831C195.778 66.9358 196.173 67.1751 196.508 67.4863C197.148 68.0285 197.652 68.7136 197.978 69.4863C198.337 70.2801 198.638 71.0989 198.878 71.9363C199.578 74.6063 200.268 77.2863 200.878 79.9363C201.904 84.7082 203.25 89.4055 204.908 93.9963C205.968 96.674 206.798 99.4374 207.388 102.256C207.867 104.601 207.914 107.014 207.528 109.376C207.29 110.838 206.789 112.244 206.048 113.526C204.355 116.551 201.786 118.991 198.678 120.526C197.898 120.906 197.108 121.276 196.338 121.686C195.568 122.096 194.878 122.486 194.168 122.926C193.121 123.559 192.285 124.487 191.766 125.594C191.246 126.701 191.066 127.937 191.248 129.146C191.358 130.466 191.578 131.776 191.728 133.096C191.962 134.558 191.999 136.045 191.838 137.516C191.719 138.415 191.521 139.302 191.248 140.166C190.5 142.421 188.924 144.308 186.838 145.446C185.112 146.396 183.296 147.173 181.418 147.766C179.004 148.548 176.538 149.156 174.038 149.586C172.175 149.922 170.357 150.468 168.618 151.216C165.813 152.43 163.392 154.387 161.618 156.876C161.499 157.023 161.389 157.177 161.288 157.336C160.353 158.809 159.204 160.133 157.878 161.266C157.63 161.501 157.354 161.706 157.058 161.876C156.703 162.098 156.308 162.247 155.895 162.314C155.482 162.381 155.06 162.366 154.653 162.268C154.246 162.17 153.863 161.992 153.525 161.745C153.188 161.497 152.903 161.185 152.688 160.826C152.324 160.247 152.079 159.601 151.968 158.926C151.763 157.653 151.732 156.358 151.878 155.076C151.948 154.286 152.038 153.496 152.128 152.706C152.401 150.674 152.29 148.608 151.798 146.616C151.428 145.186 151.088 143.746 150.738 142.316C150.283 140.594 149.992 138.833 149.868 137.056C149.783 135.693 149.877 134.325 150.148 132.986C150.622 130.631 151.769 128.464 153.448 126.746C154.556 125.605 155.772 124.574 157.078 123.666C157.867 123.16 158.525 122.475 158.998 121.666C159.438 120.863 160.106 120.209 160.918 119.786C161.541 119.435 162.245 119.254 162.96 119.261C163.675 119.268 164.375 119.464 164.99 119.828C165.606 120.192 166.114 120.711 166.465 121.334C166.816 121.957 166.996 122.661 166.988 123.376C166.997 124.642 166.513 125.861 165.638 126.776C165.096 127.361 164.461 127.851 163.758 128.226C162.48 128.971 161.289 129.857 160.208 130.866C159.958 131.096 159.718 131.336 159.478 131.586C159.212 131.843 159.005 132.156 158.872 132.501C158.739 132.847 158.683 133.217 158.708 133.586C158.738 134.417 158.838 135.243 159.008 136.056C159.288 137.276 159.668 138.466 160.008 139.666C160.428 141.12 160.851 142.573 161.278 144.026C161.338 144.166 161.418 144.336 161.528 144.636Z" fill="#F18182"/>
<path d="M158.719 133.416C158.72 133.077 158.789 132.742 158.921 132.429C159.053 132.117 159.246 131.834 159.489 131.596C159.729 131.356 159.959 131.106 160.219 130.876C161.3 129.867 162.491 128.981 163.769 128.236C164.472 127.861 165.107 127.371 165.649 126.786C166.355 126.036 166.813 125.086 166.959 124.066C166.756 124.321 166.532 124.559 166.289 124.776C165.695 125.297 165.019 125.716 164.289 126.016C162.939 126.619 161.661 127.37 160.479 128.256C160.199 128.456 159.939 128.676 159.679 128.896C159.388 129.117 159.149 129.397 158.976 129.718C158.804 130.038 158.702 130.393 158.679 130.756C158.608 131.585 158.608 132.418 158.679 133.246L158.719 133.416Z" fill="#F48C9B"/>
<path d="M182.239 127.047C182.816 124.938 183.833 122.975 185.222 121.286C186.611 119.597 188.341 118.221 190.299 117.247C191.549 116.617 192.859 116.117 194.149 115.567C194.779 115.307 195.419 115.087 196.059 114.827C197.722 114.154 199.129 112.97 200.076 111.446C201.023 109.922 201.462 108.136 201.329 106.347C201.217 105.065 201.036 103.79 200.789 102.527C200.479 100.887 200.109 99.2669 199.729 97.6369C199.136 95.0909 198.738 92.5034 198.539 89.8969C198.419 88.3169 198.099 86.7469 197.849 85.1769C197.499 83.0069 197.089 80.8469 196.769 78.6769C196.593 77.5174 196.482 76.3489 196.439 75.1769C196.423 74.2712 196.473 73.3655 196.589 72.4669C196.684 71.634 196.967 70.8336 197.419 70.1269C197.572 69.881 197.739 69.644 197.919 69.4169C197.598 68.6463 197.101 67.9614 196.469 67.4169C196.133 67.1057 195.738 66.8664 195.307 66.7137C194.876 66.5611 194.418 66.4982 193.962 66.5291C193.506 66.5601 193.061 66.6841 192.654 66.8935C192.248 67.1029 191.889 67.3934 191.599 67.7469C191.258 68.1509 190.972 68.5981 190.749 69.0769C190.375 69.8258 190.176 70.65 190.169 71.4869C190.149 72.3958 190.196 73.3049 190.309 74.2069C190.48 75.3694 190.717 76.5213 191.019 77.6569C191.579 79.7769 192.209 81.8869 192.789 83.9969C193.209 85.5269 193.689 87.0569 193.979 88.6169C194.452 91.1874 195.121 93.718 195.979 96.1869C196.529 97.7569 197.069 99.3369 197.549 100.927C197.928 102.156 198.242 103.404 198.489 104.667C198.814 106.432 198.569 108.255 197.791 109.873C197.013 111.491 195.741 112.819 194.159 113.667C193.559 113.987 192.939 114.277 192.339 114.607C191.119 115.287 189.859 115.927 188.689 116.687C186.839 117.862 185.26 119.414 184.053 121.243C182.847 123.072 182.041 125.135 181.689 127.297C181.437 128.726 181.35 130.178 181.429 131.627C181.515 130.073 181.786 128.536 182.239 127.047Z" fill="#F48C9B"/>
<path d="M160.268 142.077L160.688 141.927L160.018 139.627C159.828 138.967 159.628 138.297 159.438 137.627C159.658 138.887 159.882 140.147 160.108 141.407C160.138 141.597 160.198 141.777 160.268 142.077Z" fill="#F48C9B"/>
<path d="M191.439 131.217C191.439 132.107 191.489 133.007 191.499 133.897C191.575 135.373 191.454 136.853 191.139 138.297C190.924 139.177 190.633 140.037 190.269 140.867C189.272 143.039 187.483 144.749 185.269 145.647C183.45 146.407 181.561 146.987 179.629 147.377C177.142 147.889 174.623 148.223 172.089 148.377C170.2 148.497 168.331 148.832 166.519 149.377C163.612 150.29 161.009 151.977 158.989 154.257C158.857 154.393 158.733 154.536 158.619 154.687C157.532 156.05 156.248 157.243 154.809 158.227C154.537 158.434 154.242 158.609 153.929 158.747C153.303 159.032 152.604 159.116 151.929 158.987C152.043 159.64 152.285 160.266 152.639 160.827C152.854 161.186 153.139 161.498 153.476 161.745C153.813 161.993 154.197 162.171 154.604 162.268C155.01 162.366 155.433 162.382 155.845 162.315C156.258 162.247 156.654 162.099 157.009 161.877C157.305 161.707 157.58 161.502 157.829 161.267C159.155 160.134 160.304 158.809 161.239 157.337C161.34 157.177 161.45 157.023 161.569 156.877C163.343 154.388 165.763 152.431 168.569 151.217C170.307 150.469 172.126 149.922 173.989 149.587C176.489 149.156 178.955 148.548 181.369 147.767C183.247 147.173 185.063 146.396 186.789 145.447C188.874 144.309 190.45 142.422 191.199 140.167C191.472 139.302 191.669 138.416 191.789 137.517C191.949 136.045 191.912 134.559 191.679 133.097C191.619 132.507 191.529 131.857 191.439 131.217Z" fill="#F48C9B"/>
<path d="M79.6287 137.137C79.7687 137.137 79.8587 137.137 79.9087 137.047L82.7987 134.327C83.572 133.639 84.0487 132.679 84.1287 131.647C84.1287 131.117 84.2587 130.597 84.3287 130.067C84.3897 129.383 84.6237 128.726 85.0087 128.157C85.2642 127.717 85.6361 127.355 86.0835 127.113C86.5309 126.87 87.0366 126.755 87.5449 126.781C88.0533 126.807 88.5447 126.972 88.9652 127.259C89.3857 127.546 89.7191 127.943 89.9287 128.407C90.1871 128.871 90.3407 129.387 90.3787 129.917C90.5355 131.463 90.4307 133.025 90.0687 134.537C89.7876 135.588 89.3672 136.597 88.8187 137.537C88.0751 138.813 87.2395 140.032 86.3187 141.187C85.7793 141.824 85.3715 142.561 85.1187 143.357C84.9093 143.95 84.861 144.589 84.9787 145.207C85.2468 145.312 85.5205 145.402 85.7987 145.477C88.0292 145.985 90.0666 147.124 91.6687 148.757C92.7183 149.753 93.5071 150.991 93.9657 152.364C94.4243 153.736 94.5387 155.2 94.2987 156.627C94.2157 157.186 94.0219 157.723 93.7287 158.207C93.5587 158.528 93.3119 158.802 93.0104 159.004C92.7088 159.207 92.3618 159.331 92.0003 159.367C91.6389 159.402 91.2742 159.348 90.9389 159.208C90.6036 159.069 90.3081 158.848 90.0787 158.567C89.7226 158.175 89.42 157.738 89.1787 157.267C88.6724 156.281 87.8219 155.516 86.7887 155.117C86.1587 154.857 85.5387 154.587 84.8987 154.337C82.5262 153.412 80.3833 151.983 78.6187 150.147C76.4065 147.905 74.7014 145.214 73.6187 142.257C73.0825 140.686 72.4134 139.164 71.6187 137.707C71.1252 136.81 70.498 135.994 69.7587 135.287C69.2387 134.797 68.7587 134.287 68.2287 133.767C67.6358 133.131 67.1833 132.378 66.9008 131.556C66.6182 130.735 66.5119 129.862 66.5887 128.997C66.5932 128.681 66.6668 128.37 66.8045 128.086C66.9422 127.802 67.1406 127.551 67.3856 127.352C67.6307 127.152 67.9164 127.009 68.2228 126.932C68.5291 126.856 68.8486 126.847 69.1587 126.907C70.7968 127.061 72.3224 127.807 73.4487 129.007C74.6287 130.387 75.8587 131.727 77.0387 133.107C77.885 134.126 78.6099 135.24 79.1987 136.427C79.3387 136.667 79.4987 136.907 79.6287 137.137Z" fill="#F18182"/>
<path d="M78.1781 134.887C78.8892 135.996 79.4697 137.184 79.9081 138.427C80.0081 138.697 80.1381 138.957 80.2581 139.207C80.3981 139.207 80.4881 139.207 80.5381 139.147L83.7181 136.767C84.562 136.171 85.1425 135.271 85.3381 134.257C85.4381 133.737 85.5881 133.257 85.7181 132.717C85.8558 132.044 86.162 131.418 86.6081 130.897C87.0344 130.336 87.6585 129.958 88.3534 129.841C89.0482 129.724 89.7615 129.876 90.3481 130.267C90.3481 130.147 90.3481 130.027 90.3481 129.917C90.3087 129.39 90.1551 128.878 89.8981 128.417C89.6885 127.953 89.3552 127.556 88.9346 127.269C88.5141 126.982 88.0227 126.817 87.5144 126.791C87.006 126.765 86.5003 126.88 86.0529 127.122C85.6055 127.365 85.2336 127.726 84.9781 128.167C84.5932 128.735 84.3592 129.393 84.2981 130.077C84.2281 130.597 84.1381 131.077 84.0981 131.657C84.0181 132.688 83.5414 133.649 82.7681 134.337L79.9081 137.047C79.9081 137.047 79.7681 137.047 79.6281 137.137C79.4881 136.897 79.3281 136.657 79.1981 136.397C78.6093 135.21 77.8844 134.096 77.0381 133.077L76.5381 132.507C77.0881 133.297 77.6381 134.087 78.1781 134.887Z" fill="#F48C9B"/>
<path d="M72.2081 138.887C71.8169 137.942 71.2842 137.061 70.6281 136.277C70.1681 135.727 69.7181 135.167 69.2781 134.597C68.7659 133.882 68.4118 133.067 68.2394 132.204C68.0669 131.342 68.0802 130.453 68.2781 129.597C68.3178 129.283 68.4258 128.982 68.5945 128.715C68.7632 128.447 68.9886 128.22 69.2547 128.049C69.5208 127.879 69.8211 127.769 70.1344 127.727C70.4478 127.685 70.7665 127.712 71.0681 127.807C71.7947 128.001 72.4961 128.28 73.1581 128.637C72.0494 127.631 70.6475 127.007 69.1581 126.857C68.8439 126.796 68.5201 126.806 68.2102 126.885C67.9002 126.965 67.6118 127.113 67.3659 127.317C67.1199 127.522 66.9226 127.779 66.7881 128.07C66.6536 128.36 66.5853 128.677 66.5881 128.997C66.4948 129.865 66.5865 130.744 66.8571 131.575C67.1277 132.405 67.5711 133.17 68.1581 133.817C68.6581 134.327 69.1581 134.817 69.6881 135.337C70.4275 136.044 71.0547 136.86 71.5481 137.757C71.8581 138.297 72.1281 138.857 72.3981 139.407C72.3381 139.217 72.2781 139.047 72.2081 138.887Z" fill="#F48C9B"/>
<path d="M91.678 148.797C90.076 147.164 88.0385 146.025 85.808 145.517C85.6654 145.483 85.5251 145.439 85.3881 145.387C85.2585 145.598 85.1449 145.819 85.048 146.047C84.7727 146.612 84.652 147.24 84.698 147.867C84.9542 148.005 85.218 148.128 85.4881 148.237C87.6301 148.998 89.5104 150.354 90.908 152.147C91.7178 153.093 92.3153 154.203 92.6603 155.4C93.0053 156.597 93.0898 157.854 92.908 159.087C93.2485 158.874 93.5331 158.582 93.7381 158.237C94.0315 157.753 94.2253 157.216 94.3081 156.657C94.5463 155.231 94.4311 153.769 93.9726 152.399C93.514 151.029 92.7261 149.792 91.678 148.797Z" fill="#F48C9B"/>
<path d="M137.518 49.9966C137.588 49.8783 137.648 49.7546 137.698 49.6266C138.425 47.3533 139.148 45.08 139.868 42.8066C139.978 42.4466 140.068 42.0766 140.188 41.7166C140.407 41.0626 140.379 40.3511 140.108 39.7166C139.855 39.0833 139.565 38.4656 139.238 37.8666C138.698 36.8666 138.118 35.9766 137.558 35.0366C136.783 33.7527 136.098 32.4161 135.508 31.0366C134.507 28.6564 133.916 26.1241 133.758 23.5466C133.562 20.6635 134.013 17.7729 135.078 15.0866C136.107 12.5092 137.546 10.115 139.338 7.99663C140.31 6.82902 141.482 5.84365 142.798 5.08663C143.414 4.71847 144.092 4.46756 144.798 4.34663C145.276 4.25451 145.768 4.27128 146.237 4.39571C146.707 4.52013 147.143 4.74899 147.512 5.06524C147.881 5.38148 148.174 5.77695 148.369 6.22218C148.564 6.6674 148.656 7.1509 148.638 7.63663C148.652 8.35981 148.494 9.07594 148.178 9.72663C147.728 10.6366 147.178 11.5366 146.718 12.4166C146.078 13.5266 145.368 14.6066 144.718 15.7366C144.412 16.3853 144.148 17.0534 143.928 17.7366C143.678 18.4066 143.478 19.1066 143.168 19.7366C142.677 20.7633 142.428 21.8886 142.438 23.0266C142.444 25.4257 143.034 27.7872 144.158 29.9066C144.568 30.7166 145.068 31.4766 145.518 32.2666C145.968 33.0566 146.608 34.0866 147.068 35.0366C147.497 35.9202 147.865 36.8324 148.168 37.7666C148.809 39.7069 148.871 41.7915 148.348 43.7666C148.118 44.6466 147.828 45.5066 147.518 46.3566C147.251 47.1072 146.94 47.8418 146.588 48.5566C145.374 51.1385 144.801 53.9757 144.918 56.8266C144.918 57.8266 145.118 58.8266 145.198 59.8766C145.318 61.3866 145.418 62.8766 145.508 64.4066C145.568 65.4666 145.578 66.5266 145.608 67.5866C145.66 69.2897 145.586 70.9943 145.388 72.6866C145.123 75.2987 144.228 77.8073 142.778 79.9966C141.911 81.2321 141.212 82.5771 140.698 83.9966C140.548 84.4266 140.448 84.8666 140.338 85.3066C140.27 85.5835 140.258 85.8712 140.303 86.1529C140.348 86.4345 140.448 86.7044 140.598 86.9466C140.808 87.3066 141.018 87.6666 141.218 88.0366C142.201 89.794 142.813 91.7337 143.018 93.7366C143.21 95.3037 143.065 96.8937 142.595 98.4007C142.124 99.9076 141.338 101.297 140.288 102.477C139.638 103.217 139.018 103.977 138.358 104.717C138.166 104.899 138.039 105.14 137.996 105.401C137.952 105.663 137.995 105.932 138.118 106.167C138.618 107.267 139.118 108.397 139.548 109.507C139.548 109.597 139.688 109.667 139.818 109.807C139.978 109.627 140.138 109.477 140.258 109.307C140.888 108.457 141.528 107.607 142.148 106.747C142.488 106.293 142.799 105.819 143.078 105.327C143.782 104.02 144.778 102.894 145.988 102.037L146.358 101.767C148.881 100.042 150.942 97.7242 152.358 95.0166C153.732 92.5794 154.335 89.7833 154.088 86.9966C153.968 85.5666 153.828 84.1266 153.708 82.6966C153.549 80.9216 153.583 79.1345 153.808 77.3666C154.048 75.4471 154.635 73.587 155.538 71.8766C156.262 70.5115 157.106 69.2132 158.058 67.9966C159.158 66.5966 160.268 65.2066 161.348 63.7966C161.761 63.2556 162.141 62.6914 162.488 62.1066C162.876 61.4468 163.018 60.671 162.888 59.9166C162.798 59.3166 162.688 58.7166 162.658 58.1166C162.604 57.4511 162.604 56.7822 162.658 56.1166C162.778 55.0496 163.275 54.0603 164.058 53.3266C164.654 52.7334 165.428 52.3531 166.262 52.2446C167.095 52.1361 167.941 52.3056 168.668 52.7266C169.469 53.1705 170.12 53.8422 170.538 54.6566C170.942 55.4325 171.196 56.2771 171.288 57.1466C171.464 58.4999 171.484 59.8688 171.348 61.2266C171.18 62.9679 170.623 64.6493 169.718 66.1466C168.276 68.6361 166.637 71.007 164.818 73.2366C164.398 73.7266 164.028 74.2366 163.628 74.7566C162.806 75.768 162.379 77.044 162.428 78.3466C162.428 79.6666 162.508 80.9966 162.558 82.3466C162.558 83.4766 162.678 84.6166 162.738 85.7466C162.866 88.6293 162.507 91.5128 161.678 94.2766C161.094 96.159 160.274 97.9599 159.238 99.6366C159.068 99.9266 158.918 100.237 158.758 100.537C158.758 100.537 158.758 100.607 158.758 100.727C158.951 100.795 159.148 100.852 159.348 100.897C161.288 101.249 163.197 101.75 165.058 102.397C166.598 102.917 168.158 103.397 169.688 103.957C170.576 104.298 171.524 104.453 172.473 104.411C173.423 104.37 174.354 104.134 175.208 103.717C176.203 103.249 177.168 102.721 178.098 102.137C179.566 101.196 181.107 100.376 182.708 99.6866C184.708 98.8417 186.899 98.5548 189.048 98.8566C189.792 98.9836 190.522 99.1811 191.228 99.4466C191.906 99.7023 192.508 100.125 192.978 100.677C193.459 101.192 193.799 101.823 193.967 102.508C194.134 103.192 194.123 103.909 193.934 104.588C193.746 105.267 193.386 105.887 192.889 106.387C192.393 106.888 191.776 107.253 191.098 107.447C190.548 107.583 189.985 107.66 189.418 107.677C189.084 107.686 188.749 107.666 188.418 107.617C186.981 107.421 185.523 107.779 184.338 108.617C183.091 109.496 181.749 110.234 180.338 110.817C177.15 112.168 173.676 112.707 170.228 112.387C167.545 112.184 164.897 111.643 162.348 110.777C161.128 110.357 159.898 109.977 158.648 109.667C157.689 109.443 156.718 109.28 155.738 109.177C154.26 109.028 152.768 109.252 151.398 109.827C150.681 110.084 150.055 110.547 149.598 111.157C148.581 112.432 147.87 113.924 147.518 115.517C146.914 118.41 145.946 121.216 144.638 123.867C143.639 125.775 142.281 127.473 140.638 128.867C139.728 129.717 138.828 130.587 137.928 131.447C137.318 132.017 136.718 132.597 136.088 133.137C134.216 134.754 131.989 135.908 129.588 136.507L128.438 136.817C128.331 136.986 128.262 137.176 128.236 137.375C128.21 137.574 128.228 137.776 128.288 137.967C128.498 140.381 128.561 142.805 128.478 145.227C128.408 147.417 128.298 149.617 128.198 151.807C128.198 152.107 128.128 152.407 128.108 152.707C128.024 153.559 127.762 154.384 127.34 155.13C126.918 155.876 126.345 156.525 125.658 157.037C125.189 157.465 124.572 157.698 123.936 157.687C123.301 157.676 122.693 157.422 122.238 156.977C121.338 156.208 120.664 155.209 120.288 154.087C120.198 153.797 120.098 153.517 119.988 153.197C118.486 152.988 117.005 152.653 115.558 152.197C112.131 151.21 108.896 149.651 105.988 147.587C102.966 145.487 100.692 142.478 99.4984 138.997C99.2084 138.177 98.9284 137.347 98.7084 136.507C98.0984 134.167 97.5384 131.807 96.9184 129.507C96.5984 128.297 96.2284 127.107 95.8584 125.907C95.6394 125.156 95.2476 124.468 94.7144 123.897C94.1813 123.325 93.5216 122.887 92.7884 122.617C92.0184 122.297 91.2184 122.047 90.4384 121.767C89.1884 121.317 87.9284 120.907 86.6984 120.407C83.3342 118.969 80.4566 116.591 78.4113 113.557C76.366 110.524 75.24 106.964 75.1684 103.307C75.158 101.302 75.2715 99.2977 75.5084 97.3066C75.8957 94.0835 75.6923 90.8168 74.9084 87.6666C74.7484 87.0066 74.5584 86.3466 74.4384 85.6666C74.3119 85.0061 74.2284 84.338 74.1884 83.6666C74.1532 82.9062 74.3115 82.1492 74.6484 81.4666C75.0186 80.6664 75.6788 80.0364 76.4955 79.7042C77.3123 79.3719 78.2247 79.3621 79.0484 79.6766C79.7004 79.8899 80.2837 80.273 80.7384 80.7866C81.2486 81.3452 81.6947 81.959 82.0684 82.6166C83.9013 86.0645 85.0683 89.8267 85.5084 93.7066C85.6682 95.328 85.6009 96.9638 85.3084 98.5666C85.0984 99.7566 84.8384 100.947 84.6684 102.147C84.5559 103.049 84.4958 103.957 84.4884 104.867C84.4687 106.051 84.7954 107.215 85.4284 108.217C86.588 110.286 88.4345 111.885 90.6484 112.737C91.7884 113.147 92.9284 113.557 94.0784 113.957C95.796 114.553 97.448 115.324 99.0084 116.257C101.815 117.894 103.992 120.426 105.188 123.447C106.379 126.276 107.232 129.237 107.728 132.267C107.858 133.087 108.028 133.907 108.158 134.727C108.557 136.991 109.779 139.028 111.588 140.447C113.938 142.372 116.694 143.74 119.648 144.447C119.745 144.458 119.842 144.458 119.938 144.447C119.987 144.287 120.018 144.123 120.028 143.957C119.988 142.139 119.838 140.326 119.578 138.527C119.408 137.527 119.388 136.527 119.298 135.477C119.208 134.427 119.148 133.367 119.058 132.307C118.98 131.162 118.531 130.073 117.778 129.207C117.358 128.717 116.968 128.207 116.548 127.717C114.462 125.342 113.041 122.458 112.428 119.357C112.148 117.987 111.798 116.627 111.428 115.267C111.184 114.266 110.652 113.359 109.898 112.657C109.477 112.218 108.965 111.877 108.398 111.657C106.373 110.889 104.537 109.691 103.018 108.147C101.584 106.793 100.247 105.34 99.0184 103.797C97.6314 102.08 96.6656 100.063 96.1984 97.9066C96.146 97.6097 96.0657 97.3184 95.9584 97.0366C95.105 94.7256 94.4755 92.338 94.0784 89.9066C93.8084 88.5666 93.5684 87.2266 93.3184 85.9066C93.2284 85.4566 93.1284 85.0166 93.0284 84.5766C92.3616 81.8586 90.87 79.4134 88.7584 77.5766C87.5284 76.4466 86.3184 75.3066 85.0984 74.1766C84.7384 73.8366 84.3884 73.4866 84.0384 73.1766C81.0964 70.2637 79.3186 66.3773 79.0384 62.2466C79.0384 62.0966 79.0384 61.9466 79.0384 61.7966C78.9072 58.3481 79.2164 54.8969 79.9584 51.5266C80.2104 50.4181 80.5861 49.3413 81.0784 48.3166C81.3717 47.6569 81.7932 47.0621 82.3184 46.5666C82.6227 46.2496 82.9999 46.0119 83.4172 45.8744C83.8345 45.7368 84.2792 45.7036 84.7123 45.7776C85.1454 45.8516 85.5538 46.0306 85.9018 46.2989C86.2497 46.5671 86.5267 46.9166 86.7084 47.3166C86.9854 47.8415 87.1714 48.4096 87.2584 48.9966C87.3859 49.8205 87.4494 50.653 87.4484 51.4866C87.4557 54.1963 87.6093 56.9035 87.9084 59.5966C88.0284 60.6866 88.0684 61.7866 88.1584 62.8766C88.342 65.4029 89.5175 67.754 91.4284 69.4166C92.5784 70.4166 93.7084 71.5166 94.8384 72.5866C96.2356 73.9221 97.4891 75.4001 98.5784 76.9966C100.227 79.506 101.318 82.3397 101.778 85.3066C102.108 87.0866 102.308 88.8966 102.568 90.6966C102.688 91.5166 102.768 92.3466 102.888 93.1766C103.419 96.0635 104.77 98.7365 106.778 100.877C106.936 101.034 107.107 101.178 107.288 101.307C107.415 101.209 107.516 101.083 107.584 100.939C107.652 100.795 107.684 100.636 107.678 100.477C107.938 98.4766 108.248 96.5766 108.408 94.6166C108.644 91.5721 109.177 88.5578 109.998 85.6166C110.737 82.9007 112.131 80.4078 114.058 78.3566C114.758 77.6166 115.448 76.8566 116.128 76.0966C117.521 74.5867 118.569 72.7919 119.198 70.8366C119.646 69.4029 120.219 68.0109 120.908 66.6766C121.838 64.8482 123.08 63.1966 124.578 61.7966C125.095 61.2984 125.665 60.8591 126.278 60.4866C127.019 59.9747 127.919 59.7478 128.814 59.8477C129.709 59.9477 130.537 60.3678 131.146 61.0305C131.755 61.6933 132.104 62.554 132.128 63.4538C132.153 64.3536 131.851 65.2319 131.278 65.9266C130.981 66.3308 130.646 66.7058 130.278 67.0466C129.343 67.9936 128.638 69.1433 128.218 70.4066C128.045 70.9066 127.882 71.41 127.728 71.9166C127.076 74.1017 125.972 76.1254 124.488 77.8566C123.758 78.7266 122.978 79.5466 122.208 80.3866C121.618 81.0266 121.008 81.6466 120.418 82.2866C119.702 83.0706 119.155 83.9929 118.808 84.9966C117.999 87.2091 117.659 89.5656 117.808 91.9166C117.948 94.1882 117.84 96.4682 117.488 98.7166C117.194 101.29 116.267 103.75 114.788 105.877C114.699 106.018 114.619 106.165 114.548 106.317C114.758 106.547 114.958 106.767 115.168 106.977C116.514 108.264 117.562 109.831 118.238 111.567C118.753 112.867 119.171 114.204 119.488 115.567C119.808 116.927 120.138 118.297 120.488 119.657C120.856 121.372 121.727 122.938 122.988 124.157C124.05 125.132 124.984 126.237 125.768 127.447C125.837 127.531 125.918 127.605 126.008 127.667C126.948 127.518 127.841 127.155 128.618 126.607C129.272 126.153 129.897 125.659 130.488 125.127C131.732 123.959 132.817 122.635 133.718 121.187C134.003 120.781 134.144 120.292 134.118 119.797C134.077 117.78 133.519 115.807 132.498 114.067C131.938 113.167 131.402 112.253 130.888 111.327C128.678 107.327 129.128 103.477 131.668 99.7866C132.118 99.1366 132.668 98.5266 133.128 97.8966C133.408 97.5366 133.688 97.1866 133.948 96.8066C134.332 96.286 134.597 95.6877 134.725 95.0536C134.853 94.4196 134.84 93.7653 134.688 93.1366C134.568 92.6166 134.428 92.1366 134.258 91.6066C134.018 90.8866 133.738 90.1866 133.478 89.4766C132.858 87.8417 132.573 86.0983 132.642 84.3509C132.71 82.6034 133.131 80.8877 133.878 79.3066C134.188 78.6166 134.558 77.9566 134.928 77.3066C135.298 76.6566 135.688 75.9966 136.078 75.3066C136.914 73.9441 137.412 72.401 137.528 70.8066C137.635 69.5229 137.672 68.2343 137.638 66.9466C137.568 64.6766 137.418 62.4066 137.308 60.1366C137.308 60.0266 137.308 59.9066 137.308 59.7966C137.334 59.5302 137.274 59.2625 137.138 59.0324C137.001 58.8023 136.795 58.6216 136.548 58.5166C136.108 58.2966 135.678 58.0566 135.258 57.8066C134.158 57.1466 133.028 56.5166 131.968 55.8066C129.203 53.968 127.067 51.3261 125.848 48.2366C125.263 46.8112 124.497 45.4669 123.568 44.2366L123.028 43.5066C121.128 41.0266 121.418 41.3166 119.338 39.8766C117.39 38.5548 115.785 36.7876 114.657 34.7215C113.528 32.6555 112.908 30.3501 112.848 27.9966C112.778 27.1267 112.873 26.2512 113.128 25.4166C113.315 24.7989 113.628 24.2267 114.048 23.7366C114.565 23.1195 115.282 22.7048 116.075 22.5657C116.867 22.4266 117.683 22.5722 118.378 22.9766C119.006 23.3402 119.532 23.8561 119.908 24.4766C120.29 25.045 120.625 25.6436 120.908 26.2666C121.458 27.5566 121.998 28.8466 122.468 30.1666C122.975 31.6438 123.857 32.9637 125.028 33.9966C125.938 34.7966 126.848 35.5966 127.768 36.3766C129.001 37.3841 130.112 38.5319 131.078 39.7966C131.675 40.5806 132.163 41.4417 132.528 42.3566C132.908 43.3566 133.268 44.3566 133.638 45.3566C133.763 45.6841 133.869 46.0179 133.958 46.3566C134.209 47.1676 134.635 47.9137 135.205 48.5426C135.775 49.1715 136.476 49.6678 137.258 49.9966C137.308 49.9966 137.398 49.9966 137.518 49.9966Z" fill="#F18182"/>
<path d="M126.248 60.4859C125.635 60.8583 125.065 61.2977 124.548 61.7959C123.06 63.1984 121.829 64.8498 120.908 66.6759C120.229 67.9884 119.664 69.3568 119.218 70.7659C118.81 72.0551 118.21 73.2754 117.438 74.3859C118.781 73.0521 119.839 71.4601 120.548 69.7059C121.098 68.3173 121.767 66.9789 122.548 65.7059C123.603 63.9511 124.957 62.3943 126.548 61.1059C127.094 60.6739 127.684 60.3017 128.308 59.9959H128.418C127.664 59.9561 126.913 60.1257 126.248 60.4859Z" fill="#F48C9B"/>
<path d="M135.509 30.997C136.098 32.3764 136.783 33.713 137.559 34.997C138.119 35.937 138.709 36.867 139.239 37.827C139.565 38.4259 139.855 39.0437 140.109 39.677C140.379 40.3115 140.407 41.023 140.189 41.677C140.069 42.037 139.979 42.407 139.869 42.767C139.259 44.697 138.019 48.057 137.409 49.987C137.974 50.6629 138.65 51.2377 139.409 51.687C139.459 51.687 139.549 51.687 139.679 51.687C139.758 51.5762 139.828 51.4591 139.889 51.337C140.779 49.127 142.289 45.477 143.169 43.267C143.309 42.917 143.429 42.557 143.569 42.207C143.832 41.5701 143.854 40.8586 143.629 40.207C143.423 39.5599 143.179 38.9254 142.899 38.307C142.439 37.307 141.899 36.307 141.429 35.357C140.744 34.0036 140.156 32.6034 139.669 31.167C138.843 28.7194 138.437 26.1499 138.469 23.567C138.481 20.6745 139.14 17.8214 140.399 15.217C141.612 12.7255 143.219 10.4462 145.159 8.467C146.089 7.5107 147.161 6.70445 148.339 6.077C148.041 5.41969 147.531 4.88165 146.891 4.54964C146.251 4.21764 145.517 4.11102 144.809 4.247C144.102 4.36794 143.424 4.61884 142.809 4.987C141.48 5.77288 140.304 6.79263 139.339 7.997C137.547 10.1123 136.108 12.5031 135.079 15.077C134.013 17.7633 133.562 20.6539 133.759 23.537C133.919 26.1042 134.511 28.6262 135.509 30.997Z" fill="#F48C9B"/>
<path d="M84.5087 105.297C84.5087 105.157 84.5087 105.017 84.5087 104.867C84.5162 103.958 84.5763 103.049 84.6887 102.147C84.8587 100.947 85.1187 99.767 85.3287 98.567C85.6212 96.9642 85.6885 95.3284 85.5287 93.707C85.4587 93.037 85.3587 92.377 85.2387 91.707C85.1636 92.8177 84.9861 93.919 84.7087 94.997C84.4087 96.167 84.0687 97.337 83.8187 98.517C83.6404 99.4056 83.5135 100.304 83.4387 101.207C83.3367 102.384 83.5799 103.566 84.1387 104.607C84.2487 104.837 84.3787 105.067 84.5087 105.297Z" fill="#F48C9B"/>
<path d="M119.268 39.8862C121.348 41.3262 121.058 41.0362 122.958 43.5162L123.498 44.2462C124.427 45.4765 125.193 46.8208 125.778 48.2462C126.991 51.3554 129.131 54.0159 131.908 55.8662C132.968 56.5862 134.098 57.2162 135.198 57.8662C135.618 58.1162 136.048 58.3662 136.488 58.5762C136.735 58.6812 136.941 58.8618 137.078 59.092C137.214 59.3221 137.274 59.5898 137.248 59.8562C137.248 59.9662 137.248 60.0862 137.248 60.1962C137.368 62.4662 137.518 64.7362 137.578 67.0062C137.612 68.2939 137.575 69.5825 137.468 70.8662C137.352 72.4606 136.855 74.0037 136.018 75.3662C135.618 76.0162 135.228 76.6662 134.868 77.3662C134.508 78.0662 134.128 78.6862 133.818 79.3662C132.42 82.3344 132.202 85.7233 133.208 88.8462C132.402 85.6325 132.86 82.2319 134.488 79.3462C134.848 78.6862 135.268 78.0462 135.688 77.4162C136.108 76.7862 136.538 76.1662 136.978 75.5462C137.91 74.2485 138.517 72.7466 138.748 71.1662C138.948 69.8942 139.078 68.6123 139.138 67.3262C139.238 65.0562 139.248 62.7862 139.298 60.5162C139.298 60.4062 139.298 60.2862 139.298 60.1762C139.343 59.9121 139.301 59.6408 139.181 59.4016C139.06 59.1625 138.867 58.9679 138.628 58.8462C138.208 58.5962 137.788 58.3262 137.388 58.0462C136.338 57.3062 135.258 56.6062 134.248 55.8062C131.624 53.7695 129.687 50.9775 128.698 47.8062C128.216 46.3256 127.544 44.9138 126.698 43.6062L126.208 42.8362C124.498 40.2262 124.768 40.5362 122.798 38.9462C120.97 37.4831 119.514 35.6073 118.551 33.4726C117.588 31.3379 117.145 29.0053 117.258 26.6662C117.252 25.7908 117.411 24.9221 117.728 24.1062C117.882 23.7273 118.08 23.3681 118.318 23.0362C117.625 22.641 116.815 22.5016 116.029 22.6423C115.243 22.783 114.532 23.1949 114.018 23.8062C113.599 24.2963 113.285 24.8684 113.098 25.4862C112.843 26.3208 112.748 27.1962 112.818 28.0662C112.883 30.4059 113.501 32.697 114.622 34.7516C115.744 36.8063 117.336 38.5659 119.268 39.8862Z" fill="#F48C9B"/>
<path d="M153.698 82.6863C153.828 84.1163 153.958 85.5563 154.078 86.9863C154.078 87.3263 154.078 87.6663 154.078 87.9863C154.078 86.6863 154.078 85.3863 154.008 84.0863C153.979 82.3038 154.144 80.5234 154.498 78.7763C154.879 76.8788 155.601 75.0661 156.628 73.4263C157.449 72.1057 158.386 70.8608 159.428 69.7063C160.628 68.3863 161.838 67.0863 163.018 65.7063C163.469 65.1944 163.89 64.6568 164.278 64.0963C164.726 63.4908 164.949 62.7482 164.908 61.9963C164.908 61.3963 164.798 60.7863 164.808 60.1863C164.816 59.5155 164.88 58.8466 164.998 58.1863C165.196 57.131 165.763 56.1807 166.598 55.5063C167.168 55.0166 167.87 54.7068 168.616 54.616C169.362 54.5253 170.118 54.6576 170.788 54.9963C170.728 54.8663 170.668 54.7263 170.608 54.5963C170.19 53.7819 169.539 53.1101 168.738 52.6663C168.011 52.2452 167.165 52.0758 166.332 52.1843C165.498 52.2928 164.724 52.6731 164.128 53.2663C163.344 54 162.848 54.9893 162.728 56.0563C162.673 56.7218 162.673 57.3908 162.728 58.0563C162.728 58.6563 162.868 59.2563 162.958 59.8563C163.088 60.6106 162.946 61.3865 162.558 62.0463C162.211 62.6311 161.831 63.1954 161.418 63.7363C160.338 65.1463 159.218 66.5363 158.128 67.9363C157.174 69.1624 156.331 70.4709 155.608 71.8463C154.704 73.5567 154.118 75.4168 153.878 77.3363C153.625 79.1078 153.564 80.9017 153.698 82.6863Z" fill="#F48C9B"/>
<path d="M137.158 104.997C136.952 105.165 136.806 105.395 136.743 105.653C136.68 105.911 136.703 106.183 136.808 106.427C137.228 107.567 137.598 108.717 137.988 109.867C138.054 109.983 138.134 110.091 138.228 110.187C138.408 110.017 138.568 109.877 138.708 109.717L139.308 109.017C138.908 108.077 138.518 107.137 138.098 106.207C137.975 105.972 137.932 105.703 137.975 105.442C138.018 105.18 138.146 104.94 138.338 104.757C138.998 104.027 139.618 103.257 140.268 102.517C141.317 101.337 142.104 99.9478 142.574 98.4408C143.045 96.9339 143.189 95.3439 142.998 93.7768C142.793 91.7739 142.18 89.8341 141.198 88.0768C140.998 87.7068 140.788 87.3468 140.578 86.9868C140.53 86.8993 140.486 86.8091 140.448 86.7168C140.483 86.9668 140.558 87.2097 140.668 87.4368C140.848 87.8068 141.028 88.1868 141.198 88.5668C142.05 90.3923 142.52 92.3729 142.578 94.3868C142.655 95.9617 142.396 97.5349 141.818 99.0021C141.241 100.469 140.358 101.797 139.228 102.897C138.548 103.607 137.908 104.327 137.158 104.997Z" fill="#F48C9B"/>
<path d="M151.778 96.3567C153.356 94.0127 154.18 91.2421 154.138 88.4167C154.138 88.3067 154.138 88.2067 154.138 88.0967C154.158 90.5508 153.526 92.9662 152.308 95.0967C150.891 97.8043 148.831 100.122 146.308 101.847L145.938 102.117C145.624 102.343 145.324 102.586 145.038 102.847L145.308 102.677C147.951 101.133 150.173 98.9623 151.778 96.3567Z" fill="#F48C9B"/>
<path d="M74.9082 87.6659C75.1215 88.5593 75.2915 89.4526 75.4182 90.3459C75.6108 88.0092 75.51 85.6576 75.1182 83.3459C75.0082 82.6759 74.8682 82.0059 74.7982 81.3459C74.7982 81.3459 74.7982 81.2759 74.7982 81.2359C74.7982 81.1959 74.6982 81.3859 74.6582 81.4659C74.3212 82.1486 74.163 82.9055 74.1982 83.6659C74.2381 84.3373 74.3216 85.0054 74.4482 85.6659C74.5482 86.3459 74.7382 86.9959 74.9082 87.6659Z" fill="#F48C9B"/>
<path d="M90.4382 119.446C89.6982 119.076 88.9182 118.766 88.1582 118.446C86.9482 117.906 85.7182 117.446 84.5282 116.826C80.4943 114.738 77.3357 111.281 75.6182 107.076C76.296 110.008 77.6538 112.74 79.582 115.05C81.5102 117.36 83.9547 119.185 86.7182 120.376C87.9482 120.876 89.2082 121.286 90.4582 121.736C91.2382 122.016 92.0382 122.266 92.8082 122.586L93.2082 122.776C93.0257 122.049 92.682 121.372 92.2025 120.796C91.723 120.219 91.12 119.758 90.4382 119.446Z" fill="#F48C9B"/>
<path d="M148.018 112.126C146.911 113.326 146.094 114.762 145.628 116.326C144.814 119.169 143.645 121.897 142.148 124.446C141.019 126.296 139.542 127.91 137.798 129.196C136.798 129.986 135.868 130.786 134.908 131.576C134.258 132.106 133.618 132.636 132.908 133.136C130.925 134.612 128.623 135.602 126.188 136.026L125.018 136.256C124.9 136.417 124.818 136.601 124.778 136.796C124.739 136.991 124.742 137.193 124.788 137.386C124.821 139.811 124.707 142.235 124.448 144.646C124.228 146.826 123.948 149.006 123.698 151.196C123.698 151.496 123.588 151.796 123.538 152.096C123.295 153.588 122.49 154.93 121.288 155.846C121.585 156.257 121.919 156.639 122.288 156.986C122.743 157.431 123.35 157.685 123.986 157.697C124.622 157.708 125.238 157.475 125.708 157.046C126.395 156.535 126.968 155.885 127.39 155.14C127.812 154.394 128.073 153.569 128.158 152.716C128.158 152.416 128.238 152.116 128.248 151.816C128.348 149.626 128.458 147.426 128.528 145.236C128.611 142.815 128.547 140.39 128.338 137.976C128.277 137.785 128.259 137.583 128.285 137.385C128.311 137.186 128.381 136.995 128.488 136.826L129.638 136.516C132.039 135.918 134.265 134.763 136.138 133.146C136.768 132.606 137.368 132.026 137.978 131.456C138.888 130.596 139.778 129.726 140.688 128.876C142.331 127.483 143.689 125.785 144.688 123.876C145.995 121.225 146.963 118.42 147.568 115.526C147.919 113.933 148.631 112.442 149.648 111.166L149.728 111.066C149.074 111.261 148.483 111.627 148.018 112.126Z" fill="#F48C9B"/>
<path d="M107.738 132.257C107.242 129.227 106.389 126.267 105.198 123.437C104.316 121.218 102.901 119.25 101.078 117.707C101.78 118.801 102.338 119.981 102.738 121.217C103.721 124.132 104.355 127.153 104.628 130.217C104.698 131.047 104.808 131.877 104.878 132.707C105.099 135.01 106.168 137.149 107.878 138.707C110.076 140.81 112.723 142.386 115.618 143.317C115.714 143.329 115.812 143.329 115.908 143.317V143.227C114.331 142.532 112.862 141.612 111.548 140.497C109.738 139.079 108.516 137.042 108.118 134.777C108.038 133.897 107.908 133.077 107.738 132.257Z" fill="#F48C9B"/>
<path d="M193.049 100.557C192.579 100.006 191.977 99.5824 191.299 99.3267C190.593 99.0612 189.863 98.8636 189.119 98.7367C186.969 98.4349 184.778 98.7217 182.779 99.5667C181.178 100.256 179.636 101.076 178.169 102.017C177.238 102.601 176.273 103.129 175.279 103.597C174.425 104.014 173.494 104.25 172.544 104.292C171.594 104.333 170.646 104.178 169.759 103.837C168.239 103.267 166.679 102.837 165.129 102.277C163.267 101.63 161.358 101.129 159.419 100.777C159.232 100.736 159.049 100.682 158.869 100.617L158.419 101.297C158.229 101.577 158.059 101.867 157.879 102.157C157.879 102.157 157.879 102.227 157.879 102.347C158.064 102.428 158.255 102.498 158.449 102.557C160.355 103.049 162.221 103.687 164.029 104.467C165.529 105.097 167.029 105.677 168.529 106.367C169.389 106.771 170.323 106.994 171.272 107.021C172.222 107.049 173.167 106.88 174.049 106.527C175.075 106.134 176.077 105.68 177.049 105.167C178.579 104.335 180.174 103.629 181.819 103.057C183.876 102.357 186.085 102.229 188.209 102.687C188.944 102.865 189.661 103.112 190.349 103.427C190.951 103.717 191.481 104.137 191.903 104.655C192.324 105.174 192.627 105.778 192.789 106.427C193.195 106.061 193.525 105.618 193.759 105.123C193.992 104.629 194.125 104.093 194.149 103.546C194.173 103 194.089 102.454 193.9 101.941C193.711 101.428 193.422 100.957 193.049 100.557Z" fill="#F48C9B"/>
<path d="M115.459 151.996C114.888 151.888 114.324 151.748 113.769 151.576C114.339 151.776 114.909 151.966 115.499 152.136L115.459 151.996Z" fill="#F48C9B"/>
<path d="M79.0984 62.266C79.3786 66.3966 81.1564 70.2831 84.0984 73.196C84.4484 73.536 84.7984 73.896 85.1584 74.196C86.3784 75.336 87.5884 76.476 88.8184 77.596C90.93 79.4328 92.4216 81.8779 93.0884 84.596C93.1884 85.036 93.2984 85.486 93.3784 85.926C93.6384 87.266 93.8684 88.606 94.1384 89.926C94.5354 92.3574 95.1649 94.745 96.0184 97.056C96.1257 97.3378 96.2061 97.6291 96.2584 97.926C96.726 100.082 97.6917 102.1 99.0784 103.816C100.307 105.359 101.644 106.813 103.078 108.166C104.597 109.711 106.433 110.908 108.458 111.676C108.674 111.756 108.882 111.856 109.078 111.976C108.855 111.562 108.583 111.176 108.268 110.826C107.876 110.363 107.389 109.991 106.838 109.736C104.873 108.821 103.13 107.49 101.728 105.836C100.397 104.385 99.1709 102.841 98.0584 101.216C96.7981 99.4037 95.9796 97.3215 95.6684 95.136C95.6369 94.8343 95.5767 94.5363 95.4884 94.246C94.8006 91.8788 94.3418 89.451 94.1184 86.996C93.9484 85.646 93.8084 84.286 93.6484 82.936C93.5984 82.486 93.5284 82.036 93.4484 81.586C92.9699 78.8404 91.657 76.3089 89.6884 74.336C88.5484 73.126 87.4184 71.896 86.2884 70.676C85.9584 70.316 85.6384 69.936 85.2884 69.566C82.5751 66.4449 81.0925 62.4416 81.1184 58.306C81.1184 58.156 81.1184 58.006 81.1184 57.856C81.2481 54.4113 81.816 50.9972 82.8084 47.696C82.9946 47.0893 83.2183 46.4949 83.4784 45.916C83.0596 46.0638 82.6752 46.2952 82.3484 46.596C81.8233 47.0915 81.4018 47.6863 81.1084 48.346C80.6161 49.3707 80.2404 50.4475 79.9884 51.556C79.2463 54.9263 78.9372 58.3775 79.0684 61.826C79.0684 61.996 79.0784 62.116 79.0984 62.266Z" fill="#F48C9B"/>
<path d="M124.059 128.166C124.716 128.107 125.361 127.945 125.969 127.686C125.029 126.466 124.028 125.294 122.969 124.176C121.707 122.958 120.836 121.391 120.469 119.676C120.159 118.306 119.829 116.946 119.469 115.586C119.151 114.224 118.733 112.887 118.219 111.586C117.542 109.851 116.494 108.284 115.149 106.996C114.939 106.796 114.739 106.566 114.529 106.336C114.599 106.185 114.679 106.038 114.769 105.896C116.247 103.77 117.174 101.31 117.469 98.7363C117.821 96.4879 117.928 94.2079 117.789 91.9363C117.639 89.5853 117.979 87.2288 118.789 85.0163C119.126 84.0071 119.667 83.078 120.379 82.2863C120.969 81.6463 121.579 81.0263 122.169 80.3863C122.759 79.7463 123.349 79.1063 123.929 78.4463L122.789 79.5163C122.159 80.1163 121.499 80.6863 120.869 81.2863C120.1 82.0215 119.491 82.9064 119.079 83.8863C118.104 86.0329 117.586 88.3589 117.559 90.7163C117.534 92.9923 117.262 95.2589 116.749 97.4763C116.268 100.019 115.166 102.404 113.539 104.416C113.439 104.55 113.349 104.691 113.269 104.836C113.469 105.076 113.639 105.316 113.839 105.536C115.088 106.918 116.02 108.556 116.569 110.336C117.002 111.673 117.337 113.04 117.569 114.426C117.789 115.806 118.019 117.196 118.229 118.576C118.469 120.313 119.221 121.939 120.389 123.246C121.685 124.695 122.844 126.262 123.849 127.926C123.907 128.016 123.977 128.097 124.059 128.166Z" fill="#F48C9B"/>
<path d="M109.908 141.096C102.303 144.2 95.6713 149.291 90.7079 155.836C88.8979 158.216 87.2479 161.056 87.6579 164.016C88.4079 169.396 94.9879 171.456 100.368 172.186C124.253 175.39 148.475 175.138 172.288 171.436C173.858 171.196 175.538 170.866 176.608 169.696C180.688 165.246 165.458 151.696 162.268 149.246C155.074 143.644 146.63 139.87 137.658 138.246C128.325 136.539 118.699 137.528 109.908 141.096Z" fill="#4174B0"/>
<path d="M162.668 149.566L162.268 149.246C155.074 143.644 146.63 139.87 137.658 138.246C128.325 136.539 118.699 137.528 109.908 141.096C102.303 144.2 95.6714 149.291 90.708 155.836C89.2807 157.54 88.2554 159.543 87.708 161.696C93.0202 163.908 98.5141 165.654 104.128 166.916C114.745 169.068 125.725 168.615 136.128 165.596C146.235 162.691 155.393 157.16 162.668 149.566Z" fill="#65A4C5"/>
<path d="M52.518 173.817C58.6516 173.301 64.5108 171.046 69.408 167.317C71.8221 165.462 73.9397 163.25 75.688 160.757C78.0783 162.476 80.1983 164.542 81.978 166.887C83.148 168.437 84.228 170.277 83.978 172.197C83.488 175.687 79.228 177.027 75.738 177.497C60.2381 179.573 44.5199 179.405 29.068 176.997C28.0347 176.944 27.0489 176.546 26.268 175.867C24.858 174.327 26.998 171.127 29.628 168.227C31.4442 169.298 33.3206 170.263 35.248 171.117C40.7019 173.399 46.6278 174.326 52.518 173.817Z" fill="#4174B0"/>
<path d="M35.5682 162.607C40.2452 158.969 45.736 156.522 51.5682 155.477C57.622 154.369 63.8662 155.011 69.5682 157.327C71.7459 158.228 73.81 159.383 75.7182 160.767C73.9699 163.259 71.8523 165.471 69.4382 167.327C64.541 171.055 58.6818 173.31 52.5482 173.827C46.6579 174.335 40.7321 173.409 35.2782 171.127C33.3508 170.272 31.4743 169.307 29.6582 168.237C31.4872 166.217 33.4626 164.335 35.5682 162.607Z" fill="#65A4C5"/>
<path d="M149.848 173.137C149.79 173.459 149.696 173.775 149.568 174.077C148.448 176.667 145.358 177.667 142.618 178.357C136.488 179.907 130.138 181.357 123.888 180.417C122.547 180.262 121.27 179.755 120.188 178.947C120.648 180.717 122.608 181.757 124.398 182.317C130.398 184.177 136.938 183.597 143.228 182.937C146.038 182.647 149.228 182.097 150.718 179.687C151.968 177.647 151.358 175.047 149.848 173.137Z" fill="#4174B0"/>
<path d="M142.619 178.357C145.359 177.667 148.449 176.677 149.569 174.077C149.696 173.775 149.79 173.46 149.849 173.137C149.317 172.454 148.671 171.868 147.939 171.407C146.169 170.372 144.191 169.744 142.149 169.567C135.309 168.817 126.839 171.567 122.059 174.857C121.421 175.247 120.903 175.805 120.561 176.47C120.218 177.135 120.066 177.881 120.119 178.627C120.136 178.735 120.16 178.841 120.189 178.947C121.271 179.755 122.547 180.262 123.889 180.417C130.139 181.397 136.489 179.897 142.619 178.357Z" fill="#65A4C5"/>
</svg>
