<svg width="54" height="54" viewBox="0 0 54 54" fill="none" xmlns="http://www.w3.org/2000/svg">
<path fill-rule="evenodd" clip-rule="evenodd" d="M1.28308 18.9045C1.29314 18.8699 1.31005 18.8376 1.33294 18.8097C1.35584 18.7819 1.38423 18.7589 1.41627 18.7423C1.4483 18.7257 1.48343 18.7157 1.51941 18.7131C1.5554 18.7104 1.59154 18.7151 1.62565 18.7269C1.69367 18.7501 1.75007 18.7987 1.78316 18.8625C1.81625 18.9263 1.82349 19.0005 1.80329 19.0695C0.0805956 24.4408 0.133975 30.2242 1.95553 35.5628C1.98018 35.6318 1.97663 35.7077 1.94578 35.7742C1.91492 35.8406 1.85921 35.8923 1.79059 35.918C1.75562 35.9299 1.71858 35.9347 1.68172 35.9322C1.64486 35.9297 1.60883 35.9199 1.57578 35.9034C1.54274 35.8869 1.51333 35.864 1.48921 35.836C1.46509 35.808 1.44678 35.7755 1.43532 35.7404C-0.424916 30.2865 -0.478296 24.3784 1.28308 18.8918V18.9045ZM18.6644 52.6524C18.609 52.6207 18.5662 52.571 18.543 52.5116C18.5198 52.4521 18.5177 52.3865 18.537 52.3257C18.5563 52.2649 18.5957 52.2125 18.6489 52.1773C18.7022 52.1421 18.7659 52.1262 18.8294 52.1322L19.2607 52.2591L19.6922 52.3859C19.7312 52.3921 19.7683 52.4066 19.8014 52.4282C19.8344 52.4499 19.8624 52.4783 19.8836 52.5116C19.9048 52.5449 19.9188 52.5823 19.9245 52.6214C19.9302 52.6605 19.9276 52.7003 19.9167 52.7383C19.9059 52.7762 19.8871 52.8115 19.8616 52.8417C19.8361 52.8718 19.8044 52.8963 19.7688 52.9133C19.7332 52.9304 19.6945 52.9397 19.655 52.9407C19.6155 52.9416 19.5763 52.9342 19.5399 52.9188L19.0959 52.7919L18.6517 52.6524H18.6644ZM21.1004 53.3121C21.0427 53.2857 20.9957 53.2403 20.9672 53.1835C20.9388 53.1268 20.9304 53.062 20.9437 52.9999C20.957 52.9378 20.9911 52.8821 21.0403 52.842C21.0896 52.8018 21.1511 52.7797 21.2146 52.7792C26.5885 53.9663 32.2 53.4291 37.2512 51.2441C37.3654 51.2441 37.5811 51.2441 37.5937 51.4471C37.6064 51.6501 37.4034 51.777 37.3907 51.777C32.2543 53.978 26.5576 54.5149 21.1004 53.3121ZM53.516 30.3864C53.517 30.4269 53.5092 30.4671 53.4931 30.5042C53.477 30.5414 53.453 30.5746 53.4228 30.6015C53.3926 30.6285 53.3569 30.6485 53.3181 30.6603C53.2794 30.672 53.2387 30.6752 53.1986 30.6697C53.1585 30.6641 53.12 30.6498 53.086 30.6279C53.0519 30.606 53.0231 30.5769 53.0014 30.5427C52.9797 30.5085 52.9657 30.47 52.9604 30.4299C52.955 30.3897 52.9586 30.3489 52.9706 30.3103C53.2257 28.3747 53.2511 26.4157 53.0466 24.4742C52.8439 22.4832 52.4183 20.5214 51.7779 18.6254C51.7679 18.5606 51.781 18.4943 51.8149 18.4382C51.8489 18.3821 51.9015 18.3397 51.9636 18.3186C52.0257 18.2974 52.0932 18.2987 52.1544 18.3223C52.2156 18.3459 52.2664 18.3904 52.2981 18.4478C52.9426 20.3817 53.3682 22.3819 53.5668 24.4107C53.7767 26.3945 53.7512 28.396 53.4908 30.3737L53.516 30.3864ZM35.0309 1.52308C35.0989 1.54632 35.1553 1.5949 35.1884 1.65871C35.2215 1.72252 35.2287 1.79664 35.2086 1.86562C35.1853 1.93364 35.1367 1.99008 35.0729 2.02317C35.0091 2.05625 34.935 2.06346 34.866 2.04326L34.4601 1.91638L34.0667 1.8022C34.0038 1.77571 33.9529 1.72712 33.9234 1.6656C33.8939 1.60409 33.888 1.53388 33.9067 1.4683C33.9254 1.40271 33.9675 1.34629 34.025 1.30963C34.0825 1.27297 34.1516 1.25861 34.2189 1.26932L34.625 1.38354L35.0309 1.51038V1.52308ZM32.5822 0.863363C32.64 0.889818 32.6871 0.935178 32.7156 0.991946C32.744 1.04871 32.7523 1.11348 32.739 1.17559C32.7256 1.23769 32.6916 1.2934 32.6423 1.33352C32.5931 1.37363 32.5316 1.39573 32.4681 1.3962C27.7995 0.365447 22.9379 0.633123 18.4108 2.17014C18.3751 2.18985 18.3354 2.20148 18.2948 2.20425C18.2541 2.20702 18.2132 2.20086 18.1752 2.18617C18.1371 2.17148 18.1028 2.14863 18.0745 2.11923C18.0463 2.08982 18.0248 2.05459 18.0116 2.016C17.9985 1.97741 17.9939 1.93637 17.9983 1.89582C18.0027 1.85528 18.0159 1.81618 18.037 1.78129C18.0582 1.7464 18.0866 1.71656 18.1205 1.69387C18.1544 1.67117 18.1928 1.6562 18.2331 1.64996C22.8535 0.0786995 27.8159 -0.197728 32.5822 0.850663V0.863363Z" fill="#2B5250"/>
</svg>
