<svg width="65" height="96" viewBox="0 0 65 96" fill="none" xmlns="http://www.w3.org/2000/svg">
<path d="M29.7963 0.00182619C28.4054 0.033755 26.9399 0.494228 25.8843 1.4042C24.0077 3.02184 22.1336 4.70259 22.1985 6.90294C22.2633 9.10328 23.4901 10.3353 23.4901 10.3353C23.4901 10.3353 24.3315 10.9798 23.4901 11.6269C22.649 12.2742 12.6852 18.6176 13.2028 31.6894C13.2028 31.6894 13.462 35.0913 13.0736 38.7152C12.7947 41.3187 13.7097 44.4751 14.25 46.0549C14.2634 46.0701 14.5151 46.7194 13.9454 46.3407C11.2444 44.6527 9.03909 42.1157 7.19171 38.9644C5.49674 35.8858 4.5299 32.3282 4.5299 28.5434C4.5299 20.5041 8.89491 13.5017 15.3246 9.89726C6.50325 12.3296 0 20.5912 0 30.4023C0 31.1524 0.0366682 31.8957 0.110753 32.6258C0.182593 34.3175 0.369177 37.017 0.844117 38.0971C1.55603 39.715 1.48993 43.2072 1.48993 43.7897C1.48993 44.3719 1.68424 63.5247 13.009 63.46C13.009 63.46 18.4064 63.5942 18.4431 61.3934C18.4755 59.452 17.9215 59.2479 17.4097 58.1227C16.9245 57.0553 16.5695 56.99 16.8285 53.5606C16.8285 53.5606 16.8417 52.8664 17.1006 52.85C17.3595 52.8335 20.5155 62.2325 24.5924 67.1508C28.6691 72.0688 32.7467 72.5849 35.8528 72.5849C35.8528 72.5849 41.6748 72.5862 41.6748 69.6742C41.6748 66.7619 39.022 67.9253 39.022 58.672C39.022 49.4181 43.4863 49.8748 44.0044 52.1395C44.5222 54.4045 44.9752 56.215 44.069 62.2979C43.163 68.3808 45.6237 69.093 47.8887 69.093C50.1536 69.093 62.0611 69.4784 64.1317 35.4403C64.1317 35.4403 64.3889 29.9416 62.5772 25.2176C62.5772 25.2176 63.3542 34.2774 57.7243 39.1308C52.0943 43.9842 48.8578 43.2733 48.8578 43.2733C48.8578 43.2733 46.1426 43.0768 45.0428 44.4357C43.9427 45.7947 44.1338 46.7668 41.8048 46.0551C39.475 45.3432 39.4652 44.7627 37.33 45.0217C35.1948 45.2806 33.9089 45.537 33.0675 43.7899C32.2259 42.0428 31.2855 40.9166 29.5386 40.593C27.7913 40.2695 20.1141 36.6172 20.3214 26.3199C20.5155 16.7425 24.8516 13.4401 24.8516 13.4401C24.8516 13.4401 25.5652 12.6646 26.2769 12.9881C26.9888 13.3116 28.1517 13.378 29.5107 12.1485C30.8696 10.919 31.7756 9.94515 34.2346 9.10378C34.2346 9.10378 35.9186 8.84411 35.8538 7.16161C35.7889 5.47911 34.4272 1.79408 32.6796 0.694032C31.9151 0.212357 30.8779 -0.0233676 29.7963 0.00182619ZM35.6687 46.3173C36.0593 46.3028 36.6233 46.5615 37.2187 46.788C38.0848 47.117 40.0654 46.9616 40.8404 46.9077C41.6149 46.8541 42.1343 47.1828 41.5137 47.918C40.6586 48.9317 39.6356 48.8943 38.3445 48.9836C37.0534 49.0729 35.6687 47.8072 35.6687 47.8072C35.5954 47.6825 34.9668 47.0127 35.2581 46.5385C35.3492 46.3906 35.4911 46.324 35.6687 46.3173ZM29.0569 25.6706C30.5526 23.8357 31.3865 23.5997 32.6806 23.5997C33.975 23.5997 35.7707 24.4296 36.3045 26.4471C36.8867 28.6472 37.1828 28.9844 35.085 31.44C33.5804 33.2018 30.8687 37.0597 28.1507 34.6007C25.433 32.1416 26.4423 28.8782 29.0569 25.6706ZM53.3637 29.0967C52.4872 26.8978 51.7623 26.4224 50.5278 26.0343C49.2933 25.6459 47.3317 25.8991 46.2169 27.6634C45.0014 29.5873 44.5806 29.7692 45.8447 32.7411C46.7517 34.8731 48.2187 39.4179 51.549 37.8876C54.8793 36.357 54.8956 32.9411 53.3637 29.0967ZM39.0275 43.5385C39.7197 42.4544 41.3338 42.0862 42.2695 42.0573C43.4937 42.0196 43.4763 40.9635 43.4763 40.9635C43.4763 40.9635 43.5628 39.8854 39.1414 39.4556C34.725 39.026 34.6043 40.1657 34.6043 40.1657C34.6043 40.1657 34.3958 41.2012 35.5929 41.4599C36.5048 41.6572 38.016 42.3237 38.5071 43.5063C38.6036 43.7932 38.8768 43.7989 39.0275 43.5385ZM59.8827 16.9944C59.1396 17.2371 57.9747 17.1723 56.7602 15.7998C55.5456 14.4274 54.7526 13.3623 52.4019 12.2538C52.4019 12.2538 50.7585 11.8102 51.0092 10.1452C51.2599 8.48017 53.019 4.96501 54.8774 4.06501C56.7357 3.16527 59.8657 3.70956 61.5517 5.52526C63.2375 7.34096 64.916 9.22101 64.6079 11.4004C64.3001 13.5798 62.9419 14.6656 62.9419 14.6656L62.9656 14.6694C62.3188 15.5107 59.8827 16.9944 59.8827 16.9944Z" fill="#20B58D"/>
<path d="M12.8776 65.2266C12.1049 65.2268 11.3782 65.5281 10.8322 66.0749C10.2862 66.6212 9.98534 67.3481 9.98584 68.1211C9.98609 68.8959 10.2874 69.6228 10.8342 70.1688C11.381 70.7148 12.1076 71.0157 12.8804 71.0154C14.4758 71.0147 15.7729 69.716 15.7722 68.1209V68.1186C15.7719 67.3458 15.4706 66.6195 14.9238 66.0732C14.377 65.5269 13.6504 65.2261 12.8776 65.2266ZM11.5394 69.4629C11.1812 69.1047 10.9839 68.629 10.9836 68.1226C10.9834 67.614 11.1802 67.1383 11.5381 66.7799C11.8958 66.4217 12.3718 66.2243 12.8781 66.2241C13.3845 66.2238 13.8604 66.4207 14.2189 66.7786C14.5771 67.1366 14.7744 67.6125 14.7747 68.1186V68.1211C14.7752 69.166 13.9253 70.0169 12.8801 70.0176C12.3735 70.0176 11.8976 69.8208 11.5394 69.4629ZM13.517 68.4077L14.0134 68.5651C13.9373 68.8418 13.8106 69.0475 13.6337 69.182C13.4566 69.3164 13.2321 69.3835 12.96 69.3835C12.6232 69.3835 12.3463 69.2685 12.1296 69.0383C11.9128 68.8078 11.8043 68.4933 11.8043 68.0947C11.8043 67.6726 11.9133 67.3448 12.1313 67.1114C12.3493 66.8779 12.6359 66.7614 12.9911 66.7614C13.3014 66.7614 13.5534 66.8529 13.7472 67.0365C13.8624 67.145 13.949 67.3009 14.0066 67.5037L13.4998 67.6247C13.4698 67.4933 13.4072 67.3895 13.3122 67.3129C13.2171 67.2368 13.1014 67.1989 12.9652 67.1989C12.7774 67.1989 12.6247 67.2665 12.5077 67.4015C12.3907 67.5364 12.3321 67.7549 12.3321 68.057C12.3321 68.3775 12.3897 68.606 12.505 68.742C12.6202 68.8782 12.7701 68.946 12.9547 68.946C13.0907 68.946 13.2079 68.9026 13.3059 68.8161C13.404 68.7295 13.4743 68.5933 13.517 68.4077Z" fill="#20B58D"/>
<path d="M61.6679 70.9834C60.8952 70.9836 60.1688 71.285 59.6225 71.8315C59.0762 72.378 58.7754 73.1049 58.7759 73.8777C58.7764 75.4754 60.0752 76.7725 61.6704 76.7717C62.4432 76.7717 63.1696 76.4702 63.7159 75.9236C64.2616 75.3771 64.5627 74.6505 64.5622 73.8774V73.8752C64.562 73.1022 64.2606 72.3758 63.7139 71.8298C63.1673 71.2835 62.4407 70.9831 61.6679 70.9834ZM60.3297 75.2202C59.9715 74.862 59.7737 74.3863 59.7737 73.8799C59.7732 72.8325 60.6228 71.9819 61.6682 71.9814C62.1745 71.9809 62.6505 72.1782 63.0087 72.5359C63.3669 72.8936 63.5642 73.3696 63.5645 73.8759V73.8782C63.5647 74.3846 63.3679 74.8605 63.0099 75.2187C62.652 75.5772 62.176 75.7745 61.6699 75.7745C61.1636 75.7745 60.6879 75.5779 60.3297 75.2202ZM60.6771 75.1459V72.6098H61.7547C62.0256 72.6098 62.2227 72.6327 62.3454 72.6781C62.4679 72.7238 62.5667 72.8046 62.6405 72.9213C62.7146 73.0381 62.7513 73.171 62.7513 73.3212C62.7513 73.5115 62.6949 73.6687 62.5834 73.7926C62.4716 73.9166 62.3043 73.9952 62.0815 74.0271C62.1923 74.0917 62.2838 74.1626 62.3559 74.2399C62.428 74.3172 62.5253 74.4544 62.6475 74.6512L62.9571 75.1459H62.3447L61.9745 74.5941C61.843 74.3968 61.753 74.2726 61.7046 74.2214C61.6565 74.1698 61.6048 74.1346 61.5507 74.1157C61.4966 74.0967 61.4105 74.0875 61.293 74.0875H61.1892V75.1459H60.6771ZM61.1885 73.6826H61.5677C61.8131 73.6826 61.9668 73.6719 62.0281 73.6515C62.089 73.6305 62.1371 73.5948 62.1716 73.5439C62.2065 73.4931 62.2234 73.4297 62.2234 73.3536C62.2234 73.2683 62.2007 73.1992 62.1553 73.1468C62.1094 73.0944 62.0456 73.0613 61.9625 73.0478C61.9209 73.0421 61.7964 73.0391 61.5889 73.0391H61.1892V73.6826H61.1885Z" fill="#20B58D"/>
<path d="M3.19608 78.5406H6.49073C6.49073 78.5406 7.34433 78.386 7.68058 79.2521C8.07644 80.2728 9.70681 86.8142 9.70681 86.8142L12.0423 83.3582C12.0423 83.3582 11.0897 78.5179 12.7597 78.5406C14.773 78.5676 15.8943 78.5406 15.8943 78.5406C15.8943 78.5406 16.6965 78.4638 17.1983 79.8013C17.7893 81.3763 19.2276 86.9207 19.2276 86.9207L22.5519 79.3439C22.5519 79.3439 23.0094 78.5409 23.7418 78.5409C24.5195 78.5409 25.0119 79.0862 24.8398 79.7103C24.5779 80.6607 19.0744 95.1304 19.0744 95.1304C19.0744 95.1304 18.7082 95.9995 17.9305 95.9995C17.1525 95.9995 16.8322 95.542 16.4203 94.4896C16.0085 93.4372 13.4003 86.3904 13.4003 86.3904L9.4651 95.3132C9.4651 95.3132 9.16776 95.9992 8.54989 95.9992C7.81777 95.9992 7.54313 95.6792 7.1772 94.9927C6.81102 94.3065 2.18957 81.0822 2.18957 81.0822C2.18957 81.0822 1.27412 78.5406 3.19608 78.5406ZM27.5276 78.5406H30.8222C30.8222 78.5406 31.6758 78.386 32.0121 79.2521C32.4079 80.2728 34.0385 86.8142 34.0385 86.8142L36.3736 83.3582C36.3736 83.3582 35.4212 78.5179 37.091 78.5406C39.104 78.5676 40.2252 78.5406 40.2252 78.5406C40.2252 78.5406 41.0277 78.4638 41.5293 79.8013C42.1205 81.3763 43.5588 86.9207 43.5588 86.9207L46.8829 79.3439C46.8829 79.3439 47.3404 78.5409 48.0727 78.5409C48.8507 78.5409 49.3432 79.0862 49.1708 79.7103C48.9091 80.6607 43.4054 95.1304 43.4054 95.1304C43.4054 95.1304 43.0395 95.9995 42.2614 95.9995C41.4834 95.9995 41.1636 95.542 40.7513 94.4896C40.3395 93.4372 37.7315 86.3904 37.7315 86.3904L33.7963 95.3132C33.7963 95.3132 33.499 95.9992 32.8811 95.9992C32.149 95.9992 31.8744 95.6792 31.5084 94.9927C31.1422 94.3065 26.5208 81.0822 26.5208 81.0822C26.5208 81.0822 25.6056 78.5406 27.5276 78.5406ZM51.8775 95.9992C51.8775 95.9992 50.745 96.0952 50.745 94.3155C50.745 92.5362 50.745 79.626 50.745 79.626C50.745 79.626 50.745 78.5259 52.3627 78.5259C53.9803 78.5259 63.4282 78.5259 63.4282 78.5259C63.4282 78.5259 64.769 78.4611 64.769 79.7557C64.769 81.0503 63.5253 80.9206 63.5253 80.9206H56.9247C56.9247 80.9206 56.1482 80.9206 56.1482 81.6644C56.1482 82.4085 56.1482 85.2881 56.1482 85.2881H61.2281C61.2281 85.2881 62.6011 85.2881 62.6011 86.356C62.6011 87.4233 61.4544 87.4884 61.4544 87.4884H56.116V94.5519C56.116 94.5519 56.1946 95.9995 55.2567 95.9995C54.6092 95.9992 51.8775 95.9658 51.8775 95.9992Z" fill="#20B58D"/>
</svg>
