<svg width="48" height="10" viewBox="0 0 48 10" fill="none" xmlns="http://www.w3.org/2000/svg">
<path fill-rule="evenodd" clip-rule="evenodd" d="M23.914 9.95091C25.2165 9.7304 26.4918 9.3715 27.7181 8.8803C28.2192 8.4475 27.0689 7.37689 27.0689 7.37689C27.0689 7.37689 32.7636 3.4703 36.5108 3.4703H46.841C48.7772 3.4703 46.841 2.21746 45.8729 1.63659C44.9048 1.05573 44.324 0.884887 40.4515 0.884887H33.5267C30.9413 0.884887 27.3878 2.8211 27.3878 2.8211H26.1464C26.1464 2.8211 25.4972 0.406528 23.8685 0.349581C22.2398 0.292633 21.5906 2.8211 21.5906 2.8211H20.4061C20.4061 2.8211 16.8525 0.884887 14.2671 0.884887H7.34233C3.46991 0.884887 2.9346 1.06712 1.92094 1.63659C0.907276 2.20607 -0.983375 3.4703 0.952836 3.4703H11.2945C15.0302 3.4703 20.7364 7.37689 20.7364 7.37689C20.7364 7.37689 19.5974 8.45889 20.0985 8.8803C21.3286 9.37219 22.6077 9.7311 23.914 9.95091Z" fill="#BFCFED"/>
</svg>
