<svg width="28" height="6" viewBox="0 0 28 6" fill="none" xmlns="http://www.w3.org/2000/svg">
<path fill-rule="evenodd" clip-rule="evenodd" d="M13.8458 5.52493C14.5906 5.39735 15.3198 5.19119 16.0212 4.9099C16.3059 4.65933 15.6453 4.0443 15.6453 4.0443C15.6453 4.0443 18.9141 1.76641 21.0553 1.76641H26.9779C28.1168 1.76641 26.9779 1.04887 26.4198 0.718576C25.8617 0.388281 25.5314 0.285775 23.3105 0.285775H19.3469C18.1101 0.429371 16.914 0.816466 15.8276 1.42472H15.1214C15.1214 1.42472 14.757 0.0465959 13.8344 0.001038C12.9119 -0.0445199 12.5474 1.42472 12.5474 1.42472H11.8413C10.755 0.816188 9.55878 0.429076 8.32191 0.285775H4.35838C2.08048 0.285775 1.82991 0.388281 1.24905 0.718576C0.668188 1.04887 -0.41381 1.76641 0.690969 1.76641H6.61349C8.75471 1.76641 12.0235 4.0443 12.0235 4.0443C12.0235 4.0443 11.3629 4.65933 11.6476 4.9099C12.3563 5.19274 13.0932 5.39892 13.8458 5.52493Z" fill="#BFCFED"/>
</svg>
