<svg width="57" height="12" viewBox="0 0 57 12" fill="none" xmlns="http://www.w3.org/2000/svg">
<path fill-rule="evenodd" clip-rule="evenodd" d="M28.6201 11.9549C28.6201 11.9549 32.4812 11.2032 33.062 10.7021C33.6429 10.2009 32.3103 8.9367 32.3103 8.9367C32.3103 8.9367 38.9732 4.38091 43.3353 4.38091H55.4082C57.6861 4.38091 55.4082 2.91167 54.2692 2.23969C53.1303 1.56771 52.4697 1.3627 47.9481 1.3627H39.8615C36.8433 1.3627 32.6976 3.6406 32.6976 3.6406H31.2397C31.2397 3.6406 30.488 0.827396 28.6201 0.747669C26.7523 0.667943 26.0005 3.6406 26.0005 3.6406H24.5541C24.5541 3.6406 20.4083 1.3627 17.3901 1.3627H9.30358C4.74779 1.3627 4.14414 1.56771 2.97103 2.23969C1.79791 2.91167 -0.445814 4.38091 1.83208 4.38091H13.9049C18.2671 4.38091 24.9299 8.9367 24.9299 8.9367C24.9299 8.9367 23.586 10.1895 24.1782 10.7021C24.7705 11.2146 28.6201 11.9549 28.6201 11.9549Z" fill="#BFCFED"/>
</svg>
