<?xml version="1.0" encoding="UTF-8" standalone="no"?><!DOCTYPE svg PUBLIC "-//W3C//DTD SVG 1.1//EN" "http://www.w3.org/Graphics/SVG/1.1/DTD/svg11.dtd"><svg width="100%" height="100%" viewBox="0 0 286 240" version="1.1" xmlns="http://www.w3.org/2000/svg" xmlns:xlink="http://www.w3.org/1999/xlink" xml:space="preserve" xmlns:serif="http://www.serif.com/" style="fill-rule:evenodd;clip-rule:evenodd;stroke-linejoin:round;stroke-miterlimit:2;"><g id="grow"><path id="shadow" d="M144.03,225.879l0,7.009c0,0 -102.192,1.168 -118.305,0c-7.549,-0.547 21.628,-7.009 21.628,-7.009l96.677,0Zm118.305,7.009c-16.113,1.168 -118.305,0 -118.305,0l0,-7.009l96.677,0c0,0 29.177,6.462 21.628,7.009Z" style="fill-opacity:0.2;"/><path id="case" d="M242.088,217.308l-196.176,0l-3.032,-3.032l0,-123.567c0,-5.02 4.076,-9.095 9.096,-9.096l184.048,0c5.02,0 9.096,4.076 9.096,9.096l0,123.567l-3.032,3.032Z" style="fill:#58595a;"/><path id="screen" d="M144,91.185l0,116.269l-91.548,0l0,-116.269l91.548,0Zm91.548,116.269l-91.548,0l0,-116.269l91.548,0l0,116.269Z" style="fill:#fff;"/><path id="top" d="M144,217.308l0,7.009l-120,0l21.937,-7.009l98.063,0Zm120,7.009l-120,0l0,-7.009l98.063,0l21.937,7.009Z" style="fill:#c1c1c1;"/><path id="keyboard" d="M230.11,221.749l-172.22,0l5.296,-2.779l80.814,-0.116l80.814,0.116l5.296,2.779Z" style="fill:#212121;"/><path id="front" d="M144,224.317l0,6.65l-116.633,0.024l-3.367,-3.368l0,-3.306l120,0Zm0,0l120,0l0,3.306l-3.367,3.368l-116.633,-0.024l0,-6.65Z" style="fill:#e6e6e6;"/><path id="chart-arrow" serif:id="chart arrow" d="M106.642,151.885l-32.721,38.113l-6.058,-5.201l37.922,-44.172l20.715,17.785l0.857,11.259l-20.715,-17.784Zm42.503,-35.516l29.265,-12.295l-7.723,30.788l-7.742,-6.646l-35.588,41.453l-0.857,-11.259l30.387,-35.395l-7.742,-6.646Z" style="fill:#3193a1;"/><circle id="logo-circle" serif:id="logo circle" cx="206.779" cy="112.783" r="17.258" style="fill:#415db0;"/><path id="logo" d="M193.516,103.403c0.022,0.006 0.382,0.117 6.21,2.174c-1.882,2.185 -2.962,3.997 -3.03,7.206c-0.066,3.135 1.435,5.94 3.683,7.787l0.054,0.043l0.04,0.033c1.728,1.389 3.921,2.219 6.306,2.219c2.43,0 4.661,-0.862 6.405,-2.298c0.011,0.009 0.009,0.009 6.332,2.296c-2.976,3.76 -7.577,6.17 -12.737,6.17c-5.16,0 -9.762,-2.41 -12.737,-6.169l-0.051,-0.065c-2.17,-2.757 -3.463,-6.237 -3.463,-10.016c0,-3.809 0.786,-6.612 2.986,-9.38l0.002,0Zm9.704,-0.055c-1.017,0.384 -1.957,0.929 -2.787,1.604c-6.414,-2.269 -6.391,-2.251 -6.391,-2.251c2.975,-3.759 7.577,-6.169 12.737,-6.169c5.16,0 9.761,2.41 12.737,6.17c-6.315,2.296 0.017,-0.014 -6.332,2.297c-0.846,-0.697 -1.805,-1.258 -2.847,-1.651l0,17.919c-0.223,0.085 -0.45,0.162 -0.685,0.23c-0.48,0.145 -0.977,0.254 -1.488,0.325l-0.456,0.052c-0.153,0.014 -0.307,0.024 -0.462,0.032l-0.467,0.01c-0.542,0 -1.073,-0.042 -1.592,-0.128c-0.231,-0.036 -0.459,-0.08 -0.685,-0.131c-0.292,-0.068 -0.579,-0.148 -0.862,-0.241l-0.42,-0.149l0,-17.919Z" style="fill:#fff;"/><path id="lines" d="M99.342,127.593l0,3.279l-33.313,0l0,-3.279l33.313,0Zm17.433,-6.195l0,3.28l-50.746,0l0,-3.28l50.746,0Zm0,-5.827l0,3.28l-50.746,0l0,-3.28l50.746,0Zm0,-6.113l0,3.279l-50.746,0l0,-3.279l50.746,0Zm0,-5.97l0,3.279l-50.746,0l0,-3.279l50.746,0Z" style="fill:#f0f0f0;"/><path id="pie" d="M187.825,153.705c-12.363,0 -22.386,10.023 -22.386,22.386c0,12.355 10.031,22.385 22.386,22.385c12.363,0 22.386,-10.022 22.386,-22.385l-22.386,0l0,-22.386Z" style="fill:#f0f0f0;"/><path id="pie-piece" serif:id="pie piece" d="M215.316,171.569c0,-12.363 -10.022,-22.386 -22.385,-22.386l0,22.386l22.385,0Z" style="fill:#9cd8e1;"/></g></svg>