<?xml version="1.0" encoding="UTF-8" standalone="no"?><!DOCTYPE svg PUBLIC "-//W3C//DTD SVG 1.1//EN" "http://www.w3.org/Graphics/SVG/1.1/DTD/svg11.dtd"><svg width="100%" height="100%" viewBox="0 0 286 240" version="1.1" xmlns="http://www.w3.org/2000/svg" xmlns:xlink="http://www.w3.org/1999/xlink" xml:space="preserve" xmlns:serif="http://www.serif.com/" style="fill-rule:evenodd;clip-rule:evenodd;stroke-linejoin:round;stroke-miterlimit:2;"><g id="tree"><ellipse cx="149.578" cy="229.002" rx="26.766" ry="6.503" style="fill-opacity:0.1;"/><path id="leaves-1-" serif:id="leaves 1 " d="M85.249,160.075c0,0 -1.469,3.375 -4.31,5.88c-3.884,3.426 -7.246,3.496 -7.246,3.496c0,0 1.188,-5.739 4.544,-8.443c3.356,-2.705 7.012,-0.933 7.012,-0.933Zm68.832,-13.926c0,0 -4.718,2.234 -10.09,2.26c-7.346,0.036 -11.002,-3.026 -11.002,-3.026c0,0 6.623,-5.021 12.732,-4.78c6.108,0.241 8.36,5.546 8.36,5.546Zm51.095,-11.955c0,0 2.695,5.329 6.819,5.807c4.124,0.478 8.883,-1.396 8.883,-1.396c0,0 -2.354,-4.318 -6.905,-5.581c-4.552,-1.263 -8.797,1.17 -8.797,1.17Zm-124.983,4.205c0,0 -3.758,-3.623 -5.682,-8.64c-2.631,-6.858 -1.061,-11.361 -1.061,-11.361c0,0 7.04,4.42 8.974,10.219c1.935,5.799 -2.231,9.782 -2.231,9.782Zm53.916,-8.59c0,0 1.451,5.794 5.367,7.172c3.916,1.377 8.972,0.601 8.972,0.601c0,0 -1.341,-4.732 -5.501,-6.97c-4.16,-2.237 -8.838,-0.803 -8.838,-0.803Zm20.692,-18.569c0,0 5.173,0.704 9.688,3.615c6.174,3.981 7.566,8.542 7.566,8.542c0,0 -8.291,0.591 -13.277,-2.946c-4.986,-3.537 -3.977,-9.211 -3.977,-9.211Zm17.336,5.193c0,0 2.695,5.33 6.819,5.808c4.124,0.478 8.882,-1.397 8.882,-1.397c0,0 -2.353,-4.318 -6.905,-5.581c-4.552,-1.263 -8.796,1.17 -8.796,1.17Zm-74.84,1.618c0,0 -3.951,-3.412 -9.122,-4.871c-7.07,-1.993 -11.411,-0.019 -11.411,-0.019c0,0 5.044,6.607 10.995,8.004c5.952,1.397 9.538,-3.114 9.538,-3.114Zm91.223,0.521c0,0 5.069,3.157 8.843,1.425c3.773,-1.731 6.868,-5.803 6.868,-5.803c0,0 -4.253,-2.47 -8.799,-1.188c-4.547,1.283 -6.912,5.566 -6.912,5.566Zm-65.49,-3.899c0,0 2.311,-3.194 5.858,-5.164c4.85,-2.693 8.383,-1.996 8.383,-1.996c0,0 -2.559,5.732 -6.69,7.793c-4.132,2.06 -7.551,-0.633 -7.551,-0.633Zm-29.871,-4.427c0,0 3.593,-4.771 2.201,-8.683c-1.392,-3.911 -5.174,-7.353 -5.174,-7.353c0,0 -2.836,4.017 -1.96,8.659c0.876,4.642 4.933,7.377 4.933,7.377Zm102.514,-8.666c0,0 2.311,-3.194 5.858,-5.164c4.85,-2.694 8.383,-1.996 8.383,-1.996c0,0 -2.559,5.732 -6.69,7.792c-4.132,2.061 -7.551,-0.632 -7.551,-0.632Zm-120.246,0.544c0,0 7.716,0.452 10.933,-3.851c3.217,-4.303 4.215,-10.847 4.215,-10.847c0,0 -6.361,-0.175 -10.735,4.096c-4.374,4.271 -4.413,10.602 -4.413,10.602Zm-18.875,-6.718c0,0 4.092,4.35 8.183,3.643c4.091,-0.708 8.125,-3.851 8.125,-3.851c0,0 -3.478,-3.477 -8.201,-3.401c-4.723,0.075 -8.107,3.609 -8.107,3.609Zm102.908,-16.78c-4.024,-1.804 -5.705,-4.062 -5.705,-4.062c0,0 7.608,-3.35 13.494,-1.699c5.886,1.651 6.847,7.334 6.847,7.334c0,0 -5.108,1.079 -10.34,-0.141c-1.437,-0.335 -2.7,-0.757 -3.801,-1.218c0.149,1.228 0.523,5.317 -0.623,8.608c-1.366,3.921 -7.155,5.389 -7.155,5.389c0,0 -1.449,-4.673 0.776,-8.84c1.811,-3.39 5.277,-4.919 6.507,-5.371Zm-72.726,7.47c0,0 -3.744,-1.235 -6.697,-4.019c-4.036,-3.806 -4.442,-7.385 -4.442,-7.385c0,0 6.238,0.703 9.454,4.016c3.215,3.313 1.685,7.388 1.685,7.388Zm61.415,-2.16c0,0 4.814,-3.534 4.608,-7.681c-0.207,-4.146 -2.838,-8.532 -2.838,-8.532c0,0 -3.873,3.031 -4.37,7.729c-0.498,4.697 2.6,8.484 2.6,8.484Zm32.403,-13.21c0.663,0.005 1.378,0.106 2.135,0.342c4.408,1.373 7.852,6.622 7.852,6.622c0,0 -1.084,0.402 -2.971,0.408l-0.039,0.001c-1.441,0 -3.343,-0.23 -5.585,-1.039c-3.817,-1.377 -6.609,-4.16 -6.609,-4.16c0,0 2,-2.178 5.172,-2.174l0.045,0Zm-97.544,1.14c0,0 -3.226,-4.104 -4.444,-9.337c-1.666,-7.154 0.506,-11.399 0.506,-11.399c0,0 6.368,5.343 7.489,11.352c1.122,6.01 -3.551,9.384 -3.551,9.384Zm32.167,-9.016c0,0 5.07,3.157 8.843,1.425c3.773,-1.731 6.868,-5.803 6.868,-5.803c0,0 -4.252,-2.47 -8.799,-1.188c-4.546,1.283 -6.912,5.566 -6.912,5.566Zm-7.546,-3.757c0,0 3.359,-4.938 1.781,-8.778c-1.577,-3.84 -5.521,-7.097 -5.521,-7.097c0,0 -2.64,4.15 -1.542,8.744c1.098,4.595 5.282,7.131 5.282,7.131Zm9.836,-2.631c0,0 -0.529,-5.193 1.242,-10.265c2.421,-6.936 6.528,-9.359 6.528,-9.359c0,0 2.52,7.921 0.251,13.597c-2.269,5.677 -8.021,6.027 -8.021,6.027Zm24.586,-2.126c0,0 -2.713,-4.459 -3.298,-9.8c-0.801,-7.302 1.863,-11.257 1.863,-11.257c0,0 5.685,6.064 6.081,12.164c0.396,6.101 -4.646,8.893 -4.646,8.893Z" style="fill:#2b8592;"/><path id="trunk" d="M120.874,67.128c-0.363,-1.458 -1.488,-5.715 -3.207,-9.8c-2.356,-5.602 -5.645,-11.03 -5.772,-11.54c-0.121,-0.487 3.641,5.045 6.509,11.116c2.275,4.815 3.816,10.105 4.215,11.564c5.806,4.462 11.959,9.211 12.766,9.834c3.058,-12.968 6.655,-24.511 6.655,-24.511c0,0 -10.098,45.546 -4.601,66.186c0.946,-0.332 15.467,-11.326 21.292,-15.808c0.087,-0.067 -3.263,-4.083 -5.854,-8.725c-3.017,-5.407 -4.886,-11.784 -4.795,-11.855c0.154,-0.119 2.387,6.285 5.684,11.589c2.722,4.379 6.161,8.067 6.262,7.989c4.055,-3.15 9.627,-9.73 14.624,-16.093c-0.156,-1.455 -0.656,-6.985 -0.288,-12.337c0.461,-6.698 1.951,-13.221 2.016,-12.722c0.067,0.52 -1.02,6.773 -1.176,12.848c-0.126,4.941 0.512,9.811 0.634,10.691c5.697,-7.343 10.387,-13.997 10.762,-14.199c0.495,-0.265 -6.908,11.345 -13.65,20.736c0.86,0.048 5.681,0.257 10.948,-0.758c8.01,-1.545 17.35,-4.726 18.061,-4.798c0.613,-0.061 -8.337,3.721 -16.58,6.157c-0.144,0.042 2.983,3.54 6.678,6.691c4.896,4.175 17.025,6.11 16.835,6.164c-0.199,0.056 -12.305,-1.434 -17.458,-5.391c-4.222,-3.242 -7.358,-7.08 -7.521,-7.036c-5.897,1.598 -11.382,1.812 -13.141,1.955c-2.339,3.146 -4.471,5.804 -5.996,7.316c-4.196,4.161 -24.596,21.872 -26.224,22.295c0.124,0.414 0.135,0.393 0.267,0.801c2.739,8.436 7.463,21.522 11.929,34.494c1.256,-1.089 5.236,-4.543 9.772,-8.501c-1.276,-0.624 -2.883,-1.166 -4,-2.224c-2.8,-2.653 -8.758,-12.343 -8.047,-11.95c0.735,0.407 5.007,6.656 8.468,10.218c2.31,2.377 5.073,1.972 5.648,2.149c5.074,-4.436 10.422,-9.141 13.227,-11.701c10.58,-9.652 12.807,-19.872 12.807,-19.872c0,0 0.03,8.548 -8.138,19.576c1.123,0.025 9.548,-0.123 14.174,-1.159c5.429,-1.217 17.685,-6.004 18.399,-6.14c0.838,-0.159 -12.157,6.127 -17.883,7.724c-5.323,1.484 -16.296,1.936 -16.473,1.857c-0.295,0.36 -0.599,0.721 -0.912,1.084c-2.751,3.19 -10.019,9.113 -15.56,14.916c-4.387,4.596 -7.624,9.139 -8.944,11.475c4.481,13.334 5.225,25.476 6.613,30.951c3.054,12.059 3.635,30.29 2.967,30.291c0,0 -5.994,2.41 -17.255,2.313c-6.796,-0.059 -9.931,-2.313 -9.931,-2.313c0,0 9.044,-15.073 9.902,-43.362c-1.6,-4.278 -16.506,-15.555 -29.959,-19.894c-5.966,-1.925 -10.508,-4.31 -13.956,-6.743c-2.637,0.655 -17.349,1.562 -16.567,1.468c0.67,-0.08 13.349,-1.998 15.076,-2.575c-7.489,-5.847 -22.099,-21.182 -22.099,-21.182c0,0 12.396,11.823 14.215,13.232c1.947,1.508 4.042,3.225 6.82,4.988c4.066,2.58 8.236,4.147 12.64,5.406c-0.167,-0.242 -0.27,-0.406 -0.27,-0.406c0,0 -0.568,-5.89 -2.405,-12.615c-1.331,-4.872 -5.65,-14.831 -9.494,-23.285c-0.04,-0.088 -6.057,-0.738 -12.118,-1.923c-6.585,-1.287 -13.258,-3.116 -13.301,-3.211c-0.057,-0.125 6.759,1.643 13.363,2.839c5.884,1.066 11.641,1.578 11.591,1.468c-3.215,-7.032 -6.07,-13.172 -6.237,-13.533c-0.255,-0.55 6.424,11.25 11.796,22.411c0.05,0.104 5.624,-3.825 10.489,-8.403c4.47,-4.206 7.891,-8.864 7.937,-8.769c0.056,0.117 -3.12,4.85 -7.406,9.188c-4.819,4.879 -10.521,9.239 -10.458,9.37c2.523,5.285 4.474,10.435 5.619,13.613c2.363,6.558 3.892,12.174 3.951,13.511c2.716,0.705 5.019,1.785 7.951,2.519c6.522,1.633 17.94,8.927 22.503,11.957c-0.369,-3.547 -1.033,-6.799 -2.059,-9.628c-3.247,-8.953 -11.472,-33.233 -12.122,-50.443c-0.117,-3.085 -0.118,-6.055 -0.031,-8.886c-1.564,-0.655 -10.136,-4.746 -18.169,-10.107c-3.043,-2.03 -6.79,-4.847 -10.599,-7.847c-1.796,0.072 -7.026,0.184 -12.053,-0.468c-2.62,-0.34 -5.204,-0.837 -7.343,-1.317c-0.102,-0.023 -1.75,2.044 -4.01,4.155c-2.799,2.613 -6.32,5.379 -6.44,5.351c-0.11,-0.026 3.369,-3.03 5.996,-5.755c1.98,-2.054 3.899,-3.886 3.82,-3.905c-2.605,-0.625 -4.864,-1.289 -4.6,-1.307c0.524,-0.036 6.699,1.426 12.754,1.947c4.395,0.378 8.769,0.146 10.289,0.042c-9.322,-7.428 -18.481,-15.445 -18.082,-15.221c0.559,0.315 20.354,16.334 30.857,22.767c8.254,5.056 16.87,8.821 17.736,9.115c0.29,-6.226 1.781,-14.396 3.568,-22.296c-3.265,-2.773 -10.679,-9.41 -16.188,-14.412c-4.021,-3.651 -11.4,-7.688 -11.766,-7.913c-0.517,-0.32 8.1,4.005 12.285,7.156c0.579,0.435 1.166,0.894 1.768,1.356Z" style="fill:#3d2d2d;"/><path id="trunk-highlight" serif:id="trunk highlight" d="M131.051,105.787c0,0 0.955,5.559 1.14,6.654c2.918,17.282 14.024,58.881 17.387,71.195c2.495,9.139 -3.748,34.61 -7.136,47.131c-4.608,-0.543 -6.762,-2.092 -6.762,-2.092c0,0 9.044,-15.073 9.902,-43.362c0.101,-3.352 1.3,-5.683 -0.319,-10.569c-0.369,-3.547 -1.033,-6.799 -2.059,-9.628c-3.247,-8.953 -11.472,-33.233 -12.122,-50.443c-0.117,-3.085 -0.118,-6.055 -0.031,-8.886Z" style="fill:#533f3f;"/><path id="leaves-2" serif:id="leaves 2" d="M72.223,148.674c0,0 1.199,7.636 6.087,9.865c4.889,2.229 11.494,1.814 11.494,1.814c0,0 -1.18,-6.254 -6.283,-9.62c-5.103,-3.366 -11.298,-2.059 -11.298,-2.059Zm19.173,-5.948c0,0 -3.684,4.701 -2.367,8.638c1.316,3.938 5.032,7.452 5.032,7.452c0,0 2.912,-3.963 2.125,-8.62c-0.787,-4.658 -4.79,-7.47 -4.79,-7.47Zm102.539,9.893c0,0 -2.829,-7.192 -8.086,-8.306c-5.256,-1.113 -11.613,0.728 -11.613,0.728c0,0 2.511,5.848 8.224,8.024c5.712,2.177 11.475,-0.446 11.475,-0.446Zm-124.719,-9.081c0,0 4.183,-4.263 8.258,-3.469c4.075,0.793 8.042,4.021 8.042,4.021c0,0 -3.551,3.403 -8.271,3.228c-4.721,-0.175 -8.029,-3.78 -8.029,-3.78Zm97.513,2.94c0,0 2.386,-4.642 2.587,-10.011c0.274,-7.341 -2.666,-11.095 -2.666,-11.095c0,0 -5.235,6.457 -5.193,12.57c0.043,6.113 5.272,8.536 5.272,8.536Zm-57.651,-0.888c0,0 -5.173,0.698 -10.301,-0.907c-7.01,-2.194 -9.566,-6.22 -9.566,-6.22c0,0 7.835,-2.777 13.582,-0.694c5.748,2.083 6.285,7.821 6.285,7.821Zm108.368,-0.256c0,0 -1.28,-3.728 -4.1,-6.646c-3.855,-3.989 -7.438,-4.351 -7.438,-4.351c0,0 0.779,6.229 4.131,9.403c3.352,3.175 7.407,1.594 7.407,1.594Zm-64.84,-23.665c0,0 -5.217,2.907 -5.529,7.047c-0.312,4.139 1.753,8.819 1.753,8.819c0,0 4.22,-2.525 5.299,-7.124c1.079,-4.599 -1.523,-8.742 -1.523,-8.742Zm-86.965,6.5c0,0 0.926,5.9 4.704,7.622c3.777,1.723 8.882,1.402 8.882,1.402c0,0 -0.912,-4.832 -4.855,-7.434c-3.944,-2.601 -8.731,-1.59 -8.731,-1.59Zm163.807,0.421c0,0 -4.537,-3.884 -8.528,-2.739c-3.991,1.145 -7.662,4.705 -7.662,4.705c0,0 3.832,3.081 8.52,2.496c4.687,-0.584 7.67,-4.462 7.67,-4.462Zm-20.23,-12.294c0,0 4.044,4.395 3.043,8.425c-1.001,4.029 -4.428,7.825 -4.428,7.825c0,0 -3.216,-3.72 -2.8,-8.425c0.416,-4.705 4.185,-7.825 4.185,-7.825Zm-106.587,10.367c0,0 -2.124,-5.582 0.301,-8.952c2.425,-3.37 7.016,-5.624 7.016,-5.624c0,0 1.606,4.648 -0.527,8.863c-2.132,4.215 -6.79,5.713 -6.79,5.713Zm-27.018,-7.492c0,0 -1.805,-7.516 -6.856,-9.347c-5.051,-1.831 -11.602,-0.889 -11.602,-0.889c0,0 1.676,6.139 7.032,9.087c5.355,2.947 11.426,1.149 11.426,1.149Zm113.308,-0.256c0,0 5.205,-0.388 9.889,-3.02c6.405,-3.598 8.072,-8.066 8.072,-8.066c0,0 -8.24,-1.094 -13.432,2.133c-5.192,3.228 -4.529,8.953 -4.529,8.953Zm-75.777,-14.863c0,0 5.705,1.765 6.867,5.751c1.161,3.986 0.11,8.991 0.11,8.991c0,0 -4.652,-1.597 -6.659,-5.874c-2.007,-4.276 -0.318,-8.868 -0.318,-8.868Zm106.371,13.215c0,0 0.411,-5.958 -2.888,-8.479c-3.299,-2.52 -8.347,-3.344 -8.347,-3.344c0,0 -0.187,4.914 3.078,8.328c3.265,3.414 8.157,3.495 8.157,3.495Zm-41.916,-4.181c0,0 0.411,-5.958 -2.888,-8.478c-3.299,-2.521 -8.347,-3.345 -8.347,-3.345c0,0 -0.187,4.915 3.078,8.328c3.265,3.414 8.157,3.495 8.157,3.495Zm-83.812,-2.941c0,0 -2.83,-7.193 -8.086,-8.306c-5.256,-1.114 -11.614,0.727 -11.614,0.727c0,0 2.512,5.848 8.224,8.025c5.713,2.176 11.476,-0.446 11.476,-0.446Zm4.236,0.65c0,0 7.727,-0.174 10.586,-4.723c2.858,-4.549 3.324,-11.152 3.324,-11.152c0,0 -6.355,0.34 -10.369,4.95c-4.014,4.611 -3.541,10.925 -3.541,10.925Zm58.319,-4.468c0,0 -1.805,-7.516 -6.856,-9.347c-5.051,-1.831 -11.602,-0.889 -11.602,-0.889c0,0 1.676,6.139 7.032,9.087c5.356,2.947 11.426,1.149 11.426,1.149Zm5.252,-19.059c0,0 4.043,4.395 3.042,8.424c-1.001,4.03 -4.427,7.826 -4.427,7.826c0,0 -3.217,-3.72 -2.8,-8.425c0.416,-4.705 4.185,-7.825 4.185,-7.825Zm-34.592,-13.251c0,0 -3.653,3.728 -5.434,8.797c-2.435,6.931 -0.737,11.387 -0.737,11.387c0,0 6.911,-4.618 8.68,-10.47c1.769,-5.851 -2.509,-9.714 -2.509,-9.714Zm-14.567,19.408c0,0 -3.396,-4.913 -1.847,-8.765c1.55,-3.851 5.469,-7.137 5.469,-7.137c0,0 2.67,4.129 1.606,8.732c-1.063,4.602 -5.228,7.17 -5.228,7.17Zm38.061,-4.395c0,0 -3.226,-2.267 -7.221,-2.974c-5.463,-0.967 -8.576,0.843 -8.576,0.843c0,0 4.287,4.586 8.864,5.189c4.577,0.602 6.933,-3.058 6.933,-3.058Zm69.047,-15.496c0,0 -11.675,-4.073 -15.554,5.25c-3.879,9.323 -1.927,8.094 -1.927,8.094c0,0 7.136,-1.962 10.761,-5.387c8.352,-7.889 6.72,-7.957 6.72,-7.957Zm-116.912,13.018c0,0 -2.124,-5.582 0.301,-8.952c2.425,-3.37 7.016,-5.624 7.016,-5.624c0,0 1.606,4.648 -0.527,8.863c-2.132,4.215 -6.79,5.713 -6.79,5.713Zm90.997,-8.326c0,0 -3.927,-0.349 -7.74,1.037c-5.214,1.896 -7.004,5.021 -7.004,5.021c0,0 6.006,1.826 10.271,0.058c4.265,-1.768 4.473,-6.116 4.473,-6.116Zm-115.485,6.498c0,0 -5.206,-0.389 -9.89,-3.02c-6.404,-3.598 -8.071,-8.066 -8.071,-8.066c0,0 8.24,-1.094 13.432,2.133c5.192,3.228 4.529,8.953 4.529,8.953Zm78.358,-18.196c0,0 -7.381,-2.293 -11.539,1.11c-4.157,3.403 -6.699,9.515 -6.699,9.515c0,0 6.133,1.7 11.405,-1.394c5.273,-3.095 6.833,-9.231 6.833,-9.231Zm18.469,6.964c0,0 -2.084,-4.787 -6.114,-8.34c-5.509,-4.859 -10.277,-4.958 -10.277,-4.958c0,0 1.686,8.139 6.445,11.975c4.76,3.837 9.946,1.323 9.946,1.323Zm-103.214,-10.299c1.217,0.004 2.464,0.105 3.655,0.357c5.256,1.114 8.085,8.306 8.085,8.306c0,0 -2.849,1.297 -6.526,1.31l-0.061,0c-1.536,0 -3.214,-0.226 -4.888,-0.864c-5.713,-2.176 -8.224,-8.024 -8.224,-8.024c0,0 3.765,-1.09 7.896,-1.086l0.063,0.001Zm115.079,8.478c0,0 5.922,0.776 8.64,-2.362c2.718,-3.138 3.85,-8.126 3.85,-8.126c0,0 -4.893,-0.488 -8.501,2.561c-3.608,3.05 -3.989,7.927 -3.989,7.927Zm-47.804,-5.935c0,0 -5.971,-0.082 -8.211,-3.577c-2.24,-3.495 -2.645,-8.594 -2.645,-8.594c0,0 4.913,0.219 8.046,3.754c3.133,3.535 2.81,8.417 2.81,8.417Zm37.461,-3.103c0,0 3.932,-0.293 7.469,-2.28c4.837,-2.718 6.096,-6.092 6.096,-6.092c0,0 -6.223,-0.826 -10.144,1.611c-3.921,2.437 -3.421,6.761 -3.421,6.761Zm-34.393,-7.385c-0.497,-0.031 -6.463,-0.5 -10.37,-4.861c-4.08,-4.553 -3.632,-10.901 -3.632,-10.901c0,0 6.495,1.278 10.656,4.676c2.789,2.278 3.358,6.485 3.429,9.01c0.285,-1.961 1.268,-4.876 4.449,-6.853c5.192,-3.227 13.432,-2.133 13.432,-2.133c0,0 -1.667,4.468 -8.072,8.066c-4.684,2.631 -9.89,3.019 -9.89,3.019c0,0 0,-0.007 -0.002,-0.023Zm-29.786,-9.25c0,0 -3.61,0.717 -7.288,-0.189c-5.029,-1.238 -7.003,-3.96 -7.003,-3.96c0,0 5.392,-2.295 9.527,-1.08c4.136,1.214 4.764,5.229 4.764,5.229Z" style="fill:#3193a1;"/><path id="leaves-3" serif:id="leaves 3" d="M93.378,159.385c0,0 -5.296,2.762 -5.721,6.891c-0.426,4.13 1.508,8.864 1.508,8.864c0,0 4.288,-2.407 5.494,-6.975c1.205,-4.567 -1.281,-8.78 -1.281,-8.78Zm80.472,-14.463c0,0 3.568,0.905 6.499,3.305c4.008,3.28 4.62,6.587 4.62,6.587c0,0 -5.856,-0.247 -9.067,-3.122c-3.211,-2.875 -2.052,-6.77 -2.052,-6.77Zm-21.478,-2.698c0,0 1.386,-3.409 4.165,-5.984c3.799,-3.52 7.158,-3.672 7.158,-3.672c0,0 -1.047,5.766 -4.335,8.552c-3.289,2.787 -6.988,1.104 -6.988,1.104Zm-73.391,-4.956c0,0 -5.019,-5.878 -10.351,-5.218c-5.332,0.661 -10.742,4.473 -10.742,4.473c0,0 4.28,4.71 10.39,4.907c6.11,0.196 10.703,-4.162 10.703,-4.162Zm69.419,0.103c0,0 4.798,-2.057 8.374,-6.066c4.89,-5.481 5.017,-10.248 5.017,-10.248c0,0 -8.149,1.638 -12.012,6.376c-3.864,4.737 -1.379,9.938 -1.379,9.938Zm-25.877,-15.239c0,0 -7.69,-0.77 -11.083,3.396c-3.392,4.166 -4.66,10.662 -4.66,10.662c0,0 6.349,0.439 10.896,-3.647c4.547,-4.087 4.847,-10.411 4.847,-10.411Zm76.424,13.335c0,0 -0.929,-3.561 -0.242,-7.286c0.938,-5.094 3.538,-7.225 3.538,-7.225c0,0 2.611,5.247 1.643,9.447c-0.969,4.2 -4.939,5.064 -4.939,5.064Zm-113.861,-7.646c0,0 3.657,3.725 8.691,5.604c6.882,2.568 11.37,0.957 11.37,0.957c0,0 -4.483,-6.999 -10.299,-8.881c-5.817,-1.882 -9.762,2.32 -9.762,2.32Zm128.026,2.57c0,0 4.649,-2.374 7.948,-6.615c4.51,-5.798 4.316,-10.562 4.316,-10.562c0,0 -8.02,2.183 -11.556,7.169c-3.536,4.987 -0.708,10.008 -0.708,10.008Zm-138.425,-11.698c0,0 -4.592,-3.819 -8.566,-2.618c-3.974,1.201 -7.595,4.813 -7.595,4.813c0,0 3.876,3.026 8.555,2.376c4.679,-0.651 7.606,-4.571 7.606,-4.571Zm113.649,2.263c0,0 1.57,-5.763 -1.172,-8.88c-2.741,-3.118 -7.53,-4.914 -7.53,-4.914c0,0 -1.146,4.782 1.388,8.769c2.533,3.987 7.314,5.025 7.314,5.025Zm-65.427,-6.374c0,0 -0.725,-3.608 0.173,-7.289c1.227,-5.031 3.944,-7.012 3.944,-7.012c0,0 2.307,5.387 1.102,9.526c-1.206,4.138 -5.219,4.775 -5.219,4.775Zm-60.281,-6.737c0,0 5.96,-0.382 8.022,-3.985c2.062,-3.603 2.21,-8.716 2.21,-8.716c0,0 -4.896,0.465 -7.847,4.153c-2.952,3.688 -2.385,8.548 -2.385,8.548Zm159.063,-12.555c2.922,0.01 5.096,0.772 5.096,0.772c0,0 -2.942,5.929 -7.316,9.049c-1.555,1.109 -3.469,1.472 -5.289,1.481l-0.06,0c-3.278,0 -6.238,-1.14 -6.238,-1.14c0,0 1.964,-6.019 7.43,-8.756c2.157,-1.08 4.397,-1.407 6.32,-1.406l0.057,0Zm-35.073,10.11c0,0 -5.031,1.392 -10.329,0.497c-7.243,-1.223 -10.321,-4.865 -10.321,-4.865c0,0 7.386,-3.813 13.363,-2.529c5.977,1.284 7.287,6.897 7.287,6.897Zm-49.06,-12.667c0,0 2.917,5.212 7.058,5.516c4.14,0.303 8.815,-1.77 8.815,-1.77c0,0 -2.533,-4.215 -7.134,-5.285c-4.601,-1.071 -8.739,1.539 -8.739,1.539Zm-28.386,0.355c0,0 -4.592,-3.819 -8.566,-2.618c-3.974,1.201 -7.595,4.813 -7.595,4.813c0,0 3.876,3.027 8.555,2.376c4.678,-0.651 7.606,-4.571 7.606,-4.571Zm85.561,-3.559c0,0 3.677,0.162 7.035,1.916c4.59,2.398 5.861,5.511 5.861,5.511c0,0 -5.784,0.948 -9.512,-1.215c-3.728,-2.164 -3.384,-6.212 -3.384,-6.212Zm-135.888,4.476c0,0 7.213,2.778 11.587,-0.342c4.374,-3.12 7.316,-9.049 7.316,-9.049c0,0 -6.007,-2.103 -11.473,0.634c-5.466,2.737 -7.43,8.757 -7.43,8.757Zm142.5,-7.233c0,0 4.324,6.407 9.696,6.353c5.372,-0.054 11.179,-3.231 11.179,-3.231c0,0 -3.721,-5.164 -9.77,-6.048c-6.049,-0.885 -11.105,2.926 -11.105,2.926Zm-48.351,-6.129c0,0 5.337,5.59 10.624,4.635c5.287,-0.955 10.478,-5.062 10.478,-5.062c0,0 -4.535,-4.465 -10.646,-4.322c-6.112,0.143 -10.456,4.749 -10.456,4.749Zm-44.449,2.662c0,0 7.213,2.778 11.587,-0.341c4.374,-3.12 7.316,-9.049 7.316,-9.049c0,0 -6.007,-2.104 -11.473,0.633c-5.466,2.738 -7.43,8.757 -7.43,8.757Zm26.718,-6.915c0,0 3.678,0.129 7.051,1.853c4.612,2.357 5.91,5.459 5.91,5.459c0,0 -5.775,0.999 -9.522,-1.13c-3.747,-2.13 -3.439,-6.182 -3.439,-6.182Zm-40.529,-10.141c0,0 -3.832,4.58 -2.643,8.558c1.19,3.977 4.791,7.609 4.791,7.609c0,0 3.038,-3.867 2.401,-8.548c-0.637,-4.681 -4.549,-7.619 -4.549,-7.619Zm91.707,5.276c0,0 5.671,5.252 10.889,3.975c5.219,-1.278 10.147,-5.696 10.147,-5.696c0,0 -4.8,-4.179 -10.891,-3.661c-6.091,0.518 -10.145,5.382 -10.145,5.382Zm-83.162,-6.502c0,0 3.376,-1.464 7.163,-1.357c5.177,0.146 7.682,2.388 7.682,2.388c0,0 -4.784,3.385 -9.083,3.072c-4.299,-0.312 -5.762,-4.103 -5.762,-4.103Zm72.976,-2.152c0,0 1.758,-7.527 -1.935,-11.429c-3.693,-3.903 -9.971,-5.999 -9.971,-5.999c0,0 -1.256,6.239 2.209,11.275c3.464,5.037 9.697,6.153 9.697,6.153Zm-89.522,-6.968c0,0 4.323,6.407 9.696,6.353c5.372,-0.054 11.179,-3.231 11.179,-3.231c0,0 -3.721,-5.163 -9.77,-6.048c-6.049,-0.885 -11.105,2.926 -11.105,2.926Zm53.935,5.105c0,0 3.91,0.509 7.776,-0.722c5.286,-1.682 7.202,-4.732 7.202,-4.732c0,0 -5.927,-2.068 -10.26,-0.475c-4.333,1.594 -4.718,5.929 -4.718,5.929Zm-41.408,-14.121c0,0 2.615,5.37 6.732,5.909c4.116,0.539 8.902,-1.264 8.902,-1.264c0,0 -2.289,-4.353 -6.821,-5.684c-4.533,-1.33 -8.813,1.039 -8.813,1.039Zm12.728,-1.128c0,0 2.999,-2.559 4.68,-6.253c2.297,-5.049 1.32,-8.515 1.32,-8.515c0,0 -5.51,3.008 -7.234,7.291c-1.723,4.283 1.234,7.477 1.234,7.477Z" style="fill:#3dbcba;"/></g></svg>