<svg width="912" height="359" viewBox="0 0 912 359" fill="none" xmlns="http://www.w3.org/2000/svg">
<path d="M860.912 166.09C860.784 165.5 860.656 164.904 860.527 164.302C860.527 163.878 860.374 163.455 860.297 163.013L860.181 162.398C860.085 161.84 859.989 161.283 859.912 160.725V160.513C859.439 157.432 859.176 154.323 859.124 151.206C859.037 146.134 859.685 141.075 861.047 136.188C856.981 139.646 853.702 143.934 851.432 148.764C848.43 146.318 846.229 143.029 845.112 139.321C843.994 135.613 844.012 131.656 845.163 127.958C832.705 131.584 822.151 139.924 815.742 151.206C816.511 152.488 817.319 153.655 818.165 154.706C818.588 155.27 819.024 155.815 819.473 156.341L819.934 156.879L819.607 162.532C819.57 163.184 819.68 163.835 819.93 164.438C820.179 165.041 820.562 165.579 821.05 166.013L821.742 166.628L824.165 168.782L822.607 159.744C823.287 160.411 823.985 161.052 824.703 161.667C824.772 162.769 825.112 163.837 825.692 164.776C826.272 165.715 827.075 166.497 828.03 167.051C830.66 168.632 833.573 169.684 836.606 170.147C837.133 170.211 837.665 170.066 838.087 169.743C839.221 170.224 840.394 170.666 841.587 171.07C841.651 170.634 841.728 170.205 841.817 169.782L841.913 169.34C841.913 169.051 842.029 168.782 842.106 168.513L842.26 167.994L842.471 167.263L842.663 166.705L842.894 166.032L843.106 165.455L843.356 164.84L843.606 164.263L843.875 163.686L844.163 163.109L844.452 162.571L844.779 161.975L845.086 161.456L845.452 160.86L845.759 160.379L846.182 159.783L846.509 159.36L846.971 158.744L847.278 158.36L847.817 157.725L848.086 157.417L848.721 156.725L848.836 156.61C849.722 155.692 850.66 154.826 851.643 154.014C853.28 157.056 855.268 159.895 857.566 162.475V162.571L858.105 163.186L858.297 163.398L858.778 163.936L859.066 164.244L859.489 164.686L859.893 165.109L860.22 165.436L860.951 166.186L860.912 166.09Z" fill="#65A4C5"/>
<path d="M759.555 7.83098C759.555 7.69637 759.555 7.54257 759.555 7.38874V7.08112V6.9465C759.555 6.81189 759.555 6.658 759.555 6.52339C759.555 6.36956 759.555 6.21574 759.555 6.06191C759.538 5.30169 759.595 4.54165 759.728 3.79285C759.739 3.71955 759.727 3.64449 759.692 3.57877C759.658 3.51305 759.603 3.46015 759.537 3.42784C759.47 3.39552 759.394 3.38553 759.321 3.39932C759.249 3.4131 759.182 3.44989 759.132 3.50436C758.541 4.33358 757.746 4.996 756.824 5.4273L755.978 5.04281C756.069 4.85009 756.084 4.63006 756.02 4.42687C755.955 4.22367 755.817 4.05226 755.632 3.94672C755.382 3.79288 755.017 3.6967 754.824 3.42748C754.632 3.15827 754.728 2.85058 754.594 2.56214C754.132 1.65836 752.44 2.36981 751.69 1.92753C751.267 1.67755 751.19 1.11998 750.844 0.812313C750.622 0.659064 750.37 0.554152 750.105 0.50446C749.84 0.454767 749.568 0.461358 749.305 0.523825C748.767 0.523825 748.267 0.946924 747.748 0.696942C747.229 0.446959 747.113 -0.0530946 746.536 0.00459362C745.96 0.0622819 745.267 1.17758 745.229 2.04291C744.124 2.22704 743.083 2.68888 742.205 3.38512C741.328 4.08135 740.641 4.98918 740.21 6.02341C740.578 6.49111 741.027 6.88858 741.537 7.19649L741.902 7.40799L742.325 7.61948C742.698 7.79151 743.083 7.93305 743.479 8.04259L743.863 8.88869L743.979 9.11943V9.25394V9.35018L744.075 9.4463C744.231 9.59051 744.406 9.71337 744.594 9.81166C744.806 9.92154 745.033 9.9993 745.267 10.0424L746.094 10.1963L744.344 8.04259C744.76 8.06886 745.178 8.06886 745.594 8.04259H745.921C746.229 8.56178 746.498 9.15784 747.248 8.94632C747.69 8.81171 747.767 8.67705 748.286 8.7732C748.61 8.83551 748.943 8.83551 749.267 8.7732C749.595 8.65552 749.905 8.49379 750.19 8.29247C750.545 8.16938 750.931 8.16938 751.286 8.29247C752.151 8.42707 752.382 7.92713 753.074 7.60023C753.382 7.46563 753.901 7.44646 754.151 7.17724C754.224 7.10643 754.275 7.01653 754.299 6.91786C754.323 6.8192 754.318 6.7157 754.286 6.61952H754.44H754.632H754.767H754.959H755.094H755.286H755.382H755.593H755.805H756.016H756.247H756.478C757.156 6.87457 757.759 7.29813 758.228 7.85023L758.516 8.15796L758.747 8.40795C758.779 8.44169 758.818 8.46848 758.861 8.48682C758.904 8.50517 758.95 8.51464 758.997 8.51464C759.044 8.51464 759.09 8.50517 759.133 8.48682C759.176 8.46848 759.215 8.44169 759.247 8.40795C759.3 8.35653 759.334 8.28869 759.343 8.21559C759.415 8.18305 759.475 8.12803 759.513 8.05867C759.551 7.98931 759.566 7.90934 759.555 7.83098Z" fill="#65A4C5"/>
<path d="M911.543 135.11C911.543 134.976 911.543 134.822 911.543 134.668V134.361V134.303C911.543 134.162 911.543 134.021 911.543 133.88C911.543 133.726 911.543 133.572 911.543 133.418C911.526 132.658 911.584 131.898 911.716 131.149C911.727 131.076 911.715 131.001 911.681 130.935C911.646 130.869 911.592 130.816 911.525 130.784C911.458 130.752 911.383 130.742 911.31 130.756C911.237 130.769 911.17 130.806 911.12 130.861C910.529 131.69 909.735 132.352 908.812 132.784L907.966 132.399C908.057 132.206 908.072 131.987 908.008 131.783C907.944 131.58 907.805 131.409 907.62 131.303C907.37 131.149 907.005 131.053 906.813 130.784C906.62 130.515 906.716 130.207 906.582 129.918C906.12 129.015 904.428 129.726 903.678 129.284C903.255 129.034 903.178 128.496 902.832 128.169C902.61 128.015 902.359 127.91 902.094 127.861C901.829 127.811 901.556 127.818 901.294 127.88C900.755 127.88 900.255 128.303 899.736 128.053C899.217 127.803 899.102 127.303 898.525 127.361C897.948 127.419 897.256 128.534 897.217 129.399C896.112 129.583 895.072 130.045 894.194 130.742C893.316 131.438 892.629 132.346 892.198 133.38C892.566 133.848 893.016 134.245 893.525 134.553L893.89 134.764L894.313 134.976C894.686 135.147 895.072 135.289 895.467 135.399L895.852 136.245L895.967 136.476V136.61V136.707L896.063 136.803C896.22 136.947 896.394 137.07 896.582 137.168C896.794 137.278 897.021 137.355 897.256 137.399L898.082 137.553L896.332 135.399C896.749 135.425 897.166 135.425 897.582 135.399H897.832C898.14 135.918 898.409 136.514 899.159 136.303C899.602 136.168 899.678 136.033 900.198 136.13C900.522 136.192 900.854 136.192 901.178 136.13C901.506 136.012 901.817 135.85 902.101 135.649C902.456 135.526 902.842 135.526 903.197 135.649C904.063 135.784 904.293 135.284 904.986 134.957C905.293 134.822 905.813 134.803 906.063 134.534C906.135 134.463 906.187 134.373 906.21 134.274C906.234 134.176 906.23 134.072 906.197 133.976H906.351H906.543H906.678H906.87H907.005H907.197H907.447H907.659H907.87H908.082H908.312H908.543C909.222 134.231 909.824 134.654 910.293 135.207L910.582 135.514L910.812 135.764C910.845 135.798 910.883 135.825 910.926 135.843C910.969 135.861 911.016 135.871 911.062 135.871C911.109 135.871 911.155 135.861 911.198 135.843C911.241 135.825 911.28 135.798 911.312 135.764C911.365 135.713 911.399 135.645 911.408 135.572C911.486 135.527 911.544 135.454 911.569 135.368C911.594 135.282 911.585 135.19 911.543 135.11Z" fill="#65A4C5"/>
<path d="M574.164 211.22C574.164 211.085 574.164 210.931 574.164 210.777V210.47V210.335C574.164 210.2 574.164 210.047 574.164 209.912C574.164 209.758 574.164 209.604 574.164 209.451C574.147 208.69 574.205 207.93 574.337 207.182C574.349 207.108 574.336 207.033 574.302 206.967C574.267 206.902 574.213 206.849 574.146 206.817C574.079 206.784 574.004 206.774 573.931 206.788C573.858 206.802 573.791 206.839 573.741 206.893C573.151 207.723 572.356 208.385 571.434 208.816L570.587 208.431C570.678 208.239 570.693 208.019 570.629 207.816C570.565 207.612 570.426 207.441 570.241 207.335C569.991 207.181 569.626 207.085 569.434 206.816C569.241 206.547 569.338 206.239 569.203 205.951C568.741 205.047 567.049 205.758 566.299 205.316C565.876 205.066 565.799 204.509 565.453 204.201C565.231 204.048 564.98 203.943 564.715 203.893C564.45 203.843 564.177 203.85 563.915 203.912C563.376 203.912 562.876 204.335 562.357 204.085C561.838 203.836 561.723 203.336 561.146 203.393C560.569 203.451 559.877 204.566 559.838 205.432C558.733 205.616 557.693 206.078 556.815 206.774C555.937 207.47 555.25 208.378 554.819 209.412C555.187 209.88 555.637 210.277 556.146 210.585L556.512 210.797L556.935 211.008C557.307 211.18 557.693 211.322 558.088 211.431L558.473 212.277L558.588 212.508V212.643V212.739L558.684 212.835C558.841 212.979 559.015 213.102 559.204 213.2C559.415 213.31 559.642 213.388 559.877 213.431L560.704 213.585L558.954 211.431C559.37 211.457 559.787 211.457 560.204 211.431H560.338C560.646 211.95 560.915 212.547 561.665 212.335C562.107 212.2 562.184 212.066 562.703 212.162C563.027 212.225 563.36 212.225 563.684 212.162C564.012 212.044 564.323 211.882 564.607 211.681C564.962 211.558 565.348 211.558 565.703 211.681C566.569 211.816 566.799 211.316 567.492 210.989C567.799 210.854 568.318 210.835 568.568 210.566C568.641 210.495 568.692 210.405 568.716 210.306C568.74 210.208 568.735 210.104 568.703 210.008H568.857H569.049H569.184H569.376H569.511H569.703H569.799H570.011H570.222H570.434H570.664H570.895C571.573 210.264 572.175 210.687 572.645 211.239L572.933 211.547L573.164 211.797C573.197 211.83 573.235 211.857 573.278 211.875C573.321 211.894 573.367 211.903 573.414 211.903C573.461 211.903 573.507 211.894 573.55 211.875C573.593 211.857 573.632 211.83 573.664 211.797C573.717 211.745 573.751 211.677 573.76 211.604C573.814 211.614 573.869 211.611 573.921 211.595C573.973 211.579 574.02 211.552 574.059 211.514C574.099 211.477 574.129 211.431 574.147 211.379C574.165 211.328 574.171 211.273 574.164 211.22Z" fill="#65A4C5"/>
<path d="M128.118 184.8C128.118 184.665 128.118 184.511 128.118 184.357V184.05V183.915C128.118 183.774 128.118 183.633 128.118 183.492C128.118 183.338 128.118 183.184 128.118 183.031C128.101 182.27 128.159 181.51 128.291 180.761C128.303 180.688 128.29 180.613 128.256 180.548C128.221 180.482 128.167 180.429 128.1 180.396C128.033 180.364 127.958 180.354 127.885 180.368C127.812 180.382 127.746 180.419 127.695 180.473C127.105 181.302 126.31 181.965 125.388 182.396L124.542 182.011C124.632 181.819 124.647 181.599 124.583 181.396C124.519 181.192 124.381 181.021 124.195 180.915C123.945 180.762 123.58 180.665 123.388 180.396C123.196 180.127 123.292 179.819 123.157 179.531C122.696 178.627 121.003 179.339 120.253 178.896C119.83 178.646 119.753 178.089 119.407 177.781C119.185 177.628 118.934 177.523 118.669 177.473C118.404 177.424 118.131 177.43 117.869 177.493C117.331 177.493 116.831 177.916 116.311 177.666C115.792 177.416 115.677 176.916 115.1 176.973C114.523 177.031 113.831 178.146 113.792 179.012C112.687 179.196 111.647 179.658 110.769 180.354C109.891 181.05 109.204 181.958 108.773 182.992C109.141 183.46 109.591 183.857 110.1 184.165L110.466 184.377L110.889 184.588C111.261 184.76 111.647 184.901 112.042 185.011L112.427 185.857L112.542 186.088V186.223V186.319L112.639 186.415C112.795 186.559 112.969 186.682 113.158 186.78C113.369 186.89 113.596 186.968 113.831 187.011L114.658 187.165L112.908 185.011C113.324 185.037 113.741 185.037 114.158 185.011H114.292C114.6 185.53 114.869 186.127 115.619 185.915C116.061 185.78 116.138 185.646 116.658 185.742C116.981 185.805 117.314 185.805 117.638 185.742C117.966 185.624 118.277 185.463 118.561 185.261C118.916 185.138 119.302 185.138 119.657 185.261C120.523 185.396 120.753 184.896 121.446 184.569C121.753 184.434 122.272 184.415 122.522 184.146C122.595 184.075 122.646 183.985 122.67 183.886C122.694 183.788 122.689 183.684 122.657 183.588H122.811H123.003H123.138H123.33H123.465H123.657H123.753H123.965H124.176H124.388H124.618H124.849C125.527 183.844 126.129 184.268 126.599 184.819L126.888 185.127L127.118 185.377C127.151 185.41 127.189 185.437 127.232 185.456C127.275 185.474 127.322 185.483 127.368 185.483C127.415 185.483 127.461 185.474 127.504 185.456C127.547 185.437 127.586 185.41 127.618 185.377C127.671 185.325 127.705 185.257 127.714 185.184C127.768 185.194 127.823 185.191 127.875 185.175C127.927 185.159 127.974 185.132 128.014 185.094C128.053 185.057 128.083 185.01 128.101 184.959C128.119 184.908 128.125 184.854 128.118 184.8Z" fill="#65A4C5"/>
<path d="M565.818 301.119C565.818 300.888 565.818 300.638 565.703 300.388C565.587 300.138 565.703 300.042 565.703 299.869V299.676C565.703 299.446 565.703 299.215 565.703 298.965C565.703 298.715 565.703 298.446 565.703 298.196C565.668 296.907 565.765 295.619 565.991 294.35C566.012 294.226 565.993 294.099 565.935 293.988C565.878 293.876 565.786 293.787 565.673 293.732C565.56 293.678 565.432 293.662 565.309 293.687C565.186 293.711 565.075 293.775 564.991 293.869C564.018 295.277 562.692 296.404 561.145 297.138L559.742 296.503C559.891 296.187 559.916 295.826 559.813 295.492C559.71 295.157 559.486 294.873 559.184 294.696C558.78 294.427 558.165 294.292 557.857 293.831C557.55 293.369 557.703 292.869 557.453 292.408C556.703 290.908 553.896 292.1 552.627 291.35C551.915 290.927 551.819 290.023 551.242 289.427C550.873 289.174 550.454 289.001 550.014 288.918C549.574 288.835 549.121 288.845 548.685 288.946C547.781 288.946 546.954 289.658 546.108 289.235C545.262 288.812 545.07 287.985 544.185 288.081C542.762 288.216 542.07 290.004 542.012 291.446C540.184 291.749 538.462 292.512 537.009 293.662C535.556 294.812 534.419 296.313 533.705 298.023C534.321 298.791 535.07 299.443 535.916 299.946L536.532 300.311L537.224 300.657C537.845 300.94 538.488 301.171 539.147 301.349L539.762 302.753C539.825 302.885 539.896 303.014 539.974 303.138V303.272L540.128 303.503L540.243 303.657L540.378 303.811L540.551 303.984C540.806 304.218 541.09 304.419 541.397 304.58C541.741 304.761 542.111 304.891 542.493 304.964L543.877 305.214L540.993 301.638C541.682 301.727 542.375 301.771 543.07 301.772H543.281C543.781 302.638 544.243 303.695 545.473 303.272C546.223 303.061 546.358 302.83 547.185 303.003C547.709 303.157 548.257 303.209 548.8 303.157C549.34 302.956 549.851 302.685 550.319 302.349C550.905 302.147 551.541 302.147 552.127 302.349C553.55 302.561 553.934 301.734 555.088 301.195C555.607 300.965 556.453 300.945 556.876 300.503C556.996 300.385 557.079 300.236 557.116 300.072C557.154 299.909 557.144 299.738 557.088 299.58H557.338H557.665H557.896H558.223H558.434H558.761H558.934H559.28H559.415H559.78H559.876H560.242L560.607 299.484L560.972 299.388C562.096 299.804 563.095 300.499 563.876 301.407L564.357 301.907L564.741 302.311C564.795 302.366 564.859 302.41 564.93 302.44C565.001 302.47 565.078 302.485 565.155 302.485C565.232 302.485 565.308 302.47 565.379 302.44C565.45 302.41 565.514 302.366 565.568 302.311C565.658 302.23 565.718 302.122 565.741 302.003C565.808 301.953 565.864 301.889 565.905 301.816C565.945 301.742 565.97 301.662 565.977 301.578C565.985 301.495 565.974 301.411 565.947 301.331C565.919 301.252 565.875 301.18 565.818 301.119Z" fill="#65A4C5"/>
<path d="M385.35 352.595C385.35 352.268 385.235 351.941 385.196 351.595C385.158 351.248 385.196 351.133 385.196 350.902V350.595C385.196 350.287 385.196 349.96 385.196 349.652C385.196 349.306 385.196 348.96 385.196 348.614C385.156 346.913 385.285 345.213 385.581 343.537C385.603 343.373 385.572 343.206 385.494 343.061C385.415 342.915 385.293 342.797 385.144 342.725C384.995 342.653 384.827 342.629 384.664 342.657C384.501 342.686 384.351 342.765 384.235 342.884C382.933 344.782 381.156 346.307 379.081 347.306L377.159 346.441C377.353 346.011 377.381 345.524 377.239 345.073C377.098 344.623 376.795 344.241 376.389 343.999C375.851 343.634 375.005 343.441 374.582 342.845C374.159 342.249 374.37 341.557 374.043 340.922C373.024 338.903 369.217 340.499 367.525 339.499C366.563 338.922 366.428 337.711 365.602 337.019C365.102 336.675 364.536 336.44 363.94 336.327C363.344 336.215 362.731 336.227 362.14 336.365C360.929 336.365 359.814 337.326 358.66 336.75C357.506 336.173 357.237 335.057 355.929 335.192C354.006 335.365 353.083 337.826 353.006 339.73C344.911 340.634 341.776 348.633 341.776 348.633C342.604 349.678 343.614 350.563 344.757 351.248L345.584 351.729L346.526 352.21C347.352 352.592 348.207 352.907 349.084 353.152L349.93 355.075C350.009 355.259 350.099 355.439 350.199 355.614L350.314 355.787L350.526 356.094L350.699 356.306L350.891 356.517L351.122 356.748C351.468 357.073 351.856 357.351 352.276 357.575C352.741 357.819 353.24 357.994 353.756 358.094L355.679 358.44L351.833 353.614C352.765 353.731 353.702 353.788 354.641 353.787H354.929C355.602 354.941 356.237 356.306 357.91 355.806C358.91 355.517 359.102 355.19 360.217 355.44C360.928 355.651 361.672 355.723 362.41 355.652C363.14 355.386 363.832 355.023 364.467 354.575C365.247 354.272 366.104 354.232 366.909 354.46C368.832 354.748 369.351 353.633 370.928 352.902C371.62 352.575 372.851 352.575 373.332 351.96C373.492 351.799 373.604 351.597 373.655 351.376C373.706 351.155 373.694 350.924 373.62 350.71H373.966L374.409 350.595H374.716L375.139 350.479H375.428L375.87 350.364H376.101L376.582 350.248H376.755L377.235 350.114H377.37L377.87 349.979L378.37 349.845L378.87 349.71C380.359 350.287 381.68 351.225 382.716 352.441L383.35 353.114L383.889 353.671C383.962 353.745 384.049 353.803 384.145 353.842C384.24 353.882 384.343 353.902 384.446 353.902C384.55 353.902 384.653 353.882 384.748 353.842C384.844 353.803 384.931 353.745 385.004 353.671C385.125 353.56 385.207 353.411 385.235 353.248C385.3 353.154 385.345 353.047 385.365 352.934C385.385 352.821 385.38 352.705 385.35 352.595Z" fill="#65A4C5"/>
<path d="M814.646 172.973C814.646 172.762 814.646 172.55 814.55 172.32C814.454 172.089 814.55 172.012 814.55 171.858V171.666C814.55 171.461 814.55 171.255 814.55 171.05C814.55 170.82 814.55 170.589 814.55 170.377C814.523 169.263 814.607 168.149 814.8 167.051C814.817 166.942 814.799 166.831 814.749 166.733C814.698 166.635 814.618 166.556 814.519 166.507C814.421 166.457 814.31 166.441 814.201 166.459C814.093 166.477 813.993 166.53 813.916 166.608C813.061 167.856 811.894 168.857 810.531 169.512L809.281 168.954C809.42 168.672 809.446 168.348 809.353 168.047C809.26 167.747 809.055 167.493 808.781 167.339C808.435 167.108 807.878 166.974 807.609 166.589C807.339 166.204 807.474 165.743 807.262 165.339C806.589 164.012 804.109 165.07 802.993 164.397C802.359 164.032 802.263 163.224 801.763 162.762C801.435 162.538 801.063 162.385 800.673 162.312C800.282 162.239 799.881 162.249 799.494 162.339C798.686 162.339 797.975 162.974 797.205 162.589C796.436 162.205 796.282 161.493 795.417 161.57C794.148 161.686 793.494 163.301 793.494 164.551C791.88 164.809 790.359 165.474 789.074 166.483C787.788 167.493 786.782 168.813 786.148 170.32C786.682 171 787.333 171.58 788.071 172.031L788.61 172.358L789.225 172.666C789.765 172.915 790.325 173.121 790.898 173.281L791.456 174.531L791.629 174.877V174.992L791.764 175.185L791.879 175.319L791.994 175.454L792.148 175.608C792.373 175.819 792.626 176 792.898 176.146C793.206 176.309 793.536 176.426 793.879 176.492L795.109 176.723L792.552 173.569C793.19 173.65 793.832 173.689 794.475 173.685H794.667C795.109 174.435 795.532 175.338 796.59 175.012C797.244 174.819 797.359 174.608 798.109 174.762C798.571 174.895 799.054 174.941 799.532 174.896C800.01 174.72 800.463 174.48 800.878 174.185C801.395 174.007 801.957 174.007 802.474 174.185C803.743 174.377 804.07 173.646 805.109 173.166C805.57 172.954 806.32 172.954 806.685 172.55C806.789 172.447 806.863 172.316 806.897 172.174C806.931 172.031 806.924 171.882 806.878 171.743H807.109H807.397H807.609H807.897H808.089H808.378H808.532H808.839H808.955H809.262H809.589H809.916H810.243C811.233 172.114 812.112 172.729 812.8 173.531L813.223 173.973L813.57 174.339C813.667 174.435 813.798 174.489 813.935 174.489C814.072 174.489 814.203 174.435 814.3 174.339C814.384 174.263 814.438 174.161 814.454 174.05C814.597 174.076 814.744 174.043 814.863 173.96C814.982 173.877 815.063 173.751 815.089 173.608C815.114 173.465 815.082 173.318 814.999 173.199C814.916 173.08 814.789 172.999 814.646 172.973Z" fill="#65A4C5"/>
<path d="M29.2783 249.238C29.2783 249.026 29.2783 248.815 29.1821 248.584C29.086 248.353 29.1821 248.276 29.1821 248.123V247.93C29.1821 247.725 29.1821 247.52 29.1821 247.315C29.1821 247.084 29.1821 246.86 29.1821 246.642C29.1549 245.527 29.2386 244.413 29.4321 243.315C29.4489 243.206 29.4308 243.095 29.3804 242.997C29.3299 242.9 29.2496 242.82 29.1512 242.771C29.0528 242.722 28.9413 242.705 28.8328 242.724C28.7243 242.742 28.6244 242.794 28.5475 242.873C27.6925 244.12 26.5256 245.121 25.1632 245.777L23.9133 245.219C24.052 244.937 24.0776 244.612 23.9846 244.312C23.8916 244.011 23.6872 243.758 23.4133 243.604C23.0672 243.373 22.5095 243.238 22.2403 242.854C21.9711 242.469 22.1057 242.008 21.8942 241.604C21.2211 240.277 18.7405 241.335 17.6252 240.662C16.9907 240.296 16.8945 239.489 16.3945 239.027C16.0663 238.803 15.6951 238.65 15.3045 238.577C14.9139 238.504 14.5124 238.513 14.1255 238.604C13.3179 238.604 12.6064 239.239 11.8372 238.854C11.068 238.469 10.9142 237.758 10.0489 237.835C8.77972 237.95 8.12592 239.565 8.12592 240.815C6.51217 241.073 4.9908 241.738 3.70553 242.748C2.42025 243.757 1.41348 245.078 0.780273 246.584C1.31403 247.265 1.96527 247.844 2.70321 248.296L3.24164 248.623L3.85699 248.93C4.39727 249.18 4.95671 249.386 5.52994 249.546L6.08758 250.795L6.26067 251.142V251.257L6.39526 251.449L6.51063 251.584L6.626 251.718L6.77984 251.872C7.00523 252.084 7.25736 252.265 7.52979 252.411C7.83785 252.574 8.16834 252.69 8.5105 252.757L9.74119 252.988L7.18367 249.834C7.82141 249.915 8.46379 249.953 9.10661 249.949H9.29889C9.74117 250.699 10.1642 251.603 11.2218 251.276C11.8756 251.084 11.991 250.872 12.741 251.026C13.2027 251.16 13.6854 251.205 14.164 251.161C14.6421 250.984 15.0947 250.745 15.51 250.449C16.0273 250.272 16.5888 250.272 17.1061 250.449C18.3752 250.642 18.7021 249.911 19.7405 249.43C20.202 249.219 20.9519 249.219 21.3173 248.815C21.4213 248.711 21.4944 248.581 21.5284 248.438C21.5623 248.296 21.5558 248.146 21.5096 248.007H21.7403H22.0288H22.2403H22.5287H22.721H23.0095H23.1633H23.471H23.5864H23.894H24.2209H24.5478H24.8747C25.8643 248.378 26.7441 248.993 27.4322 249.796L27.8553 250.238L28.2014 250.603C28.2986 250.699 28.4299 250.753 28.5668 250.753C28.7036 250.753 28.8349 250.699 28.9321 250.603C29.0155 250.528 29.07 250.426 29.086 250.315C29.2288 250.34 29.3758 250.308 29.4948 250.225C29.6139 250.142 29.695 250.015 29.7205 249.872C29.746 249.73 29.7138 249.583 29.6308 249.464C29.5479 249.345 29.4211 249.263 29.2783 249.238Z" fill="#65A4C5"/>
<path d="M222.881 279.812C222.881 279.601 222.881 279.389 222.785 279.159C222.689 278.928 222.785 278.851 222.785 278.697V278.524C222.785 278.313 222.785 278.12 222.785 277.909C222.785 277.678 222.785 277.447 222.785 277.236C222.757 276.121 222.841 275.007 223.035 273.909C223.051 273.8 223.033 273.689 222.983 273.591C222.932 273.493 222.852 273.414 222.754 273.365C222.655 273.316 222.544 273.299 222.435 273.317C222.327 273.336 222.227 273.388 222.15 273.467C221.296 274.714 220.129 275.716 218.766 276.37L217.516 275.813C217.655 275.531 217.68 275.206 217.587 274.906C217.494 274.605 217.29 274.352 217.016 274.197C216.67 273.967 216.112 273.832 215.843 273.447C215.574 273.063 215.708 272.601 215.497 272.198C214.824 270.871 212.343 271.928 211.228 271.255C210.593 270.89 210.497 270.082 209.997 269.621C209.669 269.397 209.298 269.244 208.907 269.171C208.516 269.098 208.115 269.107 207.728 269.198C206.92 269.198 206.209 269.832 205.44 269.448C204.671 269.063 204.517 268.352 203.651 268.429C202.382 268.544 201.728 270.159 201.728 271.409C200.115 271.667 198.593 272.332 197.308 273.342C196.023 274.351 195.016 275.671 194.383 277.178C194.917 277.859 195.568 278.438 196.306 278.889L196.844 279.216L197.46 279.524C198 279.774 198.559 279.979 199.132 280.139L199.69 281.389L199.863 281.735V281.851L199.998 282.043L200.113 282.178L200.229 282.312L200.382 282.466C200.608 282.678 200.86 282.859 201.132 283.005C201.44 283.168 201.771 283.284 202.113 283.351L203.344 283.581L200.748 280.447C201.385 280.528 202.028 280.566 202.671 280.562H202.863C203.305 281.312 203.728 282.216 204.786 281.889C205.44 281.697 205.555 281.485 206.305 281.639C206.767 281.773 207.249 281.818 207.728 281.774C208.206 281.597 208.659 281.358 209.074 281.062C209.591 280.885 210.153 280.885 210.67 281.062C211.939 281.255 212.266 280.524 213.305 280.043C213.766 279.832 214.516 279.832 214.881 279.428C214.985 279.324 215.058 279.194 215.092 279.051C215.126 278.909 215.12 278.759 215.074 278.62H215.304H215.593H215.804H216.093H216.285H216.574H216.727H217.035H217.15H217.458H217.785H218.112H218.439C219.428 278.991 220.308 279.606 220.996 280.409L221.419 280.851L221.766 281.216C221.863 281.313 221.994 281.366 222.131 281.366C222.268 281.366 222.399 281.313 222.496 281.216C222.58 281.141 222.634 281.039 222.65 280.928C222.723 280.943 222.799 280.944 222.872 280.929C222.946 280.915 223.016 280.887 223.078 280.846C223.141 280.805 223.194 280.752 223.236 280.69C223.279 280.628 223.308 280.559 223.323 280.485C223.338 280.412 223.339 280.337 223.325 280.263C223.311 280.19 223.282 280.12 223.241 280.057C223.2 279.995 223.147 279.941 223.085 279.899C223.024 279.857 222.954 279.828 222.881 279.812Z" fill="#65A4C5"/>
</svg>
