<svg width="481" height="470" viewBox="0 0 481 470" fill="none" xmlns="http://www.w3.org/2000/svg">
<path fill-rule="evenodd" clip-rule="evenodd" d="M249.836 27.0002C300.139 26.9211 348.489 46.4648 384.6 81.4744C385.276 82.4265 392.172 92.0626 379.771 92.0626H351.73C348.845 92.0701 346.079 93.2189 344.037 95.258C341.996 97.2971 340.844 100.061 340.834 102.946C340.844 105.832 341.996 108.597 344.037 110.637C346.078 112.678 348.844 113.829 351.73 113.839H359.188C361.044 113.841 362.823 114.58 364.136 115.891C365.448 117.203 366.186 118.982 366.189 120.837C366.184 122.692 365.445 124.469 364.133 125.781C362.821 127.092 361.043 127.831 359.188 127.836H346.901C344.85 127.843 342.885 128.661 341.434 130.112C339.984 131.562 339.165 133.526 339.158 135.577C339.163 137.63 339.98 139.597 341.431 141.049C342.882 142.501 344.848 143.32 346.901 143.328H389.762C391.815 143.32 393.782 142.501 395.233 141.049C396.684 139.597 397.501 137.63 397.506 135.577C397.498 133.526 396.68 131.562 395.229 130.112C393.779 128.661 391.814 127.843 389.762 127.836H387.162C385.307 127.831 383.529 127.092 382.217 125.781C380.906 124.469 380.166 122.692 380.161 120.837C380.164 118.982 380.902 117.203 382.215 115.891C383.527 114.58 385.306 113.841 387.162 113.839H398.592C398.592 113.839 411.459 114.01 418.022 124.475C434.461 153.072 443.286 185.407 443.653 218.388C443.348 226.72 435.3 227.519 435.3 227.519H424.099C421.868 227.527 419.731 228.416 418.153 229.993C416.576 231.57 415.686 233.707 415.679 235.937C415.684 238.168 416.573 240.306 418.15 241.883C419.728 243.46 421.867 244.349 424.099 244.354H427.299C428.734 244.359 430.108 244.932 431.122 245.947C432.136 246.962 432.706 248.337 432.709 249.772C432.704 251.205 432.132 252.577 431.119 253.591C430.105 254.604 428.732 255.175 427.299 255.18H398.982C397.393 255.185 395.871 255.819 394.748 256.943C393.625 258.068 392.994 259.59 392.991 261.179C392.996 262.766 393.629 264.286 394.751 265.408C395.874 266.531 397.395 267.163 398.982 267.168H424.975C437.757 267.168 435.366 277.004 434.947 278.442C410.383 357.32 336.796 414.537 249.836 414.537C142.789 414.537 56.0002 327.803 56.0002 220.778C56.0002 216.017 56.1812 211.361 56.5145 206.714C58.2004 188.252 80.107 187.671 80.107 187.671H118.863C120.916 187.663 122.882 186.844 124.333 185.392C125.784 183.94 126.601 181.972 126.606 179.92C126.601 177.868 125.784 175.901 124.333 174.448C122.882 172.996 120.916 172.177 118.863 172.169H116.253C114.397 172.162 112.619 171.421 111.308 170.108C109.996 168.795 109.257 167.017 109.252 165.161C109.257 163.307 109.997 161.53 111.308 160.218C112.62 158.907 114.398 158.168 116.253 158.163H140.35C143.237 158.158 146.004 157.01 148.046 154.97C150.088 152.93 151.239 150.165 151.247 147.279C151.239 144.394 150.09 141.63 148.05 139.589C146.01 137.548 143.246 136.397 140.36 136.386H86.1838C83.297 136.397 80.5314 137.547 78.4901 139.588C76.4488 141.629 75.2976 144.394 75.2876 147.279C75.2976 150.164 76.4492 152.928 78.4907 154.967C80.5322 157.007 83.2979 158.155 86.1838 158.163H88.2506C90.1057 158.168 91.8834 158.907 93.1952 160.218C94.507 161.53 95.2462 163.307 95.2512 165.161C95.2462 167.017 94.5073 168.795 93.1958 170.108C91.8843 171.421 90.1066 172.162 88.2506 172.169H80.107C63.3056 172.169 65.2582 161.772 66.0201 159.153C91.7747 82.3408 164.343 27.0002 249.836 27.0002Z" fill="#61C1B8"/>
<path fill-rule="evenodd" clip-rule="evenodd" d="M88.765 227.091C89.0605 227.091 89.344 227.208 89.5529 227.417C89.7619 227.626 89.8793 227.91 89.8793 228.205C89.8793 228.501 89.7619 228.784 89.5529 228.993C89.344 229.202 89.0605 229.319 88.765 229.319H87.9935C87.6979 229.319 87.4145 229.202 87.2055 228.993C86.9965 228.784 86.8791 228.501 86.8791 228.205C86.8791 227.91 86.9965 227.626 87.2055 227.417C87.4145 227.208 87.6979 227.091 87.9935 227.091H88.765ZM83.8122 224.358C83.8122 224.063 83.9296 223.779 84.1385 223.571C84.3475 223.362 84.631 223.244 84.9265 223.244C85.2221 223.244 85.5055 223.362 85.7145 223.571C85.9235 223.779 86.0409 224.063 86.0409 224.358V225.139C86.0409 225.435 85.9235 225.718 85.7145 225.927C85.5055 226.136 85.2221 226.253 84.9265 226.253C84.631 226.253 84.3475 226.136 84.1385 225.927C83.9296 225.718 83.8122 225.435 83.8122 225.139V224.358ZM83.8122 231.271C83.8122 230.976 83.9296 230.692 84.1385 230.483C84.3475 230.274 84.631 230.157 84.9265 230.157C85.2221 230.157 85.5055 230.274 85.7145 230.483C85.9235 230.692 86.0409 230.976 86.0409 231.271V232.042C86.0409 232.338 85.9235 232.621 85.7145 232.83C85.5055 233.039 85.2221 233.156 84.9265 233.156C84.631 233.156 84.3475 233.039 84.1385 232.83C83.9296 232.621 83.8122 232.338 83.8122 232.042V231.271ZM81.8501 227.091C82.1456 227.091 82.4291 227.208 82.6381 227.417C82.8471 227.626 82.9645 227.91 82.9645 228.205C82.9645 228.501 82.8471 228.784 82.6381 228.993C82.4291 229.202 82.1456 229.319 81.8501 229.319H81.0786C80.783 229.319 80.4996 229.202 80.2906 228.993C80.0816 228.784 79.9642 228.501 79.9642 228.205C79.9642 227.91 80.0816 227.626 80.2906 227.417C80.4996 227.208 80.783 227.091 81.0786 227.091H81.8501Z" fill="#E86B6B"/>
<path fill-rule="evenodd" clip-rule="evenodd" d="M418.793 156.849C419.089 156.849 419.372 156.966 419.581 157.175C419.79 157.384 419.908 157.667 419.908 157.963C419.908 158.258 419.79 158.542 419.581 158.75C419.372 158.959 419.089 159.077 418.793 159.077H418.012C417.717 159.077 417.433 158.959 417.224 158.75C417.015 158.542 416.898 158.258 416.898 157.963C416.898 157.667 417.015 157.384 417.224 157.175C417.433 156.966 417.717 156.849 418.012 156.849H418.793ZM413.831 154.125C413.831 153.979 413.86 153.834 413.916 153.699C413.972 153.564 414.054 153.441 414.157 153.338C414.261 153.234 414.384 153.152 414.519 153.096C414.654 153.04 414.799 153.011 414.945 153.011C415.092 153.011 415.237 153.04 415.372 153.096C415.507 153.152 415.63 153.234 415.733 153.338C415.837 153.441 415.919 153.564 415.975 153.699C416.031 153.834 416.06 153.979 416.06 154.125V154.897C416.06 155.192 415.942 155.476 415.733 155.684C415.524 155.893 415.241 156.011 414.945 156.011C414.65 156.011 414.366 155.893 414.157 155.684C413.948 155.476 413.831 155.192 413.831 154.897V154.125ZM413.831 161.038C413.831 160.892 413.86 160.747 413.916 160.612C413.972 160.477 414.054 160.354 414.157 160.251C414.261 160.147 414.384 160.065 414.519 160.009C414.654 159.953 414.799 159.924 414.945 159.924C415.092 159.924 415.237 159.953 415.372 160.009C415.507 160.065 415.63 160.147 415.733 160.251C415.837 160.354 415.919 160.477 415.975 160.612C416.031 160.747 416.06 160.892 416.06 161.038V161.81C416.06 161.956 416.031 162.101 415.975 162.236C415.919 162.371 415.837 162.494 415.733 162.597C415.63 162.701 415.507 162.783 415.372 162.839C415.237 162.895 415.092 162.924 414.945 162.924C414.799 162.924 414.654 162.895 414.519 162.839C414.384 162.783 414.261 162.701 414.157 162.597C414.054 162.494 413.972 162.371 413.916 162.236C413.86 162.101 413.831 161.956 413.831 161.81V161.038ZM411.879 156.849C412.174 156.849 412.458 156.966 412.667 157.175C412.875 157.384 412.993 157.667 412.993 157.963C412.993 158.258 412.875 158.542 412.667 158.75C412.458 158.959 412.174 159.077 411.879 159.077H411.107C410.811 159.077 410.528 158.959 410.319 158.75C410.11 158.542 409.993 158.258 409.993 157.963C409.993 157.667 410.11 157.384 410.319 157.175C410.528 156.966 410.811 156.849 411.107 156.849H411.879Z" fill="#E86B6B"/>
<path fill-rule="evenodd" clip-rule="evenodd" d="M192.641 54.0135C192.936 54.0135 193.22 54.1309 193.429 54.3398C193.638 54.5488 193.755 54.8321 193.755 55.1276C193.755 55.4231 193.638 55.7064 193.429 55.9153C193.22 56.1243 192.936 56.2416 192.641 56.2416H191.869C191.574 56.2416 191.29 56.1243 191.081 55.9153C190.872 55.7064 190.755 55.4231 190.755 55.1276C190.755 54.8321 190.872 54.5488 191.081 54.3398C191.29 54.1309 191.574 54.0135 191.869 54.0135H192.641ZM187.678 51.2808C187.678 50.9853 187.796 50.702 188.005 50.493C188.214 50.2841 188.497 50.1667 188.793 50.1667C189.088 50.1667 189.372 50.2841 189.581 50.493C189.79 50.702 189.907 50.9853 189.907 51.2808V52.0616C189.907 52.357 189.79 52.6404 189.581 52.8493C189.372 53.0583 189.088 53.1756 188.793 53.1756C188.497 53.1756 188.214 53.0583 188.005 52.8493C187.796 52.6404 187.678 52.357 187.678 52.0616V51.2808ZM187.678 58.1936C187.678 57.8981 187.796 57.6148 188.005 57.4059C188.214 57.1969 188.497 57.0796 188.793 57.0796C189.088 57.0796 189.372 57.1969 189.581 57.4059C189.79 57.6148 189.907 57.8981 189.907 58.1936V58.9744C189.907 59.2699 189.79 59.5532 189.581 59.7621C189.372 59.9711 189.088 60.0884 188.793 60.0884C188.497 60.0884 188.214 59.9711 188.005 59.7621C187.796 59.5532 187.678 59.2699 187.678 58.9744V58.1936ZM185.726 54.0135C186.021 54.0135 186.305 54.1309 186.514 54.3398C186.723 54.5488 186.84 54.8321 186.84 55.1276C186.84 55.4231 186.723 55.7064 186.514 55.9153C186.305 56.1243 186.021 56.2416 185.726 56.2416H184.945C184.649 56.2416 184.366 56.1243 184.157 55.9153C183.948 55.7064 183.83 55.4231 183.83 55.1276C183.83 54.8321 183.948 54.5488 184.157 54.3398C184.366 54.1309 184.649 54.0135 184.945 54.0135H185.726Z" fill="#E86B6B"/>
<path fill-rule="evenodd" clip-rule="evenodd" d="M404.602 287.164C404.897 287.164 405.181 287.281 405.39 287.49C405.599 287.699 405.716 287.983 405.716 288.278C405.716 288.574 405.599 288.857 405.39 289.066C405.181 289.275 404.897 289.392 404.602 289.392H403.821C403.674 289.392 403.529 289.363 403.394 289.307C403.259 289.251 403.136 289.169 403.033 289.066C402.929 288.962 402.847 288.84 402.791 288.704C402.735 288.569 402.706 288.424 402.706 288.278C402.706 288.132 402.735 287.987 402.791 287.852C402.847 287.717 402.929 287.594 403.033 287.49C403.136 287.387 403.259 287.305 403.394 287.249C403.529 287.193 403.674 287.164 403.821 287.164H404.602ZM399.639 284.431C399.639 284.285 399.668 284.14 399.724 284.005C399.78 283.87 399.862 283.747 399.966 283.644C400.069 283.54 400.192 283.458 400.327 283.402C400.463 283.346 400.607 283.317 400.754 283.317C400.9 283.317 401.045 283.346 401.18 283.402C401.315 283.458 401.438 283.54 401.542 283.644C401.645 283.747 401.727 283.87 401.783 284.005C401.839 284.14 401.868 284.285 401.868 284.431V285.203C401.868 285.349 401.839 285.494 401.783 285.629C401.727 285.764 401.645 285.887 401.542 285.99C401.438 286.094 401.315 286.176 401.18 286.232C401.045 286.288 400.9 286.317 400.754 286.317C400.607 286.317 400.463 286.288 400.327 286.232C400.192 286.176 400.069 286.094 399.966 285.99C399.862 285.887 399.78 285.764 399.724 285.629C399.668 285.494 399.639 285.349 399.639 285.203V284.431ZM399.639 291.344C399.639 291.198 399.668 291.053 399.724 290.918C399.78 290.783 399.862 290.66 399.966 290.556C400.069 290.453 400.192 290.371 400.327 290.315C400.463 290.259 400.607 290.23 400.754 290.23C400.9 290.23 401.045 290.259 401.18 290.315C401.315 290.371 401.438 290.453 401.542 290.556C401.645 290.66 401.727 290.783 401.783 290.918C401.839 291.053 401.868 291.198 401.868 291.344V292.115C401.868 292.411 401.751 292.694 401.542 292.903C401.333 293.112 401.049 293.229 400.754 293.229C400.458 293.229 400.175 293.112 399.966 292.903C399.757 292.694 399.639 292.411 399.639 292.115V291.344ZM397.687 287.164C397.833 287.164 397.978 287.193 398.113 287.249C398.249 287.305 398.371 287.387 398.475 287.49C398.578 287.594 398.66 287.717 398.716 287.852C398.772 287.987 398.801 288.132 398.801 288.278C398.801 288.424 398.772 288.569 398.716 288.704C398.66 288.84 398.578 288.962 398.475 289.066C398.371 289.169 398.249 289.251 398.113 289.307C397.978 289.363 397.833 289.392 397.687 289.392H396.906C396.76 289.392 396.615 289.363 396.479 289.307C396.344 289.251 396.221 289.169 396.118 289.066C396.014 288.962 395.932 288.84 395.876 288.704C395.82 288.569 395.791 288.424 395.791 288.278C395.791 288.132 395.82 287.987 395.876 287.852C395.932 287.717 396.014 287.594 396.118 287.49C396.221 287.387 396.344 287.305 396.479 287.249C396.615 287.193 396.76 287.164 396.906 287.164H397.687Z" fill="#E86B6B"/>
<path fill-rule="evenodd" clip-rule="evenodd" d="M96.39 318.009C95.2426 318.01 94.1048 318.217 93.03 318.619C92.789 318.351 92.4944 318.137 92.1654 317.991C91.8363 317.845 91.4802 317.769 91.12 317.769C90.7765 317.766 90.4361 317.834 90.12 317.969C90.0417 316.882 89.5546 315.865 88.7568 315.123C87.959 314.381 86.9097 313.969 85.82 313.969C84.8752 313.967 83.9566 314.28 83.2101 314.859C83.0512 314.64 82.8589 314.448 82.6401 314.289C83.0724 313.516 83.2952 312.644 83.2863 311.758C83.2774 310.873 83.0372 310.005 82.5895 309.241C82.1418 308.477 81.5021 307.843 80.7339 307.402C79.9657 306.962 79.0956 306.73 78.2101 306.729C77.4092 306.316 76.5212 306.1 75.6201 306.099C75.0645 306.097 74.5117 306.177 73.9801 306.339C73.7406 305.836 73.3439 305.426 72.8501 305.169C72.9909 304.529 73.0613 303.875 73.0601 303.219C73.0584 301.809 72.7338 300.419 72.1113 299.154C71.4887 297.889 70.5847 296.784 69.4687 295.923C68.3526 295.061 67.0541 294.467 65.6728 294.186C64.2915 293.904 62.8641 293.943 61.5001 294.299C58.8775 294.344 56.3774 295.417 54.5386 297.287C52.6999 299.158 51.6697 301.676 51.6701 304.299V304.529C51.1773 304.399 50.6696 304.336 50.1601 304.339C49.1633 304.34 48.1818 304.584 47.3001 305.049C46.3032 303.69 44.9027 302.681 43.2984 302.165C41.6941 301.65 39.9679 301.654 38.3661 302.177C36.7642 302.7 35.3685 303.716 34.3779 305.079C33.3874 306.442 32.8527 308.084 32.8501 309.769C32.8503 310.614 32.9819 311.454 33.2401 312.259H33.0101C31.9651 312.259 30.9629 312.674 30.2241 313.413C29.4852 314.152 29.0701 315.154 29.0701 316.199C29.0726 316.45 29.096 316.701 29.1401 316.949H29.0101C28.4216 316.949 27.856 317.177 27.4326 317.585C27.0091 317.994 26.7608 318.551 26.7401 319.139C26.4101 319.078 26.0756 319.044 25.7401 319.039C24.3663 319.007 23.032 319.5 22.0101 320.419C19.4501 322.839 22.2501 323.469 24.9401 323.469H99.34C102.14 323.469 106.15 323.929 103.34 320.999C102.439 320.049 101.353 319.293 100.15 318.777C98.9459 318.261 97.6496 317.996 96.34 317.999L96.39 318.009ZM72.1201 304.929C71.9804 304.914 71.8397 304.914 71.7001 304.929H71.6201C71.6201 304.729 71.6201 304.529 71.6201 304.329C71.6192 302.243 70.9661 300.21 69.7522 298.513C68.5382 296.817 66.8242 295.543 64.8501 294.869C66.8997 295.118 68.7872 296.109 70.156 297.655C71.5249 299.201 72.2805 301.194 72.2801 303.259C72.2806 303.834 72.2203 304.407 72.1001 304.969L72.1201 304.929ZM81.9701 313.929C81.7068 313.835 81.4294 313.788 81.1501 313.789C81.0102 313.779 80.8699 313.779 80.7301 313.789C81.1706 312.763 81.2917 311.629 81.0776 310.534C80.8636 309.438 80.3242 308.433 79.5301 307.649C80.3999 307.93 81.1586 308.478 81.6975 309.217C82.2364 309.955 82.5278 310.845 82.5301 311.759C82.5544 312.519 82.3749 313.272 82.0101 313.939L81.9701 313.929Z" fill="white"/>
<path fill-rule="evenodd" clip-rule="evenodd" d="M475.209 88.5403C474.373 88.5416 473.543 88.6905 472.759 88.9803C472.581 88.7855 472.365 88.6298 472.124 88.5231C471.883 88.4163 471.622 88.3609 471.359 88.3603C471.108 88.3579 470.859 88.4091 470.629 88.5103C470.571 87.718 470.214 86.9772 469.632 86.4373C469.049 85.8973 468.283 85.5982 467.489 85.6003C466.797 85.598 466.125 85.8267 465.579 86.2503C465.463 86.0945 465.325 85.9563 465.169 85.8403C465.478 85.2837 465.64 84.6572 465.639 84.0203C465.636 83.0372 465.244 82.0951 464.549 81.3999C463.854 80.7047 462.912 80.313 461.929 80.3103C461.347 80.0003 460.698 79.8389 460.039 79.8403C459.632 79.8433 459.228 79.9039 458.839 80.0203C458.663 79.6534 458.371 79.3547 458.009 79.1703C458.225 78.1821 458.216 77.1578 457.982 76.1735C457.748 75.1893 457.295 74.2705 456.657 73.4854C456.019 72.7003 455.212 72.0692 454.297 71.6389C453.381 71.2087 452.38 70.9904 451.369 71.0003C450.788 71.0014 450.211 71.0753 449.649 71.2203C447.732 71.2492 445.903 72.0311 444.558 73.3969C443.213 74.7628 442.459 76.6032 442.459 78.5203V78.6903C442.099 78.5977 441.73 78.5506 441.359 78.5503C440.63 78.5515 439.913 78.73 439.269 79.0703C438.54 78.0755 437.516 77.3362 436.342 76.9581C435.169 76.5801 433.906 76.5825 432.734 76.9651C431.561 77.3477 430.54 78.0909 429.815 79.0885C429.091 80.0862 428.7 81.2873 428.699 82.5203C428.697 83.1386 428.795 83.7532 428.989 84.3403H428.819C428.44 84.339 428.065 84.4126 427.715 84.5569C427.365 84.7011 427.047 84.9132 426.779 85.1809C426.512 85.4486 426.3 85.7666 426.155 86.1166C426.011 86.4666 425.937 86.8417 425.939 87.2203C425.919 87.3998 425.919 87.5809 425.939 87.7603H425.879C425.447 87.7601 425.032 87.9281 424.722 88.2287C424.412 88.5293 424.232 88.9388 424.219 89.3703C423.605 89.245 422.97 89.2657 422.366 89.4308C421.761 89.5958 421.204 89.9005 420.739 90.3203C418.869 92.0903 420.909 92.5503 422.879 92.5503H477.269C479.319 92.5503 482.269 92.8803 480.219 90.7403C479.563 90.0438 478.771 89.4892 477.892 89.1109C477.013 88.7325 476.066 88.5383 475.109 88.5403H475.209ZM457.419 79.0003C457.312 78.99 457.205 78.99 457.099 79.0003H457.049C457.049 78.8503 457.049 78.7103 457.049 78.5603C457.046 77.0284 456.561 75.5363 455.664 74.2946C454.767 73.0529 453.502 72.1244 452.049 71.6403C453.549 71.8215 454.93 72.5467 455.931 73.6784C456.931 74.81 457.482 76.2696 457.479 77.7803C457.497 78.188 457.477 78.5965 457.419 79.0003ZM464.619 85.5903C464.426 85.5216 464.223 85.4877 464.019 85.4903H463.709C464.032 84.7404 464.121 83.9104 463.964 83.1091C463.807 82.3079 463.411 81.5728 462.829 81.0003C463.31 81.1587 463.748 81.4256 464.109 81.7803C464.595 82.2704 464.908 82.9057 465 83.5898C465.092 84.2738 464.958 84.9692 464.619 85.5703V85.5903Z" fill="white"/>
<path opacity="0.5" fill-rule="evenodd" clip-rule="evenodd" d="M158.892 8.79638C161.941 16.0819 158.484 24.45 151.17 27.4871C79.2229 57.3657 28.6935 128.087 28.6935 210.532C28.6935 228.692 31.1411 246.26 35.7173 262.936C37.8066 270.55 33.3044 278.409 25.6614 280.491C18.0184 282.572 10.1288 278.087 8.0395 270.473C2.79557 251.363 0.000213623 231.262 0.000213623 210.532C0.000213623 116.151 57.8672 35.2664 140.13 1.10408C147.443 -1.93306 155.843 1.5109 158.892 8.79638Z" fill="white"/>
<path d="M25.5344 245.75L26.3344 248.928L17.7028 257.661L27.8916 255.116L28.6915 258.294L13.2063 262.162L12.4063 258.983L21.0565 250.235L10.8464 252.785L10.0492 249.618L25.5344 245.75Z" fill="#138175"/>
<path d="M16.8524 234.082L17.9169 240.284L24.3475 239.188L24.9019 242.418L9.16571 245.099L7.41386 234.892L10.0402 234.445L11.2376 241.421L15.3014 240.729L14.2369 234.528L16.8524 234.082Z" fill="#138175"/>
<path d="M8.44611 219.912L8.95424 224.757L22.1824 223.381L22.5242 226.64L9.29602 228.016L9.79731 232.797L7.14732 233.072L5.79612 220.188L8.44611 219.912Z" fill="#138175"/>
<path d="M21.3353 207.216L21.3988 210.492L5.43719 210.799L5.37371 207.523L21.3353 207.216Z" fill="#138175"/>
<path d="M21.258 202.605L5.30784 201.93L5.5163 197.041C5.57586 195.644 5.94675 194.41 6.62897 193.338C7.3042 192.259 8.23925 191.435 9.43413 190.866C10.6217 190.296 11.9568 190.043 13.4393 190.106L14.1733 190.137C15.6558 190.2 16.961 190.561 18.0889 191.221C19.217 191.874 20.0752 192.766 20.6634 193.899C21.2517 195.032 21.5198 196.293 21.4679 197.683L21.258 202.605ZM8.10944 198.769L18.7575 199.219L18.825 197.637C18.8796 196.356 18.5013 195.36 17.6903 194.648C16.8793 193.936 15.6927 193.539 14.1304 193.459L13.2869 193.423C11.6656 193.354 10.4244 193.637 9.56328 194.271C8.69488 194.905 8.23322 195.866 8.17831 197.153L8.10944 198.769Z" fill="#138175"/>
<path d="M23.7452 174.452L23.2831 177.575L11.199 175.801L11.8081 179.699L9.2589 179.325L7.88003 172.465L7.9296 172.13L23.7452 174.452Z" fill="#138175"/>
<path d="M26.9827 158.309L24.646 168.958L22.525 168.496L18.2505 162.299C17.645 161.445 17.096 160.792 16.6037 160.342C16.1129 159.885 15.614 159.601 15.107 159.491C14.4143 159.34 13.8333 159.396 13.364 159.659C12.8876 159.92 12.5784 160.375 12.4364 161.022C12.2834 161.719 12.4052 162.324 12.8019 162.835C13.1929 163.337 13.7812 163.674 14.5667 163.845L13.8877 166.94C12.938 166.733 12.1195 166.32 11.4323 165.701C10.7467 165.074 10.273 164.3 10.0113 163.379C9.74249 162.456 9.7228 161.471 9.95226 160.425C10.3035 158.825 10.9615 157.667 11.9263 156.953C12.8926 156.232 14.0792 156.024 15.486 156.331C16.2573 156.499 16.9991 156.869 17.7115 157.441C18.4239 158.014 19.206 158.9 20.0577 160.099L23.0211 164.445L24.4868 157.765L26.9827 158.309Z" fill="#138175"/>
<path d="M19.4225 150.492L19.8949 148.877C20.1199 148.108 20.0936 147.482 19.816 146.999C19.5385 146.517 19.0804 146.183 18.4417 145.997C17.8242 145.818 17.2892 145.864 16.837 146.135C16.3868 146.398 16.0676 146.852 15.8794 147.495C15.7096 148.075 15.7289 148.608 15.9372 149.093C16.1384 149.576 16.4952 149.892 17.0075 150.041L16.1209 153.072C15.3209 152.839 14.6674 152.418 14.1606 151.808C13.6488 151.19 13.3264 150.444 13.1935 149.571C13.0626 148.691 13.1332 147.786 13.4052 146.856C13.8776 145.241 14.6373 144.089 15.6842 143.399C16.7241 142.708 17.9248 142.559 19.2863 142.955C19.988 143.158 20.5713 143.559 21.036 144.157C21.5008 144.754 21.7898 145.445 21.9031 146.229C22.4635 145.458 23.1138 144.953 23.8541 144.713C24.5964 144.466 25.3886 144.465 26.2308 144.709C27.5922 145.104 28.5383 145.918 29.0689 147.149C29.6016 148.373 29.6297 149.799 29.1532 151.428C28.7073 152.952 27.9387 154.083 26.8473 154.82C25.758 155.551 24.5502 155.724 23.2239 155.338L24.1105 152.308C24.6859 152.475 25.2185 152.398 25.7082 152.078C26.1999 151.75 26.5378 151.272 26.7219 150.643C26.9326 149.923 26.9077 149.305 26.6474 148.789C26.3821 148.265 25.9336 147.911 25.302 147.727C23.7721 147.283 22.7618 147.9 22.2709 149.578L21.8015 151.182L19.4225 150.492Z" fill="#138175"/>
<path d="M28.8259 132.956L29.4487 131.263L31.8473 132.14L31.2244 133.832L34.4672 135.016L33.3763 137.98L30.1335 136.795L27.88 142.918L25.9573 142.367L18.3763 132.536L19.4785 129.541L28.8259 132.956ZM26.5195 139.221L27.7349 135.919L22.4436 133.986L22.7116 134.305L26.5195 139.221Z" fill="#138175"/>
<path d="M28.7493 128.169L21.7112 124.044L25.3497 115.902L27.7638 116.972L25.1821 122.75L28.1569 124.499C28.0958 123.651 28.2376 122.841 28.5824 122.07C29.2007 120.686 30.116 119.793 31.3283 119.39C32.5405 118.987 33.9213 119.129 35.4706 119.816C36.4122 120.233 37.1678 120.807 37.7374 121.538C38.3032 122.259 38.6282 123.081 38.7123 124.003C38.7897 124.922 38.604 125.884 38.1551 126.888C37.7627 127.766 37.2216 128.503 36.5318 129.098C35.8352 129.69 35.065 130.061 34.221 130.213C33.38 130.358 32.5396 130.261 31.6996 129.92L32.9748 127.066C33.6093 127.276 34.1771 127.276 34.6782 127.068C35.1756 126.85 35.5551 126.449 35.8167 125.863C36.108 125.211 36.0987 124.606 35.7888 124.046C35.4722 123.483 34.8831 123.01 34.0217 122.628C33.1936 122.261 32.4685 122.183 31.8464 122.393C31.2243 122.603 30.7468 123.081 30.4139 123.826C30.1077 124.512 30.0398 125.147 30.2102 125.733L30.3458 126.128L28.7493 128.169Z" fill="#138175"/>
<path d="M30.708 105.135L33.0159 106.349L32.8726 106.619C32.2232 107.892 32.0139 109.082 32.2444 110.192C32.4784 111.294 33.1234 112.222 34.1793 112.975C33.8122 111.827 33.9306 110.683 34.5345 109.543C35.1828 108.319 36.1376 107.578 37.3989 107.319C38.6602 107.06 40.0085 107.308 41.4436 108.062C42.3616 108.545 43.0866 109.181 43.6185 109.972C44.1538 110.755 44.4355 111.62 44.4637 112.565C44.4953 113.504 44.2689 114.43 43.7844 115.345C42.9997 116.826 41.8479 117.752 40.329 118.123C38.8136 118.487 37.1929 118.215 35.4668 117.308L34.4583 116.778C32.9262 115.972 31.7269 114.975 30.8605 113.787C29.991 112.589 29.5211 111.283 29.4509 109.872C29.3776 108.45 29.7148 107.026 30.4623 105.599L30.708 105.135ZM36.3339 111.576C36.095 112.027 35.998 112.499 36.0427 112.991C36.081 113.481 36.248 113.914 36.5437 114.292L37.397 114.741C38.3344 115.234 39.1654 115.436 39.89 115.348C40.6081 115.256 41.1429 114.878 41.4943 114.215C41.8116 113.616 41.8315 113.009 41.5541 112.394C41.2736 111.769 40.7552 111.257 39.9988 110.86C39.2295 110.455 38.5099 110.316 37.8401 110.441C37.1703 110.567 36.6682 110.945 36.3339 111.576Z" fill="#138175"/>
<path d="M41.1143 91.5301L49.9118 104.21L48.1478 107.04L40.0267 94.7659L35.8393 101.484L33.6595 100.136L39.6053 90.5967L41.1143 91.5301Z" fill="#138175"/>
<path d="M50.6445 82.3337C51.2744 82.7831 51.7202 83.3386 51.9819 84.0001C52.2436 84.6616 52.3221 85.3714 52.2174 86.1298C52.9717 85.7185 53.7482 85.5202 54.5469 85.5348C55.3397 85.5452 56.0957 85.8069 56.8147 86.32C57.9676 87.1426 58.5988 88.1843 58.7084 89.4448C58.8121 90.7012 58.3808 92.0013 57.4146 93.3451C56.4483 94.6889 55.3463 95.5149 54.1087 95.823C52.8711 96.1312 51.6788 95.8761 50.5319 95.0577C49.8128 94.5446 49.3179 93.9137 49.0469 93.165C48.776 92.4164 48.7155 91.6252 48.8653 90.7916C48.1782 91.1344 47.4783 91.2888 46.7654 91.2548C46.0568 91.215 45.3875 90.9703 44.7576 90.5208C43.6523 89.7321 43.0367 88.7375 42.9108 87.537C42.779 86.3322 43.1665 85.0994 44.0731 83.8385C44.9756 82.5835 46.0175 81.8221 47.199 81.5545C48.3788 81.2768 49.5273 81.5365 50.6445 82.3337ZM54.7759 88.7616C54.2113 88.3587 53.6426 88.1992 53.0698 88.2831C52.497 88.367 52.0126 88.6842 51.6167 89.2348C51.2251 89.7794 51.0816 90.3354 51.1862 90.9027C51.2849 91.4657 51.6195 91.9508 52.1899 92.3579C52.7426 92.7522 53.3032 92.9104 53.8718 92.8324C54.4404 92.7545 54.929 92.4313 55.3376 91.863C55.7378 91.3066 55.8872 90.7549 55.786 90.2079C55.689 89.655 55.3523 89.1729 54.7759 88.7616ZM48.9241 84.989C48.419 84.6285 47.9191 84.4734 47.4245 84.5235C46.9239 84.5694 46.4991 84.8351 46.1501 85.3205C45.8053 85.8 45.6857 86.2789 45.7912 86.7574C45.8968 87.2358 46.2111 87.6616 46.734 88.0347C47.251 88.4036 47.7628 88.5673 48.2693 88.5256C48.7758 88.484 49.2035 88.2204 49.5526 87.735C49.9016 87.2496 50.0123 86.7643 49.8847 86.279C49.7613 85.7879 49.4411 85.3579 48.9241 84.989Z" fill="#138175"/>
<path d="M61.9369 76.819C62.0359 77.9682 61.7337 78.9665 61.0304 79.814C60.1314 80.8971 59.04 81.4579 57.756 81.4964C56.4665 81.5303 55.1879 81.0252 53.9203 79.9812C53.1147 79.3177 52.5211 78.5358 52.1395 77.6357C51.7569 76.7253 51.6406 75.8028 51.7904 74.868C51.9347 73.9285 52.3328 73.066 52.9849 72.2803C53.6557 71.4721 54.4547 70.9208 55.382 70.6264C56.3093 70.3319 57.2976 70.3239 58.3469 70.6024C59.3962 70.8808 60.4133 71.4209 61.3982 72.2227L62.3024 72.9674C64.353 74.6564 65.5427 76.4914 65.8714 78.4723C66.2001 80.4532 65.6307 82.4078 64.1632 84.3359L63.6756 84.9406L61.639 83.2632L62.0777 82.7175C63.738 80.5228 63.691 78.5567 61.9369 76.819ZM59.6589 77.6781C59.985 77.2852 60.163 76.865 60.1931 76.4173C60.2279 75.9641 60.1621 75.5462 59.9959 75.1636L58.9903 74.3354C58.1622 73.6533 57.3896 73.2814 56.6724 73.2199C55.9552 73.1583 55.3777 73.3913 54.9399 73.9188C54.5347 74.4071 54.427 74.9939 54.6168 75.6794C54.801 76.3603 55.2311 76.9791 55.9072 77.5359C56.5776 78.0881 57.2554 78.3913 57.9407 78.4455C58.6251 78.4895 59.1978 78.2337 59.6589 77.6781Z" fill="#138175"/>
<path d="M72.6775 64.72C74.2832 66.2292 75.1979 67.7146 75.4215 69.1762C75.6452 70.6378 75.1525 72.0068 73.9436 73.2833C72.7497 74.5439 71.4193 75.1156 69.9525 74.9984C68.4857 74.8812 66.9659 74.0984 65.393 72.6501L63.2556 70.6412C61.634 69.1171 60.7192 67.6265 60.5112 66.1696C60.3082 64.7074 60.8037 63.346 61.9976 62.0854C63.1915 60.8248 64.5218 60.2531 65.9886 60.3703C67.4501 60.4826 68.9673 61.2628 70.5402 62.7111L72.6775 64.72ZM68.1582 64.8123C67.1959 63.9078 66.3713 63.383 65.6845 63.2381C64.9974 63.0829 64.3905 63.2833 63.8638 63.8394C63.3521 64.3797 63.1834 64.977 63.3576 65.6313C63.5315 66.2753 64.0549 67.0225 64.9278 67.8729L67.751 70.5265C68.6974 71.416 69.5223 71.951 70.2256 72.1315C70.9287 72.3018 71.5486 72.1035 72.0854 71.5368C72.6171 70.9753 72.7802 70.3628 72.5747 69.6991C72.3691 69.0354 71.8168 68.2709 70.9177 67.4058L68.1582 64.8123Z" fill="#138175"/>
<path d="M85.1821 61.9888L82.8537 64.1299L74.5687 55.1889L72.5849 58.6037L70.8371 56.7176L74.089 50.5165L74.3387 50.2868L85.1821 61.9888Z" fill="#138175"/>
<path d="M97.1901 51.9629L88.681 58.8169L87.3159 57.1351L87.8709 49.6366C87.9351 48.5923 87.9164 47.7412 87.8148 47.0832C87.7188 46.4207 87.5077 45.8884 87.1814 45.4864C86.7356 44.9371 86.247 44.619 85.7157 44.5319C85.1798 44.4391 84.6532 44.6011 84.136 45.0177C83.5789 45.4664 83.2947 46.0138 83.2832 46.6598C83.2728 47.2956 83.5204 47.9249 84.026 48.5478L81.5534 50.5394C80.9421 49.7863 80.5628 48.9541 80.4153 48.0428C80.2735 47.1269 80.3898 46.2279 80.7642 45.3457C81.134 44.4579 81.7367 43.6774 82.5723 43.0044C83.8512 41.9742 85.0913 41.481 86.2925 41.5248C87.4994 41.5641 88.5555 42.1414 89.4609 43.2569C89.9573 43.8685 90.3037 44.6195 90.5002 45.5101C90.6966 46.4007 90.7507 47.5792 90.6625 49.0456L90.2464 54.2831L95.5838 49.9838L97.1901 51.9629Z" fill="#138175"/>
<path d="M96.6545 40.7864L98.0379 39.8219C98.6967 39.3627 99.0695 38.8583 99.1564 38.3089C99.2433 37.7595 99.096 37.2133 98.7146 36.6704C98.3458 36.1454 97.9 35.8474 97.3772 35.7763C96.8604 35.7011 96.3266 35.8556 95.7756 36.2397C95.2785 36.5862 94.9587 37.0136 94.8161 37.5219C94.6693 38.0242 94.7489 38.4931 95.0549 38.9286L92.4587 40.7385C91.9809 40.0584 91.7361 39.3225 91.7242 38.5309C91.7141 37.7291 91.9316 36.9465 92.3766 36.1829C92.8276 35.4152 93.4513 34.7537 94.2479 34.1984C95.6313 33.2339 96.9479 32.8093 98.1976 32.9246C99.4432 33.0339 100.473 33.6672 101.286 34.8246C101.705 35.4212 101.908 36.0975 101.894 36.8533C101.881 37.6091 101.672 38.3279 101.268 39.0098C102.189 38.7587 103.014 38.7704 103.742 39.0449C104.476 39.3152 105.095 39.8084 105.598 40.5243C106.411 41.6817 106.637 42.9058 106.277 44.1967C105.923 45.4835 105.048 46.6132 103.653 47.5861C102.347 48.4963 101.037 48.8985 99.723 48.7928C98.4145 48.6829 97.3642 48.0641 96.5721 46.9366L99.1683 45.1266C99.5119 45.6158 99.9754 45.8882 100.559 45.9437C101.148 45.9951 101.712 45.8329 102.251 45.4571C102.868 45.0271 103.237 44.5299 103.358 43.9656C103.481 43.3911 103.353 42.8354 102.976 42.2985C102.063 40.9979 100.887 40.8486 99.4498 41.8507L98.0753 42.8089L96.6545 40.7864Z" fill="#138175"/>
<path d="M114.546 33.2253L116.094 32.2916L117.417 34.4684L115.87 35.4021L117.659 38.345L114.949 39.9805L113.16 37.0376L107.561 40.4161L106.405 38.7893L106.65 26.3948L109.388 24.7423L114.546 33.2253ZM108.816 36.683L111.836 34.8608L108.916 30.0587L108.925 30.4746L108.816 36.683Z" fill="#138175"/>
<path d="M118.393 28.9192L115.505 21.3102L123.464 17.2377L124.671 19.5793L119.024 22.4689L120.241 25.6897C120.727 24.9907 121.347 24.4483 122.101 24.0623C123.454 23.3703 124.729 23.2458 125.927 23.6887C127.125 24.1317 128.112 25.1046 128.887 26.6073C129.358 27.5206 129.585 28.4398 129.569 29.3649C129.556 30.2802 129.292 31.1233 128.778 31.8942C128.26 32.6586 127.51 33.292 126.528 33.7944C125.67 34.2336 124.785 34.4695 123.873 34.5022C122.958 34.5284 122.124 34.3371 121.371 33.9284C120.624 33.5164 120.031 32.9154 119.59 32.1255L122.38 30.6982C122.742 31.2577 123.184 31.6128 123.706 31.7635C124.23 31.9043 124.779 31.8284 125.351 31.5356C125.988 31.2095 126.362 30.7316 126.473 30.1019C126.58 29.4656 126.419 28.7297 125.988 27.8942C125.574 27.091 125.058 26.5771 124.441 26.3526C123.824 26.128 123.151 26.2021 122.423 26.5747C121.753 26.9174 121.301 27.3701 121.065 27.9328L120.922 28.3252L118.393 28.9192Z" fill="#138175"/>
<path d="M134.336 12.2227L135.371 14.6094L135.089 14.7306C133.782 15.3165 132.87 16.1135 132.351 17.1217C131.84 18.1271 131.758 19.2527 132.107 20.4986C132.544 19.3749 133.356 18.5576 134.544 18.0466C135.819 17.4982 137.029 17.5169 138.175 18.1028C139.321 18.6887 140.215 19.7237 140.858 21.2078C141.27 22.1571 141.434 23.1056 141.351 24.0534C141.275 24.9983 140.951 25.8478 140.378 26.6018C139.812 27.353 139.052 27.9335 138.099 28.3434C136.556 29.0074 135.076 29.0095 133.659 28.3497C132.249 27.6871 131.157 26.4633 130.384 24.6783L129.932 23.6354C129.245 22.051 128.938 20.5254 129.011 19.0584C129.087 17.5819 129.543 16.2717 130.376 15.1278C131.214 13.9743 132.373 13.0752 133.853 12.4306L134.336 12.2227ZM134.666 20.7541C134.197 20.9562 133.824 21.2632 133.549 21.6751C133.271 22.0803 133.128 22.5224 133.12 23.0015L133.503 23.8839C133.923 24.8533 134.443 25.5298 135.063 25.9135C135.681 26.2904 136.335 26.3302 137.026 26.0329C137.65 25.7645 138.048 25.3039 138.219 24.6514C138.394 23.9892 138.311 23.2671 137.972 22.4849C137.628 21.6894 137.155 21.1313 136.554 20.8107C135.953 20.4901 135.324 20.4712 134.666 20.7541Z" fill="#138175"/>
<path fill-rule="evenodd" clip-rule="evenodd" d="M302.48 432.151C385.149 448.539 420.306 407.629 420.083 393.575C419.826 376.975 370.637 362.384 293.766 404.836C296.838 405.507 299.519 431.57 302.48 432.151Z" fill="#F5AB29"/>
<path fill-rule="evenodd" clip-rule="evenodd" d="M79.0266 452.539C79.2836 469.14 128.472 483.73 205.343 441.278C188.027 437.513 178.386 409.763 164.869 408.4C108.776 402.758 78.8367 440.82 79.0266 452.539Z" fill="#FFAB2F"/>
<path fill-rule="evenodd" clip-rule="evenodd" d="M236.312 80.0352C236.443 79.9969 236.581 79.9898 236.715 80.0142C236.85 80.0386 236.976 80.0941 237.085 80.176C237.195 80.258 237.283 80.3644 237.344 80.4866C237.405 80.6088 237.437 80.7436 237.437 80.8802C237.437 81.0169 237.405 81.1517 237.344 81.2739C237.283 81.3961 237.195 81.5024 237.085 81.5844C236.976 81.6664 236.85 81.7218 236.715 81.7463C236.581 81.7707 236.443 81.7635 236.312 81.7253H234.694C234.563 81.7635 234.425 81.7707 234.291 81.7463C234.157 81.7218 234.03 81.6664 233.921 81.5844C233.812 81.5024 233.723 81.3961 233.662 81.2739C233.601 81.1517 233.569 81.0169 233.569 80.8802C233.569 80.7436 233.601 80.6088 233.662 80.4866C233.723 80.3644 233.812 80.258 233.921 80.176C234.03 80.0941 234.157 80.0386 234.291 80.0142C234.425 79.9898 234.563 79.9969 234.694 80.0352H236.312ZM301.277 80.0352C301.46 80.0885 301.62 80.1997 301.734 80.3521C301.848 80.5045 301.91 80.6898 301.91 80.8802C301.91 81.0707 301.848 81.256 301.734 81.4084C301.62 81.5607 301.46 81.6719 301.277 81.7253H240.866C240.683 81.6719 240.523 81.5607 240.408 81.4084C240.294 81.256 240.233 81.0707 240.233 80.8802C240.233 80.6898 240.294 80.5045 240.408 80.3521C240.523 80.1997 240.683 80.0885 240.866 80.0352H301.277Z" fill="#138175"/>
<path fill-rule="evenodd" clip-rule="evenodd" d="M311.563 90.1227C311.432 90.161 311.293 90.1682 311.159 90.1437C311.025 90.1193 310.898 90.0639 310.789 89.9819C310.68 89.8999 310.591 89.7936 310.53 89.6714C310.469 89.5491 310.437 89.4144 310.437 89.2777C310.437 89.141 310.469 89.0063 310.53 88.884C310.591 88.7618 310.68 88.6555 310.789 88.5735C310.898 88.4915 311.025 88.4361 311.159 88.4117C311.293 88.3872 311.432 88.3944 311.563 88.4327H313.18C313.311 88.3944 313.449 88.3872 313.583 88.4117C313.718 88.4361 313.845 88.4915 313.954 88.5735C314.063 88.6555 314.151 88.7618 314.213 88.884C314.274 89.0063 314.305 89.141 314.305 89.2777C314.305 89.4144 314.274 89.5491 314.213 89.6714C314.151 89.7936 314.063 89.8999 313.954 89.9819C313.845 90.0639 313.718 90.1193 313.583 90.1437C313.449 90.1682 313.311 90.161 313.18 90.1227H311.563ZM246.597 90.1227C246.466 90.161 246.328 90.1682 246.194 90.1437C246.06 90.1193 245.933 90.0639 245.824 89.9819C245.715 89.8999 245.626 89.7936 245.565 89.6714C245.504 89.5491 245.472 89.4144 245.472 89.2777C245.472 89.141 245.504 89.0063 245.565 88.884C245.626 88.7618 245.715 88.6555 245.824 88.5735C245.933 88.4915 246.06 88.4361 246.194 88.4117C246.328 88.3872 246.466 88.3944 246.597 88.4327H307.009C307.14 88.3944 307.278 88.3872 307.412 88.4117C307.546 88.4361 307.673 88.4915 307.782 88.5735C307.892 88.6555 307.98 88.7618 308.041 88.884C308.102 89.0063 308.134 89.141 308.134 89.2777C308.134 89.4144 308.102 89.5491 308.041 89.6714C307.98 89.7936 307.892 89.8999 307.782 89.9819C307.673 90.0639 307.546 90.1193 307.412 90.1437C307.278 90.1682 307.14 90.161 307.009 90.1227H246.597Z" fill="#138175"/>
</svg>
