<svg width="554" height="217" viewBox="0 0 554 217" fill="none" xmlns="http://www.w3.org/2000/svg">
<path d="M123.025 144.651C123.025 144.651 67.0383 125.437 56.8904 54.9697C61.5828 57.6462 59.4436 59.3965 74.8893 66.7386C90.3349 74.0806 107.928 86.4246 114.13 102.797C120.333 119.169 125.574 135.653 132.563 140.878C139.551 146.103 123.025 144.651 123.025 144.651Z" fill="url(#paint0_linear)"/>
<path d="M114.94 128.797C113.839 127.57 108.694 121.277 105.784 108.055C102.875 94.8341 99.8822 85.1851 94.7329 78.7701L93.6823 77.9847L93.6025 78.0914C99.2043 84.4409 102.125 93.9645 105.29 108.209C106.641 115.189 109.394 121.821 113.383 127.704C104.192 120.843 95.6127 113.197 87.742 104.854C84.4041 97.6617 82.0259 90.0615 80.6688 82.2481C79.8097 77.1603 78.3419 72.1949 76.2971 67.4586C76.0992 67.3107 75.8443 67.2389 75.6388 67.1328C77.8195 71.9888 79.3903 77.0968 80.3152 82.3401C81.5885 89.7349 83.7629 96.945 86.79 103.809C80.7858 97.3544 75.3317 90.4086 70.4847 83.0442C60.6322 67.9345 57.5997 56.783 57.1643 55.1747C57.0729 55.1064 56.9815 55.0381 56.8902 54.9698C56.9975 55.7152 57.1352 56.3883 57.254 57.1184C60.3193 66.3868 64.6228 75.1975 70.0476 83.3113C73.4128 88.4294 77.0784 93.3433 81.0253 98.027C76.7668 96.9405 72.6242 95.4428 68.6559 93.5548C68.7767 93.7733 68.8861 93.9978 68.9838 94.2275C73.0021 96.0984 77.1998 97.5572 81.5128 98.5814C90.9704 109.644 101.648 119.603 113.342 128.267C111.33 128.165 102.813 127.238 87.1279 119.835C87.4629 120.086 87.7105 120.485 88.0113 120.781C105.424 128.762 113.65 128.616 113.806 128.662L113.863 128.586C114.137 128.791 114.411 128.995 114.685 129.2C114.959 129.405 114.929 129.382 114.929 129.382C120.258 133.366 126.131 137.258 132.502 141.118L132.65 140.92C132.218 140.63 131.801 140.319 131.401 139.986C125.437 136.217 119.972 132.511 114.94 128.797Z" fill="#138175"/>
<path d="M46.7737 87.4802C50.8508 90.548 55.7733 92.2873 60.8741 92.4625C59.2743 87.6115 56.2209 83.3715 52.128 80.3179C48.042 77.2668 43.1182 75.5425 38.02 75.3774C39.6327 80.2123 42.6876 84.436 46.7737 87.4802Z" fill="#20B58D"/>
<path d="M43.096 38.2435C45.2184 41.8151 48.3866 44.6479 52.1722 46.3589C52.4611 42.21 51.4749 38.073 49.3458 34.5027C47.2167 30.9323 44.0465 28.0995 40.2604 26.384C39.9612 30.536 40.9515 34.678 43.096 38.2435Z" fill="#20B58D"/>
<path d="M89.6528 145.953C93.2326 147.087 97.0743 147.1 100.663 145.989C98.3571 143.031 95.2036 140.848 91.6234 139.73C88.0498 138.586 84.2102 138.568 80.6244 139.679C82.9185 142.648 86.0704 144.838 89.6528 145.953Z" fill="url(#paint1_linear)"/>
<path d="M34.2791 54.1966C34.6831 56.1038 35.6636 57.8402 37.0877 59.1706C37.8467 57.3729 38.0348 55.3856 37.6264 53.4783C37.2181 51.571 36.2331 49.8359 34.805 48.5083C34.0606 50.3085 33.8773 52.2913 34.2791 54.1966Z" fill="url(#paint2_linear)"/>
<path d="M489.236 127.425C486.026 127.889 483.035 129.326 480.666 131.542C483.568 132.994 486.846 133.522 490.056 133.054C493.267 132.586 496.257 131.145 498.625 128.925C495.721 127.477 492.445 126.954 489.236 127.425Z" fill="url(#paint3_linear)"/>
<path d="M467.551 140.336C463.068 140.177 458.645 141.398 454.879 143.834C458.46 146.534 462.781 148.071 467.26 148.239C471.74 148.407 476.163 147.197 479.935 144.773C476.357 142.061 472.035 140.513 467.551 140.336Z" fill="#20B58D"/>
<path d="M470.092 127.415C470.092 127.415 524.92 112.406 531.523 27.6044C526.127 31.1668 528.812 33.0701 511.009 43.0521C493.207 53.0341 473.192 69.0745 467.093 89.0529C460.995 109.031 456.032 129.097 448.124 135.87C440.216 142.644 470.092 127.415 470.092 127.415Z" fill="url(#paint4_linear)"/>
<path d="M468.166 120.17C469.384 118.616 474.956 110.76 477.46 94.7471C480.017 78.3133 482.705 67.0231 488.299 59.0034L489.503 57.9791L489.631 58.0751C483.44 66.09 480.673 77.6213 477.999 94.8291C476.937 103.25 474.173 111.366 469.875 118.682C480.269 109.79 489.883 100.022 498.61 89.4858C502.007 80.6484 504.244 71.4067 505.264 61.9925C505.941 55.8441 507.371 49.8025 509.52 44.0033L510.279 43.5486C508.044 49.5046 506.561 55.7174 505.867 62.0422C504.915 70.9626 502.882 79.7338 499.815 88.1629C506.428 80.0203 512.356 71.3441 517.539 62.223C528.043 43.3695 530.84 29.9983 531.245 27.8973C531.245 27.8973 531.469 27.8646 531.578 27.6653L531.312 30.2507C528.332 41.5246 523.83 52.3389 517.931 62.3954C514.346 68.7649 510.371 74.9071 506.031 80.787C510.996 79.1854 515.79 77.0958 520.344 74.5486L519.987 75.4036C515.392 77.9152 510.563 79.9714 505.568 81.5428C495.171 95.4661 483.232 108.166 469.979 119.401C472.359 119.054 482.428 117.358 500.519 107.311L499.547 108.508C479.434 119.469 469.564 120.012 469.452 120.029L469.429 119.871C469.125 120.145 468.843 120.415 468.514 120.67L468.28 120.956C462.148 126.072 455.583 131.204 448.28 136.306L448.244 136.059C448.71 135.655 449.153 135.222 449.568 134.765C456.268 129.873 462.467 125.008 468.166 120.17Z" fill="#138175"/>
<path d="M522.198 8.4506C519.204 12.3979 517.499 17.173 517.314 22.126C522.025 20.586 526.154 17.6415 529.147 13.687C532.139 9.73253 533.853 4.95693 534.057 0C529.335 1.53983 525.197 4.48864 522.198 8.4506Z" fill="url(#paint5_linear)"/>
<path fill-rule="evenodd" clip-rule="evenodd" d="M256.107 178.407C262.339 181.76 268.216 185.735 273.647 190.271C274.585 201.532 277.155 216.748 277.155 216.748C296.738 198.315 323.405 181.647 341.022 171.917C327.851 169.358 325.639 153.07 309.317 148.278C304.514 146.859 287.365 158.276 282.841 157.07C276.138 162.309 264.654 170.174 256.107 178.407Z" fill="#FFAB2F"/>
<path fill-rule="evenodd" clip-rule="evenodd" d="M292.236 159.572C312.501 165.527 330.756 169.962 347.111 173.134C417.938 186.875 453.062 176.989 460.792 165.002C467.495 151.216 467.149 117.221 463.082 100.575C463.351 117.333 413.872 136.112 292.873 100.575C184.855 68.7923 133.813 80.366 124.317 95.0789C117.614 108.865 117.96 142.86 122.082 159.505C121.826 143.597 166.545 125.823 274.931 154.679C280.517 156.191 286.285 157.822 292.236 159.572Z" fill="#FACA6E"/>
<path fill-rule="evenodd" clip-rule="evenodd" d="M147.308 118.539C148.664 118.55 149.993 118.158 151.126 117.413C152.26 116.668 153.146 115.603 153.673 114.353C154.2 113.103 154.345 111.725 154.088 110.394C153.831 109.062 153.184 107.836 152.23 106.873C151.275 105.909 150.056 105.25 148.727 104.98C147.398 104.71 146.019 104.841 144.764 105.356C143.509 105.871 142.435 106.747 141.679 107.872C140.923 108.998 140.518 110.323 140.515 111.68C140.515 113.487 141.229 115.222 142.501 116.507C143.773 117.791 145.5 118.521 147.308 118.539Z" fill="white"/>
<path fill-rule="evenodd" clip-rule="evenodd" d="M442.828 151.976C444.183 151.976 445.507 151.574 446.633 150.822C447.759 150.069 448.637 149 449.155 147.748C449.674 146.497 449.809 145.12 449.545 143.792C449.281 142.463 448.628 141.243 447.671 140.285C446.713 139.327 445.493 138.675 444.164 138.411C442.836 138.147 441.459 138.282 440.208 138.801C438.956 139.319 437.887 140.197 437.134 141.323C436.382 142.449 435.98 143.773 435.98 145.128C435.983 146.943 436.706 148.683 437.989 149.967C439.273 151.25 441.013 151.973 442.828 151.976Z" fill="white"/>
<path d="M187.091 106.498L182.617 106.261L182.757 103.624L194.94 104.271L194.8 106.907L190.327 106.67L189.725 118.014L186.489 117.842L187.091 106.498Z" fill="white"/>
<path d="M203.306 108.191C204.632 108.328 205.659 108.837 206.386 109.716C207.125 110.597 207.414 111.82 207.252 113.385L206.618 119.512L203.515 119.191L204.1 113.541C204.187 112.693 204.067 112.043 203.738 111.594C203.411 111.131 202.896 110.863 202.193 110.79C201.41 110.709 200.761 110.89 200.246 111.333C199.733 111.762 199.427 112.454 199.328 113.409L198.78 118.701L195.677 118.38L197.205 103.619L200.308 103.94L199.773 109.112C200.226 108.744 200.756 108.484 201.361 108.332C201.968 108.167 202.617 108.12 203.306 108.191Z" fill="white"/>
<path d="M220.892 116.193C220.886 116.233 220.824 116.507 220.708 117.015L212.658 115.805C212.704 116.486 212.968 117.058 213.452 117.522C213.935 117.985 214.578 118.278 215.383 118.399C215.936 118.482 216.436 118.476 216.882 118.381C217.343 118.275 217.785 118.072 218.207 117.772L219.581 119.798C218.407 120.795 216.857 121.148 214.932 120.859C213.732 120.678 212.705 120.288 211.852 119.688C211 119.074 210.386 118.315 210.01 117.409C209.634 116.503 209.525 115.522 209.684 114.468C209.84 113.426 210.225 112.526 210.838 111.769C211.466 111.001 212.243 110.45 213.169 110.117C214.111 109.774 215.116 109.682 216.184 109.843C217.225 109.999 218.134 110.365 218.911 110.94C219.687 111.515 220.249 112.261 220.597 113.176C220.96 114.08 221.058 115.086 220.892 116.193ZM215.853 112.179C215.154 112.074 214.537 112.184 214.003 112.508C213.469 112.832 213.098 113.329 212.889 113.999L218.13 114.787C218.126 114.099 217.916 113.521 217.501 113.054C217.088 112.574 216.538 112.282 215.853 112.179Z" fill="white"/>
<path d="M234.031 124.429C232.635 124.134 231.434 123.566 230.426 122.726C229.434 121.875 228.725 120.846 228.299 119.639C227.889 118.421 227.827 117.133 228.115 115.777C228.402 114.42 228.978 113.275 229.844 112.34C230.725 111.396 231.79 110.742 233.039 110.379C234.303 110.006 235.64 109.969 237.049 110.267C238.236 110.518 239.261 110.953 240.125 111.572C241.002 112.194 241.684 112.965 242.171 113.886L239.738 115.334C239.038 114.068 238.004 113.29 236.634 113.001C235.786 112.821 234.989 112.85 234.244 113.088C233.502 113.312 232.871 113.717 232.352 114.302C231.846 114.89 231.503 115.608 231.323 116.456C231.144 117.304 231.167 118.099 231.391 118.842C231.628 119.587 232.04 120.219 232.625 120.738C233.213 121.244 233.931 121.587 234.779 121.766C236.148 122.056 237.411 121.758 238.566 120.871L240.204 123.18C239.383 123.838 238.446 124.273 237.392 124.486C236.339 124.7 235.218 124.68 234.031 124.429Z" fill="white"/>
<path d="M247.434 127.499C246.336 127.218 245.405 126.739 244.643 126.062C243.897 125.375 243.382 124.562 243.1 123.622C242.817 122.683 242.808 121.697 243.073 120.663C243.338 119.63 243.82 118.769 244.519 118.081C245.218 117.393 246.058 116.934 247.04 116.704C248.037 116.464 249.085 116.484 250.183 116.765C251.28 117.046 252.203 117.53 252.949 118.217C253.698 118.891 254.214 119.697 254.497 120.637C254.779 121.576 254.788 122.563 254.524 123.596C254.259 124.629 253.777 125.49 253.078 126.178C252.378 126.866 251.537 127.332 250.552 127.575C249.571 127.805 248.531 127.78 247.434 127.499ZM248.069 125.019C248.844 125.217 249.543 125.121 250.166 124.73C250.805 124.33 251.237 123.69 251.462 122.812C251.687 121.934 251.614 121.172 251.243 120.526C250.887 119.871 250.322 119.444 249.547 119.245C248.772 119.047 248.065 119.148 247.426 119.548C246.79 119.936 246.359 120.569 246.134 121.447C245.909 122.326 245.981 123.094 246.349 123.753C246.72 124.398 247.294 124.82 248.069 125.019Z" fill="white"/>
<path d="M259.065 119.228L262.082 120.021L259.349 130.428L256.331 129.635L259.065 119.228ZM260.955 118.174C260.4 118.028 259.991 117.748 259.727 117.334C259.464 116.92 259.395 116.475 259.52 115.998C259.646 115.521 259.925 115.167 260.358 114.936C260.79 114.705 261.284 114.662 261.839 114.808C262.393 114.953 262.804 115.227 263.071 115.628C263.338 116.029 263.41 116.461 263.288 116.926C263.156 117.428 262.872 117.802 262.436 118.046C262.003 118.277 261.509 118.319 260.955 118.174Z" fill="white"/>
<path d="M271.799 122.444C273.087 122.79 274.02 123.454 274.598 124.438C275.188 125.425 275.28 126.679 274.871 128.198L273.273 134.147L270.26 133.337L271.734 127.852C271.955 127.028 271.939 126.368 271.686 125.872C271.436 125.363 270.97 125.017 270.287 124.833C269.528 124.629 268.859 124.705 268.28 125.06C267.705 125.402 267.292 126.037 267.043 126.964L265.663 132.102L262.649 131.292L265.442 120.901L268.32 121.674L267.993 122.891C268.51 122.561 269.095 122.359 269.75 122.286C270.408 122.201 271.091 122.253 271.799 122.444Z" fill="white"/>
<path d="M298.085 126.474L294.338 139.963L291.775 139.251L287.325 129.193L285.05 137.383L281.966 136.526L285.714 123.037L288.296 123.754L292.727 133.807L295.002 125.617L298.085 126.474Z" fill="white"/>
<path d="M303.516 131.61L306.174 132.353L305.528 134.664L302.947 133.943L300.76 141.763L297.755 140.923L299.942 133.102L298.343 132.655L298.989 130.344L300.588 130.791L300.717 130.329C301.048 129.148 301.657 128.307 302.544 127.808C303.444 127.312 304.53 127.241 305.801 127.597C306.25 127.723 306.66 127.892 307.029 128.106C307.415 128.311 307.717 128.541 307.937 128.796L306.538 130.752C306.26 130.411 305.89 130.176 305.427 130.047C304.516 129.792 303.92 130.165 303.64 131.167L303.516 131.61Z" fill="white"/>
<path d="M312.424 144.474C312.068 144.61 311.655 144.676 311.186 144.67C310.734 144.655 310.27 144.581 309.795 144.449C308.561 144.106 307.692 143.525 307.186 142.706C306.693 141.891 306.617 140.873 306.956 139.653L308.14 135.394L306.541 134.95L307.184 132.637L308.783 133.082L309.486 130.558L312.491 131.394L311.789 133.918L314.371 134.636L313.728 136.949L311.146 136.23L309.973 140.45C309.851 140.887 309.866 141.258 310.016 141.563C310.183 141.858 310.472 142.063 310.883 142.177C311.358 142.31 311.799 142.294 312.204 142.13L312.424 144.474Z" fill="white"/>
<path d="M325.444 148.009C325.09 148.148 324.678 148.217 324.209 148.216C323.756 148.204 323.291 148.135 322.815 148.007C321.579 147.675 320.704 147.102 320.191 146.288C319.691 145.477 319.605 144.46 319.934 143.236L321.08 138.968L319.477 138.537L320.099 136.219L321.703 136.65L322.382 134.119L325.395 134.929L324.716 137.459L327.304 138.154L326.682 140.472L324.093 139.777L322.957 144.007C322.84 144.445 322.858 144.815 323.011 145.119C323.18 145.413 323.471 145.615 323.883 145.726C324.36 145.854 324.8 145.834 325.204 145.666L325.444 148.009Z" fill="white"/>
<path d="M339.259 146.55C339.249 146.589 339.162 146.856 338.996 147.351L331.102 145.367C331.081 146.049 331.289 146.645 331.725 147.153C332.161 147.661 332.774 148.014 333.562 148.212C334.106 148.349 334.604 148.391 335.056 148.34C335.525 148.279 335.985 148.12 336.434 147.862L337.606 150.012C336.34 150.89 334.764 151.092 332.876 150.618C331.699 150.322 330.715 149.834 329.923 149.154C329.135 148.461 328.598 147.646 328.311 146.707C328.024 145.769 328.011 144.783 328.271 143.748C328.527 142.727 328.997 141.869 329.68 141.174C330.38 140.47 331.207 139.997 332.161 139.756C333.131 139.505 334.14 139.511 335.188 139.774C336.209 140.031 337.079 140.483 337.796 141.13C338.513 141.778 339 142.574 339.258 143.519C339.532 144.454 339.532 145.464 339.259 146.55ZM334.632 142.068C333.947 141.896 333.322 141.945 332.759 142.216C332.196 142.487 331.779 142.946 331.506 143.592L336.647 144.884C336.709 144.198 336.556 143.603 336.188 143.098C335.823 142.58 335.304 142.237 334.632 142.068Z" fill="white"/>
<path d="M346.972 153.734L345.369 150.007L342.282 152.711L338.96 151.987L344.159 147.573L341.388 141.504L344.808 142.249L346.367 145.803L349.322 143.233L352.566 143.94L347.538 148.228L350.431 154.487L346.972 153.734Z" fill="white"/>
<path d="M359.109 155.48C358.768 155.65 358.364 155.755 357.896 155.794C357.444 155.823 356.976 155.794 356.49 155.708C355.229 155.486 354.308 154.992 353.725 154.226C353.156 153.462 352.981 152.456 353.202 151.209L353.969 146.856L352.335 146.567L352.752 144.204L354.386 144.492L354.842 141.912L357.914 142.454L357.459 145.034L360.098 145.5L359.681 147.864L357.042 147.398L356.281 151.711C356.202 152.158 356.252 152.525 356.432 152.814C356.626 153.092 356.934 153.268 357.354 153.343C357.84 153.428 358.277 153.37 358.664 153.168L359.109 155.48Z" fill="white"/>
<path d="M373.44 146.707C374.768 146.824 375.802 147.317 376.542 148.185C377.296 149.054 377.603 150.273 377.466 151.84L376.926 157.976L373.818 157.703L374.316 152.045C374.39 151.195 374.26 150.547 373.924 150.103C373.59 149.645 373.07 149.385 372.366 149.323C371.583 149.254 370.937 149.445 370.429 149.896C369.922 150.333 369.626 151.03 369.542 151.986L369.076 157.286L365.968 157.012L367.269 142.229L370.377 142.503L369.921 147.683C370.369 147.307 370.894 147.039 371.497 146.878C372.102 146.703 372.749 146.647 373.44 146.707Z" fill="white"/>
<path d="M390.83 153.318C390.828 153.358 390.793 153.637 390.725 154.154L382.597 153.716C382.708 154.39 383.025 154.934 383.55 155.35C384.076 155.765 384.744 155.995 385.556 156.039C386.115 156.069 386.612 156.015 387.047 155.879C387.496 155.729 387.916 155.485 388.308 155.145L389.869 157.032C388.795 158.136 387.286 158.635 385.342 158.531C384.13 158.465 383.071 158.175 382.164 157.659C381.258 157.129 380.575 156.431 380.114 155.565C379.653 154.699 379.451 153.734 379.509 152.669C379.565 151.617 379.863 150.685 380.401 149.872C380.952 149.048 381.674 148.425 382.564 148.006C383.469 147.574 384.46 147.387 385.539 147.445C386.59 147.502 387.53 147.78 388.358 148.278C389.186 148.777 389.816 149.465 390.249 150.343C390.697 151.208 390.89 152.2 390.83 153.318ZM385.432 149.803C384.726 149.765 384.123 149.933 383.622 150.306C383.121 150.68 382.799 151.21 382.655 151.897L387.947 152.182C387.877 151.497 387.613 150.942 387.156 150.517C386.699 150.078 386.124 149.84 385.432 149.803Z" fill="white"/>
<path d="M396.69 149.536C397.081 149.029 397.594 148.653 398.23 148.408C398.879 148.164 399.616 148.056 400.442 148.085L400.343 150.963C399.997 150.924 399.764 150.903 399.644 150.899C398.752 150.868 398.043 151.097 397.519 151.586C396.996 152.061 396.717 152.799 396.682 153.798L396.506 158.875L393.388 158.767L393.761 148.013L396.739 148.116L396.69 149.536Z" fill="white"/>
<path d="M412.799 153.676C412.8 153.716 412.781 153.996 412.744 154.516L404.605 154.565C404.755 155.231 405.105 155.756 405.654 156.139C406.203 156.522 406.884 156.712 407.698 156.707C408.258 156.703 408.75 156.62 409.176 156.458C409.615 156.282 410.02 156.013 410.391 155.65L412.062 157.44C411.056 158.606 409.579 159.195 407.633 159.207C406.419 159.214 405.345 158.988 404.409 158.527C403.472 158.052 402.748 157.397 402.237 156.56C401.725 155.723 401.466 154.771 401.459 153.704C401.453 152.651 401.694 151.703 402.182 150.86C402.684 150.004 403.366 149.339 404.23 148.868C405.107 148.382 406.086 148.136 407.166 148.13C408.219 148.123 409.174 148.344 410.03 148.792C410.886 149.241 411.556 149.89 412.041 150.74C412.54 151.577 412.793 152.556 412.799 153.676ZM407.2 150.49C406.493 150.494 405.901 150.697 405.424 151.1C404.946 151.503 404.656 152.052 404.554 152.746L409.853 152.714C409.743 152.034 409.446 151.496 408.964 151.099C408.481 150.689 407.893 150.485 407.2 150.49Z" fill="white"/>
<defs>
<linearGradient id="paint0_linear" x1="119.53" y1="121.652" x2="39.9161" y2="59.6473" gradientUnits="userSpaceOnUse">
<stop stop-color="#20B58D"/>
<stop offset="0.48" stop-color="#60CA8E"/>
<stop offset="1" stop-color="#95DC8F"/>
</linearGradient>
<linearGradient id="paint1_linear" x1="93.8094" y1="143.475" x2="81.8536" y2="134.816" gradientUnits="userSpaceOnUse">
<stop stop-color="#138175"/>
<stop offset="0.7" stop-color="#20B58D"/>
<stop offset="1" stop-color="#96DC8F"/>
</linearGradient>
<linearGradient id="paint2_linear" x1="37.8147" y1="55.2377" x2="32.0701" y2="50.8741" gradientUnits="userSpaceOnUse">
<stop stop-color="#20B58D"/>
<stop offset="0.48" stop-color="#60CA8E"/>
<stop offset="1" stop-color="#95DC8F"/>
</linearGradient>
<linearGradient id="paint3_linear" x1="487.14" y1="131.572" x2="500.468" y2="129.355" gradientUnits="userSpaceOnUse">
<stop stop-color="#138175"/>
<stop offset="0.7" stop-color="#20B58D"/>
<stop offset="1" stop-color="#96DC8F"/>
</linearGradient>
<linearGradient id="paint4_linear" x1="461.145" y1="86.7058" x2="547.876" y2="74.6806" gradientUnits="userSpaceOnUse">
<stop stop-color="#20B58D"/>
<stop offset="0.48" stop-color="#60CA8E"/>
<stop offset="1" stop-color="#95DC8F"/>
</linearGradient>
<linearGradient id="paint5_linear" x1="520.129" y1="11.8692" x2="537.321" y2="9.48363" gradientUnits="userSpaceOnUse">
<stop stop-color="#20B58D"/>
<stop offset="0.48" stop-color="#60CA8E"/>
<stop offset="1" stop-color="#95DC8F"/>
</linearGradient>
</defs>
</svg>
