<svg width="535" height="768" viewBox="0 0 535 768" fill="none" xmlns="http://www.w3.org/2000/svg">
<rect width="535" height="768" fill="#2B5250"/>
<mask id="mask0" mask-type="alpha" maskUnits="userSpaceOnUse" x="0" y="0" width="535" height="768">
<rect width="535" height="768" fill="#2B5250"/>
</mask>
<g mask="url(#mask0)">
<path fill-rule="evenodd" clip-rule="evenodd" d="M59.2098 55.0701C59.2098 55.2817 59.1471 55.4885 59.0295 55.6645C58.9119 55.8405 58.7448 55.9776 58.5493 56.0586C58.3538 56.1396 58.1386 56.1608 57.9311 56.1195C57.7235 56.0782 57.5329 55.9763 57.3832 55.8267C57.2336 55.677 57.1317 55.4864 57.0904 55.2788C57.0491 55.0712 57.0703 54.8561 57.1513 54.6606C57.2323 54.4651 57.3694 54.2979 57.5454 54.1804C57.7213 54.0628 57.9282 54 58.1398 54C58.2807 53.9987 58.4204 54.0255 58.5509 54.0788C58.6813 54.1321 58.7998 54.2108 58.8994 54.3105C58.999 54.4101 59.0778 54.5286 59.1311 54.659C59.1844 54.7894 59.2112 54.9292 59.2098 55.0701Z" fill="#138175"/>
<path fill-rule="evenodd" clip-rule="evenodd" d="M59.2098 60.4101C59.2098 60.6217 59.1471 60.8286 59.0295 61.0046C58.9119 61.1805 58.7448 61.3177 58.5493 61.3987C58.3538 61.4796 58.1386 61.5008 57.9311 61.4595C57.7235 61.4182 57.5329 61.3163 57.3832 61.1667C57.2336 61.0171 57.1317 60.8264 57.0904 60.6188C57.0491 60.4113 57.0703 60.1961 57.1513 60.0006C57.2323 59.8051 57.3694 59.638 57.5454 59.5204C57.7213 59.4028 57.9282 59.3401 58.1398 59.3401C58.4236 59.3401 58.6958 59.4528 58.8964 59.6535C59.0971 59.8542 59.2098 60.1263 59.2098 60.4101Z" fill="#138175"/>
<path fill-rule="evenodd" clip-rule="evenodd" d="M59.2098 65.7602C59.2098 65.9718 59.1471 66.1787 59.0295 66.3546C58.9119 66.5306 58.7448 66.6677 58.5493 66.7487C58.3538 66.8297 58.1386 66.8509 57.9311 66.8096C57.7235 66.7683 57.5329 66.6664 57.3832 66.5168C57.2336 66.3671 57.1317 66.1765 57.0904 65.9689C57.0491 65.7614 57.0703 65.5462 57.1513 65.3507C57.2323 65.1552 57.3694 64.9881 57.5454 64.8705C57.7213 64.7529 57.9282 64.6902 58.1398 64.6902C58.4236 64.6902 58.6958 64.8029 58.8964 65.0036C59.0971 65.2042 59.2098 65.4764 59.2098 65.7602Z" fill="#138175"/>
<path d="M58.11 72.18C58.701 72.18 59.18 71.701 59.18 71.11C59.18 70.5191 58.701 70.04 58.11 70.04C57.5191 70.04 57.04 70.5191 57.04 71.11C57.04 71.701 57.5191 72.18 58.11 72.18Z" fill="#138175"/>
<path fill-rule="evenodd" clip-rule="evenodd" d="M59.2098 76.4501C59.2098 76.6617 59.1471 76.8686 59.0295 77.0446C58.9119 77.2205 58.7448 77.3577 58.5493 77.4387C58.3538 77.5197 58.1386 77.5409 57.9311 77.4996C57.7235 77.4583 57.5329 77.3564 57.3832 77.2067C57.2336 77.0571 57.1317 76.8664 57.0904 76.6589C57.0491 76.4513 57.0703 76.2362 57.1513 76.0406C57.2323 75.8451 57.3694 75.678 57.5454 75.5605C57.7213 75.4429 57.9282 75.3801 58.1398 75.3801C58.4236 75.3801 58.6958 75.4929 58.8964 75.6935C59.0971 75.8942 59.2098 76.1663 59.2098 76.4501Z" fill="#138175"/>
<path fill-rule="evenodd" clip-rule="evenodd" d="M59.2098 81.8C59.2098 82.0116 59.1471 82.2185 59.0295 82.3944C58.9119 82.5704 58.7448 82.7075 58.5493 82.7885C58.3538 82.8695 58.1386 82.8907 57.9311 82.8494C57.7235 82.8081 57.5329 82.7062 57.3832 82.5566C57.2336 82.4069 57.1317 82.2163 57.0904 82.0087C57.0491 81.8012 57.0703 81.586 57.1513 81.3905C57.2323 81.195 57.3694 81.0279 57.5454 80.9103C57.7213 80.7927 57.9282 80.73 58.1398 80.73C58.4236 80.73 58.6958 80.8427 58.8964 81.0434C59.0971 81.244 59.2098 81.5162 59.2098 81.8Z" fill="#138175"/>
<path fill-rule="evenodd" clip-rule="evenodd" d="M59.2098 87.1601C59.2098 87.3717 59.1471 87.5786 59.0295 87.7546C58.9119 87.9305 58.7448 88.0677 58.5493 88.1487C58.3538 88.2296 58.1386 88.2508 57.9311 88.2095C57.7235 88.1682 57.5329 88.0663 57.3832 87.9167C57.2336 87.7671 57.1317 87.5764 57.0904 87.3688C57.0491 87.1613 57.0703 86.9461 57.1513 86.7506C57.2323 86.5551 57.3694 86.388 57.5454 86.2704C57.7213 86.1528 57.9282 86.0901 58.1398 86.0901C58.4236 86.0901 58.6958 86.2028 58.8964 86.4035C59.0971 86.6042 59.2098 86.8763 59.2098 87.1601Z" fill="#138175"/>
<path fill-rule="evenodd" clip-rule="evenodd" d="M59.2098 92.4902C59.2098 92.7018 59.1471 92.9087 59.0295 93.0846C58.9119 93.2606 58.7448 93.3977 58.5493 93.4787C58.3538 93.5597 58.1386 93.5809 57.9311 93.5396C57.7235 93.4983 57.5329 93.3964 57.3832 93.2468C57.2336 93.0971 57.1317 92.9065 57.0904 92.6989C57.0491 92.4914 57.0703 92.2762 57.1513 92.0807C57.2323 91.8852 57.3694 91.7181 57.5454 91.6005C57.7213 91.4829 57.9282 91.4202 58.1398 91.4202C58.4236 91.4202 58.6958 91.5329 58.8964 91.7336C59.0971 91.9342 59.2098 92.2064 59.2098 92.4902Z" fill="#138175"/>
<path fill-rule="evenodd" clip-rule="evenodd" d="M59.2098 97.84C59.2098 98.0516 59.1471 98.2585 59.0295 98.4345C58.9119 98.6104 58.7448 98.7476 58.5493 98.8286C58.3538 98.9096 58.1386 98.9308 57.9311 98.8895C57.7235 98.8482 57.5329 98.7463 57.3832 98.5966C57.2336 98.447 57.1317 98.2563 57.0904 98.0488C57.0491 97.8412 57.0703 97.6261 57.1513 97.4305C57.2323 97.235 57.3694 97.0679 57.5454 96.9503C57.7213 96.8328 57.9282 96.77 58.1398 96.77C58.4236 96.77 58.6958 96.8828 58.8964 97.0834C59.0971 97.2841 59.2098 97.5562 59.2098 97.84Z" fill="#138175"/>
<path d="M58.11 104.25C58.701 104.25 59.18 103.771 59.18 103.18C59.18 102.589 58.701 102.11 58.11 102.11C57.5191 102.11 57.04 102.589 57.04 103.18C57.04 103.771 57.5191 104.25 58.11 104.25Z" fill="#138175"/>
<path fill-rule="evenodd" clip-rule="evenodd" d="M59.2098 108.53C59.2098 108.742 59.1471 108.948 59.0295 109.124C58.9119 109.3 58.7448 109.438 58.5493 109.519C58.3538 109.599 58.1386 109.621 57.9311 109.579C57.7235 109.538 57.5329 109.436 57.3832 109.287C57.2336 109.137 57.1317 108.946 57.0904 108.739C57.0491 108.531 57.0703 108.316 57.1513 108.12C57.2323 107.925 57.3694 107.758 57.5454 107.64C57.7213 107.523 57.9282 107.46 58.1398 107.46C58.4236 107.46 58.6958 107.573 58.8964 107.773C59.0971 107.974 59.2098 108.246 59.2098 108.53Z" fill="#138175"/>
<path fill-rule="evenodd" clip-rule="evenodd" d="M59.2098 113.88C59.2098 114.092 59.1471 114.299 59.0295 114.475C58.9119 114.65 58.7448 114.788 58.5493 114.869C58.3538 114.95 58.1386 114.971 57.9311 114.93C57.7235 114.888 57.5329 114.786 57.3832 114.637C57.2336 114.487 57.1317 114.296 57.0904 114.089C57.0491 113.881 57.0703 113.666 57.1513 113.471C57.2323 113.275 57.3694 113.108 57.5454 112.99C57.7213 112.873 57.9282 112.81 58.1398 112.81C58.4236 112.81 58.6958 112.923 58.8964 113.123C59.0971 113.324 59.2098 113.596 59.2098 113.88Z" fill="#138175"/>
<path fill-rule="evenodd" clip-rule="evenodd" d="M59.2098 119.22C59.2117 119.431 59.1513 119.637 59.0362 119.814C58.9211 119.991 58.7564 120.129 58.5628 120.213C58.3692 120.296 58.1554 120.32 57.948 120.282C57.7407 120.245 57.5491 120.146 57.3974 120C57.2456 119.854 57.1404 119.666 57.095 119.46C57.0495 119.255 57.0659 119.04 57.142 118.843C57.2181 118.647 57.3505 118.477 57.5227 118.356C57.6949 118.234 57.8991 118.166 58.1098 118.16C58.252 118.156 58.3935 118.18 58.5262 118.232C58.6588 118.283 58.7799 118.36 58.8823 118.459C58.9847 118.558 59.0664 118.676 59.1227 118.807C59.1789 118.937 59.2085 119.078 59.2098 119.22Z" fill="#138175"/>
<path fill-rule="evenodd" clip-rule="evenodd" d="M59.2098 124.57C59.2098 124.782 59.1471 124.988 59.0295 125.164C58.9119 125.34 58.7448 125.478 58.5493 125.559C58.3538 125.64 58.1386 125.661 57.9311 125.619C57.7235 125.578 57.5329 125.476 57.3832 125.327C57.2336 125.177 57.1317 124.986 57.0904 124.779C57.0491 124.571 57.0703 124.356 57.1513 124.161C57.2323 123.965 57.3694 123.798 57.5454 123.68C57.7213 123.563 57.9282 123.5 58.1398 123.5C58.4236 123.5 58.6958 123.613 58.8964 123.813C59.0971 124.014 59.2098 124.286 59.2098 124.57Z" fill="#138175"/>
<path fill-rule="evenodd" clip-rule="evenodd" d="M59.2098 129.92C59.2098 130.132 59.1471 130.339 59.0295 130.515C58.9119 130.691 58.7448 130.828 58.5493 130.909C58.3538 130.99 58.1386 131.011 57.9311 130.97C57.7235 130.928 57.5329 130.826 57.3832 130.677C57.2336 130.527 57.1317 130.336 57.0904 130.129C57.0491 129.921 57.0703 129.706 57.1513 129.511C57.2323 129.315 57.3694 129.148 57.5454 129.03C57.7213 128.913 57.9282 128.85 58.1398 128.85C58.4236 128.85 58.6958 128.963 58.8964 129.163C59.0971 129.364 59.2098 129.636 59.2098 129.92Z" fill="#138175"/>
<path fill-rule="evenodd" clip-rule="evenodd" d="M59.2099 135.26C59.2039 135.469 59.1369 135.672 59.0171 135.843C58.8973 136.014 58.7299 136.147 58.5357 136.224C58.3414 136.301 58.1288 136.32 57.9241 136.277C57.7194 136.235 57.5315 136.134 57.3837 135.986C57.2359 135.838 57.1346 135.65 57.0924 135.446C57.0501 135.241 57.0688 135.028 57.146 134.834C57.2233 134.64 57.3557 134.473 57.527 134.353C57.6983 134.233 57.9009 134.166 58.1099 134.16C58.2558 134.154 58.4014 134.179 58.5374 134.232C58.6734 134.286 58.7969 134.366 58.9002 134.47C59.0035 134.573 59.0843 134.696 59.1376 134.832C59.1909 134.968 59.2155 135.114 59.2099 135.26Z" fill="#138175"/>
<path fill-rule="evenodd" clip-rule="evenodd" d="M59.2098 140.61C59.2098 140.822 59.1471 141.029 59.0295 141.204C58.9119 141.38 58.7448 141.518 58.5493 141.599C58.3538 141.68 58.1386 141.701 57.9311 141.659C57.7235 141.618 57.5329 141.516 57.3832 141.367C57.2336 141.217 57.1317 141.026 57.0904 140.819C57.0491 140.611 57.0703 140.396 57.1513 140.201C57.2323 140.005 57.3694 139.838 57.5454 139.72C57.7213 139.603 57.9282 139.54 58.1398 139.54C58.4236 139.54 58.6958 139.653 58.8964 139.853C59.0971 140.054 59.2098 140.326 59.2098 140.61Z" fill="#138175"/>
<path fill-rule="evenodd" clip-rule="evenodd" d="M53.8299 55.0701C53.8299 55.2817 53.7672 55.4885 53.6496 55.6645C53.532 55.8405 53.3649 55.9776 53.1694 56.0586C52.9739 56.1396 52.7588 56.1608 52.5512 56.1195C52.3436 56.0782 52.153 55.9763 52.0033 55.8267C51.8537 55.677 51.7518 55.4864 51.7105 55.2788C51.6692 55.0712 51.6904 54.8561 51.7714 54.6606C51.8524 54.4651 51.9895 54.2979 52.1655 54.1804C52.3414 54.0628 52.5483 54 52.7599 54C52.9008 53.9987 53.0406 54.0255 53.171 54.0788C53.3014 54.1321 53.4199 54.2108 53.5195 54.3105C53.6191 54.4101 53.6979 54.5286 53.7512 54.659C53.8045 54.7894 53.8313 54.9292 53.8299 55.0701Z" fill="#138175"/>
<path fill-rule="evenodd" clip-rule="evenodd" d="M53.8299 60.4101C53.8299 60.6217 53.7672 60.8286 53.6496 61.0046C53.532 61.1805 53.3649 61.3177 53.1694 61.3987C52.9739 61.4796 52.7588 61.5008 52.5512 61.4595C52.3436 61.4182 52.153 61.3163 52.0033 61.1667C51.8537 61.0171 51.7518 60.8264 51.7105 60.6188C51.6692 60.4113 51.6904 60.1961 51.7714 60.0006C51.8524 59.8051 51.9895 59.638 52.1655 59.5204C52.3414 59.4028 52.5483 59.3401 52.7599 59.3401C53.0437 59.3401 53.3159 59.4528 53.5165 59.6535C53.7172 59.8542 53.8299 60.1263 53.8299 60.4101Z" fill="#138175"/>
<path fill-rule="evenodd" clip-rule="evenodd" d="M53.8299 65.7602C53.8299 65.9718 53.7672 66.1787 53.6496 66.3546C53.532 66.5306 53.3649 66.6677 53.1694 66.7487C52.9739 66.8297 52.7588 66.8509 52.5512 66.8096C52.3436 66.7683 52.153 66.6664 52.0033 66.5168C51.8537 66.3671 51.7518 66.1765 51.7105 65.9689C51.6692 65.7614 51.6904 65.5462 51.7714 65.3507C51.8524 65.1552 51.9895 64.9881 52.1655 64.8705C52.3414 64.7529 52.5483 64.6902 52.7599 64.6902C53.0437 64.6902 53.3159 64.8029 53.5165 65.0036C53.7172 65.2042 53.8299 65.4764 53.8299 65.7602Z" fill="#138175"/>
<path fill-rule="evenodd" clip-rule="evenodd" d="M53.8299 71.1601C53.8299 71.3718 53.7672 71.5786 53.6496 71.7546C53.532 71.9306 53.3649 72.0677 53.1694 72.1487C52.9739 72.2297 52.7588 72.2509 52.5512 72.2096C52.3436 72.1683 52.153 72.0664 52.0033 71.9167C51.8537 71.7671 51.7518 71.5764 51.7105 71.3689C51.6692 71.1613 51.6904 70.9462 51.7714 70.7507C51.8524 70.5552 51.9895 70.388 52.1655 70.2705C52.3414 70.1529 52.5483 70.0901 52.7599 70.0901C52.9008 70.0888 53.0406 70.1156 53.171 70.1689C53.3014 70.2222 53.4199 70.3009 53.5195 70.4006C53.6191 70.5002 53.6979 70.6187 53.7512 70.7491C53.8045 70.8795 53.8313 71.0193 53.8299 71.1601Z" fill="#138175"/>
<path fill-rule="evenodd" clip-rule="evenodd" d="M53.8299 76.4501C53.8299 76.6617 53.7672 76.8686 53.6496 77.0446C53.532 77.2205 53.3649 77.3577 53.1694 77.4387C52.9739 77.5197 52.7588 77.5409 52.5512 77.4996C52.3436 77.4583 52.153 77.3564 52.0033 77.2067C51.8537 77.0571 51.7518 76.8664 51.7105 76.6589C51.6692 76.4513 51.6904 76.2362 51.7714 76.0406C51.8524 75.8451 51.9895 75.678 52.1655 75.5605C52.3414 75.4429 52.5483 75.3801 52.7599 75.3801C53.0437 75.3801 53.3159 75.4929 53.5165 75.6935C53.7172 75.8942 53.8299 76.1663 53.8299 76.4501Z" fill="#138175"/>
<path fill-rule="evenodd" clip-rule="evenodd" d="M53.8299 81.8C53.8299 82.0116 53.7672 82.2185 53.6496 82.3944C53.532 82.5704 53.3649 82.7075 53.1694 82.7885C52.9739 82.8695 52.7588 82.8907 52.5512 82.8494C52.3436 82.8081 52.153 82.7062 52.0033 82.5566C51.8537 82.4069 51.7518 82.2163 51.7105 82.0087C51.6692 81.8012 51.6904 81.586 51.7714 81.3905C51.8524 81.195 51.9895 81.0279 52.1655 80.9103C52.3414 80.7927 52.5483 80.73 52.7599 80.73C53.0437 80.73 53.3159 80.8427 53.5165 81.0434C53.7172 81.244 53.8299 81.5162 53.8299 81.8Z" fill="#138175"/>
<path fill-rule="evenodd" clip-rule="evenodd" d="M53.8299 87.1601C53.8299 87.3717 53.7672 87.5786 53.6496 87.7546C53.532 87.9305 53.3649 88.0677 53.1694 88.1487C52.9739 88.2296 52.7588 88.2508 52.5512 88.2095C52.3436 88.1682 52.153 88.0663 52.0033 87.9167C51.8537 87.7671 51.7518 87.5764 51.7105 87.3688C51.6692 87.1613 51.6904 86.9461 51.7714 86.7506C51.8524 86.5551 51.9895 86.388 52.1655 86.2704C52.3414 86.1528 52.5483 86.0901 52.7599 86.0901C53.0437 86.0901 53.3159 86.2028 53.5165 86.4035C53.7172 86.6042 53.8299 86.8763 53.8299 87.1601Z" fill="#138175"/>
<path fill-rule="evenodd" clip-rule="evenodd" d="M53.8299 92.4902C53.8299 92.7018 53.7672 92.9087 53.6496 93.0846C53.532 93.2606 53.3649 93.3977 53.1694 93.4787C52.9739 93.5597 52.7588 93.5809 52.5512 93.5396C52.3436 93.4983 52.153 93.3964 52.0033 93.2468C51.8537 93.0971 51.7518 92.9065 51.7105 92.6989C51.6692 92.4914 51.6904 92.2762 51.7714 92.0807C51.8524 91.8852 51.9895 91.7181 52.1655 91.6005C52.3414 91.4829 52.5483 91.4202 52.7599 91.4202C53.0437 91.4202 53.3159 91.5329 53.5165 91.7336C53.7172 91.9342 53.8299 92.2064 53.8299 92.4902Z" fill="#138175"/>
<path fill-rule="evenodd" clip-rule="evenodd" d="M53.8299 97.84C53.8299 98.0516 53.7672 98.2585 53.6496 98.4345C53.532 98.6104 53.3649 98.7476 53.1694 98.8286C52.9739 98.9096 52.7588 98.9308 52.5512 98.8895C52.3436 98.8482 52.153 98.7463 52.0033 98.5966C51.8537 98.447 51.7518 98.2563 51.7105 98.0488C51.6692 97.8412 51.6904 97.6261 51.7714 97.4305C51.8524 97.235 51.9895 97.0679 52.1655 96.9503C52.3414 96.8328 52.5483 96.77 52.7599 96.77C53.0437 96.77 53.3159 96.8828 53.5165 97.0834C53.7172 97.2841 53.8299 97.5562 53.8299 97.84Z" fill="#138175"/>
<path fill-rule="evenodd" clip-rule="evenodd" d="M53.8301 103.16C53.8441 103.374 53.7935 103.587 53.6848 103.772C53.5761 103.957 53.4143 104.105 53.2204 104.197C53.0265 104.289 52.8095 104.32 52.5976 104.287C52.3856 104.254 52.1885 104.158 52.0318 104.012C51.8751 103.865 51.766 103.675 51.7187 103.466C51.6714 103.257 51.6881 103.038 51.7666 102.838C51.8451 102.639 51.9819 102.467 52.159 102.346C52.3362 102.225 52.5456 102.16 52.7601 102.16C53.0328 102.157 53.2963 102.259 53.4956 102.445C53.6949 102.632 53.8147 102.888 53.8301 103.16Z" fill="#138175"/>
<path fill-rule="evenodd" clip-rule="evenodd" d="M53.8299 108.53C53.8299 108.742 53.7672 108.948 53.6496 109.124C53.532 109.3 53.3649 109.438 53.1694 109.519C52.9739 109.599 52.7588 109.621 52.5512 109.579C52.3436 109.538 52.153 109.436 52.0033 109.287C51.8537 109.137 51.7518 108.946 51.7105 108.739C51.6692 108.531 51.6904 108.316 51.7714 108.12C51.8524 107.925 51.9895 107.758 52.1655 107.64C52.3414 107.523 52.5483 107.46 52.7599 107.46C53.0437 107.46 53.3159 107.573 53.5165 107.773C53.7172 107.974 53.8299 108.246 53.8299 108.53Z" fill="#138175"/>
<path fill-rule="evenodd" clip-rule="evenodd" d="M53.8299 113.88C53.8299 114.092 53.7672 114.299 53.6496 114.475C53.532 114.65 53.3649 114.788 53.1694 114.869C52.9739 114.95 52.7588 114.971 52.5512 114.93C52.3436 114.888 52.153 114.786 52.0033 114.637C51.8537 114.487 51.7518 114.296 51.7105 114.089C51.6692 113.881 51.6904 113.666 51.7714 113.471C51.8524 113.275 51.9895 113.108 52.1655 112.99C52.3414 112.873 52.5483 112.81 52.7599 112.81C53.0437 112.81 53.3159 112.923 53.5165 113.123C53.7172 113.324 53.8299 113.596 53.8299 113.88Z" fill="#138175"/>
<path fill-rule="evenodd" clip-rule="evenodd" d="M53.8299 119.22C53.8319 119.432 53.7708 119.64 53.6544 119.817C53.5381 119.995 53.3717 120.133 53.1763 120.216C52.981 120.298 52.7656 120.321 52.5573 120.281C52.3491 120.241 52.1575 120.14 52.0069 119.99C51.8563 119.841 51.7533 119.65 51.7112 119.443C51.6691 119.235 51.6897 119.019 51.7704 118.823C51.8511 118.627 51.9882 118.459 52.1644 118.341C52.3406 118.223 52.5478 118.16 52.7599 118.16C53.042 118.16 53.3126 118.271 53.513 118.47C53.7134 118.669 53.8273 118.938 53.8299 119.22Z" fill="#138175"/>
<path fill-rule="evenodd" clip-rule="evenodd" d="M53.8299 124.57C53.8299 124.782 53.7672 124.988 53.6496 125.164C53.532 125.34 53.3649 125.478 53.1694 125.559C52.9739 125.64 52.7588 125.661 52.5512 125.619C52.3436 125.578 52.153 125.476 52.0033 125.327C51.8537 125.177 51.7518 124.986 51.7105 124.779C51.6692 124.571 51.6904 124.356 51.7714 124.161C51.8524 123.965 51.9895 123.798 52.1655 123.68C52.3414 123.563 52.5483 123.5 52.7599 123.5C53.0437 123.5 53.3159 123.613 53.5165 123.813C53.7172 124.014 53.8299 124.286 53.8299 124.57Z" fill="#138175"/>
<path fill-rule="evenodd" clip-rule="evenodd" d="M53.8299 129.92C53.8299 130.132 53.7672 130.339 53.6496 130.515C53.532 130.691 53.3649 130.828 53.1694 130.909C52.9739 130.99 52.7588 131.011 52.5512 130.97C52.3436 130.928 52.153 130.826 52.0033 130.677C51.8537 130.527 51.7518 130.336 51.7105 130.129C51.6692 129.921 51.6904 129.706 51.7714 129.511C51.8524 129.315 51.9895 129.148 52.1655 129.03C52.3414 128.913 52.5483 128.85 52.7599 128.85C53.0437 128.85 53.3159 128.963 53.5165 129.163C53.7172 129.364 53.8299 129.636 53.8299 129.92Z" fill="#138175"/>
<path fill-rule="evenodd" clip-rule="evenodd" d="M53.83 135.26C53.8241 135.47 53.7564 135.674 53.6353 135.846C53.5142 136.018 53.3451 136.15 53.1491 136.227C52.9532 136.303 52.739 136.32 52.5335 136.276C52.3279 136.231 52.1401 136.127 51.9934 135.976C51.8468 135.825 51.7478 135.635 51.7089 135.428C51.67 135.221 51.6929 135.008 51.7746 134.814C51.8564 134.62 51.9935 134.455 52.1688 134.338C52.344 134.222 52.5497 134.16 52.76 134.16C52.9035 134.159 53.0458 134.186 53.1782 134.241C53.3107 134.296 53.4305 134.378 53.5306 134.481C53.6306 134.584 53.7088 134.706 53.7602 134.84C53.8117 134.974 53.8354 135.117 53.83 135.26Z" fill="#138175"/>
<path fill-rule="evenodd" clip-rule="evenodd" d="M53.8299 140.61C53.8299 140.822 53.7672 141.029 53.6496 141.204C53.532 141.38 53.3649 141.518 53.1694 141.599C52.9739 141.68 52.7588 141.701 52.5512 141.659C52.3436 141.618 52.153 141.516 52.0033 141.367C51.8537 141.217 51.7518 141.026 51.7105 140.819C51.6692 140.611 51.6904 140.396 51.7714 140.201C51.8524 140.005 51.9895 139.838 52.1655 139.72C52.3414 139.603 52.5483 139.54 52.7599 139.54C53.0437 139.54 53.3159 139.653 53.5165 139.853C53.7172 140.054 53.8299 140.326 53.8299 140.61Z" fill="#138175"/>
<path fill-rule="evenodd" clip-rule="evenodd" d="M48.4901 55.0701C48.4901 55.2817 48.4273 55.4885 48.3098 55.6645C48.1922 55.8405 48.0251 55.9776 47.8296 56.0586C47.6341 56.1396 47.4189 56.1608 47.2114 56.1195C47.0038 56.0782 46.8131 55.9763 46.6635 55.8267C46.5139 55.677 46.4119 55.4864 46.3707 55.2788C46.3294 55.0712 46.3506 54.8561 46.4315 54.6606C46.5125 54.4651 46.6497 54.2979 46.8256 54.1804C47.0016 54.0628 47.2085 54 47.4201 54C47.561 53.9987 47.7007 54.0255 47.8311 54.0788C47.9616 54.1321 48.0801 54.2108 48.1797 54.3105C48.2793 54.4101 48.3581 54.5286 48.4114 54.659C48.4647 54.7894 48.4914 54.9292 48.4901 55.0701Z" fill="#138175"/>
<path fill-rule="evenodd" clip-rule="evenodd" d="M48.4901 60.4101C48.4901 60.6217 48.4273 60.8286 48.3098 61.0046C48.1922 61.1805 48.0251 61.3177 47.8296 61.3987C47.6341 61.4796 47.4189 61.5008 47.2114 61.4595C47.0038 61.4182 46.8131 61.3163 46.6635 61.1667C46.5139 61.0171 46.4119 60.8264 46.3707 60.6188C46.3294 60.4113 46.3506 60.1961 46.4315 60.0006C46.5125 59.8051 46.6497 59.638 46.8256 59.5204C47.0016 59.4028 47.2085 59.3401 47.4201 59.3401C47.7039 59.3401 47.976 59.4528 48.1767 59.6535C48.3774 59.8542 48.4901 60.1263 48.4901 60.4101Z" fill="#138175"/>
<path fill-rule="evenodd" clip-rule="evenodd" d="M48.4901 65.7602C48.4901 65.9718 48.4273 66.1787 48.3098 66.3546C48.1922 66.5306 48.0251 66.6677 47.8296 66.7487C47.6341 66.8297 47.4189 66.8509 47.2114 66.8096C47.0038 66.7683 46.8131 66.6664 46.6635 66.5168C46.5139 66.3671 46.4119 66.1765 46.3707 65.9689C46.3294 65.7614 46.3506 65.5462 46.4315 65.3507C46.5125 65.1552 46.6497 64.9881 46.8256 64.8705C47.0016 64.7529 47.2085 64.6902 47.4201 64.6902C47.7039 64.6902 47.976 64.8029 48.1767 65.0036C48.3774 65.2042 48.4901 65.4764 48.4901 65.7602Z" fill="#138175"/>
<path fill-rule="evenodd" clip-rule="evenodd" d="M48.4901 71.1601C48.4901 71.3718 48.4273 71.5786 48.3098 71.7546C48.1922 71.9306 48.0251 72.0677 47.8296 72.1487C47.6341 72.2297 47.4189 72.2509 47.2114 72.2096C47.0038 72.1683 46.8131 72.0664 46.6635 71.9167C46.5139 71.7671 46.4119 71.5764 46.3707 71.3689C46.3294 71.1613 46.3506 70.9462 46.4315 70.7507C46.5125 70.5552 46.6497 70.388 46.8256 70.2705C47.0016 70.1529 47.2085 70.0901 47.4201 70.0901C47.561 70.0888 47.7007 70.1156 47.8311 70.1689C47.9616 70.2222 48.0801 70.3009 48.1797 70.4006C48.2793 70.5002 48.3581 70.6187 48.4114 70.7491C48.4647 70.8795 48.4914 71.0193 48.4901 71.1601Z" fill="#138175"/>
<path fill-rule="evenodd" clip-rule="evenodd" d="M48.4901 76.4501C48.4901 76.6617 48.4273 76.8686 48.3098 77.0446C48.1922 77.2205 48.0251 77.3577 47.8296 77.4387C47.6341 77.5197 47.4189 77.5409 47.2114 77.4996C47.0038 77.4583 46.8131 77.3564 46.6635 77.2067C46.5139 77.0571 46.4119 76.8664 46.3707 76.6589C46.3294 76.4513 46.3506 76.2362 46.4315 76.0406C46.5125 75.8451 46.6497 75.678 46.8256 75.5605C47.0016 75.4429 47.2085 75.3801 47.4201 75.3801C47.7039 75.3801 47.976 75.4929 48.1767 75.6935C48.3774 75.8942 48.4901 76.1663 48.4901 76.4501Z" fill="#138175"/>
<path fill-rule="evenodd" clip-rule="evenodd" d="M48.4901 81.8C48.4901 82.0116 48.4273 82.2185 48.3098 82.3944C48.1922 82.5704 48.0251 82.7075 47.8296 82.7885C47.6341 82.8695 47.4189 82.8907 47.2114 82.8494C47.0038 82.8081 46.8131 82.7062 46.6635 82.5566C46.5139 82.4069 46.4119 82.2163 46.3707 82.0087C46.3294 81.8012 46.3506 81.586 46.4315 81.3905C46.5125 81.195 46.6497 81.0279 46.8256 80.9103C47.0016 80.7927 47.2085 80.73 47.4201 80.73C47.7039 80.73 47.976 80.8427 48.1767 81.0434C48.3774 81.244 48.4901 81.5162 48.4901 81.8Z" fill="#138175"/>
<path fill-rule="evenodd" clip-rule="evenodd" d="M48.4901 87.1601C48.4901 87.3717 48.4273 87.5786 48.3098 87.7546C48.1922 87.9305 48.0251 88.0677 47.8296 88.1487C47.6341 88.2296 47.4189 88.2508 47.2114 88.2095C47.0038 88.1682 46.8131 88.0663 46.6635 87.9167C46.5139 87.7671 46.4119 87.5764 46.3707 87.3688C46.3294 87.1613 46.3506 86.9461 46.4315 86.7506C46.5125 86.5551 46.6497 86.388 46.8256 86.2704C47.0016 86.1528 47.2085 86.0901 47.4201 86.0901C47.7039 86.0901 47.976 86.2028 48.1767 86.4035C48.3774 86.6042 48.4901 86.8763 48.4901 87.1601Z" fill="#138175"/>
<path fill-rule="evenodd" clip-rule="evenodd" d="M48.4901 92.4902C48.4901 92.7018 48.4273 92.9087 48.3098 93.0846C48.1922 93.2606 48.0251 93.3977 47.8296 93.4787C47.6341 93.5597 47.4189 93.5809 47.2114 93.5396C47.0038 93.4983 46.8131 93.3964 46.6635 93.2468C46.5139 93.0971 46.4119 92.9065 46.3707 92.6989C46.3294 92.4914 46.3506 92.2762 46.4315 92.0807C46.5125 91.8852 46.6497 91.7181 46.8256 91.6005C47.0016 91.4829 47.2085 91.4202 47.4201 91.4202C47.7039 91.4202 47.976 91.5329 48.1767 91.7336C48.3774 91.9342 48.4901 92.2064 48.4901 92.4902Z" fill="#138175"/>
<path fill-rule="evenodd" clip-rule="evenodd" d="M48.4901 97.84C48.4901 98.0516 48.4273 98.2585 48.3098 98.4345C48.1922 98.6104 48.0251 98.7476 47.8296 98.8286C47.6341 98.9096 47.4189 98.9308 47.2114 98.8895C47.0038 98.8482 46.8131 98.7463 46.6635 98.5966C46.5139 98.447 46.4119 98.2563 46.3707 98.0488C46.3294 97.8412 46.3506 97.6261 46.4315 97.4305C46.5125 97.235 46.6497 97.0679 46.8256 96.9503C47.0016 96.8328 47.2085 96.77 47.4201 96.77C47.7039 96.77 47.976 96.8828 48.1767 97.0834C48.3774 97.2841 48.4901 97.5562 48.4901 97.84Z" fill="#138175"/>
<path fill-rule="evenodd" clip-rule="evenodd" d="M48.49 103.16C48.504 103.374 48.4534 103.587 48.3447 103.772C48.236 103.957 48.0742 104.105 47.8803 104.197C47.6864 104.289 47.4695 104.32 47.2575 104.287C47.0455 104.254 46.8484 104.158 46.6917 104.012C46.535 103.865 46.4259 103.675 46.3786 103.466C46.3313 103.257 46.348 103.038 46.4265 102.838C46.5051 102.639 46.6418 102.467 46.8189 102.346C46.9961 102.225 47.2055 102.16 47.42 102.16C47.6928 102.157 47.9562 102.259 48.1555 102.445C48.3548 102.632 48.4746 102.888 48.49 103.16Z" fill="#138175"/>
<path fill-rule="evenodd" clip-rule="evenodd" d="M48.4901 108.53C48.4901 108.742 48.4273 108.948 48.3098 109.124C48.1922 109.3 48.0251 109.438 47.8296 109.519C47.6341 109.599 47.4189 109.621 47.2114 109.579C47.0038 109.538 46.8131 109.436 46.6635 109.287C46.5139 109.137 46.4119 108.946 46.3707 108.739C46.3294 108.531 46.3506 108.316 46.4315 108.12C46.5125 107.925 46.6497 107.758 46.8256 107.64C47.0016 107.523 47.2085 107.46 47.4201 107.46C47.7039 107.46 47.976 107.573 48.1767 107.773C48.3774 107.974 48.4901 108.246 48.4901 108.53Z" fill="#138175"/>
<path fill-rule="evenodd" clip-rule="evenodd" d="M48.4901 113.88C48.4901 114.092 48.4273 114.299 48.3098 114.475C48.1922 114.65 48.0251 114.788 47.8296 114.869C47.6341 114.95 47.4189 114.971 47.2114 114.93C47.0038 114.888 46.8131 114.786 46.6635 114.637C46.5139 114.487 46.4119 114.296 46.3707 114.089C46.3294 113.881 46.3506 113.666 46.4315 113.471C46.5125 113.275 46.6497 113.108 46.8256 112.99C47.0016 112.873 47.2085 112.81 47.4201 112.81C47.7039 112.81 47.976 112.923 48.1767 113.123C48.3774 113.324 48.4901 113.596 48.4901 113.88Z" fill="#138175"/>
<path fill-rule="evenodd" clip-rule="evenodd" d="M48.4901 119.22C48.492 119.432 48.431 119.64 48.3146 119.817C48.1982 119.995 48.0318 120.133 47.8365 120.216C47.6412 120.298 47.4257 120.321 47.2175 120.281C47.0093 120.241 46.8177 120.14 46.6671 119.99C46.5164 119.841 46.4135 119.65 46.3714 119.443C46.3293 119.235 46.3499 119.019 46.4306 118.823C46.5113 118.627 46.6484 118.459 46.8246 118.341C47.0007 118.223 47.208 118.16 47.4201 118.16C47.7021 118.16 47.9728 118.271 48.1731 118.47C48.3735 118.669 48.4874 118.938 48.4901 119.22Z" fill="#138175"/>
<path fill-rule="evenodd" clip-rule="evenodd" d="M48.4901 124.57C48.4901 124.782 48.4273 124.988 48.3098 125.164C48.1922 125.34 48.0251 125.478 47.8296 125.559C47.6341 125.64 47.4189 125.661 47.2114 125.619C47.0038 125.578 46.8131 125.476 46.6635 125.327C46.5139 125.177 46.4119 124.986 46.3707 124.779C46.3294 124.571 46.3506 124.356 46.4315 124.161C46.5125 123.965 46.6497 123.798 46.8256 123.68C47.0016 123.563 47.2085 123.5 47.4201 123.5C47.7039 123.5 47.976 123.613 48.1767 123.813C48.3774 124.014 48.4901 124.286 48.4901 124.57Z" fill="#138175"/>
<path fill-rule="evenodd" clip-rule="evenodd" d="M48.4901 129.92C48.4901 130.132 48.4273 130.339 48.3098 130.515C48.1922 130.691 48.0251 130.828 47.8296 130.909C47.6341 130.99 47.4189 131.011 47.2114 130.97C47.0038 130.928 46.8131 130.826 46.6635 130.677C46.5139 130.527 46.4119 130.336 46.3707 130.129C46.3294 129.921 46.3506 129.706 46.4315 129.511C46.5125 129.315 46.6497 129.148 46.8256 129.03C47.0016 128.913 47.2085 128.85 47.4201 128.85C47.7039 128.85 47.976 128.963 48.1767 129.163C48.3774 129.364 48.4901 129.636 48.4901 129.92Z" fill="#138175"/>
<path fill-rule="evenodd" clip-rule="evenodd" d="M48.4899 135.26C48.484 135.47 48.4163 135.674 48.2952 135.846C48.1741 136.018 48.005 136.15 47.809 136.227C47.6131 136.303 47.3989 136.32 47.1934 136.276C46.9878 136.231 46.8 136.127 46.6533 135.976C46.5067 135.825 46.4077 135.635 46.3688 135.428C46.3299 135.221 46.3528 135.008 46.4346 134.814C46.5164 134.62 46.6534 134.455 46.8287 134.338C47.0039 134.222 47.2096 134.16 47.4199 134.16C47.5634 134.159 47.7057 134.186 47.8381 134.241C47.9706 134.296 48.0905 134.378 48.1905 134.481C48.2905 134.584 48.3687 134.706 48.4201 134.84C48.4716 134.974 48.4953 135.117 48.4899 135.26Z" fill="#138175"/>
<path fill-rule="evenodd" clip-rule="evenodd" d="M48.4901 140.61C48.4901 140.822 48.4273 141.029 48.3098 141.204C48.1922 141.38 48.0251 141.518 47.8296 141.599C47.6341 141.68 47.4189 141.701 47.2114 141.659C47.0038 141.618 46.8131 141.516 46.6635 141.367C46.5139 141.217 46.4119 141.026 46.3707 140.819C46.3294 140.611 46.3506 140.396 46.4315 140.201C46.5125 140.005 46.6497 139.838 46.8256 139.72C47.0016 139.603 47.2085 139.54 47.4201 139.54C47.7039 139.54 47.976 139.653 48.1767 139.853C48.3774 140.054 48.4901 140.326 48.4901 140.61Z" fill="#138175"/>
<path fill-rule="evenodd" clip-rule="evenodd" d="M43.14 55.0701C43.14 55.2817 43.0772 55.4885 42.9597 55.6645C42.8421 55.8405 42.675 55.9776 42.4795 56.0586C42.284 56.1396 42.0688 56.1608 41.8613 56.1195C41.6537 56.0782 41.463 55.9763 41.3134 55.8267C41.1638 55.677 41.0618 55.4864 41.0206 55.2788C40.9793 55.0712 41.0005 54.8561 41.0814 54.6606C41.1624 54.4651 41.2996 54.2979 41.4755 54.1804C41.6515 54.0628 41.8584 54 42.07 54C42.2109 53.9987 42.3506 54.0255 42.481 54.0788C42.6115 54.1321 42.73 54.2108 42.8296 54.3105C42.9292 54.4101 43.008 54.5286 43.0613 54.659C43.1146 54.7894 43.1413 54.9292 43.14 55.0701Z" fill="#138175"/>
<path fill-rule="evenodd" clip-rule="evenodd" d="M43.14 60.4101C43.14 60.6217 43.0772 60.8286 42.9597 61.0046C42.8421 61.1805 42.675 61.3177 42.4795 61.3987C42.284 61.4796 42.0688 61.5008 41.8613 61.4595C41.6537 61.4182 41.463 61.3163 41.3134 61.1667C41.1638 61.0171 41.0618 60.8264 41.0206 60.6188C40.9793 60.4113 41.0005 60.1961 41.0814 60.0006C41.1624 59.8051 41.2996 59.638 41.4755 59.5204C41.6515 59.4028 41.8584 59.3401 42.07 59.3401C42.3538 59.3401 42.6259 59.4528 42.8266 59.6535C43.0273 59.8542 43.14 60.1263 43.14 60.4101Z" fill="#138175"/>
<path fill-rule="evenodd" clip-rule="evenodd" d="M43.14 65.7602C43.14 65.9718 43.0772 66.1787 42.9597 66.3546C42.8421 66.5306 42.675 66.6677 42.4795 66.7487C42.284 66.8297 42.0688 66.8509 41.8613 66.8096C41.6537 66.7683 41.463 66.6664 41.3134 66.5168C41.1638 66.3671 41.0618 66.1765 41.0206 65.9689C40.9793 65.7614 41.0005 65.5462 41.0814 65.3507C41.1624 65.1552 41.2996 64.9881 41.4755 64.8705C41.6515 64.7529 41.8584 64.6902 42.07 64.6902C42.3538 64.6902 42.6259 64.8029 42.8266 65.0036C43.0273 65.2042 43.14 65.4764 43.14 65.7602Z" fill="#138175"/>
<path fill-rule="evenodd" clip-rule="evenodd" d="M43.14 71.1601C43.14 71.3718 43.0772 71.5786 42.9597 71.7546C42.8421 71.9306 42.675 72.0677 42.4795 72.1487C42.284 72.2297 42.0688 72.2509 41.8613 72.2096C41.6537 72.1683 41.463 72.0664 41.3134 71.9167C41.1638 71.7671 41.0618 71.5764 41.0206 71.3689C40.9793 71.1613 41.0005 70.9462 41.0814 70.7507C41.1624 70.5552 41.2996 70.388 41.4755 70.2705C41.6515 70.1529 41.8584 70.0901 42.07 70.0901C42.2109 70.0888 42.3506 70.1156 42.481 70.1689C42.6115 70.2222 42.73 70.3009 42.8296 70.4006C42.9292 70.5002 43.008 70.6187 43.0613 70.7491C43.1146 70.8795 43.1413 71.0193 43.14 71.1601Z" fill="#138175"/>
<path fill-rule="evenodd" clip-rule="evenodd" d="M43.14 76.4501C43.14 76.6617 43.0772 76.8686 42.9597 77.0446C42.8421 77.2205 42.675 77.3577 42.4795 77.4387C42.284 77.5197 42.0688 77.5409 41.8613 77.4996C41.6537 77.4583 41.463 77.3564 41.3134 77.2067C41.1638 77.0571 41.0618 76.8664 41.0206 76.6589C40.9793 76.4513 41.0005 76.2362 41.0814 76.0406C41.1624 75.8451 41.2996 75.678 41.4755 75.5605C41.6515 75.4429 41.8584 75.3801 42.07 75.3801C42.3538 75.3801 42.6259 75.4929 42.8266 75.6935C43.0273 75.8942 43.14 76.1663 43.14 76.4501Z" fill="#138175"/>
<path fill-rule="evenodd" clip-rule="evenodd" d="M43.14 81.8C43.14 82.0116 43.0772 82.2185 42.9597 82.3944C42.8421 82.5704 42.675 82.7075 42.4795 82.7885C42.284 82.8695 42.0688 82.8907 41.8613 82.8494C41.6537 82.8081 41.463 82.7062 41.3134 82.5566C41.1638 82.4069 41.0618 82.2163 41.0206 82.0087C40.9793 81.8012 41.0005 81.586 41.0814 81.3905C41.1624 81.195 41.2996 81.0279 41.4755 80.9103C41.6515 80.7927 41.8584 80.73 42.07 80.73C42.3538 80.73 42.6259 80.8427 42.8266 81.0434C43.0273 81.244 43.14 81.5162 43.14 81.8Z" fill="#138175"/>
<path fill-rule="evenodd" clip-rule="evenodd" d="M43.14 87.1601C43.14 87.3717 43.0772 87.5786 42.9597 87.7546C42.8421 87.9305 42.675 88.0677 42.4795 88.1487C42.284 88.2296 42.0688 88.2508 41.8613 88.2095C41.6537 88.1682 41.463 88.0663 41.3134 87.9167C41.1638 87.7671 41.0618 87.5764 41.0206 87.3688C40.9793 87.1613 41.0005 86.9461 41.0814 86.7506C41.1624 86.5551 41.2996 86.388 41.4755 86.2704C41.6515 86.1528 41.8584 86.0901 42.07 86.0901C42.3538 86.0901 42.6259 86.2028 42.8266 86.4035C43.0273 86.6042 43.14 86.8763 43.14 87.1601Z" fill="#138175"/>
<path fill-rule="evenodd" clip-rule="evenodd" d="M43.14 92.4902C43.14 92.7018 43.0772 92.9087 42.9597 93.0846C42.8421 93.2606 42.675 93.3977 42.4795 93.4787C42.284 93.5597 42.0688 93.5809 41.8613 93.5396C41.6537 93.4983 41.463 93.3964 41.3134 93.2468C41.1638 93.0971 41.0618 92.9065 41.0206 92.6989C40.9793 92.4914 41.0005 92.2762 41.0814 92.0807C41.1624 91.8852 41.2996 91.7181 41.4755 91.6005C41.6515 91.4829 41.8584 91.4202 42.07 91.4202C42.3538 91.4202 42.6259 91.5329 42.8266 91.7336C43.0273 91.9342 43.14 92.2064 43.14 92.4902Z" fill="#138175"/>
<path fill-rule="evenodd" clip-rule="evenodd" d="M43.14 97.84C43.14 98.0516 43.0772 98.2585 42.9597 98.4345C42.8421 98.6104 42.675 98.7476 42.4795 98.8286C42.284 98.9096 42.0688 98.9308 41.8613 98.8895C41.6537 98.8482 41.463 98.7463 41.3134 98.5966C41.1638 98.447 41.0618 98.2563 41.0206 98.0488C40.9793 97.8412 41.0005 97.6261 41.0814 97.4305C41.1624 97.235 41.2996 97.0679 41.4755 96.9503C41.6515 96.8328 41.8584 96.77 42.07 96.77C42.3538 96.77 42.6259 96.8828 42.8266 97.0834C43.0273 97.2841 43.14 97.5562 43.14 97.84Z" fill="#138175"/>
<path fill-rule="evenodd" clip-rule="evenodd" d="M43.1399 103.16C43.1539 103.374 43.1033 103.587 42.9946 103.772C42.8859 103.957 42.7241 104.105 42.5302 104.197C42.3363 104.289 42.1194 104.32 41.9074 104.287C41.6954 104.254 41.4983 104.158 41.3416 104.012C41.1849 103.865 41.0758 103.675 41.0285 103.466C40.9812 103.257 40.9979 103.038 41.0764 102.838C41.155 102.639 41.2917 102.467 41.4688 102.346C41.646 102.225 41.8554 102.16 42.0699 102.16C42.3427 102.157 42.6061 102.259 42.8054 102.445C43.0047 102.632 43.1245 102.888 43.1399 103.16Z" fill="#138175"/>
<path fill-rule="evenodd" clip-rule="evenodd" d="M43.14 108.53C43.14 108.742 43.0772 108.948 42.9597 109.124C42.8421 109.3 42.675 109.438 42.4795 109.519C42.284 109.599 42.0688 109.621 41.8613 109.579C41.6537 109.538 41.463 109.436 41.3134 109.287C41.1638 109.137 41.0618 108.946 41.0206 108.739C40.9793 108.531 41.0005 108.316 41.0814 108.12C41.1624 107.925 41.2996 107.758 41.4755 107.64C41.6515 107.523 41.8584 107.46 42.07 107.46C42.3538 107.46 42.6259 107.573 42.8266 107.773C43.0273 107.974 43.14 108.246 43.14 108.53Z" fill="#138175"/>
<path fill-rule="evenodd" clip-rule="evenodd" d="M43.14 113.88C43.14 114.092 43.0772 114.299 42.9597 114.475C42.8421 114.65 42.675 114.788 42.4795 114.869C42.284 114.95 42.0688 114.971 41.8613 114.93C41.6537 114.888 41.463 114.786 41.3134 114.637C41.1638 114.487 41.0618 114.296 41.0206 114.089C40.9793 113.881 41.0005 113.666 41.0814 113.471C41.1624 113.275 41.2996 113.108 41.4755 112.99C41.6515 112.873 41.8584 112.81 42.07 112.81C42.3538 112.81 42.6259 112.923 42.8266 113.123C43.0273 113.324 43.14 113.596 43.14 113.88Z" fill="#138175"/>
<path fill-rule="evenodd" clip-rule="evenodd" d="M43.14 119.22C43.1419 119.432 43.0809 119.64 42.9645 119.817C42.8481 119.995 42.6817 120.133 42.4864 120.216C42.2911 120.298 42.0756 120.321 41.8674 120.281C41.6592 120.241 41.4676 120.14 41.317 119.99C41.1663 119.841 41.0634 119.65 41.0213 119.443C40.9792 119.235 40.9998 119.019 41.0805 118.823C41.1612 118.627 41.2983 118.459 41.4745 118.341C41.6506 118.223 41.8579 118.16 42.07 118.16C42.352 118.16 42.6227 118.271 42.823 118.47C43.0234 118.669 43.1373 118.938 43.14 119.22Z" fill="#138175"/>
<path fill-rule="evenodd" clip-rule="evenodd" d="M43.14 124.57C43.14 124.782 43.0772 124.988 42.9597 125.164C42.8421 125.34 42.675 125.478 42.4795 125.559C42.284 125.64 42.0688 125.661 41.8613 125.619C41.6537 125.578 41.463 125.476 41.3134 125.327C41.1638 125.177 41.0618 124.986 41.0206 124.779C40.9793 124.571 41.0005 124.356 41.0814 124.161C41.1624 123.965 41.2996 123.798 41.4755 123.68C41.6515 123.563 41.8584 123.5 42.07 123.5C42.3538 123.5 42.6259 123.613 42.8266 123.813C43.0273 124.014 43.14 124.286 43.14 124.57Z" fill="#138175"/>
<path fill-rule="evenodd" clip-rule="evenodd" d="M43.14 129.92C43.14 130.132 43.0772 130.339 42.9597 130.515C42.8421 130.691 42.675 130.828 42.4795 130.909C42.284 130.99 42.0688 131.011 41.8613 130.97C41.6537 130.928 41.463 130.826 41.3134 130.677C41.1638 130.527 41.0618 130.336 41.0206 130.129C40.9793 129.921 41.0005 129.706 41.0814 129.511C41.1624 129.315 41.2996 129.148 41.4755 129.03C41.6515 128.913 41.8584 128.85 42.07 128.85C42.3538 128.85 42.6259 128.963 42.8266 129.163C43.0273 129.364 43.14 129.636 43.14 129.92Z" fill="#138175"/>
<path fill-rule="evenodd" clip-rule="evenodd" d="M43.1401 135.26C43.1342 135.47 43.0664 135.674 42.9453 135.846C42.8242 136.018 42.6551 136.15 42.4592 136.227C42.2632 136.303 42.0491 136.32 41.8435 136.276C41.638 136.231 41.4502 136.127 41.3035 135.976C41.1568 135.825 41.0579 135.635 41.019 135.428C40.98 135.221 41.0029 135.008 41.0847 134.814C41.1665 134.62 41.3036 134.455 41.4788 134.338C41.6541 134.222 41.8597 134.16 42.0701 134.16C42.2135 134.159 42.3558 134.186 42.4883 134.241C42.6207 134.296 42.7406 134.378 42.8406 134.481C42.9407 134.584 43.0188 134.706 43.0703 134.84C43.1217 134.974 43.1455 135.117 43.1401 135.26Z" fill="#138175"/>
<path fill-rule="evenodd" clip-rule="evenodd" d="M43.14 140.61C43.14 140.822 43.0772 141.029 42.9597 141.204C42.8421 141.38 42.675 141.518 42.4795 141.599C42.284 141.68 42.0688 141.701 41.8613 141.659C41.6537 141.618 41.463 141.516 41.3134 141.367C41.1638 141.217 41.0618 141.026 41.0206 140.819C40.9793 140.611 41.0005 140.396 41.0814 140.201C41.1624 140.005 41.2996 139.838 41.4755 139.72C41.6515 139.603 41.8584 139.54 42.07 139.54C42.3538 139.54 42.6259 139.653 42.8266 139.853C43.0273 140.054 43.14 140.326 43.14 140.61Z" fill="#138175"/>
</g>
</svg>
