<svg width="385" height="527" viewBox="0 0 385 527" fill="none" xmlns="http://www.w3.org/2000/svg">
<g style="mix-blend-mode:multiply" opacity="0.1">
<path d="M53.509 422.824C56.0713 423.941 58.7676 423.733 61.5086 423.733H464.781C467.76 423.733 471.529 424.373 474.255 422.884C475.462 422.228 473.421 420.753 472.512 421.245C469.786 422.735 465.064 421.915 462.085 421.915H60.8532C58.6485 421.915 56.2352 422.213 54.1496 421.319C52.6599 420.679 52.0492 422.183 53.509 422.809V422.824Z" fill="#65A4C5"/>
<path d="M465.975 429.885C463.174 431.136 459.778 430.645 456.784 430.645H71.5067C68.0208 430.645 63.2985 431.419 60.0361 430.138C60.349 430.258 61.064 431.628 61.7493 431.971C64.1775 432.924 67.1717 432.477 69.7191 432.477H457.067C460.508 432.477 464.619 433.148 467.822 431.717C467.822 431.717 466.452 429.677 465.975 429.885Z" fill="#65A4C5"/>
<path d="M67.2749 440.524C69.7478 441.611 72.5186 441.283 75.1702 441.283H451.554C454.073 441.515 456.612 441.205 459.002 440.375C459.553 440.136 461.296 438.528 459.807 439.183C456.827 440.494 452.656 439.809 449.379 439.809H79.2817C76.064 439.809 72.3398 440.36 69.3157 439.049C68.7348 438.796 66.9322 440.375 67.2749 440.539V440.524Z" fill="#65A4C5"/>
<path d="M75.8271 448.015C78.2255 449.058 80.7878 448.819 83.2755 448.819H444.226C447.205 448.819 450.453 449.251 453.253 448.03C453.641 447.866 452.3 445.721 451.615 446.019C448.784 447.24 445.313 446.749 442.304 446.749H85.5696C82.1583 446.749 77.9127 447.404 74.7396 446.033C74.0693 445.75 75.2461 447.791 75.8271 448.045V448.015Z" fill="#65A4C5"/>
<path d="M82.5137 455.838C86.7146 457.506 91.8391 456.717 96.2486 456.717H428.195C433.781 456.717 439.442 457.238 444.879 455.808C445.937 455.525 443.39 455.45 443.017 455.57C440.078 456.165 437.073 456.375 434.079 456.195H97.4254C93.6118 456.195 88.4873 456.97 85.0014 455.555C84.3162 455.287 82.6626 455.897 82.5137 455.838Z" fill="#65A4C5"/>
<path d="M93.7316 465.402C97.9623 467.264 103.489 466.325 108.003 466.325H427.302C429.648 466.543 432.015 466.258 434.243 465.491C435.733 464.865 433.663 463.554 432.754 464.001C430.206 465.118 427.153 464.686 424.426 464.686H104.562C101.582 464.686 97.6048 465.327 94.7595 464.076C93.5231 463.539 92.1526 464.746 93.7465 465.431L93.7316 465.402Z" fill="#65A4C5"/>
<path d="M105.023 474.264C109.387 475.679 114.154 475.172 118.683 475.172H407.875C412.91 475.172 418.616 475.932 423.472 474.353C424.455 474.04 422.266 472.863 421.551 473.057C416.62 474.651 410.557 473.772 405.417 473.772H115.182C111.979 473.772 108.493 474.144 105.41 473.146C103.92 472.67 103.548 473.772 105.023 474.249V474.264Z" fill="#65A4C5"/>
<path d="M259.339 0.17182V313.005C259.339 313.616 260.829 315.463 260.829 314.689V1.87006C260.829 1.25929 259.339 -0.587919 259.339 0.186717V0.17182Z" fill="#65A4C5"/>
<path d="M267.562 1.09544V313.393C267.562 314.57 270.14 314.882 270.14 313.735V1.48276C270.14 0.305909 267.562 -0.00692511 267.562 1.14013V1.09544Z" fill="#65A4C5"/>
<path d="M249.954 1.05166C249.954 41.8789 249.954 82.7112 249.954 123.548C249.954 164.554 249.954 205.56 249.954 246.566C249.954 257.987 249.954 269.408 249.954 280.829V306.258C249.954 308.552 249.611 310.936 250.565 313.081C250.967 313.99 253.321 314.57 252.695 313.081C251.727 310.891 252.308 307.465 252.308 305.111V282.274C252.308 272.065 252.308 261.856 252.308 251.646C252.308 231.575 252.308 211.504 252.308 191.433C252.308 151.122 252.308 110.812 252.308 70.5007C252.308 47.6589 252.308 24.8171 252.308 1.97526C252.308 0.977171 249.954 -0.0656071 249.954 1.02186V1.05166Z" fill="#65A4C5"/>
<path d="M276.546 1.48276C276.546 41.9724 276.546 82.457 276.546 122.937C276.546 163.416 276.546 203.901 276.546 244.391C276.546 255.811 276.546 267.232 276.546 278.653C276.546 284.185 276.546 289.722 276.546 295.263C276.546 298.243 276.546 301.182 276.546 304.082V308.238C276.546 309.728 276.903 311.352 276.143 312.707C275.637 313.542 278.125 314.197 278.542 313.527C279.495 311.948 279.108 310.1 279.108 308.298C279.108 305.527 279.108 302.761 279.108 300C279.108 294.985 279.108 289.97 279.108 284.955C279.108 274.745 279.108 264.536 279.108 254.327C279.108 233.908 279.108 213.495 279.108 193.086C279.108 152.427 279.108 111.769 279.108 71.1106C279.108 48.0999 279.108 25.0893 279.108 2.07864C279.108 1.15503 276.56 0.79751 276.56 1.57215L276.546 1.48276Z" fill="#65A4C5"/>
<path d="M283.576 1.48224C284.38 3.37414 283.755 6.66634 283.755 8.7072C283.755 11.2993 283.755 13.8913 283.755 16.4834C283.755 21.449 283.755 26.4593 283.755 31.5143C283.755 41.5349 283.755 51.5555 283.755 61.5761C283.755 81.6173 283.755 101.663 283.755 121.715C283.755 161.976 283.755 202.237 283.755 242.498C283.755 253.73 283.755 264.963 283.755 276.195C283.755 281.726 283.755 287.258 283.755 292.79C283.755 295.769 283.755 298.709 283.755 301.609V305.75C283.972 307.293 283.907 308.863 283.561 310.383C283.129 311.396 285.691 311.56 286.078 310.636C286.779 308.983 286.347 306.852 286.347 305.08C286.347 302.319 286.347 299.553 286.347 296.782C286.347 291.817 286.347 286.806 286.347 281.751C286.347 271.552 286.347 261.358 286.347 251.168C286.347 230.779 286.347 210.391 286.347 190.002C286.347 149.393 286.347 108.784 286.347 68.1754C286.347 56.7743 286.347 45.3534 286.347 33.9127C286.347 28.2121 286.347 22.5116 286.347 16.8111C286.347 14.0502 286.347 11.2844 286.347 8.51355C286.347 6.18964 286.972 3.04641 286.049 0.886365C285.676 -0.00744557 283.069 0.364975 283.576 1.43755V1.48224Z" fill="#65A4C5"/>
<path d="M241.33 2.27337C240.749 12.0308 241.211 21.9372 241.211 31.7095C241.211 41.899 241.211 52.0884 241.211 62.2778C241.211 82.3091 241.211 102.345 241.211 122.387C241.211 162.628 241.211 202.849 241.211 243.051C241.211 254.452 241.211 265.873 241.211 277.314C241.211 282.845 241.211 288.372 241.211 293.894C241.211 296.873 241.211 299.808 241.211 302.698C241.211 304.843 240.63 307.554 241.777 309.446C242.15 310.057 244.623 309.446 244.176 308.672C243.133 306.929 243.758 303.636 243.758 301.67C243.758 299.078 243.758 296.486 243.758 293.894C243.758 288.928 243.758 283.918 243.758 278.863C243.758 268.842 243.758 258.827 243.758 248.816C243.758 228.785 243.758 208.749 243.758 188.707C243.758 148.814 243.758 108.915 243.758 69.0112C243.758 57.7889 243.758 46.5617 243.758 35.3295C243.758 24.1866 243.222 12.8799 243.878 1.75198C243.878 1.14121 241.375 1.39446 241.33 2.25848V2.27337Z" fill="#65A4C5"/>
<path d="M293.245 1.48242C292.664 11.2399 293.126 21.1314 293.126 30.9037C293.126 40.676 293.126 50.5824 293.126 60.4292C293.126 80.2917 293.126 100.154 293.126 120.017C293.126 159.741 293.126 199.466 293.126 239.191C293.126 250.414 293.126 261.636 293.126 272.858C293.126 278.38 293.126 283.907 293.126 289.438C293.126 292.199 293.126 294.96 293.126 297.721C293.126 300.328 293.677 303.68 292.396 306.048C292.083 306.629 293.751 308.193 293.692 308.298C294.373 306.781 294.645 305.111 294.481 303.456C294.481 300.864 294.481 298.272 294.481 295.68C294.481 290.714 294.481 285.709 294.481 280.664C294.481 270.653 294.481 260.638 294.481 250.617C294.481 230.586 294.481 210.56 294.481 190.538C294.481 150.654 294.481 110.776 294.481 70.9017C294.481 59.6794 294.481 48.4571 294.481 37.2348C294.481 26.092 293.945 14.7853 294.6 3.65736C294.6 2.95721 293.245 1.69098 293.26 1.54201L293.245 1.48242Z" fill="#65A4C5"/>
<path d="M232.391 2.77843C232.391 42.4139 232.391 82.0544 232.391 121.7C232.391 161.167 232.391 200.633 232.391 240.1C232.391 251.183 232.391 262.261 232.391 273.335C232.391 278.876 232.391 284.418 232.391 289.96V298.272C232.152 300.501 232.365 302.756 233.016 304.901C233.523 306.123 235.891 305.78 235.266 304.276C234.342 302.026 234.908 298.555 234.908 296.142V288.872C234.908 284.026 234.908 279.179 234.908 274.333C234.908 264.461 234.908 254.595 234.908 244.733C234.908 225.168 234.908 205.609 234.908 186.054C234.908 147.104 234.908 108.159 234.908 69.2183C234.908 47.2306 234.908 25.2478 234.908 3.27003C234.908 1.974 232.391 1.37813 232.391 2.80823V2.77843Z" fill="#65A4C5"/>
<path d="M301.361 3.38946C301.927 12.8192 301.48 22.3829 301.48 31.8275C301.48 41.5105 301.48 51.1984 301.48 60.8912C301.48 80.0982 301.48 99.3003 301.48 118.497C301.48 157.08 301.48 195.658 301.48 234.231C301.48 245.155 301.48 256.055 301.48 266.929C301.48 272.292 301.48 277.655 301.48 283.018C301.48 285.61 301.48 288.207 301.48 290.809C301.738 293.808 301.491 296.829 300.75 299.747C300.333 300.969 302.806 301.758 303.223 300.522C304.638 296.425 304.028 291.733 304.028 287.472C304.028 282.626 304.028 277.784 304.028 272.948C304.028 263.265 304.028 253.577 304.028 243.884C304.028 224.339 304.028 204.79 304.028 185.235C304.028 146.503 304.028 107.772 304.028 69.0398C304.028 58.1155 304.028 47.2159 304.028 36.3413C304.028 25.5262 304.549 14.5472 303.908 3.74698C303.908 2.49565 301.287 2.10833 301.361 3.49373V3.38946Z" fill="#65A4C5"/>
<path d="M115.975 482.517C120.116 483.872 124.51 483.545 128.801 483.545H399.923C403.747 483.707 407.571 483.244 411.245 482.174C412.734 481.668 410.336 482.07 409.904 482.174C406.979 482.867 403.962 483.093 400.966 482.844H134.074C128.92 482.844 123.363 483.47 118.403 481.831C117.732 481.608 116.243 482.576 115.99 482.487L115.975 482.517Z" fill="#65A4C5"/>
<path d="M224.035 2.7202C223.469 4.34989 223.271 6.08462 223.454 7.80002V15.0697C223.454 19.9161 223.454 24.7625 223.454 29.609C223.454 39.3019 223.454 48.9947 223.454 58.6876C223.454 78.0734 223.454 97.4392 223.454 116.785C223.454 155.517 223.454 194.284 223.454 233.085C223.454 243.811 223.454 254.541 223.454 265.277C223.454 270.819 223.454 276.355 223.454 281.887C223.454 284.479 223.454 287.076 223.454 289.678C223.521 291.988 223.8 294.287 224.289 296.545C224.512 297.797 226.866 298.154 226.598 296.545C226.163 294.471 225.914 292.362 225.853 290.244C225.853 287.652 225.853 285.055 225.853 282.453C225.853 277.775 225.853 273.103 225.853 268.435C225.853 258.921 225.853 249.402 225.853 239.878C225.853 220.671 225.853 201.459 225.853 182.242C225.853 144.166 225.853 106.089 225.853 68.013C225.853 57.2873 225.853 46.5566 225.853 35.821C225.853 30.4581 225.853 25.0952 225.853 19.7324V11.4795C225.853 9.11094 225.302 5.9975 226.315 3.80767C226.836 2.6904 224.602 1.43907 224.006 2.7053L224.035 2.7202Z" fill="#65A4C5"/>
<path d="M310.287 4.83383C310.287 41.8078 310.287 78.7817 310.287 115.756C310.287 152.561 310.287 189.366 310.287 226.171C310.287 236.539 310.287 246.907 310.287 257.276C310.287 262.46 310.287 267.644 310.287 272.828C310.287 277.967 311.002 283.717 309.542 288.693C309.2 289.87 311.539 290.928 311.941 289.587C313.103 285.639 312.715 281.408 312.715 277.342C312.715 272.674 312.715 268.011 312.715 263.354C312.715 254.028 312.715 244.698 312.715 235.362C312.715 216.87 312.715 198.383 312.715 179.901C312.715 142.749 312.715 105.601 312.715 68.4582C312.715 47.3742 312.715 26.2952 312.715 5.22114C312.715 3.9996 310.302 3.34414 310.302 4.84872L310.287 4.83383Z" fill="#65A4C5"/>
<path d="M216.51 5.01214C215.973 13.9502 216.39 22.9926 216.39 31.9158C216.39 41.0923 216.39 50.2687 216.39 59.4452C216.39 77.7981 216.39 96.1709 216.39 114.563C216.39 151.309 216.39 188.02 216.39 224.696C216.39 235.084 216.39 245.472 216.39 255.86C216.39 260.885 216.39 265.905 216.39 270.921C216.39 275.673 216.227 280.276 217.448 284.909C217.686 285.803 219.876 286.89 219.489 285.43C218.602 281.166 218.277 276.804 218.521 272.455C218.521 267.777 218.521 263.1 218.521 258.422C218.521 249.415 218.521 240.412 218.521 231.414C218.521 213.061 218.521 194.689 218.521 176.296C218.521 139.928 218.521 103.565 218.521 67.2064C218.521 56.9872 218.521 46.768 218.521 36.5487C218.521 26.404 218.044 16.1252 218.64 5.99533C218.64 5.08662 216.584 3.70121 216.51 4.98234V5.01214Z" fill="#65A4C5"/>
<path d="M131.821 491.693C135.238 492.481 138.75 492.772 142.249 492.557H384.144C388.613 492.557 393.246 493.048 397.551 491.797C398.385 491.558 396.24 490.382 395.614 490.575C391.637 491.737 387.302 491.305 383.205 491.305H146.524C141.683 491.305 136.097 492.02 131.479 490.635C129.766 490.128 130.793 491.395 131.806 491.693H131.821Z" fill="#65A4C5"/>
<path d="M379.153 499.528C375.295 500.496 371.153 500.184 367.235 500.184H162.538C158.069 500.184 153.302 500.616 148.952 499.513C148.118 499.305 145.883 500.407 147.284 500.765C154.136 502.493 161.778 501.614 168.795 501.614H368.8C372.565 501.794 376.338 501.504 380.032 500.75C381.73 500.318 380.36 499.26 379.153 499.513V499.528Z" fill="#65A4C5"/>
<path d="M363.037 506.814C356.482 508.185 349.63 507.782 343.016 507.782H187.94C180.223 507.782 172.06 508.527 164.477 506.874C163.539 506.665 161.945 507.008 163.702 507.395C169.661 508.706 175.799 508.527 181.891 508.527H344.759C351.581 508.527 358.508 508.87 365.227 507.47C365.748 507.365 363.618 506.71 363.052 506.829L363.037 506.814Z" fill="#65A4C5"/>
<path d="M47.1345 414.468C48.809 415.172 50.6256 415.473 52.4378 415.347H198.74C205.175 415.347 211.655 414.959 218.016 416.077C219.506 416.33 219.089 413.842 217.897 413.634C212.995 412.922 208.039 412.663 203.089 412.859C197.444 412.859 191.813 412.859 186.167 412.859H57.5027C54.5233 412.859 50.3373 413.559 47.5367 412.204C46.047 411.503 46.047 413.917 47.1345 414.453V414.468Z" fill="#65A4C5"/>
<path d="M475.954 412.994C473.734 413.798 470.636 413.232 468.282 413.232H326.241C320.41 412.969 314.568 413.219 308.782 413.977C308.528 413.977 309.959 415.794 310.629 415.675C315.77 414.957 320.965 414.708 326.151 414.93C331.633 414.93 337.115 414.93 342.538 414.93H468.461C471.217 414.93 475.105 415.63 477.697 414.692C478.054 414.558 476.431 412.785 475.85 412.994H475.954Z" fill="#65A4C5"/>
<path d="M40.9831 405.068C44.5435 406.781 49.0423 406.051 52.9006 406.051H176.783C182.741 406.051 189.236 405.276 194.987 406.721C196.655 407.139 196.476 405.381 195.091 405.038C190.912 404.231 186.648 403.945 182.399 404.189H51.3066C48.4613 404.189 44.3796 404.904 41.7726 403.653C40.283 402.967 39.5828 404.368 41.0278 405.053L40.9831 405.068Z" fill="#65A4C5"/>
<path d="M338.159 515.187C328.685 516.766 318.689 515.932 309.11 515.932H221.219C210.508 515.932 199.38 516.796 188.774 515.187C187.105 514.934 188.193 516.87 189.34 517.049C198.799 518.539 208.706 517.794 218.165 517.794H307.069C312.7 517.794 318.331 517.794 323.977 517.794C329.099 517.984 334.228 517.73 339.306 517.034C340.796 516.781 339.202 515.008 338.159 515.187Z" fill="#65A4C5"/>
<path d="M479.484 403.696C477.369 404.634 474.449 404.173 472.185 404.173H347.647C342.463 404.173 336.966 403.651 331.901 404.932C331.529 405.022 332.929 407.018 333.495 406.869C337.964 405.752 342.627 406.109 347.171 406.109H474.3C476.55 406.109 479.172 406.511 481.272 405.588C481.466 405.498 480.11 403.428 479.499 403.696H479.484Z" fill="#65A4C5"/>
<path d="M35.7549 396.68C38.8684 398.349 43.2033 397.544 46.6594 397.544H169.543C172.539 397.33 175.549 397.551 178.482 398.2C179.971 398.632 181.237 396.576 179.629 396.099C175.8 394.967 171.808 395.235 167.845 395.235H44.9463C42.4287 395.235 39.211 395.802 36.9318 394.58C36.7939 394.505 36.6425 394.457 36.4862 394.44C36.33 394.424 36.172 394.438 36.0212 394.482C35.8704 394.526 35.7298 394.6 35.6074 394.698C35.4851 394.797 35.3833 394.919 35.308 395.057C35.2327 395.195 35.1853 395.346 35.1685 395.502C35.1517 395.658 35.1658 395.817 35.2101 395.967C35.2543 396.118 35.3279 396.259 35.4265 396.381C35.5251 396.503 35.6468 396.605 35.7847 396.68H35.7549Z" fill="#65A4C5"/>
<path d="M130.765 36.1026C129.126 39.082 129.96 43.6404 129.96 46.9922C129.96 51.64 129.96 56.2879 129.96 60.9357C129.96 69.8738 129.96 78.8119 129.96 87.75C129.96 105.835 129.96 123.919 129.96 142.004C129.96 147.168 129.96 152.338 129.96 157.512C129.96 159.925 129.96 162.338 129.96 164.752C129.96 166.837 130.661 170.845 129.514 172.751C129.141 173.362 130.482 175.448 130.795 174.911C131.674 173.422 131.331 171.932 131.331 170.204C131.331 167.969 131.331 165.735 131.331 163.485C131.331 158.838 131.331 154.19 131.331 149.542C131.331 140.604 131.331 131.666 131.331 122.728C131.331 104.643 131.331 86.5582 131.331 68.4735C131.331 63.3092 131.331 58.14 131.331 52.9659C131.331 50.5526 131.331 48.1393 131.331 45.726C131.331 43.3276 130.869 40.4525 132.046 38.2776C132.389 37.637 131.033 35.5961 130.765 36.1175V36.1026Z" fill="#65A4C5"/>
<path d="M138.616 31.9153C138.085 33.7217 137.918 35.6153 138.124 37.4867V44.6819C138.124 49.1807 138.124 53.6796 138.124 58.1784C138.124 67.1761 138.124 76.1738 138.124 85.1715C138.124 102.988 138.124 120.805 138.124 138.621C138.124 143.637 138.124 148.652 138.124 153.667C138.124 156.09 138.124 158.514 138.124 160.937C138.124 163.35 138.377 165.793 137.364 168.043C137.364 168.043 139.748 168.966 139.897 168.624C141.506 165.033 140.656 160.177 140.656 156.334C140.656 151.835 140.656 147.336 140.656 142.837C140.656 133.839 140.656 124.842 140.656 115.844C140.656 98.0274 140.656 80.2108 140.656 62.3942C140.656 57.3789 140.656 52.3637 140.656 47.3484V40.1234C140.656 37.6804 140.21 34.7755 141.148 32.4814C141.148 32.4814 138.75 31.5727 138.616 31.9004V31.9153Z" fill="#65A4C5"/>
<path d="M121.172 42.5665C120.683 44.0793 120.51 45.6766 120.666 47.259C120.666 49.6723 120.666 52.0856 120.666 54.4989C120.666 58.809 120.666 63.1241 120.666 67.4442C120.666 76.3823 120.666 85.3552 120.666 94.3628C120.666 111.961 120.666 129.559 120.666 147.157C120.666 157.337 120.666 167.516 120.666 177.696C120.666 178.515 123.258 178.441 123.258 177.577C123.258 142.728 123.258 107.879 123.258 73.0305C123.258 68.0649 123.258 63.0596 123.258 58.0145C123.258 55.6012 123.258 53.1879 123.258 50.7746C123.258 48.2869 122.751 45.1287 123.72 42.7899C124.062 41.9557 121.515 41.8216 121.202 42.5814L121.172 42.5665Z" fill="#65A4C5"/>
<path d="M166.665 387.311C163.239 385.821 158.799 386.491 155.12 386.491H40.4143C38.0904 386.491 34.679 387.117 32.4892 386.312C30.9995 385.761 31.0889 388.189 32.3104 388.621C33.8993 389.004 35.543 389.105 37.1668 388.919H159.172C161.615 388.919 164.237 388.592 166.516 389.62C168.006 390.275 167.857 387.832 166.695 387.311H166.665Z" fill="#65A4C5"/>
<path d="M480.693 395.204H360.699C356.349 395.204 351.895 394.861 347.709 396.246C346.219 396.738 347.381 398.958 348.632 398.54C353.697 396.872 359.417 397.542 364.676 397.542H481.035C482.674 397.542 482.063 395.204 480.693 395.204Z" fill="#65A4C5"/>
<path d="M147.584 27.5355C146.616 29.7253 147.093 32.5706 147.093 34.9839C147.093 37.7547 147.093 40.5206 147.093 43.2815C147.093 48.8132 147.093 54.3448 147.093 59.8765C147.093 70.9399 147.093 82.0083 147.093 93.0816C147.093 104.155 147.093 115.223 147.093 126.287C147.093 131.818 147.093 137.35 147.093 142.882C147.093 145.653 147.093 148.418 147.093 151.179C147.093 153.593 147.346 156.036 146.333 158.285C146.229 158.508 148.642 159.224 148.91 158.643C149.923 156.393 149.67 153.95 149.67 151.537C149.67 148.766 149.67 146 149.67 143.239C149.67 137.708 149.67 132.176 149.67 126.644C149.67 115.581 149.67 104.512 149.67 93.4391C149.67 82.3658 149.67 71.2974 149.67 60.2341C149.67 54.7024 149.67 49.1707 149.67 43.639C149.67 40.8682 149.67 38.1023 149.67 35.3414C149.67 32.9877 149.193 30.1425 150.161 27.893C150.266 27.6547 147.837 26.9545 147.584 27.5355Z" fill="#65A4C5"/>
<path d="M112.234 48.8998C111.863 50.2367 111.752 51.6324 111.907 53.0113C111.907 55.2458 111.907 57.4803 111.907 59.7149C111.907 64.0151 111.907 68.3153 111.907 72.6155C111.907 81.216 111.907 89.8164 111.907 98.4168C111.907 115.787 111.907 133.166 111.907 150.556C111.907 160.358 111.907 170.16 111.907 179.962C111.907 181.333 114.037 182.033 114.037 180.335C114.037 158.665 114.037 136.995 114.037 115.325C114.037 104.659 114.037 93.9974 114.037 83.3412C114.037 77.8393 114.037 72.3374 114.037 66.8355C114.037 64.0846 114.037 61.3336 114.037 58.5827C114.037 57.2023 114.037 55.8268 114.037 54.4563C113.869 53.1318 113.915 51.789 114.171 50.4788C114.588 49.3169 112.681 47.4994 112.249 48.9891L112.234 48.8998Z" fill="#65A4C5"/>
<path d="M378.827 26.5248C379.328 28.9386 379.498 31.4092 379.334 33.8689C379.334 36.6298 379.334 39.3857 379.334 42.1366C379.334 47.6485 379.334 53.1653 379.334 58.687C379.334 69.7206 379.334 80.7492 379.334 91.7729C379.334 102.797 379.334 113.825 379.334 124.859C379.334 130.371 379.334 135.887 379.334 141.409C379.334 146.325 378.425 152.105 380.347 156.738C380.719 157.647 383.207 156.932 382.864 156.112C380.958 151.479 381.851 145.685 381.851 140.783C381.851 135.272 381.851 129.755 381.851 124.233C381.851 113.2 381.851 102.171 381.851 91.1472C381.851 80.1236 381.851 69.0949 381.851 58.0614C381.851 52.5495 381.851 47.0327 381.851 41.511C381.851 38.7501 381.851 35.9942 381.851 33.2432C382.015 30.7835 381.845 28.313 381.345 25.8991C381.092 24.9904 378.574 25.616 378.827 26.5248Z" fill="#65A4C5"/>
<path d="M157.416 380.011C152.813 378.521 147.509 379.206 142.727 379.206H32.1185C30.6282 379.387 29.1185 379.321 27.6494 379.013C27.1429 378.834 28.4836 380.621 29.005 380.815C31.0459 381.56 33.6231 381.098 35.7831 381.098H142.31C147.554 381.098 153.736 380.189 158.771 381.813C159.293 381.977 157.952 380.175 157.416 380.011Z" fill="#65A4C5"/>
<path d="M103.698 55.1116C102.972 57.1951 102.698 59.4091 102.893 61.6066C102.893 64.3774 102.893 67.1483 102.893 69.9191C102.893 75.1131 102.893 80.3022 102.893 85.4863C102.893 96.0432 102.893 106.6 102.893 117.157C102.893 138.44 102.893 159.722 102.893 181.005C102.893 181.869 105.485 181.794 105.485 180.886C105.485 159.951 105.485 139.011 105.485 118.066C105.485 107.688 105.485 97.3044 105.485 86.9164C105.485 81.7223 105.485 76.5333 105.485 71.3492C105.485 68.7571 105.485 66.1601 105.485 63.5581C105.485 60.8618 105.098 57.8675 106.2 55.3351C106.573 54.4711 104.025 54.337 103.683 55.1116H103.698Z" fill="#65A4C5"/>
<path d="M156.417 23.6796C155.375 25.4226 155.926 27.955 155.911 29.9214C155.911 32.6823 155.911 35.4432 155.911 38.2041C155.911 43.3782 155.911 48.5524 155.911 53.7266C155.911 64.2437 155.911 74.7659 155.911 85.2929C155.911 95.82 155.911 106.342 155.911 116.859C155.911 122.034 155.911 127.208 155.911 132.382C155.911 135.143 155.911 137.904 155.911 140.664C155.911 143.391 156.268 146.355 155.166 148.902C154.883 149.558 157.252 150.63 157.535 149.975C158.247 147.904 158.511 145.705 158.309 143.525C158.309 140.764 158.309 138.003 158.309 135.242C158.309 130.068 158.309 124.894 158.309 119.72C158.309 109.202 158.309 98.6802 158.309 88.1531C158.309 77.626 158.309 67.1039 158.309 56.5868C158.309 51.4126 158.309 46.2384 158.309 41.0642C158.309 38.3034 158.309 35.5425 158.309 32.7816C158.309 30.5024 157.609 26.7186 158.786 24.7522C159.114 24.201 156.82 23.0242 156.417 23.6796Z" fill="#65A4C5"/>
<path d="M370.664 23.8274C370.664 44.8618 370.664 65.8911 370.664 86.9155C370.664 97.2539 370.664 107.597 370.664 117.946C370.664 123.12 370.664 128.289 370.664 133.453C370.664 136.214 370.664 138.97 370.664 141.721C370.481 143.853 370.771 146 371.513 148.007C372.005 149.095 374.269 147.814 373.748 146.697C372.661 144.283 373.063 141.378 373.063 138.801C373.063 136.224 373.063 133.975 373.063 131.561C373.063 126.387 373.063 121.218 373.063 116.054C373.063 105.715 373.063 95.372 373.063 85.0236C373.063 64.3369 373.063 43.6501 373.063 22.9634C373.063 21.7121 370.649 22.6506 370.649 23.8125L370.664 23.8274Z" fill="#65A4C5"/>
<path d="M148.477 371.148C146.646 370.465 144.691 370.18 142.742 370.313H56.6081C45.8675 370.313 34.963 370.835 24.2373 370.194C22.9562 370.12 24.0734 372.384 24.9821 372.429C34.8289 373.01 44.8098 372.548 54.6715 372.548H139.777C142.757 372.548 146.019 372.041 148.715 373.233C150.086 373.829 149.281 371.52 148.447 371.148H148.477Z" fill="#65A4C5"/>
<path d="M163.18 21.1459C163.18 41.2864 163.18 61.4269 163.18 81.5675C163.18 91.5483 163.18 101.534 163.18 111.525C163.18 116.491 163.18 121.481 163.18 126.496C163.18 128.91 163.18 131.318 163.18 133.721C163.18 136.403 163.732 139.68 162.525 142.183C162.019 143.24 164.134 144.715 164.611 143.672C166.368 140.052 165.489 135.136 165.489 131.219C165.489 126.054 165.489 120.89 165.489 115.726C165.489 105.229 165.489 94.7313 165.489 84.234C165.489 63.3784 165.489 42.5526 165.489 21.7567C165.489 20.699 163.18 19.7009 163.18 21.1161V21.1459Z" fill="#65A4C5"/>
<path d="M19.9034 363.31C21.9443 364.218 24.3725 363.876 26.5027 363.876H132.747C135.339 363.876 138.706 363.295 141.134 364.308C142.624 364.903 142.162 362.52 141.134 362.088C138.989 361.194 136.575 361.522 134.281 361.522H28.0371C25.5493 361.522 22.2124 362.118 19.9034 361.09C18.4137 360.449 18.8904 362.863 19.9034 363.31Z" fill="#65A4C5"/>
<path d="M361.369 19.5515C362.173 21.7562 361.607 24.8846 361.607 27.2383C361.607 29.592 361.607 32.0798 361.607 34.5079C361.607 39.702 361.607 44.896 361.607 50.09C361.607 60.1305 361.607 70.171 361.607 80.2114C361.607 90.2519 361.607 100.292 361.607 110.333C361.607 115.527 361.607 120.721 361.607 125.915C361.607 128.338 361.607 130.761 361.607 133.185C361.607 135.598 361.354 138.041 362.367 140.29C362.68 140.991 365.123 140.201 364.884 139.65C363.871 137.4 364.125 134.957 364.125 132.544C364.125 130.131 364.125 127.703 364.125 125.274C364.125 120.08 364.125 114.886 364.125 109.692C364.125 99.6518 364.125 89.6113 364.125 79.5709C364.125 69.5304 364.125 59.4899 364.125 49.4495C364.125 44.2554 364.125 39.0614 364.125 33.8674C364.125 31.4442 364.125 29.0209 364.125 26.5977C364.125 24.244 364.691 21.1157 363.886 18.911C363.633 18.2257 361.145 18.911 361.369 19.5515Z" fill="#65A4C5"/>
<path d="M96.8306 60.0286C95.9666 62.1141 96.3092 64.4976 96.3092 66.7023C96.3092 68.9071 96.3092 71.5289 96.3092 73.9571C96.3092 78.7936 96.3092 83.6252 96.3092 88.4517C96.3092 98.6312 96.3092 108.816 96.3092 119.005C96.3092 139.195 96.3092 159.39 96.3092 179.591C96.3092 180.306 97.6946 181.527 97.6946 181.676C97.6946 161.814 97.6946 141.951 97.6946 122.089C97.6946 112.247 97.6946 102.41 97.6946 92.5782C97.6946 87.7416 97.6946 82.9101 97.6946 78.0835C97.6946 75.6702 97.6946 73.252 97.6946 70.8288C97.6946 68.1622 97.1285 64.736 98.1713 62.2333C98.4395 61.5778 96.7561 60.1775 96.8306 60.0137V60.0286Z" fill="#65A4C5"/>
<path d="M479.872 387.043H372.898C368.593 387.043 363.96 386.522 359.803 387.862C358.463 388.294 360.772 389.203 361.487 388.965C366.209 387.475 372.108 388.265 377.039 388.265H480.378C482.136 388.265 481.064 387.028 479.872 387.028V387.043Z" fill="#65A4C5"/>
<path d="M172.551 16.5427C171.657 18.5686 172.014 21.0117 172.014 23.1122C172.014 25.5155 172.014 27.9189 172.014 30.3222C172.014 35.4666 172.014 40.6159 172.014 45.7703C172.014 55.7015 172.014 65.6327 172.014 75.5639C172.014 85.4951 172.014 95.4264 172.014 105.358C172.014 110.502 172.014 115.651 172.014 120.806C172.014 123.209 172.014 125.612 172.014 128.016C172.014 130.518 172.416 133.319 171.284 135.643C170.748 136.745 173.31 137.043 173.802 136.045C174.524 134.147 174.8 132.108 174.606 130.086C174.606 127.683 174.606 125.28 174.606 122.876C174.606 117.732 174.606 112.583 174.606 107.428C174.606 97.497 174.606 87.5658 174.606 77.6346C174.606 67.7034 174.606 57.7721 174.606 47.8409C174.606 42.6965 174.606 37.5472 174.606 32.3929C174.606 29.9895 174.606 27.5862 174.606 25.1828C174.606 22.6653 174.025 19.3731 175.068 17.0194C175.575 15.8872 172.997 15.5297 172.551 16.6171V16.5427Z" fill="#65A4C5"/>
<path d="M15.9829 354.284C17.8722 354.933 19.8803 355.162 21.8672 354.954H125.907C128.484 354.954 131.865 354.388 134.219 355.535C135.709 356.265 136.394 354.046 135.068 353.405C131.404 351.632 126.458 352.467 122.51 352.467H25.6808C23.1483 352.467 19.2006 353.182 16.832 352.139C15.3424 351.454 14.6422 353.629 15.9829 354.269V354.284Z" fill="#65A4C5"/>
<path d="M352.164 15.4704C353.34 17.6454 352.879 20.5056 352.879 22.9189C352.879 25.3321 352.879 27.7454 352.879 30.1587C352.879 34.9853 352.879 39.8168 352.879 44.6533C352.879 54.6541 352.879 64.6598 352.879 74.6705C352.879 84.6811 352.879 94.6868 352.879 104.688C352.879 109.514 352.879 114.346 352.879 119.182C352.879 121.595 352.879 124.009 352.879 126.422C352.879 128.433 352.342 130.891 353.415 132.723C353.936 133.587 356.484 133.215 355.918 132.262C354.741 130.28 355.486 126.541 355.486 124.307C355.486 122.072 355.486 119.48 355.486 117.067C355.486 112.24 355.486 107.409 355.486 102.572C355.486 92.5715 355.486 82.5658 355.486 72.5551C355.486 62.5444 355.486 52.5387 355.486 42.538C355.486 37.7114 355.486 32.8799 355.486 28.0434C355.486 25.6301 355.486 23.2168 355.486 20.8035C355.711 18.8434 355.429 16.8582 354.666 15.0384C354.19 14.1446 351.687 14.5021 352.164 15.5002V15.4704Z" fill="#65A4C5"/>
<path d="M181.533 13.4005C180.52 15.0839 180.982 17.229 180.982 19.1209C180.982 21.703 180.982 24.2802 180.982 26.8524C180.982 31.669 180.982 36.4857 180.982 41.3023C180.982 51.1044 180.982 60.9066 180.982 70.7087C180.982 80.5108 180.982 90.3129 180.982 100.115C180.982 104.932 180.982 109.748 180.982 114.565C180.982 119.302 181.667 124.695 180.49 129.298C180.296 130.073 182.397 131.518 182.62 130.654C183.723 126.333 183.112 121.373 183.112 116.948C183.112 112.132 183.112 107.315 183.112 102.499C183.112 92.6964 183.112 82.8943 183.112 73.0922C183.112 63.4589 183.112 53.8306 183.112 44.2072C183.112 39.3906 183.112 34.5739 183.112 29.7573C183.112 27.3539 183.112 24.9456 183.112 22.5323C183.112 20.4169 182.412 16.9162 183.529 15.0839C183.976 14.3241 181.92 12.7749 181.533 13.4303V13.4005Z" fill="#65A4C5"/>
<path d="M14.1081 344.868C15.5781 345.411 17.1505 345.619 18.7112 345.478H120.501C122.885 345.478 126.281 344.853 128.546 345.672C128.814 345.776 127.294 344.465 126.773 344.272C124.89 343.859 122.951 343.768 121.038 344.004H20.2903C17.9962 344.004 14.8678 344.57 12.7227 343.616C11.7693 343.199 13.7506 344.689 14.1081 344.853V344.868Z" fill="#65A4C5"/>
<path d="M344.267 12.9823C344.267 32.2985 344.267 51.6197 344.267 70.9459C344.267 80.6089 344.267 90.2671 344.267 99.9202C344.267 104.747 344.267 109.578 344.267 114.415V121.148C344.031 123.149 344.208 125.177 344.788 127.107C345.116 127.852 347.499 128.731 347.052 127.718C346.129 125.617 346.576 122.817 346.576 120.537V113.372C346.576 108.545 346.576 103.714 346.576 98.8774C346.576 89.5619 346.576 80.2465 346.576 70.931C346.576 51.9524 346.576 32.9788 346.576 14.0102C346.576 13.1163 344.252 12.0587 344.252 12.9972L344.267 12.9823Z" fill="#65A4C5"/>
<path d="M189.785 11.9119C189.785 30.7316 189.785 49.5463 189.785 68.356C189.785 77.6814 189.785 87.0019 189.785 96.3174C189.785 100.975 189.785 105.638 189.785 110.305C189.785 112.719 189.785 115.137 189.785 117.56C189.785 119.676 190.113 122.029 189.085 123.921C188.519 124.979 190.843 126.141 191.409 125.068C192.092 123.578 192.374 121.934 192.228 120.301C192.228 117.888 192.228 115.475 192.228 113.047C192.228 108.21 192.228 103.378 192.228 98.5519C192.228 89.0576 192.228 79.5634 192.228 70.0691C192.228 50.9118 192.228 31.7495 192.228 12.5822C192.228 11.4352 189.77 10.6308 189.77 11.897L189.785 11.9119Z" fill="#65A4C5"/>
<path d="M336.58 10.4215C337.339 12.507 336.758 15.6949 336.758 17.8699C336.758 20.0448 336.758 22.7113 336.758 25.1246C336.758 29.6135 336.758 34.0826 336.758 38.5318C336.758 48.036 336.758 57.5352 336.758 67.0294C336.758 76.3549 336.758 85.6852 336.758 95.0206C336.758 99.6883 336.758 104.351 336.758 109.009C336.758 111.432 336.758 113.85 336.758 116.263C336.53 118.193 336.63 120.148 337.056 122.043C337.295 122.699 339.633 123.533 339.291 122.624C338.531 120.539 339.112 117.351 339.112 115.176C339.112 113.001 339.112 110.335 339.112 107.921C339.112 103.432 339.112 98.9633 339.112 94.5141C339.112 85.0099 339.112 75.5107 339.112 66.0164C339.112 56.691 339.112 47.3606 339.112 38.0253C339.112 33.3576 339.112 28.6949 339.112 24.0372C339.112 21.6139 339.112 19.1957 339.112 16.7824C339.34 14.8528 339.24 12.8984 338.814 11.0024C338.576 10.347 336.237 9.51274 336.58 10.4215Z" fill="#65A4C5"/>
<path d="M124 335.783C122.806 335.094 121.421 334.812 120.053 334.978C117.654 334.978 115.241 334.978 112.843 334.978H40.2206C30.6717 334.978 21.0037 335.425 11.4846 334.859C9.78637 334.755 10.2333 336.855 11.7379 336.945C20.7504 337.481 29.8971 337.064 38.9395 337.064H118.191C119.219 337.064 121.364 336.677 122.287 337.243C123.464 337.943 125.401 336.647 123.941 335.753L124 335.783Z" fill="#65A4C5"/>
<path d="M123.422 189.512C121.485 190.212 118.476 189.675 116.405 189.675H12.5892C11.3975 189.675 10.0716 191.493 11.755 191.493H118.684C120.431 191.7 122.201 191.599 123.913 191.195C125.403 190.659 124.941 188.975 123.422 189.526V189.512Z" fill="#65A4C5"/>
<path d="M87.5791 68.6529C85.9852 72.3026 86.7449 76.9802 86.7449 80.8683C86.7449 85.6948 86.7449 90.5264 86.7449 95.3629C86.7449 105.026 86.7449 114.684 86.7449 124.337C86.7449 133.99 86.7449 143.649 86.7449 153.312C86.7449 158.138 86.7449 162.97 86.7449 167.806V174.54C86.509 176.477 86.6867 178.441 87.2663 180.305C87.6685 181.198 90.0967 180.305 89.7243 179.456C88.8156 177.444 89.2327 174.689 89.2327 172.514C89.2327 170.1 89.2327 167.687 89.2327 165.274C89.2327 160.785 89.2327 156.316 89.2327 151.867C89.2327 142.551 89.2327 133.236 89.2327 123.92C89.2327 114.605 89.2327 105.289 89.2327 95.9737C89.2327 91.4848 89.2327 87.0157 89.2327 82.5665C89.2327 80.1532 89.2327 77.7399 89.2327 75.3266C88.9713 73.0345 89.205 70.7129 89.9179 68.5188C90.4095 67.4015 87.9218 67.8037 87.5642 68.5933L87.5791 68.6529Z" fill="#65A4C5"/>
<path d="M119.295 198.12C117.194 199.044 114.304 198.567 112.04 198.567H8.93876C8.49185 198.567 9.72829 200.563 10.4284 200.563H115.645C117.471 200.766 119.319 200.578 121.067 200.012C121.44 199.848 120.01 197.793 119.295 198.12Z" fill="#65A4C5"/>
<path d="M198.472 9.45138C198.472 27.7149 198.472 45.9784 198.472 64.2419C198.472 73.18 198.472 82.1181 198.472 91.0563C198.472 95.5352 198.472 100.004 198.472 104.463C198.472 106.877 198.472 109.29 198.472 111.703C198.472 113.953 199.038 116.962 198.263 119.077C197.772 120.418 200.274 121.118 200.766 119.762C201.187 117.805 201.277 115.791 201.034 113.804C201.034 111.39 201.034 108.977 201.034 106.564C201.034 102.085 201.034 97.6158 201.034 93.1567C201.034 83.8512 201.034 74.5456 201.034 65.24C201.034 46.6289 201.034 28.0228 201.034 9.42158C201.034 8.03618 198.472 7.81272 198.472 9.3173V9.45138Z" fill="#65A4C5"/>
<path d="M7.70265 327.722C9.27406 328.272 10.9472 328.471 12.6037 328.303H118.371C119.861 328.303 120.293 326.411 118.58 326.411H16.9685C14.5999 326.411 11.3524 326.962 9.16254 325.994C8.07507 325.517 6.18317 327.066 7.67286 327.722H7.70265Z" fill="#65A4C5"/>
<path d="M318.794 5.9535C319.718 8.03905 319.241 10.9141 319.241 13.1636V20.3885C319.241 24.8675 319.241 29.3366 319.241 33.7957C319.241 43.0913 319.241 52.3869 319.241 61.6826C319.241 70.9782 319.241 80.2738 319.241 89.5694C319.241 94.0484 319.241 98.5175 319.241 102.977V110.231C319.032 112.071 319.215 113.934 319.778 115.698C320.105 116.428 322.653 116.25 322.28 115.401C321.357 113.315 321.833 110.44 321.833 108.19V100.921C321.833 96.4418 321.833 91.9728 321.833 87.5137C321.833 78.218 321.833 68.9224 321.833 59.6268C321.833 50.3312 321.833 41.0355 321.833 31.7399C321.833 27.2609 321.833 22.7919 321.833 18.3328V11.078C322.042 9.2382 321.859 7.37501 321.297 5.61087C320.969 4.88092 318.422 5.05969 318.794 5.90881V5.9535Z" fill="#65A4C5"/>
<path d="M327.924 9.02092C327.924 27.5923 327.924 46.1637 327.924 64.7351C327.924 74.0208 327.924 83.3065 327.924 92.5922C327.924 97.0612 327.924 101.53 327.924 105.999C327.924 108.403 327.924 110.811 327.924 113.224C327.924 114.952 327.507 116.904 328.431 118.438C328.848 119.138 331.306 119.198 330.948 118.602C329.905 116.874 330.486 113.671 330.486 111.645C330.486 109.619 330.486 107.176 330.486 104.942C330.486 100.304 330.486 95.6609 330.486 91.0131C330.486 82.075 330.486 73.1369 330.486 64.1988C330.486 45.975 330.486 27.7512 330.486 9.52741C330.486 8.66339 327.924 8.35056 327.924 9.05071V9.02092Z" fill="#65A4C5"/>
<path d="M479.142 379.535C477.43 379.127 475.661 379.021 473.913 379.222H381.552C377.605 379.222 372.614 378.373 368.964 380.041C367.475 380.697 369.248 382.32 370.335 381.829C372.529 381.114 374.85 380.875 377.143 381.129H471.604C473.689 381.129 476.684 380.592 478.62 381.293C480.11 381.844 480.676 380.071 479.171 379.52L479.142 379.535Z" fill="#65A4C5"/>
<path d="M207.931 6.24893C207.082 8.17062 207.439 10.5392 207.439 12.595V19.3581C207.439 24.0258 207.439 28.6935 207.439 33.3612C207.439 42.2993 207.439 51.287 207.439 60.3244C207.439 78.6476 207.439 96.9657 207.439 115.279C207.439 115.621 210.032 115.636 210.032 115.279C210.032 96.9558 210.032 78.6376 210.032 60.3244C210.032 51.3863 210.032 42.3986 210.032 33.3612C210.032 28.8723 210.032 24.4032 210.032 19.954V12.6248C210.032 10.5392 209.674 8.15572 210.523 6.27872C210.523 6.27872 208.169 5.69774 207.931 6.27872V6.24893Z" fill="#65A4C5"/>
<path d="M117.688 205.57C115.632 206.478 112.072 205.897 109.852 205.897H9.25354C8.53849 205.897 7.27226 207.193 7.1084 207.193H105.621C109.152 207.193 113.412 207.983 116.704 206.523C117.166 206.314 119.133 204.899 117.673 205.555L117.688 205.57Z" fill="#65A4C5"/>
<path d="M116.359 319.514C114.656 319.084 112.889 318.968 111.145 319.172C108.732 319.172 106.318 319.172 103.905 319.172H7.70128C6.2116 319.172 6.07753 320.483 7.70128 320.483H108.002C110.028 320.483 113.111 319.917 115.018 320.602C115.927 320.93 117.997 320.095 116.374 319.514H116.359Z" fill="#65A4C5"/>
<path d="M112.621 214.3H5.85557C4.36589 214.3 5.17032 216.788 6.51103 216.788H113.217C114.707 216.788 113.902 214.3 112.562 214.3H112.621Z" fill="#65A4C5"/>
<path d="M110.669 223.445C108.762 224.131 105.619 223.594 103.593 223.594H5.27415C4.30586 223.594 2.63741 225.412 4.14199 225.412H105.589C107.318 225.61 109.067 225.504 110.759 225.099C111.995 224.652 112.323 222.864 110.759 223.46L110.669 223.445Z" fill="#65A4C5"/>
<path d="M112.053 310.189C103.338 309.668 94.4897 310.07 85.7453 310.07H6.03233C4.54264 310.07 5.77908 312.081 6.83675 312.081H86.5348C95.2644 312.081 104.113 311.679 112.843 312.2C114.332 312.29 113.081 310.249 112.038 310.189H112.053Z" fill="#65A4C5"/>
<path d="M109.624 301.162H4.36321C2.87353 301.162 3.76734 303.531 5.01867 303.531H110.235C111.725 303.531 110.831 301.162 109.58 301.162H109.624Z" fill="#65A4C5"/>
<path d="M108.599 293.208H10.2798C8.49216 293.208 5.9597 293.64 4.24656 293.014C3.56131 292.761 2.10142 293.387 1.75879 293.252C2.71976 293.561 3.73514 293.662 4.73816 293.55C7.04717 293.55 9.34128 293.55 11.6503 293.55H107.258C107.72 293.55 110.133 293.223 108.554 293.223L108.599 293.208Z" fill="#65A4C5"/>
<path d="M108.448 232.383C99.9266 232.889 91.3014 232.502 82.7655 232.502H3.93143C2.36726 232.502 2.36726 233.917 3.93143 233.917H82.259C90.9587 233.917 99.7628 234.304 108.463 233.798C109.952 233.709 110.042 232.308 108.463 232.383H108.448Z" fill="#65A4C5"/>
<path d="M106.468 240.89H2.19025C0.879325 240.89 2.19025 243.05 3.17344 243.05H107.451C108.762 243.05 107.451 240.89 106.468 240.89Z" fill="#65A4C5"/>
<path d="M105.769 258.915H1.49091C-0.0881572 258.915 -0.117951 260.405 1.49091 260.405H105.769C107.348 260.405 107.378 258.915 105.769 258.915Z" fill="#65A4C5"/>
<path d="M105.515 266.08H1.25184C-0.312333 266.08 -0.476198 267.749 1.13266 267.749H105.411C106.975 267.749 107.139 266.08 105.53 266.08H105.515Z" fill="#65A4C5"/>
<path d="M106.706 275.42C104.995 274.982 103.219 274.856 101.463 275.048H2.01146C0.298321 275.048 0.998472 276.761 2.38388 276.761H98.7217C100.673 276.761 103.876 276.195 105.723 276.865C107.004 277.327 108.33 276.001 106.706 275.376V275.42Z" fill="#65A4C5"/>
<path d="M106.544 250.468H2.77232C2.08706 250.468 -0.0282861 251.436 1.62526 251.436H105.382C106.067 251.436 108.182 250.468 106.529 250.468H106.544Z" fill="#65A4C5"/>
<path d="M105.767 283.568H2.44271C1.26586 283.568 2.62147 285.684 3.44079 285.684H106.706C107.883 285.684 106.527 283.568 105.708 283.568H105.767Z" fill="#65A4C5"/>
<path d="M78.7894 76.6821C77.2997 80.1233 78.0296 84.6222 78.0296 88.2868C78.0296 92.3983 78.0296 96.5148 78.0296 100.636C78.0296 109.376 78.0296 118.12 78.0296 126.87C78.0296 135.44 78.0296 144.011 78.0296 152.582C78.0296 156.872 78.0296 161.157 78.0296 165.437C78.0296 168.819 77.2103 173.229 78.8639 176.312C79.2214 176.983 81.7092 177.429 81.1878 176.461C80.509 174.755 80.2733 172.905 80.5025 171.083C80.5025 169.028 80.5025 166.972 80.5025 164.916C80.5025 160.805 80.5025 156.688 80.5025 152.567C80.4628 144.205 80.4429 135.803 80.4429 127.361C80.4429 119.128 80.4429 110.9 80.4429 102.677C80.4429 98.5656 80.4429 94.4491 80.4429 90.3277C80.4429 86.3502 79.5789 81.2108 81.1878 77.5015C81.5006 76.7715 79.0724 75.8777 78.7298 76.6673L78.7894 76.6821Z" fill="#65A4C5"/>
<path d="M477.416 371.461C473.9 370.493 470.071 370.88 466.451 370.88H387.498C384.206 370.88 380.914 370.582 377.83 371.923C376.341 372.593 378.605 372.742 379.32 372.444C381.405 371.536 384.206 371.968 386.441 371.968H462.236C466.407 371.968 471.293 371.297 475.33 372.415C475.956 372.593 478.205 371.685 477.416 371.461Z" fill="#65A4C5"/>
<path d="M470.844 362.523C468.088 361.51 465.004 361.897 462.114 361.897H394.616C391.384 361.897 388.092 361.51 385.038 362.746C384.338 363.029 386.319 364.489 387.123 364.236C390.475 362.88 394.87 363.565 398.445 363.565H464.915C466.909 363.361 468.923 363.492 470.873 363.953C472.527 364.563 471.916 362.999 470.784 362.582L470.844 362.523Z" fill="#65A4C5"/>
<path d="M70.4173 85.2621C69.2106 88.3457 69.5979 91.6826 69.5979 94.945C69.5979 98.7189 69.5979 102.498 69.5979 106.282C69.5979 114.008 69.5979 121.735 69.5979 129.461C69.5979 137.019 69.5979 144.571 69.5979 152.119C69.5979 155.893 69.5979 159.672 69.5979 163.456C69.5979 165.645 68.9127 168.655 70.2385 170.561C71.2366 172.051 72.041 170.338 71.2813 169.236C71.6686 169.802 71.3856 169.236 71.4451 168.684C71.5345 167.835 71.4451 166.956 71.4451 166.107C71.4451 164.389 71.4451 162.671 71.4451 160.953C71.4451 157.348 71.4451 153.743 71.4451 150.138C71.4451 143.097 71.4451 136.055 71.4451 129.014C71.4451 122.142 71.4451 115.274 71.4451 108.412C71.4451 104.807 71.4451 101.202 71.4451 97.5967C71.4451 94.1257 70.8642 90.1482 72.1602 86.8858C72.5177 85.9622 70.9089 84.0107 70.4173 85.2621Z" fill="#65A4C5"/>
<path d="M86.4033 181.987C80.5585 181.207 74.6565 180.943 68.7654 181.197C62.0916 181.197 55.3582 181.197 48.759 181.197H18.9653C16.8808 180.982 14.7747 181.232 12.798 181.927C12.1723 182.21 14.4813 182.568 15.0474 182.314C16.3276 181.965 17.6644 181.874 18.9802 182.046H66.7692C72.8918 182.046 79.0591 181.689 85.1221 182.746C85.8074 182.866 88.1015 182.27 86.4182 181.987H86.4033Z" fill="#65A4C5"/>
<path d="M61.0771 96.2561C59.3193 100.725 60.228 106.416 60.228 111.153C60.228 117.012 60.228 122.867 60.228 128.716C60.228 134.397 60.228 140.083 60.228 145.773C60.228 148.703 60.228 151.633 60.228 154.562C59.9934 157.195 60.282 159.848 61.0771 162.368C61.5389 163.515 64.0565 162.756 63.4606 161.445C62.388 158.808 62.7753 155.814 62.7902 153.043C62.8051 150.272 62.7902 147.531 62.7902 144.775C62.7902 139.611 62.7902 134.442 62.7902 129.267C62.7902 124.093 62.7902 118.924 62.7902 113.76C62.7902 111.009 62.7902 108.253 62.7902 105.492C62.7902 102.647 62.388 99.5334 63.4457 96.8519C63.9969 95.4516 61.524 95.0792 61.0771 96.2412V96.2561Z" fill="#65A4C5"/>
<path d="M296.031 524.124C274.997 525.182 254.007 524.943 232.973 524.124C231.885 524.124 230.336 525.986 231.885 526.046C253.128 526.88 274.297 527.118 295.54 526.046C296.761 526.046 297.729 524.035 296.031 524.124Z" fill="#65A4C5"/>
<path d="M69.4659 172.945C65.5033 171.455 61.3322 171.827 57.1611 171.842H27.71C24.0752 171.842 19.3082 170.963 15.9713 172.766C14.8541 173.362 16.8205 175.045 17.8483 174.494C19.6211 173.54 22.0046 173.898 23.9411 173.898H55.4629C59.9319 173.898 64.9075 173.213 69.1233 174.792C70.7172 175.388 70.8066 173.436 69.4659 172.93V172.945Z" fill="#65A4C5"/>
<path d="M60.213 163.693C57.1294 162.442 53.6137 162.904 50.3513 162.919H28.9296C26.1141 162.919 22.4495 162.248 19.8277 163.485C18.7551 163.991 19.8277 166.33 20.9747 165.824C22.4431 165.343 23.9993 165.19 25.5332 165.377H50.0236C53.3903 165.377 57.2485 164.826 60.4514 166.107C61.7176 166.628 61.2707 164.11 60.2577 163.693H60.213Z" fill="#65A4C5"/>
<path d="M52.6454 112.167C52.0628 117.575 51.7744 123.01 51.7814 128.45C51.603 134.083 51.9722 139.721 52.8838 145.283C53.0179 145.983 54.9545 147.532 54.7757 146.624C53.897 141.393 53.5129 136.091 53.6286 130.788C53.5827 125.141 53.8613 119.496 54.4629 113.88C54.5522 113.076 52.6752 111.512 52.6156 112.167H52.6454Z" fill="#65A4C5"/>
<path d="M54.7322 154.623C52.5953 153.955 50.3433 153.736 48.118 153.982H31.657C29.1543 153.982 26.2345 153.52 23.8808 154.533C22.3911 155.159 23.6276 157.364 24.9236 156.812C27.039 155.904 29.8098 156.351 32.1039 156.365H46.0771C48.4308 156.365 51.7379 155.785 53.9277 156.723C54.0693 156.797 54.2249 156.84 54.3843 156.85C54.5437 156.859 54.7033 156.835 54.8527 156.778C55.002 156.722 55.1377 156.634 55.2508 156.522C55.364 156.409 55.452 156.273 55.5091 156.124C55.5662 155.975 55.5911 155.816 55.5822 155.656C55.5733 155.497 55.5308 155.341 55.4574 155.199C55.384 155.057 55.2815 154.933 55.1565 154.833C55.0315 154.734 54.8869 154.662 54.7322 154.623Z" fill="#65A4C5"/>
<path d="M51.2762 146.147C50.2681 145.532 49.0804 145.28 47.9095 145.432C45.377 145.432 42.8446 145.432 40.3121 145.432C36.3048 145.432 31.523 144.642 27.7988 146.37C26.3091 147.086 27.6647 148.65 29.0054 148.039C31.9848 146.653 36.4538 147.488 39.6864 147.488H44.2449C45.5111 147.488 48.3117 147.026 49.4141 147.756C50.5164 148.486 52.5424 146.996 51.2762 146.147Z" fill="#65A4C5"/>
<path d="M49.8306 138.891C47.5812 137.803 44.7508 138.31 42.3822 138.265C39.1673 138.164 35.9492 138.248 32.744 138.518C31.0606 138.682 31.6565 140.544 33.1164 140.395C35.6467 140.162 38.188 140.067 40.7287 140.112C43.0377 140.112 46.8066 139.502 48.907 140.529C50.218 141.17 51.4246 139.636 49.9051 138.891H49.8306Z" fill="#65A4C5"/>
<path d="M129.158 180.245C127.49 180.99 125.672 180.528 123.899 180.647C122.127 180.766 119.996 181.273 118.015 181.392C116.377 181.496 116.734 183.522 118.343 183.418C120.726 183.269 123.02 182.643 125.419 182.688C127.024 182.859 128.647 182.65 130.156 182.077C131.646 181.377 130.543 179.604 129.158 180.23V180.245Z" fill="#65A4C5"/>
<path d="M47.4444 129.059C43.7946 129.059 39.5044 128.359 36.1228 129.953C34.6331 130.638 36.3164 132.605 37.6125 131.994C39.3121 131.395 41.1268 131.197 42.9157 131.413H47.6678C49.3512 131.413 48.9043 129.074 47.3848 129.074L47.4444 129.059Z" fill="#65A4C5"/>
<path d="M47.5074 120.748C45.3921 121.031 43.2618 120.644 41.2061 121.389C41.2061 121.389 42.1743 122.074 42.2786 122.133C42.3829 122.193 43.1724 122.729 43.4853 122.625C45.4814 121.895 47.5968 122.282 49.6675 122.014C49.8611 122.014 49.012 121.463 48.9524 121.433C48.6247 121.24 47.9096 120.703 47.4627 120.763L47.5074 120.748Z" fill="#65A4C5"/>
<path d="M55.863 101.842C55.5836 101.935 55.3301 102.093 55.123 102.303C54.916 102.513 54.7612 102.768 54.6712 103.048L54.5669 103.302C54.5632 103.341 54.5632 103.381 54.5669 103.421C54.5669 103.421 54.7159 103.197 54.5669 103.332L54.4925 103.436C54.4925 103.436 54.7308 103.257 54.4925 103.361C54.2541 103.466 54.7457 103.287 54.5818 103.361C54.418 103.436 54.8351 103.361 54.5818 103.361C54.4376 103.362 54.2954 103.396 54.1656 103.459C54.0358 103.522 53.9218 103.613 53.8319 103.726C53.7419 103.839 53.6783 103.97 53.6457 104.111C53.6131 104.251 53.6123 104.397 53.6433 104.538C53.7476 105.119 54.269 105.834 54.9394 105.819C55.301 105.829 55.6565 105.725 55.9558 105.522C56.2552 105.319 56.4832 105.027 56.6078 104.687C56.7034 104.523 56.7785 104.348 56.8313 104.166C56.8313 104.166 56.6674 104.419 56.8313 104.255L56.9057 104.151C57.01 104.002 56.7121 104.33 56.9057 104.151C57.0994 103.972 56.6525 104.24 56.9057 104.151C58.3061 103.749 57.2633 101.38 55.9821 101.752L55.863 101.842Z" fill="#65A4C5"/>
</g>
</svg>
