<svg width="586" height="612" viewBox="0 0 586 612" fill="none" xmlns="http://www.w3.org/2000/svg">
<path d="M306.216 611.865C254.647 611.913 203.903 598.924 158.699 574.106C113.495 549.288 75.2977 513.446 47.6572 469.91C20.0167 426.374 3.82978 376.558 0.600493 325.09C-2.62879 273.623 7.20438 222.174 29.1863 175.525C51.1683 128.875 84.5856 88.5399 126.333 58.266C168.08 27.9922 216.803 8.7626 267.974 2.36412C319.144 -4.03435 371.101 2.60595 419.018 21.668C466.934 40.73 509.255 71.5952 542.047 111.395C547.239 117.597 551.153 124.764 553.564 132.484C555.975 140.205 556.835 148.325 556.095 156.379C555.356 164.434 553.03 172.262 549.253 179.414C545.476 186.566 540.323 192.9 534.088 198.052C527.854 203.204 520.661 207.073 512.926 209.435C505.191 211.797 497.065 212.606 489.015 211.815C480.966 211.024 473.153 208.649 466.025 204.827C458.897 201.004 452.596 195.81 447.483 189.543C423.384 160.272 390.8 139.196 354.221 129.218C317.642 119.241 278.869 120.854 243.245 133.834C207.621 146.815 176.9 170.524 155.315 201.695C133.729 232.866 122.342 269.964 122.723 307.878C123.104 345.791 135.234 382.653 157.441 413.384C179.649 444.115 210.84 467.202 246.718 479.464C282.596 491.726 321.393 492.56 357.764 481.849C394.135 471.139 426.289 449.412 449.795 419.663C459.898 406.909 474.653 398.689 490.816 396.814C506.978 394.939 523.223 399.561 535.978 409.663C548.732 419.766 556.951 434.521 558.826 450.683C560.702 466.846 556.08 483.091 545.977 495.845C517.42 532.105 480.99 561.394 439.444 581.498C397.898 601.602 352.324 611.994 306.17 611.888L306.216 611.865Z" fill="white"/>
<path d="M543.227 111.372C514.524 76.571 478.481 48.548 437.678 29.3104C396.874 10.0727 352.322 0.0966797 307.211 0.0966797C262.101 0.0966797 217.548 10.0727 176.745 29.3104C135.942 48.548 99.8983 76.571 71.1956 111.372C60.8356 123.915 55.8827 140.06 57.4263 156.255C58.97 172.45 66.8837 187.368 79.4267 197.728C91.9696 208.088 108.114 213.041 124.309 211.497C140.504 209.954 155.422 202.04 165.782 189.497C186.832 163.925 214.435 144.553 245.641 133.452V305.193C245.483 313.347 246.952 321.45 249.963 329.029C252.974 336.609 257.466 343.511 263.176 349.334C268.887 355.156 275.701 359.781 283.22 362.939C290.74 366.096 298.813 367.723 306.968 367.723C315.124 367.723 323.197 366.096 330.717 362.939C338.236 359.781 345.05 355.156 350.761 349.334C356.471 343.511 360.963 336.609 363.974 329.029C366.985 321.45 368.454 313.347 368.296 305.193V133.476C399.584 144.543 427.27 163.917 448.386 189.52C453.517 195.731 459.822 200.87 466.939 204.644C474.056 208.418 481.848 210.754 489.867 211.517C497.887 212.28 505.979 211.456 513.681 209.092C521.382 206.729 528.543 202.871 534.753 197.74C540.964 192.608 546.103 186.304 549.877 179.187C553.652 172.069 555.987 164.278 556.75 156.258C557.514 148.238 556.69 140.146 554.326 132.445C551.962 124.743 548.104 117.583 542.973 111.372H543.227Z" fill="white"/>
<path d="M524.059 368.011C536.31 368.011 548.285 364.379 558.471 357.573C568.658 350.767 576.596 341.093 581.285 329.775C585.973 318.457 587.199 306.002 584.809 293.987C582.419 281.972 576.52 270.935 567.858 262.273C559.195 253.61 548.159 247.711 536.143 245.321C524.128 242.931 511.674 244.158 500.356 248.846C489.038 253.534 479.364 261.473 472.558 271.659C465.752 281.845 462.119 293.821 462.119 306.071C462.119 322.499 468.645 338.253 480.261 349.869C491.877 361.486 507.632 368.011 524.059 368.011V368.011Z" fill="white"/>
</svg>
