<?xml version="1.0" encoding="UTF-8" standalone="no"?>
<!DOCTYPE svg PUBLIC "-//W3C//DTD SVG 1.1//EN" "http://www.w3.org/Graphics/SVG/1.1/DTD/svg11.dtd">
<svg width="100%" height="100%" viewBox="0 0 274 274" version="1.1" xmlns="http://www.w3.org/2000/svg" xmlns:xlink="http://www.w3.org/1999/xlink" xml:space="preserve" xmlns:serif="http://www.serif.com/" style="fill-rule:evenodd;clip-rule:evenodd;stroke-linejoin:round;stroke-miterlimit:1.41421;">
    <g transform="matrix(1,0,0,1,-100,-100)">
        <g id="circle" transform="matrix(1.34563,0,0,1.34563,-363.409,37.2282)">
            <circle cx="446.192" cy="148.46" r="101.811" style="fill:rgb(65,93,176);"/>
        </g>
        <g id="T" transform="matrix(0.941606,0,0,0.941606,13.8394,13.8394)">
            <path d="M207.002,157.456C198.423,160.699 190.502,165.294 183.5,170.984C129.432,151.853 129.624,152.01 129.624,152.01C154.706,120.319 193.499,100 237,100C280.501,100 319.294,120.319 344.381,152.016C291.145,171.368 344.528,151.898 291,171.377C283.873,165.506 275.782,160.774 267.002,157.456L267.002,308.528C265.121,309.243 263.207,309.892 261.223,310.464C257.176,311.685 252.987,312.604 248.678,313.202L244.834,313.643C243.545,313.761 242.246,313.85 240.94,313.91L237,314C232.437,314 227.958,313.64 223.586,312.922C221.639,312.619 219.714,312.247 217.81,311.815C215.349,311.244 212.925,310.565 210.54,309.779L207.002,308.526L207.002,157.456Z" style="fill:white;"/>
        </g>
        <g id="C" transform="matrix(0.941606,0,0,0.941606,13.8394,13.8394)">
            <path d="M129.19,321.442C110.899,298.195 100,268.86 100,237C100,204.889 106.623,181.258 125.175,157.924C125.175,157.924 125.131,157.756 177.545,176.251C161.674,194.669 152.57,209.944 152,237C151.443,263.434 164.098,287.077 183.051,302.65L183.5,303.016C183.349,303.139 183.349,303.139 183.5,303.016L183.843,303.294C198.409,315.004 216.894,322 237,322C257.49,322 276.296,314.734 291,302.623C291.097,302.703 291.08,302.697 344.381,321.984C319.294,353.681 280.501,374 237,374C193.499,374 154.706,353.681 129.624,321.99L129.19,321.442Z" style="fill:white;"/>
        </g>
    </g>
</svg>
