<svg width="520" height="543" viewBox="0 0 520 543" fill="none" xmlns="http://www.w3.org/2000/svg">
<g opacity="0.1">
<path d="M55.0983 435.384C57.7366 436.534 60.5131 436.319 63.3355 436.319H478.586C481.654 436.319 485.535 436.979 488.342 435.445C489.585 434.77 487.483 433.251 486.547 433.758C483.74 435.292 478.878 434.448 475.81 434.448H62.6606C60.3903 434.448 57.9054 434.755 55.7579 433.834C54.2239 433.175 53.595 434.724 55.0983 435.368V435.384Z" fill="#138175"/>
<path d="M479.816 442.654C476.932 443.943 473.435 443.436 470.352 443.436H73.6306C70.0412 443.436 65.1786 444.234 61.8193 442.915C62.1415 443.038 62.8778 444.449 63.5834 444.802C66.0837 445.783 69.1669 445.323 71.7899 445.323H470.643C474.186 445.323 478.42 446.013 481.718 444.541C481.718 444.541 480.307 442.439 479.816 442.654Z" fill="#138175"/>
<path d="M69.2737 453.608C71.82 454.728 74.6732 454.391 77.4036 454.391H464.967C467.561 454.629 470.176 454.31 472.637 453.455C473.204 453.21 474.999 451.553 473.465 452.228C470.397 453.578 466.102 452.872 462.727 452.872H81.6372C78.3239 452.872 74.4891 453.44 71.3752 452.09C70.777 451.829 68.9209 453.455 69.2737 453.624V453.608Z" fill="#138175"/>
<path d="M78.0792 461.322C80.5489 462.396 83.1872 462.15 85.7489 462.15H457.421C460.489 462.15 463.832 462.595 466.716 461.337C467.115 461.169 465.735 458.96 465.029 459.266C462.114 460.524 458.54 460.018 455.442 460.018H88.1111C84.5984 460.018 80.2267 460.693 76.9595 459.282C76.2692 458.99 77.481 461.092 78.0792 461.353V461.322Z" fill="#138175"/>
<path d="M84.9648 469.378C89.2905 471.096 94.5673 470.283 99.1077 470.283H440.914C446.666 470.283 452.495 470.819 458.094 469.347C459.183 469.055 456.56 468.979 456.176 469.101C453.15 469.714 450.056 469.931 446.973 469.746H100.32C96.3926 469.746 91.1159 470.543 87.5265 469.086C86.8209 468.81 85.1182 469.439 84.9648 469.378V469.378Z" fill="#138175"/>
<path d="M96.5153 479.225C100.872 481.143 106.563 480.176 111.21 480.176H439.993C442.41 480.4 444.847 480.107 447.141 479.317C448.675 478.673 446.543 477.323 445.608 477.783C442.985 478.934 439.84 478.489 437.033 478.489H107.667C104.599 478.489 100.504 479.148 97.5737 477.86C96.3005 477.308 94.8893 478.55 96.5306 479.256L96.5153 479.225Z" fill="#138175"/>
<path d="M108.142 488.35C112.636 489.807 117.545 489.286 122.208 489.286H419.99C425.175 489.286 431.05 490.068 436.05 488.442C437.063 488.12 434.808 486.908 434.072 487.108C428.994 488.749 422.751 487.844 417.459 487.844H118.603C115.305 487.844 111.716 488.227 108.54 487.2C107.007 486.709 106.623 487.844 108.142 488.335V488.35Z" fill="#138175"/>
<path d="M267.042 0.176923V322.303C267.042 322.932 268.576 324.834 268.576 324.036V1.92561C268.576 1.29669 267.042 -0.605382 267.042 0.192263V0.176923Z" fill="#138175"/>
<path d="M275.51 1.12811V322.702C275.51 323.913 278.163 324.236 278.163 323.054V1.52694C278.163 0.31513 275.51 -0.00699556 275.51 1.17413V1.12811Z" fill="#138175"/>
<path d="M257.378 1.08287C257.378 43.1228 257.378 85.1679 257.378 127.218C257.378 169.442 257.378 211.666 257.378 253.89C257.378 265.65 257.378 277.411 257.378 289.171V315.355C257.378 317.717 257.025 320.171 258.007 322.38C258.421 323.316 260.845 323.914 260.201 322.38C259.203 320.125 259.802 316.597 259.802 314.174V290.659C259.802 280.146 259.802 269.633 259.802 259.121C259.802 238.454 259.802 217.787 259.802 197.119C259.802 155.611 259.802 114.103 259.802 72.5948C259.802 49.0745 259.802 25.5542 259.802 2.03391C259.802 1.00618 257.378 -0.0675753 257.378 1.0522V1.08287Z" fill="#138175"/>
<path d="M284.76 1.5259C284.76 43.2182 284.76 84.9053 284.76 126.587C284.76 168.269 284.76 209.957 284.76 251.649C284.76 263.409 284.76 275.169 284.76 286.929C284.76 292.625 284.76 298.326 284.76 304.033C284.76 307.1 284.76 310.127 284.76 313.113V317.393C284.76 318.927 285.128 320.599 284.346 321.995C283.825 322.854 286.386 323.529 286.816 322.839C287.797 321.213 287.399 319.311 287.399 317.455C287.399 314.601 287.399 311.753 287.399 308.91C287.399 303.746 287.399 298.582 287.399 293.418C287.399 282.905 287.399 272.393 287.399 261.88C287.399 240.855 287.399 219.835 287.399 198.82C287.399 156.954 287.399 115.088 287.399 73.2219C287.399 49.5277 287.399 25.8336 287.399 2.13947C287.399 1.18843 284.776 0.82029 284.776 1.61793L284.76 1.5259Z" fill="#138175"/>
<path d="M291.999 1.52656C292.827 3.47465 292.183 6.86464 292.183 8.96613C292.183 11.6352 292.183 14.3042 292.183 16.9733C292.183 22.0864 292.183 27.2455 292.183 32.4506C292.183 42.7689 292.183 53.0871 292.183 63.4054C292.183 84.0419 292.183 104.683 292.183 125.33C292.183 166.787 292.183 208.244 292.183 249.701C292.183 261.267 292.183 272.833 292.183 284.399C292.183 290.095 292.183 295.791 292.183 301.487C292.183 304.555 292.183 307.582 292.183 310.568V314.832C292.407 316.421 292.339 318.038 291.983 319.603C291.538 320.646 294.177 320.815 294.576 319.863C295.297 318.161 294.852 315.967 294.852 314.142C294.852 311.299 294.852 308.451 294.852 305.598C294.852 300.485 294.852 295.326 294.852 290.121C294.852 279.618 294.852 269.121 294.852 258.629C294.852 237.634 294.852 216.64 294.852 195.646C294.852 153.831 294.852 112.016 294.852 70.2007C294.852 58.461 294.852 46.7009 294.852 34.9203C294.852 29.0504 294.852 23.1806 294.852 17.3107C294.852 14.4678 294.852 11.6198 294.852 8.76671C294.852 6.37378 295.496 3.13718 294.545 0.912983C294.161 -0.00737677 291.477 0.376106 291.999 1.48054V1.52656Z" fill="#138175"/>
<path d="M248.498 2.34083C247.9 12.3881 248.375 22.5887 248.375 32.6513C248.375 43.1434 248.375 53.6355 248.375 64.1276C248.375 84.7539 248.375 105.385 248.375 126.022C248.375 167.458 248.375 208.875 248.375 250.27C248.375 262.01 248.375 273.77 248.375 285.551C248.375 291.247 248.375 296.938 248.375 302.623C248.375 305.691 248.375 308.713 248.375 311.689C248.375 313.898 247.777 316.69 248.958 318.638C249.342 319.267 251.888 318.638 251.428 317.84C250.354 316.045 250.999 312.655 250.999 310.631C250.999 307.961 250.999 305.292 250.999 302.623C250.999 297.51 250.999 292.351 250.999 287.146C250.999 276.828 250.999 266.515 250.999 256.207C250.999 235.58 250.999 214.949 250.999 194.312C250.999 153.234 250.999 112.15 250.999 71.061C250.999 59.5054 250.999 47.9446 250.999 36.3788C250.999 24.905 250.446 13.2624 251.121 1.80395C251.121 1.17504 248.544 1.43581 248.498 2.32549V2.34083Z" fill="#138175"/>
<path d="M301.955 1.52637C301.356 11.5736 301.832 21.7589 301.832 31.8215C301.832 41.8841 301.832 52.0848 301.832 62.2241C301.832 82.6765 301.832 103.129 301.832 123.581C301.832 164.486 301.832 205.391 301.832 246.296C301.832 257.852 301.832 269.407 301.832 280.963C301.832 286.649 301.832 292.339 301.832 298.035C301.832 300.878 301.832 303.721 301.832 306.564C301.832 309.249 302.399 312.7 301.08 315.139C300.758 315.737 302.476 317.348 302.415 317.455C303.117 315.893 303.397 314.174 303.228 312.47C303.228 309.801 303.228 307.132 303.228 304.463C303.228 299.35 303.228 294.196 303.228 289.001C303.228 278.693 303.228 268.379 303.228 258.061C303.228 237.435 303.228 216.814 303.228 196.198C303.228 155.129 303.228 114.066 303.228 73.0076C303.228 61.452 303.228 49.8964 303.228 38.3407C303.228 26.8669 302.676 15.2244 303.351 3.76591C303.351 3.04496 301.955 1.74112 301.97 1.58772L301.955 1.52637Z" fill="#138175"/>
<path d="M239.294 2.86173C239.294 43.6746 239.294 84.4925 239.294 125.316C239.294 165.955 239.294 206.593 239.294 247.232C239.294 258.645 239.294 270.052 239.294 281.455C239.294 287.161 239.294 292.867 239.294 298.573V307.133C239.048 309.428 239.267 311.75 239.938 313.959C240.46 315.216 242.899 314.864 242.254 313.314C241.303 310.998 241.886 307.424 241.886 304.939V297.453C241.886 292.463 241.886 287.473 241.886 282.482C241.886 272.317 241.886 262.158 241.886 252.003C241.886 231.857 241.886 211.717 241.886 191.581C241.886 151.474 241.886 111.372 241.886 71.2751C241.886 48.6343 241.886 25.9985 241.886 3.36793C241.886 2.03341 239.294 1.41984 239.294 2.89241V2.86173Z" fill="#138175"/>
<path d="M310.312 3.49052C310.895 13.2003 310.435 23.0482 310.435 32.7733C310.435 42.7438 310.435 52.7195 310.435 62.7003C310.435 82.4778 310.435 102.25 310.435 122.017C310.435 161.746 310.435 201.47 310.435 241.189C310.435 252.437 310.435 263.661 310.435 274.858C310.435 280.381 310.435 285.903 310.435 291.425C310.435 294.094 310.435 296.768 310.435 299.447C310.701 302.536 310.446 305.647 309.683 308.651C309.254 309.909 311.8 310.722 312.23 309.449C313.687 305.23 313.058 300.398 313.058 296.011C313.058 291.021 313.058 286.036 313.058 281.056C313.058 271.085 313.058 261.109 313.058 251.129C313.058 231.003 313.058 210.873 313.058 190.738C313.058 150.855 313.058 110.973 313.058 71.0909C313.058 59.8421 313.058 48.6188 313.058 37.4211C313.058 26.2847 313.595 14.9797 312.935 3.85866C312.935 2.57016 310.236 2.17134 310.312 3.59789V3.49052Z" fill="#138175"/>
<path d="M119.42 496.85C123.684 498.245 128.209 497.908 132.627 497.908H411.803C415.74 498.075 419.677 497.599 423.461 496.497C424.995 495.975 422.525 496.389 422.08 496.497C419.068 497.21 415.962 497.443 412.876 497.187H138.057C132.75 497.187 127.028 497.831 121.92 496.144C121.23 495.914 119.696 496.911 119.435 496.819L119.42 496.85Z" fill="#138175"/>
<path d="M230.691 2.80088C230.108 4.47898 229.904 6.26524 230.093 8.03159V15.5172C230.093 20.5076 230.093 25.498 230.093 30.4884C230.093 40.4691 230.093 50.4499 230.093 60.4307C230.093 80.3923 230.093 100.333 230.093 120.254C230.093 160.136 230.093 200.054 230.093 240.008C230.093 251.052 230.093 262.102 230.093 273.156C230.093 278.863 230.093 284.564 230.093 290.26C230.093 292.929 230.093 295.603 230.093 298.282C230.161 300.661 230.449 303.028 230.952 305.354C231.182 306.642 233.605 307.01 233.329 305.354C232.882 303.218 232.625 301.046 232.562 298.865C232.562 296.196 232.562 293.522 232.562 290.843C232.562 286.026 232.562 281.215 232.562 276.408C232.562 266.612 232.562 256.81 232.562 247.003C232.562 227.225 232.562 207.443 232.562 187.655C232.562 148.448 232.562 109.24 232.562 70.0331C232.562 58.9888 232.562 47.9394 232.562 36.8849C232.562 31.3627 232.562 25.8405 232.562 20.3184V11.8204C232.562 9.38145 231.995 6.17553 233.038 3.92065C233.575 2.7702 231.274 1.4817 230.66 2.78554L230.691 2.80088Z" fill="#138175"/>
<path d="M319.503 4.97645C319.503 43.0486 319.503 81.1208 319.503 119.193C319.503 157.091 319.503 194.99 319.503 232.888C319.503 243.564 319.503 254.24 319.503 264.917C319.503 270.255 319.503 275.593 319.503 280.931C319.503 286.223 320.24 292.144 318.736 297.267C318.384 298.479 320.792 299.568 321.206 298.188C322.402 294.123 322.004 289.766 322.004 285.579C322.004 280.772 322.004 275.971 322.004 271.175C322.004 261.573 322.004 251.965 322.004 242.352C322.004 223.311 322.004 204.275 322.004 185.244C322.004 146.988 322.004 108.737 322.004 70.4907C322.004 48.7804 322.004 27.0753 322.004 5.37527C322.004 4.11745 319.519 3.44252 319.519 4.99179L319.503 4.97645Z" fill="#138175"/>
<path d="M222.941 5.16123C222.389 14.3648 222.818 23.6758 222.818 32.8641C222.818 42.3131 222.818 51.7621 222.818 61.2111C222.818 80.1092 222.818 99.0277 222.818 117.967C222.818 155.804 222.818 193.605 222.818 231.37C222.818 242.067 222.818 252.763 222.818 263.46C222.818 268.635 222.818 273.804 222.818 278.968C222.818 283.861 222.65 288.601 223.907 293.372C224.153 294.292 226.408 295.412 226.009 293.909C225.096 289.518 224.761 285.026 225.012 280.548C225.012 275.732 225.012 270.915 225.012 266.098C225.012 256.823 225.012 247.553 225.012 238.288C225.012 219.39 225.012 200.472 225.012 181.533C225.012 144.084 225.012 106.641 225.012 69.2029C225.012 58.6801 225.012 48.1574 225.012 37.6346C225.012 27.1885 224.521 16.6044 225.135 6.17363C225.135 5.23793 223.018 3.81137 222.941 5.13056V5.16123Z" fill="#138175"/>
<path d="M135.737 506.298C139.254 507.109 142.871 507.409 146.474 507.187H395.554C400.156 507.187 404.926 507.694 409.359 506.405C410.218 506.16 408.01 504.948 407.365 505.147C403.27 506.344 398.806 505.899 394.588 505.899H150.877C145.891 505.899 140.139 506.635 135.384 505.209C133.62 504.687 134.678 505.991 135.721 506.298H135.737Z" fill="#138175"/>
<path d="M390.415 514.366C386.442 515.363 382.178 515.041 378.143 515.041H167.366C162.764 515.041 157.855 515.485 153.376 514.35C152.517 514.136 150.216 515.271 151.658 515.639C158.714 517.418 166.584 516.513 173.808 516.513H379.754C383.631 516.699 387.517 516.4 391.32 515.623C393.069 515.179 391.657 514.09 390.415 514.35V514.366Z" fill="#138175"/>
<path d="M373.82 521.867C367.071 523.278 360.015 522.864 353.204 522.864H193.522C185.576 522.864 177.17 523.631 169.362 521.928C168.396 521.714 166.755 522.066 168.565 522.465C174.7 523.815 181.02 523.631 187.294 523.631H354.999C362.024 523.631 369.157 523.984 376.075 522.542C376.612 522.435 374.418 521.76 373.836 521.882L373.82 521.867Z" fill="#138175"/>
<path d="M48.5344 426.779C50.2586 427.505 52.1291 427.815 53.9952 427.684H204.643C211.269 427.684 217.942 427.285 224.492 428.436C226.026 428.696 225.596 426.135 224.369 425.92C219.322 425.188 214.218 424.921 209.122 425.122C203.308 425.122 197.51 425.122 191.696 425.122H59.2105C56.1427 425.122 51.8323 425.843 48.9485 424.447C47.4146 423.727 47.4146 426.212 48.5344 426.764V426.779Z" fill="#138175"/>
<path d="M490.091 425.261C487.806 426.089 484.615 425.506 482.192 425.506H335.931C329.928 425.236 323.912 425.492 317.953 426.273C317.693 426.273 319.165 428.145 319.856 428.022C325.149 427.283 330.499 427.026 335.839 427.255C341.484 427.255 347.129 427.255 352.712 427.255H482.376C485.213 427.255 489.217 427.976 491.886 427.009C492.254 426.871 490.582 425.046 489.984 425.261H490.091Z" fill="#138175"/>
<path d="M42.2006 417.1C45.8667 418.864 50.4992 418.112 54.4721 418.112H182.034C188.17 418.112 194.858 417.315 200.779 418.802C202.497 419.232 202.312 417.422 200.886 417.069C196.583 416.238 192.193 415.944 187.817 416.195H52.8308C49.901 416.195 45.698 416.931 43.0136 415.643C41.4797 414.937 40.7587 416.379 42.2467 417.084L42.2006 417.1Z" fill="#138175"/>
<path d="M348.204 530.489C338.448 532.115 328.155 531.256 318.292 531.256H227.79C216.761 531.256 205.303 532.146 194.381 530.489C192.663 530.229 193.783 532.223 194.964 532.407C204.705 533.941 214.905 533.174 224.646 533.174H316.191C321.989 533.174 327.787 533.174 333.601 533.174C338.875 533.369 344.156 533.108 349.385 532.391C350.919 532.131 349.278 530.305 348.204 530.489V530.489Z" fill="#138175"/>
<path d="M493.726 415.688C491.548 416.654 488.541 416.179 486.21 416.179H357.973C352.635 416.179 346.975 415.642 341.759 416.961C341.376 417.053 342.818 419.108 343.401 418.955C348.002 417.805 352.804 418.173 357.482 418.173H488.388C490.704 418.173 493.404 418.587 495.567 417.636C495.766 417.544 494.37 415.412 493.741 415.688H493.726Z" fill="#138175"/>
<path d="M36.818 408.464C40.0239 410.182 44.4876 409.354 48.0463 409.354H174.58C177.665 409.133 180.765 409.36 183.784 410.029C185.318 410.473 186.622 408.357 184.965 407.866C181.023 406.7 176.912 406.976 172.832 406.976H46.2823C43.69 406.976 40.3767 407.559 38.0298 406.301C37.8878 406.224 37.7319 406.175 37.571 406.157C37.4101 406.14 37.2474 406.155 37.0921 406.2C36.9369 406.246 36.7921 406.322 36.6661 406.423C36.5401 406.525 36.4353 406.65 36.3578 406.792C36.2802 406.934 36.2314 407.09 36.2141 407.251C36.1968 407.412 36.2113 407.574 36.2569 407.73C36.3025 407.885 36.3782 408.03 36.4797 408.156C36.5813 408.282 36.7066 408.386 36.8486 408.464H36.818Z" fill="#138175"/>
<path d="M415.559 41.7461C416.556 43.6021 416.265 45.7957 416.265 47.8818C416.265 50.1827 416.265 52.4887 416.265 54.7999C416.265 59.5857 416.265 64.3716 416.265 69.1575C416.265 78.5553 416.265 87.9532 416.265 97.3511C416.265 116.147 416.265 134.948 416.265 153.754C416.265 158.867 416.265 164.011 416.265 169.185C416.265 171.844 416.265 174.503 416.265 177.162C416.037 179.171 416.333 181.206 417.124 183.067C417.553 183.865 420.192 183.282 419.624 182.331C418.627 180.475 418.918 178.281 418.918 176.195C418.918 173.894 418.918 171.588 418.918 169.277C418.918 164.491 418.918 159.705 418.918 154.92C418.918 145.522 418.918 136.124 418.918 126.726C418.918 107.93 418.918 89.1292 418.918 70.3232C418.918 65.2101 418.918 60.0664 418.918 54.8919C418.918 52.2331 418.918 49.5743 418.918 46.9154C419.146 44.9058 418.851 42.8712 418.059 41.0098C417.63 40.2122 414.992 40.7951 415.559 41.7461Z" fill="#138175"/>
<path d="M134.648 37.175C132.961 40.2429 133.82 44.9367 133.82 48.3881C133.82 53.1739 133.82 57.9598 133.82 62.7457C133.82 71.9493 133.82 81.1528 133.82 90.3564C133.82 108.978 133.82 127.6 133.82 146.222C133.82 151.54 133.82 156.863 133.82 162.19C133.82 164.675 133.82 167.16 133.82 169.645C133.82 171.793 134.541 175.919 133.36 177.883C132.976 178.512 134.357 180.659 134.679 180.107C135.584 178.573 135.231 177.039 135.231 175.26C135.231 172.959 135.231 170.658 135.231 168.342C135.231 163.556 135.231 158.77 135.231 153.984C135.231 144.78 135.231 135.577 135.231 126.373C135.231 107.751 135.231 89.1293 135.231 70.5074C135.231 65.1897 135.231 59.867 135.231 54.5391C135.231 52.0542 135.231 49.5692 135.231 47.0842C135.231 44.6146 134.756 41.6541 135.967 39.4146C136.32 38.755 134.924 36.6535 134.648 37.1904V37.175Z" fill="#138175"/>
<path d="M142.733 32.8641C142.187 34.7242 142.015 36.6741 142.227 38.601V46.0099C142.227 50.6424 142.227 55.2749 142.227 59.9074C142.227 69.1723 142.227 78.4373 142.227 87.7022C142.227 106.048 142.227 124.394 142.227 142.74C142.227 147.904 142.227 153.068 142.227 158.232C142.227 160.728 142.227 163.223 142.227 165.718C142.227 168.203 142.487 170.719 141.444 173.035C141.444 173.035 143.899 173.986 144.052 173.633C145.709 169.936 144.834 164.936 144.834 160.978C144.834 156.346 144.834 151.713 144.834 147.081C144.834 137.816 144.834 128.551 144.834 119.286C144.834 100.94 144.834 82.5942 144.834 64.2484C144.834 59.0841 144.834 53.9199 144.834 48.7557V41.3161C144.834 38.8004 144.374 35.8093 145.341 33.447C145.341 33.447 142.871 32.5113 142.733 32.8488V32.8641Z" fill="#138175"/>
<path d="M408.749 37.3728C409.439 39.2902 408.979 41.9746 408.979 44.0148C408.979 46.51 408.979 49 408.979 51.485C408.979 55.9334 408.979 60.3818 408.979 64.8302C408.979 74.0849 408.979 83.3448 408.979 92.6097C408.979 110.771 408.979 128.928 408.979 147.08C408.979 152.193 408.979 157.357 408.979 162.572C408.979 165.241 408.979 167.91 408.979 170.579C408.979 172.65 408.534 175.181 409.24 177.099C409.516 177.866 411.878 178.955 411.495 177.912C410.805 175.994 411.265 173.31 411.265 171.27C411.265 168.775 411.265 166.284 411.265 163.8C411.265 159.351 411.265 154.903 411.265 150.454C411.265 141.2 411.265 131.94 411.265 122.675C411.265 104.513 411.265 86.3564 411.265 68.2049C411.265 63.0918 411.265 57.9275 411.265 52.7122C411.265 50.0431 411.265 47.3741 411.265 44.705C411.265 42.6342 411.71 40.1032 411.004 38.1858C410.728 37.4188 408.366 36.3298 408.749 37.3728V37.3728Z" fill="#138175"/>
<path d="M399.085 31.9746C400.726 35.7635 399.867 40.8561 399.867 44.8904C399.867 49.349 399.867 53.8076 399.867 58.2662C399.867 67.5312 399.867 76.8012 399.867 86.0764C399.867 104.259 399.867 122.441 399.867 140.623C399.867 145.787 399.867 150.957 399.867 156.131C399.867 158.8 399.867 161.474 399.867 164.154C399.633 166.529 399.899 168.928 400.649 171.194C401.018 172.038 403.549 171.194 403.226 170.489C401.585 166.7 402.444 161.607 402.444 157.573C402.444 153.114 402.444 148.656 402.444 144.197C402.444 134.932 402.444 125.662 402.444 116.387C402.444 98.2047 402.444 80.0225 402.444 61.8403C402.444 56.6761 402.444 51.5067 402.444 46.3322C402.444 43.6632 402.444 40.989 402.444 38.3098C402.679 35.934 402.412 33.5354 401.662 31.269C401.294 30.4254 398.763 31.269 399.085 31.9746V31.9746Z" fill="#138175"/>
<path d="M124.772 43.8299C124.268 45.3876 124.09 47.0325 124.25 48.6618C124.25 51.1468 124.25 53.6318 124.25 56.1167C124.25 60.5549 124.25 64.9982 124.25 69.4466C124.25 78.6502 124.25 87.8896 124.25 97.1648C124.25 115.286 124.25 133.406 124.25 151.527C124.25 162.009 124.25 172.491 124.25 182.973C124.25 183.817 126.919 183.74 126.919 182.85C126.919 146.966 126.919 111.083 126.919 75.1988C126.919 70.0857 126.919 64.9317 126.919 59.7368C126.919 57.2518 126.919 54.7669 126.919 52.2819C126.919 49.7202 126.398 46.4683 127.395 44.06C127.748 43.201 125.125 43.063 124.803 43.8453L124.772 43.8299Z" fill="#138175"/>
<path d="M171.616 398.815C168.088 397.281 163.517 397.972 159.728 397.972H41.6152C39.2222 397.972 35.7095 398.616 33.4547 397.787C31.9207 397.22 32.0128 399.72 33.2706 400.165C34.9066 400.559 36.5992 400.663 38.2712 400.472H163.9C166.416 400.472 169.116 400.134 171.463 401.193C172.996 401.868 172.843 399.352 171.647 398.815H171.616Z" fill="#138175"/>
<path d="M425.116 48.266C426.113 49.9226 425.499 53.328 425.499 55.1994C425.499 57.5105 425.499 59.8165 425.499 62.1174C425.499 66.7294 425.499 71.3312 425.499 75.9228C425.499 84.7991 425.499 93.6755 425.499 102.552C425.499 120.489 425.499 138.42 425.499 156.347C425.499 161.46 425.499 166.609 425.499 171.794C425.499 176.395 425.008 181.181 425.775 185.676C425.944 186.642 428.583 186.826 428.383 185.676C427.616 181.166 428.138 176.227 428.138 171.671C428.138 167.115 428.138 162.789 428.138 158.356C428.138 149.153 428.138 139.918 428.138 130.653C428.138 112.543 428.138 94.4322 428.138 76.3216C428.138 71.2085 428.138 66.0596 428.138 60.8749C428.138 58.2161 428.138 55.5522 428.138 52.8831C428.138 51.0577 428.475 49.4011 427.509 47.7905C427.018 46.9775 424.441 47.0542 425.116 48.22V48.266Z" fill="#138175"/>
<path d="M494.971 406.943H371.413C366.934 406.943 362.347 406.59 358.037 408.017C356.503 408.523 357.699 410.808 358.988 410.379C364.203 408.661 370.094 409.351 375.508 409.351H495.324C497.011 409.351 496.382 406.943 494.971 406.943Z" fill="#138175"/>
<path d="M151.968 28.3537C150.971 30.6086 151.461 33.5384 151.461 36.0234C151.461 38.8765 151.461 41.7245 151.461 44.5674C151.461 50.2634 151.461 55.9594 151.461 61.6554C151.461 73.0474 151.461 84.4445 151.461 95.8467C151.461 107.249 151.461 118.646 151.461 130.038C151.461 135.734 151.461 141.43 151.461 147.126C151.461 149.979 151.461 152.827 151.461 155.67C151.461 158.155 151.722 160.671 150.679 162.987C150.572 163.217 153.057 163.953 153.333 163.355C154.376 161.039 154.115 158.523 154.115 156.038C154.115 153.185 154.115 150.337 154.115 147.494C154.115 141.798 154.115 136.102 154.115 130.406C154.115 119.014 154.115 107.617 154.115 96.2149C154.115 84.8126 154.115 73.4155 154.115 62.0235C154.115 56.3275 154.115 50.6315 154.115 44.9355C154.115 42.0824 154.115 39.2344 154.115 36.3915C154.115 33.9679 153.624 31.0381 154.621 28.7219C154.729 28.4764 152.228 27.7555 151.968 28.3537Z" fill="#138175"/>
<path d="M115.568 50.3532C115.186 51.7299 115.071 53.1671 115.231 54.5869C115.231 56.8878 115.231 59.1887 115.231 61.4896C115.231 65.9175 115.231 70.3455 115.231 74.7734C115.231 83.6293 115.231 92.4852 115.231 101.341C115.231 119.227 115.231 137.123 115.231 155.029C115.231 165.122 115.231 175.215 115.231 185.309C115.231 186.72 117.424 187.441 117.424 185.692C117.424 163.378 117.424 141.065 117.424 118.751C117.424 107.768 117.424 96.7905 117.424 85.8177C117.424 80.1524 117.424 74.4871 117.424 68.8218C117.424 65.9891 117.424 63.1564 117.424 60.3238C117.424 58.9023 117.424 57.486 117.424 56.0748C117.252 54.711 117.298 53.3283 117.562 51.9792C117.992 50.7827 116.028 48.9113 115.584 50.4453L115.568 50.3532Z" fill="#138175"/>
<path d="M390.08 27.3124C390.595 29.798 390.77 32.3419 390.601 34.8747C390.601 37.7176 390.601 40.5553 390.601 43.388C390.601 49.0635 390.601 54.7442 390.601 60.43C390.601 71.7913 390.601 83.1475 390.601 94.4986C390.601 105.85 390.601 117.206 390.601 128.567C390.601 134.243 390.601 139.923 390.601 145.609C390.601 150.671 389.666 156.623 391.645 161.393C392.028 162.329 394.59 161.593 394.237 160.749C392.273 155.979 393.194 150.012 393.194 144.965C393.194 139.289 393.194 133.609 393.194 127.923C393.194 116.562 393.194 105.205 393.194 93.8544C393.194 82.5033 393.194 71.1471 393.194 59.7857C393.194 54.1102 393.194 48.4295 393.194 42.7437C393.194 39.9009 393.194 37.0631 393.194 34.2304C393.363 31.6977 393.187 29.1537 392.672 26.6681C392.412 25.7324 389.819 26.3767 390.08 27.3124V27.3124Z" fill="#138175"/>
<path d="M162.092 391.298C157.352 389.765 151.891 390.47 146.967 390.47H33.0729C31.5384 390.656 29.9838 390.588 28.4711 390.271C27.9496 390.087 29.3301 391.927 29.867 392.127C31.9685 392.894 34.6222 392.418 36.8464 392.418H146.538C151.937 392.418 158.303 391.483 163.488 393.155C164.025 393.323 162.644 391.467 162.092 391.298Z" fill="#138175"/>
<path d="M434.81 54.3861C435.093 55.7636 435.15 57.1779 434.979 58.5737C434.979 59.9952 434.979 61.4166 434.979 62.8381C434.979 65.681 434.979 68.5238 434.979 71.3667C434.979 77.0525 434.979 82.7383 434.979 88.4241C434.979 99.4377 434.979 110.456 434.979 121.48C434.979 132.504 434.979 143.523 434.979 154.537C434.979 160.222 434.979 165.908 434.979 171.594C434.979 174.437 434.979 177.28 434.979 180.123C434.728 182.217 434.837 184.339 435.301 186.396C435.577 187.163 437.387 188.697 436.835 187.087C436.552 185.709 436.495 184.295 436.666 182.899C436.666 181.477 436.666 180.056 436.666 178.635C436.666 175.792 436.666 172.949 436.666 170.106C436.666 164.42 436.666 158.734 436.666 153.049C436.666 142.035 436.666 131.016 436.666 119.992C436.666 108.969 436.666 97.9498 436.666 86.9361C436.666 81.2504 436.666 75.5646 436.666 69.8788C436.666 67.0359 436.666 64.193 436.666 61.3502C436.917 59.2558 436.808 57.134 436.344 55.0764C436.068 54.3094 434.258 52.7755 434.81 54.3861V54.3861Z" fill="#138175"/>
<path d="M106.778 56.7479C106.031 58.8932 105.748 61.173 105.95 63.4358C105.95 66.2889 105.95 69.142 105.95 71.9951C105.95 77.3435 105.95 82.6866 105.95 88.0247C105.95 98.8952 105.95 109.766 105.95 120.636C105.95 142.551 105.95 164.466 105.95 186.38C105.95 187.27 108.619 187.193 108.619 186.258C108.619 164.701 108.619 143.139 108.619 121.572C108.619 110.885 108.619 100.194 108.619 89.4973C108.619 84.149 108.619 78.8058 108.619 73.4677C108.619 70.7987 108.619 68.1245 108.619 65.4452C108.619 62.6688 108.22 59.5856 109.355 56.978C109.739 56.0883 107.116 55.9502 106.763 56.7479H106.778Z" fill="#138175"/>
<path d="M161.064 24.3826C159.99 26.1773 160.557 28.785 160.542 30.8098C160.542 33.6527 160.542 36.4956 160.542 39.3385C160.542 44.6663 160.542 49.9942 160.542 55.3221C160.542 66.1516 160.542 76.9863 160.542 87.8261C160.542 98.6659 160.542 109.501 160.542 120.33C160.542 125.658 160.542 130.986 160.542 136.314C160.542 139.157 160.542 141.999 160.542 144.842C160.542 147.649 160.91 150.702 159.775 153.325C159.484 154 161.923 155.104 162.214 154.429C162.947 152.297 163.219 150.033 163.012 147.787C163.012 144.945 163.012 142.102 163.012 139.259C163.012 133.931 163.012 128.603 163.012 123.275C163.012 112.446 163.012 101.611 163.012 90.7712C163.012 79.9314 163.012 69.0968 163.012 58.2672C163.012 52.9394 163.012 47.6115 163.012 42.2836C163.012 39.4407 163.012 36.5979 163.012 33.755C163.012 31.4081 162.291 27.5119 163.503 25.4871C163.84 24.9195 161.478 23.7077 161.064 24.3826Z" fill="#138175"/>
<path d="M381.675 24.5348C381.675 46.1939 381.675 67.8479 381.675 89.4968C381.675 100.142 381.675 110.793 381.675 121.449C381.675 126.776 381.675 132.099 381.675 137.417C381.675 140.26 381.675 143.098 381.675 145.93C381.486 148.126 381.785 150.336 382.55 152.403C383.056 153.523 385.387 152.204 384.85 151.054C383.731 148.569 384.145 145.577 384.145 142.924C384.145 140.27 384.145 137.954 384.145 135.469C384.145 130.141 384.145 124.818 384.145 119.501C384.145 108.855 384.145 98.2044 384.145 87.5487C384.145 66.2475 384.145 44.9463 384.145 23.6451C384.145 22.3566 381.66 23.323 381.66 24.5195L381.675 24.5348Z" fill="#138175"/>
<path d="M152.888 382.172C151.003 381.469 148.99 381.176 146.982 381.313H58.2904C47.2308 381.313 36.0024 381.85 24.9581 381.19C23.6389 381.114 24.7894 383.445 25.7251 383.491C35.8644 384.089 46.1417 383.614 56.2963 383.614H143.93C146.998 383.614 150.357 383.092 153.133 384.32C154.545 384.933 153.716 382.556 152.857 382.172H152.888Z" fill="#138175"/>
<path d="M443.138 60.5987C444.319 63.2064 443.89 66.2896 443.89 69.0814C443.89 71.5766 443.89 74.0718 443.89 76.567C443.89 81.905 443.89 87.2482 443.89 92.5966C443.89 102.925 443.89 113.254 443.89 123.582C443.89 133.91 443.89 144.239 443.89 154.567C443.89 159.905 443.89 165.249 443.89 170.597C443.89 173.092 443.89 175.587 443.89 178.083C443.89 179.504 443.89 180.931 443.89 182.362C444.094 183.62 444.026 184.907 443.69 186.136C443.276 186.903 445.608 188.222 446.022 187.455C446.911 185.814 446.298 183.053 446.298 181.212C446.298 178.359 446.298 175.511 446.298 172.668C446.298 167.33 446.298 161.987 446.298 156.638C446.298 145.952 446.298 135.271 446.298 124.594C446.298 113.918 446.298 103.237 446.298 92.5505C446.298 87.2125 446.298 81.8693 446.298 76.5209C446.298 73.6678 446.298 70.8198 446.298 67.9769C446.519 65.6975 446.231 63.3975 445.454 61.243C445.132 60.5374 442.693 59.7091 443.138 60.6448V60.5987Z" fill="#138175"/>
<path d="M168.027 21.774C168.027 42.5128 168.027 63.2515 168.027 83.9903C168.027 94.2676 168.027 104.55 168.027 114.838C168.027 119.951 168.027 125.089 168.027 130.254C168.027 132.739 168.027 135.219 168.027 137.693C168.027 140.454 168.595 143.829 167.353 146.406C166.831 147.495 169.009 149.014 169.5 147.94C171.31 144.212 170.405 139.15 170.405 135.116C170.405 129.799 170.405 124.481 170.405 119.163C170.405 108.354 170.405 97.5452 170.405 86.736C170.405 65.261 170.405 43.8166 170.405 22.4029C170.405 21.3138 168.027 20.2861 168.027 21.7433V21.774Z" fill="#138175"/>
<path d="M20.4945 374.101C22.596 375.037 25.0963 374.684 27.2898 374.684H136.69C139.359 374.684 142.826 374.086 145.326 375.129C146.86 375.743 146.384 373.288 145.326 372.843C143.117 371.923 140.632 372.261 138.27 372.261H28.8698C26.3081 372.261 22.8721 372.874 20.4945 371.816C18.9606 371.156 19.4514 373.641 20.4945 374.101Z" fill="#138175"/>
<path d="M372.102 20.1327C372.931 22.4029 372.348 25.6242 372.348 28.0478C372.348 30.4714 372.348 33.0331 372.348 35.5334C372.348 40.8817 372.348 46.23 372.348 51.5783C372.348 61.917 372.348 72.2557 372.348 82.5944C372.348 92.9331 372.348 103.272 372.348 113.611C372.348 118.959 372.348 124.307 372.348 129.655C372.348 132.151 372.348 134.646 372.348 137.141C372.348 139.626 372.087 142.142 373.13 144.458C373.452 145.179 375.968 144.366 375.723 143.798C374.679 141.482 374.94 138.966 374.94 136.481C374.94 133.997 374.94 131.496 374.94 128.996C374.94 123.648 374.94 118.299 374.94 112.951C374.94 102.612 374.94 92.2736 374.94 81.9348C374.94 71.5961 374.94 61.2574 374.94 50.9187C374.94 45.5704 374.94 40.2221 374.94 34.8738C374.94 32.3786 374.94 29.8834 374.94 27.3882C374.94 24.9646 375.523 21.7433 374.695 19.4731C374.434 18.7675 371.872 19.4731 372.102 20.1327V20.1327Z" fill="#138175"/>
<path d="M99.7065 61.8112C98.8168 63.9587 99.1696 66.413 99.1696 68.6833C99.1696 70.9535 99.1696 73.6532 99.1696 76.1535C99.1696 81.1337 99.1696 86.1087 99.1696 91.0787C99.1696 101.561 99.1696 112.048 99.1696 122.54C99.1696 143.329 99.1696 164.125 99.1696 184.925C99.1696 185.661 100.596 186.919 100.596 187.072C100.596 166.62 100.596 146.167 100.596 125.715C100.596 115.581 100.596 105.452 100.596 95.3277C100.596 90.3475 100.596 85.3724 100.596 80.4025C100.596 77.9175 100.596 75.4274 100.596 72.9322C100.596 70.1865 100.013 66.6585 101.087 64.0815C101.363 63.4065 99.6298 61.9646 99.7065 61.7959V61.8112Z" fill="#138175"/>
<path d="M494.125 398.54H383.974C379.541 398.54 374.77 398.003 370.49 399.384C369.11 399.829 371.487 400.764 372.224 400.519C377.086 398.985 383.161 399.798 388.238 399.798H494.647C496.457 399.798 495.352 398.525 494.125 398.525V398.54Z" fill="#138175"/>
<path d="M177.676 17.0335C176.756 19.1197 177.124 21.6353 177.124 23.7982C177.124 26.2729 177.124 28.7477 177.124 31.2224C177.124 36.5196 177.124 41.8219 177.124 47.1293C177.124 57.3555 177.124 67.5817 177.124 77.8079C177.124 88.0341 177.124 98.2604 177.124 108.487C177.124 113.784 177.124 119.086 177.124 124.393C177.124 126.868 177.124 129.343 177.124 131.818C177.124 134.395 177.538 137.278 176.372 139.671C175.82 140.807 178.459 141.113 178.965 140.086C179.709 138.131 179.992 136.032 179.793 133.95C179.793 131.475 179.793 129 179.793 126.526C179.793 121.228 179.793 115.926 179.793 110.619C179.793 100.393 179.793 90.1663 179.793 79.9401C179.793 69.7139 179.793 59.4877 179.793 49.2615C179.793 43.9643 179.793 38.662 179.793 33.3546C179.793 30.8798 179.793 28.4051 179.793 25.9303C179.793 23.338 179.195 19.948 180.269 17.5244C180.79 16.3586 178.136 15.9905 177.676 17.1102V17.0335Z" fill="#138175"/>
<path d="M16.4572 364.808C18.4026 365.476 20.4704 365.712 22.5163 365.498H129.646C132.3 365.498 135.782 364.915 138.205 366.096C139.739 366.848 140.445 364.562 139.08 363.903C135.306 362.077 130.214 362.936 126.149 362.936H26.4431C23.8355 362.936 19.7705 363.673 17.3316 362.599C15.7977 361.893 15.0767 364.133 16.4572 364.792V364.808Z" fill="#138175"/>
<path d="M362.624 15.9301C363.836 18.1696 363.361 21.1148 363.361 23.5998C363.361 26.0847 363.361 28.5697 363.361 31.0547C363.361 36.0246 363.361 40.9997 363.361 45.9798C363.361 56.2776 363.361 66.5805 363.361 76.8886C363.361 87.1966 363.361 97.4995 363.361 107.797C363.361 112.767 363.361 117.742 363.361 122.722C363.361 125.207 363.361 127.692 363.361 130.177C363.361 132.248 362.808 134.779 363.913 136.666C364.45 137.556 367.073 137.172 366.49 136.19C365.278 134.15 366.045 130.3 366.045 127.999C366.045 125.698 366.045 123.029 366.045 120.544C366.045 115.574 366.045 110.599 366.045 105.619C366.045 95.3213 366.045 85.0184 366.045 74.7104C366.045 64.4023 366.045 54.0994 366.045 43.8016C366.045 38.8317 366.045 33.8566 366.045 28.8765C366.045 26.3915 366.045 23.9065 366.045 21.4216C366.277 19.4032 365.987 17.3591 365.201 15.4853C364.711 14.5649 362.133 14.933 362.624 15.9608V15.9301Z" fill="#138175"/>
<path d="M186.925 13.7989C185.882 15.5322 186.357 17.7411 186.357 19.6892C186.357 22.348 186.357 25.0017 186.357 27.6503C186.357 32.61 186.357 37.5697 186.357 42.5294C186.357 52.6227 186.357 62.716 186.357 72.8092C186.357 82.9025 186.357 92.9958 186.357 103.089C186.357 108.049 186.357 113.008 186.357 117.968C186.357 122.846 187.063 128.399 185.851 133.139C185.651 133.936 187.814 135.424 188.044 134.535C189.179 130.086 188.551 124.978 188.551 120.422C188.551 115.463 188.551 110.503 188.551 105.543C188.551 95.4501 188.551 85.3568 188.551 75.2635C188.551 65.3441 188.551 55.4298 188.551 45.5206C188.551 40.5609 188.551 35.6012 188.551 30.6414C188.551 28.1667 188.551 25.6868 188.551 23.2019C188.551 21.0237 187.83 17.419 188.98 15.5322C189.44 14.7499 187.323 13.1546 186.925 13.8296V13.7989Z" fill="#138175"/>
<path d="M14.527 355.111C16.0406 355.67 17.6598 355.885 19.2669 355.74H124.08C126.535 355.74 130.032 355.096 132.364 355.939C132.64 356.047 131.075 354.697 130.538 354.498C128.6 354.073 126.603 353.979 124.633 354.221H20.8928C18.5306 354.221 15.3093 354.804 13.1004 353.823C12.1187 353.393 14.1589 354.927 14.527 355.096V355.111Z" fill="#138175"/>
<path d="M354.492 13.3677C354.492 33.2577 354.492 53.1528 354.492 73.053C354.492 83.0031 354.492 92.9481 354.492 102.888C354.492 107.858 354.492 112.833 354.492 117.813V124.747C354.249 126.807 354.432 128.895 355.029 130.882C355.366 131.649 357.821 132.554 357.36 131.511C356.409 129.348 356.87 126.465 356.87 124.118V116.739C356.87 111.769 356.87 106.794 356.87 101.814C356.87 92.222 356.87 82.6299 356.87 73.0377C356.87 53.4954 356.87 33.9582 356.87 14.4261C356.87 13.5058 354.477 12.4167 354.477 13.3831L354.492 13.3677Z" fill="#138175"/>
<path d="M451.987 68.6818C452.743 71.0579 452.999 73.5648 452.738 76.0447C452.738 78.5194 452.738 80.9942 452.738 83.4689C452.738 88.4184 452.738 93.3628 452.738 98.3021C452.738 107.843 452.738 117.379 452.738 126.91C452.738 136.441 452.738 145.977 452.738 155.518C452.738 160.467 452.738 165.412 452.738 170.351C452.738 172.826 452.738 175.3 452.738 177.775C452.738 179.861 453.398 183.082 452.293 184.923C451.787 185.782 454.38 186.258 454.84 185.475C455.867 183.742 455.407 181.518 455.407 179.57C455.407 177.095 455.407 174.62 455.407 172.146C455.407 167.032 455.407 161.919 455.407 156.806C455.407 146.917 455.407 137.024 455.407 127.125C455.407 117.226 455.407 107.332 455.407 97.4431C455.407 92.4936 455.407 87.5492 455.407 82.6099C455.407 80.1352 455.407 77.6604 455.407 75.1857C455.611 72.929 455.334 70.6547 454.594 68.5131C454.241 67.6848 451.526 67.7615 452.002 68.6818H451.987Z" fill="#138175"/>
<path d="M195.423 12.2654C195.423 31.6441 195.423 51.0176 195.423 70.3861C195.423 79.9885 195.423 89.5858 195.423 99.178C195.423 103.974 195.423 108.775 195.423 113.582C195.423 116.067 195.423 118.557 195.423 121.052C195.423 123.23 195.761 125.654 194.702 127.602C194.119 128.691 196.512 129.887 197.095 128.783C197.798 127.248 198.089 125.556 197.939 123.874C197.939 121.389 197.939 118.904 197.939 116.404C197.939 111.424 197.939 106.449 197.939 101.479C197.939 91.7026 197.939 81.9264 197.939 72.1501C197.939 52.4238 197.939 32.6923 197.939 12.9557C197.939 11.7746 195.408 10.9462 195.408 12.2501L195.423 12.2654Z" fill="#138175"/>
<path d="M346.576 10.7312C347.359 12.8787 346.76 16.1613 346.76 18.4008C346.76 20.6404 346.76 23.3861 346.76 25.8711C346.76 30.4933 346.76 35.0951 346.76 39.6765C346.76 49.463 346.76 59.2443 346.76 69.0206C346.76 78.623 346.76 88.2306 346.76 97.8432C346.76 102.65 346.76 107.451 346.76 112.247C346.76 114.742 346.76 117.232 346.76 119.717C346.525 121.704 346.629 123.717 347.067 125.669C347.313 126.344 349.721 127.203 349.368 126.267C348.586 124.119 349.184 120.837 349.184 118.597C349.184 116.358 349.184 113.612 349.184 111.127C349.184 106.505 349.184 101.903 349.184 97.3217C349.184 87.5352 349.184 77.7538 349.184 67.9775C349.184 58.3751 349.184 48.7676 349.184 39.1549C349.184 34.3486 349.184 29.5474 349.184 24.7513C349.184 22.2561 349.184 19.766 349.184 17.2811C349.419 15.2941 349.315 13.2817 348.877 11.3294C348.632 10.6545 346.223 9.79548 346.576 10.7312V10.7312Z" fill="#138175"/>
<path d="M127.684 345.757C126.454 345.047 125.028 344.757 123.619 344.928C121.149 344.928 118.664 344.928 116.195 344.928H41.4156C31.5831 344.928 21.6278 345.389 11.826 344.806C10.0773 344.698 10.5375 346.861 12.0868 346.953C21.3671 347.505 30.7854 347.076 40.0964 347.076H121.702C122.76 347.076 124.969 346.677 125.92 347.26C127.132 347.981 129.126 346.646 127.623 345.726L127.684 345.757Z" fill="#138175"/>
<path d="M127.087 195.141C125.093 195.862 121.995 195.31 119.863 195.31H12.9629C11.7357 195.31 10.3705 197.181 12.1038 197.181H122.209C124.008 197.395 125.831 197.291 127.594 196.875C129.128 196.322 128.652 194.589 127.087 195.157V195.141Z" fill="#138175"/>
<path d="M90.1811 70.6929C88.5398 74.4511 89.3221 79.2676 89.3221 83.2712C89.3221 88.2411 89.3221 93.2162 89.3221 98.1963C89.3221 108.146 89.3221 118.091 89.3221 128.031C89.3221 137.971 89.3221 147.916 89.3221 157.866C89.3221 162.836 89.3221 167.811 89.3221 172.791V179.725C89.0792 181.719 89.2622 183.743 89.859 185.661C90.2731 186.582 92.7734 185.661 92.3899 184.787C91.4542 182.716 91.8837 179.878 91.8837 177.639C91.8837 175.154 91.8837 172.669 91.8837 170.184C91.8837 165.562 91.8837 160.96 91.8837 156.378C91.8837 146.786 91.8837 137.194 91.8837 127.602C91.8837 118.01 91.8837 108.417 91.8837 98.8252C91.8837 94.203 91.8837 89.6012 91.8837 85.0199C91.8837 82.5349 91.8837 80.0499 91.8837 77.5649C91.6146 75.2047 91.8552 72.8141 92.5893 70.5549C93.0955 69.4044 90.5339 69.8186 90.1657 70.6316L90.1811 70.6929Z" fill="#138175"/>
<path d="M122.838 204.005C120.675 204.956 117.699 204.465 115.368 204.465H9.20428C8.7441 204.465 10.0173 206.521 10.7382 206.521H119.08C120.96 206.729 122.863 206.536 124.663 205.953C125.047 205.785 123.574 203.668 122.838 204.005Z" fill="#138175"/>
<path d="M204.367 9.7322C204.367 28.5382 204.367 47.3442 204.367 66.1502C204.367 75.3538 204.367 84.5574 204.367 93.761C204.367 98.373 204.367 102.975 204.367 107.566C204.367 110.051 204.367 112.536 204.367 115.021C204.367 117.338 204.95 120.436 204.152 122.614C203.646 123.995 206.223 124.716 206.729 123.32C207.162 121.304 207.256 119.231 207.006 117.184C207.006 114.699 207.006 112.214 207.006 109.729C207.006 105.117 207.006 100.515 207.006 95.9238C207.006 86.3419 207.006 76.7599 207.006 67.178C207.006 48.014 207.006 28.8552 207.006 9.70152C207.006 8.27496 204.367 8.04487 204.367 9.59414V9.7322Z" fill="#138175"/>
<path d="M7.93178 337.457C9.54987 338.023 11.2727 338.227 12.9784 338.055H121.888C123.422 338.055 123.866 336.107 122.102 336.107H17.4728C15.0339 336.107 11.6899 336.674 9.43503 335.677C8.31526 335.186 6.36717 336.782 7.9011 337.457H7.93178Z" fill="#138175"/>
<path d="M328.263 6.12958C329.214 8.27708 328.723 11.2376 328.723 13.5538V20.9934C328.723 25.6054 328.723 30.2072 328.723 34.7988C328.723 44.3705 328.723 53.9422 328.723 63.514C328.723 73.0857 328.723 82.6575 328.723 92.2292C328.723 96.8412 328.723 101.443 328.723 106.035V113.505C328.508 115.399 328.696 117.318 329.275 119.134C329.613 119.886 332.236 119.702 331.852 118.828C330.901 116.68 331.392 113.72 331.392 111.403V103.918C331.392 99.3057 331.392 94.7039 331.392 90.1124C331.392 80.5406 331.392 70.9689 331.392 61.3971C331.392 51.8254 331.392 42.2537 331.392 32.6819C331.392 28.0699 331.392 23.4681 331.392 18.8766V11.4063C331.607 9.51185 331.419 7.59332 330.84 5.77677C330.502 5.02515 327.879 5.20922 328.263 6.08356V6.12958Z" fill="#138175"/>
<path d="M337.664 9.28927C337.664 28.4123 337.664 47.5353 337.664 66.6583C337.664 76.2198 337.664 85.7814 337.664 95.3429C337.664 99.9447 337.664 104.546 337.664 109.148C337.664 111.623 337.664 114.103 337.664 116.588C337.664 118.367 337.235 120.377 338.186 121.957C338.615 122.678 341.146 122.739 340.778 122.125C339.704 120.346 340.302 117.048 340.302 114.962C340.302 112.876 340.302 110.36 340.302 108.059C340.302 103.284 340.302 98.5028 340.302 93.7169C340.302 84.5133 340.302 75.3097 340.302 66.1061C340.302 47.341 340.302 28.5759 340.302 9.81081C340.302 8.92113 337.664 8.599 337.664 9.31995V9.28927Z" fill="#138175"/>
<path d="M493.373 390.808C491.611 390.388 489.789 390.279 487.989 390.486H392.886C388.821 390.486 383.682 389.612 379.924 391.33C378.39 392.005 380.215 393.677 381.335 393.171C383.594 392.434 385.984 392.189 388.345 392.45H485.612C487.759 392.45 490.842 391.897 492.837 392.618C494.371 393.186 494.953 391.36 493.404 390.793L493.373 390.808Z" fill="#138175"/>
<path d="M214.108 6.43442C213.233 8.41319 213.601 10.8521 213.601 12.969V19.933C213.601 24.7393 213.601 29.5457 213.601 34.352C213.601 43.5556 213.601 52.8103 213.601 62.1162C213.601 80.9835 213.601 99.8458 213.601 118.703C213.601 119.056 216.27 119.071 216.27 118.703C216.27 99.8355 216.27 80.9733 216.27 62.1162C216.27 52.9126 216.27 43.6578 216.27 34.352C216.27 29.7297 216.27 25.1279 216.27 20.5466V12.9997C216.27 10.8521 215.902 8.39785 216.777 6.4651C216.777 6.4651 214.353 5.86687 214.108 6.4651V6.43442Z" fill="#138175"/>
<path d="M121.183 211.676C119.066 212.611 115.4 212.013 113.115 212.013H9.5282C8.79191 212.013 7.48807 213.348 7.31934 213.348H108.758C112.394 213.348 116.781 214.161 120.171 212.657C120.646 212.443 122.671 210.986 121.168 211.66L121.183 211.676Z" fill="#138175"/>
<path d="M119.815 329.005C118.062 328.562 116.243 328.442 114.447 328.652C111.962 328.652 109.477 328.652 106.992 328.652H7.93032C6.39638 328.652 6.25833 330.002 7.93032 330.002H111.21C113.296 330.002 116.471 329.419 118.435 330.125C119.37 330.462 121.503 329.603 119.831 329.005H119.815Z" fill="#138175"/>
<path d="M115.967 220.665H6.02975C4.49582 220.665 5.32414 223.227 6.70468 223.227H116.58C118.114 223.227 117.286 220.665 115.905 220.665H115.967Z" fill="#138175"/>
<path d="M113.957 230.083C111.993 230.789 108.757 230.237 106.671 230.237H5.43116C4.4341 230.237 2.7161 232.108 4.26537 232.108H108.726C110.506 232.312 112.307 232.203 114.049 231.786C115.322 231.326 115.66 229.485 114.049 230.099L113.957 230.083Z" fill="#138175"/>
<path d="M115.382 319.403C106.408 318.866 97.2968 319.28 88.2927 319.28H6.21196C4.67803 319.28 5.95119 321.351 7.04028 321.351H89.1056C98.0945 321.351 107.206 320.937 116.195 321.474C117.729 321.566 116.44 319.464 115.367 319.403H115.382Z" fill="#138175"/>
<path d="M112.88 310.107H4.49274C2.95881 310.107 3.87917 312.546 5.16767 312.546H113.509C115.043 312.546 114.123 310.107 112.834 310.107H112.88Z" fill="#138175"/>
<path d="M111.824 301.917H10.5846C8.74392 301.917 6.13623 302.361 4.37221 301.717C3.6666 301.456 2.16335 302.101 1.81055 301.963C2.80006 302.28 3.8456 302.385 4.87841 302.269C7.25601 302.269 9.61826 302.269 11.9959 302.269H110.444C110.919 302.269 113.404 301.932 111.778 301.932L111.824 301.917Z" fill="#138175"/>
<path d="M518.009 272.742H409.867C410.189 272.742 410.757 274.92 411.401 274.92H519.528C519.206 274.92 518.638 272.742 517.994 272.742H518.009Z" fill="#138175"/>
<path d="M111.668 239.285C102.894 239.807 94.0129 239.408 85.2235 239.408H4.04782C2.43719 239.408 2.43719 240.865 4.04782 240.865H84.702C93.6601 240.865 102.726 241.264 111.684 240.742C113.218 240.65 113.31 239.208 111.684 239.285H111.668Z" fill="#138175"/>
<path d="M109.631 248.045H2.25546C0.905598 248.045 2.25546 250.269 3.26785 250.269H110.643C111.993 250.269 110.643 248.045 109.631 248.045Z" fill="#138175"/>
<path d="M518.209 265.869H410.834C409.131 265.869 411.279 266.897 411.984 266.897H519.359C521.062 266.897 518.915 265.869 518.209 265.869Z" fill="#138175"/>
<path d="M108.91 266.605H1.53472C-0.0912496 266.605 -0.121928 268.139 1.53472 268.139H108.91C110.536 268.139 110.567 266.605 108.91 266.605Z" fill="#138175"/>
<path d="M108.649 273.983H1.28902C-0.32161 273.983 -0.490343 275.701 1.1663 275.701H108.542C110.152 275.701 110.321 273.983 108.664 273.983H108.649Z" fill="#138175"/>
<path d="M109.875 283.602C108.113 283.151 106.284 283.021 104.476 283.218H2.07074C0.306718 283.218 1.02767 284.982 2.45422 284.982H101.654C103.663 284.982 106.961 284.4 108.863 285.09C110.182 285.565 111.547 284.2 109.875 283.556V283.602Z" fill="#138175"/>
<path d="M109.709 257.907H2.855C2.1494 257.907 -0.0287881 258.904 1.67388 258.904H108.512C109.218 258.904 111.396 257.907 109.693 257.907H109.709Z" fill="#138175"/>
<path d="M518.025 257.018C514.604 255.484 509.818 256.297 506.121 256.297H414.975C413.481 256.157 411.975 256.361 410.573 256.896C409.422 257.432 411.217 259.396 412.245 258.905C414.224 257.985 417.199 258.46 419.332 258.46H511.015C512.855 258.46 515.739 257.954 517.488 258.767C519.237 259.58 519.344 257.632 518.025 257.018Z" fill="#138175"/>
<path d="M108.909 291.992H2.51497C1.30317 291.992 2.69904 294.17 3.54271 294.17H109.875C111.087 294.17 109.691 291.992 108.847 291.992H108.909Z" fill="#138175"/>
<path d="M460.994 77.2256C462.65 80.999 461.73 86.3064 461.73 90.3407C461.73 94.3749 461.73 98.854 461.73 103.103C461.73 111.959 461.73 120.82 461.73 129.686C461.73 138.552 461.73 147.413 461.73 156.269C461.73 160.523 461.73 164.777 461.73 169.031V175.413C461.73 177.575 462.175 180.444 461.254 182.453C460.595 183.987 463.218 184.125 463.801 182.837C464.385 181.064 464.579 179.185 464.368 177.33V170.949C464.368 166.337 464.368 161.735 464.368 157.143C464.368 147.94 464.368 138.736 464.368 129.533C464.368 120.329 464.368 111.125 464.368 101.922C464.368 97.3098 464.368 92.7081 464.368 88.1165C464.368 84.4044 465.074 80.002 463.54 76.52C462.942 75.1701 460.472 75.9831 460.994 77.3329V77.2256Z" fill="#138175"/>
<path d="M517.165 282.235H412.382C410.971 282.235 410.235 283.999 412.014 283.999H516.812C518.223 283.999 518.96 282.235 517.18 282.235H517.165Z" fill="#138175"/>
<path d="M81.129 78.9603C79.5951 82.5037 80.3467 87.1362 80.3467 90.9096C80.3467 95.1433 80.3467 99.382 80.3467 103.626C80.3467 112.625 80.3467 121.629 80.3467 130.638C80.3467 139.464 80.3467 148.289 80.3467 157.114C80.3467 161.532 80.3467 165.944 80.3467 170.352C80.3467 173.834 79.503 178.374 81.2057 181.55C81.5739 182.24 84.1355 182.7 83.5986 181.703C82.8997 179.946 82.657 178.041 82.893 176.166C82.893 174.049 82.893 171.932 82.893 169.815C82.893 165.581 82.893 161.343 82.893 157.099C82.8521 148.488 82.8317 139.837 82.8317 131.145C82.8317 122.667 82.8317 114.195 82.8317 105.727C82.8317 101.494 82.8317 97.255 82.8317 93.0111C82.8317 88.9155 81.942 83.6234 83.5986 79.804C83.9208 79.0523 81.4205 78.132 81.0677 78.945L81.129 78.9603Z" fill="#138175"/>
<path d="M491.596 382.494C487.976 381.497 484.034 381.896 480.307 381.896H399.008C395.618 381.896 392.228 381.589 389.053 382.97C387.519 383.66 389.851 383.814 390.587 383.507C392.734 382.571 395.618 383.016 397.919 383.016H475.966C480.261 383.016 485.292 382.326 489.449 383.476C490.093 383.66 492.409 382.724 491.596 382.494V382.494Z" fill="#138175"/>
<path d="M513.577 290.781C512.15 291.747 509.542 291.241 507.901 291.241H417.66C417.077 291.241 415.206 291.594 414.699 291.241C413.426 290.382 413.012 290.934 414.316 291.808C416.724 293.434 419.547 292.836 422.354 292.836H510.984C512.518 292.836 514.405 293.204 515.786 292.284C515.954 292.161 514.252 290.366 513.577 290.75V290.781Z" fill="#138175"/>
<path d="M514.36 247.694C512.79 247.251 511.15 247.115 509.528 247.295C507.227 247.295 504.926 247.295 502.641 247.295H424.242C420.836 247.295 416.771 246.605 413.581 248.016C412.139 248.645 414.424 249.749 415.406 249.32C417.278 248.491 420.008 249.013 422.033 249.013H506.798C508.501 249.013 511.292 248.507 512.934 249.105C514.053 249.504 516.001 248.292 514.36 247.694V247.694Z" fill="#138175"/>
<path d="M419.422 301.533C422.49 302.653 426.263 302.07 429.454 302.07H499.877C503.481 302.07 508.006 302.807 511.427 301.549C511.32 301.549 510.139 299.355 509.678 299.524C506.503 300.69 502.5 300.045 499.186 300.045H429.822C426.11 300.045 421.324 300.843 417.796 299.539C418.133 299.662 418.732 301.288 419.422 301.549V301.533Z" fill="#138175"/>
<path d="M470.32 86.6432C471.777 89.9564 471.087 94.3128 471.087 97.8102C471.087 101.706 471.087 105.603 471.087 109.499C471.087 117.117 471.087 124.736 471.087 132.354C471.087 139.973 471.087 147.591 471.087 155.21C471.087 159.106 471.087 163.002 471.087 166.898C471.087 170.411 471.777 174.66 470.304 177.943C470.151 178.296 472.421 177.774 472.743 177.053C474.277 173.755 473.526 169.552 473.526 166.009C473.526 162.113 473.526 158.216 473.526 154.32C473.526 146.344 473.526 138.372 473.526 130.406C473.526 122.614 473.526 114.816 473.526 107.014C473.526 103.118 473.526 99.2214 473.526 95.3252C473.526 92.1193 474.047 88.5145 472.728 85.4927C472.467 84.9098 470.044 86.0142 470.32 86.6432V86.6432Z" fill="#138175"/>
<path d="M510.141 238.765C507.073 237.385 503.331 237.906 500.033 237.906H429.503C425.959 237.906 422.186 237.4 418.888 238.888C417.354 239.593 419.164 241.005 420.422 240.422C423.643 238.98 428.383 239.824 431.834 239.839H496.996C500.662 239.839 505.54 239.026 508.914 240.545C510.172 241.112 511.706 239.455 510.111 238.734L510.141 238.765Z" fill="#138175"/>
<path d="M484.829 373.29C481.992 372.247 478.816 372.646 475.84 372.646H406.338C403.009 372.646 399.619 372.247 396.475 373.521C395.754 373.812 397.794 375.315 398.622 375.054C402.074 373.659 406.599 374.364 410.28 374.364H478.724C480.777 374.154 482.851 374.289 484.86 374.763C486.563 375.392 485.934 373.781 484.768 373.352L484.829 373.29Z" fill="#138175"/>
<path d="M72.5094 87.7947C71.2669 90.9699 71.6657 94.4059 71.6657 97.7652C71.6657 101.651 71.6657 105.542 71.6657 109.438C71.6657 117.394 71.6657 125.35 71.6657 133.306C71.6657 141.089 71.6657 148.866 71.6657 156.638C71.6657 160.524 71.6657 164.415 71.6657 168.311C71.6657 170.566 70.9601 173.664 72.3253 175.628C73.353 177.162 74.1813 175.398 73.399 174.262C73.7979 174.845 73.5064 174.262 73.5678 173.695C73.6598 172.821 73.5678 171.916 73.5678 171.041C73.5678 169.272 73.5678 167.503 73.5678 165.734C73.5678 162.022 73.5678 158.31 73.5678 154.597C73.5678 147.347 73.5678 140.097 73.5678 132.846C73.5678 125.77 73.5678 118.698 73.5678 111.632C73.5678 107.92 73.5678 104.208 73.5678 100.496C73.5678 96.9216 72.9695 92.826 74.3041 89.4666C74.6722 88.5156 73.0156 86.5062 72.5094 87.7947Z" fill="#138175"/>
<path d="M424.532 309.724C427 310.544 429.614 310.832 432.202 310.568H487.792C491.488 310.568 495.2 310.568 498.913 310.568C500.852 310.592 502.777 310.227 504.573 309.494C504.88 309.356 502.763 309.325 502.257 309.494C499.434 310.737 495.308 310 492.271 310H437.709C434.319 310 430.208 310.644 427.079 309.279C426.404 308.988 424.716 309.77 424.532 309.678V309.724Z" fill="#138175"/>
<path d="M477.484 94.8199C478.727 97.4889 478.527 100.265 478.527 103.134C478.527 106.488 478.527 109.842 478.527 113.196C478.527 119.731 478.527 126.265 478.527 132.8C478.527 139.161 478.527 145.521 478.527 151.882C478.527 155.236 478.527 158.591 478.527 161.945C478.527 165.243 478.911 168.679 477.484 171.731C477.361 171.992 479.616 171.593 479.938 170.903C480.881 168.383 481.238 165.681 480.981 163.003C480.981 159.649 480.981 156.295 480.981 152.941C480.981 146.232 480.981 139.519 480.981 132.8C480.981 126.265 480.981 119.731 480.981 113.196C480.981 109.842 480.981 106.488 480.981 103.134C480.981 99.9585 481.319 96.7066 479.938 93.7614C479.693 93.2399 477.254 94.3137 477.484 94.8199V94.8199Z" fill="#138175"/>
<path d="M502.133 230.175C496.841 227.982 490.353 228.979 484.754 228.994H434.226C431.581 228.819 428.929 229.19 426.434 230.083C425.176 230.605 427.323 232.108 428.259 231.725C431.235 230.497 434.395 230.773 437.57 230.773H491.779C495.031 230.773 498.437 230.39 501.504 231.663C503.038 232.292 503.637 230.773 502.118 230.129L502.133 230.175Z" fill="#138175"/>
<path d="M88.9697 187.393C82.9513 186.59 76.874 186.318 70.8079 186.58C63.9359 186.58 57.0026 186.58 50.2072 186.58H19.5286C17.3822 186.359 15.2135 186.615 13.1781 187.331C12.5339 187.623 14.9115 187.991 15.4943 187.73C16.8126 187.371 18.1891 187.277 19.5439 187.454H68.7525C75.0569 187.454 81.4074 187.086 87.6505 188.175C88.3561 188.298 90.7184 187.684 88.985 187.393H88.9697Z" fill="#138175"/>
<path d="M476.822 363.904C471.776 362.278 465.962 363.03 460.731 363.03H413.946C411.124 363.03 408.256 362.769 405.587 363.874C404.267 364.426 405.801 366.604 406.998 366.098C409.59 365.009 412.597 365.392 415.342 365.392H466.913C470.104 365.392 473.417 365.085 476.5 366.082C478.157 366.619 478.157 364.318 476.822 363.889V363.904Z" fill="#138175"/>
<path d="M62.8915 99.1149C61.0815 103.717 62.0172 109.576 62.0172 114.454C62.0172 120.488 62.0172 126.516 62.0172 132.539C62.0172 138.389 62.0172 144.243 62.0172 150.103C62.0172 153.12 62.0172 156.136 62.0172 159.153C61.7756 161.864 62.0728 164.595 62.8915 167.191C63.367 168.372 65.9594 167.59 65.3458 166.24C64.2414 163.525 64.6402 160.442 64.6555 157.588C64.6709 154.735 64.6555 151.913 64.6555 149.075C64.6555 143.757 64.6555 138.435 64.6555 133.107C64.6555 127.779 64.6555 122.456 64.6555 117.139C64.6555 114.306 64.6555 111.468 64.6555 108.625C64.6555 105.695 64.2414 102.49 65.3305 99.7285C65.898 98.2866 63.3517 97.9031 62.8915 99.0996V99.1149Z" fill="#138175"/>
<path d="M304.824 539.692C283.165 540.782 261.552 540.536 239.893 539.692C238.773 539.692 237.178 541.61 238.773 541.671C260.647 542.53 282.444 542.776 304.318 541.671C305.576 541.671 306.573 539.6 304.824 539.692Z" fill="#138175"/>
<path d="M71.5301 178.081C67.4498 176.547 63.1548 176.931 58.8598 176.946H28.534C24.7912 176.946 19.8826 176.041 16.4466 177.897C15.2961 178.511 17.3209 180.244 18.3793 179.677C20.2047 178.695 22.659 179.063 24.6531 179.063H57.1111C61.7129 179.063 66.8362 178.357 71.1773 179.983C72.8186 180.597 72.9106 178.587 71.5301 178.066V178.081Z" fill="#138175"/>
<path d="M437.169 319.358C441.129 320.396 445.232 320.785 449.317 320.509H479.244C483.559 320.768 487.889 320.401 492.099 319.42C493.74 318.944 492.543 316.674 491.056 317.104C486.868 318.315 482.619 318.085 478.309 318.07H452.094C447.492 318.07 442.553 318.607 438.104 317.165C436.57 316.643 435.512 318.837 437.138 319.358H437.169Z" fill="#138175"/>
<path d="M487.131 106.312C488.22 110.622 487.882 115.178 487.867 119.595C487.852 124.013 487.867 128.293 487.867 132.634C487.867 136.975 487.867 140.978 487.867 145.151C487.867 149.323 488.158 153.848 487.1 158.051C486.947 158.649 488.757 160.183 488.803 159.999C489.861 155.781 489.585 151.409 489.57 147.099C489.554 142.789 489.57 138.064 489.57 133.539C489.57 129.014 489.57 124.504 489.57 119.979C489.802 115.957 489.528 111.922 488.757 107.968C488.619 107.431 486.993 105.836 487.115 106.327L487.131 106.312Z" fill="#138175"/>
<path d="M488.91 220.649C485.24 219.918 481.494 219.65 477.758 219.852H452.156C448.236 219.636 444.304 219.915 440.453 220.68C438.827 221.094 439.317 223.134 440.943 222.72C444.738 222.001 448.608 221.758 452.463 221.999H475.978C480.013 221.746 484.063 221.999 488.035 222.751C489.431 223.104 490.612 221.094 488.925 220.665L488.91 220.649Z" fill="#138175"/>
<path d="M62.0014 168.556C58.8262 167.267 55.2061 167.743 51.8468 167.758H29.7888C26.8897 167.758 23.1162 167.068 20.4165 168.341C19.3121 168.863 20.4165 171.271 21.5976 170.749C23.1096 170.254 24.712 170.097 26.2915 170.289H51.5093C54.976 170.289 58.9489 169.722 62.2468 171.041C63.5507 171.578 63.0905 168.985 62.0474 168.556H62.0014Z" fill="#138175"/>
<path d="M461.131 354.62C454.504 353.254 447.617 353.868 440.898 353.807C434.271 353.498 427.629 353.77 421.049 354.62C419.806 354.834 421.187 357.105 422.337 356.905C428.751 356.098 435.224 355.851 441.68 356.169C448.2 356.169 454.949 355.586 461.361 356.89C462.895 357.212 462.281 354.85 461.131 354.604V354.62Z" fill="#138175"/>
<path d="M54.21 115.499C53.61 121.067 53.313 126.664 53.3203 132.265C53.1366 138.066 53.5167 143.871 54.4554 149.598C54.5935 150.319 56.5876 151.915 56.4035 150.979C55.4987 145.593 55.1033 140.134 55.2224 134.673C55.1751 128.858 55.462 123.045 56.0814 117.263C56.1734 116.435 54.2407 114.824 54.1793 115.499H54.21Z" fill="#138175"/>
<path d="M56.3577 159.215C54.1574 158.527 51.8385 158.303 49.5471 158.555H32.5971C30.0201 158.555 27.0136 158.08 24.59 159.123C23.0561 159.767 24.3292 162.037 25.6637 161.47C27.8419 160.534 30.695 160.994 33.0573 161.01H47.4456C49.8692 161.01 53.2745 160.411 55.5294 161.378C55.6752 161.454 55.8354 161.498 55.9995 161.508C56.1636 161.518 56.328 161.493 56.4818 161.435C56.6356 161.377 56.7753 161.286 56.8918 161.17C57.0083 161.054 57.0989 160.915 57.1577 160.761C57.2165 160.608 57.2422 160.444 57.233 160.279C57.2239 160.115 57.18 159.955 57.1045 159.809C57.0289 159.663 56.9233 159.534 56.7946 159.432C56.6659 159.33 56.517 159.256 56.3577 159.215Z" fill="#138175"/>
<path d="M52.7995 150.488C51.7615 149.855 50.5385 149.595 49.3328 149.752C46.7251 149.752 44.1174 149.752 41.5097 149.752C37.3835 149.752 32.4595 148.939 28.6247 150.718C27.0908 151.454 28.4867 153.065 29.8672 152.436C32.9351 151.01 37.5369 151.869 40.8655 151.869H45.5593C46.8632 151.869 49.747 151.393 50.8821 152.145C52.0172 152.896 54.1033 151.362 52.7995 150.488Z" fill="#138175"/>
<path d="M51.3113 143.016C48.9951 141.896 46.0806 142.418 43.6417 142.372C40.3312 142.267 37.0175 142.355 33.7171 142.633C31.9838 142.801 32.5974 144.719 34.1006 144.565C36.7061 144.325 39.3229 144.228 41.939 144.274C44.3166 144.274 48.1975 143.645 50.3603 144.704C51.7102 145.363 52.9526 143.783 51.388 143.016H51.3113Z" fill="#138175"/>
<path d="M132.994 185.599C131.276 186.366 129.404 185.89 127.579 186.013C125.754 186.136 123.56 186.657 121.52 186.78C119.833 186.887 120.201 188.974 121.857 188.866C124.312 188.713 126.674 188.069 129.144 188.115C130.796 188.291 132.468 188.075 134.022 187.486C135.555 186.765 134.42 184.939 132.994 185.584V185.599Z" fill="#138175"/>
<path d="M48.8541 132.892C45.096 132.892 40.6783 132.171 37.1962 133.812C35.6623 134.518 37.3957 136.543 38.7302 135.914C40.4803 135.297 42.3489 135.093 44.191 135.316H49.0842C50.8176 135.316 50.3574 132.907 48.7928 132.907L48.8541 132.892Z" fill="#138175"/>
<path d="M48.9182 124.334C46.74 124.625 44.5465 124.227 42.4297 124.994C42.4297 124.994 43.4267 125.699 43.5341 125.761C43.6415 125.822 44.4545 126.374 44.7766 126.267C46.8321 125.515 49.0103 125.914 51.1424 125.638C51.3418 125.638 50.4675 125.07 50.4061 125.04C50.0687 124.84 49.3324 124.288 48.8722 124.349L48.9182 124.334Z" fill="#138175"/>
<path d="M57.5228 104.867C57.2351 104.963 56.9741 105.126 56.7609 105.342C56.5477 105.558 56.3884 105.821 56.2957 106.11L56.1883 106.37C56.1844 106.411 56.1844 106.452 56.1883 106.493C56.1883 106.493 56.3417 106.263 56.1883 106.401L56.1116 106.508C56.1116 106.508 56.3571 106.324 56.1116 106.432C55.8662 106.539 56.3724 106.355 56.2037 106.432C56.0349 106.508 56.4644 106.432 56.2037 106.432C56.0551 106.433 55.9087 106.467 55.775 106.532C55.6414 106.597 55.524 106.691 55.4314 106.807C55.3388 106.923 55.2733 107.059 55.2397 107.203C55.2061 107.348 55.2053 107.499 55.2373 107.644C55.3447 108.242 55.8815 108.978 56.5718 108.963C56.9442 108.973 57.3102 108.866 57.6185 108.656C57.9267 108.447 58.1615 108.147 58.2898 107.797C58.3883 107.628 58.4656 107.448 58.5199 107.26C58.5199 107.26 58.3512 107.521 58.5199 107.352L58.5966 107.245C58.704 107.091 58.3972 107.429 58.5966 107.245C58.796 107.061 58.3358 107.337 58.5966 107.245C60.0385 106.831 58.9647 104.392 57.6456 104.775L57.5228 104.867Z" fill="#138175"/>
</g>
</svg>
