<svg width="175" height="177" viewBox="0 0 175 177" fill="none" xmlns="http://www.w3.org/2000/svg">
<mask id="mask0" mask-type="alpha" maskUnits="userSpaceOnUse" x="1" y="0" width="171" height="174">
<rect x="1" width="171" height="174" rx="10" fill="white"/>
</mask>
<g mask="url(#mask0)">
<g style="mix-blend-mode:multiply" opacity="0.5">
<path opacity="0.202381" d="M100.485 283.97C161.504 283.97 210.97 234.504 210.97 173.485C210.97 112.466 161.504 63 100.485 63C39.4659 63 -10 112.466 -10 173.485C-10 234.504 39.4659 283.97 100.485 283.97Z" fill="#2B5250"/>
<path opacity="0.202381" d="M100.645 265.742C151.509 265.742 192.742 224.509 192.742 173.645C192.742 122.781 151.509 81.5474 100.645 81.5474C49.7808 81.5474 8.54736 122.781 8.54736 173.645C8.54736 224.509 49.7808 265.742 100.645 265.742Z" fill="#2B5250"/>
<path opacity="0.1" d="M100.485 245.596C140.311 245.596 172.596 213.311 172.596 173.485C172.596 133.659 140.311 101.374 100.485 101.374C60.659 101.374 28.3738 133.659 28.3738 173.485C28.3738 213.311 60.659 245.596 100.485 245.596Z" fill="#2B5250"/>
</g>
<path d="M147.713 168.804C164.194 121.088 120.633 100.078 102.019 100.855C90.9997 101.308 82.2423 105.225 76.4901 110.469C75.1006 111.732 76.0377 114.03 77.912 113.998C84.0519 113.836 90.3211 115.131 96.2348 118.012C101.147 120.408 105.348 123.677 108.741 127.562C109.193 128.048 109.646 128.566 110.034 129.116C119.211 140.737 121.505 157.053 114.622 171.297C107.222 186.544 94.8453 194.054 75.1329 195.187C49.1836 196.676 30.6992 182.368 30.6992 182.368C30.6992 182.368 30.0206 202.342 66.9571 209.722C94.3282 215.161 133.947 208.719 147.713 168.804Z" fill="url(#paint0_linear)"/>
<g opacity="0.4">
<path opacity="0.4" d="M122.151 145.205C112.488 110.438 77.9108 113.966 77.9108 113.966C84.0507 113.804 90.3199 115.099 96.2336 117.98C101.146 120.376 105.347 123.645 108.74 127.53C109.192 128.016 109.644 128.534 110.032 129.084C119.21 140.706 121.504 157.021 114.621 171.265C107.221 186.512 89.1242 197.227 73.225 195.9C70.6398 196.127 69.0886 196.386 66.2126 196.321C53.0925 196.127 44.0442 194.929 37.8073 193.31C39.0353 195.706 40.1987 198.134 41.2651 200.562C59.7495 196.062 82.0794 201.177 94.6501 197.454C114.847 191.53 128.387 167.672 122.151 145.205Z" fill="#27C3DA"/>
</g>
<path opacity="0.6" d="M147.842 168.804C155.792 143.554 147.939 125.879 135.982 114.872C148.779 130.055 153.271 152.618 143.189 173.401C129.81 200.982 91.8717 216.909 64.339 203.507C62.0123 202.374 55.4199 200.237 53.3518 198.845C21.3595 197.583 24.3648 186.35 24.8819 182.821C24.8819 182.821 35.546 204.964 67.3443 211.535C84.116 215.031 133.074 215.646 147.842 168.804Z" fill="#27C3DA"/>
<g opacity="0.4">
<path opacity="0.4" d="M114.75 203.054C114.75 203.054 115.138 202.859 115.817 202.536C115.881 202.503 116.011 202.439 116.14 202.374C116.269 202.309 116.399 202.244 116.528 202.18C116.786 202.05 117.077 201.888 117.4 201.726C117.95 201.37 118.628 201.014 119.339 200.529C120.761 199.59 122.377 198.36 124.057 196.806C125.738 195.252 127.483 193.342 129.131 191.108C129.939 190.008 130.747 188.81 131.49 187.547C131.587 187.386 131.684 187.224 131.781 187.062L131.813 186.997C131.813 186.997 131.878 186.868 131.845 186.932V186.9L131.91 186.803L132.039 186.576C132.201 186.285 132.362 185.961 132.556 185.637C132.75 185.281 132.912 184.925 133.106 184.602C133.267 184.245 133.429 183.922 133.623 183.566C134.948 180.782 136.079 177.771 137.016 174.631C137.468 173.077 137.888 171.458 138.244 169.84C138.438 169.031 138.599 168.221 138.761 167.38C138.825 166.959 138.922 166.57 138.987 166.149L139.019 165.955L139.052 165.793L139.116 165.502L139.213 164.887L139.31 164.272L139.407 163.624C139.472 163.171 139.536 162.75 139.569 162.297C139.633 161.423 139.73 160.549 139.795 159.675C139.86 158.801 139.86 157.927 139.892 157.053C139.892 156.179 139.86 155.305 139.827 154.431C139.633 150.935 139.019 147.503 138.179 144.234C137.759 142.615 137.274 141.029 136.757 139.475C136.628 139.086 136.499 138.698 136.369 138.309C136.24 137.921 136.111 137.565 135.982 137.176C135.82 136.788 135.691 136.399 135.562 136.011C135.4 135.623 135.238 135.266 135.109 134.878C133.849 131.932 132.33 129.213 130.65 126.85C129.809 125.652 128.937 124.551 128.032 123.515C127.127 122.479 126.222 121.541 125.318 120.667C123.476 118.919 121.634 117.494 119.921 116.393C118.208 115.293 116.592 114.484 115.268 113.933C113.91 113.383 112.812 113.059 112.068 112.865C111.68 112.768 111.39 112.703 111.196 112.671C111.002 112.638 110.905 112.606 110.905 112.606C110.905 112.606 111.002 112.638 111.196 112.703C111.39 112.768 111.68 112.833 112.036 112.962C112.779 113.189 113.846 113.609 115.106 114.257C116.399 114.904 117.885 115.811 119.469 117.041C121.052 118.239 122.732 119.76 124.38 121.605C125.188 122.512 125.996 123.515 126.772 124.551C127.547 125.62 128.291 126.753 129.002 127.95C130.423 130.346 131.651 133.033 132.621 135.882C132.75 136.238 132.847 136.594 132.976 136.95C133.073 137.306 133.17 137.662 133.3 138.018C133.396 138.374 133.493 138.795 133.59 139.151L133.655 139.442L133.687 139.507V139.54C133.687 139.572 133.687 139.507 133.687 139.54L133.72 139.669L133.849 140.252C134.172 141.806 134.463 143.359 134.689 144.946C135.141 148.086 135.335 151.291 135.141 154.431C135.109 155.208 135.012 155.985 134.948 156.762C134.851 157.538 134.754 158.315 134.624 159.092C134.495 159.869 134.334 160.614 134.172 161.391C134.075 161.747 133.978 162.135 133.913 162.491L133.784 163.042L133.623 163.624C132.782 166.667 131.781 169.613 130.65 172.365C129.519 175.117 128.258 177.642 126.869 179.875C126.707 180.167 126.513 180.426 126.352 180.685C126.19 180.944 126.029 181.202 125.835 181.429C125.77 181.559 125.641 181.688 125.544 181.85C125.447 181.979 125.35 182.141 125.253 182.271L125.091 182.465L125.027 182.562L124.994 182.594C124.962 182.659 125.027 182.562 124.994 182.562L124.962 182.594L124.704 182.951C123.993 183.922 123.249 184.828 122.474 185.637C120.987 187.288 119.469 188.616 118.079 189.652C116.689 190.688 115.397 191.464 114.33 192.015C113.781 192.306 113.296 192.5 112.876 192.727C112.488 192.889 112.133 193.018 111.874 193.115C111.131 193.374 110.743 193.536 110.743 193.536L114.75 203.054Z" fill="#27C3DA"/>
</g>
<g opacity="0.4">
<path opacity="0.4" d="M132.298 190.688C132.298 190.688 132.395 190.493 132.621 190.137C132.815 189.781 133.138 189.263 133.494 188.583C133.687 188.227 133.881 187.871 134.14 187.45C134.366 187.03 134.592 186.576 134.851 186.091C135.368 185.12 135.917 184.019 136.499 182.821C137.081 181.623 137.695 180.296 138.309 178.904C138.923 177.48 139.537 175.991 140.118 174.437C140.409 173.66 140.7 172.851 140.991 172.041C141.249 171.232 141.54 170.39 141.799 169.549C142.348 167.865 142.8 166.15 143.22 164.402C143.641 162.653 143.964 160.905 144.222 159.19C144.481 157.441 144.642 155.726 144.739 154.075C144.836 152.391 144.804 150.805 144.707 149.251C144.578 147.73 144.448 146.305 144.19 144.978C143.964 143.683 143.641 142.486 143.35 141.45C143.22 140.932 143.027 140.446 142.865 140.025C142.736 139.572 142.542 139.184 142.413 138.828C142.122 138.115 141.863 137.565 141.702 137.209C141.54 136.853 141.443 136.626 141.443 136.626C141.443 136.626 141.508 136.82 141.669 137.209C141.799 137.597 142.025 138.148 142.251 138.892C142.38 139.248 142.51 139.669 142.606 140.122C142.703 140.576 142.865 141.061 142.962 141.579C143.188 142.615 143.382 143.813 143.511 145.108C143.673 146.403 143.673 147.827 143.673 149.316C143.641 150.805 143.511 152.359 143.317 153.978C143.091 155.596 142.8 157.247 142.413 158.898C142.025 160.549 141.572 162.233 141.023 163.851C140.538 165.47 139.957 167.088 139.31 168.642C138.987 169.419 138.664 170.196 138.341 170.973C137.985 171.718 137.662 172.495 137.307 173.207C136.628 174.663 135.885 176.055 135.206 177.35C134.495 178.645 133.817 179.875 133.138 180.976C132.492 182.077 131.845 183.113 131.296 183.987C131.005 184.44 130.747 184.828 130.488 185.217C130.23 185.605 130.003 185.929 129.81 186.253C129.389 186.868 129.034 187.386 128.808 187.709C128.582 188.033 128.452 188.227 128.452 188.227L132.298 190.688Z" fill="#27C3DA"/>
</g>
<g opacity="0.4">
<path opacity="0.4" d="M114.137 199.655C114.137 199.655 114.267 199.46 114.558 199.104C114.687 198.942 114.848 198.716 115.042 198.457C115.236 198.198 115.462 197.907 115.721 197.583C116.238 196.903 116.852 196.061 117.531 195.09C117.886 194.605 118.209 194.087 118.597 193.536C118.791 193.277 118.952 192.986 119.146 192.695C119.34 192.403 119.534 192.112 119.728 191.788C119.922 191.497 120.116 191.173 120.31 190.849C120.504 190.526 120.697 190.202 120.891 189.878C121.311 189.231 121.699 188.519 122.087 187.806C122.507 187.094 122.895 186.317 123.315 185.573C123.703 184.796 124.123 184.019 124.511 183.177C125.286 181.559 126.03 179.843 126.708 178.062C127.387 176.282 128.001 174.469 128.518 172.624C129.035 170.779 129.455 168.901 129.778 167.024C130.069 165.146 130.295 163.301 130.36 161.52C130.424 159.707 130.392 157.992 130.263 156.341C130.101 154.69 129.907 153.168 129.584 151.776C129.52 151.42 129.455 151.096 129.358 150.74C129.261 150.417 129.196 150.093 129.099 149.769C128.938 149.154 128.712 148.571 128.55 148.021C128.453 147.73 128.356 147.471 128.259 147.244C128.162 146.985 128.065 146.759 127.968 146.532C127.807 146.046 127.613 145.658 127.419 145.27C127.096 144.525 126.773 143.942 126.579 143.554C126.385 143.165 126.256 142.939 126.256 142.939C126.256 142.939 126.353 143.165 126.514 143.554C126.676 143.975 126.967 144.557 127.225 145.334C127.354 145.723 127.516 146.144 127.678 146.629C127.742 146.856 127.839 147.115 127.904 147.374C128.001 147.633 128.065 147.892 128.13 148.183C128.259 148.733 128.421 149.316 128.55 149.963C128.615 150.287 128.679 150.611 128.744 150.935C128.809 151.258 128.841 151.614 128.906 151.938C129.099 153.33 129.196 154.852 129.229 156.438C129.229 158.024 129.132 159.707 128.938 161.456C128.712 163.171 128.389 164.952 127.968 166.7C127.516 168.48 126.967 170.228 126.353 171.977C125.739 173.725 124.995 175.408 124.22 177.059C123.444 178.71 122.604 180.296 121.764 181.785C121.344 182.53 120.891 183.274 120.471 183.987C120.019 184.699 119.599 185.379 119.146 186.026C118.694 186.673 118.274 187.321 117.854 187.936C117.628 188.227 117.434 188.551 117.207 188.842C116.981 189.134 116.787 189.425 116.561 189.684C116.367 189.975 116.141 190.234 115.947 190.493C115.753 190.752 115.559 191.011 115.333 191.27C114.945 191.756 114.59 192.241 114.202 192.662C113.491 193.536 112.845 194.249 112.328 194.864C112.069 195.155 111.811 195.446 111.617 195.673C111.391 195.9 111.229 196.126 111.067 196.288C110.777 196.612 110.615 196.806 110.615 196.806L114.137 199.655Z" fill="#27C3DA"/>
</g>
<path d="M1.00117 168.901C8.33678 168.286 21.0367 175.505 30.7314 182.336C38.0023 187.483 53.2229 198.619 75.9083 202.471C101.244 206.777 120.633 198.619 132.719 188.843C144.546 179.26 147.713 168.804 147.713 168.804C147.713 168.804 139.796 201.824 100.759 211.73C61.7218 221.636 21.3599 189.781 21.3599 189.781L1.00117 185.055V168.901Z" fill="#85DBF0"/>
<path d="M109.386 97.1646C109.386 97.1646 109.289 97.0351 109.095 96.7761C108.998 96.6466 108.901 96.4847 108.772 96.3229C108.643 96.1287 108.481 95.9668 108.32 95.7402C108.126 95.546 107.964 95.287 107.738 95.0604C107.512 94.8338 107.286 94.5748 107.027 94.3482C106.768 94.1216 106.51 93.8626 106.219 93.636C105.928 93.4094 105.637 93.1828 105.314 92.9562C104.991 92.7619 104.668 92.5353 104.345 92.3411C104.022 92.1469 103.698 91.985 103.343 91.8232C103.02 91.6613 102.697 91.5318 102.374 91.4023C102.05 91.2728 101.76 91.1757 101.469 91.0786C100.887 90.8844 100.402 90.7873 100.015 90.6901C99.8206 90.6578 99.6914 90.6254 99.5621 90.6254C99.4652 90.6254 99.3359 90.593 99.3359 90.593C98.1726 90.6578 97.2677 91.6289 97.3324 92.7943C97.397 93.9597 98.3665 94.8661 99.5298 94.8014C99.5298 94.8014 99.4975 94.8014 99.5621 94.769C99.5944 94.769 99.6914 94.7366 99.8206 94.7043C100.047 94.6719 100.435 94.6072 100.887 94.5748C101.113 94.5424 101.372 94.5748 101.63 94.5748C101.889 94.6072 102.18 94.5748 102.471 94.6072C102.761 94.6395 103.085 94.6719 103.375 94.7366C103.698 94.769 104.022 94.8661 104.312 94.9309C104.636 94.9956 104.959 95.0927 105.25 95.1899C105.573 95.287 105.864 95.4165 106.154 95.5136C106.445 95.6107 106.736 95.7726 106.995 95.902C107.253 96.0315 107.479 96.161 107.738 96.2905C107.964 96.42 108.19 96.5171 108.352 96.6466C108.546 96.7761 108.675 96.8732 108.804 96.9703C109.063 97.1322 109.224 97.2293 109.224 97.2293C109.257 97.2617 109.321 97.2293 109.354 97.1969C109.418 97.2293 109.418 97.1969 109.386 97.1646Z" fill="url(#paint1_linear)"/>
<path d="M147.778 181.979C147.778 181.979 147.939 181.818 148.262 181.526C148.424 181.364 148.585 181.202 148.812 181.008C149.006 180.782 149.264 180.523 149.49 180.264C149.749 180.005 150.007 179.681 150.266 179.357C150.557 179.034 150.815 178.677 151.106 178.321C151.397 177.965 151.688 177.577 151.946 177.156C152.237 176.768 152.496 176.347 152.786 175.926C153.077 175.505 153.336 175.084 153.594 174.663C153.853 174.242 154.079 173.822 154.338 173.401C154.564 172.98 154.79 172.591 154.984 172.203C155.178 171.815 155.372 171.458 155.533 171.102C155.856 170.423 156.147 169.84 156.309 169.387C156.406 169.16 156.47 168.998 156.503 168.869C156.535 168.772 156.567 168.642 156.567 168.674C156.89 167.153 155.921 165.631 154.37 165.308C152.851 164.984 151.332 165.955 151.009 167.509C151.009 167.509 151.009 167.541 151.009 167.639C151.009 167.736 151.009 167.898 150.977 168.092C150.944 168.48 150.912 169.063 150.848 169.743C150.815 170.099 150.783 170.455 150.718 170.843C150.686 171.232 150.589 171.653 150.524 172.074C150.46 172.494 150.363 172.948 150.298 173.401C150.201 173.854 150.137 174.307 150.007 174.76C149.91 175.214 149.781 175.667 149.684 176.12C149.555 176.573 149.458 176.994 149.296 177.415C149.167 177.836 149.038 178.257 148.876 178.613C148.747 179.001 148.618 179.357 148.456 179.681C148.327 180.005 148.198 180.296 148.068 180.587C147.939 180.846 147.842 181.073 147.745 181.267C147.551 181.656 147.454 181.882 147.454 181.882C147.422 181.947 147.454 182.012 147.519 182.044C147.713 182.012 147.745 182.012 147.778 181.979Z" fill="url(#paint2_linear)"/>
<path d="M149.653 127.336C150.202 120.829 146.453 116.944 146.453 116.944L149.653 127.336Z" fill="#85DBF0"/>
<path d="M149.781 127.336C149.781 127.336 149.846 127.174 149.943 126.85C150.007 126.688 150.072 126.526 150.136 126.3C150.201 126.105 150.266 125.846 150.33 125.555C150.395 125.264 150.492 124.972 150.524 124.649C150.589 124.325 150.653 123.969 150.686 123.613C150.718 123.257 150.75 122.868 150.783 122.48C150.783 122.091 150.815 121.67 150.783 121.282C150.75 120.894 150.75 120.473 150.686 120.084C150.653 119.663 150.589 119.275 150.492 118.886C150.427 118.498 150.33 118.142 150.233 117.786C150.136 117.43 150.04 117.106 149.91 116.782C149.813 116.459 149.684 116.2 149.587 115.941C149.49 115.682 149.361 115.455 149.296 115.261C149.199 115.067 149.135 114.905 149.038 114.808C149.005 114.743 148.973 114.71 148.941 114.646C148.908 114.613 148.876 114.581 148.876 114.581C147.584 113.221 145.418 113.189 144.093 114.484C142.769 115.779 142.704 117.948 143.997 119.275C143.997 119.275 143.997 119.275 143.997 119.243C143.997 119.21 143.997 119.21 144.029 119.243C144.061 119.243 144.126 119.275 144.223 119.307C144.32 119.372 144.449 119.437 144.578 119.502C144.707 119.599 144.869 119.696 145.063 119.825C145.257 119.955 145.418 120.117 145.612 120.278C145.806 120.44 146 120.635 146.194 120.861C146.388 121.055 146.614 121.282 146.808 121.541C147.002 121.768 147.196 122.027 147.39 122.286C147.584 122.545 147.745 122.836 147.907 123.095C148.068 123.386 148.198 123.645 148.359 123.937C148.521 124.228 148.618 124.487 148.747 124.778C148.876 125.037 148.941 125.296 149.038 125.555C149.102 125.814 149.199 126.008 149.264 126.235C149.329 126.462 149.361 126.623 149.393 126.785C149.458 127.109 149.522 127.271 149.522 127.271C149.555 127.336 149.619 127.4 149.684 127.368C149.749 127.4 149.781 127.368 149.781 127.336Z" fill="url(#paint3_linear)"/>
<path d="M106.123 131.609C106.123 131.609 105.767 131.317 105.185 130.832C104.895 130.573 104.539 130.281 104.087 129.958C103.634 129.634 103.15 129.246 102.6 128.857C102.051 128.469 101.437 128.048 100.758 127.627C100.435 127.433 100.08 127.206 99.7241 126.98C99.3686 126.785 98.9808 126.559 98.593 126.364C98.2053 126.138 97.8175 125.976 97.3974 125.749C96.9773 125.555 96.5895 125.329 96.1694 125.167C95.7493 124.972 95.2969 124.811 94.8768 124.616C94.4244 124.454 93.9719 124.293 93.5518 124.131C93.0994 123.969 92.647 123.839 92.1946 123.678C91.7422 123.548 91.2898 123.386 90.805 123.289C90.3526 123.16 89.9002 123.062 89.4155 122.965C88.963 122.868 88.5106 122.771 88.0582 122.706C87.6058 122.609 87.1534 122.577 86.7333 122.48C86.2809 122.415 85.8608 122.35 85.4407 122.318C84.6005 122.221 83.7926 122.156 83.0493 122.124C82.6939 122.091 82.3061 122.091 81.9829 122.091C81.6598 122.091 81.3366 122.091 81.0135 122.091C80.3995 122.091 79.8824 122.091 79.4623 122.124C78.5898 122.156 78.1051 122.188 78.1051 122.188C75.2936 122.318 73.1285 124.681 73.2578 127.497C73.387 130.314 75.746 132.483 78.5575 132.353C79.1392 132.321 79.7208 132.191 80.2379 131.997H80.2702C80.2702 131.997 80.6257 131.835 81.272 131.576C81.5951 131.447 81.9829 131.285 82.4353 131.123C82.6615 131.026 82.8877 130.961 83.1463 130.864C83.4048 130.799 83.6633 130.702 83.9542 130.605C84.5035 130.411 85.1498 130.281 85.7961 130.087C86.1193 129.99 86.4748 129.925 86.8302 129.861C87.1857 129.796 87.5412 129.699 87.8966 129.666C88.2844 129.602 88.6399 129.569 89.0277 129.505C89.4155 129.472 89.8032 129.44 90.191 129.375C90.5788 129.343 90.9989 129.31 91.3867 129.31C91.8068 129.31 92.1946 129.246 92.6147 129.278C93.0348 129.278 93.4549 129.278 93.8427 129.278C94.2628 129.31 94.6506 129.343 95.0707 129.343C95.4908 129.343 95.8785 129.407 96.2986 129.472C96.6864 129.537 97.1065 129.537 97.4943 129.634C97.8821 129.699 98.2699 129.764 98.6577 129.828C99.0455 129.893 99.4009 129.99 99.7564 130.055C100.467 130.184 101.146 130.379 101.792 130.54C102.439 130.702 102.988 130.897 103.505 131.058C103.764 131.156 103.99 131.22 104.216 131.285C104.442 131.382 104.636 131.447 104.83 131.512C105.573 131.771 105.961 131.932 105.961 131.932C106.058 131.965 106.187 131.932 106.219 131.803C106.219 131.738 106.187 131.673 106.123 131.609Z" fill="url(#paint4_linear)"/>
<path d="M110.065 137.727C110.065 137.727 109.904 137.598 109.645 137.403C109.516 137.306 109.355 137.177 109.161 137.015C108.967 136.885 108.741 136.723 108.482 136.562C108.224 136.4 107.965 136.238 107.674 136.044C107.383 135.882 107.06 135.72 106.705 135.526C106.349 135.364 105.994 135.202 105.638 135.04C105.283 134.878 104.863 134.749 104.475 134.619C104.087 134.49 103.667 134.36 103.279 134.296C102.891 134.198 102.471 134.134 102.084 134.037C101.696 133.972 101.308 133.907 100.953 133.875C100.597 133.842 100.242 133.81 99.9185 133.81C99.5953 133.778 99.3045 133.778 99.0459 133.778C98.7874 133.778 98.5612 133.778 98.3673 133.778C97.9795 133.81 97.7533 133.81 97.7533 133.81C96.4607 133.875 95.4912 134.975 95.5559 136.27C95.6205 137.565 96.7192 138.536 98.0118 138.472C98.3027 138.472 98.5935 138.374 98.8197 138.277C98.8197 138.277 98.9813 138.213 99.2398 138.083C99.3691 138.018 99.5307 137.954 99.7246 137.889C99.9185 137.824 100.145 137.727 100.371 137.662C100.597 137.565 100.888 137.5 101.179 137.436C101.47 137.339 101.76 137.306 102.084 137.241C102.407 137.177 102.73 137.112 103.085 137.08C103.441 137.015 103.796 137.015 104.152 136.982C104.507 136.982 104.863 136.95 105.218 136.982C105.574 136.982 105.929 137.015 106.285 137.047C106.64 137.08 106.963 137.112 107.286 137.177C107.61 137.241 107.9 137.274 108.159 137.339C108.45 137.403 108.676 137.468 108.902 137.533C109.128 137.598 109.322 137.662 109.484 137.695C109.807 137.792 110.001 137.856 110.001 137.856C110.033 137.856 110.098 137.856 110.13 137.792C110.13 137.792 110.098 137.759 110.065 137.727Z" fill="url(#paint5_linear)"/>
<path d="M111.971 142.874C111.971 142.874 111.939 142.809 111.874 142.679C111.81 142.55 111.713 142.356 111.551 142.161C111.486 142.064 111.39 141.935 111.293 141.838C111.196 141.708 111.099 141.611 111.002 141.482C110.776 141.255 110.517 141.028 110.226 140.802C109.935 140.608 109.612 140.413 109.321 140.252C109.16 140.187 108.998 140.122 108.869 140.057C108.707 139.993 108.578 139.96 108.449 139.928C108.19 139.863 107.932 139.798 107.77 139.766C107.609 139.734 107.512 139.734 107.512 139.734H107.479C106.865 139.636 106.284 140.09 106.187 140.705C106.09 141.32 106.542 141.903 107.156 142C107.318 142.032 107.512 142 107.641 141.967C107.641 141.967 107.706 141.935 107.803 141.903C107.899 141.87 108.061 141.838 108.255 141.805C108.352 141.773 108.449 141.773 108.578 141.773C108.707 141.773 108.804 141.773 108.934 141.773C109.192 141.773 109.483 141.805 109.741 141.87C110.032 141.935 110.291 142 110.549 142.129C110.679 142.194 110.808 142.226 110.905 142.291C111.034 142.356 111.131 142.42 111.228 142.485C111.422 142.615 111.583 142.712 111.68 142.809C111.777 142.906 111.842 142.938 111.842 142.938C111.874 142.938 111.874 142.938 111.907 142.938C111.971 142.906 111.971 142.906 111.971 142.874Z" fill="#85DBF0"/>
<path d="M151.881 127.335C151.881 127.335 151.945 127.303 152.107 127.271C152.236 127.238 152.462 127.173 152.689 127.076C152.818 127.044 152.947 126.979 153.076 126.914C153.206 126.85 153.335 126.785 153.496 126.688C153.787 126.526 154.046 126.332 154.337 126.105C154.595 125.879 154.854 125.62 155.08 125.328C155.177 125.199 155.274 125.069 155.371 124.94C155.468 124.81 155.532 124.681 155.597 124.551C155.726 124.292 155.823 124.098 155.888 123.936C155.952 123.774 155.985 123.677 155.985 123.677V123.645C156.211 123.062 155.92 122.382 155.338 122.156C154.757 121.929 154.078 122.221 153.852 122.803C153.787 122.965 153.755 123.127 153.787 123.289C153.787 123.289 153.787 123.354 153.787 123.451C153.787 123.548 153.787 123.71 153.787 123.904C153.787 124.001 153.755 124.098 153.755 124.228C153.755 124.357 153.723 124.454 153.69 124.584C153.626 124.843 153.529 125.102 153.4 125.361C153.27 125.62 153.141 125.879 152.979 126.105C152.882 126.202 152.818 126.332 152.721 126.429C152.624 126.526 152.559 126.623 152.462 126.688C152.301 126.85 152.172 126.979 152.042 127.076C151.945 127.173 151.881 127.206 151.881 127.206C151.848 127.206 151.848 127.238 151.881 127.271C151.848 127.303 151.881 127.335 151.881 127.335Z" fill="url(#paint6_linear)"/>
<path d="M112.813 98.9126C112.813 98.9126 112.845 98.8479 112.877 98.686C112.91 98.5565 112.942 98.3299 112.974 98.1033C112.974 97.9738 113.007 97.8443 113.007 97.6825C113.007 97.5206 113.007 97.3911 113.007 97.2293C112.974 96.9055 112.942 96.5494 112.845 96.2257C112.748 95.8696 112.651 95.5459 112.49 95.2222C112.425 95.0603 112.36 94.8985 112.263 94.769C112.199 94.6395 112.102 94.51 112.037 94.3805C111.876 94.1539 111.746 93.9597 111.617 93.8302C111.52 93.7007 111.455 93.636 111.455 93.636L111.423 93.6036C111.003 93.118 110.292 93.0856 109.807 93.5065C109.323 93.9273 109.29 94.6395 109.71 95.1251C109.84 95.2546 109.969 95.3517 110.131 95.4164C110.131 95.4164 110.195 95.4488 110.292 95.4812C110.389 95.5135 110.551 95.6107 110.712 95.7078C110.809 95.7725 110.874 95.8049 110.971 95.902C111.068 95.9667 111.165 96.0639 111.262 96.1286C111.455 96.2905 111.649 96.5171 111.843 96.7437C112.005 96.9703 112.166 97.2293 112.296 97.4559C112.36 97.5854 112.425 97.7148 112.457 97.812C112.522 97.9414 112.554 98.0386 112.586 98.168C112.651 98.3947 112.716 98.5565 112.716 98.7184C112.748 98.8479 112.748 98.945 112.748 98.945C112.748 98.9774 112.78 98.9774 112.813 98.9774C112.813 98.945 112.813 98.945 112.813 98.9126Z" fill="url(#paint7_linear)"/>
<path d="M108.062 92.8914C108.062 92.8914 108.062 92.7296 107.997 92.5353C107.965 92.3087 107.868 92.0174 107.706 91.7584C107.642 91.6289 107.545 91.467 107.448 91.3699C107.351 91.2404 107.254 91.1433 107.157 91.0462C107.06 90.9491 106.995 90.8843 106.931 90.852C106.866 90.8196 106.834 90.7872 106.834 90.7872C106.608 90.6254 106.317 90.6577 106.123 90.852C105.961 91.0786 105.994 91.3699 106.187 91.5642C106.252 91.5965 106.317 91.6289 106.349 91.6613C106.349 91.6613 106.381 91.6613 106.414 91.6936C106.478 91.6936 106.543 91.726 106.608 91.7584C106.705 91.7908 106.801 91.8231 106.898 91.8879C106.995 91.9526 107.125 92.0174 107.222 92.1145C107.415 92.2763 107.609 92.503 107.739 92.6648C107.868 92.8267 107.933 92.9562 107.933 92.9562C108.029 92.8914 108.029 92.9238 108.062 92.8914C108.062 92.8914 108.029 92.8914 108.062 92.8914Z" fill="#7DDBE9"/>
<path d="M37.0648 181.203C37.0648 181.203 37.1617 181.17 37.291 181.105C37.4526 181.041 37.7434 180.976 38.0989 180.911C38.7775 180.814 39.8116 180.782 41.0719 180.879C42.3322 180.976 43.851 181.203 45.5961 181.494C47.3088 181.785 49.2154 182.141 51.3159 182.53C52.35 182.692 53.4164 182.886 54.5151 183.015C54.7736 183.048 55.0645 183.08 55.323 183.112C55.6138 183.145 55.9047 183.177 56.1955 183.21C56.7772 183.274 57.3266 183.307 57.9405 183.339C60.2996 183.501 62.7555 183.566 65.1792 183.436C67.6352 183.274 70.0265 182.886 72.3532 182.206L72.4825 182.174L72.5794 182.141L72.7733 182.077L73.1611 181.947C73.4519 181.85 73.7105 181.753 73.969 181.656C74.5183 181.429 75.0354 181.203 75.5524 180.944C76.5865 180.426 77.5237 179.843 78.3962 179.195C80.1412 177.901 81.4662 176.379 82.274 174.793C82.6618 174.048 82.9204 173.304 83.0496 172.527C83.2112 171.75 83.2435 171.005 83.2112 170.293C83.1789 169.581 83.0173 168.933 82.8234 168.383C82.6295 167.833 82.371 167.412 82.0802 167.088C81.6277 166.57 81.1753 166.344 81.1753 166.344L80.1735 167.218C75.6494 171.329 68.6693 170.973 64.5975 166.441C60.4935 161.909 61.3013 154.593 65.3731 150.837C69.4448 147.082 75.197 145.626 80.8199 146.435C85.7964 147.147 88.0585 148.604 91.0962 150.967C91.8717 151.55 92.5827 152.229 93.2936 152.942C93.6491 153.298 94.0045 153.686 94.3277 154.107C94.5862 154.431 95.1679 155.175 95.4264 155.531L95.6526 155.92L95.6849 155.952C95.6526 155.92 95.9758 156.373 95.8465 156.179L95.8788 156.211L95.9758 156.373L96.1697 156.697C96.4282 157.15 96.6544 157.603 96.8806 158.056C97.333 158.963 97.6885 159.934 97.9793 160.905C98.5933 162.848 98.8842 164.887 98.9165 166.862C98.9488 168.869 98.6903 170.811 98.2379 172.721C97.7531 174.631 97.0745 176.444 96.1374 178.192C95.2002 179.94 94.0369 181.559 92.6796 182.983C90.0621 185.799 86.8628 187.806 83.599 189.134C81.9832 189.781 80.3351 190.299 78.687 190.655C77.8791 190.817 77.0389 190.979 76.2311 191.076C75.811 191.141 75.4232 191.141 75.0031 191.173L74.3891 191.206L74.0659 191.238L73.9044 191.303L73.7751 191.335L73.5166 191.367H73.3873H73.355H73.258H73.1934H72.6117C72.224 191.367 71.8362 191.367 71.4161 191.367C70.6405 191.367 69.8649 191.335 69.0894 191.27C67.5705 191.141 66.1163 190.947 64.6945 190.688C61.883 190.17 59.2655 189.457 56.8741 188.68C56.2925 188.486 55.6785 188.292 55.0968 188.098C54.8059 188.001 54.5474 187.904 54.2566 187.806C53.9334 187.709 53.6749 187.612 53.3841 187.483C52.253 187.062 51.2189 186.609 50.2172 186.188C48.2782 185.314 46.5009 184.537 44.9174 183.857C43.334 183.177 41.9767 182.627 40.8134 182.238C39.6823 181.85 38.7452 181.656 38.1312 181.623C37.808 181.591 37.6142 181.591 37.4203 181.623C37.2587 181.656 37.1617 181.656 37.1617 181.656C37.0325 181.688 36.9355 181.591 36.9032 181.462C36.9032 181.332 36.9678 181.235 37.0648 181.203Z" fill="url(#paint8_linear)"/>
<path opacity="0.4" d="M64.5017 166.408C68.2826 170.584 74.4872 171.199 78.979 168.059C76.4907 168.674 73.8409 168.545 71.4818 167.541C65.4065 164.951 63.0152 158.056 65.2773 152.067C65.5681 151.258 65.9882 150.481 66.4729 149.801C66.0528 150.125 65.6651 150.449 65.2773 150.805C61.1732 154.592 60.3976 161.908 64.5017 166.408Z" fill="#27C3DA"/>
<path opacity="0.4" d="M98.1104 172.721C98.5628 170.811 98.8214 168.869 98.789 166.862C98.7567 164.887 98.4659 162.848 97.8519 160.906C97.561 159.934 97.1733 158.963 96.7532 158.057C96.527 157.604 96.3008 157.15 96.0422 156.697L95.8483 156.373L95.7514 156.212L95.7191 156.179C95.8483 156.341 95.5252 155.888 95.5575 155.953L95.5252 155.92L95.299 155.532C95.0728 155.176 94.4911 154.431 94.2002 154.107C93.8771 153.687 93.5216 153.33 93.1662 152.942C92.4552 152.23 91.712 151.55 90.9687 150.967C88.7713 149.284 86.9939 148.054 84.3117 147.212C87.7049 148.539 90.8718 150.967 92.8753 153.687C94.4265 155.629 95.4282 157.83 95.8483 160.258C96.6562 162.589 96.8501 165.017 96.43 167.509C96.2361 171.75 94.3618 178.16 86.7354 184.343C85.1519 185.605 83.1484 186.512 81.2095 187.224C74.7464 189.62 71.2563 191.4 49.2172 185.832C49.508 185.962 49.7989 186.091 50.122 186.221C51.1238 186.641 52.1579 187.095 53.2889 187.515C53.5798 187.613 53.8383 187.71 54.1614 187.839C54.4523 187.936 54.7108 188.033 55.0017 188.131C55.5833 188.325 56.165 188.519 56.779 188.713C59.1703 189.49 61.7879 190.202 64.5993 190.72C66.0212 190.979 67.4754 191.173 68.9942 191.303C69.7375 191.368 70.5131 191.4 71.3209 191.4C71.7087 191.4 72.0965 191.4 72.5166 191.4H73.0983H73.1629C73.1306 191.4 73.2599 191.4 73.2599 191.4H73.2922H73.4214H73.68H73.8092H73.9708L74.294 191.368L74.908 191.303C75.3281 191.271 75.7158 191.206 76.1359 191.173C76.9438 191.076 77.784 190.915 78.5919 190.753C80.24 190.397 81.8881 189.911 83.5038 189.231C86.7354 187.904 89.9346 185.897 92.5845 183.08C93.9094 181.656 95.1051 180.005 96.0422 178.289C96.9471 176.444 97.6257 174.631 98.1104 172.721Z" fill="#27C3DA"/>
<g opacity="0.6">
<path opacity="0.6" d="M69.7034 158.769C69.7034 158.769 69.6388 158.64 69.5095 158.445C69.4772 158.381 69.4772 158.348 69.4772 158.348C69.4772 158.316 69.4449 158.283 69.4449 158.251C69.4126 158.219 69.4126 158.154 69.4126 158.089C69.3803 158.024 69.3803 157.96 69.3803 157.895C69.3156 157.604 69.3156 157.248 69.4126 156.762C69.5095 156.309 69.7357 155.758 70.0912 155.176C70.2528 154.884 70.479 154.625 70.7052 154.334C70.8345 154.205 70.9637 154.075 71.093 153.946L71.1576 153.881C71.1576 153.881 71.093 153.913 71.1253 153.913L71.1576 153.881L71.2869 153.784C71.3838 153.719 71.4484 153.654 71.5454 153.557C71.6423 153.492 71.707 153.395 71.8039 153.331L72.0301 153.169C72.1917 153.039 72.3533 152.942 72.5472 152.813C72.9026 152.586 73.2904 152.359 73.7105 152.165C75.3263 151.356 77.2975 150.935 79.3011 151C80.3029 151.032 81.3047 151.162 82.2418 151.388L82.5973 151.485C82.6296 151.485 82.6619 151.518 82.6619 151.518L82.7588 151.55L82.9527 151.615C83.179 151.712 83.4375 151.777 83.6637 151.874C84.1161 152.036 84.5362 152.23 84.9886 152.456C85.8611 152.877 86.6367 153.395 87.3476 153.913C88.0586 154.431 88.7049 155.014 89.2219 155.564C89.5128 155.823 89.739 156.115 89.9975 156.373C90.2237 156.665 90.4499 156.891 90.6438 157.15C91.0316 157.636 91.3548 158.122 91.581 158.51C91.7102 158.704 91.8072 158.866 91.9041 159.028C92.0011 159.19 92.0657 159.319 92.1303 159.416C92.2596 159.643 92.3242 159.74 92.3242 159.74C92.3242 159.74 92.2596 159.611 92.1626 159.384C92.098 159.287 92.0334 159.125 91.9687 158.963C91.8718 158.801 91.8072 158.607 91.6779 158.413C91.4517 157.992 91.1932 157.507 90.8377 156.989C90.6761 156.73 90.4499 156.438 90.256 156.147C90.0298 155.856 89.8036 155.532 89.5451 155.24C89.028 154.625 88.4464 154.01 87.7677 153.395C87.0891 152.78 86.3135 152.165 85.441 151.647C85.0209 151.388 84.5685 151.129 84.0838 150.903C83.8253 150.773 83.599 150.676 83.3728 150.579L83.2113 150.514L83.1143 150.482L83.0174 150.449L82.6296 150.32C81.6278 149.964 80.5291 149.705 79.4304 149.608C77.2329 149.381 74.9708 149.64 72.9673 150.417C72.4825 150.611 71.9978 150.805 71.5454 151.064C71.3192 151.162 71.093 151.323 70.8668 151.453C70.7698 151.518 70.6406 151.582 70.5436 151.647C70.4144 151.712 70.3497 151.777 70.2528 151.841C70.1558 151.906 70.0589 151.971 69.9943 152.036L69.865 152.133L69.8327 152.165L69.768 152.23L69.7034 152.295C69.5095 152.456 69.3156 152.618 69.154 152.78C68.7986 153.104 68.4754 153.46 68.2169 153.848C67.6675 154.593 67.2474 155.338 67.0212 156.115C66.7627 156.891 66.6981 157.636 66.7627 158.251C66.7627 158.413 66.795 158.575 66.8273 158.704C66.8597 158.866 66.8597 158.963 66.9243 159.125C66.9566 159.255 67.0212 159.384 67.0535 159.514C67.0859 159.643 67.1505 159.74 67.1505 159.773C67.2474 159.999 67.3121 160.129 67.3121 160.129C67.6352 160.873 68.5077 161.197 69.2187 160.873C69.9619 160.549 70.2851 159.675 69.9619 158.963C69.7357 158.834 69.7034 158.801 69.7034 158.769Z" fill="#E7F8FC"/>
</g>
<g opacity="0.6">
<path opacity="0.6" d="M77.5883 128.145C77.5883 128.145 77.556 128.112 77.5237 128.048C77.5237 128.015 77.4914 128.015 77.4914 127.983L77.459 127.951C77.459 127.951 77.4267 127.951 77.4267 127.918C77.3621 127.789 77.2651 127.562 77.2651 127.238C77.2651 126.915 77.3621 126.461 77.6206 126.041L77.6852 125.976V125.943C77.6852 125.943 77.7176 125.911 77.6529 125.976L77.6852 125.911L77.8468 125.749C77.9115 125.684 78.0084 125.555 78.1377 125.458C78.3639 125.264 78.5901 125.102 78.8809 124.972C79.1718 124.843 79.4626 124.713 79.7857 124.616C80.1089 124.519 80.3997 124.454 80.7229 124.422C81.3369 124.357 81.9832 124.357 82.5002 124.39C83.0496 124.422 83.4697 124.454 83.7929 124.487C84.116 124.519 84.2776 124.551 84.2776 124.551C84.2776 124.551 84.116 124.487 83.8252 124.39C83.5343 124.292 83.1142 124.131 82.5649 123.969C82.0478 123.807 81.4015 123.645 80.6906 123.548C80.3351 123.516 79.9473 123.483 79.5595 123.483C79.1718 123.483 78.784 123.548 78.3639 123.613C77.9761 123.71 77.556 123.839 77.1682 124.033C76.9743 124.131 76.8127 124.228 76.5865 124.357C76.5219 124.422 76.425 124.454 76.3603 124.519L76.2957 124.551L76.1987 124.616L76.0695 124.713C75.4232 125.296 75.0031 126.041 74.7769 126.785C74.5506 127.497 74.583 128.209 74.6799 128.695C74.7122 128.825 74.7445 128.954 74.7769 129.084C74.8092 129.148 74.8092 129.213 74.8415 129.278C74.8738 129.375 74.8738 129.407 74.8738 129.407C75.1 130.184 75.9079 130.637 76.6835 130.378C77.459 130.152 77.9115 129.343 77.6529 128.566C77.6853 128.371 77.6529 128.242 77.5883 128.145Z" fill="#E7F8FC"/>
</g>
<g opacity="0.6">
<path opacity="0.6" d="M96.558 106.682C96.558 106.682 96.7519 106.65 97.1073 106.585C97.3012 106.552 97.5274 106.52 97.7859 106.455C97.9152 106.423 98.0768 106.423 98.206 106.391C98.3676 106.358 98.4969 106.358 98.6585 106.326C98.9816 106.293 99.3371 106.229 99.7572 106.164C100.177 106.132 100.597 106.067 101.082 106.034C101.535 106.002 102.052 105.97 102.569 105.937C103.086 105.937 103.635 105.905 104.217 105.905C105.38 105.905 106.608 106.002 107.933 106.164C109.258 106.326 110.647 106.585 112.069 106.941C113.491 107.297 114.945 107.718 116.432 108.203C117.175 108.462 117.918 108.689 118.662 108.98C119.017 109.11 119.405 109.239 119.76 109.401L120.859 109.854C122.313 110.469 123.735 111.117 125.092 111.861C125.448 112.023 125.771 112.218 126.127 112.412C126.45 112.606 126.805 112.8 127.128 112.994C127.775 113.383 128.421 113.771 129.035 114.192C130.295 115.002 131.426 115.876 132.525 116.685C133.042 117.106 133.559 117.527 134.044 117.947C134.529 118.368 135.013 118.757 135.433 119.178C136.306 119.987 137.081 120.764 137.76 121.476C138.083 121.832 138.406 122.156 138.697 122.479C138.988 122.803 139.214 123.095 139.441 123.354C139.893 123.871 140.248 124.325 140.475 124.616C140.701 124.907 140.83 125.069 140.83 125.069C140.83 125.069 140.701 124.907 140.507 124.616C140.281 124.325 139.99 123.871 139.537 123.321C139.311 123.03 139.085 122.738 138.827 122.415C138.568 122.091 138.277 121.735 137.954 121.379C137.308 120.634 136.597 119.825 135.757 118.951C135.336 118.498 134.884 118.077 134.432 117.624C133.979 117.17 133.462 116.717 132.945 116.264C131.911 115.358 130.78 114.419 129.552 113.545C128.938 113.092 128.324 112.671 127.678 112.218C127.355 111.991 127.031 111.797 126.676 111.57C126.353 111.343 125.997 111.149 125.674 110.955C124.317 110.113 122.895 109.369 121.409 108.657L120.31 108.171C119.922 107.977 119.567 107.847 119.211 107.685C118.468 107.362 117.725 107.07 117.014 106.747C115.527 106.164 114.073 105.614 112.586 105.16C111.132 104.707 109.678 104.351 108.288 104.092C106.899 103.833 105.574 103.671 104.314 103.574C103.7 103.509 103.086 103.509 102.536 103.477C101.987 103.477 101.438 103.477 100.921 103.477C100.403 103.509 99.9511 103.509 99.4987 103.542C99.0462 103.574 98.6585 103.607 98.303 103.639C98.1091 103.639 97.9475 103.671 97.7859 103.671C97.6244 103.704 97.4951 103.704 97.3335 103.704C97.075 103.736 96.8488 103.768 96.6549 103.768C96.2671 103.801 96.0732 103.833 96.0732 103.833C95.2653 103.93 94.716 104.642 94.7806 105.452C94.8776 106.261 95.5885 106.811 96.3964 106.747C96.4933 106.682 96.5256 106.682 96.558 106.682Z" fill="#E7F8FC"/>
</g>
</g>
<defs>
<linearGradient id="paint0_linear" x1="106.816" y1="208.267" x2="72.4122" y2="108.981" gradientUnits="userSpaceOnUse">
<stop stop-color="#27C3DA"/>
<stop offset="0.4533" stop-color="#85DBF0"/>
<stop offset="1" stop-color="#C4EEF8"/>
</linearGradient>
<linearGradient id="paint1_linear" x1="111.443" y1="93.9753" x2="97.3576" y2="93.9753" gradientUnits="userSpaceOnUse">
<stop stop-color="#27C3DA"/>
<stop offset="0.4533" stop-color="#85DBF0"/>
<stop offset="1" stop-color="#C4EEF8"/>
</linearGradient>
<linearGradient id="paint2_linear" x1="156.705" y1="173.607" x2="144.871" y2="173.607" gradientUnits="userSpaceOnUse">
<stop stop-color="#27C3DA"/>
<stop offset="0.4533" stop-color="#85DBF0"/>
<stop offset="1" stop-color="#C4EEF8"/>
</linearGradient>
<linearGradient id="paint3_linear" x1="153.104" y1="120.487" x2="143.073" y2="120.487" gradientUnits="userSpaceOnUse">
<stop stop-color="#27C3DA"/>
<stop offset="0.4533" stop-color="#85DBF0"/>
<stop offset="1" stop-color="#C4EEF8"/>
</linearGradient>
<linearGradient id="paint4_linear" x1="111.029" y1="127.226" x2="74.147" y2="127.226" gradientUnits="userSpaceOnUse">
<stop stop-color="#27C3DA"/>
<stop offset="0.4533" stop-color="#85DBF0"/>
<stop offset="1" stop-color="#C4EEF8"/>
</linearGradient>
<linearGradient id="paint5_linear" x1="112.325" y1="136.157" x2="96.0106" y2="136.157" gradientUnits="userSpaceOnUse">
<stop stop-color="#27C3DA"/>
<stop offset="0.4533" stop-color="#85DBF0"/>
<stop offset="1" stop-color="#C4EEF8"/>
</linearGradient>
<linearGradient id="paint6_linear" x1="155.99" y1="124.698" x2="150.759" y2="124.698" gradientUnits="userSpaceOnUse">
<stop stop-color="#27C3DA"/>
<stop offset="0.4533" stop-color="#85DBF0"/>
<stop offset="1" stop-color="#C4EEF8"/>
</linearGradient>
<linearGradient id="paint7_linear" x1="113.904" y1="96.0891" x2="109.648" y2="96.0891" gradientUnits="userSpaceOnUse">
<stop stop-color="#27C3DA"/>
<stop offset="0.4533" stop-color="#85DBF0"/>
<stop offset="1" stop-color="#C4EEF8"/>
</linearGradient>
<linearGradient id="paint8_linear" x1="78.4884" y1="191.954" x2="58.4811" y2="153.786" gradientUnits="userSpaceOnUse">
<stop stop-color="#27C3DA"/>
<stop offset="0.4533" stop-color="#85DBF0"/>
<stop offset="1" stop-color="#C4EEF8"/>
</linearGradient>
</defs>
</svg>
