<svg width="563" height="335" viewBox="0 0 563 335" fill="none" xmlns="http://www.w3.org/2000/svg">
<path d="M19.7891 257.503C19.7891 257.368 19.7891 257.214 19.7891 257.061V256.753V256.618C19.7891 256.477 19.7891 256.336 19.7891 256.195C19.7891 256.041 19.7891 255.888 19.7891 255.734C19.7719 254.974 19.8299 254.213 19.9622 253.465C19.9737 253.391 19.9613 253.316 19.9268 253.251C19.8924 253.185 19.8378 253.132 19.771 253.1C19.7042 253.067 19.6288 253.057 19.5559 253.071C19.483 253.085 19.4164 253.122 19.3661 253.176C18.7756 254.005 17.9807 254.668 17.0586 255.099L16.2125 254.715C16.3034 254.522 16.3182 254.302 16.2541 254.099C16.1899 253.896 16.0515 253.724 15.8664 253.618C15.6164 253.465 15.251 253.369 15.0587 253.099C14.8664 252.83 14.9626 252.522 14.828 252.234C14.3664 251.33 12.6742 252.042 11.9243 251.599C11.5012 251.349 11.4243 250.811 11.0782 250.484C10.8563 250.331 10.6047 250.226 10.3397 250.176C10.0747 250.127 9.80218 250.133 9.53987 250.196C9.00144 250.196 8.50148 250.619 7.98229 250.369C7.4631 250.119 7.34771 249.619 6.77083 249.676C6.19395 249.734 5.5017 250.849 5.46324 251.715C4.35804 251.899 3.31767 252.361 2.43981 253.057C1.56195 253.753 0.875325 254.661 0.444336 255.695C0.812374 256.163 1.26187 256.56 1.77117 256.868L2.13653 257.08L2.55958 257.291C2.93208 257.463 3.31795 257.605 3.71336 257.714L4.09797 258.56L4.21334 258.791V258.926V259.022L4.30947 259.118C4.46562 259.262 4.64018 259.385 4.82864 259.483C5.04029 259.593 5.26713 259.671 5.50168 259.714L6.32853 259.868L4.57871 257.714C4.99493 257.741 5.41238 257.741 5.82861 257.714H5.96317C6.27084 258.234 6.54005 258.83 7.29 258.618C7.73228 258.484 7.80921 258.349 8.32841 258.445C8.65234 258.507 8.98519 258.507 9.30912 258.445C9.63715 258.327 9.94763 258.166 10.2321 257.964C10.5871 257.841 10.9732 257.841 11.3282 257.964C12.1935 258.099 12.4243 257.599 13.1165 257.272C13.4242 257.138 13.9434 257.118 14.1934 256.849C14.2661 256.778 14.3173 256.688 14.3411 256.59C14.3649 256.491 14.3604 256.388 14.328 256.291H14.4818H14.6741H14.8087H15.001H15.1356H15.3279H15.4241H15.6356H15.8471H16.0586H16.2894H16.5202C17.1984 256.546 17.8007 256.97 18.27 257.522L18.5585 257.83L18.7892 258.08C18.8215 258.113 18.8603 258.14 18.9033 258.159C18.9463 258.177 18.9925 258.186 19.0392 258.186C19.0859 258.186 19.1321 258.177 19.1751 258.159C19.2181 258.14 19.2569 258.113 19.2892 258.08C19.342 258.028 19.3759 257.961 19.3853 257.887C19.4388 257.897 19.4937 257.894 19.5456 257.878C19.5976 257.862 19.6452 257.835 19.6845 257.797C19.7238 257.76 19.7537 257.714 19.7719 257.663C19.7901 257.611 19.796 257.557 19.7891 257.503Z" fill="#65A4C5"/>
<path d="M65.8624 332.364C65.8624 332.23 65.8624 332.076 65.8624 331.922V331.614V331.48C65.8624 331.339 65.8624 331.198 65.8624 331.057C65.8624 330.903 65.8624 330.749 65.8624 330.595C65.8451 329.835 65.9031 329.075 66.0354 328.326C66.0469 328.253 66.0345 328.178 66 328.112C65.9656 328.046 65.911 327.993 65.8442 327.961C65.7774 327.929 65.702 327.919 65.6291 327.932C65.5562 327.946 65.4897 327.983 65.4393 328.038C64.8488 328.867 64.0539 329.529 63.1318 329.961L62.2857 329.576C62.3766 329.383 62.3915 329.163 62.3273 328.96C62.2632 328.757 62.1247 328.585 61.9395 328.48C61.6896 328.326 61.3242 328.23 61.1319 327.961C60.9396 327.691 61.0357 327.384 60.9011 327.095C60.4396 326.192 58.7475 326.903 57.9975 326.461C57.5745 326.211 57.4976 325.672 57.1514 325.345C56.9296 325.192 56.6779 325.087 56.4129 325.038C56.1479 324.988 55.8754 324.995 55.6131 325.057C55.0746 325.057 54.5747 325.48 54.0555 325.23C53.5363 324.98 53.4209 324.48 52.844 324.538C52.2671 324.595 51.5749 325.711 51.5364 326.576C50.4312 326.76 49.3909 327.222 48.5131 327.918C47.6352 328.615 46.9486 329.522 46.5176 330.557C46.8856 331.024 47.3351 331.422 47.8444 331.73L48.2097 331.941L48.6328 332.153C49.0055 332.324 49.3913 332.466 49.7865 332.576L50.1712 333.422L50.2865 333.653V333.787V333.883L50.3826 333.98C50.5388 334.124 50.7134 334.247 50.9019 334.345C51.1135 334.455 51.3403 334.533 51.5749 334.576L52.4018 334.729L50.6519 332.576C51.0681 332.602 51.4856 332.602 51.9018 332.576H52.0364C52.3441 333.095 52.6133 333.691 53.3632 333.48C53.8055 333.345 53.8824 333.21 54.4016 333.306C54.7255 333.369 55.0584 333.369 55.3823 333.306C55.7103 333.189 56.0209 333.027 56.3053 332.826C56.6603 332.703 57.0464 332.703 57.4014 332.826C58.2667 332.96 58.4975 332.46 59.1898 332.133C59.4974 331.999 60.0166 331.98 60.2666 331.71C60.3393 331.64 60.3905 331.55 60.4144 331.451C60.4382 331.352 60.4336 331.249 60.4012 331.153H60.555H60.7473H60.882H61.0742H61.2088H61.4011H61.4972H61.7088H61.9203H62.1319H62.3626H62.5933C63.2716 331.408 63.8738 331.831 64.3432 332.383L64.6317 332.691L64.8624 332.941C64.8947 332.975 64.9335 333.002 64.9765 333.02C65.0194 333.038 65.0657 333.048 65.1124 333.048C65.1591 333.048 65.2053 333.038 65.2483 333.02C65.2913 333.002 65.3301 332.975 65.3624 332.941C65.4152 332.89 65.449 332.822 65.4585 332.749C65.5119 332.758 65.5669 332.755 65.6189 332.739C65.6709 332.724 65.7184 332.696 65.7577 332.659C65.797 332.621 65.8269 332.575 65.8451 332.524C65.8633 332.473 65.8692 332.418 65.8624 332.364Z" fill="#65A4C5"/>
<path d="M561.943 8.40617C561.943 8.27157 561.943 8.11765 561.943 7.96382V7.6562V7.52158C561.943 7.38056 561.943 7.23949 561.943 7.09847C561.943 6.94464 561.943 6.79082 561.943 6.63698C561.926 5.87677 561.984 5.11673 562.117 4.36793C562.128 4.29463 562.116 4.21957 562.081 4.15385C562.047 4.08813 561.992 4.03523 561.925 4.00292C561.858 3.9706 561.783 3.96061 561.71 3.9744C561.637 3.98818 561.571 4.02508 561.52 4.07956C560.93 4.90877 560.135 5.57119 559.213 6.0025L558.367 5.61789C558.458 5.42517 558.473 5.20526 558.408 5.00206C558.344 4.79886 558.206 4.62734 558.021 4.5218C557.771 4.36796 557.405 4.27178 557.213 4.00256C557.021 3.73335 557.117 3.42566 556.982 3.13722C556.521 2.23343 554.829 2.94501 554.079 2.50273C553.656 2.25275 553.579 1.71429 553.233 1.38739C553.011 1.23414 552.759 1.12923 552.494 1.07954C552.229 1.02985 551.956 1.03644 551.694 1.0989C551.156 1.0989 550.656 1.522 550.137 1.27202C549.617 1.02204 549.502 0.522102 548.925 0.57979C548.348 0.637478 547.656 1.75278 547.617 2.6181C546.512 2.80223 545.472 3.26408 544.594 3.96031C543.716 4.65655 543.03 5.56437 542.599 6.5986C542.967 7.06631 543.416 7.46365 543.925 7.77157L544.291 7.98307L544.714 8.19456C545.087 8.36612 545.472 8.50765 545.868 8.61767L546.252 9.46377L546.368 9.69451V9.82913V9.92525L546.464 10.0214C546.62 10.1656 546.795 10.2884 546.983 10.3867C547.195 10.4966 547.421 10.5744 547.656 10.6175L548.483 10.7714L546.733 8.61767C547.149 8.64384 547.567 8.64384 547.983 8.61767H548.117C548.425 9.13686 548.694 9.73292 549.444 9.52139C549.887 9.38679 549.964 9.25225 550.483 9.3484C550.807 9.4107 551.139 9.4107 551.463 9.3484C551.791 9.23071 552.102 9.06899 552.386 8.86766C552.741 8.74458 553.128 8.74458 553.483 8.86766C554.348 9.00227 554.579 8.50221 555.271 8.17531C555.579 8.04071 556.098 8.02153 556.348 7.75232C556.42 7.68151 556.472 7.59161 556.495 7.49294C556.519 7.39427 556.515 7.2909 556.482 7.19471H556.636H556.828H556.963H557.155H557.29H557.482H557.578H557.79H558.001H558.213H558.444H558.674C559.353 7.44977 559.955 7.8732 560.424 8.4253L560.713 8.73304L560.943 8.98303C560.976 9.01677 561.015 9.04356 561.058 9.0619C561.1 9.08025 561.147 9.08972 561.193 9.08972C561.24 9.08972 561.286 9.08025 561.329 9.0619C561.372 9.04356 561.411 9.01677 561.443 8.98303C561.496 8.93161 561.53 8.86377 561.54 8.79067C561.593 8.80015 561.648 8.79694 561.7 8.78128C561.752 8.76562 561.8 8.73796 561.839 8.70053C561.878 8.6631 561.908 8.61694 561.926 8.56579C561.944 8.51465 561.95 8.46002 561.943 8.40617Z" fill="#65A4C5"/>
</svg>
