<svg width="28" height="6" viewBox="0 0 28 6" fill="none" xmlns="http://www.w3.org/2000/svg">
<path fill-rule="evenodd" clip-rule="evenodd" d="M13.6775 5.71634C14.4223 5.58876 15.1515 5.38259 15.8529 5.1013C16.1376 4.85074 15.477 4.2357 15.477 4.2357C15.477 4.2357 18.7458 1.95781 20.887 1.95781H26.8096C27.9485 1.95781 26.8096 1.24027 26.2515 0.909978C25.6934 0.579683 25.3631 0.477181 23.1422 0.477181H19.1444C17.9076 0.620777 16.7115 1.00787 15.6251 1.61613H14.919C14.919 1.61613 14.5431 0.238002 13.6319 0.192444C12.7208 0.146886 12.3449 1.61613 12.3449 1.61613H11.6388C10.5524 1.00787 9.35624 0.620777 8.11944 0.477181H4.14451C1.92356 0.477181 1.61605 0.579683 1.03519 0.909978C0.454322 1.24027 -0.627678 1.95781 0.477101 1.95781H6.39963C8.54085 1.95781 11.8096 4.2357 11.8096 4.2357C11.8096 4.2357 11.149 4.85074 11.4452 5.1013C12.1648 5.3865 12.9133 5.59272 13.6775 5.71634Z" fill="#BFCFED"/>
</svg>
