<svg width="28" height="7" viewBox="0 0 28 7" fill="none" xmlns="http://www.w3.org/2000/svg">
<path fill-rule="evenodd" clip-rule="evenodd" d="M14.0753 6.50931C14.8203 6.38231 15.5495 6.17613 16.2507 5.89427C16.5354 5.6437 15.8748 5.02868 15.8748 5.02868C15.8748 5.02868 19.1436 2.75078 21.2848 2.75078H27.2074C28.3463 2.75078 27.2074 2.03324 26.6493 1.70295C26.0912 1.37265 25.7609 1.27015 23.54 1.27015H19.5764C18.3395 1.41345 17.1434 1.80056 16.0571 2.4091H15.3509C15.3509 2.4091 14.9751 1.03097 14.0639 0.985413C13.1528 0.939855 12.7769 2.4091 12.7769 2.4091H12.0708C10.9843 1.80084 9.78821 1.41375 8.55141 1.27015H4.58787C2.30998 1.27015 2.0594 1.37265 1.47854 1.70295C0.897673 2.03324 -0.184316 2.75078 0.920463 2.75078H6.84299C8.98421 2.75078 12.253 5.02868 12.253 5.02868C12.253 5.02868 11.5924 5.6437 11.8771 5.89427C12.5856 6.17761 13.3226 6.38381 14.0753 6.50931Z" fill="#BFCFED"/>
</svg>
