<svg width="28" height="6" viewBox="0 0 28 6" fill="none" xmlns="http://www.w3.org/2000/svg">
<path fill-rule="evenodd" clip-rule="evenodd" d="M14.1 5.82767C14.8488 5.70129 15.5819 5.49511 16.2868 5.21263C16.5716 4.96206 15.911 4.34703 15.911 4.34703C15.911 4.34703 19.1797 2.06914 21.321 2.06914H27.2435C28.3825 2.06914 27.2435 1.3516 26.6854 1.02131C26.1273 0.691011 25.797 0.588509 23.5761 0.588509H19.6125C18.3756 0.731514 17.1794 1.11864 16.0932 1.72746H15.3871C15.3871 1.72746 15.0112 0.34933 14.1 0.303772C13.1889 0.258214 12.813 1.72746 12.813 1.72746H12.1069C11.0207 1.11864 9.82447 0.731514 8.58754 0.588509H4.62401C2.34611 0.588509 2.09553 0.691011 1.51467 1.02131C0.933806 1.3516 -0.148183 2.06914 0.956596 2.06914H6.87912C9.02034 2.06914 12.2891 4.34703 12.2891 4.34703C12.2891 4.34703 11.6285 4.96206 11.9133 5.21263C12.618 5.49544 13.3512 5.70164 14.1 5.82767Z" fill="#BFCFED"/>
</svg>
