<svg width="655" height="144" viewBox="0 0 655 144" fill="none" xmlns="http://www.w3.org/2000/svg">
<path fill-rule="evenodd" clip-rule="evenodd" d="M643.221 106.626C632.842 125.743 620.175 131.777 605.221 124.729L643.221 106.626Z" fill="#95DC8F"/>
<path fill-rule="evenodd" clip-rule="evenodd" d="M579.189 106C575.572 121.845 575.445 134.652 578.81 144.42H589.322C585.612 130.443 582.234 117.636 579.189 106Z" fill="#95DC8F"/>
<path fill-rule="evenodd" clip-rule="evenodd" d="M586.75 81.1582C583.226 109.085 588.452 125.509 602.429 130.429L586.75 81.1582Z" fill="#95DC8F"/>
<path fill-rule="evenodd" clip-rule="evenodd" d="M601.043 144.213L638.764 34.6294C638.897 34.2326 638.866 33.7996 638.679 33.4255C638.492 33.0514 638.164 32.7669 637.767 32.6346C637.37 32.5024 636.937 32.5332 636.563 32.7202C636.189 32.9073 635.904 33.2352 635.772 33.632L597.722 144.213H601.043Z" fill="#95DC8F"/>
<path fill-rule="evenodd" clip-rule="evenodd" d="M625.647 67.8224L627.114 63.5535C626.621 46.7375 626.621 30.7792 627.114 15.6787C616.528 42.1694 616.039 59.5507 625.647 67.8224Z" fill="#95DC8F"/>
<path fill-rule="evenodd" clip-rule="evenodd" d="M617.619 91.261L618.616 88.3386C612.193 78.8834 608.287 64.7337 606.897 45.8896C600.78 74.6478 604.354 89.7715 617.619 91.261Z" fill="#95DC8F"/>
<path fill-rule="evenodd" clip-rule="evenodd" d="M650.912 0C646.423 29.8619 640.266 44.3606 632.44 43.4962C631.183 27.7973 637.34 13.2986 650.912 0Z" fill="#95DC8F"/>
<path fill-rule="evenodd" clip-rule="evenodd" d="M654.922 49.3809C645.427 78.764 634.236 89.1069 621.35 80.4097C636.603 74.8177 647.794 64.4747 654.922 49.3809Z" fill="#95DC8F"/>
<path fill-rule="evenodd" clip-rule="evenodd" d="M640.081 95.1514C628.916 109.514 619.119 114.926 610.688 111.389L640.081 95.1514Z" fill="#95DC8F"/>
<path fill-rule="evenodd" clip-rule="evenodd" d="M638.134 134C637.111 137.539 635.776 140.98 634.145 144.283H624.55C630.7 140.626 635.229 137.198 638.134 134Z" fill="#BAD491"/>
<path fill-rule="evenodd" clip-rule="evenodd" d="M624.181 131.656C620.56 128.743 617.149 126.858 615.125 127.776C614.966 127.848 614.843 127.979 614.781 128.142C614.719 128.304 614.725 128.485 614.795 128.644L614.865 128.763C615.946 130.824 616.805 132.994 617.429 135.236C618.087 137.231 618.795 139.425 619.723 141.58C620.112 142.484 620.561 143.36 621.069 144.203H636.808C632.949 139.682 628.726 135.486 624.181 131.656Z" fill="#138175"/>
<path fill-rule="evenodd" clip-rule="evenodd" d="M577.454 136.434C576.092 133.824 574.583 131.293 572.936 128.854C572.816 128.828 572.699 128.791 572.587 128.744C571.589 128.345 570.592 126.909 569.834 125.831C569.595 125.492 569.385 125.193 569.235 125.004C568.647 124.276 567.919 123.398 567.171 122.49C559.72 113.514 550.355 102.193 556.409 88.4194C556.44 88.3083 556.496 88.206 556.573 88.1203C556.651 88.0346 556.747 87.9679 556.854 87.9254C556.961 87.8829 557.076 87.8658 557.191 87.8754C557.306 87.8849 557.417 87.9209 557.516 87.9805C558.194 88.2797 559.142 90.0451 559.88 91.4115C560.169 91.9501 560.428 92.4089 560.588 92.6782C562.236 95.082 564.074 97.35 566.084 99.4604C569.275 102.991 572.457 106.522 574.063 111.2C574.731 114.108 575.065 117.083 575.06 120.067C575.15 123.268 575 126.37 574.482 127.657C574.387 127.904 574.256 128.136 574.093 128.345C575.7 130.743 577.175 133.227 578.511 135.785C579.14 136.992 579.698 138.179 580.177 139.316C580.303 137.953 580.506 136.533 580.785 135.057C581.283 132.509 581.949 129.997 582.78 127.537C584.057 120.226 584.286 113.863 583.339 108.327C583.172 107.343 582.966 106.386 582.72 105.455C581.668 101.302 579.682 97.4445 576.915 94.1743C576.823 94.0579 576.773 93.9138 576.773 93.7654C576.773 93.6169 576.823 93.4728 576.915 93.3564C574.681 90.7034 569.585 75.184 572.347 62.5271C573.684 56.3931 575.888 50.8077 576.337 46.7583C580.755 47.9552 581.583 74.1966 581.424 79.363C581.101 84.1601 579.886 88.8549 577.843 93.2068C577.891 93.2408 577.935 93.2811 577.973 93.3265C580.319 96.089 582.128 99.2653 583.309 102.692C583.797 100.607 584.386 98.4831 585.054 96.3985C585.49 91.2138 585.576 86.0056 585.313 80.8093C585.094 73.3887 584.875 66.1676 586.979 57.8693C586.151 57.1013 585.852 54.877 585.633 53.2712C585.573 52.8124 585.513 52.3935 585.453 52.0844C585.204 50.7877 584.954 49.6009 584.705 48.3841C582.002 35.1786 578.601 18.5621 590.061 6.93248C590.129 6.84356 590.217 6.77151 590.317 6.72191C590.417 6.67231 590.528 6.64648 590.639 6.64648C590.751 6.64648 590.862 6.67231 590.962 6.72191C591.062 6.77151 591.15 6.84356 591.218 6.93248C591.757 7.47107 591.836 9.92464 591.896 11.7798C591.896 12.5079 591.896 13.1462 591.976 13.5053C592.406 16.8923 593.073 20.245 593.971 23.539C595.267 28.8551 596.564 34.1712 595.966 39.9361C595.294 43.3274 594.292 46.6446 592.973 49.8402C591.647 53.2812 590.151 56.4928 589.123 57.6C588.892 57.8709 588.602 58.0857 588.276 58.2283C586.211 66.367 586.421 73.4984 586.64 80.8193C586.75 84.3799 586.859 87.9905 586.71 91.7906C587.587 89.4966 588.535 87.3322 589.512 85.3873C589.367 85.1563 589.26 84.9038 589.193 84.6392C588.784 83.193 588.924 79.5126 589.323 75.6627C589.619 72.033 590.243 68.4377 591.188 64.9208C593.302 59.0861 596.883 54.3584 600.464 49.6308C602.767 46.7186 604.889 43.6674 606.817 40.4947C607.017 40.1556 607.326 39.4973 607.685 38.829C608.612 36.9839 609.819 34.5802 610.547 34.3508C610.649 34.3045 610.759 34.2827 610.871 34.2873C610.982 34.2918 611.091 34.3225 611.188 34.3769C611.285 34.4314 611.368 34.5079 611.43 34.6004C611.492 34.6929 611.531 34.7987 611.545 34.9093C616.402 50.3988 605.78 65.4195 597.342 77.3483C596.604 78.3457 595.886 79.4029 594.988 80.6995C594.799 80.9688 594.559 81.3578 594.28 81.8067C593.283 83.3726 591.976 85.517 590.849 85.7962H590.749C589.265 88.781 587.985 91.8634 586.919 95.0221C585.765 98.3717 584.832 101.793 584.126 105.265C584.366 106.19 584.569 107.14 584.735 108.118C585.448 112.713 585.531 117.384 584.984 122.002C585.337 121.164 585.709 120.316 586.101 119.458C585.972 118.072 586.839 114.232 588.206 110.123C589.359 106.517 590.877 103.038 592.734 99.7397C594.21 97.3161 598.329 92.8577 602.598 88.6188C608.243 83.0135 614.308 77.8071 615.056 78.0066C615.156 78.0345 615.248 78.0857 615.325 78.1562C615.408 78.2324 615.469 78.3286 615.504 78.4355C616.093 79.9515 614.507 85.6067 612.063 91.6309C609.53 97.9245 606.149 104.747 603.576 107.589L603.207 107.978C602.119 109.065 596.614 113.963 592.315 117.194C590.221 118.78 588.325 119.977 587.218 120.186C586.069 122.7 585.047 125.27 584.156 127.886V127.946C583.329 130.356 582.662 132.818 582.162 135.317C581.568 138.233 581.333 141.21 581.463 144.184H580.147C580.147 143.731 580.147 143.269 580.147 142.797C579.453 140.596 578.551 138.465 577.454 136.434Z" fill="#138175"/>
<path fill-rule="evenodd" clip-rule="evenodd" d="M533.887 124.416C535.056 125.158 536.173 125.982 537.228 126.88C537.846 127.378 538.385 127.817 538.694 128.027C541.812 130.089 545.072 131.929 548.449 133.532C553.825 136.245 559.2 138.958 563.409 143.456C563.628 143.698 563.835 143.951 564.028 144.214H540.679C537.785 141.404 535.482 138.044 533.907 134.33L533.887 124.416Z" fill="#138175"/>
<path d="M11.1933 144.8C0.222018 138.397 -1.05464 132.333 2.2168 123.267C6.56543 111.039 23.6208 109.712 26.4035 109.553H26.5931C27.6798 109.5 28.731 109.149 29.6306 108.537C30.5303 107.925 31.2434 107.077 31.6912 106.085C32.139 105.094 32.3041 103.998 32.1683 102.918C32.0325 101.839 31.6011 100.818 30.9217 99.9677L29.6551 98.3818C17.1777 82.7328 14.8139 78.5537 15.9409 74.5641C17.3572 69.5772 23.6408 67.2433 25.3263 66.585C43.419 59.9723 66.379 79.6508 75.1361 87.1612C78.1283 89.7544 80.8013 92.2778 83.1152 94.6217C83.4403 94.956 83.8584 95.1847 84.3152 95.2783C84.772 95.3718 85.2463 95.3257 85.6766 95.1461C86.1069 94.9665 86.4732 94.6615 86.7279 94.2709C86.9826 93.8804 87.1139 93.4222 87.1048 92.956C87.0899 91.3599 87.3255 89.7714 87.803 88.2484C89.1794 83.8299 92.6004 79.8304 96.4603 78.5038C99.2331 77.5064 106.813 76.3894 124.617 95.1104C134.72 105.733 148.035 117.991 159.146 144.8C110.813 145.09 59.4371 144.561 11.1933 144.8Z" fill="#138175"/>
<path d="M93.0388 142.307C89.3783 138.916 87.5531 134.328 85.6481 129.87C81.7959 120.789 76.7658 112.254 70.6872 104.486C69.8706 101.635 68.8369 98.8508 67.5953 96.1577C66.9304 94.7082 66.1957 93.2819 65.3911 91.8789C64.6929 90.6421 63.9249 88.8867 62.6881 88.1287C62.2094 87.8295 61.7406 88.3282 61.8204 88.7969C61.9963 89.5125 62.3041 90.189 62.728 90.7917C63.117 91.46 63.516 92.1282 63.895 92.7865C64.6663 94.1164 65.3844 95.4894 66.0494 96.9057C66.7143 98.322 67.3393 99.7317 67.9245 101.135C65.7834 98.5215 63.516 96.0347 61.1222 93.6742C57.1682 89.7571 52.9166 86.1524 48.4055 82.8924C47.6774 82.3638 47.0191 83.5507 47.7073 84.0793C61.1383 94.2623 72.184 107.255 80.0727 122.15C78.1283 120.709 76.0431 119.47 73.849 118.449C72.5489 117.846 71.2171 117.313 69.8594 116.854C68.7822 116.495 66.9171 115.637 65.8698 116.235C65.8049 116.272 65.7479 116.322 65.7022 116.381C65.6565 116.441 65.623 116.508 65.6035 116.581C65.584 116.653 65.5791 116.728 65.5888 116.803C65.5986 116.877 65.6229 116.948 65.6604 117.013C66.3885 118.011 68.1738 118.11 69.2909 118.449C70.6487 118.862 71.9809 119.355 73.2804 119.926C75.8879 121.079 78.3653 122.507 80.6711 124.184C80.7601 124.242 80.8641 124.273 80.9704 124.273C81.0766 124.273 81.1805 124.242 81.2696 124.184C82.2071 126.053 83.0914 127.951 83.9226 129.879C85.9772 134.657 87.8024 140.053 92.0114 143.404C92.6897 144.092 93.8367 143.045 93.0388 142.307Z" fill="#2B5250"/>
<path d="M129.843 144.721C123.39 141.211 119.211 134.748 116.268 128.225C113.077 121.143 111.281 113.543 108.04 106.472C107.147 104.479 106.114 102.552 104.948 100.707C103.855 98.768 102.43 97.0361 100.739 95.59C100.141 95.1312 99.3426 96.0089 99.7416 96.5874C100.809 98.243 102.175 99.6893 103.252 101.355C104.319 103.026 105.276 104.765 106.115 106.561C106.484 107.339 106.833 108.127 107.162 108.915C105.308 107.925 103.351 107.139 101.327 106.571C100.211 106.258 99.0748 106.022 97.9264 105.863C96.8273 105.607 95.6841 105.607 94.5851 105.863C94.1861 106.003 93.9667 106.681 94.4454 106.86C95.3922 107.162 96.375 107.337 97.3678 107.379C98.5012 107.52 99.6264 107.72 100.739 107.978C102.935 108.501 105.058 109.292 107.062 110.331C107.164 110.395 107.282 110.429 107.402 110.429C107.522 110.429 107.639 110.395 107.741 110.331C108.738 112.815 109.616 115.318 110.493 117.862C112.937 124.923 115.431 132.105 120.068 138.069C122.501 141.289 125.676 143.873 129.324 145.599C129.943 145.898 130.441 145.091 129.843 144.721Z" fill="#2B5250"/>
<path d="M52.5555 144.262C50.1518 141.469 47.4689 138.896 44.8657 136.283C42.6624 134.011 40.3313 131.867 37.884 129.86C35.5 127.887 32.8841 126.212 30.0943 124.873C27.4612 123.676 24.3294 122.529 21.397 122.878C20.6889 122.958 20.3997 124.045 21.2175 124.225C22.7036 124.554 24.2097 124.723 25.6858 125.132C27.0757 125.513 28.4279 126.021 29.7253 126.648C31.0244 127.28 32.2805 127.996 33.4854 128.793C31.4308 128.593 29.3563 128.503 27.2917 128.394L22.9729 128.154C21.6963 128.084 20.0805 127.725 18.8936 128.264C18.8113 128.319 18.7438 128.393 18.6971 128.48C18.6504 128.567 18.626 128.664 18.626 128.763C18.626 128.861 18.6504 128.959 18.6971 129.046C18.7438 129.133 18.8113 129.207 18.8936 129.261C19.9508 129.89 21.5966 129.71 22.7934 129.77L27.1121 129.989C29.9348 130.139 32.7674 130.349 35.59 130.239C36.1419 130.651 36.6838 131.077 37.2157 131.516C42.3623 135.715 46.671 140.781 51.6779 145.12C51.7986 145.181 51.9354 145.203 52.0691 145.182C52.2029 145.162 52.3269 145.1 52.4236 145.005C52.5204 144.91 52.5851 144.788 52.6088 144.655C52.6325 144.522 52.6138 144.384 52.5555 144.262Z" fill="#2B5250"/>
</svg>
