<svg width="156" height="184" viewBox="0 0 156 184" fill="none" xmlns="http://www.w3.org/2000/svg">
<path fill-rule="evenodd" clip-rule="evenodd" d="M-158.279 0.381712C-148.799 -0.775029 -139.184 0.709298 -130.494 4.67092C-121.805 8.63254 -114.378 14.9175 -109.034 22.8324C-102.24 20.518 -94.8248 20.8354 -88.2531 23.7219C-81.6815 26.6084 -76.431 31.8541 -73.5386 38.4232C-67.3154 31.5329 -58.9173 26.9854 -49.7459 25.5398C-40.5745 24.0942 -31.1847 25.838 -23.1438 30.48C-15.1029 35.122 -8.8974 42.3815 -5.56297 51.0467C-2.22855 59.7119 -1.96692 69.2586 -4.82185 78.0934C-3.13599 77.8803 -1.43504 77.8116 0.262527 77.888C5.98378 78.1344 11.5101 80.0385 16.1688 83.3686C21.1127 78.8299 27.1863 75.7045 33.7532 74.3197C40.3201 72.935 47.1385 73.3419 53.4941 75.498C59.8497 77.654 65.5085 81.4798 69.8774 86.5743C74.2463 91.6689 77.1646 97.8447 78.3264 104.455C86.6703 102.281 95.5086 103.049 103.352 106.631C111.195 110.212 117.565 116.388 121.386 124.117C125.15 122.286 129.335 121.494 133.508 121.824C137.681 122.154 141.689 123.593 145.119 125.993C148.548 128.393 151.274 131.666 153.013 135.474C154.752 139.281 155.442 143.484 155.011 147.648C154.58 151.811 153.043 155.784 150.561 159.154C148.078 162.524 144.74 165.169 140.891 166.815C137.043 168.461 132.824 169.049 128.672 168.516C124.52 167.984 120.586 166.351 117.278 163.788C112.823 169.492 106.81 173.782 99.9666 176.138C93.1232 178.494 85.7435 178.815 78.7215 177.062C71.6995 175.308 65.3366 171.556 60.404 166.26C55.4714 160.963 52.1808 154.35 50.9307 147.221C43.8826 149.059 36.4517 148.804 29.5461 146.488C22.6405 144.171 16.5593 139.893 12.0455 134.176C5.23634 137.524 -2.59624 138.138 -9.84399 135.892C-17.0917 133.647 -23.2047 128.711 -26.9277 122.1L-49.7459 117.853L-158.286 124.117L-158.279 0.381712Z" fill="url(#paint0_linear)"/>
<path fill-rule="evenodd" clip-rule="evenodd" d="M114.101 148.996C111.325 149.282 108.667 150.266 106.374 151.855C104.08 153.444 102.226 155.588 100.983 158.087C99.1201 156.448 96.7861 155.442 94.3159 155.213C91.8457 154.984 89.3665 155.543 87.2338 156.81V156.59C86.9471 153.829 86.1194 151.152 84.7979 148.712C83.4764 146.271 81.687 144.115 79.532 142.366C77.377 140.617 74.8986 139.31 72.2382 138.519C69.5779 137.728 66.7879 137.469 64.0274 137.756C63.1061 137.854 62.192 138.011 61.2908 138.226C61.2908 137.913 61.2639 137.597 61.2101 137.279C60.5411 130.855 57.8161 124.819 53.4406 120.067C49.065 115.316 43.2727 112.105 36.9252 110.91C30.5776 109.716 24.014 110.602 18.2108 113.438C12.4076 116.273 7.67483 120.907 4.71647 126.648C2.24251 124.012 -0.807968 121.984 -4.19618 120.722C-7.58441 119.461 -11.2185 119.001 -14.8142 119.378C-15.2055 119.417 -15.5944 119.466 -15.9808 119.524C-16.0199 118.844 -16.0737 118.16 -16.1422 117.47C-17.0538 108.601 -20.6647 100.224 -26.4876 93.4723C-32.3105 86.7201 -40.065 81.9172 -48.7041 79.7118C-57.3432 77.5065 -66.4509 78.0049 -74.7978 81.1398C-83.1446 84.2747 -90.3286 89.8951 -95.38 97.2423C-101.466 92.398 -108.865 89.4904 -116.621 88.8953C-124.377 88.3002 -132.133 90.045 -138.887 93.904C-143.551 85.6194 -150.218 78.6369 -158.279 73.5957V169.708C-153.042 166.43 -148.375 162.319 -144.463 157.536C-136.623 164.062 -126.532 167.245 -116.366 166.399C-106.201 165.554 -96.7745 160.748 -90.1194 153.017C-82.4732 160.562 -72.3092 165.017 -61.579 165.526C-50.8488 166.035 -40.3087 162.563 -31.9824 155.776C-29.906 158.9 -27.1111 161.481 -23.8318 163.303C-20.5525 165.126 -16.8844 166.135 -13.1346 166.248C-9.38486 166.361 -5.66263 165.573 -2.27975 163.952C1.1031 162.33 4.04805 159.921 6.3085 156.927C10.5326 163.324 17.0438 167.863 24.5072 169.614C31.9706 171.364 39.8207 170.193 46.4484 166.341C47.7755 169.817 49.9975 172.882 52.8893 175.225C55.7812 177.567 59.2404 179.104 62.9171 179.68C66.5938 180.257 70.3574 179.852 73.8273 178.506C77.2972 177.161 80.3503 174.923 82.6777 172.019C83.5222 173.754 84.7813 175.254 86.3436 176.386C87.9058 177.518 89.7231 178.248 91.6345 178.511C93.546 178.773 95.4927 178.561 97.3024 177.892C99.1121 177.223 100.729 176.118 102.01 174.675C103.64 177.116 105.888 179.079 108.525 180.366C111.162 181.652 114.094 182.215 117.02 181.997C119.946 181.778 122.762 180.787 125.179 179.124C127.596 177.46 129.528 175.185 130.778 172.53C132.027 169.875 132.549 166.936 132.29 164.013C132.031 161.09 131 158.289 129.303 155.895C127.606 153.501 125.303 151.601 122.631 150.389C119.959 149.177 117.013 148.696 114.094 148.996H114.101Z" fill="white"/>
<path fill-rule="evenodd" clip-rule="evenodd" d="M114.876 149.858C112.085 150.145 109.412 151.134 107.106 152.732C104.8 154.33 102.935 156.486 101.686 158.998C99.8126 157.351 97.4657 156.339 94.982 156.109C92.4982 155.878 90.0053 156.44 87.8609 157.714V157.493C87.5727 154.717 86.7404 152.026 85.4117 149.572C84.0829 147.118 82.2837 144.949 80.1168 143.191C77.95 141.432 75.458 140.118 72.783 139.323C70.1081 138.527 67.3027 138.267 64.5271 138.556C63.6007 138.654 62.6816 138.812 61.7754 139.028C61.7754 138.713 61.7484 138.396 61.6943 138.076C61.0216 131.617 58.2817 125.547 53.8821 120.77C49.4825 115.993 43.6584 112.764 37.276 111.562C30.8936 110.361 24.2939 111.253 18.4588 114.104C12.6237 116.955 7.86494 121.614 4.89034 127.387C2.40279 124.736 -0.664444 122.697 -4.07127 121.428C-7.47812 120.16 -11.1321 119.697 -14.7476 120.076C-15.141 120.116 -15.5321 120.165 -15.9206 120.224C-15.96 119.54 -16.014 118.852 -16.0829 118.158C-16.9995 109.24 -20.6303 100.818 -26.4852 94.0287C-32.3401 87.2395 -40.1372 82.4102 -48.8237 80.1927C-57.5102 77.9752 -66.668 78.4764 -75.0607 81.6285C-83.4534 84.7806 -90.6768 90.4319 -95.7559 97.8195C-101.876 92.9486 -109.315 90.025 -117.114 89.4266C-124.913 88.8282 -132.711 90.5826 -139.502 94.4629C-144.191 86.1327 -150.895 79.1118 -159 74.043V170.683C-153.734 167.387 -149.042 163.253 -145.109 158.445C-137.225 165.006 -127.079 168.206 -116.858 167.356C-106.636 166.506 -97.1581 161.674 -90.4665 153.9C-82.7783 161.487 -72.5585 165.967 -61.7693 166.478C-50.9802 166.99 -40.3822 163.499 -32.0101 156.674C-29.9223 159.816 -27.112 162.411 -23.8147 164.244C-20.5175 166.076 -16.8292 167.091 -13.0588 167.204C-9.28845 167.318 -5.54578 166.526 -2.14433 164.895C1.25711 163.265 4.21825 160.843 6.49111 157.832C10.7384 164.265 17.2854 168.828 24.7898 170.588C32.2941 172.348 40.1874 171.171 46.8515 167.297C48.1859 170.793 50.4201 173.875 53.3278 176.23C56.2356 178.585 59.7138 180.131 63.4107 180.711C67.1075 181.29 70.8919 180.883 74.3808 179.53C77.8698 178.177 80.9396 175.927 83.2798 173.007C84.1289 174.752 85.395 176.26 86.9658 177.398C88.5367 178.536 90.3639 179.27 92.2859 179.534C94.2078 179.798 96.1652 179.585 97.9849 178.912C99.8045 178.239 101.43 177.128 102.718 175.678C104.357 178.131 106.617 180.106 109.269 181.399C111.921 182.693 114.869 183.259 117.811 183.039C120.753 182.82 123.584 181.823 126.015 180.151C128.445 178.478 130.388 176.19 131.644 173.521C132.9 170.851 133.425 167.896 133.164 164.957C132.904 162.018 131.867 159.201 130.161 156.794C128.455 154.387 126.14 152.477 123.453 151.258C120.766 150.039 117.804 149.556 114.869 149.858H114.876Z" fill="white"/>
<defs>
<linearGradient id="paint0_linear" x1="-35.0056" y1="166.275" x2="2.4269" y2="63.9627" gradientUnits="userSpaceOnUse">
<stop stop-color="#DAEBFF"/>
<stop offset="1" stop-color="white"/>
</linearGradient>
</defs>
</svg>
