<svg width="58" height="58" viewBox="0 0 58 58" fill="none" xmlns="http://www.w3.org/2000/svg">
<path fill-rule="evenodd" clip-rule="evenodd" d="M27.0152 29.5895L29.4764 23.5504C29.5082 23.4732 29.5082 23.3866 29.4764 23.3094L20.938 0.218736C20.9125 0.147496 20.8633 0.0871799 20.7986 0.0479115C20.7339 0.00864302 20.6577 -0.00720783 20.5827 0.00303711L18.9587 0.180676C18.9106 0.184062 18.8639 0.198384 18.8221 0.222569C18.7804 0.246754 18.7447 0.280145 18.7177 0.320216C18.6984 0.361969 18.6885 0.407439 18.6885 0.453446C18.6885 0.499452 18.6984 0.544922 18.7177 0.586675L26.1143 29.5768C26.1353 29.6552 26.1844 29.7232 26.2523 29.7676C26.3202 29.8121 26.402 29.83 26.4823 29.8179H26.7868C26.8418 29.8038 26.892 29.7751 26.9322 29.735C26.9724 29.6948 27.0011 29.6446 27.0152 29.5895Z" fill="#2B5250"/>
<path fill-rule="evenodd" clip-rule="evenodd" d="M25.4129 31.6463L18.955 32.5344C18.8712 32.5435 18.7941 32.5843 18.7395 32.6486L3.02004 51.5778C2.97477 51.6358 2.9502 51.7072 2.9502 51.7808C2.9502 51.8544 2.97477 51.9258 3.02004 51.9838L3.99698 53.2525C4.02793 53.2876 4.06599 53.3157 4.10864 53.335C4.1513 53.3542 4.19751 53.3642 4.24431 53.3642C4.29111 53.3642 4.33732 53.3542 4.37998 53.335C4.42263 53.3157 4.46084 53.2876 4.4918 53.2525L25.895 32.3441C25.9503 32.2833 25.9808 32.2042 25.9808 32.122C25.9808 32.0399 25.9503 31.9608 25.895 31.9L25.7047 31.6717C25.6617 31.6443 25.6127 31.6277 25.5619 31.6233C25.5111 31.6188 25.46 31.6267 25.4129 31.6463Z" fill="#2B5250"/>
<path fill-rule="evenodd" clip-rule="evenodd" d="M28.0006 32.001L31.9971 37.152C32.0456 37.2192 32.1185 37.2648 32.2001 37.2789L56.458 41.4276C56.5318 41.4427 56.6086 41.432 56.6756 41.3974C56.7425 41.3628 56.7956 41.3063 56.8259 41.2373L57.4855 39.7402C57.5059 39.6965 57.5165 39.6489 57.5165 39.6007C57.5165 39.5525 57.5059 39.5048 57.4855 39.4611C57.4648 39.4175 57.4348 39.379 57.3976 39.3483C57.3603 39.3176 57.3167 39.2955 57.27 39.2835L28.47 31.2017C28.3892 31.1772 28.3021 31.1846 28.2265 31.2223C28.151 31.2601 28.0929 31.3254 28.0641 31.4047L27.9626 31.6839C27.9403 31.7354 27.9321 31.7919 27.9388 31.8476C27.9455 31.9033 27.9667 31.9563 28.0006 32.001Z" fill="#2B5250"/>
<path fill-rule="evenodd" clip-rule="evenodd" d="M1.28308 22.9045C1.29314 22.8699 1.31005 22.8376 1.33294 22.8097C1.35584 22.7819 1.38423 22.7589 1.41627 22.7423C1.4483 22.7257 1.48343 22.7157 1.51941 22.7131C1.5554 22.7104 1.59154 22.7151 1.62565 22.7269C1.69367 22.7501 1.75007 22.7987 1.78316 22.8625C1.81625 22.9263 1.82349 23.0005 1.80329 23.0695C0.0805956 28.4408 0.133975 34.2242 1.95553 39.5628C1.98018 39.6318 1.97663 39.7077 1.94578 39.7742C1.91492 39.8406 1.85921 39.8923 1.79059 39.918C1.75562 39.9299 1.71858 39.9347 1.68172 39.9322C1.64486 39.9297 1.60883 39.9199 1.57578 39.9034C1.54274 39.8869 1.51333 39.864 1.48921 39.836C1.46509 39.808 1.44678 39.7755 1.43532 39.7404C-0.424916 34.2865 -0.478296 28.3784 1.28308 22.8918V22.9045ZM18.6644 56.6524C18.609 56.6207 18.5662 56.571 18.543 56.5116C18.5198 56.4521 18.5177 56.3865 18.537 56.3257C18.5563 56.2649 18.5957 56.2125 18.6489 56.1773C18.7022 56.1421 18.7659 56.1262 18.8294 56.1322L19.2607 56.2591L19.6922 56.3859C19.7312 56.3921 19.7683 56.4066 19.8014 56.4282C19.8344 56.4499 19.8624 56.4783 19.8836 56.5116C19.9048 56.5449 19.9188 56.5823 19.9245 56.6214C19.9302 56.6605 19.9276 56.7003 19.9167 56.7383C19.9059 56.7762 19.8871 56.8115 19.8616 56.8417C19.8361 56.8718 19.8044 56.8963 19.7688 56.9133C19.7332 56.9304 19.6945 56.9397 19.655 56.9407C19.6155 56.9416 19.5763 56.9342 19.5399 56.9188L19.0959 56.7919L18.6517 56.6524H18.6644ZM21.1004 57.3121C21.0427 57.2857 20.9957 57.2403 20.9672 57.1835C20.9388 57.1268 20.9304 57.062 20.9437 56.9999C20.957 56.9378 20.9911 56.8821 21.0403 56.842C21.0896 56.8018 21.1511 56.7797 21.2146 56.7792C26.5885 57.9663 32.2 57.4291 37.2512 55.2441C37.3654 55.2441 37.5811 55.2441 37.5937 55.4471C37.6064 55.6501 37.4034 55.777 37.3907 55.777C32.2543 57.978 26.5576 58.5149 21.1004 57.3121ZM53.516 34.3864C53.517 34.4269 53.5092 34.4671 53.4931 34.5042C53.477 34.5414 53.453 34.5746 53.4228 34.6015C53.3926 34.6285 53.3569 34.6485 53.3181 34.6603C53.2794 34.672 53.2387 34.6752 53.1986 34.6697C53.1585 34.6641 53.12 34.6498 53.086 34.6279C53.0519 34.606 53.0231 34.5769 53.0014 34.5427C52.9797 34.5085 52.9657 34.47 52.9604 34.4299C52.955 34.3897 52.9586 34.3489 52.9706 34.3103C53.2257 32.3747 53.2511 30.4157 53.0466 28.4742C52.8439 26.4832 52.4183 24.5214 51.7779 22.6254C51.7679 22.5606 51.781 22.4943 51.8149 22.4382C51.8489 22.3821 51.9015 22.3397 51.9636 22.3186C52.0257 22.2974 52.0932 22.2987 52.1544 22.3223C52.2156 22.3459 52.2664 22.3904 52.2981 22.4478C52.9426 24.3817 53.3682 26.3819 53.5668 28.4107C53.7767 30.3945 53.7512 32.396 53.4908 34.3737L53.516 34.3864ZM35.0309 5.52308C35.0989 5.54632 35.1553 5.5949 35.1884 5.65871C35.2215 5.72252 35.2287 5.79664 35.2086 5.86562C35.1853 5.93364 35.1367 5.99008 35.0729 6.02317C35.0091 6.05625 34.935 6.06346 34.866 6.04326L34.4601 5.91638L34.0667 5.8022C34.0038 5.77571 33.9529 5.72712 33.9234 5.6656C33.8939 5.60409 33.888 5.53388 33.9067 5.4683C33.9254 5.40271 33.9675 5.34629 34.025 5.30963C34.0825 5.27297 34.1516 5.25861 34.2189 5.26932L34.625 5.38354L35.0309 5.51038V5.52308ZM32.5822 4.86336C32.64 4.88982 32.6871 4.93518 32.7156 4.99195C32.744 5.04871 32.7523 5.11348 32.739 5.17559C32.7256 5.23769 32.6916 5.2934 32.6423 5.33352C32.5931 5.37363 32.5316 5.39573 32.4681 5.3962C27.7995 4.36545 22.9379 4.63312 18.4108 6.17014C18.3751 6.18985 18.3354 6.20148 18.2948 6.20425C18.2541 6.20702 18.2132 6.20086 18.1752 6.18617C18.1371 6.17148 18.1028 6.14863 18.0745 6.11923C18.0463 6.08982 18.0248 6.05459 18.0116 6.016C17.9985 5.97741 17.9939 5.93637 17.9983 5.89582C18.0027 5.85528 18.0159 5.81618 18.037 5.78129C18.0582 5.7464 18.0866 5.71656 18.1205 5.69387C18.1544 5.67117 18.1928 5.6562 18.2331 5.64996C22.8535 4.0787 27.8159 3.80227 32.5822 4.85066V4.86336Z" fill="#2B5250"/>
<path fill-rule="evenodd" clip-rule="evenodd" d="M3.13672 31.6179C3.13672 31.5438 3.16615 31.4728 3.21849 31.4205C3.27084 31.3681 3.34177 31.3388 3.4158 31.3388C3.48983 31.3388 3.56092 31.3681 3.61326 31.4205C3.66561 31.4728 3.69503 31.5438 3.69503 31.6179C3.69503 31.694 3.69503 31.7955 3.69503 31.897V32.1761C3.69674 32.2128 3.69109 32.2494 3.67862 32.2839C3.66614 32.3185 3.64699 32.3501 3.62224 32.3773C3.5975 32.4044 3.56768 32.4263 3.53443 32.4419C3.50119 32.4574 3.46517 32.4663 3.4285 32.4679C3.35662 32.468 3.28752 32.4403 3.23553 32.3907C3.18353 32.3411 3.15269 32.2733 3.14942 32.2015V31.9224C3.14942 31.8335 3.14942 31.7447 3.14942 31.6432L3.13672 31.6179ZM3.21292 33.1149C3.20935 33.043 3.23376 32.9724 3.28106 32.918C3.32836 32.8636 3.39481 32.8296 3.4666 32.8231C3.50261 32.8197 3.539 32.8236 3.57346 32.8346C3.60792 32.8456 3.6397 32.8635 3.667 32.8873C3.69431 32.911 3.7165 32.9401 3.7322 32.9727C3.74791 33.0053 3.75682 33.0407 3.75838 33.0769C3.91648 34.9485 4.30428 36.7935 4.91295 38.5704C4.93267 38.6061 4.94426 38.6457 4.94703 38.6864C4.94979 38.7271 4.9436 38.7679 4.92891 38.8059C4.91421 38.844 4.8914 38.8783 4.862 38.9066C4.8326 38.9349 4.79745 38.9563 4.75886 38.9695C4.72026 38.9827 4.67922 38.9873 4.63867 38.9829C4.59813 38.9785 4.55896 38.9653 4.52407 38.9442C4.48918 38.9231 4.45941 38.8946 4.43672 38.8607C4.41403 38.8268 4.39897 38.7884 4.39274 38.7481C3.77181 36.9253 3.37567 35.0336 3.21292 33.1149ZM28.7395 54.6831C28.6772 54.6696 28.6214 54.6352 28.5814 54.5856C28.5414 54.5359 28.5196 54.4741 28.5196 54.4104C28.5196 54.3466 28.5414 54.2848 28.5814 54.2352C28.6214 54.1855 28.6772 54.1511 28.7395 54.1376C30.2597 54.0161 31.7641 53.7441 33.2306 53.3256C33.958 53.1141 34.6813 52.8689 35.4003 52.5898C35.4003 52.5898 35.7935 52.5263 35.8443 52.7166C35.895 52.9069 35.6158 53.0972 35.6031 53.0972C34.8673 53.3848 34.1272 53.6386 33.3829 53.8585C31.8837 54.29 30.3451 54.5705 28.7901 54.6958L28.7395 54.6831ZM50.4218 28.4207C50.4307 28.4614 50.4302 28.5036 50.4206 28.5442C50.411 28.5847 50.3925 28.6226 50.3664 28.6551C50.3402 28.6875 50.307 28.7137 50.2694 28.7317C50.2318 28.7496 50.1908 28.759 50.1491 28.759C50.1074 28.759 50.0662 28.7496 50.0286 28.7317C49.991 28.7137 49.958 28.6875 49.9318 28.6551C49.9056 28.6226 49.8871 28.5847 49.8774 28.5442C49.8678 28.5036 49.8674 28.4614 49.8762 28.4207C49.6933 26.7709 49.3318 25.1459 48.7978 23.5742C48.7878 23.5094 48.8009 23.4431 48.8348 23.387C48.8688 23.3309 48.9215 23.2886 48.9835 23.2674C49.0456 23.2462 49.1132 23.2475 49.1743 23.2711C49.2355 23.2948 49.2863 23.3392 49.318 23.3966C49.8664 25.0055 50.2407 26.6686 50.4345 28.3573L50.4218 28.4207ZM21.5458 7.96897C21.6104 7.9664 21.6739 7.98638 21.7255 8.02546C21.777 8.06454 21.8135 8.12031 21.8285 8.18324C21.8434 8.24616 21.8361 8.31232 21.8077 8.37044C21.7793 8.42855 21.7315 8.47501 21.6727 8.50185L20.5562 8.79367L19.4524 9.13621C19.4167 9.15592 19.3771 9.16755 19.3364 9.17032C19.2957 9.17309 19.255 9.16693 19.217 9.15224C19.179 9.13754 19.1446 9.11469 19.1163 9.08529C19.0881 9.05589 19.0666 9.02066 19.0534 8.98207C19.0403 8.94348 19.0356 8.90247 19.04 8.86193C19.0443 8.82138 19.0576 8.78229 19.0787 8.7474C19.0998 8.71251 19.1283 8.68263 19.1622 8.65993C19.1961 8.63724 19.2345 8.62227 19.2748 8.61603L20.4166 8.26079L21.5458 7.96897Z" fill="#2B5250"/>
</svg>
