<svg width="12" height="12" viewBox="0 0 12 12" fill="none" xmlns="http://www.w3.org/2000/svg">
<path d="M4.62497 0H0.874969C0.392487 0 0 0.392487 0 0.874969V3.12497C0 3.60754 0.392487 4.00003 0.874969 4.00003H4.62497C5.10754 4.00003 5.50003 3.60754 5.50003 3.12497V0.874969C5.50003 0.392487 5.10754 0 4.62497 0Z" fill="#138175"/>
<path d="M4.62497 5H0.874969C0.392487 5 0 5.39249 0 5.87506V11.1251C0 11.6075 0.392487 12 0.874969 12H4.62497C5.10754 12 5.50003 11.6075 5.50003 11.1251V5.87506C5.50003 5.39249 5.10754 5 4.62497 5Z" fill="#138175"/>
<path d="M11.1251 8H7.37506C6.89249 8 6.5 8.39249 6.5 8.87506V11.1251C6.5 11.6075 6.89249 12 7.37506 12H11.1251C11.6075 12 12 11.6075 12 11.1251V8.87506C12 8.39249 11.6075 8 11.1251 8Z" fill="#138175"/>
<path d="M11.1251 0H7.37506C6.89249 0 6.5 0.392487 6.5 0.874969V6.12497C6.5 6.60754 6.89249 7.00003 7.37506 7.00003H11.1251C11.6075 7.00003 12 6.60754 12 6.12497V0.874969C12 0.392487 11.6075 0 11.1251 0V0Z" fill="#138175"/>
</svg>
