<svg width="11" height="13" viewBox="0 0 11 13" fill="none" xmlns="http://www.w3.org/2000/svg">
<path d="M10.1048 4.66991L5.63252 0.19759C5.50496 0.070028 5.33477 0 5.14968 0C4.96821 0 4.79813 0.070028 4.67056 0.19759L0.198144 4.66991C-0.066048 4.9342 -0.066048 5.36435 0.198144 5.62844L0.604206 6.0347C0.731767 6.16216 0.901951 6.23229 1.08352 6.23229C1.26499 6.23229 1.44101 6.16216 1.56848 6.0347L4.18339 3.42543V11.715C4.18339 12.0886 4.476 12.3934 4.84961 12.3934H5.42394C5.79756 12.3934 6.11979 12.0886 6.11979 11.715V3.396L8.74952 6.0347C8.87698 6.16216 9.04263 6.23229 9.2242 6.23229C9.40577 6.23229 9.57343 6.16216 9.70109 6.0347L10.1059 5.62844C10.3702 5.36424 10.3692 4.9342 10.1048 4.66991Z" fill="#20B58D"/>
</svg>
