<svg width="40" height="40" viewBox="0 0 40 40" fill="none" xmlns="http://www.w3.org/2000/svg">
<g filter="url(#filter0_d)">
<path fill-rule="evenodd" clip-rule="evenodd" d="M20 34C28.8366 34 36 26.8366 36 18C36 9.16344 28.8366 2 20 2C11.1634 2 4 9.16344 4 18C4 26.8366 11.1634 34 20 34Z" fill="#138175"/>
</g>
<path d="M20.4929 28.8333C18.7255 28.8345 16.9865 28.392 15.4375 27.5467C13.8884 26.7014 12.5796 25.4809 11.6325 23.9985C10.6855 22.5161 10.131 20.82 10.0205 19.0677C9.91004 17.3154 10.2472 15.5638 11.0007 13.9756C11.7542 12.3874 12.8996 11.0142 14.3304 9.98358C15.7612 8.95294 17.431 8.2983 19.1847 8.08048C20.9384 7.86266 22.719 8.08873 24.3612 8.73769C26.0034 9.38665 27.4538 10.4374 28.5777 11.7924C28.9329 12.2195 29.1027 12.7692 29.0499 13.3206C28.9971 13.872 28.7259 14.38 28.2961 14.7328C27.8662 15.0856 27.3129 15.2544 26.7578 15.2019C26.2027 15.1494 25.6914 14.88 25.3362 14.453C24.5102 13.4566 23.3934 12.7392 22.1398 12.3996C20.8861 12.0601 19.5574 12.1152 18.3366 12.5573C17.1158 12.9993 16.063 13.8066 15.3234 14.8679C14.5837 15.9292 14.1936 17.1923 14.2067 18.4831C14.2199 19.7739 14.6357 21.0288 15.3968 22.075C16.158 23.1212 17.227 23.9072 18.4565 24.3246C19.6861 24.742 21.0157 24.7703 22.2622 24.4057C23.5086 24.041 24.6105 23.3013 25.4161 22.2884C25.5875 22.0734 25.7999 21.8941 26.0411 21.7606C26.2823 21.6271 26.5477 21.5422 26.8219 21.5106C27.0962 21.479 27.374 21.5013 27.6396 21.5764C27.9051 21.6514 28.1532 21.7777 28.3696 21.948C28.5861 22.1183 28.7666 22.3293 28.901 22.569C29.0353 22.8086 29.1208 23.0721 29.1527 23.3446C29.1845 23.6171 29.162 23.8931 29.0864 24.1569C29.0108 24.4207 28.8837 24.6672 28.7123 24.8822C27.7335 26.1168 26.4849 27.1142 25.0609 27.7987C23.6369 28.4832 22.0748 28.837 20.4929 28.8333Z" fill="white"/>
<path d="M28.6833 11.7959C27.6784 10.6087 26.4166 9.6528 24.9882 8.99655C23.5598 8.34031 22.0001 8 20.4209 8C18.8417 8 17.282 8.34031 15.8536 8.99655C14.4252 9.6528 13.1634 10.6087 12.1586 11.7959C11.7958 12.2237 11.6223 12.7745 11.6763 13.327C11.7303 13.8794 12.0072 14.3884 12.4463 14.7419C12.8853 15.0954 13.4505 15.2644 14.0175 15.2119C14.5845 15.1593 15.1068 14.8894 15.4695 14.4615C16.2065 13.5891 17.1728 12.9282 18.2651 12.5491V18.4077C18.2651 18.9626 18.4914 19.4948 18.894 19.8872C19.2967 20.2796 19.8429 20.5 20.4123 20.5C20.9818 20.5 21.5279 20.2796 21.9306 19.8872C22.3333 19.4948 22.5595 18.9626 22.5595 18.4077V12.5491C23.655 12.9268 24.6244 13.5879 25.3637 14.4615C25.7265 14.8894 26.2488 15.1593 26.8158 15.2119C27.3827 15.2644 27.9479 15.0954 28.387 14.7419C28.826 14.3884 29.103 13.8794 29.157 13.327C29.2109 12.7745 29.0374 12.2237 28.6747 11.7959H28.6833Z" fill="white"/>
<path d="M27.9167 20.5002C29.0673 20.5002 30 19.5674 30 18.4168C30 17.2662 29.0673 16.3335 27.9167 16.3335C26.7661 16.3335 25.8334 17.2662 25.8334 18.4168C25.8334 19.5674 26.7661 20.5002 27.9167 20.5002Z" fill="white"/>
<defs>
<filter id="filter0_d" x="0" y="0" width="40" height="40" filterUnits="userSpaceOnUse" color-interpolation-filters="sRGB">
<feFlood flood-opacity="0" result="BackgroundImageFix"/>
<feColorMatrix in="SourceAlpha" type="matrix" values="0 0 0 0 0 0 0 0 0 0 0 0 0 0 0 0 0 0 127 0"/>
<feOffset dy="2"/>
<feGaussianBlur stdDeviation="2"/>
<feColorMatrix type="matrix" values="0 0 0 0 0.188536 0 0 0 0 0.188536 0 0 0 0 0.188536 0 0 0 0.200889 0"/>
<feBlend mode="normal" in2="BackgroundImageFix" result="effect1_dropShadow"/>
<feBlend mode="normal" in="SourceGraphic" in2="effect1_dropShadow" result="shape"/>
</filter>
</defs>
</svg>
