<svg width="40" height="40" viewBox="0 0 40 40" fill="none" xmlns="http://www.w3.org/2000/svg">
<g filter="url(#filter0_d)">
<path fill-rule="evenodd" clip-rule="evenodd" d="M20 34C28.8366 34 36 26.8366 36 18C36 9.16344 28.8366 2 20 2C11.1634 2 4 9.16344 4 18C4 26.8366 11.1634 34 20 34Z" fill="#FDE9C2"/>
</g>
<path d="M26.9728 11.0327H14.9171C14.5902 11.0327 14.3252 11.2978 14.3252 11.6247V14.3622H25.0042C25.3311 14.3622 25.5961 14.6273 25.5961 14.9542V21.465H29.3695C29.6964 21.465 29.9614 21.2 29.9614 20.8731V11.6247C29.9614 11.2978 29.6964 11.0327 29.3695 11.0327H28.0996" fill="#CED6D8"/>
<path d="M29.3692 11.0327H19.8369C19.2448 15.493 21.6967 19.7144 25.731 21.465H29.3693C29.6962 21.465 29.9612 21.2 29.9612 20.873V11.6247C29.9612 11.2978 29.6962 11.0327 29.3692 11.0327Z" fill="#E3E7E8"/>
<path d="M29.9614 16.9824H25.5961V19.4488H29.9614V16.9824Z" fill="#636362"/>
<path d="M29.9614 16.9824H25.5961V18.2157H29.9614V16.9824Z" fill="#767574"/>
<path d="M11.8806 24.7541H10.5919C10.265 24.7541 10 24.4891 10 24.1622V14.9137C10 14.5868 10.265 14.3218 10.5919 14.3218H25.0443C25.3712 14.3218 25.6362 14.5868 25.6362 14.9137V24.1621C25.6362 24.4891 25.3712 24.7541 25.0443 24.7541H13.0478" fill="#138175"/>
<path d="M25.0441 14.3218H15.5118C14.92 18.7762 17.3666 23.0014 21.4058 24.754H25.0441C25.371 24.754 25.636 24.4891 25.636 24.1621V14.9137C25.636 14.5868 25.371 14.3218 25.0441 14.3218Z" fill="#20B58D"/>
<path d="M14.3775 17.5995C14.3775 17.9264 14.1124 18.1914 13.7855 18.1914H12.4044C12.0775 18.1914 11.8125 17.9264 11.8125 17.5995V16.613C11.8125 16.2861 12.0775 16.021 12.4044 16.021H13.7855C14.1125 16.021 14.3776 16.2861 14.3776 16.613L14.3775 17.5995Z" fill="#FEC970"/>
<path d="M13.7853 17.1061H12.4042C12.094 17.1061 11.8399 16.8673 11.8149 16.5635C11.8114 16.6048 11.8124 16.5186 11.8124 17.5994C11.8124 17.9263 12.0774 18.1913 12.4043 18.1913H13.7854C14.1124 18.1913 14.3774 17.9263 14.3774 17.5994C14.3774 16.5189 14.3784 16.6049 14.3749 16.5635C14.3497 16.8673 14.0956 17.1061 13.7853 17.1061Z" fill="#E49542"/>
<path d="M23.9327 21.0915H11.7036C11.5369 21.0915 11.4017 20.9563 11.4017 20.7896C11.4017 20.6229 11.5369 20.4878 11.7036 20.4878H23.9327C24.0994 20.4878 24.2345 20.6229 24.2345 20.7896C24.2345 20.9563 24.0994 21.0915 23.9327 21.0915Z" fill="#E1E4E5"/>
<path d="M23.933 22.4645H11.704C11.5372 22.4645 11.4021 22.3294 11.4021 22.1627C11.4021 21.9959 11.5372 21.8608 11.704 21.8608H23.9331C24.0998 21.8608 24.2349 21.996 24.2349 22.1627C24.2349 22.3294 24.0998 22.4645 23.933 22.4645Z" fill="#E1E4E5"/>
<defs>
<filter id="filter0_d" x="0" y="0" width="40" height="40" filterUnits="userSpaceOnUse" color-interpolation-filters="sRGB">
<feFlood flood-opacity="0" result="BackgroundImageFix"/>
<feColorMatrix in="SourceAlpha" type="matrix" values="0 0 0 0 0 0 0 0 0 0 0 0 0 0 0 0 0 0 127 0"/>
<feOffset dy="2"/>
<feGaussianBlur stdDeviation="2"/>
<feColorMatrix type="matrix" values="0 0 0 0 0.188536 0 0 0 0 0.188536 0 0 0 0 0.188536 0 0 0 0.200889 0"/>
<feBlend mode="normal" in2="BackgroundImageFix" result="effect1_dropShadow"/>
<feBlend mode="normal" in="SourceGraphic" in2="effect1_dropShadow" result="shape"/>
</filter>
</defs>
</svg>
