<svg width="40" height="40" viewBox="0 0 40 40" fill="none" xmlns="http://www.w3.org/2000/svg">
<g filter="url(#filter0_d)">
<path fill-rule="evenodd" clip-rule="evenodd" d="M20 34C28.8366 34 36 26.8366 36 18C36 9.16344 28.8366 2 20 2C11.1634 2 4 9.16344 4 18C4 26.8366 11.1634 34 20 34Z" fill="#138175"/>
</g>
<path d="M11.356 18.1491C11.356 23.0691 15.3443 27.0574 20.2643 27.0574C25.1843 27.0574 29.1727 23.0691 29.1727 18.1491C29.1727 13.2291 25.1843 9.24072 20.2643 9.24072V18.1491H11.356Z" fill="#ECEAEC"/>
<path d="M20.2644 18.1494L23.6618 26.3868C22.6149 26.8193 21.4673 27.0578 20.2644 27.0578C15.3446 27.0578 11.356 23.0695 11.356 18.1494H20.2644Z" fill="#20B58D"/>
<path d="M26.817 12.1143L20.2642 18.1491V9.24072C22.8563 9.24072 25.1896 10.3477 26.817 12.1143Z" fill="#61C1B8"/>
<path d="M10.1152 16.9084H19.0236V8C14.1036 8 10.1152 11.9884 10.1152 16.9084Z" fill="#FEC970"/>
<path d="M14.8864 13.2746C14.8854 13.2719 14.8843 13.2693 14.8832 13.2667C14.8301 13.1375 14.7056 13.0542 14.5661 13.0542C14.566 13.0542 14.5658 13.0542 14.5657 13.0542C14.426 13.0543 14.3015 13.138 14.2486 13.2673C14.2477 13.2695 14.2468 13.2717 14.246 13.2738L13.3282 15.6836C13.2717 15.832 13.3462 15.9982 13.4946 16.0547C13.6432 16.1113 13.8092 16.0367 13.8657 15.8883L14.0238 15.4734H15.1014L15.2576 15.8875C15.3011 16.0027 15.4105 16.0737 15.5267 16.0737C15.5605 16.0737 15.5948 16.0677 15.6282 16.0551C15.7768 15.999 15.8518 15.8331 15.7957 15.6845L14.8864 13.2746ZM14.2428 14.8982L14.565 14.0522L14.8843 14.8982H14.2428Z" fill="white"/>
<path d="M18.4149 15.6205L17.6106 14.4772L18.2938 13.5074C18.3853 13.3776 18.3542 13.1982 18.2243 13.1067C18.0945 13.0152 17.915 13.0464 17.8236 13.1762L17.259 13.9775L16.6955 13.1764C16.6041 13.0465 16.4247 13.0153 16.2948 13.1066C16.1649 13.198 16.1336 13.3774 16.225 13.5073L16.9072 14.477L16.1017 15.6204C16.0102 15.7503 16.0413 15.9297 16.1712 16.0212C16.2215 16.0566 16.2793 16.0736 16.3366 16.0736C16.4269 16.0736 16.5159 16.0312 16.5719 15.9517L17.2587 14.9767L17.9444 15.9515C18.0005 16.0311 18.0895 16.0736 18.1799 16.0736C18.2371 16.0736 18.2949 16.0566 18.3451 16.0213C18.4751 15.9299 18.5063 15.7504 18.4149 15.6205Z" fill="white"/>
<path d="M13.5341 13.3418C13.5341 13.183 13.4054 13.0542 13.2465 13.0542H11.8967C11.7379 13.0542 11.6091 13.183 11.6091 13.3418C11.6091 13.5006 11.7379 13.6294 11.8967 13.6294H12.2813V15.786C12.2813 15.9448 12.41 16.0735 12.5689 16.0735C12.7277 16.0735 12.8564 15.9448 12.8564 15.786V13.6294H13.2465C13.4054 13.6294 13.5341 13.5006 13.5341 13.3418Z" fill="white"/>
<path d="M24.1667 22.2097C24.1296 22.2097 24.0919 22.2025 24.0555 22.1873C23.9091 22.1258 23.8402 21.9572 23.9016 21.8108L26.0116 16.7833C26.073 16.6368 26.2416 16.568 26.388 16.6294C26.5345 16.6909 26.6034 16.8594 26.5419 17.0059L24.432 22.0334C24.3858 22.1435 24.2791 22.2097 24.1667 22.2097Z" fill="#6F6571"/>
<path d="M23.7628 19.1145C23.0902 19.1145 22.543 18.4995 22.543 17.7435C22.543 16.9876 23.0902 16.3726 23.7628 16.3726C24.4355 16.3726 24.9827 16.9876 24.9827 17.7435C24.9827 18.4995 24.4355 19.1145 23.7628 19.1145ZM23.7628 16.9478C23.4074 16.9478 23.1182 17.3047 23.1182 17.7435C23.1182 18.1823 23.4074 18.5393 23.7628 18.5393C24.1183 18.5393 24.4075 18.1823 24.4075 17.7435C24.4075 17.3047 24.1183 16.9478 23.7628 16.9478Z" fill="#6F6571"/>
<path d="M26.6125 22.552C25.9398 22.552 25.3926 21.937 25.3926 21.181C25.3926 20.4251 25.9398 19.8101 26.6125 19.8101C27.2851 19.8101 27.8323 20.4251 27.8323 21.181C27.8324 21.937 27.2851 22.552 26.6125 22.552ZM26.6125 20.3853C26.257 20.3853 25.9678 20.7422 25.9678 21.181C25.9678 21.6198 26.257 21.9768 26.6125 21.9768C26.9679 21.9768 27.2571 21.6198 27.2571 21.181C27.2572 20.7422 26.968 20.3853 26.6125 20.3853Z" fill="#6F6571"/>
<path d="M18.5745 21.9695C18.491 21.94 18.4056 21.909 18.3204 21.8768V20.5169C18.5347 20.5683 18.6623 20.6766 18.6734 20.6863C18.7902 20.7921 18.9707 20.7842 19.0778 20.6681C19.1855 20.5513 19.1782 20.3694 19.0614 20.2617C19.0451 20.2466 18.7703 19.9991 18.3204 19.9315V19.6538C18.3204 19.495 18.1917 19.3662 18.0329 19.3662C17.874 19.3662 17.7453 19.495 17.7453 19.6538V19.9536C17.7026 19.963 17.6593 19.9738 17.615 19.9871C17.2036 20.1111 16.8962 20.4631 16.8128 20.906C16.7367 21.3098 16.8661 21.6991 17.1504 21.9221C17.301 22.0403 17.4885 22.1485 17.7453 22.2628V23.9873C17.5231 23.9709 17.3693 23.9166 17.1171 23.7516C16.9842 23.6647 16.8059 23.702 16.719 23.8349C16.632 23.9678 16.6693 24.146 16.8022 24.233C17.1699 24.4735 17.421 24.5452 17.7453 24.5635V24.8745C17.7453 25.0333 17.874 25.1621 18.0329 25.1621C18.1917 25.1621 18.3204 25.0333 18.3204 24.8745V24.5406C18.9657 24.414 19.3426 23.882 19.4261 23.385C19.5335 22.7459 19.1992 22.1904 18.5745 21.9695ZM17.5052 21.4695C17.3906 21.3795 17.3418 21.2044 17.3779 21.0125C17.4104 20.8405 17.5239 20.6338 17.7452 20.5502V21.6228C17.6549 21.5739 17.5732 21.5228 17.5052 21.4695ZM18.8589 23.2896C18.8146 23.5528 18.6312 23.8319 18.3204 23.9431V22.4895C18.3411 22.4969 18.3615 22.5043 18.3828 22.5118C18.9142 22.6997 18.8815 23.1546 18.8589 23.2896Z" fill="white"/>
<path d="M22.3978 14.1841C22.2348 14.1841 22.1022 14.3167 22.1022 14.4797C22.1022 14.6427 22.2348 14.7752 22.3978 14.7752C22.5607 14.7752 22.6933 14.6427 22.6933 14.4797C22.6933 14.3167 22.5607 14.1841 22.3978 14.1841Z" fill="white"/>
<path d="M22.402 13.5868C22.5608 13.5868 22.6895 13.458 22.6895 13.2992V10.6621C22.6895 10.5033 22.5608 10.3745 22.402 10.3745C22.2431 10.3745 22.1144 10.5033 22.1144 10.6621V13.2992C22.1144 13.458 22.2431 13.5868 22.402 13.5868Z" fill="white"/>
<defs>
<filter id="filter0_d" x="0" y="0" width="40" height="40" filterUnits="userSpaceOnUse" color-interpolation-filters="sRGB">
<feFlood flood-opacity="0" result="BackgroundImageFix"/>
<feColorMatrix in="SourceAlpha" type="matrix" values="0 0 0 0 0 0 0 0 0 0 0 0 0 0 0 0 0 0 127 0"/>
<feOffset dy="2"/>
<feGaussianBlur stdDeviation="2"/>
<feColorMatrix type="matrix" values="0 0 0 0 0.188536 0 0 0 0 0.188536 0 0 0 0 0.188536 0 0 0 0.200889 0"/>
<feBlend mode="normal" in2="BackgroundImageFix" result="effect1_dropShadow"/>
<feBlend mode="normal" in="SourceGraphic" in2="effect1_dropShadow" result="shape"/>
</filter>
</defs>
</svg>
