<svg width="40" height="40" viewBox="0 0 40 40" fill="none" xmlns="http://www.w3.org/2000/svg">
<g filter="url(#filter0_d)">
<path fill-rule="evenodd" clip-rule="evenodd" d="M20 34C28.8366 34 36 26.8366 36 18C36 9.16344 28.8366 2 20 2C11.1634 2 4 9.16344 4 18C4 26.8366 11.1634 34 20 34Z" fill="#65A4C5"/>
</g>
<path fill-rule="evenodd" clip-rule="evenodd" d="M14.6703 20.7036V24.0276H15.5097C15.6336 24.0276 15.7358 24.1034 15.7358 24.1964V25.2609H18.7177V24.1964C18.7177 24.1034 18.8199 24.0276 18.9452 24.0276H19.7847V20.7036H18.9452C18.8199 20.7036 18.7177 20.6277 18.7177 20.5358V19.4702H15.7358V20.5358C15.7358 20.6277 15.6336 20.7036 15.5097 20.7036H14.6703Z" fill="#B6B1B7"/>
<path fill-rule="evenodd" clip-rule="evenodd" d="M20.8354 20.7036V24.0276H21.7138C21.8449 24.0276 21.9519 24.1034 21.9519 24.1964V25.2609H25.0722V24.1964C25.0722 24.1034 25.1792 24.0276 25.3103 24.0276H26.1887V20.7036H25.3103C25.1792 20.7036 25.0722 20.6277 25.0722 20.5358V19.4702H21.9519V20.5358C21.9519 20.6277 21.8449 20.7036 21.7138 20.7036H20.8354Z" fill="#B6B1B7"/>
<path fill-rule="evenodd" clip-rule="evenodd" d="M12.2715 13.5006V18.3152H28.4685V13.5006L20.3695 8.82471L12.2715 13.5006Z" fill="#ECEAEC"/>
<path fill-rule="evenodd" clip-rule="evenodd" d="M11.0987 14.075C11.3029 14.4287 11.7582 14.5506 12.1119 14.3464L12.2712 14.2545L20.3691 9.57857L28.4682 14.2545L28.6274 14.3464C28.9801 14.5506 29.4365 14.4287 29.6396 14.075C29.8437 13.7223 29.7219 13.2659 29.3681 13.0618L20.7764 8.10153C20.6588 8.03312 20.5145 8 20.3691 8C20.2249 8 20.0795 8.03312 19.9619 8.10153L11.3702 13.0618C11.0175 13.2659 10.8946 13.7223 11.0987 14.075Z" fill="#138175"/>
<path fill-rule="evenodd" clip-rule="evenodd" d="M25.4099 20.1318H27.898V24.5994H25.4099V20.1318Z" fill="#FFE07D"/>
<path fill-rule="evenodd" clip-rule="evenodd" d="M19.1251 20.1318H21.6132V24.5994H19.1251V20.1318Z" fill="#FFE07D"/>
<path fill-rule="evenodd" clip-rule="evenodd" d="M12.8403 20.1318H15.3295V24.5994H12.8403V20.1318Z" fill="#FFE07D"/>
<path fill-rule="evenodd" clip-rule="evenodd" d="M12.0483 25.2607L13.8713 25.9512L16.1192 25.2607V24.1962C16.1192 24.1032 16.0434 24.0273 15.9514 24.0273H15.3284H12.8392H12.2161C12.1242 24.0273 12.0483 24.1032 12.0483 24.1962V25.2607Z" fill="#ECEAEC"/>
<path fill-rule="evenodd" clip-rule="evenodd" d="M24.6187 25.2607L26.817 25.9512L28.6906 25.2607V24.1962C28.6906 24.1032 28.6147 24.0273 28.5217 24.0273H27.8987H25.4106H24.7875C24.6946 24.0273 24.6187 24.1032 24.6187 24.1962V25.2607Z" fill="#ECEAEC"/>
<path fill-rule="evenodd" clip-rule="evenodd" d="M18.3331 25.2607L20.3696 25.7539L22.4051 25.2607V24.1962C22.4051 24.1032 22.3292 24.0273 22.2362 24.0273H21.6131H19.1251H18.502C18.409 24.0273 18.3331 24.1032 18.3331 24.1962V25.2607Z" fill="#ECEAEC"/>
<path fill-rule="evenodd" clip-rule="evenodd" d="M11.1739 26.6416H29.5661C29.6613 26.6416 29.7393 26.5636 29.7393 26.4685V25.4339C29.7393 25.3388 29.6613 25.2607 29.5661 25.2607H28.6908H24.6189H22.4055H18.3335H16.1201H12.0492H11.1739C11.0788 25.2607 11.0007 25.3388 11.0007 25.4339V26.4685C11.0007 26.5637 11.0788 26.6416 11.1739 26.6416Z" fill="#138175"/>
<path fill-rule="evenodd" clip-rule="evenodd" d="M19.5056 12.1557C19.5056 12.6559 19.9107 13.061 20.4109 13.061C20.91 13.061 21.3161 12.6559 21.3161 12.1557C21.3161 11.6556 20.91 11.2505 20.4109 11.2505C19.9107 11.2505 19.5056 11.6555 19.5056 12.1557Z" fill="#FFE07D"/>
<path fill-rule="evenodd" clip-rule="evenodd" d="M20.3695 9.57861L12.2715 14.2546V15.3063L20.3695 10.6303L28.4685 15.3063V14.2546L20.3695 9.57861Z" fill="#DAD8DB"/>
<path fill-rule="evenodd" clip-rule="evenodd" d="M20.4109 11.2505C19.9107 11.2505 19.5056 11.6556 19.5056 12.1557C19.5056 12.2594 19.5227 12.3577 19.5548 12.4507C19.6884 12.1183 20.0143 11.8843 20.3937 11.8843C20.7903 11.8843 21.128 12.1397 21.2498 12.4945C21.2926 12.3898 21.3161 12.2755 21.3161 12.1557C21.3161 11.6556 20.91 11.2505 20.4109 11.2505Z" fill="#FFC269"/>
<path fill-rule="evenodd" clip-rule="evenodd" d="M12.8403 20.7036H15.3295V21.6078H12.8403V20.7036Z" fill="#FFC269"/>
<path fill-rule="evenodd" clip-rule="evenodd" d="M19.1251 20.7036H21.6132V21.6078H19.1251V20.7036Z" fill="#FFC269"/>
<path fill-rule="evenodd" clip-rule="evenodd" d="M25.4099 20.7036H27.898V21.6078H25.4099V20.7036Z" fill="#FFC269"/>
<path fill-rule="evenodd" clip-rule="evenodd" d="M12.8392 20.7033H15.3284H15.9514C16.0433 20.7033 16.1192 20.6274 16.1192 20.5355V19.2437H12.0483V20.5355C12.0483 20.6274 12.1242 20.7033 12.2161 20.7033H12.8392Z" fill="#ECEAEC"/>
<path fill-rule="evenodd" clip-rule="evenodd" d="M19.1251 20.7033H21.6132H22.2363C22.3293 20.7033 22.4051 20.6274 22.4051 20.5355V19.2437H18.3331V20.5355C18.3331 20.6274 18.409 20.7033 18.502 20.7033H19.1251Z" fill="#ECEAEC"/>
<path fill-rule="evenodd" clip-rule="evenodd" d="M24.7875 20.7033H25.4106H27.8987H28.5217C28.6147 20.7033 28.6906 20.6274 28.6906 20.5355V19.2437H24.6187V20.5355C24.6187 20.6274 24.6945 20.7033 24.7875 20.7033Z" fill="#ECEAEC"/>
<path fill-rule="evenodd" clip-rule="evenodd" d="M12.0483 19.4702H16.1192V20.1318H12.0483V19.4702Z" fill="#DAD8DB"/>
<path fill-rule="evenodd" clip-rule="evenodd" d="M18.3331 19.4702H22.4051V20.1318H18.3331V19.4702Z" fill="#DAD8DB"/>
<path fill-rule="evenodd" clip-rule="evenodd" d="M24.6187 19.4702H28.6906V20.1318H24.6187V19.4702Z" fill="#DAD8DB"/>
<path fill-rule="evenodd" clip-rule="evenodd" d="M12.0492 19.4703H16.1201H18.3335H22.4055H24.6189H28.6908H29.5661C29.6613 19.4703 29.7393 19.3922 29.7393 19.2971V18.2625C29.7393 18.1674 29.6613 18.0894 29.5661 18.0894H28.4685H12.2715H11.1739C11.0788 18.0894 11.0007 18.1674 11.0007 18.2625V19.2971C11.0007 19.3922 11.0788 19.4703 11.1739 19.4703H12.0492Z" fill="#138175"/>
<path d="M16.9582 15.4071C17.0358 15.2851 17.0814 15.1409 17.0814 14.9859C17.0814 14.5513 16.7279 14.1978 16.2933 14.1978H15.6554C15.4992 14.1978 15.3727 14.3244 15.3727 14.4805V15.4917V15.4934V16.6766C15.3727 16.7518 15.4027 16.8239 15.456 16.877C15.509 16.9297 15.5807 16.9593 15.6555 16.9593H15.6567C15.6567 16.9593 16.2431 16.9567 16.4048 16.9567C16.8866 16.9567 17.2786 16.5647 17.2786 16.0828C17.2786 15.8109 17.1537 15.5676 16.9582 15.4071ZM16.2933 14.7633C16.4161 14.7633 16.5159 14.8631 16.5159 14.9859C16.5159 15.1086 16.4161 15.2084 16.2933 15.2084C16.2467 15.2084 15.9383 15.209 15.9383 15.209V14.7633H16.2933ZM16.4048 16.3912C16.3187 16.3912 16.1127 16.3919 15.9383 16.3926V15.775C15.9799 15.7748 16.4048 15.7745 16.4048 15.7745C16.5748 15.7745 16.7131 15.9128 16.7131 16.0828C16.7131 16.2529 16.5748 16.3912 16.4048 16.3912Z" fill="#6F6571"/>
<path d="M19.2408 14.4115C19.2398 14.409 19.2388 14.4065 19.2378 14.404C19.1864 14.2787 19.0657 14.1978 18.9302 14.1978C18.9302 14.1978 18.9301 14.1978 18.9301 14.1978C18.7945 14.1978 18.6738 14.2789 18.6224 14.4044C18.6216 14.4065 18.6207 14.4086 18.6199 14.4108L17.7953 16.5759C17.7397 16.7219 17.813 16.8853 17.959 16.9408C18.1047 16.9964 18.2683 16.9232 18.3239 16.7772L18.4599 16.4201H19.3944L19.5289 16.7764C19.5716 16.8896 19.6792 16.9594 19.7934 16.9594C19.8266 16.9594 19.8604 16.9536 19.8933 16.9412C20.0394 16.886 20.1131 16.7229 20.0579 16.5768L19.2408 14.4115ZM18.6752 15.8545L18.9292 15.1877L19.1809 15.8545H18.6752Z" fill="#6F6571"/>
<path d="M22.4657 14.1978C22.4648 14.1978 22.4639 14.1978 22.4629 14.1978C22.3067 14.1993 22.1814 14.3271 22.1829 14.4833L22.1956 15.7945L21.1801 14.3239C21.1097 14.2221 20.9815 14.1779 20.8632 14.2147C20.7451 14.2515 20.6646 14.3609 20.6646 14.4846V16.6765C20.6646 16.8327 20.7911 16.9593 20.9473 16.9593C21.1035 16.9593 21.2301 16.8327 21.2301 16.6765V15.3917L22.1967 16.7915C22.2794 16.911 22.4177 16.9619 22.5488 16.9209C22.6825 16.8792 22.7689 16.7542 22.7689 16.5998L22.7484 14.4778C22.7469 14.3226 22.6206 14.1978 22.4657 14.1978Z" fill="#6F6571"/>
<path d="M25.3442 16.4732L24.3564 15.5202L25.2603 14.6895C25.3753 14.5838 25.3828 14.4049 25.2771 14.2899C25.1715 14.1749 24.9925 14.1673 24.8776 14.2731L24.1556 14.9367V14.4532C24.1556 14.297 24.029 14.1704 23.8729 14.1704C23.7167 14.1704 23.5901 14.297 23.5901 14.4532V16.6767C23.5901 16.8328 23.7167 16.9594 23.8729 16.9594C24.029 16.9594 24.1556 16.8328 24.1556 16.6767V16.1123L24.9515 16.8802C25.0064 16.9332 25.0772 16.9595 25.1478 16.9595C25.2219 16.9595 25.2958 16.9306 25.3513 16.873C25.4598 16.7606 25.4566 16.5816 25.3442 16.4732Z" fill="#6F6571"/>
<defs>
<filter id="filter0_d" x="0" y="0" width="40" height="40" filterUnits="userSpaceOnUse" color-interpolation-filters="sRGB">
<feFlood flood-opacity="0" result="BackgroundImageFix"/>
<feColorMatrix in="SourceAlpha" type="matrix" values="0 0 0 0 0 0 0 0 0 0 0 0 0 0 0 0 0 0 127 0"/>
<feOffset dy="2"/>
<feGaussianBlur stdDeviation="2"/>
<feColorMatrix type="matrix" values="0 0 0 0 0.188536 0 0 0 0 0.188536 0 0 0 0 0.188536 0 0 0 0.200889 0"/>
<feBlend mode="normal" in2="BackgroundImageFix" result="effect1_dropShadow"/>
<feBlend mode="normal" in="SourceGraphic" in2="effect1_dropShadow" result="shape"/>
</filter>
</defs>
</svg>
