<svg width="84" height="84" viewBox="0 0 84 84" fill="none" xmlns="http://www.w3.org/2000/svg">
<path opacity="0.202381" d="M42 84C65.196 84 84 65.196 84 42C84 18.804 65.196 0 42 0C18.804 0 0 18.804 0 42C0 65.196 18.804 84 42 84Z" fill="#FECCA1"/>
<path opacity="0.202381" d="M42.0101 77.0711C61.3457 77.0711 77.0203 61.3965 77.0203 42.0609C77.0203 22.7254 61.3457 7.05078 42.0101 7.05078C22.6746 7.05078 7 22.7254 7 42.0609C7 61.3965 22.6746 77.0711 42.0101 77.0711Z" fill="#FECCA1"/>
<path opacity="0.1" d="M42.4124 69.4123C57.5519 69.4123 69.8249 57.1393 69.8249 41.9998C69.8249 26.8604 57.5519 14.5874 42.4124 14.5874C27.273 14.5874 15 26.8604 15 41.9998C15 57.1393 27.273 69.4123 42.4124 69.4123Z" fill="#FECCA1"/>
<path fill-rule="evenodd" clip-rule="evenodd" d="M42.5 17C56.031 17 67 27.969 67 41.5C67 55.031 56.031 66 42.5 66C28.969 66 18 55.031 18 41.5C18 27.969 28.969 17 42.5 17ZM59 30H26V54H59V30Z" fill="#FECCA1"/>
<path fill-rule="evenodd" clip-rule="evenodd" d="M26 30C26 30 26 38 26 54H59V30C49.4041 30 43.9041 30 42.5 30C40.3938 30 26 30 26 30Z" stroke="#FECCA1" stroke-linejoin="round"/>
<path d="M26 31.3751C33.0232 35.9587 38.5874 39.167 42.6925 41C48.5747 38.2505 63.6245 30 57.6046 30" stroke="#FECCA1" stroke-width="3"/>
</svg>
