<svg width="22" height="23" viewBox="0 0 22 23" fill="none" xmlns="http://www.w3.org/2000/svg">
<path d="M11.4965 23C9.56014 23.0013 7.65482 22.5127 5.95759 21.5795C4.26037 20.6464 2.82632 19.2989 1.78868 17.6624C0.751043 16.0258 0.143487 14.1533 0.0224627 12.2187C-0.0985618 10.2842 0.270872 8.35041 1.09644 6.59707C1.92201 4.84372 3.17692 3.32771 4.74458 2.18988C6.31224 1.05205 8.14178 0.329319 10.0632 0.0888461C11.9847 -0.151627 13.9356 0.0979579 15.7349 0.81441C17.5342 1.53086 19.1233 2.69093 20.3548 4.18684C20.7439 4.65828 20.93 5.26514 20.8721 5.87392C20.8142 6.4827 20.5171 7.04353 20.0461 7.43303C19.5752 7.82253 18.9689 8.0088 18.3607 7.95087C17.7526 7.89293 17.1923 7.59553 16.8032 7.12409C15.8981 6.02404 14.6745 5.23203 13.301 4.8572C11.9274 4.48237 10.4716 4.54316 9.13397 5.03121C7.79639 5.51925 6.64293 6.41052 5.83254 7.5822C5.02215 8.75389 4.59472 10.1483 4.60913 11.5733C4.62355 12.9983 5.07911 14.3838 5.91305 15.5388C6.74698 16.6938 7.91823 17.5616 9.26541 18.0224C10.6126 18.4832 12.0694 18.5145 13.4351 18.1119C14.8007 17.7093 16.0081 16.8926 16.8907 15.7744C17.0785 15.5371 17.3112 15.3391 17.5755 15.1917C17.8398 15.0444 18.1305 14.9506 18.431 14.9157C18.7315 14.8808 19.0359 14.9055 19.3268 14.9883C19.6178 15.0712 19.8896 15.2106 20.1267 15.3986C20.3639 15.5867 20.5617 15.8196 20.7089 16.0841C20.8561 16.3487 20.9498 16.6396 20.9847 16.9404C21.0195 17.2412 20.9948 17.546 20.9121 17.8372C20.8293 18.1285 20.69 18.4005 20.5022 18.6379C19.4298 20.001 18.0617 21.102 16.5015 21.8578C14.9413 22.6135 13.2298 23.0041 11.4965 23Z" fill="#138175"/>
<path d="M20.4752 4.25141C19.3843 2.92178 18.0143 1.85113 16.4634 1.11614C14.9126 0.381146 13.2192 0 11.5047 0C9.79009 0 8.09674 0.381146 6.54588 1.11614C4.99503 1.85113 3.62506 2.92178 2.5341 4.25141C2.14026 4.73059 1.95191 5.34742 2.01049 5.9662C2.06908 6.58498 2.36979 7.15503 2.84649 7.55093C3.32318 7.94683 3.9368 8.13616 4.55237 8.07728C5.16793 8.01838 5.73501 7.7161 6.12885 7.23691C6.929 6.25984 7.97808 5.51954 9.16411 5.09503V11.6566C9.16411 12.2781 9.40972 12.8742 9.84691 13.3136C10.2841 13.7531 10.8771 14 11.4953 14C12.1136 14 12.7066 13.7531 13.1438 13.3136C13.581 12.8742 13.8266 12.2781 13.8266 11.6566V5.09503C15.016 5.51804 16.0684 6.25846 16.8711 7.23691C17.265 7.7161 17.8321 8.01838 18.4476 8.07728C19.0632 8.13616 19.6768 7.94683 20.1535 7.55093C20.6302 7.15503 20.9309 6.58498 20.9895 5.9662C21.0481 5.34742 20.8597 4.73059 20.4659 4.25141H20.4752Z" fill="#61C1B8"/>
<path d="M19.5 14C20.8807 14 22 12.8807 22 11.5C22 10.1193 20.8807 9 19.5 9C18.1193 9 17 10.1193 17 11.5C17 12.8807 18.1193 14 19.5 14Z" fill="#F18182"/>
</svg>
