<svg width="15" height="14" viewBox="0 0 15 14" fill="none" xmlns="http://www.w3.org/2000/svg">
<path d="M7.96999 2.54783C7.08526 2.54783 6.2204 2.80903 5.48477 3.29841C4.74915 3.78779 4.1758 4.48336 3.83722 5.29716C3.49865 6.11096 3.41007 7.00645 3.58267 7.87037C3.75527 8.7343 4.18131 9.52787 4.80691 10.1507C5.43251 10.7736 6.22957 11.1978 7.0973 11.3696C7.96503 11.5414 8.86446 11.4533 9.68184 11.1162C10.4992 10.7791 11.1979 10.2082 11.6894 9.47583C12.1809 8.74343 12.4433 7.88236 12.4433 7.0015C12.4418 5.82076 11.9701 4.68878 11.1315 3.85386C10.2929 3.01895 9.15594 2.54926 7.96999 2.54783ZM11.0933 5.61228L8.73396 8.48299C8.64189 8.59508 8.52541 8.68485 8.39333 8.74549C8.26125 8.80613 8.11705 8.83605 7.97164 8.83298C7.82623 8.82992 7.68342 8.79395 7.55404 8.7278C7.42466 8.66165 7.3121 8.56705 7.22487 8.45118L5.79726 6.55614C5.77208 6.52272 5.75376 6.48469 5.74335 6.44422C5.73294 6.40375 5.73063 6.36163 5.73657 6.32028C5.7425 6.27892 5.75656 6.23913 5.77794 6.20319C5.79931 6.16724 5.82759 6.13584 5.86116 6.11077C5.89473 6.0857 5.93293 6.06747 5.97358 6.0571C6.01422 6.04673 6.05652 6.04444 6.09806 6.05034C6.1396 6.05625 6.17956 6.07025 6.21567 6.09153C6.25177 6.11282 6.28331 6.14097 6.30849 6.17439L7.73642 8.06975C7.76551 8.10835 7.80303 8.13986 7.84615 8.16188C7.88927 8.18391 7.93686 8.19589 7.98532 8.1969C8.03377 8.19791 8.08183 8.18793 8.12584 8.16772C8.16985 8.14751 8.20866 8.1176 8.23935 8.08025L10.5984 5.20922C10.652 5.14387 10.7295 5.10242 10.8139 5.09398C10.8982 5.08554 10.9825 5.1108 11.0481 5.1642C11.1137 5.21761 11.1554 5.29479 11.1638 5.37876C11.1723 5.46273 11.1469 5.54661 11.0933 5.61196V5.61228ZM14.5633 5.89477C14.4198 5.72359 14.3157 5.52325 14.2582 5.30778C14.2007 5.09231 14.1912 4.86693 14.2303 4.64742C14.2725 3.60112 14.1051 3.27251 13.1347 2.77051C12.924 2.6941 12.7327 2.57268 12.5741 2.41479C12.4156 2.2569 12.2937 2.06636 12.217 1.85656C11.7141 0.896472 11.3863 0.723097 10.3319 0.766043C10.1119 0.80478 9.88613 0.795334 9.6702 0.738363C9.45428 0.681391 9.25342 0.578262 9.0816 0.436153C8.17385 -0.139644 7.78403 -0.151096 6.85806 0.436153C6.686 0.578612 6.48477 0.681966 6.26844 0.738999C6.05211 0.796032 5.82588 0.805369 5.60555 0.766361C4.55305 0.725959 4.22586 0.889473 3.72038 1.85656C3.64347 2.06638 3.52139 2.25691 3.3627 2.41479C3.20401 2.57267 3.01256 2.69409 2.80176 2.77051C1.8285 3.27569 1.66491 3.60717 1.70677 4.64742C1.74568 4.86649 1.73616 5.09137 1.67888 5.3064C1.62161 5.52144 1.51794 5.72146 1.3751 5.89254C0.799969 6.7925 0.783354 7.18061 1.3751 8.10633C1.51828 8.27723 1.6222 8.47722 1.6796 8.69229C1.737 8.90737 1.74649 9.13234 1.7074 9.35145C1.66555 10.3904 1.82722 10.7229 2.8024 11.2284C3.01324 11.305 3.20467 11.4267 3.36326 11.5849C3.52184 11.7431 3.64373 11.9339 3.72038 12.1439C4.22171 13.1018 4.54857 13.2774 5.60555 13.2344C5.82556 13.1956 6.05142 13.205 6.2674 13.262C6.48338 13.319 6.6843 13.4221 6.85615 13.5643C7.76007 14.1369 8.14988 14.1535 9.07968 13.5643C9.25134 13.422 9.45213 13.3188 9.66804 13.2618C9.88394 13.2048 10.1097 13.1955 10.3296 13.2344C11.3815 13.277 11.7112 13.1072 12.2148 12.1439C12.2916 11.9341 12.4137 11.7435 12.5723 11.5855C12.7309 11.4276 12.9223 11.3061 13.1331 11.2296C14.1064 10.7248 14.2703 10.393 14.2284 9.35273C14.1894 9.13368 14.1988 8.90879 14.256 8.69374C14.3132 8.47869 14.4169 8.27866 14.5598 8.10761C15.1371 7.20669 15.1534 6.81859 14.5617 5.89318L14.5633 5.89477ZM7.96999 12.0914C6.95887 12.0914 5.97046 11.7929 5.12974 11.2336C4.28903 10.6743 3.63377 9.87939 3.24683 8.94933C2.85989 8.01927 2.75865 6.99586 2.95591 6.00851C3.15317 5.02117 3.64007 4.11423 4.35504 3.40239C5.07001 2.69056 5.98094 2.20579 6.97263 2.00939C7.96432 1.813 8.99224 1.91379 9.92639 2.29904C10.8605 2.68428 11.659 3.33667 12.2207 4.1737C12.7825 5.01073 13.0823 5.99481 13.0823 7.0015C13.0808 8.35097 12.5417 9.64473 11.5833 10.5989C10.6248 11.5532 9.3254 12.0899 7.96999 12.0914Z" fill="#FFAB2F"/>
</svg>
