<svg width="32" height="32" viewBox="0 0 32 32" fill="none" xmlns="http://www.w3.org/2000/svg">
<path fill-rule="evenodd" clip-rule="evenodd" d="M16 0C7.164 0 0 7.164 0 16C0 24.836 7.164 32 16 32C24.836 32 32 24.836 32 16C32 7.164 24.836 0 16 0ZM16 2.66675C23.352 2.66675 29.3333 8.64808 29.3333 16.0001C29.3333 23.3521 23.352 29.3334 16 29.3334C8.64796 29.3334 2.66663 23.3521 2.66663 16.0001C2.66663 8.64808 8.64796 2.66675 16 2.66675ZM19.2333 9.48929C18.3893 9.45063 18.136 9.44263 16 9.44263C13.864 9.44263 13.6106 9.44929 12.768 9.48796C10.5973 9.58663 9.58662 10.6146 9.48795 12.768C9.45062 13.6106 9.44128 13.864 9.44128 16C9.44128 18.136 9.45062 18.3893 9.48795 19.232C9.58795 21.38 10.5946 22.412 12.768 22.512C13.6106 22.5506 13.864 22.5586 16 22.5586C18.1373 22.5586 18.3893 22.5493 19.2333 22.512C21.4039 22.4133 22.4133 21.3826 22.5133 19.232C22.5506 18.3893 22.5586 18.136 22.5586 16C22.5586 13.864 22.5506 13.612 22.5133 12.768C22.4133 10.616 21.4026 9.58796 19.2333 9.48929ZM16 8C13.8267 8 13.556 8.00933 12.7013 8.04933C9.79467 8.18267 8.18133 9.79467 8.048 12.7013C8.00933 13.556 8 13.828 8 16C8 18.1733 8.00933 18.4453 8.048 19.2987C8.18133 22.204 9.79467 23.8187 12.7013 23.952C13.556 23.9907 13.8267 24 16 24C18.1733 24 18.4453 23.9907 19.3 23.952C22.2013 23.8187 23.8213 22.2067 23.952 19.2987C23.9907 18.4453 24 18.1733 24 16C24 13.828 23.9907 13.556 23.952 12.7013C23.8213 9.79867 22.2067 8.18133 19.3 8.04933C18.4453 8.00933 18.1733 8 16 8ZM11.892 16.0001C11.892 13.7308 13.732 11.8921 16 11.8921C18.268 11.8921 20.108 13.7321 20.108 16.0001C20.108 18.2694 18.268 20.1081 16 20.1081C13.732 20.1081 11.892 18.2694 11.892 16.0001ZM16 18.6666C14.5267 18.6666 13.3334 17.4733 13.3334 15.9999C13.3334 14.5279 14.5267 13.3333 16 13.3333C17.472 13.3333 18.668 14.5266 18.668 15.9999C18.668 17.4733 17.472 18.6666 16 18.6666ZM19.3093 11.7308C19.3093 11.2001 19.74 10.7708 20.2693 10.7708C20.8013 10.7708 21.2307 11.2001 21.2307 11.7308C21.2307 12.2614 20.8 12.6908 20.2693 12.6908C19.7387 12.6908 19.3093 12.2601 19.3093 11.7308Z" fill="#2B5250"/>
</svg>
