<svg width="32" height="32" viewBox="0 0 32 32" fill="none" xmlns="http://www.w3.org/2000/svg">
<path fill-rule="evenodd" clip-rule="evenodd" d="M16 0C7.164 0 0 7.164 0 16C0 24.836 7.164 32 16 32C24.836 32 32 24.836 32 16C32 7.164 24.836 0 16 0ZM16 2.66675C23.352 2.66675 29.3333 8.64808 29.3333 16.0001C29.3333 23.3521 23.352 29.3334 16 29.3334C8.64796 29.3334 2.66663 23.3521 2.66663 16.0001C2.66663 8.64808 8.64796 2.66675 16 2.66675ZM22.7813 12.2214C23.4453 12.1414 24.0786 11.9654 24.6666 11.7041C24.2266 12.3627 23.6706 12.9414 23.028 13.4027C23.236 18.0201 19.7933 23.1681 13.6973 23.1681C11.844 23.1681 10.12 22.6254 8.66663 21.6934C10.4093 21.8987 12.1466 21.4147 13.5293 20.3321C12.0946 20.3054 10.88 19.3574 10.4626 18.0534C10.9773 18.1521 11.484 18.1227 11.9453 17.9974C10.3666 17.6801 9.27596 16.2574 9.31196 14.7374C9.75463 14.9827 10.26 15.1307 10.7973 15.1481C9.33596 14.1707 8.92129 12.2401 9.78129 10.7654C11.4 12.7507 13.82 14.0574 16.5466 14.1947C16.068 12.1414 17.6253 10.1641 19.7453 10.1641C20.688 10.1641 21.5426 10.5627 22.14 11.2014C22.888 11.0547 23.5906 10.7814 24.2253 10.4054C23.9786 11.1721 23.46 11.8147 22.7813 12.2214Z" fill="#2B5250"/>
</svg>
