<svg width="125" height="155" viewBox="0 0 125 155" fill="none" xmlns="http://www.w3.org/2000/svg">
<mask id="mask0" mask-type="alpha" maskUnits="userSpaceOnUse" x="0" y="0" width="125" height="155">
<rect width="125" height="155" fill="#C4C4C4"/>
</mask>
<g mask="url(#mask0)">
<path fill-rule="evenodd" clip-rule="evenodd" d="M102.749 114.985L113.103 113.305C113.967 113.168 114.851 113.378 115.561 113.89C116.272 114.402 116.75 115.175 116.893 116.038L121.231 142.79L104.354 145.525L100.016 118.774C99.8783 117.909 100.089 117.025 100.601 116.316C101.113 115.606 101.885 115.127 102.749 114.985Z" fill="#61C1B8"/>
<path fill-rule="evenodd" clip-rule="evenodd" d="M100.014 118.772L104.077 143.822L120.954 141.086C115.054 140.351 122.434 131.513 112.748 131.225C103.063 130.938 109.592 117.025 100.014 118.772Z" fill="url(#paint0_linear)"/>
<path fill-rule="evenodd" clip-rule="evenodd" d="M64.3286 16.8842C75.2805 29.5055 64.2235 57.0279 39.6337 78.3562C15.044 99.6844 -13.7688 106.742 -24.7206 94.1233C-26.2627 92.3439 -27.4592 90.4819 -29.1789 88.4997C-40.1308 75.8785 -29.0738 48.356 -4.48409 27.0278C20.1056 5.69953 48.9184 -1.35816 59.8703 11.2606C60.174 11.6093 60.4602 11.9705 60.7289 12.3442L64.3286 16.8842Z" fill="#61C1B8"/>
<path fill-rule="evenodd" clip-rule="evenodd" d="M47.2032 103.069L57.5568 101.389C58.4226 101.251 59.3082 101.461 60.0194 101.973C60.7307 102.486 61.2098 103.26 61.3518 104.125L68.9968 151.256L52.1197 153.992L44.4747 106.86C44.3365 105.996 44.5459 105.113 45.0571 104.402C45.5683 103.692 46.3398 103.212 47.2032 103.069Z" fill="#61C1B8"/>
<path fill-rule="evenodd" clip-rule="evenodd" d="M74.6419 106.965L84.9954 105.286C85.8601 105.148 86.744 105.359 87.4541 105.871C88.1642 106.383 88.6428 107.155 88.7854 108.019L95.1112 147.021L78.234 149.757L71.9082 110.754C71.7709 109.89 71.9813 109.006 72.4935 108.296C73.0056 107.586 73.778 107.108 74.6419 106.965Z" fill="#61C1B8"/>
<path fill-rule="evenodd" clip-rule="evenodd" d="M47.8766 152.933L124.915 140.444C125.141 140.408 125.372 140.463 125.557 140.596C125.742 140.73 125.867 140.932 125.904 141.157C125.94 141.383 125.885 141.614 125.752 141.799C125.618 141.984 125.416 142.109 125.19 142.146L48.152 154.635C47.9263 154.671 47.6955 154.616 47.5102 154.482C47.3248 154.348 47.2001 154.147 47.1632 153.921C47.1271 153.696 47.1819 153.465 47.3156 153.28C47.4493 153.094 47.651 152.97 47.8766 152.933Z" fill="#1EABC1"/>
<path fill-rule="evenodd" clip-rule="evenodd" d="M67.1913 140.173C57.9768 139.039 68.5355 122.381 55.9441 121.527C43.2449 120.666 54.0816 103.885 44.5016 105.632C44.4136 106.035 44.4026 106.451 44.4691 106.859L51.8387 152.291L68.7158 149.555L67.1913 140.173Z" fill="url(#paint1_linear)"/>
<path fill-rule="evenodd" clip-rule="evenodd" d="M71.9087 110.757L77.2758 143.856L77.9567 148.058L94.8338 145.323C85.4615 144.467 95.4846 128.404 84.32 126.755C84.0146 126.71 83.6925 126.675 83.3537 126.652C70.652 125.791 81.4887 109.01 71.9087 110.757Z" fill="url(#paint2_linear)"/>
<path opacity="0.5" d="M82.8949 81.4273C88.5978 81.4273 93.2209 76.8052 93.2209 71.1035C93.2209 65.4019 88.5978 60.7798 82.8949 60.7798C77.192 60.7798 72.5688 65.4019 72.5688 71.1035C72.5688 76.8052 77.192 81.4273 82.8949 81.4273Z" fill="#FF9E02"/>
<path opacity="0.5" d="M24.1492 105.047H21.3306C20.5992 105.047 20.0063 105.64 20.0063 106.371V109.189C20.0063 109.92 20.5992 110.513 21.3306 110.513H24.1492C24.8806 110.513 25.4735 109.92 25.4735 109.189V106.371C25.4735 105.64 24.8806 105.047 24.1492 105.047Z" fill="#138175"/>
<path fill-rule="evenodd" clip-rule="evenodd" d="M45.1358 5.04199L13.0938 50.8845L21.1568 53.555L53.1988 6.65374C50.618 5.67714 47.8938 5.1326 45.1358 5.04199Z" fill="#1EABC1"/>
<path fill-rule="evenodd" clip-rule="evenodd" d="M63.8153 20.1217C66.0282 34.3147 55.0012 55.5354 35.1753 72.7292C10.5856 94.0575 -18.2271 101.115 -29.179 88.4964C-40.1308 75.8776 -29.0738 48.3526 -4.48415 27.0243C13.6196 11.3221 34.0087 3.35835 47.8769 5.28296L15.3343 49.8792L63.8153 20.1217Z" fill="url(#paint3_linear)"/>
</g>
<defs>
<linearGradient id="paint0_linear" x1="125.259" y1="128.095" x2="120.108" y2="140.496" gradientUnits="userSpaceOnUse">
<stop stop-color="#61C19E"/>
<stop offset="1" stop-color="#348880"/>
</linearGradient>
<linearGradient id="paint1_linear" x1="73.7093" y1="123.095" x2="61.2647" y2="141.816" gradientUnits="userSpaceOnUse">
<stop stop-color="#61C19E"/>
<stop offset="1" stop-color="#348880"/>
</linearGradient>
<linearGradient id="paint2_linear" x1="99.5468" y1="124.702" x2="90.3116" y2="141.093" gradientUnits="userSpaceOnUse">
<stop stop-color="#61C19E"/>
<stop offset="1" stop-color="#348880"/>
</linearGradient>
<linearGradient id="paint3_linear" x1="84.1402" y1="38.7455" x2="69.1966" y2="85.7845" gradientUnits="userSpaceOnUse">
<stop stop-color="#61C19E"/>
<stop offset="1" stop-color="#348880"/>
</linearGradient>
</defs>
</svg>
