<svg width="139" height="129" viewBox="0 0 139 129" fill="none" xmlns="http://www.w3.org/2000/svg">
<path d="M79.4286 99.1251C78.122 89.0768 69.7201 82.5304 63.9969 74.9125C57.4636 66.2624 54.2753 56.2403 50.682 46.1659C49.2338 41.8318 46.8417 37.8733 43.6782 34.5757C40.2678 31.1 36.3217 28.1861 33.7998 23.9395C33.5815 23.5652 33.2234 23.293 32.8044 23.1827C32.3854 23.0724 31.9397 23.1331 31.5654 23.3515C31.1912 23.5698 30.919 23.9279 30.8087 24.3469C30.6984 24.7659 30.7591 25.2116 30.9774 25.5859C33.2118 29.3491 36.4001 32.1192 39.5622 35.1376C43.4036 38.6693 46.274 43.128 47.8988 48.0867C51.087 57.3248 54.2492 66.5237 59.8417 74.6381C65.4342 82.7525 75.3518 89.7301 76.2796 100.144C77.1158 109.552 70.3342 117.837 70.4649 127.271C70.4649 127.704 70.637 128.119 70.9433 128.426C71.2496 128.732 71.6651 128.904 72.0982 128.904C72.5314 128.904 72.9469 128.732 73.2532 128.426C73.5595 128.119 73.7316 127.704 73.7316 127.271C73.6662 117.536 80.7353 109.069 79.4286 99.1251Z" fill="#65A4C5"/>
<path d="M108.071 42.1419C104.36 46.5715 103.014 51.9419 101.132 57.2731C99.0154 63.2445 95.2652 67.7264 90.9663 72.2605C87.373 76.0499 83.5967 79.9045 81.3231 84.6739C78.5268 90.5408 79.4284 97.2701 76.7367 103.111C75.8612 105.006 78.6836 106.665 79.5591 104.757C82.1724 99.2171 81.4407 92.9973 83.6881 87.3917C85.818 82.0736 90.0647 77.9837 93.9324 73.8808C97.4996 70.0915 100.936 66.1584 103.079 61.3368C105.536 55.7051 106.385 49.2632 110.436 44.4416C111.729 42.8605 109.482 40.5347 108.071 42.1419Z" fill="#65A4C5"/>
<path d="M136.074 61.0886C129.628 62.5367 123.692 65.6966 118.891 70.2353C116.563 72.439 114.545 74.949 112.893 77.6963C110.803 81.1721 109.418 84.9352 106.36 87.7054C96.7821 96.3032 79.2074 95.8067 75.2482 110.337C75.1321 110.754 75.1867 111.201 75.3998 111.578C75.613 111.956 75.9674 112.233 76.385 112.349C76.8026 112.465 77.2492 112.411 77.6266 112.197C78.0039 111.984 78.2812 111.63 78.3973 111.212C81.9514 98.1457 99.8266 97.9497 108.66 90.0182C113.494 85.6801 115.193 79.0291 119.544 74.2598C124.18 69.2257 130.244 65.7288 136.923 64.2377C139 63.7803 138.125 60.6182 136.074 61.0886Z" fill="#65A4C5"/>
<path d="M135.198 88.4112C130.376 94.7485 121.739 92.8669 115.023 91.6386C108.843 90.5149 102.649 90.0314 97.0956 93.4549C95.3055 94.5525 97.2916 97.1528 99.0687 96.0682C110.829 88.8162 127.815 103.464 137.772 90.4365C139.053 88.764 136.479 86.7386 135.198 88.4112Z" fill="#65A4C5"/>
<path d="M131.696 49.7082C128.037 52.0994 124.196 54.6604 121.922 58.5151C119.309 63.0231 120.289 70.1836 115.911 73.5287C114.265 74.8353 115.911 77.6316 117.558 76.3511C121.295 73.5026 121.948 69.5564 122.954 65.2052C124.366 59.0639 128.259 55.8626 133.342 52.5436C135.133 51.3807 133.499 48.5452 131.696 49.7082Z" fill="#65A4C5"/>
<path d="M108.986 66.6676C104.805 71.45 98.8205 73.5146 93.1757 76.0364C89.7261 77.5783 81.3242 80.9103 81.6117 85.6404C81.7424 87.7311 85.009 87.7442 84.8784 85.6404C84.7477 83.5367 89.6085 81.446 91.1112 80.6489C93.5416 79.3423 96.1026 78.31 98.6245 77.2255C103.315 75.1871 107.876 72.9135 111.286 68.9935C112.684 67.3994 110.371 65.0735 108.986 66.6676Z" fill="#65A4C5"/>
<path d="M95.5011 37.2682C95.0699 35.2167 91.9731 36.249 92.3913 38.2874C93.4721 42.4547 94.9556 46.507 96.8209 50.3871C97.6122 52.1642 98.2675 53.9988 98.7809 55.8751C99.2427 57.2001 99.3876 58.6148 99.2037 60.0059C99.0199 61.3969 98.5126 62.7255 97.7225 63.885C96.5595 65.6359 99.4995 67.0994 100.636 65.3615C106.451 56.5677 97.3305 46.0751 95.5011 37.2682Z" fill="#65A4C5"/>
<path d="M56.6019 38.5099C55.8701 31.4931 54.4328 24.4371 56.6019 17.5379C57.2421 15.5257 54.08 14.6633 53.4528 16.6625C51.4275 23.0782 52.2768 29.5985 53.0608 36.1449C53.8499 43.6544 53.5019 51.2399 52.0285 58.6457C51.6627 60.6971 54.8117 61.5857 55.1776 59.5211C56.4189 52.439 57.3336 45.5921 56.6019 38.5099Z" fill="#65A4C5"/>
<path d="M67.4209 74.4553C66.9636 68.523 69.7599 62.6953 72.1772 57.4686C76.5153 48.0214 81.1671 38.0515 78.1879 27.4153C78.0718 26.9977 77.7946 26.6433 77.4172 26.4301C77.0398 26.2169 76.5932 26.1624 76.1756 26.2785C75.758 26.3946 75.4037 26.6718 75.1905 27.0492C74.9773 27.4265 74.9227 27.8731 75.0388 28.2907C78.6452 41.0961 70.0081 52.3334 65.8921 63.8321C64.1543 68.7582 63.2788 74.207 65.1343 79.2377C66.9897 84.2683 71.1449 88.5542 74.4247 92.7747C75.7313 94.4342 78.018 92.1083 76.7375 90.4619C73.1311 85.8233 67.9044 80.7142 67.4209 74.4553Z" fill="#65A4C5"/>
<path d="M86.3807 43.8928C84.8389 49.9296 80.5268 51.7328 75.7575 54.8296C72.2339 57.1617 69.1762 60.1307 66.7415 63.5843C65.5132 65.296 68.3487 66.9293 69.5639 65.2307C72.9351 60.5528 77.1426 57.9656 81.9642 55.0125C83.8418 53.8924 85.4778 52.4097 86.7767 50.6509C88.0756 48.8921 89.0115 46.8924 89.5298 44.7683C89.5873 44.5615 89.6035 44.3454 89.5774 44.1324C89.5514 43.9194 89.4837 43.7135 89.3781 43.5267C89.2726 43.3398 89.1312 43.1756 88.9622 43.0434C88.7932 42.9111 88.5997 42.8135 88.393 42.756C88.1862 42.6985 87.9701 42.6823 87.7571 42.7083C87.5441 42.7344 87.3383 42.8021 87.1514 42.9076C86.9646 43.0132 86.8003 43.1545 86.6681 43.3236C86.5358 43.4926 86.4382 43.686 86.3807 43.8928Z" fill="#65A4C5"/>
<path d="M74.699 47.4728C69.9035 43.997 69.3417 38.0256 69.8513 32.5768C70.0473 30.4861 66.7806 30.4992 66.5846 32.5768C65.9574 39.3584 67.2771 46.1138 73.1179 50.2952C74.7643 51.5757 76.3977 48.688 74.699 47.4728Z" fill="#65A4C5"/>
<path d="M69.9687 82.8186C67.5173 81.3654 64.6623 80.7421 61.8282 81.0416C57.9082 81.1592 54.4194 81.2114 50.8783 79.173C44.541 75.5405 40.9085 68.8765 37.0015 62.9704C33.6303 57.8874 29.7365 52.7653 24.0786 50.0997C17.3493 46.9375 8.9082 46.4671 1.5778 46.1797C-0.525933 46.1143 -0.525933 49.381 1.5778 49.4463C8.97353 49.6946 18.1071 49.9952 24.5621 54.0458C30.3637 57.6784 33.7087 64.0287 37.4197 69.5951C40.6079 74.4559 44.4234 79.369 49.637 82.1914C52.1521 83.5584 54.9551 84.3107 57.8167 84.3866C61.3839 84.4781 65.1341 83.485 68.2701 85.6018C70.0733 86.8562 71.7066 83.9816 69.9687 82.8186Z" fill="#65A4C5"/>
<path d="M41.81 59.7424C40.9172 56.4839 39.4958 53.394 37.6026 50.5957C37.3842 50.2214 37.0262 49.9492 36.6071 49.839C36.1881 49.7287 35.7424 49.7894 35.3682 50.0077C34.9939 50.226 34.7217 50.5841 34.6114 51.0031C34.5011 51.4222 34.5618 51.8678 34.7802 52.2421C36.5593 54.7875 37.8855 57.6211 38.7002 60.6178C39.249 63.3749 38.7002 66.3149 38.5303 69.085C38.3735 71.1888 41.6532 71.1757 41.797 69.085C41.9799 65.949 42.4764 62.813 41.81 59.7424Z" fill="#65A4C5"/>
<path d="M26.5092 51.4061C21.1518 47.7213 14.3703 44.6898 11.9007 38.2088C11.1559 36.2618 7.98065 37.1112 8.75158 39.0842C11.587 46.5584 18.63 49.9557 24.8628 54.2285C26.5876 55.4306 28.234 52.5951 26.5092 51.4061Z" fill="#65A4C5"/>
<path d="M30.9911 57.2071C27.646 56.8674 24.3533 58.7229 21.1389 59.4546C17.0882 60.3823 12.6455 60.4085 9.22206 57.7429C7.57566 56.4362 5.30206 58.7621 6.90926 60.0557C9.81768 62.3336 13.451 63.4843 17.1405 63.2962C19.1603 63.1933 21.1628 62.869 23.1119 62.3293C25.6207 61.6759 28.3386 60.1994 30.9519 60.4738C33.0818 60.7221 33.0687 57.4162 30.9911 57.2071Z" fill="#65A4C5"/>
<path d="M41.0913 33.4001C31.1215 32.4985 22.4975 25.1028 17.5713 16.7793C17.353 16.405 16.9949 16.1328 16.5759 16.0225C16.1569 15.9123 15.7112 15.973 15.3369 16.1913C14.9626 16.4096 14.6904 16.7677 14.5802 17.1867C14.4699 17.6058 14.5306 18.0514 14.7489 18.4257C20.3415 27.8337 29.9585 35.6606 41.1305 36.719C43.1951 36.8628 43.182 33.5961 41.0913 33.4001Z" fill="#65A4C5"/>
<path d="M43.5872 23.8225C40.9739 21.0131 38.6219 19.0531 37.8117 15.0809C36.9101 10.6774 36.7011 6.03873 36.2046 1.56993C35.9694 -0.494599 32.7027 -0.520733 32.9379 1.56993C33.6304 7.80273 33.16 16.2046 36.9624 21.5489C38.6872 23.9662 41.2483 25.6387 42.8686 28.0822C43.9113 29.7297 44.6117 31.5701 44.9282 33.494C45.2448 35.4178 45.1709 37.3857 44.7109 39.2803C44.2405 41.3318 47.3896 42.2073 47.86 40.1558C48.5498 37.2921 48.5206 34.3022 47.7751 31.4525C47.0297 28.6027 45.591 25.9816 43.5872 23.8225Z" fill="#65A4C5"/>
<path d="M43.4049 1.17831C42.9867 -0.886222 39.8377 -0.0107376 40.2558 2.0538C41.275 7.12366 41.3796 12.5986 37.1329 16.2311C35.5257 17.5378 37.8515 19.9029 39.4457 18.5439C44.5809 14.1274 44.6462 7.34578 43.4049 1.17831Z" fill="#65A4C5"/>
</svg>
