<svg width="827" height="283" viewBox="0 0 827 283" fill="none" xmlns="http://www.w3.org/2000/svg">
<path d="M781.051 38.3644C781.179 37.7747 781.307 37.1786 781.436 36.5761C781.436 36.153 781.589 35.7299 781.686 35.2876L781.801 34.6724C781.897 34.1147 781.993 33.5569 782.07 32.9993V32.7878C782.543 29.7069 782.807 26.5974 782.858 23.4808C782.945 18.4082 782.298 13.3498 780.936 8.46267C785.001 11.9202 788.28 16.2083 790.55 21.0387C793.552 18.5922 795.754 15.3034 796.871 11.5954C797.988 7.88748 797.97 3.93007 796.819 0.232422C809.277 3.85863 819.832 12.1985 826.24 23.4808C825.471 24.7628 824.663 25.9294 823.817 26.9806C823.394 27.5447 822.958 28.0894 822.51 28.615L822.048 29.1534L822.375 34.8069C822.413 35.4582 822.302 36.1097 822.053 36.7124C821.803 37.3152 821.42 37.8535 820.933 38.2874L820.24 38.9027L817.818 41.0564L819.375 32.0187C818.696 32.6853 817.997 33.3263 817.279 33.9416C817.21 35.0435 816.871 36.1113 816.29 37.0504C815.71 37.9896 814.907 38.7712 813.953 39.3258C811.323 40.9065 808.409 41.9582 805.376 42.4218C804.849 42.4852 804.318 42.3403 803.895 42.0179C802.761 42.4986 801.588 42.9409 800.396 43.3447C800.332 42.9089 800.255 42.4794 800.165 42.0564L800.069 41.6142C800.069 41.3257 799.954 41.0565 799.877 40.7873L799.723 40.2681L799.511 39.5373L799.319 38.9797L799.088 38.3259L798.877 37.749L798.627 37.1337L798.377 36.5568L798.108 35.9799L797.819 35.403L797.531 34.8646L797.204 34.2685L796.896 33.7493L796.531 33.1532L796.223 32.6724L795.8 32.0763L795.473 31.6533L795.011 31.038L794.704 30.6534L794.165 30.0188L793.896 29.7111L793.262 29.0189L793.146 28.9035C792.26 27.9861 791.323 27.1193 790.339 26.3075C788.702 29.3494 786.714 32.1891 784.416 34.7685V34.8646L783.878 35.48L783.685 35.6915L783.205 36.2299L782.916 36.5376L782.493 36.9798L782.089 37.4029L781.763 37.7298L781.032 38.4797L781.051 38.3644Z" fill="#65A4C5"/>
<path d="M1.48999 269.194C1.05412 269.809 0.599042 270.45 0.124717 271.117L1.31693 269.963L1.56692 269.732L2.7976 268.617L3.02835 268.405L4.23981 267.348L4.39365 267.213L5.75892 266.079L6.0666 265.829L7.45112 264.694L7.68186 264.521L9.0087 263.463L9.29715 263.233L10.797 262.06L13.9891 259.541L14.2776 259.31L15.739 258.137L15.9697 257.945L17.3158 256.829L17.4889 256.695L18.8734 255.502L19.1618 255.252L20.5079 254.06L20.6425 253.926L21.8347 252.791L22.0462 252.579L23.2192 251.387L23.45 251.137C23.8346 250.714 24.2192 250.31 24.5653 249.887L24.8922 250.676L25.0268 250.983L25.3729 251.714L25.546 252.041L25.9306 252.753L26.0844 253.041C26.5523 253.852 27.0659 254.635 27.6228 255.387L27.8151 255.656L28.315 256.291L28.5843 256.618L29.1034 257.214L29.4111 257.541L29.9688 258.137L30.238 258.406C30.6226 258.791 31.0136 259.162 31.411 259.521L31.7186 259.79L32.2955 260.271L32.7186 260.617L33.2955 261.079L33.7762 261.444L34.3531 261.867L34.8915 262.233L35.4684 262.617L36.5452 263.271L37.0836 263.579L37.7567 263.944L38.3335 264.252L39.0066 264.598L39.5835 264.867L40.3334 265.194L40.8911 265.425L41.2949 265.598C38.5852 271.865 34.3393 277.347 28.9496 281.539C58.659 284.866 71.3504 272.347 76.5424 263.54C77.1962 263.175 77.8115 262.79 78.4653 262.387L72.6965 277.77L77.4269 274.54L78.7922 273.616C80.0162 272.782 81.0463 271.695 81.8127 270.427C82.5791 269.16 83.0639 267.742 83.2342 266.271L84.2726 257.348C87.1795 254.221 89.1746 250.357 90.0414 246.176C91.0308 246.176 91.9797 245.783 92.6793 245.083C93.3789 244.384 93.7719 243.435 93.7719 242.446V241.792C93.7719 240.802 93.3789 239.854 92.6793 239.154C91.9797 238.454 91.0308 238.061 90.0414 238.061C88.6185 230.869 83.465 224.601 76.177 220.639C69.9659 215.024 57.3322 207.275 34.3531 206.506C38.0212 209.689 40.8424 213.733 42.564 218.274C34.1031 221.351 27.5459 227.101 24.6807 234.119C18.4888 226.254 7.08575 219.409 0.105469 213.275C7.79723 222.505 11.6431 232.023 11.5277 241.792C11.4533 246.085 10.6872 250.338 9.25869 254.387C9.05357 254.977 8.83565 255.573 8.60489 256.175V256.272C8.37414 256.848 8.13696 257.425 7.89339 258.002V258.195C7.6434 258.733 7.39342 259.291 7.14344 259.829L6.9896 260.117C6.73962 260.637 6.48966 261.137 6.20122 261.656L5.97045 262.079L5.18203 263.502L4.85514 264.059L4.08597 265.348L3.60524 266.098L2.89376 267.213L2.18225 268.232L1.48999 269.194Z" fill="#65A4C5"/>
</svg>
