<svg width="174" height="177" viewBox="0 0 174 177" fill="none" xmlns="http://www.w3.org/2000/svg">
<mask id="mask0" mask-type="alpha" maskUnits="userSpaceOnUse" x="0" y="0" width="171" height="174">
<rect width="171" height="174" rx="10" fill="white"/>
</mask>
<g mask="url(#mask0)">
<g style="mix-blend-mode:multiply" opacity="0.5">
<path opacity="0.202381" d="M110.485 283.97C171.504 283.97 220.97 234.504 220.97 173.485C220.97 112.466 171.504 63 110.485 63C49.4659 63 0 112.466 0 173.485C0 234.504 49.4659 283.97 110.485 283.97Z" fill="#2B5250"/>
<path opacity="0.202381" d="M110.645 265.742C161.509 265.742 202.742 224.509 202.742 173.645C202.742 122.781 161.509 81.5474 110.645 81.5474C59.7808 81.5474 18.5474 122.781 18.5474 173.645C18.5474 224.509 59.7808 265.742 110.645 265.742Z" fill="#2B5250"/>
<path opacity="0.1" d="M110.485 245.596C150.311 245.596 182.596 213.311 182.596 173.485C182.596 133.659 150.311 101.374 110.485 101.374C70.659 101.374 38.3738 133.659 38.3738 173.485C38.3738 213.311 70.659 245.596 110.485 245.596Z" fill="#2B5250"/>
</g>
<path d="M157.713 168.804C174.194 121.088 130.633 100.078 112.019 100.855C101 101.308 92.2423 105.225 86.4901 110.469C85.1006 111.732 86.0377 114.03 87.912 113.998C94.0519 113.836 100.321 115.131 106.235 118.012C111.147 120.408 115.348 123.677 118.741 127.562C119.193 128.048 119.646 128.566 120.034 129.116C129.211 140.737 131.505 157.053 124.622 171.297C117.222 186.544 104.845 194.054 85.1329 195.187C59.1836 196.676 40.6992 182.368 40.6992 182.368C40.6992 182.368 40.0206 202.342 76.9571 209.722C104.328 215.161 143.947 208.719 157.713 168.804Z" fill="url(#paint0_linear)"/>
<g opacity="0.4">
<path opacity="0.4" d="M132.151 145.205C122.488 110.438 87.9108 113.966 87.9108 113.966C94.0507 113.804 100.32 115.099 106.234 117.98C111.146 120.376 115.347 123.645 118.74 127.53C119.192 128.016 119.644 128.534 120.032 129.084C129.21 140.706 131.504 157.021 124.621 171.265C117.221 186.512 99.1242 197.227 83.225 195.9C80.6398 196.127 79.0886 196.386 76.2126 196.321C63.0925 196.127 54.0442 194.929 47.8073 193.31C49.0353 195.706 50.1987 198.134 51.2651 200.562C69.7495 196.062 92.0794 201.177 104.65 197.454C124.847 191.53 138.387 167.672 132.151 145.205Z" fill="#27C3DA"/>
</g>
<path opacity="0.6" d="M157.842 168.804C165.792 143.554 157.939 125.879 145.982 114.872C158.779 130.055 163.271 152.618 153.189 173.401C139.81 200.982 101.872 216.909 74.339 203.507C72.0123 202.374 65.4199 200.237 63.3518 198.845C31.3595 197.583 34.3648 186.35 34.8819 182.821C34.8819 182.821 45.546 204.964 77.3443 211.535C94.116 215.031 143.074 215.646 157.842 168.804Z" fill="#27C3DA"/>
<g opacity="0.4">
<path opacity="0.4" d="M124.75 203.054C124.75 203.054 125.138 202.859 125.817 202.536C125.881 202.503 126.011 202.439 126.14 202.374C126.269 202.309 126.399 202.244 126.528 202.18C126.786 202.05 127.077 201.888 127.4 201.726C127.95 201.37 128.628 201.014 129.339 200.529C130.761 199.59 132.377 198.36 134.057 196.806C135.738 195.252 137.483 193.342 139.131 191.108C139.939 190.008 140.747 188.81 141.49 187.547C141.587 187.386 141.684 187.224 141.781 187.062L141.813 186.997C141.813 186.997 141.878 186.868 141.845 186.932V186.9L141.91 186.803L142.039 186.576C142.201 186.285 142.362 185.961 142.556 185.637C142.75 185.281 142.912 184.925 143.106 184.602C143.267 184.245 143.429 183.922 143.623 183.566C144.948 180.782 146.079 177.771 147.016 174.631C147.468 173.077 147.888 171.458 148.244 169.84C148.438 169.031 148.599 168.221 148.761 167.38C148.825 166.959 148.922 166.57 148.987 166.149L149.019 165.955L149.052 165.793L149.116 165.502L149.213 164.887L149.31 164.272L149.407 163.624C149.472 163.171 149.536 162.75 149.569 162.297C149.633 161.423 149.73 160.549 149.795 159.675C149.86 158.801 149.86 157.927 149.892 157.053C149.892 156.179 149.86 155.305 149.827 154.431C149.633 150.935 149.019 147.503 148.179 144.234C147.759 142.615 147.274 141.029 146.757 139.475C146.628 139.086 146.499 138.698 146.369 138.309C146.24 137.921 146.111 137.565 145.982 137.176C145.82 136.788 145.691 136.399 145.562 136.011C145.4 135.623 145.238 135.266 145.109 134.878C143.849 131.932 142.33 129.213 140.65 126.85C139.809 125.652 138.937 124.551 138.032 123.515C137.127 122.479 136.222 121.541 135.318 120.667C133.476 118.919 131.634 117.494 129.921 116.393C128.208 115.293 126.592 114.484 125.268 113.933C123.91 113.383 122.812 113.059 122.068 112.865C121.68 112.768 121.39 112.703 121.196 112.671C121.002 112.638 120.905 112.606 120.905 112.606C120.905 112.606 121.002 112.638 121.196 112.703C121.39 112.768 121.68 112.833 122.036 112.962C122.779 113.189 123.846 113.609 125.106 114.257C126.399 114.904 127.885 115.811 129.469 117.041C131.052 118.239 132.732 119.76 134.38 121.605C135.188 122.512 135.996 123.515 136.772 124.551C137.547 125.62 138.291 126.753 139.002 127.95C140.423 130.346 141.651 133.033 142.621 135.882C142.75 136.238 142.847 136.594 142.976 136.95C143.073 137.306 143.17 137.662 143.3 138.018C143.396 138.374 143.493 138.795 143.59 139.151L143.655 139.442L143.687 139.507V139.54C143.687 139.572 143.687 139.507 143.687 139.54L143.72 139.669L143.849 140.252C144.172 141.806 144.463 143.359 144.689 144.946C145.141 148.086 145.335 151.291 145.141 154.431C145.109 155.208 145.012 155.985 144.948 156.762C144.851 157.538 144.754 158.315 144.624 159.092C144.495 159.869 144.334 160.614 144.172 161.391C144.075 161.747 143.978 162.135 143.913 162.491L143.784 163.042L143.623 163.624C142.782 166.667 141.781 169.613 140.65 172.365C139.519 175.117 138.258 177.642 136.869 179.875C136.707 180.167 136.513 180.426 136.352 180.685C136.19 180.944 136.029 181.202 135.835 181.429C135.77 181.559 135.641 181.688 135.544 181.85C135.447 181.979 135.35 182.141 135.253 182.271L135.091 182.465L135.027 182.562L134.994 182.594C134.962 182.659 135.027 182.562 134.994 182.562L134.962 182.594L134.704 182.951C133.993 183.922 133.249 184.828 132.474 185.637C130.987 187.288 129.469 188.616 128.079 189.652C126.689 190.688 125.397 191.464 124.33 192.015C123.781 192.306 123.296 192.5 122.876 192.727C122.488 192.889 122.133 193.018 121.874 193.115C121.131 193.374 120.743 193.536 120.743 193.536L124.75 203.054Z" fill="#27C3DA"/>
</g>
<g opacity="0.4">
<path opacity="0.4" d="M142.298 190.688C142.298 190.688 142.395 190.493 142.621 190.137C142.815 189.781 143.138 189.263 143.494 188.583C143.687 188.227 143.881 187.871 144.14 187.45C144.366 187.03 144.592 186.576 144.851 186.091C145.368 185.12 145.917 184.019 146.499 182.821C147.081 181.623 147.695 180.296 148.309 178.904C148.923 177.48 149.537 175.991 150.118 174.437C150.409 173.66 150.7 172.851 150.991 172.041C151.249 171.232 151.54 170.39 151.799 169.549C152.348 167.865 152.8 166.15 153.22 164.402C153.641 162.653 153.964 160.905 154.222 159.19C154.481 157.441 154.642 155.726 154.739 154.075C154.836 152.391 154.804 150.805 154.707 149.251C154.578 147.73 154.448 146.305 154.19 144.978C153.964 143.683 153.641 142.486 153.35 141.45C153.22 140.932 153.027 140.446 152.865 140.025C152.736 139.572 152.542 139.184 152.413 138.828C152.122 138.115 151.863 137.565 151.702 137.209C151.54 136.853 151.443 136.626 151.443 136.626C151.443 136.626 151.508 136.82 151.669 137.209C151.799 137.597 152.025 138.148 152.251 138.892C152.38 139.248 152.51 139.669 152.606 140.122C152.703 140.576 152.865 141.061 152.962 141.579C153.188 142.615 153.382 143.813 153.511 145.108C153.673 146.403 153.673 147.827 153.673 149.316C153.641 150.805 153.511 152.359 153.317 153.978C153.091 155.596 152.8 157.247 152.413 158.898C152.025 160.549 151.572 162.233 151.023 163.851C150.538 165.47 149.957 167.088 149.31 168.642C148.987 169.419 148.664 170.196 148.341 170.973C147.985 171.718 147.662 172.495 147.307 173.207C146.628 174.663 145.885 176.055 145.206 177.35C144.495 178.645 143.817 179.875 143.138 180.976C142.492 182.077 141.845 183.113 141.296 183.987C141.005 184.44 140.747 184.828 140.488 185.217C140.23 185.605 140.003 185.929 139.81 186.253C139.389 186.868 139.034 187.386 138.808 187.709C138.582 188.033 138.452 188.227 138.452 188.227L142.298 190.688Z" fill="#27C3DA"/>
</g>
<g opacity="0.4">
<path opacity="0.4" d="M124.137 199.655C124.137 199.655 124.267 199.46 124.558 199.104C124.687 198.942 124.848 198.716 125.042 198.457C125.236 198.198 125.462 197.907 125.721 197.583C126.238 196.903 126.852 196.061 127.531 195.09C127.886 194.605 128.209 194.087 128.597 193.536C128.791 193.277 128.952 192.986 129.146 192.695C129.34 192.403 129.534 192.112 129.728 191.788C129.922 191.497 130.116 191.173 130.31 190.849C130.504 190.526 130.697 190.202 130.891 189.878C131.311 189.231 131.699 188.519 132.087 187.806C132.507 187.094 132.895 186.317 133.315 185.573C133.703 184.796 134.123 184.019 134.511 183.177C135.286 181.559 136.03 179.843 136.708 178.062C137.387 176.282 138.001 174.469 138.518 172.624C139.035 170.779 139.455 168.901 139.778 167.024C140.069 165.146 140.295 163.301 140.36 161.52C140.424 159.707 140.392 157.992 140.263 156.341C140.101 154.69 139.907 153.168 139.584 151.776C139.52 151.42 139.455 151.096 139.358 150.74C139.261 150.417 139.196 150.093 139.099 149.769C138.938 149.154 138.712 148.571 138.55 148.021C138.453 147.73 138.356 147.471 138.259 147.244C138.162 146.985 138.065 146.759 137.968 146.532C137.807 146.046 137.613 145.658 137.419 145.27C137.096 144.525 136.773 143.942 136.579 143.554C136.385 143.165 136.256 142.939 136.256 142.939C136.256 142.939 136.353 143.165 136.514 143.554C136.676 143.975 136.967 144.557 137.225 145.334C137.354 145.723 137.516 146.144 137.678 146.629C137.742 146.856 137.839 147.115 137.904 147.374C138.001 147.633 138.065 147.892 138.13 148.183C138.259 148.733 138.421 149.316 138.55 149.963C138.615 150.287 138.679 150.611 138.744 150.935C138.809 151.258 138.841 151.614 138.906 151.938C139.099 153.33 139.196 154.852 139.229 156.438C139.229 158.024 139.132 159.707 138.938 161.456C138.712 163.171 138.389 164.952 137.968 166.7C137.516 168.48 136.967 170.228 136.353 171.977C135.739 173.725 134.995 175.408 134.22 177.059C133.444 178.71 132.604 180.296 131.764 181.785C131.344 182.53 130.891 183.274 130.471 183.987C130.019 184.699 129.599 185.379 129.146 186.026C128.694 186.673 128.274 187.321 127.854 187.936C127.628 188.227 127.434 188.551 127.207 188.842C126.981 189.134 126.787 189.425 126.561 189.684C126.367 189.975 126.141 190.234 125.947 190.493C125.753 190.752 125.559 191.011 125.333 191.27C124.945 191.756 124.59 192.241 124.202 192.662C123.491 193.536 122.845 194.249 122.328 194.864C122.069 195.155 121.811 195.446 121.617 195.673C121.391 195.9 121.229 196.126 121.067 196.288C120.777 196.612 120.615 196.806 120.615 196.806L124.137 199.655Z" fill="#27C3DA"/>
</g>
<path d="M11.0012 168.901C18.3368 168.286 31.0367 175.505 40.7314 182.336C48.0023 187.483 63.2229 198.619 85.9083 202.471C111.244 206.777 130.633 198.619 142.719 188.843C154.546 179.26 157.713 168.804 157.713 168.804C157.713 168.804 149.796 201.824 110.759 211.73C71.7218 221.636 31.3599 189.781 31.3599 189.781L11.0012 185.055V168.901Z" fill="#85DBF0"/>
<path d="M119.386 97.1646C119.386 97.1646 119.289 97.0351 119.095 96.7761C118.998 96.6466 118.901 96.4847 118.772 96.3229C118.643 96.1287 118.481 95.9668 118.32 95.7402C118.126 95.546 117.964 95.287 117.738 95.0604C117.512 94.8338 117.286 94.5748 117.027 94.3482C116.768 94.1216 116.51 93.8626 116.219 93.636C115.928 93.4094 115.637 93.1828 115.314 92.9562C114.991 92.7619 114.668 92.5353 114.345 92.3411C114.022 92.1469 113.698 91.985 113.343 91.8232C113.02 91.6613 112.697 91.5318 112.374 91.4023C112.05 91.2728 111.76 91.1757 111.469 91.0786C110.887 90.8844 110.402 90.7873 110.015 90.6901C109.821 90.6578 109.691 90.6254 109.562 90.6254C109.465 90.6254 109.336 90.593 109.336 90.593C108.173 90.6578 107.268 91.6289 107.332 92.7943C107.397 93.9597 108.366 94.8661 109.53 94.8014C109.53 94.8014 109.497 94.8014 109.562 94.769C109.594 94.769 109.691 94.7366 109.821 94.7043C110.047 94.6719 110.435 94.6072 110.887 94.5748C111.113 94.5424 111.372 94.5748 111.63 94.5748C111.889 94.6072 112.18 94.5748 112.471 94.6072C112.761 94.6395 113.085 94.6719 113.375 94.7366C113.698 94.769 114.022 94.8661 114.312 94.9309C114.636 94.9956 114.959 95.0927 115.25 95.1899C115.573 95.287 115.864 95.4165 116.154 95.5136C116.445 95.6107 116.736 95.7726 116.995 95.902C117.253 96.0315 117.479 96.161 117.738 96.2905C117.964 96.42 118.19 96.5171 118.352 96.6466C118.546 96.7761 118.675 96.8732 118.804 96.9703C119.063 97.1322 119.224 97.2293 119.224 97.2293C119.257 97.2617 119.321 97.2293 119.354 97.1969C119.418 97.2293 119.418 97.1969 119.386 97.1646Z" fill="url(#paint1_linear)"/>
<path d="M157.778 181.979C157.778 181.979 157.939 181.818 158.262 181.526C158.424 181.364 158.585 181.202 158.812 181.008C159.006 180.782 159.264 180.523 159.49 180.264C159.749 180.005 160.007 179.681 160.266 179.357C160.557 179.034 160.815 178.677 161.106 178.321C161.397 177.965 161.688 177.577 161.946 177.156C162.237 176.768 162.496 176.347 162.786 175.926C163.077 175.505 163.336 175.084 163.594 174.663C163.853 174.242 164.079 173.822 164.338 173.401C164.564 172.98 164.79 172.591 164.984 172.203C165.178 171.815 165.372 171.458 165.533 171.102C165.856 170.423 166.147 169.84 166.309 169.387C166.406 169.16 166.47 168.998 166.503 168.869C166.535 168.772 166.567 168.642 166.567 168.674C166.89 167.153 165.921 165.631 164.37 165.308C162.851 164.984 161.332 165.955 161.009 167.509C161.009 167.509 161.009 167.541 161.009 167.639C161.009 167.736 161.009 167.898 160.977 168.092C160.944 168.48 160.912 169.063 160.848 169.743C160.815 170.099 160.783 170.455 160.718 170.843C160.686 171.232 160.589 171.653 160.524 172.074C160.46 172.494 160.363 172.948 160.298 173.401C160.201 173.854 160.137 174.307 160.007 174.76C159.91 175.214 159.781 175.667 159.684 176.12C159.555 176.573 159.458 176.994 159.296 177.415C159.167 177.836 159.038 178.257 158.876 178.613C158.747 179.001 158.618 179.357 158.456 179.681C158.327 180.005 158.198 180.296 158.068 180.587C157.939 180.846 157.842 181.073 157.745 181.267C157.551 181.656 157.454 181.882 157.454 181.882C157.422 181.947 157.454 182.012 157.519 182.044C157.713 182.012 157.745 182.012 157.778 181.979Z" fill="url(#paint2_linear)"/>
<path d="M159.653 127.336C160.202 120.829 156.453 116.944 156.453 116.944L159.653 127.336Z" fill="#85DBF0"/>
<path d="M159.781 127.336C159.781 127.336 159.846 127.174 159.943 126.85C160.007 126.688 160.072 126.526 160.136 126.3C160.201 126.105 160.266 125.846 160.33 125.555C160.395 125.264 160.492 124.972 160.524 124.649C160.589 124.325 160.653 123.969 160.686 123.613C160.718 123.257 160.75 122.868 160.783 122.48C160.783 122.091 160.815 121.67 160.783 121.282C160.75 120.894 160.75 120.473 160.686 120.084C160.653 119.663 160.589 119.275 160.492 118.886C160.427 118.498 160.33 118.142 160.233 117.786C160.136 117.43 160.04 117.106 159.91 116.782C159.813 116.459 159.684 116.2 159.587 115.941C159.49 115.682 159.361 115.455 159.296 115.261C159.199 115.067 159.135 114.905 159.038 114.808C159.005 114.743 158.973 114.71 158.941 114.646C158.908 114.613 158.876 114.581 158.876 114.581C157.584 113.221 155.418 113.189 154.093 114.484C152.769 115.779 152.704 117.948 153.997 119.275C153.997 119.275 153.997 119.275 153.997 119.243C153.997 119.21 153.997 119.21 154.029 119.243C154.061 119.243 154.126 119.275 154.223 119.307C154.32 119.372 154.449 119.437 154.578 119.502C154.707 119.599 154.869 119.696 155.063 119.825C155.257 119.955 155.418 120.117 155.612 120.278C155.806 120.44 156 120.635 156.194 120.861C156.388 121.055 156.614 121.282 156.808 121.541C157.002 121.768 157.196 122.027 157.39 122.286C157.584 122.545 157.745 122.836 157.907 123.095C158.068 123.386 158.198 123.645 158.359 123.937C158.521 124.228 158.618 124.487 158.747 124.778C158.876 125.037 158.941 125.296 159.038 125.555C159.102 125.814 159.199 126.008 159.264 126.235C159.329 126.462 159.361 126.623 159.393 126.785C159.458 127.109 159.522 127.271 159.522 127.271C159.555 127.336 159.619 127.4 159.684 127.368C159.749 127.4 159.781 127.368 159.781 127.336Z" fill="url(#paint3_linear)"/>
<path d="M116.123 131.609C116.123 131.609 115.767 131.317 115.185 130.832C114.895 130.573 114.539 130.281 114.087 129.958C113.634 129.634 113.15 129.246 112.6 128.857C112.051 128.469 111.437 128.048 110.758 127.627C110.435 127.433 110.08 127.206 109.724 126.98C109.369 126.785 108.981 126.559 108.593 126.364C108.205 126.138 107.817 125.976 107.397 125.749C106.977 125.555 106.589 125.329 106.169 125.167C105.749 124.972 105.297 124.811 104.877 124.616C104.424 124.454 103.972 124.293 103.552 124.131C103.099 123.969 102.647 123.839 102.195 123.678C101.742 123.548 101.29 123.386 100.805 123.289C100.353 123.16 99.9002 123.062 99.4155 122.965C98.963 122.868 98.5106 122.771 98.0582 122.706C97.6058 122.609 97.1534 122.577 96.7333 122.48C96.2809 122.415 95.8608 122.35 95.4407 122.318C94.6005 122.221 93.7926 122.156 93.0493 122.124C92.6939 122.091 92.3061 122.091 91.9829 122.091C91.6598 122.091 91.3366 122.091 91.0135 122.091C90.3995 122.091 89.8824 122.091 89.4623 122.124C88.5898 122.156 88.1051 122.188 88.1051 122.188C85.2936 122.318 83.1285 124.681 83.2578 127.497C83.387 130.314 85.746 132.483 88.5575 132.353C89.1392 132.321 89.7208 132.191 90.2379 131.997H90.2702C90.2702 131.997 90.6257 131.835 91.272 131.576C91.5951 131.447 91.9829 131.285 92.4353 131.123C92.6615 131.026 92.8877 130.961 93.1463 130.864C93.4048 130.799 93.6633 130.702 93.9542 130.605C94.5035 130.411 95.1498 130.281 95.7961 130.087C96.1193 129.99 96.4748 129.925 96.8302 129.861C97.1857 129.796 97.5412 129.699 97.8966 129.666C98.2844 129.602 98.6399 129.569 99.0277 129.505C99.4155 129.472 99.8032 129.44 100.191 129.375C100.579 129.343 100.999 129.31 101.387 129.31C101.807 129.31 102.195 129.246 102.615 129.278C103.035 129.278 103.455 129.278 103.843 129.278C104.263 129.31 104.651 129.343 105.071 129.343C105.491 129.343 105.879 129.407 106.299 129.472C106.686 129.537 107.107 129.537 107.494 129.634C107.882 129.699 108.27 129.764 108.658 129.828C109.045 129.893 109.401 129.99 109.756 130.055C110.467 130.184 111.146 130.379 111.792 130.54C112.439 130.702 112.988 130.897 113.505 131.058C113.764 131.156 113.99 131.22 114.216 131.285C114.442 131.382 114.636 131.447 114.83 131.512C115.573 131.771 115.961 131.932 115.961 131.932C116.058 131.965 116.187 131.932 116.219 131.803C116.219 131.738 116.187 131.673 116.123 131.609Z" fill="url(#paint4_linear)"/>
<path d="M120.065 137.727C120.065 137.727 119.904 137.598 119.645 137.403C119.516 137.306 119.355 137.177 119.161 137.015C118.967 136.885 118.741 136.723 118.482 136.562C118.224 136.4 117.965 136.238 117.674 136.044C117.383 135.882 117.06 135.72 116.705 135.526C116.349 135.364 115.994 135.202 115.638 135.04C115.283 134.878 114.863 134.749 114.475 134.619C114.087 134.49 113.667 134.36 113.279 134.296C112.891 134.198 112.471 134.134 112.084 134.037C111.696 133.972 111.308 133.907 110.953 133.875C110.597 133.842 110.242 133.81 109.918 133.81C109.595 133.778 109.304 133.778 109.046 133.778C108.787 133.778 108.561 133.778 108.367 133.778C107.98 133.81 107.753 133.81 107.753 133.81C106.461 133.875 105.491 134.975 105.556 136.27C105.621 137.565 106.719 138.536 108.012 138.472C108.303 138.472 108.594 138.374 108.82 138.277C108.82 138.277 108.981 138.213 109.24 138.083C109.369 138.018 109.531 137.954 109.725 137.889C109.918 137.824 110.145 137.727 110.371 137.662C110.597 137.565 110.888 137.5 111.179 137.436C111.47 137.339 111.76 137.306 112.084 137.241C112.407 137.177 112.73 137.112 113.085 137.08C113.441 137.015 113.796 137.015 114.152 136.982C114.507 136.982 114.863 136.95 115.218 136.982C115.574 136.982 115.929 137.015 116.285 137.047C116.64 137.08 116.963 137.112 117.286 137.177C117.61 137.241 117.9 137.274 118.159 137.339C118.45 137.403 118.676 137.468 118.902 137.533C119.128 137.598 119.322 137.662 119.484 137.695C119.807 137.792 120.001 137.856 120.001 137.856C120.033 137.856 120.098 137.856 120.13 137.792C120.13 137.792 120.098 137.759 120.065 137.727Z" fill="url(#paint5_linear)"/>
<path d="M121.971 142.874C121.971 142.874 121.939 142.809 121.874 142.679C121.81 142.55 121.713 142.356 121.551 142.161C121.486 142.064 121.39 141.935 121.293 141.838C121.196 141.708 121.099 141.611 121.002 141.482C120.776 141.255 120.517 141.028 120.226 140.802C119.935 140.608 119.612 140.413 119.321 140.252C119.16 140.187 118.998 140.122 118.869 140.057C118.707 139.993 118.578 139.96 118.449 139.928C118.19 139.863 117.932 139.798 117.77 139.766C117.609 139.734 117.512 139.734 117.512 139.734H117.479C116.865 139.636 116.284 140.09 116.187 140.705C116.09 141.32 116.542 141.903 117.156 142C117.318 142.032 117.512 142 117.641 141.967C117.641 141.967 117.706 141.935 117.803 141.903C117.899 141.87 118.061 141.838 118.255 141.805C118.352 141.773 118.449 141.773 118.578 141.773C118.707 141.773 118.804 141.773 118.934 141.773C119.192 141.773 119.483 141.805 119.741 141.87C120.032 141.935 120.291 142 120.549 142.129C120.679 142.194 120.808 142.226 120.905 142.291C121.034 142.356 121.131 142.42 121.228 142.485C121.422 142.615 121.583 142.712 121.68 142.809C121.777 142.906 121.842 142.938 121.842 142.938C121.874 142.938 121.874 142.938 121.907 142.938C121.971 142.906 121.971 142.906 121.971 142.874Z" fill="#85DBF0"/>
<path d="M161.881 127.335C161.881 127.335 161.945 127.303 162.107 127.271C162.236 127.238 162.462 127.173 162.689 127.076C162.818 127.044 162.947 126.979 163.076 126.914C163.206 126.85 163.335 126.785 163.496 126.688C163.787 126.526 164.046 126.332 164.337 126.105C164.595 125.879 164.854 125.62 165.08 125.328C165.177 125.199 165.274 125.069 165.371 124.94C165.468 124.81 165.532 124.681 165.597 124.551C165.726 124.292 165.823 124.098 165.888 123.936C165.952 123.774 165.985 123.677 165.985 123.677V123.645C166.211 123.062 165.92 122.382 165.338 122.156C164.757 121.929 164.078 122.221 163.852 122.803C163.787 122.965 163.755 123.127 163.787 123.289C163.787 123.289 163.787 123.354 163.787 123.451C163.787 123.548 163.787 123.71 163.787 123.904C163.787 124.001 163.755 124.098 163.755 124.228C163.755 124.357 163.723 124.454 163.69 124.584C163.626 124.843 163.529 125.102 163.4 125.361C163.27 125.62 163.141 125.879 162.979 126.105C162.882 126.202 162.818 126.332 162.721 126.429C162.624 126.526 162.559 126.623 162.462 126.688C162.301 126.85 162.172 126.979 162.042 127.076C161.945 127.173 161.881 127.206 161.881 127.206C161.848 127.206 161.848 127.238 161.881 127.271C161.848 127.303 161.881 127.335 161.881 127.335Z" fill="url(#paint6_linear)"/>
<path d="M122.813 98.9126C122.813 98.9126 122.845 98.8479 122.877 98.686C122.91 98.5565 122.942 98.3299 122.974 98.1033C122.974 97.9738 123.007 97.8443 123.007 97.6825C123.007 97.5206 123.007 97.3911 123.007 97.2293C122.974 96.9055 122.942 96.5494 122.845 96.2257C122.748 95.8696 122.651 95.5459 122.49 95.2222C122.425 95.0603 122.36 94.8985 122.263 94.769C122.199 94.6395 122.102 94.51 122.037 94.3805C121.876 94.1539 121.746 93.9597 121.617 93.8302C121.52 93.7007 121.455 93.636 121.455 93.636L121.423 93.6036C121.003 93.118 120.292 93.0856 119.807 93.5065C119.323 93.9273 119.29 94.6395 119.71 95.1251C119.84 95.2546 119.969 95.3517 120.131 95.4164C120.131 95.4164 120.195 95.4488 120.292 95.4812C120.389 95.5135 120.551 95.6107 120.712 95.7078C120.809 95.7725 120.874 95.8049 120.971 95.902C121.068 95.9667 121.165 96.0639 121.262 96.1286C121.455 96.2905 121.649 96.5171 121.843 96.7437C122.005 96.9703 122.166 97.2293 122.296 97.4559C122.36 97.5854 122.425 97.7148 122.457 97.812C122.522 97.9414 122.554 98.0386 122.586 98.168C122.651 98.3947 122.716 98.5565 122.716 98.7184C122.748 98.8479 122.748 98.945 122.748 98.945C122.748 98.9774 122.78 98.9774 122.813 98.9774C122.813 98.945 122.813 98.945 122.813 98.9126Z" fill="url(#paint7_linear)"/>
<path d="M118.062 92.8914C118.062 92.8914 118.062 92.7296 117.997 92.5353C117.965 92.3087 117.868 92.0174 117.706 91.7584C117.642 91.6289 117.545 91.467 117.448 91.3699C117.351 91.2404 117.254 91.1433 117.157 91.0462C117.06 90.9491 116.995 90.8843 116.931 90.852C116.866 90.8196 116.834 90.7872 116.834 90.7872C116.608 90.6254 116.317 90.6577 116.123 90.852C115.961 91.0786 115.994 91.3699 116.187 91.5642C116.252 91.5965 116.317 91.6289 116.349 91.6613C116.349 91.6613 116.381 91.6613 116.414 91.6936C116.478 91.6936 116.543 91.726 116.608 91.7584C116.705 91.7908 116.801 91.8231 116.898 91.8879C116.995 91.9526 117.125 92.0174 117.222 92.1145C117.415 92.2763 117.609 92.503 117.739 92.6648C117.868 92.8267 117.933 92.9562 117.933 92.9562C118.029 92.8914 118.029 92.9238 118.062 92.8914C118.062 92.8914 118.029 92.8914 118.062 92.8914Z" fill="#7DDBE9"/>
<path d="M47.0648 181.203C47.0648 181.203 47.1617 181.17 47.291 181.105C47.4526 181.041 47.7434 180.976 48.0989 180.911C48.7775 180.814 49.8116 180.782 51.0719 180.879C52.3322 180.976 53.851 181.203 55.5961 181.494C57.3088 181.785 59.2154 182.141 61.3159 182.53C62.35 182.692 63.4164 182.886 64.5151 183.015C64.7736 183.048 65.0645 183.08 65.323 183.112C65.6138 183.145 65.9047 183.177 66.1955 183.21C66.7772 183.274 67.3266 183.307 67.9405 183.339C70.2996 183.501 72.7555 183.566 75.1792 183.436C77.6352 183.274 80.0265 182.886 82.3532 182.206L82.4825 182.174L82.5794 182.141L82.7733 182.077L83.1611 181.947C83.4519 181.85 83.7105 181.753 83.969 181.656C84.5183 181.429 85.0354 181.203 85.5524 180.944C86.5865 180.426 87.5237 179.843 88.3962 179.195C90.1412 177.901 91.4662 176.379 92.274 174.793C92.6618 174.048 92.9204 173.304 93.0496 172.527C93.2112 171.75 93.2435 171.005 93.2112 170.293C93.1789 169.581 93.0173 168.933 92.8234 168.383C92.6295 167.833 92.371 167.412 92.0802 167.088C91.6277 166.57 91.1753 166.344 91.1753 166.344L90.1735 167.218C85.6494 171.329 78.6693 170.973 74.5975 166.441C70.4935 161.909 71.3013 154.593 75.3731 150.837C79.4448 147.082 85.197 145.626 90.8199 146.435C95.7964 147.147 98.0585 148.604 101.096 150.967C101.872 151.55 102.583 152.229 103.294 152.942C103.649 153.298 104.005 153.686 104.328 154.107C104.586 154.431 105.168 155.175 105.426 155.531L105.653 155.92L105.685 155.952C105.653 155.92 105.976 156.373 105.847 156.179L105.879 156.211L105.976 156.373L106.17 156.697C106.428 157.15 106.654 157.603 106.881 158.056C107.333 158.963 107.688 159.934 107.979 160.905C108.593 162.848 108.884 164.887 108.916 166.862C108.949 168.869 108.69 170.811 108.238 172.721C107.753 174.631 107.074 176.444 106.137 178.192C105.2 179.94 104.037 181.559 102.68 182.983C100.062 185.799 96.8628 187.806 93.599 189.134C91.9832 189.781 90.3351 190.299 88.687 190.655C87.8791 190.817 87.0389 190.979 86.2311 191.076C85.811 191.141 85.4232 191.141 85.0031 191.173L84.3891 191.206L84.0659 191.238L83.9044 191.303L83.7751 191.335L83.5166 191.367H83.3873H83.355H83.258H83.1934H82.6117C82.224 191.367 81.8362 191.367 81.4161 191.367C80.6405 191.367 79.8649 191.335 79.0894 191.27C77.5705 191.141 76.1163 190.947 74.6945 190.688C71.883 190.17 69.2655 189.457 66.8741 188.68C66.2925 188.486 65.6785 188.292 65.0968 188.098C64.8059 188.001 64.5474 187.904 64.2566 187.806C63.9334 187.709 63.6749 187.612 63.3841 187.483C62.253 187.062 61.2189 186.609 60.2172 186.188C58.2782 185.314 56.5009 184.537 54.9174 183.857C53.334 183.177 51.9767 182.627 50.8134 182.238C49.6823 181.85 48.7452 181.656 48.1312 181.623C47.808 181.591 47.6142 181.591 47.4203 181.623C47.2587 181.656 47.1617 181.656 47.1617 181.656C47.0325 181.688 46.9355 181.591 46.9032 181.462C46.9032 181.332 46.9678 181.235 47.0648 181.203Z" fill="url(#paint8_linear)"/>
<path opacity="0.4" d="M74.5017 166.408C78.2826 170.584 84.4872 171.199 88.979 168.059C86.4907 168.674 83.8409 168.545 81.4818 167.541C75.4065 164.951 73.0152 158.056 75.2773 152.067C75.5681 151.258 75.9882 150.481 76.4729 149.801C76.0528 150.125 75.6651 150.449 75.2773 150.805C71.1732 154.592 70.3976 161.908 74.5017 166.408Z" fill="#27C3DA"/>
<path opacity="0.4" d="M108.11 172.721C108.563 170.811 108.821 168.869 108.789 166.862C108.757 164.887 108.466 162.848 107.852 160.906C107.561 159.934 107.173 158.963 106.753 158.057C106.527 157.604 106.301 157.15 106.042 156.697L105.848 156.373L105.751 156.212L105.719 156.179C105.848 156.341 105.525 155.888 105.557 155.953L105.525 155.92L105.299 155.532C105.073 155.176 104.491 154.431 104.2 154.107C103.877 153.687 103.522 153.33 103.166 152.942C102.455 152.23 101.712 151.55 100.969 150.967C98.7713 149.284 96.9939 148.054 94.3117 147.212C97.7049 148.539 100.872 150.967 102.875 153.687C104.426 155.629 105.428 157.83 105.848 160.258C106.656 162.589 106.85 165.017 106.43 167.509C106.236 171.75 104.362 178.16 96.7354 184.343C95.1519 185.605 93.1484 186.512 91.2095 187.224C84.7464 189.62 81.2563 191.4 59.2172 185.832C59.508 185.962 59.7989 186.091 60.122 186.221C61.1238 186.641 62.1579 187.095 63.2889 187.515C63.5798 187.613 63.8383 187.71 64.1614 187.839C64.4523 187.936 64.7108 188.033 65.0017 188.131C65.5833 188.325 66.165 188.519 66.779 188.713C69.1703 189.49 71.7879 190.202 74.5993 190.72C76.0212 190.979 77.4754 191.173 78.9942 191.303C79.7375 191.368 80.5131 191.4 81.3209 191.4C81.7087 191.4 82.0965 191.4 82.5166 191.4H83.0983H83.1629C83.1306 191.4 83.2599 191.4 83.2599 191.4H83.2922H83.4214H83.68H83.8092H83.9708L84.294 191.368L84.908 191.303C85.3281 191.271 85.7158 191.206 86.1359 191.173C86.9438 191.076 87.784 190.915 88.5919 190.753C90.24 190.397 91.8881 189.911 93.5038 189.231C96.7354 187.904 99.9346 185.897 102.584 183.08C103.909 181.656 105.105 180.005 106.042 178.289C106.947 176.444 107.626 174.631 108.11 172.721Z" fill="#27C3DA"/>
<g opacity="0.6">
<path opacity="0.6" d="M79.7034 158.769C79.7034 158.769 79.6388 158.64 79.5095 158.445C79.4772 158.381 79.4772 158.348 79.4772 158.348C79.4772 158.316 79.4449 158.283 79.4449 158.251C79.4126 158.219 79.4126 158.154 79.4126 158.089C79.3803 158.024 79.3803 157.96 79.3803 157.895C79.3156 157.604 79.3156 157.248 79.4126 156.762C79.5095 156.309 79.7357 155.758 80.0912 155.176C80.2528 154.884 80.479 154.625 80.7052 154.334C80.8345 154.205 80.9637 154.075 81.093 153.946L81.1576 153.881C81.1576 153.881 81.093 153.913 81.1253 153.913L81.1576 153.881L81.2869 153.784C81.3838 153.719 81.4484 153.654 81.5454 153.557C81.6423 153.492 81.707 153.395 81.8039 153.331L82.0301 153.169C82.1917 153.039 82.3533 152.942 82.5472 152.813C82.9026 152.586 83.2904 152.359 83.7105 152.165C85.3263 151.356 87.2975 150.935 89.3011 151C90.3029 151.032 91.3047 151.162 92.2418 151.388L92.5973 151.485C92.6296 151.485 92.6619 151.518 92.6619 151.518L92.7588 151.55L92.9527 151.615C93.179 151.712 93.4375 151.777 93.6637 151.874C94.1161 152.036 94.5362 152.23 94.9886 152.456C95.8611 152.877 96.6367 153.395 97.3476 153.913C98.0586 154.431 98.7049 155.014 99.2219 155.564C99.5128 155.823 99.739 156.115 99.9975 156.373C100.224 156.665 100.45 156.891 100.644 157.15C101.032 157.636 101.355 158.122 101.581 158.51C101.71 158.704 101.807 158.866 101.904 159.028C102.001 159.19 102.066 159.319 102.13 159.416C102.26 159.643 102.324 159.74 102.324 159.74C102.324 159.74 102.26 159.611 102.163 159.384C102.098 159.287 102.033 159.125 101.969 158.963C101.872 158.801 101.807 158.607 101.678 158.413C101.452 157.992 101.193 157.507 100.838 156.989C100.676 156.73 100.45 156.438 100.256 156.147C100.03 155.856 99.8036 155.532 99.5451 155.24C99.028 154.625 98.4464 154.01 97.7677 153.395C97.0891 152.78 96.3135 152.165 95.441 151.647C95.0209 151.388 94.5685 151.129 94.0838 150.903C93.8253 150.773 93.599 150.676 93.3728 150.579L93.2113 150.514L93.1143 150.482L93.0174 150.449L92.6296 150.32C91.6278 149.964 90.5291 149.705 89.4304 149.608C87.2329 149.381 84.9708 149.64 82.9673 150.417C82.4825 150.611 81.9978 150.805 81.5454 151.064C81.3192 151.162 81.093 151.323 80.8668 151.453C80.7698 151.518 80.6406 151.582 80.5436 151.647C80.4144 151.712 80.3497 151.777 80.2528 151.841C80.1558 151.906 80.0589 151.971 79.9943 152.036L79.865 152.133L79.8327 152.165L79.768 152.23L79.7034 152.295C79.5095 152.456 79.3156 152.618 79.154 152.78C78.7986 153.104 78.4754 153.46 78.2169 153.848C77.6675 154.593 77.2474 155.338 77.0212 156.115C76.7627 156.891 76.6981 157.636 76.7627 158.251C76.7627 158.413 76.795 158.575 76.8273 158.704C76.8597 158.866 76.8597 158.963 76.9243 159.125C76.9566 159.255 77.0212 159.384 77.0535 159.514C77.0859 159.643 77.1505 159.74 77.1505 159.773C77.2474 159.999 77.3121 160.129 77.3121 160.129C77.6352 160.873 78.5077 161.197 79.2187 160.873C79.9619 160.549 80.2851 159.675 79.9619 158.963C79.7357 158.834 79.7034 158.801 79.7034 158.769Z" fill="#E7F8FC"/>
</g>
<g opacity="0.6">
<path opacity="0.6" d="M87.5883 128.145C87.5883 128.145 87.556 128.112 87.5237 128.048C87.5237 128.015 87.4914 128.015 87.4914 127.983L87.459 127.951C87.459 127.951 87.4267 127.951 87.4267 127.918C87.3621 127.789 87.2651 127.562 87.2651 127.238C87.2651 126.915 87.3621 126.461 87.6206 126.041L87.6852 125.976V125.943C87.6852 125.943 87.7176 125.911 87.6529 125.976L87.6852 125.911L87.8468 125.749C87.9115 125.684 88.0084 125.555 88.1377 125.458C88.3639 125.264 88.5901 125.102 88.8809 124.972C89.1718 124.843 89.4626 124.713 89.7857 124.616C90.1089 124.519 90.3997 124.454 90.7229 124.422C91.3369 124.357 91.9832 124.357 92.5002 124.39C93.0496 124.422 93.4697 124.454 93.7929 124.487C94.116 124.519 94.2776 124.551 94.2776 124.551C94.2776 124.551 94.116 124.487 93.8252 124.39C93.5343 124.292 93.1142 124.131 92.5649 123.969C92.0478 123.807 91.4015 123.645 90.6906 123.548C90.3351 123.516 89.9473 123.483 89.5595 123.483C89.1718 123.483 88.784 123.548 88.3639 123.613C87.9761 123.71 87.556 123.839 87.1682 124.033C86.9743 124.131 86.8127 124.228 86.5865 124.357C86.5219 124.422 86.425 124.454 86.3603 124.519L86.2957 124.551L86.1987 124.616L86.0695 124.713C85.4232 125.296 85.0031 126.041 84.7769 126.785C84.5506 127.497 84.583 128.209 84.6799 128.695C84.7122 128.825 84.7445 128.954 84.7769 129.084C84.8092 129.148 84.8092 129.213 84.8415 129.278C84.8738 129.375 84.8738 129.407 84.8738 129.407C85.1 130.184 85.9079 130.637 86.6835 130.378C87.459 130.152 87.9115 129.343 87.6529 128.566C87.6853 128.371 87.6529 128.242 87.5883 128.145Z" fill="#E7F8FC"/>
</g>
<g opacity="0.6">
<path opacity="0.6" d="M106.558 106.682C106.558 106.682 106.752 106.65 107.107 106.585C107.301 106.552 107.527 106.52 107.786 106.455C107.915 106.423 108.077 106.423 108.206 106.391C108.368 106.358 108.497 106.358 108.658 106.326C108.982 106.293 109.337 106.229 109.757 106.164C110.177 106.132 110.597 106.067 111.082 106.034C111.535 106.002 112.052 105.97 112.569 105.937C113.086 105.937 113.635 105.905 114.217 105.905C115.38 105.905 116.608 106.002 117.933 106.164C119.258 106.326 120.647 106.585 122.069 106.941C123.491 107.297 124.945 107.718 126.432 108.203C127.175 108.462 127.918 108.689 128.662 108.98C129.017 109.11 129.405 109.239 129.76 109.401L130.859 109.854C132.313 110.469 133.735 111.117 135.092 111.861C135.448 112.023 135.771 112.218 136.127 112.412C136.45 112.606 136.805 112.8 137.128 112.994C137.775 113.383 138.421 113.771 139.035 114.192C140.295 115.002 141.426 115.876 142.525 116.685C143.042 117.106 143.559 117.527 144.044 117.947C144.529 118.368 145.013 118.757 145.433 119.178C146.306 119.987 147.081 120.764 147.76 121.476C148.083 121.832 148.406 122.156 148.697 122.479C148.988 122.803 149.214 123.095 149.441 123.354C149.893 123.871 150.248 124.325 150.475 124.616C150.701 124.907 150.83 125.069 150.83 125.069C150.83 125.069 150.701 124.907 150.507 124.616C150.281 124.325 149.99 123.871 149.537 123.321C149.311 123.03 149.085 122.738 148.827 122.415C148.568 122.091 148.277 121.735 147.954 121.379C147.308 120.634 146.597 119.825 145.757 118.951C145.336 118.498 144.884 118.077 144.432 117.624C143.979 117.17 143.462 116.717 142.945 116.264C141.911 115.358 140.78 114.419 139.552 113.545C138.938 113.092 138.324 112.671 137.678 112.218C137.355 111.991 137.031 111.797 136.676 111.57C136.353 111.343 135.997 111.149 135.674 110.955C134.317 110.113 132.895 109.369 131.409 108.657L130.31 108.171C129.922 107.977 129.567 107.847 129.211 107.685C128.468 107.362 127.725 107.07 127.014 106.747C125.527 106.164 124.073 105.614 122.586 105.16C121.132 104.707 119.678 104.351 118.288 104.092C116.899 103.833 115.574 103.671 114.314 103.574C113.7 103.509 113.086 103.509 112.536 103.477C111.987 103.477 111.438 103.477 110.921 103.477C110.403 103.509 109.951 103.509 109.499 103.542C109.046 103.574 108.658 103.607 108.303 103.639C108.109 103.639 107.948 103.671 107.786 103.671C107.624 103.704 107.495 103.704 107.334 103.704C107.075 103.736 106.849 103.768 106.655 103.768C106.267 103.801 106.073 103.833 106.073 103.833C105.265 103.93 104.716 104.642 104.781 105.452C104.878 106.261 105.588 106.811 106.396 106.747C106.493 106.682 106.526 106.682 106.558 106.682Z" fill="#E7F8FC"/>
</g>
</g>
<defs>
<linearGradient id="paint0_linear" x1="116.816" y1="208.267" x2="82.4122" y2="108.981" gradientUnits="userSpaceOnUse">
<stop stop-color="#27C3DA"/>
<stop offset="0.4533" stop-color="#85DBF0"/>
<stop offset="1" stop-color="#C4EEF8"/>
</linearGradient>
<linearGradient id="paint1_linear" x1="121.443" y1="93.9753" x2="107.358" y2="93.9753" gradientUnits="userSpaceOnUse">
<stop stop-color="#27C3DA"/>
<stop offset="0.4533" stop-color="#85DBF0"/>
<stop offset="1" stop-color="#C4EEF8"/>
</linearGradient>
<linearGradient id="paint2_linear" x1="166.705" y1="173.607" x2="154.871" y2="173.607" gradientUnits="userSpaceOnUse">
<stop stop-color="#27C3DA"/>
<stop offset="0.4533" stop-color="#85DBF0"/>
<stop offset="1" stop-color="#C4EEF8"/>
</linearGradient>
<linearGradient id="paint3_linear" x1="163.104" y1="120.487" x2="153.073" y2="120.487" gradientUnits="userSpaceOnUse">
<stop stop-color="#27C3DA"/>
<stop offset="0.4533" stop-color="#85DBF0"/>
<stop offset="1" stop-color="#C4EEF8"/>
</linearGradient>
<linearGradient id="paint4_linear" x1="121.029" y1="127.226" x2="84.147" y2="127.226" gradientUnits="userSpaceOnUse">
<stop stop-color="#27C3DA"/>
<stop offset="0.4533" stop-color="#85DBF0"/>
<stop offset="1" stop-color="#C4EEF8"/>
</linearGradient>
<linearGradient id="paint5_linear" x1="122.325" y1="136.157" x2="106.011" y2="136.157" gradientUnits="userSpaceOnUse">
<stop stop-color="#27C3DA"/>
<stop offset="0.4533" stop-color="#85DBF0"/>
<stop offset="1" stop-color="#C4EEF8"/>
</linearGradient>
<linearGradient id="paint6_linear" x1="165.99" y1="124.698" x2="160.759" y2="124.698" gradientUnits="userSpaceOnUse">
<stop stop-color="#27C3DA"/>
<stop offset="0.4533" stop-color="#85DBF0"/>
<stop offset="1" stop-color="#C4EEF8"/>
</linearGradient>
<linearGradient id="paint7_linear" x1="123.904" y1="96.0891" x2="119.648" y2="96.0891" gradientUnits="userSpaceOnUse">
<stop stop-color="#27C3DA"/>
<stop offset="0.4533" stop-color="#85DBF0"/>
<stop offset="1" stop-color="#C4EEF8"/>
</linearGradient>
<linearGradient id="paint8_linear" x1="88.4884" y1="191.954" x2="68.4811" y2="153.786" gradientUnits="userSpaceOnUse">
<stop stop-color="#27C3DA"/>
<stop offset="0.4533" stop-color="#85DBF0"/>
<stop offset="1" stop-color="#C4EEF8"/>
</linearGradient>
</defs>
</svg>
