<svg width="231" height="145" viewBox="0 0 231 145" fill="none" xmlns="http://www.w3.org/2000/svg">
<path d="M10.5823 144.76C-0.417744 138.34 -1.69774 132.26 1.58226 123.17C5.94226 110.91 23.0423 109.58 25.8323 109.42H26.0223C27.1119 109.368 28.1658 109.016 29.0678 108.402C29.9698 107.789 30.6847 106.938 31.1337 105.944C31.5827 104.95 31.7482 103.851 31.6121 102.768C31.476 101.686 31.0434 100.662 30.3622 99.8105L29.0923 98.2204C16.5823 82.5304 14.2123 78.3404 15.3423 74.3404C16.7623 69.3404 23.0622 67.0004 24.7522 66.3404C42.8922 59.7104 65.9122 79.4404 74.6922 86.9704C77.6922 89.5704 80.3722 92.1005 82.6922 94.4505C83.0182 94.7857 83.4374 95.015 83.8954 95.1088C84.3534 95.2025 84.8289 95.1564 85.2604 94.9762C85.6918 94.7961 86.059 94.4904 86.3144 94.0988C86.5697 93.7072 86.7014 93.2479 86.6922 92.7804C86.6773 91.1802 86.9135 89.5875 87.3923 88.0605C88.7723 83.6305 92.2022 79.6205 96.0723 78.2905C98.8522 77.2905 106.452 76.1705 124.302 94.9405C134.432 105.59 147.782 117.88 158.922 144.76C110.462 145.05 58.9523 144.52 10.5823 144.76Z" fill="#20B58D"/>
<path d="M51.9296 143.448C49.5259 140.655 46.8429 138.082 44.2397 135.469C42.0364 133.197 39.7054 131.052 37.258 129.045C34.874 127.072 32.2581 125.398 29.4684 124.058C26.8352 122.862 23.7034 121.715 20.7711 122.064C20.0629 122.143 19.7737 123.231 20.5915 123.41C22.0777 123.739 23.5837 123.909 25.0598 124.318C26.4498 124.699 27.8019 125.206 29.0993 125.834C30.3984 126.465 31.6545 127.182 32.8595 127.978C30.8048 127.779 28.7303 127.689 26.6657 127.579L22.347 127.34C21.0703 127.27 19.4545 126.911 18.2676 127.45C18.1853 127.504 18.1179 127.578 18.0712 127.665C18.0245 127.752 18 127.849 18 127.948C18 128.047 18.0245 128.144 18.0712 128.231C18.1179 128.318 18.1853 128.392 18.2676 128.447C19.3248 129.075 20.9706 128.896 22.1674 128.956L26.4862 129.175C29.3088 129.325 32.1414 129.534 34.964 129.424C35.5159 129.837 36.0578 130.262 36.5897 130.701C41.7363 134.9 46.045 139.967 51.0519 144.305C51.1727 144.367 51.3094 144.388 51.4432 144.368C51.5769 144.347 51.7009 144.285 51.7977 144.191C51.8944 144.096 51.9592 143.974 51.9828 143.84C52.0065 143.707 51.9879 143.57 51.9296 143.448Z" fill="#138175"/>
<path d="M92.6425 142.703C88.9725 139.303 87.1425 134.703 85.2325 130.233C81.3702 121.129 76.3269 112.572 70.2325 104.783C69.4137 101.925 68.3773 99.1331 67.1324 96.433C66.4658 94.9796 65.7292 93.5497 64.9225 92.143C64.2225 90.903 63.4525 89.143 62.2125 88.383C61.7325 88.083 61.2625 88.583 61.3425 89.053C61.5188 89.7704 61.8274 90.4487 62.2524 91.053C62.6424 91.723 63.0425 92.393 63.4225 93.053C64.1958 94.3863 64.9158 95.763 65.5825 97.183C66.2491 98.603 66.8758 100.016 67.4625 101.423C65.3158 98.803 63.0425 96.3096 60.6425 93.943C56.6781 90.0157 52.4153 86.4015 47.8925 83.133C47.1625 82.603 46.5024 83.793 47.1924 84.323C60.6585 94.5326 71.7331 107.559 79.6425 122.493C77.693 121.049 75.6024 119.806 73.4025 118.783C72.099 118.178 70.7637 117.644 69.4025 117.183C68.3225 116.823 66.4525 115.963 65.4025 116.563C65.3373 116.6 65.2802 116.65 65.2344 116.71C65.1886 116.769 65.1549 116.837 65.1354 116.909C65.1159 116.982 65.1109 117.057 65.1207 117.132C65.1305 117.206 65.1549 117.278 65.1924 117.343C65.9224 118.343 67.7125 118.443 68.8325 118.783C70.1939 119.197 71.5295 119.691 72.8325 120.263C75.4467 121.42 77.9306 122.851 80.2424 124.533C80.3317 124.591 80.436 124.622 80.5425 124.622C80.649 124.622 80.7532 124.591 80.8425 124.533C81.7825 126.406 82.6691 128.31 83.5024 130.243C85.5624 135.033 87.3924 140.443 91.6124 143.803C92.2924 144.493 93.4425 143.443 92.6425 142.703Z" fill="#138175"/>
<path d="M129.543 143.388C123.073 139.868 118.883 133.388 115.933 126.848C112.733 119.748 110.933 112.128 107.683 105.038C106.788 103.041 105.752 101.109 104.583 99.2584C103.487 97.3147 102.059 95.5784 100.363 94.1284C99.7626 93.6684 98.9626 94.5484 99.3626 95.1284C100.433 96.7884 101.803 98.2384 102.883 99.9084C103.952 101.584 104.911 103.328 105.753 105.128C106.123 105.908 106.473 106.698 106.803 107.488C104.943 106.496 102.982 105.708 100.953 105.138C99.8333 104.825 98.6941 104.588 97.5426 104.428C96.4407 104.172 95.2945 104.172 94.1926 104.428C93.7926 104.568 93.5726 105.248 94.0526 105.428C95.0018 105.731 95.9872 105.906 96.9826 105.948C98.119 106.089 99.2471 106.29 100.363 106.548C102.564 107.074 104.693 107.866 106.703 108.908C106.805 108.972 106.922 109.006 107.043 109.006C107.163 109.006 107.281 108.972 107.383 108.908C108.383 111.398 109.263 113.908 110.143 116.458C112.593 123.538 115.093 130.738 119.743 136.718C122.181 139.947 125.365 142.538 129.023 144.268C129.643 144.568 130.143 143.758 129.543 143.388Z" fill="#138175"/>
<path fill-rule="evenodd" clip-rule="evenodd" d="M162.067 81.3701C158.534 109.37 163.774 125.837 177.787 130.77L162.067 81.3701Z" fill="#60CA8E"/>
<path fill-rule="evenodd" clip-rule="evenodd" d="M176.397 144.59L214.217 34.7198C214.35 34.322 214.319 33.8878 214.132 33.5127C213.944 33.1376 213.615 32.8524 213.217 32.7198C212.82 32.5872 212.385 32.6181 212.01 32.8056C211.635 32.9932 211.35 33.322 211.217 33.7198L173.067 144.59H176.397Z" fill="#60CA8E"/>
<path fill-rule="evenodd" clip-rule="evenodd" d="M201.067 67.9998L202.537 63.7197C202.043 46.8597 202.043 30.8597 202.537 15.7197C191.923 42.2797 191.433 59.7064 201.067 67.9998Z" fill="#60CA8E"/>
<path fill-rule="evenodd" clip-rule="evenodd" d="M193.017 91.4998L194.017 88.5698C187.577 79.0898 183.66 64.9031 182.267 46.0098C176.134 74.8431 179.717 90.0064 193.017 91.4998Z" fill="#60CA8E"/>
<path fill-rule="evenodd" clip-rule="evenodd" d="M226.397 0C221.897 29.94 215.724 44.4767 207.877 43.61C206.617 27.87 212.79 13.3333 226.397 0Z" fill="#60CA8E"/>
<path fill-rule="evenodd" clip-rule="evenodd" d="M230.417 49.5098C220.897 78.9698 209.677 89.3398 196.757 80.6198C212.05 75.0131 223.27 64.6431 230.417 49.5098Z" fill="#60CA8E"/>
<path fill-rule="evenodd" clip-rule="evenodd" d="M215.537 95.3999C204.344 109.8 194.521 115.227 186.067 111.68L215.537 95.3999Z" fill="#60CA8E"/>
<path fill-rule="evenodd" clip-rule="evenodd" d="M153.047 136.127C151.681 133.51 150.169 130.973 148.517 128.527C148.398 128.501 148.28 128.464 148.167 128.417C147.167 128.017 146.167 126.577 145.407 125.497C145.167 125.157 144.957 124.857 144.807 124.667C144.217 123.937 143.487 123.057 142.737 122.147C135.267 113.147 125.877 101.797 131.947 87.9868C131.978 87.8754 132.035 87.7728 132.112 87.6869C132.189 87.601 132.286 87.5341 132.393 87.4915C132.501 87.4489 132.616 87.4318 132.732 87.4413C132.847 87.4509 132.958 87.487 133.057 87.5468C133.737 87.8468 134.687 89.6168 135.427 90.9868C135.717 91.5268 135.977 91.9867 136.137 92.2567C137.789 94.6668 139.632 96.9408 141.647 99.0567C144.847 102.597 148.037 106.137 149.647 110.827C150.317 113.743 150.652 116.725 150.647 119.717C150.737 122.927 150.587 126.037 150.067 127.327C149.972 127.575 149.841 127.807 149.677 128.017C151.289 130.421 152.767 132.911 154.107 135.477C154.737 136.687 155.297 137.877 155.777 139.017C155.904 137.65 156.107 136.227 156.387 134.747C156.886 132.192 157.554 129.673 158.387 127.207C159.667 119.877 159.897 113.497 158.947 107.947C158.781 106.96 158.574 106 158.327 105.067C157.272 100.903 155.282 97.0355 152.507 93.7567C152.415 93.6401 152.364 93.4956 152.364 93.3467C152.364 93.1979 152.415 93.0534 152.507 92.9367C150.267 90.2767 145.157 74.7167 147.927 62.0267C149.267 55.8767 151.477 50.2767 151.927 46.2167C156.357 47.4167 157.187 73.7267 157.027 78.9067C156.704 83.7163 155.486 88.4234 153.437 92.7867C153.486 92.8208 153.529 92.8612 153.567 92.9067C155.919 95.6765 157.734 98.861 158.917 102.297C159.407 100.207 159.997 98.0768 160.667 95.9868C161.104 90.7885 161.191 85.5667 160.927 80.3568C160.707 72.9167 160.487 65.6768 162.597 57.3568C161.767 56.5868 161.467 54.3567 161.247 52.7467C161.187 52.2867 161.127 51.8667 161.067 51.5567C160.817 50.2567 160.567 49.0667 160.317 47.8467C157.607 34.6067 154.197 17.9467 165.687 6.28674C165.755 6.19759 165.843 6.12535 165.944 6.07562C166.044 6.0259 166.155 6 166.267 6C166.38 6 166.49 6.0259 166.591 6.07562C166.691 6.12535 166.779 6.19759 166.847 6.28674C167.387 6.82674 167.467 9.28673 167.527 11.1467C167.527 11.8767 167.527 12.5167 167.607 12.8767C168.039 16.2726 168.707 19.6341 169.607 22.9367C170.907 28.2667 172.207 33.5967 171.607 39.3767C170.934 42.7768 169.93 46.1028 168.607 49.3067C167.277 52.7567 165.777 55.9767 164.747 57.0867C164.515 57.3584 164.225 57.5738 163.897 57.7167C161.827 65.8767 162.037 73.0268 162.257 80.3668C162.367 83.9368 162.477 87.5568 162.327 91.3668C163.207 89.0668 164.157 86.8967 165.137 84.9467C164.992 84.7151 164.884 84.462 164.817 84.1967C164.407 82.7467 164.547 79.0567 164.947 75.1967C165.244 71.5576 165.87 67.9528 166.817 64.4268C168.937 58.5768 172.527 53.8367 176.117 49.0967C178.426 46.1769 180.554 43.1178 182.487 39.9367C182.687 39.5967 182.997 38.9367 183.357 38.2667C184.287 36.4167 185.497 34.0067 186.227 33.7767C186.329 33.7303 186.44 33.7085 186.551 33.7131C186.663 33.7176 186.772 33.7484 186.869 33.803C186.967 33.8575 187.05 33.9343 187.112 34.027C187.174 34.1198 187.214 34.2259 187.227 34.3367C192.097 49.8667 181.447 64.9267 172.987 76.8867C172.247 77.8867 171.527 78.9467 170.627 80.2467C170.437 80.5167 170.197 80.9068 169.917 81.3568C168.917 82.9268 167.607 85.0768 166.477 85.3568H166.377C164.889 88.3493 163.606 91.4398 162.537 94.6068C161.38 97.9651 160.445 101.396 159.737 104.877C159.977 105.803 160.181 106.757 160.347 107.737C161.062 112.344 161.146 117.027 160.597 121.657C160.951 120.817 161.324 119.967 161.717 119.107C161.587 117.717 162.457 113.867 163.827 109.747C164.984 106.132 166.505 102.644 168.367 99.3367C169.847 96.9067 173.977 92.4367 178.257 88.1867C183.917 82.5667 189.997 77.3468 190.747 77.5468C190.848 77.5747 190.94 77.6261 191.017 77.6967C191.1 77.7731 191.162 77.8696 191.197 77.9767C191.787 79.4967 190.197 85.1667 187.747 91.2067C185.207 97.5167 181.817 104.357 179.237 107.207L178.867 107.597C177.777 108.687 172.257 113.597 167.947 116.837C165.847 118.427 163.947 119.627 162.837 119.837C161.685 122.357 160.66 124.933 159.767 127.557V127.617C158.937 130.033 158.269 132.502 157.767 135.007C157.172 137.93 156.937 140.916 157.067 143.897H155.747C155.747 143.443 155.747 142.98 155.747 142.507C155.051 140.299 154.147 138.163 153.047 136.127Z" fill="#2B5250"/>
</svg>
