<svg width="12" height="12" viewBox="0 0 12 12" fill="none" xmlns="http://www.w3.org/2000/svg">
<path d="M6 0C2.69166 0 0 2.69166 0 6C0 9.30834 2.69166 12 6 12C9.30834 12 12 9.30834 12 6C12 2.69166 9.30836 0 6 0ZM9.44559 6.576C8.99845 7.0226 8.21951 7.0226 7.77237 6.576L7.30437 6.108V9.13044C7.30437 9.84939 6.71949 10.4348 6.00002 10.4348C5.28056 10.4348 4.69566 9.84941 4.69566 9.13044V6.108L4.22817 6.57549C3.78103 7.02209 3.00209 7.02209 2.55495 6.57549C2.33113 6.35217 2.20852 6.05478 2.20852 5.73861C2.20852 5.42243 2.33113 5.12556 2.55495 4.90173L5.44696 2.00974C5.75167 1.70452 6.24887 1.70452 6.55357 2.00974L9.44559 4.90175C9.66941 5.12507 9.79201 5.42246 9.79201 5.73863C9.79201 6.05478 9.66887 6.35217 9.44559 6.576Z" fill="#6F6571"/>
</svg>
