<svg width="701" height="413" viewBox="0 0 701 413" fill="none" xmlns="http://www.w3.org/2000/svg">
<path d="M10 388H696" stroke="#EBEDF0"/>
<path d="M10 332H696" stroke="#EBEDF0"/>
<path d="M10 276H696" stroke="#EBEDF0"/>
<path d="M10 220H696" stroke="#EBEDF0"/>
<path d="M10 164H696" stroke="#EBEDF0"/>
<path d="M10 108H696" stroke="#EBEDF0"/>
<path d="M10 52H696" stroke="#EBEDF0"/>
<path d="M10 18H696" stroke="#EBEDF0"/>
<path d="M13.002 410.08C12.1886 410.08 11.5686 409.773 11.142 409.16C10.722 408.54 10.512 407.633 10.512 406.44C10.512 405.247 10.722 404.343 11.142 403.73C11.562 403.11 12.182 402.8 13.002 402.8C13.822 402.8 14.442 403.11 14.862 403.73C15.282 404.343 15.492 405.243 15.492 406.43C15.492 407.623 15.2786 408.53 14.852 409.15C14.432 409.77 13.8153 410.08 13.002 410.08ZM13.002 409.39C13.5686 409.39 13.9853 409.15 14.252 408.67C14.5253 408.19 14.662 407.443 14.662 406.43C14.662 405.417 14.5253 404.677 14.252 404.21C13.9853 403.737 13.5686 403.5 13.002 403.5C12.4353 403.5 12.0153 403.737 11.742 404.21C11.4753 404.683 11.342 405.423 11.342 406.43C11.342 407.443 11.4753 408.19 11.742 408.67C12.0153 409.15 12.4353 409.39 13.002 409.39Z" fill="#9FA2B4"/>
<path d="M71.612 410.07C71.1786 410.07 70.752 409.993 70.332 409.84C69.912 409.68 69.5586 409.463 69.272 409.19L69.582 408.56C69.9086 408.827 70.2386 409.03 70.572 409.17C70.912 409.31 71.2586 409.38 71.612 409.38C72.112 409.38 72.502 409.24 72.782 408.96C73.0686 408.673 73.212 408.287 73.212 407.8C73.212 407.487 73.1486 407.213 73.022 406.98C72.8953 406.74 72.7153 406.553 72.482 406.42C72.2553 406.287 71.9853 406.22 71.672 406.22C71.332 406.22 71.0253 406.29 70.752 406.43C70.4853 406.563 70.2486 406.77 70.042 407.05H69.472V402.88H73.742V403.56H70.292V406.44L70.032 406.41C70.2253 406.13 70.472 405.913 70.772 405.76C71.0786 405.607 71.422 405.53 71.802 405.53C72.2553 405.53 72.6486 405.627 72.982 405.82C73.3153 406.007 73.572 406.27 73.752 406.61C73.932 406.95 74.022 407.343 74.022 407.79C74.022 408.237 73.922 408.633 73.722 408.98C73.5286 409.32 73.252 409.587 72.892 409.78C72.532 409.973 72.1053 410.07 71.612 410.07Z" fill="#9FA2B4"/>
<path d="M130.304 409.63V403.36L130.774 403.6L128.844 404.83V404.04L130.664 402.88H131.134V409.63H130.304ZM128.734 410V409.31H132.704V410H128.734ZM136.55 410.08C135.737 410.08 135.117 409.773 134.69 409.16C134.27 408.54 134.06 407.633 134.06 406.44C134.06 405.247 134.27 404.343 134.69 403.73C135.11 403.11 135.73 402.8 136.55 402.8C137.37 402.8 137.99 403.11 138.41 403.73C138.83 404.343 139.04 405.243 139.04 406.43C139.04 407.623 138.827 408.53 138.4 409.15C137.98 409.77 137.363 410.08 136.55 410.08ZM136.55 409.39C137.117 409.39 137.533 409.15 137.8 408.67C138.073 408.19 138.21 407.443 138.21 406.43C138.21 405.417 138.073 404.677 137.8 404.21C137.533 403.737 137.117 403.5 136.55 403.5C135.983 403.5 135.563 403.737 135.29 404.21C135.023 404.683 134.89 405.423 134.89 406.43C134.89 407.443 135.023 408.19 135.29 408.67C135.563 409.15 135.983 409.39 136.55 409.39Z" fill="#9FA2B4"/>
<path d="M183.304 409.63V403.36L183.774 403.6L181.844 404.83V404.04L183.664 402.88H184.134V409.63H183.304ZM181.734 410V409.31H185.704V410H181.734ZM189.66 410.07C189.227 410.07 188.8 409.993 188.38 409.84C187.96 409.68 187.607 409.463 187.32 409.19L187.63 408.56C187.957 408.827 188.287 409.03 188.62 409.17C188.96 409.31 189.307 409.38 189.66 409.38C190.16 409.38 190.55 409.24 190.83 408.96C191.117 408.673 191.26 408.287 191.26 407.8C191.26 407.487 191.197 407.213 191.07 406.98C190.943 406.74 190.763 406.553 190.53 406.42C190.303 406.287 190.033 406.22 189.72 406.22C189.38 406.22 189.073 406.29 188.8 406.43C188.533 406.563 188.297 406.77 188.09 407.05H187.52V402.88H191.79V403.56H188.34V406.44L188.08 406.41C188.273 406.13 188.52 405.913 188.82 405.76C189.127 405.607 189.47 405.53 189.85 405.53C190.303 405.53 190.697 405.627 191.03 405.82C191.363 406.007 191.62 406.27 191.8 406.61C191.98 406.95 192.07 407.343 192.07 407.79C192.07 408.237 191.97 408.633 191.77 408.98C191.577 409.32 191.3 409.587 190.94 409.78C190.58 409.973 190.153 410.07 189.66 410.07Z" fill="#9FA2B4"/>
<path d="M234.784 410V409.38L237.274 406.62C237.607 406.247 237.851 405.91 238.004 405.61C238.157 405.31 238.234 405.01 238.234 404.71C238.234 404.317 238.121 404.017 237.894 403.81C237.667 403.597 237.344 403.49 236.924 403.49C236.577 403.49 236.237 403.56 235.904 403.7C235.571 403.833 235.237 404.037 234.904 404.31L234.594 403.68C234.874 403.413 235.227 403.2 235.654 403.04C236.081 402.88 236.511 402.8 236.944 402.8C237.377 402.8 237.751 402.877 238.064 403.03C238.384 403.177 238.631 403.39 238.804 403.67C238.977 403.95 239.064 404.283 239.064 404.67C239.064 405.077 238.971 405.47 238.784 405.85C238.604 406.223 238.301 406.643 237.874 407.11L235.474 409.71L235.414 409.31H239.364V410H234.784ZM243.05 410.08C242.237 410.08 241.617 409.773 241.19 409.16C240.77 408.54 240.56 407.633 240.56 406.44C240.56 405.247 240.77 404.343 241.19 403.73C241.61 403.11 242.23 402.8 243.05 402.8C243.87 402.8 244.49 403.11 244.91 403.73C245.33 404.343 245.54 405.243 245.54 406.43C245.54 407.623 245.327 408.53 244.9 409.15C244.48 409.77 243.863 410.08 243.05 410.08ZM243.05 409.39C243.617 409.39 244.033 409.15 244.3 408.67C244.573 408.19 244.71 407.443 244.71 406.43C244.71 405.417 244.573 404.677 244.3 404.21C244.033 403.737 243.617 403.5 243.05 403.5C242.483 403.5 242.063 403.737 241.79 404.21C241.523 404.683 241.39 405.423 241.39 406.43C241.39 407.443 241.523 408.19 241.79 408.67C242.063 409.15 242.483 409.39 243.05 409.39Z" fill="#9FA2B4"/>
<path d="M288.284 410V409.38L290.774 406.62C291.107 406.247 291.351 405.91 291.504 405.61C291.657 405.31 291.734 405.01 291.734 404.71C291.734 404.317 291.621 404.017 291.394 403.81C291.167 403.597 290.844 403.49 290.424 403.49C290.077 403.49 289.737 403.56 289.404 403.7C289.071 403.833 288.737 404.037 288.404 404.31L288.094 403.68C288.374 403.413 288.727 403.2 289.154 403.04C289.581 402.88 290.011 402.8 290.444 402.8C290.877 402.8 291.251 402.877 291.564 403.03C291.884 403.177 292.131 403.39 292.304 403.67C292.477 403.95 292.564 404.283 292.564 404.67C292.564 405.077 292.471 405.47 292.284 405.85C292.104 406.223 291.801 406.643 291.374 407.11L288.974 409.71L288.914 409.31H292.864V410H288.284ZM296.66 410.07C296.227 410.07 295.8 409.993 295.38 409.84C294.96 409.68 294.607 409.463 294.32 409.19L294.63 408.56C294.957 408.827 295.287 409.03 295.62 409.17C295.96 409.31 296.307 409.38 296.66 409.38C297.16 409.38 297.55 409.24 297.83 408.96C298.117 408.673 298.26 408.287 298.26 407.8C298.26 407.487 298.197 407.213 298.07 406.98C297.943 406.74 297.763 406.553 297.53 406.42C297.303 406.287 297.033 406.22 296.72 406.22C296.38 406.22 296.073 406.29 295.8 406.43C295.533 406.563 295.297 406.77 295.09 407.05H294.52V402.88H298.79V403.56H295.34V406.44L295.08 406.41C295.273 406.13 295.52 405.913 295.82 405.76C296.127 405.607 296.47 405.53 296.85 405.53C297.303 405.53 297.697 405.627 298.03 405.82C298.363 406.007 298.62 406.27 298.8 406.61C298.98 406.95 299.07 407.343 299.07 407.79C299.07 408.237 298.97 408.633 298.77 408.98C298.577 409.32 298.3 409.587 297.94 409.78C297.58 409.973 297.153 410.07 296.66 410.07Z" fill="#9FA2B4"/>
<path d="M343.384 410.07C342.924 410.07 342.481 409.993 342.054 409.84C341.634 409.687 341.277 409.47 340.984 409.19L341.304 408.56C341.624 408.833 341.954 409.04 342.294 409.18C342.634 409.313 342.991 409.38 343.364 409.38C343.871 409.38 344.254 409.267 344.514 409.04C344.781 408.813 344.914 408.48 344.914 408.04C344.914 407.6 344.777 407.273 344.504 407.06C344.231 406.84 343.821 406.73 343.274 406.73H342.454V406.04H343.114C343.641 406.04 344.044 405.923 344.324 405.69C344.604 405.457 344.744 405.123 344.744 404.69C344.744 404.303 344.627 404.007 344.394 403.8C344.167 403.593 343.844 403.49 343.424 403.49C343.071 403.49 342.727 403.56 342.394 403.7C342.061 403.833 341.731 404.037 341.404 404.31L341.094 403.68C341.381 403.407 341.734 403.193 342.154 403.04C342.574 402.88 343.007 402.8 343.454 402.8C343.881 402.8 344.254 402.877 344.574 403.03C344.894 403.177 345.137 403.387 345.304 403.66C345.477 403.933 345.564 404.257 345.564 404.63C345.564 405.07 345.447 405.447 345.214 405.76C344.987 406.067 344.674 406.277 344.274 406.39L344.244 406.29C344.724 406.39 345.091 406.593 345.344 406.9C345.597 407.207 345.724 407.597 345.724 408.07C345.724 408.69 345.514 409.18 345.094 409.54C344.674 409.893 344.104 410.07 343.384 410.07ZM349.55 410.08C348.737 410.08 348.117 409.773 347.69 409.16C347.27 408.54 347.06 407.633 347.06 406.44C347.06 405.247 347.27 404.343 347.69 403.73C348.11 403.11 348.73 402.8 349.55 402.8C350.37 402.8 350.99 403.11 351.41 403.73C351.83 404.343 352.04 405.243 352.04 406.43C352.04 407.623 351.827 408.53 351.4 409.15C350.98 409.77 350.363 410.08 349.55 410.08ZM349.55 409.39C350.117 409.39 350.533 409.15 350.8 408.67C351.073 408.19 351.21 407.443 351.21 406.43C351.21 405.417 351.073 404.677 350.8 404.21C350.533 403.737 350.117 403.5 349.55 403.5C348.983 403.5 348.563 403.737 348.29 404.21C348.023 404.683 347.89 405.423 347.89 406.43C347.89 407.443 348.023 408.19 348.29 408.67C348.563 409.15 348.983 409.39 349.55 409.39Z" fill="#9FA2B4"/>
<path d="M396.384 410.07C395.924 410.07 395.481 409.993 395.054 409.84C394.634 409.687 394.277 409.47 393.984 409.19L394.304 408.56C394.624 408.833 394.954 409.04 395.294 409.18C395.634 409.313 395.991 409.38 396.364 409.38C396.871 409.38 397.254 409.267 397.514 409.04C397.781 408.813 397.914 408.48 397.914 408.04C397.914 407.6 397.777 407.273 397.504 407.06C397.231 406.84 396.821 406.73 396.274 406.73H395.454V406.04H396.114C396.641 406.04 397.044 405.923 397.324 405.69C397.604 405.457 397.744 405.123 397.744 404.69C397.744 404.303 397.627 404.007 397.394 403.8C397.167 403.593 396.844 403.49 396.424 403.49C396.071 403.49 395.727 403.56 395.394 403.7C395.061 403.833 394.731 404.037 394.404 404.31L394.094 403.68C394.381 403.407 394.734 403.193 395.154 403.04C395.574 402.88 396.007 402.8 396.454 402.8C396.881 402.8 397.254 402.877 397.574 403.03C397.894 403.177 398.137 403.387 398.304 403.66C398.477 403.933 398.564 404.257 398.564 404.63C398.564 405.07 398.447 405.447 398.214 405.76C397.987 406.067 397.674 406.277 397.274 406.39L397.244 406.29C397.724 406.39 398.091 406.593 398.344 406.9C398.597 407.207 398.724 407.597 398.724 408.07C398.724 408.69 398.514 409.18 398.094 409.54C397.674 409.893 397.104 410.07 396.384 410.07ZM402.66 410.07C402.227 410.07 401.8 409.993 401.38 409.84C400.96 409.68 400.607 409.463 400.32 409.19L400.63 408.56C400.957 408.827 401.287 409.03 401.62 409.17C401.96 409.31 402.307 409.38 402.66 409.38C403.16 409.38 403.55 409.24 403.83 408.96C404.117 408.673 404.26 408.287 404.26 407.8C404.26 407.487 404.197 407.213 404.07 406.98C403.943 406.74 403.763 406.553 403.53 406.42C403.303 406.287 403.033 406.22 402.72 406.22C402.38 406.22 402.073 406.29 401.8 406.43C401.533 406.563 401.297 406.77 401.09 407.05H400.52V402.88H404.79V403.56H401.34V406.44L401.08 406.41C401.273 406.13 401.52 405.913 401.82 405.76C402.127 405.607 402.47 405.53 402.85 405.53C403.303 405.53 403.697 405.627 404.03 405.82C404.363 406.007 404.62 406.27 404.8 406.61C404.98 406.95 405.07 407.343 405.07 407.79C405.07 408.237 404.97 408.633 404.77 408.98C404.577 409.32 404.3 409.587 403.94 409.78C403.58 409.973 403.153 410.07 402.66 410.07Z" fill="#9FA2B4"/>
<path d="M450.224 410V403.91H450.474L447.514 408.18L447.524 407.77H452.124V408.45H446.944V407.83L450.374 402.88H451.044V410H450.224ZM455.55 410.08C454.737 410.08 454.117 409.773 453.69 409.16C453.27 408.54 453.06 407.633 453.06 406.44C453.06 405.247 453.27 404.343 453.69 403.73C454.11 403.11 454.73 402.8 455.55 402.8C456.37 402.8 456.99 403.11 457.41 403.73C457.83 404.343 458.04 405.243 458.04 406.43C458.04 407.623 457.827 408.53 457.4 409.15C456.98 409.77 456.363 410.08 455.55 410.08ZM455.55 409.39C456.117 409.39 456.533 409.15 456.8 408.67C457.073 408.19 457.21 407.443 457.21 406.43C457.21 405.417 457.073 404.677 456.8 404.21C456.533 403.737 456.117 403.5 455.55 403.5C454.983 403.5 454.563 403.737 454.29 404.21C454.023 404.683 453.89 405.423 453.89 406.43C453.89 407.443 454.023 408.19 454.29 408.67C454.563 409.15 454.983 409.39 455.55 409.39Z" fill="#9FA2B4"/>
<path d="M503.224 410V403.91H503.474L500.514 408.18L500.524 407.77H505.124V408.45H499.944V407.83L503.374 402.88H504.044V410H503.224ZM508.66 410.07C508.227 410.07 507.8 409.993 507.38 409.84C506.96 409.68 506.607 409.463 506.32 409.19L506.63 408.56C506.957 408.827 507.287 409.03 507.62 409.17C507.96 409.31 508.307 409.38 508.66 409.38C509.16 409.38 509.55 409.24 509.83 408.96C510.117 408.673 510.26 408.287 510.26 407.8C510.26 407.487 510.197 407.213 510.07 406.98C509.943 406.74 509.763 406.553 509.53 406.42C509.303 406.287 509.033 406.22 508.72 406.22C508.38 406.22 508.073 406.29 507.8 406.43C507.533 406.563 507.297 406.77 507.09 407.05H506.52V402.88H510.79V403.56H507.34V406.44L507.08 406.41C507.273 406.13 507.52 405.913 507.82 405.76C508.127 405.607 508.47 405.53 508.85 405.53C509.303 405.53 509.697 405.627 510.03 405.82C510.363 406.007 510.62 406.27 510.8 406.61C510.98 406.95 511.07 407.343 511.07 407.79C511.07 408.237 510.97 408.633 510.77 408.98C510.577 409.32 510.3 409.587 509.94 409.78C509.58 409.973 509.153 410.07 508.66 410.07Z" fill="#9FA2B4"/>
<path d="M564.564 410.07C564.131 410.07 563.704 409.993 563.284 409.84C562.864 409.68 562.511 409.463 562.224 409.19L562.534 408.56C562.861 408.827 563.191 409.03 563.524 409.17C563.864 409.31 564.211 409.38 564.564 409.38C565.064 409.38 565.454 409.24 565.734 408.96C566.021 408.673 566.164 408.287 566.164 407.8C566.164 407.487 566.101 407.213 565.974 406.98C565.847 406.74 565.667 406.553 565.434 406.42C565.207 406.287 564.937 406.22 564.624 406.22C564.284 406.22 563.977 406.29 563.704 406.43C563.437 406.563 563.201 406.77 562.994 407.05H562.424V402.88H566.694V403.56H563.244V406.44L562.984 406.41C563.177 406.13 563.424 405.913 563.724 405.76C564.031 405.607 564.374 405.53 564.754 405.53C565.207 405.53 565.601 405.627 565.934 405.82C566.267 406.007 566.524 406.27 566.704 406.61C566.884 406.95 566.974 407.343 566.974 407.79C566.974 408.237 566.874 408.633 566.674 408.98C566.481 409.32 566.204 409.587 565.844 409.78C565.484 409.973 565.057 410.07 564.564 410.07ZM570.55 410.08C569.737 410.08 569.117 409.773 568.69 409.16C568.27 408.54 568.06 407.633 568.06 406.44C568.06 405.247 568.27 404.343 568.69 403.73C569.11 403.11 569.73 402.8 570.55 402.8C571.37 402.8 571.99 403.11 572.41 403.73C572.83 404.343 573.04 405.243 573.04 406.43C573.04 407.623 572.827 408.53 572.4 409.15C571.98 409.77 571.363 410.08 570.55 410.08ZM570.55 409.39C571.117 409.39 571.533 409.15 571.8 408.67C572.073 408.19 572.21 407.443 572.21 406.43C572.21 405.417 572.073 404.677 571.8 404.21C571.533 403.737 571.117 403.5 570.55 403.5C569.983 403.5 569.563 403.737 569.29 404.21C569.023 404.683 568.89 405.423 568.89 406.43C568.89 407.443 569.023 408.19 569.29 408.67C569.563 409.15 569.983 409.39 570.55 409.39Z" fill="#9FA2B4"/>
<path d="M627.064 410.07C626.631 410.07 626.204 409.993 625.784 409.84C625.364 409.68 625.011 409.463 624.724 409.19L625.034 408.56C625.361 408.827 625.691 409.03 626.024 409.17C626.364 409.31 626.711 409.38 627.064 409.38C627.564 409.38 627.954 409.24 628.234 408.96C628.521 408.673 628.664 408.287 628.664 407.8C628.664 407.487 628.601 407.213 628.474 406.98C628.347 406.74 628.167 406.553 627.934 406.42C627.707 406.287 627.437 406.22 627.124 406.22C626.784 406.22 626.477 406.29 626.204 406.43C625.937 406.563 625.701 406.77 625.494 407.05H624.924V402.88H629.194V403.56H625.744V406.44L625.484 406.41C625.677 406.13 625.924 405.913 626.224 405.76C626.531 405.607 626.874 405.53 627.254 405.53C627.707 405.53 628.101 405.627 628.434 405.82C628.767 406.007 629.024 406.27 629.204 406.61C629.384 406.95 629.474 407.343 629.474 407.79C629.474 408.237 629.374 408.633 629.174 408.98C628.981 409.32 628.704 409.587 628.344 409.78C627.984 409.973 627.557 410.07 627.064 410.07ZM633.16 410.07C632.727 410.07 632.3 409.993 631.88 409.84C631.46 409.68 631.107 409.463 630.82 409.19L631.13 408.56C631.457 408.827 631.787 409.03 632.12 409.17C632.46 409.31 632.807 409.38 633.16 409.38C633.66 409.38 634.05 409.24 634.33 408.96C634.617 408.673 634.76 408.287 634.76 407.8C634.76 407.487 634.697 407.213 634.57 406.98C634.443 406.74 634.263 406.553 634.03 406.42C633.803 406.287 633.533 406.22 633.22 406.22C632.88 406.22 632.573 406.29 632.3 406.43C632.033 406.563 631.797 406.77 631.59 407.05H631.02V402.88H635.29V403.56H631.84V406.44L631.58 406.41C631.773 406.13 632.02 405.913 632.32 405.76C632.627 405.607 632.97 405.53 633.35 405.53C633.803 405.53 634.197 405.627 634.53 405.82C634.863 406.007 635.12 406.27 635.3 406.61C635.48 406.95 635.57 407.343 635.57 407.79C635.57 408.237 635.47 408.633 635.27 408.98C635.077 409.32 634.8 409.587 634.44 409.78C634.08 409.973 633.653 410.07 633.16 410.07Z" fill="#9FA2B4"/>
<path d="M681.184 410.08C680.324 410.08 679.661 409.783 679.194 409.19C678.727 408.59 678.494 407.733 678.494 406.62C678.494 405.813 678.601 405.127 678.814 404.56C679.034 403.987 679.347 403.55 679.754 403.25C680.167 402.95 680.661 402.8 681.234 402.8C681.647 402.8 682.047 402.877 682.434 403.03C682.821 403.177 683.164 403.393 683.464 403.68L683.154 404.31C682.821 404.023 682.497 403.817 682.184 403.69C681.877 403.557 681.567 403.49 681.254 403.49C680.641 403.49 680.164 403.763 679.824 404.31C679.484 404.85 679.314 405.617 679.314 406.61V407.47L679.194 407.2C679.247 406.86 679.371 406.567 679.564 406.32C679.757 406.067 679.997 405.873 680.284 405.74C680.577 405.6 680.901 405.53 681.254 405.53C681.694 405.53 682.081 405.627 682.414 405.82C682.747 406.007 683.007 406.27 683.194 406.61C683.381 406.95 683.474 407.343 683.474 407.79C683.474 408.23 683.374 408.623 683.174 408.97C682.981 409.317 682.711 409.59 682.364 409.79C682.024 409.983 681.631 410.08 681.184 410.08ZM681.144 409.39C681.597 409.39 681.964 409.247 682.244 408.96C682.524 408.667 682.664 408.28 682.664 407.8C682.664 407.327 682.524 406.947 682.244 406.66C681.964 406.367 681.594 406.22 681.134 406.22C680.827 406.22 680.554 406.29 680.314 406.43C680.074 406.563 679.887 406.75 679.754 406.99C679.621 407.223 679.554 407.493 679.554 407.8C679.554 408.12 679.621 408.4 679.754 408.64C679.887 408.873 680.074 409.057 680.314 409.19C680.554 409.323 680.831 409.39 681.144 409.39ZM687.05 410.08C686.237 410.08 685.617 409.773 685.19 409.16C684.77 408.54 684.56 407.633 684.56 406.44C684.56 405.247 684.77 404.343 685.19 403.73C685.61 403.11 686.23 402.8 687.05 402.8C687.87 402.8 688.49 403.11 688.91 403.73C689.33 404.343 689.54 405.243 689.54 406.43C689.54 407.623 689.327 408.53 688.9 409.15C688.48 409.77 687.863 410.08 687.05 410.08ZM687.05 409.39C687.617 409.39 688.033 409.15 688.3 408.67C688.573 408.19 688.71 407.443 688.71 406.43C688.71 405.417 688.573 404.677 688.3 404.21C688.033 403.737 687.617 403.5 687.05 403.5C686.483 403.5 686.063 403.737 685.79 404.21C685.523 404.683 685.39 405.423 685.39 406.43C685.39 407.443 685.523 408.19 685.79 408.67C686.063 409.15 686.483 409.39 687.05 409.39Z" fill="#9FA2B4"/>
<path d="M10.0221 346.07C9.58878 346.07 9.16211 345.993 8.74211 345.84C8.32211 345.68 7.96878 345.463 7.68211 345.19L7.99211 344.56C8.31878 344.827 8.64878 345.03 8.98211 345.17C9.32211 345.31 9.66878 345.38 10.0221 345.38C10.5221 345.38 10.9121 345.24 11.1921 344.96C11.4788 344.673 11.6221 344.287 11.6221 343.8C11.6221 343.487 11.5588 343.213 11.4321 342.98C11.3054 342.74 11.1254 342.553 10.8921 342.42C10.6654 342.287 10.3954 342.22 10.0821 342.22C9.74211 342.22 9.43544 342.29 9.16211 342.43C8.89544 342.563 8.65878 342.77 8.45211 343.05H7.88211V338.88H12.1521V339.56H8.70211V342.44L8.44211 342.41C8.63544 342.13 8.88211 341.913 9.18211 341.76C9.48878 341.607 9.83211 341.53 10.2121 341.53C10.6654 341.53 11.0588 341.627 11.3921 341.82C11.7254 342.007 11.9821 342.27 12.1621 342.61C12.3421 342.95 12.4321 343.343 12.4321 343.79C12.4321 344.237 12.3321 344.633 12.1321 344.98C11.9388 345.32 11.6621 345.587 11.3021 345.78C10.9421 345.973 10.5154 346.07 10.0221 346.07ZM16.0082 346.08C15.1949 346.08 14.5749 345.773 14.1482 345.16C13.7282 344.54 13.5182 343.633 13.5182 342.44C13.5182 341.247 13.7282 340.343 14.1482 339.73C14.5682 339.11 15.1882 338.8 16.0082 338.8C16.8282 338.8 17.4482 339.11 17.8682 339.73C18.2882 340.343 18.4982 341.243 18.4982 342.43C18.4982 343.623 18.2849 344.53 17.8582 345.15C17.4382 345.77 16.8215 346.08 16.0082 346.08ZM16.0082 345.39C16.5749 345.39 16.9915 345.15 17.2582 344.67C17.5315 344.19 17.6682 343.443 17.6682 342.43C17.6682 341.417 17.5315 340.677 17.2582 340.21C16.9915 339.737 16.5749 339.5 16.0082 339.5C15.4415 339.5 15.0215 339.737 14.7482 340.21C14.4815 340.683 14.3482 341.423 14.3482 342.43C14.3482 343.443 14.4815 344.19 14.7482 344.67C15.0215 345.15 15.4415 345.39 16.0082 345.39ZM24.8117 346.08C23.9984 346.08 23.3784 345.773 22.9517 345.16C22.5317 344.54 22.3217 343.633 22.3217 342.44C22.3217 341.247 22.5317 340.343 22.9517 339.73C23.3717 339.11 23.9917 338.8 24.8117 338.8C25.6317 338.8 26.2517 339.11 26.6717 339.73C27.0917 340.343 27.3017 341.243 27.3017 342.43C27.3017 343.623 27.0884 344.53 26.6617 345.15C26.2417 345.77 25.6251 346.08 24.8117 346.08ZM24.8117 345.39C25.3784 345.39 25.7951 345.15 26.0617 344.67C26.3351 344.19 26.4717 343.443 26.4717 342.43C26.4717 341.417 26.3351 340.677 26.0617 340.21C25.7951 339.737 25.3784 339.5 24.8117 339.5C24.2451 339.5 23.8251 339.737 23.5517 340.21C23.2851 340.683 23.1517 341.423 23.1517 342.43C23.1517 343.443 23.2851 344.19 23.5517 344.67C23.8251 345.15 24.2451 345.39 24.8117 345.39ZM30.9078 346.08C30.0945 346.08 29.4745 345.773 29.0478 345.16C28.6278 344.54 28.4178 343.633 28.4178 342.44C28.4178 341.247 28.6278 340.343 29.0478 339.73C29.4678 339.11 30.0878 338.8 30.9078 338.8C31.7278 338.8 32.3478 339.11 32.7678 339.73C33.1878 340.343 33.3978 341.243 33.3978 342.43C33.3978 343.623 33.1845 344.53 32.7578 345.15C32.3378 345.77 31.7211 346.08 30.9078 346.08ZM30.9078 345.39C31.4745 345.39 31.8911 345.15 32.1578 344.67C32.4311 344.19 32.5678 343.443 32.5678 342.43C32.5678 341.417 32.4311 340.677 32.1578 340.21C31.8911 339.737 31.4745 339.5 30.9078 339.5C30.3411 339.5 29.9211 339.737 29.6478 340.21C29.3811 340.683 29.2478 341.423 29.2478 342.43C29.2478 343.443 29.3811 344.19 29.6478 344.67C29.9211 345.15 30.3411 345.39 30.9078 345.39ZM37.0039 346.08C36.1906 346.08 35.5706 345.773 35.1439 345.16C34.7239 344.54 34.5139 343.633 34.5139 342.44C34.5139 341.247 34.7239 340.343 35.1439 339.73C35.5639 339.11 36.1839 338.8 37.0039 338.8C37.8239 338.8 38.4439 339.11 38.8639 339.73C39.2839 340.343 39.4939 341.243 39.4939 342.43C39.4939 343.623 39.2806 344.53 38.8539 345.15C38.4339 345.77 37.8172 346.08 37.0039 346.08ZM37.0039 345.39C37.5706 345.39 37.9872 345.15 38.2539 344.67C38.5272 344.19 38.6639 343.443 38.6639 342.43C38.6639 341.417 38.5272 340.677 38.2539 340.21C37.9872 339.737 37.5706 339.5 37.0039 339.5C36.4372 339.5 36.0172 339.737 35.7439 340.21C35.4772 340.683 35.3439 341.423 35.3439 342.43C35.3439 343.443 35.4772 344.19 35.7439 344.67C36.0172 345.15 36.4372 345.39 37.0039 345.39Z" fill="#9FA2B4"/>
<path d="M3.66602 289.63V283.36L4.13602 283.6L2.20602 284.83V284.04L4.02602 282.88H4.49602V289.63H3.66602ZM2.09602 290V289.31H6.06602V290H2.09602ZM9.91211 290.08C9.09878 290.08 8.47878 289.773 8.05211 289.16C7.63211 288.54 7.42211 287.633 7.42211 286.44C7.42211 285.247 7.63211 284.343 8.05211 283.73C8.47211 283.11 9.09211 282.8 9.91211 282.8C10.7321 282.8 11.3521 283.11 11.7721 283.73C12.1921 284.343 12.4021 285.243 12.4021 286.43C12.4021 287.623 12.1888 288.53 11.7621 289.15C11.3421 289.77 10.7254 290.08 9.91211 290.08ZM9.91211 289.39C10.4788 289.39 10.8954 289.15 11.1621 288.67C11.4354 288.19 11.5721 287.443 11.5721 286.43C11.5721 285.417 11.4354 284.677 11.1621 284.21C10.8954 283.737 10.4788 283.5 9.91211 283.5C9.34544 283.5 8.92544 283.737 8.65211 284.21C8.38544 284.683 8.25211 285.423 8.25211 286.43C8.25211 287.443 8.38544 288.19 8.65211 288.67C8.92544 289.15 9.34544 289.39 9.91211 289.39ZM16.0082 290.08C15.1949 290.08 14.5749 289.773 14.1482 289.16C13.7282 288.54 13.5182 287.633 13.5182 286.44C13.5182 285.247 13.7282 284.343 14.1482 283.73C14.5682 283.11 15.1882 282.8 16.0082 282.8C16.8282 282.8 17.4482 283.11 17.8682 283.73C18.2882 284.343 18.4982 285.243 18.4982 286.43C18.4982 287.623 18.2849 288.53 17.8582 289.15C17.4382 289.77 16.8215 290.08 16.0082 290.08ZM16.0082 289.39C16.5749 289.39 16.9915 289.15 17.2582 288.67C17.5315 288.19 17.6682 287.443 17.6682 286.43C17.6682 285.417 17.5315 284.677 17.2582 284.21C16.9915 283.737 16.5749 283.5 16.0082 283.5C15.4415 283.5 15.0215 283.737 14.7482 284.21C14.4815 284.683 14.3482 285.423 14.3482 286.43C14.3482 287.443 14.4815 288.19 14.7482 288.67C15.0215 289.15 15.4415 289.39 16.0082 289.39ZM24.8117 290.08C23.9984 290.08 23.3784 289.773 22.9517 289.16C22.5317 288.54 22.3217 287.633 22.3217 286.44C22.3217 285.247 22.5317 284.343 22.9517 283.73C23.3717 283.11 23.9917 282.8 24.8117 282.8C25.6317 282.8 26.2517 283.11 26.6717 283.73C27.0917 284.343 27.3017 285.243 27.3017 286.43C27.3017 287.623 27.0884 288.53 26.6617 289.15C26.2417 289.77 25.6251 290.08 24.8117 290.08ZM24.8117 289.39C25.3784 289.39 25.7951 289.15 26.0617 288.67C26.3351 288.19 26.4717 287.443 26.4717 286.43C26.4717 285.417 26.3351 284.677 26.0617 284.21C25.7951 283.737 25.3784 283.5 24.8117 283.5C24.2451 283.5 23.8251 283.737 23.5517 284.21C23.2851 284.683 23.1517 285.423 23.1517 286.43C23.1517 287.443 23.2851 288.19 23.5517 288.67C23.8251 289.15 24.2451 289.39 24.8117 289.39ZM30.9078 290.08C30.0945 290.08 29.4745 289.773 29.0478 289.16C28.6278 288.54 28.4178 287.633 28.4178 286.44C28.4178 285.247 28.6278 284.343 29.0478 283.73C29.4678 283.11 30.0878 282.8 30.9078 282.8C31.7278 282.8 32.3478 283.11 32.7678 283.73C33.1878 284.343 33.3978 285.243 33.3978 286.43C33.3978 287.623 33.1845 288.53 32.7578 289.15C32.3378 289.77 31.7211 290.08 30.9078 290.08ZM30.9078 289.39C31.4745 289.39 31.8911 289.15 32.1578 288.67C32.4311 288.19 32.5678 287.443 32.5678 286.43C32.5678 285.417 32.4311 284.677 32.1578 284.21C31.8911 283.737 31.4745 283.5 30.9078 283.5C30.3411 283.5 29.9211 283.737 29.6478 284.21C29.3811 284.683 29.2478 285.423 29.2478 286.43C29.2478 287.443 29.3811 288.19 29.6478 288.67C29.9211 289.15 30.3411 289.39 30.9078 289.39ZM37.0039 290.08C36.1906 290.08 35.5706 289.773 35.1439 289.16C34.7239 288.54 34.5139 287.633 34.5139 286.44C34.5139 285.247 34.7239 284.343 35.1439 283.73C35.5639 283.11 36.1839 282.8 37.0039 282.8C37.8239 282.8 38.4439 283.11 38.8639 283.73C39.2839 284.343 39.4939 285.243 39.4939 286.43C39.4939 287.623 39.2806 288.53 38.8539 289.15C38.4339 289.77 37.8172 290.08 37.0039 290.08ZM37.0039 289.39C37.5706 289.39 37.9872 289.15 38.2539 288.67C38.5272 288.19 38.6639 287.443 38.6639 286.43C38.6639 285.417 38.5272 284.677 38.2539 284.21C37.9872 283.737 37.5706 283.5 37.0039 283.5C36.4372 283.5 36.0172 283.737 35.7439 284.21C35.4772 284.683 35.3439 285.423 35.3439 286.43C35.3439 287.443 35.4772 288.19 35.7439 288.67C36.0172 289.15 36.4372 289.39 37.0039 289.39Z" fill="#9FA2B4"/>
<path d="M1.64602 234V233.38L4.13602 230.62C4.46935 230.247 4.71268 229.91 4.86602 229.61C5.01935 229.31 5.09602 229.01 5.09602 228.71C5.09602 228.317 4.98268 228.017 4.75602 227.81C4.52935 227.597 4.20602 227.49 3.78602 227.49C3.43935 227.49 3.09935 227.56 2.76602 227.7C2.43268 227.833 2.09935 228.037 1.76602 228.31L1.45602 227.68C1.73602 227.413 2.08935 227.2 2.51602 227.04C2.94268 226.88 3.37268 226.8 3.80602 226.8C4.23935 226.8 4.61268 226.877 4.92602 227.03C5.24602 227.177 5.49268 227.39 5.66602 227.67C5.83935 227.95 5.92602 228.283 5.92602 228.67C5.92602 229.077 5.83268 229.47 5.64602 229.85C5.46602 230.223 5.16268 230.643 4.73602 231.11L2.33602 233.71L2.27602 233.31H6.22602V234H1.64602ZM9.91211 234.08C9.09878 234.08 8.47878 233.773 8.05211 233.16C7.63211 232.54 7.42211 231.633 7.42211 230.44C7.42211 229.247 7.63211 228.343 8.05211 227.73C8.47211 227.11 9.09211 226.8 9.91211 226.8C10.7321 226.8 11.3521 227.11 11.7721 227.73C12.1921 228.343 12.4021 229.243 12.4021 230.43C12.4021 231.623 12.1888 232.53 11.7621 233.15C11.3421 233.77 10.7254 234.08 9.91211 234.08ZM9.91211 233.39C10.4788 233.39 10.8954 233.15 11.1621 232.67C11.4354 232.19 11.5721 231.443 11.5721 230.43C11.5721 229.417 11.4354 228.677 11.1621 228.21C10.8954 227.737 10.4788 227.5 9.91211 227.5C9.34544 227.5 8.92544 227.737 8.65211 228.21C8.38544 228.683 8.25211 229.423 8.25211 230.43C8.25211 231.443 8.38544 232.19 8.65211 232.67C8.92544 233.15 9.34544 233.39 9.91211 233.39ZM16.0082 234.08C15.1949 234.08 14.5749 233.773 14.1482 233.16C13.7282 232.54 13.5182 231.633 13.5182 230.44C13.5182 229.247 13.7282 228.343 14.1482 227.73C14.5682 227.11 15.1882 226.8 16.0082 226.8C16.8282 226.8 17.4482 227.11 17.8682 227.73C18.2882 228.343 18.4982 229.243 18.4982 230.43C18.4982 231.623 18.2849 232.53 17.8582 233.15C17.4382 233.77 16.8215 234.08 16.0082 234.08ZM16.0082 233.39C16.5749 233.39 16.9915 233.15 17.2582 232.67C17.5315 232.19 17.6682 231.443 17.6682 230.43C17.6682 229.417 17.5315 228.677 17.2582 228.21C16.9915 227.737 16.5749 227.5 16.0082 227.5C15.4415 227.5 15.0215 227.737 14.7482 228.21C14.4815 228.683 14.3482 229.423 14.3482 230.43C14.3482 231.443 14.4815 232.19 14.7482 232.67C15.0215 233.15 15.4415 233.39 16.0082 233.39ZM24.8117 234.08C23.9984 234.08 23.3784 233.773 22.9517 233.16C22.5317 232.54 22.3217 231.633 22.3217 230.44C22.3217 229.247 22.5317 228.343 22.9517 227.73C23.3717 227.11 23.9917 226.8 24.8117 226.8C25.6317 226.8 26.2517 227.11 26.6717 227.73C27.0917 228.343 27.3017 229.243 27.3017 230.43C27.3017 231.623 27.0884 232.53 26.6617 233.15C26.2417 233.77 25.6251 234.08 24.8117 234.08ZM24.8117 233.39C25.3784 233.39 25.7951 233.15 26.0617 232.67C26.3351 232.19 26.4717 231.443 26.4717 230.43C26.4717 229.417 26.3351 228.677 26.0617 228.21C25.7951 227.737 25.3784 227.5 24.8117 227.5C24.2451 227.5 23.8251 227.737 23.5517 228.21C23.2851 228.683 23.1517 229.423 23.1517 230.43C23.1517 231.443 23.2851 232.19 23.5517 232.67C23.8251 233.15 24.2451 233.39 24.8117 233.39ZM30.9078 234.08C30.0945 234.08 29.4745 233.773 29.0478 233.16C28.6278 232.54 28.4178 231.633 28.4178 230.44C28.4178 229.247 28.6278 228.343 29.0478 227.73C29.4678 227.11 30.0878 226.8 30.9078 226.8C31.7278 226.8 32.3478 227.11 32.7678 227.73C33.1878 228.343 33.3978 229.243 33.3978 230.43C33.3978 231.623 33.1845 232.53 32.7578 233.15C32.3378 233.77 31.7211 234.08 30.9078 234.08ZM30.9078 233.39C31.4745 233.39 31.8911 233.15 32.1578 232.67C32.4311 232.19 32.5678 231.443 32.5678 230.43C32.5678 229.417 32.4311 228.677 32.1578 228.21C31.8911 227.737 31.4745 227.5 30.9078 227.5C30.3411 227.5 29.9211 227.737 29.6478 228.21C29.3811 228.683 29.2478 229.423 29.2478 230.43C29.2478 231.443 29.3811 232.19 29.6478 232.67C29.9211 233.15 30.3411 233.39 30.9078 233.39ZM37.0039 234.08C36.1906 234.08 35.5706 233.773 35.1439 233.16C34.7239 232.54 34.5139 231.633 34.5139 230.44C34.5139 229.247 34.7239 228.343 35.1439 227.73C35.5639 227.11 36.1839 226.8 37.0039 226.8C37.8239 226.8 38.4439 227.11 38.8639 227.73C39.2839 228.343 39.4939 229.243 39.4939 230.43C39.4939 231.623 39.2806 232.53 38.8539 233.15C38.4339 233.77 37.8172 234.08 37.0039 234.08ZM37.0039 233.39C37.5706 233.39 37.9872 233.15 38.2539 232.67C38.5272 232.19 38.6639 231.443 38.6639 230.43C38.6639 229.417 38.5272 228.677 38.2539 228.21C37.9872 227.737 37.5706 227.5 37.0039 227.5C36.4372 227.5 36.0172 227.737 35.7439 228.21C35.4772 228.683 35.3439 229.423 35.3439 230.43C35.3439 231.443 35.4772 232.19 35.7439 232.67C36.0172 233.15 36.4372 233.39 37.0039 233.39Z" fill="#9FA2B4"/>
<path d="M3.74602 178.07C3.28602 178.07 2.84268 177.993 2.41602 177.84C1.99602 177.687 1.63935 177.47 1.34602 177.19L1.66602 176.56C1.98602 176.833 2.31602 177.04 2.65602 177.18C2.99602 177.313 3.35268 177.38 3.72602 177.38C4.23268 177.38 4.61602 177.267 4.87602 177.04C5.14268 176.813 5.27602 176.48 5.27602 176.04C5.27602 175.6 5.13935 175.273 4.86602 175.06C4.59268 174.84 4.18268 174.73 3.63602 174.73H2.81602V174.04H3.47602C4.00268 174.04 4.40602 173.923 4.68602 173.69C4.96602 173.457 5.10602 173.123 5.10602 172.69C5.10602 172.303 4.98935 172.007 4.75602 171.8C4.52935 171.593 4.20602 171.49 3.78602 171.49C3.43268 171.49 3.08935 171.56 2.75602 171.7C2.42268 171.833 2.09268 172.037 1.76602 172.31L1.45602 171.68C1.74268 171.407 2.09602 171.193 2.51602 171.04C2.93602 170.88 3.36935 170.8 3.81602 170.8C4.24268 170.8 4.61602 170.877 4.93602 171.03C5.25602 171.177 5.49935 171.387 5.66602 171.66C5.83935 171.933 5.92602 172.257 5.92602 172.63C5.92602 173.07 5.80935 173.447 5.57602 173.76C5.34935 174.067 5.03602 174.277 4.63602 174.39L4.60602 174.29C5.08602 174.39 5.45268 174.593 5.70602 174.9C5.95935 175.207 6.08602 175.597 6.08602 176.07C6.08602 176.69 5.87602 177.18 5.45602 177.54C5.03602 177.893 4.46602 178.07 3.74602 178.07ZM9.91211 178.08C9.09878 178.08 8.47878 177.773 8.05211 177.16C7.63211 176.54 7.42211 175.633 7.42211 174.44C7.42211 173.247 7.63211 172.343 8.05211 171.73C8.47211 171.11 9.09211 170.8 9.91211 170.8C10.7321 170.8 11.3521 171.11 11.7721 171.73C12.1921 172.343 12.4021 173.243 12.4021 174.43C12.4021 175.623 12.1888 176.53 11.7621 177.15C11.3421 177.77 10.7254 178.08 9.91211 178.08ZM9.91211 177.39C10.4788 177.39 10.8954 177.15 11.1621 176.67C11.4354 176.19 11.5721 175.443 11.5721 174.43C11.5721 173.417 11.4354 172.677 11.1621 172.21C10.8954 171.737 10.4788 171.5 9.91211 171.5C9.34544 171.5 8.92544 171.737 8.65211 172.21C8.38544 172.683 8.25211 173.423 8.25211 174.43C8.25211 175.443 8.38544 176.19 8.65211 176.67C8.92544 177.15 9.34544 177.39 9.91211 177.39ZM16.0082 178.08C15.1949 178.08 14.5749 177.773 14.1482 177.16C13.7282 176.54 13.5182 175.633 13.5182 174.44C13.5182 173.247 13.7282 172.343 14.1482 171.73C14.5682 171.11 15.1882 170.8 16.0082 170.8C16.8282 170.8 17.4482 171.11 17.8682 171.73C18.2882 172.343 18.4982 173.243 18.4982 174.43C18.4982 175.623 18.2849 176.53 17.8582 177.15C17.4382 177.77 16.8215 178.08 16.0082 178.08ZM16.0082 177.39C16.5749 177.39 16.9915 177.15 17.2582 176.67C17.5315 176.19 17.6682 175.443 17.6682 174.43C17.6682 173.417 17.5315 172.677 17.2582 172.21C16.9915 171.737 16.5749 171.5 16.0082 171.5C15.4415 171.5 15.0215 171.737 14.7482 172.21C14.4815 172.683 14.3482 173.423 14.3482 174.43C14.3482 175.443 14.4815 176.19 14.7482 176.67C15.0215 177.15 15.4415 177.39 16.0082 177.39ZM24.8117 178.08C23.9984 178.08 23.3784 177.773 22.9517 177.16C22.5317 176.54 22.3217 175.633 22.3217 174.44C22.3217 173.247 22.5317 172.343 22.9517 171.73C23.3717 171.11 23.9917 170.8 24.8117 170.8C25.6317 170.8 26.2517 171.11 26.6717 171.73C27.0917 172.343 27.3017 173.243 27.3017 174.43C27.3017 175.623 27.0884 176.53 26.6617 177.15C26.2417 177.77 25.6251 178.08 24.8117 178.08ZM24.8117 177.39C25.3784 177.39 25.7951 177.15 26.0617 176.67C26.3351 176.19 26.4717 175.443 26.4717 174.43C26.4717 173.417 26.3351 172.677 26.0617 172.21C25.7951 171.737 25.3784 171.5 24.8117 171.5C24.2451 171.5 23.8251 171.737 23.5517 172.21C23.2851 172.683 23.1517 173.423 23.1517 174.43C23.1517 175.443 23.2851 176.19 23.5517 176.67C23.8251 177.15 24.2451 177.39 24.8117 177.39ZM30.9078 178.08C30.0945 178.08 29.4745 177.773 29.0478 177.16C28.6278 176.54 28.4178 175.633 28.4178 174.44C28.4178 173.247 28.6278 172.343 29.0478 171.73C29.4678 171.11 30.0878 170.8 30.9078 170.8C31.7278 170.8 32.3478 171.11 32.7678 171.73C33.1878 172.343 33.3978 173.243 33.3978 174.43C33.3978 175.623 33.1845 176.53 32.7578 177.15C32.3378 177.77 31.7211 178.08 30.9078 178.08ZM30.9078 177.39C31.4745 177.39 31.8911 177.15 32.1578 176.67C32.4311 176.19 32.5678 175.443 32.5678 174.43C32.5678 173.417 32.4311 172.677 32.1578 172.21C31.8911 171.737 31.4745 171.5 30.9078 171.5C30.3411 171.5 29.9211 171.737 29.6478 172.21C29.3811 172.683 29.2478 173.423 29.2478 174.43C29.2478 175.443 29.3811 176.19 29.6478 176.67C29.9211 177.15 30.3411 177.39 30.9078 177.39ZM37.0039 178.08C36.1906 178.08 35.5706 177.773 35.1439 177.16C34.7239 176.54 34.5139 175.633 34.5139 174.44C34.5139 173.247 34.7239 172.343 35.1439 171.73C35.5639 171.11 36.1839 170.8 37.0039 170.8C37.8239 170.8 38.4439 171.11 38.8639 171.73C39.2839 172.343 39.4939 173.243 39.4939 174.43C39.4939 175.623 39.2806 176.53 38.8539 177.15C38.4339 177.77 37.8172 178.08 37.0039 178.08ZM37.0039 177.39C37.5706 177.39 37.9872 177.15 38.2539 176.67C38.5272 176.19 38.6639 175.443 38.6639 174.43C38.6639 173.417 38.5272 172.677 38.2539 172.21C37.9872 171.737 37.5706 171.5 37.0039 171.5C36.4372 171.5 36.0172 171.737 35.7439 172.21C35.4772 172.683 35.3439 173.423 35.3439 174.43C35.3439 175.443 35.4772 176.19 35.7439 176.67C36.0172 177.15 36.4372 177.39 37.0039 177.39Z" fill="#9FA2B4"/>
<path d="M4.58602 122V115.91H4.83602L1.87602 120.18L1.88602 119.77H6.48602V120.45H1.30602V119.83L4.73602 114.88H5.40602V122H4.58602ZM9.91211 122.08C9.09878 122.08 8.47878 121.773 8.05211 121.16C7.63211 120.54 7.42211 119.633 7.42211 118.44C7.42211 117.247 7.63211 116.343 8.05211 115.73C8.47211 115.11 9.09211 114.8 9.91211 114.8C10.7321 114.8 11.3521 115.11 11.7721 115.73C12.1921 116.343 12.4021 117.243 12.4021 118.43C12.4021 119.623 12.1888 120.53 11.7621 121.15C11.3421 121.77 10.7254 122.08 9.91211 122.08ZM9.91211 121.39C10.4788 121.39 10.8954 121.15 11.1621 120.67C11.4354 120.19 11.5721 119.443 11.5721 118.43C11.5721 117.417 11.4354 116.677 11.1621 116.21C10.8954 115.737 10.4788 115.5 9.91211 115.5C9.34544 115.5 8.92544 115.737 8.65211 116.21C8.38544 116.683 8.25211 117.423 8.25211 118.43C8.25211 119.443 8.38544 120.19 8.65211 120.67C8.92544 121.15 9.34544 121.39 9.91211 121.39ZM16.0082 122.08C15.1949 122.08 14.5749 121.773 14.1482 121.16C13.7282 120.54 13.5182 119.633 13.5182 118.44C13.5182 117.247 13.7282 116.343 14.1482 115.73C14.5682 115.11 15.1882 114.8 16.0082 114.8C16.8282 114.8 17.4482 115.11 17.8682 115.73C18.2882 116.343 18.4982 117.243 18.4982 118.43C18.4982 119.623 18.2849 120.53 17.8582 121.15C17.4382 121.77 16.8215 122.08 16.0082 122.08ZM16.0082 121.39C16.5749 121.39 16.9915 121.15 17.2582 120.67C17.5315 120.19 17.6682 119.443 17.6682 118.43C17.6682 117.417 17.5315 116.677 17.2582 116.21C16.9915 115.737 16.5749 115.5 16.0082 115.5C15.4415 115.5 15.0215 115.737 14.7482 116.21C14.4815 116.683 14.3482 117.423 14.3482 118.43C14.3482 119.443 14.4815 120.19 14.7482 120.67C15.0215 121.15 15.4415 121.39 16.0082 121.39ZM24.8117 122.08C23.9984 122.08 23.3784 121.773 22.9517 121.16C22.5317 120.54 22.3217 119.633 22.3217 118.44C22.3217 117.247 22.5317 116.343 22.9517 115.73C23.3717 115.11 23.9917 114.8 24.8117 114.8C25.6317 114.8 26.2517 115.11 26.6717 115.73C27.0917 116.343 27.3017 117.243 27.3017 118.43C27.3017 119.623 27.0884 120.53 26.6617 121.15C26.2417 121.77 25.6251 122.08 24.8117 122.08ZM24.8117 121.39C25.3784 121.39 25.7951 121.15 26.0617 120.67C26.3351 120.19 26.4717 119.443 26.4717 118.43C26.4717 117.417 26.3351 116.677 26.0617 116.21C25.7951 115.737 25.3784 115.5 24.8117 115.5C24.2451 115.5 23.8251 115.737 23.5517 116.21C23.2851 116.683 23.1517 117.423 23.1517 118.43C23.1517 119.443 23.2851 120.19 23.5517 120.67C23.8251 121.15 24.2451 121.39 24.8117 121.39ZM30.9078 122.08C30.0945 122.08 29.4745 121.773 29.0478 121.16C28.6278 120.54 28.4178 119.633 28.4178 118.44C28.4178 117.247 28.6278 116.343 29.0478 115.73C29.4678 115.11 30.0878 114.8 30.9078 114.8C31.7278 114.8 32.3478 115.11 32.7678 115.73C33.1878 116.343 33.3978 117.243 33.3978 118.43C33.3978 119.623 33.1845 120.53 32.7578 121.15C32.3378 121.77 31.7211 122.08 30.9078 122.08ZM30.9078 121.39C31.4745 121.39 31.8911 121.15 32.1578 120.67C32.4311 120.19 32.5678 119.443 32.5678 118.43C32.5678 117.417 32.4311 116.677 32.1578 116.21C31.8911 115.737 31.4745 115.5 30.9078 115.5C30.3411 115.5 29.9211 115.737 29.6478 116.21C29.3811 116.683 29.2478 117.423 29.2478 118.43C29.2478 119.443 29.3811 120.19 29.6478 120.67C29.9211 121.15 30.3411 121.39 30.9078 121.39ZM37.0039 122.08C36.1906 122.08 35.5706 121.773 35.1439 121.16C34.7239 120.54 34.5139 119.633 34.5139 118.44C34.5139 117.247 34.7239 116.343 35.1439 115.73C35.5639 115.11 36.1839 114.8 37.0039 114.8C37.8239 114.8 38.4439 115.11 38.8639 115.73C39.2839 116.343 39.4939 117.243 39.4939 118.43C39.4939 119.623 39.2806 120.53 38.8539 121.15C38.4339 121.77 37.8172 122.08 37.0039 122.08ZM37.0039 121.39C37.5706 121.39 37.9872 121.15 38.2539 120.67C38.5272 120.19 38.6639 119.443 38.6639 118.43C38.6639 117.417 38.5272 116.677 38.2539 116.21C37.9872 115.737 37.5706 115.5 37.0039 115.5C36.4372 115.5 36.0172 115.737 35.7439 116.21C35.4772 116.683 35.3439 117.423 35.3439 118.43C35.3439 119.443 35.4772 120.19 35.7439 120.67C36.0172 121.15 36.4372 121.39 37.0039 121.39Z" fill="#9FA2B4"/>
<path d="M3.92602 66.07C3.49268 66.07 3.06602 65.9933 2.64602 65.84C2.22602 65.68 1.87268 65.4633 1.58602 65.19L1.89602 64.56C2.22268 64.8267 2.55268 65.03 2.88602 65.17C3.22602 65.31 3.57268 65.38 3.92602 65.38C4.42602 65.38 4.81602 65.24 5.09602 64.96C5.38268 64.6733 5.52602 64.2867 5.52602 63.8C5.52602 63.4867 5.46268 63.2133 5.33602 62.98C5.20935 62.74 5.02935 62.5533 4.79602 62.42C4.56935 62.2867 4.29935 62.22 3.98602 62.22C3.64602 62.22 3.33935 62.29 3.06602 62.43C2.79935 62.5633 2.56268 62.77 2.35602 63.05H1.78602V58.88H6.05602V59.56H2.60602V62.44L2.34602 62.41C2.53935 62.13 2.78602 61.9133 3.08602 61.76C3.39268 61.6067 3.73602 61.53 4.11602 61.53C4.56935 61.53 4.96268 61.6267 5.29602 61.82C5.62935 62.0067 5.88602 62.27 6.06602 62.61C6.24602 62.95 6.33602 63.3433 6.33602 63.79C6.33602 64.2367 6.23602 64.6333 6.03602 64.98C5.84268 65.32 5.56602 65.5867 5.20602 65.78C4.84602 65.9733 4.41935 66.07 3.92602 66.07ZM9.91211 66.08C9.09878 66.08 8.47878 65.7733 8.05211 65.16C7.63211 64.54 7.42211 63.6333 7.42211 62.44C7.42211 61.2467 7.63211 60.3433 8.05211 59.73C8.47211 59.11 9.09211 58.8 9.91211 58.8C10.7321 58.8 11.3521 59.11 11.7721 59.73C12.1921 60.3433 12.4021 61.2433 12.4021 62.43C12.4021 63.6233 12.1888 64.53 11.7621 65.15C11.3421 65.77 10.7254 66.08 9.91211 66.08ZM9.91211 65.39C10.4788 65.39 10.8954 65.15 11.1621 64.67C11.4354 64.19 11.5721 63.4433 11.5721 62.43C11.5721 61.4167 11.4354 60.6767 11.1621 60.21C10.8954 59.7367 10.4788 59.5 9.91211 59.5C9.34544 59.5 8.92544 59.7367 8.65211 60.21C8.38544 60.6833 8.25211 61.4233 8.25211 62.43C8.25211 63.4433 8.38544 64.19 8.65211 64.67C8.92544 65.15 9.34544 65.39 9.91211 65.39ZM16.0082 66.08C15.1949 66.08 14.5749 65.7733 14.1482 65.16C13.7282 64.54 13.5182 63.6333 13.5182 62.44C13.5182 61.2467 13.7282 60.3433 14.1482 59.73C14.5682 59.11 15.1882 58.8 16.0082 58.8C16.8282 58.8 17.4482 59.11 17.8682 59.73C18.2882 60.3433 18.4982 61.2433 18.4982 62.43C18.4982 63.6233 18.2849 64.53 17.8582 65.15C17.4382 65.77 16.8215 66.08 16.0082 66.08ZM16.0082 65.39C16.5749 65.39 16.9915 65.15 17.2582 64.67C17.5315 64.19 17.6682 63.4433 17.6682 62.43C17.6682 61.4167 17.5315 60.6767 17.2582 60.21C16.9915 59.7367 16.5749 59.5 16.0082 59.5C15.4415 59.5 15.0215 59.7367 14.7482 60.21C14.4815 60.6833 14.3482 61.4233 14.3482 62.43C14.3482 63.4433 14.4815 64.19 14.7482 64.67C15.0215 65.15 15.4415 65.39 16.0082 65.39ZM24.8117 66.08C23.9984 66.08 23.3784 65.7733 22.9517 65.16C22.5317 64.54 22.3217 63.6333 22.3217 62.44C22.3217 61.2467 22.5317 60.3433 22.9517 59.73C23.3717 59.11 23.9917 58.8 24.8117 58.8C25.6317 58.8 26.2517 59.11 26.6717 59.73C27.0917 60.3433 27.3017 61.2433 27.3017 62.43C27.3017 63.6233 27.0884 64.53 26.6617 65.15C26.2417 65.77 25.6251 66.08 24.8117 66.08ZM24.8117 65.39C25.3784 65.39 25.7951 65.15 26.0617 64.67C26.3351 64.19 26.4717 63.4433 26.4717 62.43C26.4717 61.4167 26.3351 60.6767 26.0617 60.21C25.7951 59.7367 25.3784 59.5 24.8117 59.5C24.2451 59.5 23.8251 59.7367 23.5517 60.21C23.2851 60.6833 23.1517 61.4233 23.1517 62.43C23.1517 63.4433 23.2851 64.19 23.5517 64.67C23.8251 65.15 24.2451 65.39 24.8117 65.39ZM30.9078 66.08C30.0945 66.08 29.4745 65.7733 29.0478 65.16C28.6278 64.54 28.4178 63.6333 28.4178 62.44C28.4178 61.2467 28.6278 60.3433 29.0478 59.73C29.4678 59.11 30.0878 58.8 30.9078 58.8C31.7278 58.8 32.3478 59.11 32.7678 59.73C33.1878 60.3433 33.3978 61.2433 33.3978 62.43C33.3978 63.6233 33.1845 64.53 32.7578 65.15C32.3378 65.77 31.7211 66.08 30.9078 66.08ZM30.9078 65.39C31.4745 65.39 31.8911 65.15 32.1578 64.67C32.4311 64.19 32.5678 63.4433 32.5678 62.43C32.5678 61.4167 32.4311 60.6767 32.1578 60.21C31.8911 59.7367 31.4745 59.5 30.9078 59.5C30.3411 59.5 29.9211 59.7367 29.6478 60.21C29.3811 60.6833 29.2478 61.4233 29.2478 62.43C29.2478 63.4433 29.3811 64.19 29.6478 64.67C29.9211 65.15 30.3411 65.39 30.9078 65.39ZM37.0039 66.08C36.1906 66.08 35.5706 65.7733 35.1439 65.16C34.7239 64.54 34.5139 63.6333 34.5139 62.44C34.5139 61.2467 34.7239 60.3433 35.1439 59.73C35.5639 59.11 36.1839 58.8 37.0039 58.8C37.8239 58.8 38.4439 59.11 38.8639 59.73C39.2839 60.3433 39.4939 61.2433 39.4939 62.43C39.4939 63.6233 39.2806 64.53 38.8539 65.15C38.4339 65.77 37.8172 66.08 37.0039 66.08ZM37.0039 65.39C37.5706 65.39 37.9872 65.15 38.2539 64.67C38.5272 64.19 38.6639 63.4433 38.6639 62.43C38.6639 61.4167 38.5272 60.6767 38.2539 60.21C37.9872 59.7367 37.5706 59.5 37.0039 59.5C36.4372 59.5 36.0172 59.7367 35.7439 60.21C35.4772 60.6833 35.3439 61.4233 35.3439 62.43C35.3439 63.4433 35.4772 64.19 35.7439 64.67C36.0172 65.15 36.4372 65.39 37.0039 65.39Z" fill="#9FA2B4"/>
<path d="M4.04602 10.08C3.18602 10.08 2.52268 9.78333 2.05602 9.19C1.58935 8.59 1.35602 7.73333 1.35602 6.62C1.35602 5.81333 1.46268 5.12667 1.67602 4.56C1.89602 3.98667 2.20935 3.55 2.61602 3.25C3.02935 2.95 3.52268 2.8 4.09602 2.8C4.50935 2.8 4.90935 2.87667 5.29602 3.03C5.68268 3.17667 6.02602 3.39333 6.32602 3.68L6.01602 4.31C5.68268 4.02333 5.35935 3.81667 5.04602 3.69C4.73935 3.55667 4.42935 3.49 4.11602 3.49C3.50268 3.49 3.02602 3.76333 2.68602 4.31C2.34602 4.85 2.17602 5.61667 2.17602 6.61V7.47L2.05602 7.2C2.10935 6.86 2.23268 6.56667 2.42602 6.32C2.61935 6.06667 2.85935 5.87333 3.14602 5.74C3.43935 5.6 3.76268 5.53 4.11602 5.53C4.55602 5.53 4.94268 5.62667 5.27602 5.82C5.60935 6.00667 5.86935 6.27 6.05602 6.61C6.24268 6.95 6.33602 7.34333 6.33602 7.79C6.33602 8.23 6.23602 8.62333 6.03602 8.97C5.84268 9.31667 5.57268 9.59 5.22602 9.79C4.88602 9.98333 4.49268 10.08 4.04602 10.08ZM4.00602 9.39C4.45935 9.39 4.82602 9.24667 5.10602 8.96C5.38602 8.66667 5.52602 8.28 5.52602 7.8C5.52602 7.32667 5.38602 6.94667 5.10602 6.66C4.82602 6.36667 4.45602 6.22 3.99602 6.22C3.68935 6.22 3.41602 6.29 3.17602 6.43C2.93602 6.56333 2.74935 6.75 2.61602 6.99C2.48268 7.22333 2.41602 7.49333 2.41602 7.8C2.41602 8.12 2.48268 8.4 2.61602 8.64C2.74935 8.87333 2.93602 9.05667 3.17602 9.19C3.41602 9.32333 3.69268 9.39 4.00602 9.39ZM9.91211 10.08C9.09878 10.08 8.47878 9.77333 8.05211 9.16C7.63211 8.54 7.42211 7.63333 7.42211 6.44C7.42211 5.24667 7.63211 4.34333 8.05211 3.73C8.47211 3.11 9.09211 2.8 9.91211 2.8C10.7321 2.8 11.3521 3.11 11.7721 3.73C12.1921 4.34333 12.4021 5.24333 12.4021 6.43C12.4021 7.62333 12.1888 8.53 11.7621 9.15C11.3421 9.77 10.7254 10.08 9.91211 10.08ZM9.91211 9.39C10.4788 9.39 10.8954 9.15 11.1621 8.67C11.4354 8.19 11.5721 7.44333 11.5721 6.43C11.5721 5.41667 11.4354 4.67667 11.1621 4.21C10.8954 3.73667 10.4788 3.5 9.91211 3.5C9.34544 3.5 8.92544 3.73667 8.65211 4.21C8.38544 4.68333 8.25211 5.42333 8.25211 6.43C8.25211 7.44333 8.38544 8.19 8.65211 8.67C8.92544 9.15 9.34544 9.39 9.91211 9.39ZM16.0082 10.08C15.1949 10.08 14.5749 9.77333 14.1482 9.16C13.7282 8.54 13.5182 7.63333 13.5182 6.44C13.5182 5.24667 13.7282 4.34333 14.1482 3.73C14.5682 3.11 15.1882 2.8 16.0082 2.8C16.8282 2.8 17.4482 3.11 17.8682 3.73C18.2882 4.34333 18.4982 5.24333 18.4982 6.43C18.4982 7.62333 18.2849 8.53 17.8582 9.15C17.4382 9.77 16.8215 10.08 16.0082 10.08ZM16.0082 9.39C16.5749 9.39 16.9915 9.15 17.2582 8.67C17.5315 8.19 17.6682 7.44333 17.6682 6.43C17.6682 5.41667 17.5315 4.67667 17.2582 4.21C16.9915 3.73667 16.5749 3.5 16.0082 3.5C15.4415 3.5 15.0215 3.73667 14.7482 4.21C14.4815 4.68333 14.3482 5.42333 14.3482 6.43C14.3482 7.44333 14.4815 8.19 14.7482 8.67C15.0215 9.15 15.4415 9.39 16.0082 9.39ZM24.8117 10.08C23.9984 10.08 23.3784 9.77333 22.9517 9.16C22.5317 8.54 22.3217 7.63333 22.3217 6.44C22.3217 5.24667 22.5317 4.34333 22.9517 3.73C23.3717 3.11 23.9917 2.8 24.8117 2.8C25.6317 2.8 26.2517 3.11 26.6717 3.73C27.0917 4.34333 27.3017 5.24333 27.3017 6.43C27.3017 7.62333 27.0884 8.53 26.6617 9.15C26.2417 9.77 25.6251 10.08 24.8117 10.08ZM24.8117 9.39C25.3784 9.39 25.7951 9.15 26.0617 8.67C26.3351 8.19 26.4717 7.44333 26.4717 6.43C26.4717 5.41667 26.3351 4.67667 26.0617 4.21C25.7951 3.73667 25.3784 3.5 24.8117 3.5C24.2451 3.5 23.8251 3.73667 23.5517 4.21C23.2851 4.68333 23.1517 5.42333 23.1517 6.43C23.1517 7.44333 23.2851 8.19 23.5517 8.67C23.8251 9.15 24.2451 9.39 24.8117 9.39ZM30.9078 10.08C30.0945 10.08 29.4745 9.77333 29.0478 9.16C28.6278 8.54 28.4178 7.63333 28.4178 6.44C28.4178 5.24667 28.6278 4.34333 29.0478 3.73C29.4678 3.11 30.0878 2.8 30.9078 2.8C31.7278 2.8 32.3478 3.11 32.7678 3.73C33.1878 4.34333 33.3978 5.24333 33.3978 6.43C33.3978 7.62333 33.1845 8.53 32.7578 9.15C32.3378 9.77 31.7211 10.08 30.9078 10.08ZM30.9078 9.39C31.4745 9.39 31.8911 9.15 32.1578 8.67C32.4311 8.19 32.5678 7.44333 32.5678 6.43C32.5678 5.41667 32.4311 4.67667 32.1578 4.21C31.8911 3.73667 31.4745 3.5 30.9078 3.5C30.3411 3.5 29.9211 3.73667 29.6478 4.21C29.3811 4.68333 29.2478 5.42333 29.2478 6.43C29.2478 7.44333 29.3811 8.19 29.6478 8.67C29.9211 9.15 30.3411 9.39 30.9078 9.39ZM37.0039 10.08C36.1906 10.08 35.5706 9.77333 35.1439 9.16C34.7239 8.54 34.5139 7.63333 34.5139 6.44C34.5139 5.24667 34.7239 4.34333 35.1439 3.73C35.5639 3.11 36.1839 2.8 37.0039 2.8C37.8239 2.8 38.4439 3.11 38.8639 3.73C39.2839 4.34333 39.4939 5.24333 39.4939 6.43C39.4939 7.62333 39.2806 8.53 38.8539 9.15C38.4339 9.77 37.8172 10.08 37.0039 10.08ZM37.0039 9.39C37.5706 9.39 37.9872 9.15 38.2539 8.67C38.5272 8.19 38.6639 7.44333 38.6639 6.43C38.6639 5.41667 38.5272 4.67667 38.2539 4.21C37.9872 3.73667 37.5706 3.5 37.0039 3.5C36.4372 3.5 36.0172 3.73667 35.7439 4.21C35.4772 4.68333 35.3439 5.42333 35.3439 6.43C35.3439 7.44333 35.4772 8.19 35.7439 8.67C36.0172 9.15 36.4372 9.39 37.0039 9.39Z" fill="#9FA2B4"/>
<mask id="mask0" mask-type="alpha" maskUnits="userSpaceOnUse" x="110" y="52" width="590" height="337">
<path d="M521.376 282C544.379 255.6 582.079 117.667 598.054 52H700V271C696.95 274.667 686.843 286.4 670.81 304C650.769 326 608.945 351 601.539 354.5C594.133 358 547.516 371 539.674 371.5C531.832 372 483.037 377.5 469.096 378C455.154 378.5 428.578 378.5 398.953 381C375.253 383 326.632 387.167 305.284 389H110.104C135.373 389 211.18 383 224.25 381C234.706 379.4 282.629 369 305.284 364C318.064 364.333 355.125 363.8 401.131 359C458.639 353 492.622 315 521.376 282Z" fill="#C4C4C4"/>
<path d="M521.376 282C544.379 255.6 582.079 117.667 598.054 52H700V271C696.95 274.667 686.843 286.4 670.81 304C650.769 326 608.945 351 601.539 354.5C594.133 358 547.516 371 539.674 371.5C531.832 372 483.037 377.5 469.096 378C455.154 378.5 428.578 378.5 398.953 381C375.253 383 326.632 387.167 305.284 389H110.104C135.373 389 211.18 383 224.25 381C234.706 379.4 282.629 369 305.284 364C318.064 364.333 355.125 363.8 401.131 359C458.639 353 492.622 315 521.376 282Z" fill="white"/>
</mask>
<g mask="url(#mask0)">
<rect x="-43.999" y="367.468" width="0.551742" height="636.711" transform="rotate(-45 -43.999 367.468)" fill="#61C1B8"/>
<rect x="274.354" y="49.1123" width="0.551742" height="636.711" transform="rotate(-45 274.354 49.1123)" fill="#61C1B8"/>
<rect x="115.178" y="208.29" width="0.551742" height="636.711" transform="rotate(-45 115.178 208.29)" fill="#61C1B8"/>
<rect x="433.532" y="-110.065" width="0.551742" height="636.711" transform="rotate(-45 433.532 -110.065)" fill="#61C1B8"/>
<rect x="35.5889" y="287.878" width="0.551742" height="636.711" transform="rotate(-45 35.5889 287.878)" fill="#61C1B8"/>
<rect x="353.943" y="-30.4766" width="0.551742" height="636.711" transform="rotate(-45 353.943 -30.4766)" fill="#61C1B8"/>
<rect x="194.767" y="128.701" width="0.551742" height="636.711" transform="rotate(-45 194.767 128.701)" fill="#61C1B8"/>
<rect x="513.121" y="-189.654" width="0.551742" height="636.711" transform="rotate(-45 513.121 -189.654)" fill="#61C1B8"/>
<rect x="-4.20508" y="327.673" width="0.551742" height="636.711" transform="rotate(-45 -4.20508 327.673)" fill="#61C1B8"/>
<rect x="314.149" y="9.31836" width="0.551742" height="636.711" transform="rotate(-45 314.149 9.31836)" fill="#61C1B8"/>
<rect x="154.972" y="168.495" width="0.551742" height="636.711" transform="rotate(-45 154.972 168.495)" fill="#61C1B8"/>
<rect x="473.327" y="-149.859" width="0.551742" height="636.711" transform="rotate(-45 473.327 -149.859)" fill="#61C1B8"/>
<rect x="75.3838" y="248.084" width="0.551742" height="636.711" transform="rotate(-45 75.3838 248.084)" fill="#61C1B8"/>
<rect x="393.738" y="-70.2705" width="0.551742" height="636.711" transform="rotate(-45 393.738 -70.2705)" fill="#61C1B8"/>
<rect x="234.561" y="88.9072" width="0.551742" height="636.711" transform="rotate(-45 234.561 88.9072)" fill="#61C1B8"/>
<rect x="552.916" y="-229.448" width="0.551742" height="636.711" transform="rotate(-45 552.916 -229.448)" fill="#61C1B8"/>
<rect x="-30.7354" y="354.202" width="0.551742" height="636.711" transform="rotate(-45 -30.7354 354.202)" fill="#61C1B8"/>
<rect x="287.62" y="35.8477" width="0.551742" height="636.711" transform="rotate(-45 287.62 35.8477)" fill="#61C1B8"/>
<rect x="128.442" y="195.024" width="0.551742" height="636.711" transform="rotate(-45 128.442 195.024)" fill="#61C1B8"/>
<rect x="446.797" y="-123.33" width="0.551742" height="636.711" transform="rotate(-45 446.797 -123.33)" fill="#61C1B8"/>
<rect x="48.8535" y="274.613" width="0.551742" height="636.711" transform="rotate(-45 48.8535 274.613)" fill="#61C1B8"/>
<rect x="367.208" y="-43.7412" width="0.551742" height="636.711" transform="rotate(-45 367.208 -43.7412)" fill="#61C1B8"/>
<rect x="208.031" y="115.436" width="0.551742" height="636.711" transform="rotate(-45 208.031 115.436)" fill="#61C1B8"/>
<rect x="526.386" y="-202.919" width="0.551742" height="636.711" transform="rotate(-45 526.386 -202.919)" fill="#61C1B8"/>
<rect x="9.05957" y="314.407" width="0.551742" height="636.711" transform="rotate(-45 9.05957 314.407)" fill="#61C1B8"/>
<rect x="327.414" y="-3.94727" width="0.551742" height="636.711" transform="rotate(-45 327.414 -3.94727)" fill="#61C1B8"/>
<rect x="168.236" y="155.23" width="0.551742" height="636.711" transform="rotate(-45 168.236 155.23)" fill="#61C1B8"/>
<rect x="486.591" y="-163.124" width="0.551742" height="636.711" transform="rotate(-45 486.591 -163.124)" fill="#61C1B8"/>
<rect x="88.6475" y="234.819" width="0.551742" height="636.711" transform="rotate(-45 88.6475 234.819)" fill="#61C1B8"/>
<rect x="407.003" y="-83.5361" width="0.551742" height="636.711" transform="rotate(-45 407.003 -83.5361)" fill="#61C1B8"/>
<rect x="247.825" y="75.6416" width="0.551742" height="636.711" transform="rotate(-45 247.825 75.6416)" fill="#61C1B8"/>
<rect x="566.18" y="-242.713" width="0.551742" height="636.711" transform="rotate(-45 566.18 -242.713)" fill="#61C1B8"/>
<rect x="-17.4707" y="340.938" width="0.551742" height="636.711" transform="rotate(-45 -17.4707 340.938)" fill="#61C1B8"/>
<rect x="300.885" y="22.582" width="0.551742" height="636.711" transform="rotate(-45 300.885 22.582)" fill="#61C1B8"/>
<rect x="141.707" y="181.76" width="0.551742" height="636.711" transform="rotate(-45 141.707 181.76)" fill="#61C1B8"/>
<rect x="460.062" y="-136.595" width="0.551742" height="636.711" transform="rotate(-45 460.062 -136.595)" fill="#61C1B8"/>
<rect x="62.1182" y="261.349" width="0.551742" height="636.711" transform="rotate(-45 62.1182 261.349)" fill="#61C1B8"/>
<rect x="380.474" y="-57.0059" width="0.551742" height="636.711" transform="rotate(-45 380.474 -57.0059)" fill="#61C1B8"/>
<rect x="221.296" y="102.171" width="0.551742" height="636.711" transform="rotate(-45 221.296 102.171)" fill="#61C1B8"/>
<rect x="539.65" y="-216.184" width="0.551742" height="636.711" transform="rotate(-45 539.65 -216.184)" fill="#61C1B8"/>
<rect x="22.3242" y="301.144" width="0.551742" height="636.711" transform="rotate(-45 22.3242 301.144)" fill="#61C1B8"/>
<rect x="340.679" y="-17.2119" width="0.551742" height="636.711" transform="rotate(-45 340.679 -17.2119)" fill="#61C1B8"/>
<rect x="181.502" y="141.966" width="0.551742" height="636.711" transform="rotate(-45 181.502 141.966)" fill="#61C1B8"/>
<rect x="499.856" y="-176.39" width="0.551742" height="636.711" transform="rotate(-45 499.856 -176.39)" fill="#61C1B8"/>
<rect x="101.913" y="221.555" width="0.551742" height="636.711" transform="rotate(-45 101.913 221.555)" fill="#61C1B8"/>
<rect x="420.268" y="-96.8008" width="0.551742" height="636.711" transform="rotate(-45 420.268 -96.8008)" fill="#61C1B8"/>
<rect x="261.09" y="62.377" width="0.551742" height="636.711" transform="rotate(-45 261.09 62.377)" fill="#61C1B8"/>
<rect x="579.445" y="-255.978" width="0.551742" height="636.711" transform="rotate(-45 579.445 -255.978)" fill="#61C1B8"/>
<rect x="-37.3672" y="360.834" width="0.551742" height="636.711" transform="rotate(-45 -37.3672 360.834)" fill="#61C1B8"/>
<rect x="280.987" y="42.4795" width="0.551742" height="636.711" transform="rotate(-45 280.987 42.4795)" fill="#61C1B8"/>
<rect x="121.81" y="201.657" width="0.551742" height="636.711" transform="rotate(-45 121.81 201.657)" fill="#61C1B8"/>
<rect x="440.165" y="-116.697" width="0.551742" height="636.711" transform="rotate(-45 440.165 -116.697)" fill="#61C1B8"/>
<rect x="42.2207" y="281.246" width="0.551742" height="636.711" transform="rotate(-45 42.2207 281.246)" fill="#61C1B8"/>
<rect x="360.576" y="-37.1084" width="0.551742" height="636.711" transform="rotate(-45 360.576 -37.1084)" fill="#61C1B8"/>
<rect x="201.398" y="122.068" width="0.551742" height="636.711" transform="rotate(-45 201.398 122.068)" fill="#61C1B8"/>
<rect x="519.753" y="-196.286" width="0.551742" height="636.711" transform="rotate(-45 519.753 -196.286)" fill="#61C1B8"/>
<rect x="2.42676" y="321.04" width="0.551742" height="636.711" transform="rotate(-45 2.42676 321.04)" fill="#61C1B8"/>
<rect x="320.781" y="2.68555" width="0.551742" height="636.711" transform="rotate(-45 320.781 2.68555)" fill="#61C1B8"/>
<rect x="161.604" y="161.862" width="0.551742" height="636.711" transform="rotate(-45 161.604 161.862)" fill="#61C1B8"/>
<rect x="479.959" y="-156.492" width="0.551742" height="636.711" transform="rotate(-45 479.959 -156.492)" fill="#61C1B8"/>
<rect x="82.0156" y="241.451" width="0.551742" height="636.711" transform="rotate(-45 82.0156 241.451)" fill="#61C1B8"/>
<rect x="400.37" y="-76.9033" width="0.551742" height="636.711" transform="rotate(-45 400.37 -76.9033)" fill="#61C1B8"/>
<rect x="241.193" y="82.2744" width="0.551742" height="636.711" transform="rotate(-45 241.193 82.2744)" fill="#61C1B8"/>
<rect x="559.548" y="-236.081" width="0.551742" height="636.711" transform="rotate(-45 559.548 -236.081)" fill="#61C1B8"/>
<rect x="-24.1025" y="347.57" width="0.551742" height="636.711" transform="rotate(-45 -24.1025 347.57)" fill="#61C1B8"/>
<rect x="294.252" y="29.2148" width="0.551742" height="636.711" transform="rotate(-45 294.252 29.2148)" fill="#61C1B8"/>
<rect x="135.075" y="188.393" width="0.551742" height="636.711" transform="rotate(-45 135.075 188.393)" fill="#61C1B8"/>
<rect x="453.43" y="-129.962" width="0.551742" height="636.711" transform="rotate(-45 453.43 -129.962)" fill="#61C1B8"/>
<rect x="55.4863" y="267.981" width="0.551742" height="636.711" transform="rotate(-45 55.4863 267.981)" fill="#61C1B8"/>
<rect x="373.841" y="-50.374" width="0.551742" height="636.711" transform="rotate(-45 373.841 -50.374)" fill="#61C1B8"/>
<rect x="214.663" y="108.804" width="0.551742" height="636.711" transform="rotate(-45 214.663 108.804)" fill="#61C1B8"/>
<rect x="533.019" y="-209.551" width="0.551742" height="636.711" transform="rotate(-45 533.019 -209.551)" fill="#61C1B8"/>
<rect x="15.6914" y="307.775" width="0.551742" height="636.711" transform="rotate(-45 15.6914 307.775)" fill="#61C1B8"/>
<rect x="334.047" y="-10.5791" width="0.551742" height="636.711" transform="rotate(-45 334.047 -10.5791)" fill="#61C1B8"/>
<rect x="174.869" y="148.598" width="0.551742" height="636.711" transform="rotate(-45 174.869 148.598)" fill="#61C1B8"/>
<rect x="493.224" y="-169.757" width="0.551742" height="636.711" transform="rotate(-45 493.224 -169.757)" fill="#61C1B8"/>
<rect x="95.2803" y="228.187" width="0.551742" height="636.711" transform="rotate(-45 95.2803 228.187)" fill="#61C1B8"/>
<rect x="413.635" y="-90.168" width="0.551742" height="636.711" transform="rotate(-45 413.635 -90.168)" fill="#61C1B8"/>
<rect x="254.458" y="69.0098" width="0.551742" height="636.711" transform="rotate(-45 254.458 69.0098)" fill="#61C1B8"/>
<rect x="572.813" y="-249.346" width="0.551742" height="636.711" transform="rotate(-45 572.813 -249.346)" fill="#61C1B8"/>
<rect x="-10.8379" y="334.305" width="0.551742" height="636.711" transform="rotate(-45 -10.8379 334.305)" fill="#61C1B8"/>
<rect x="307.517" y="15.9502" width="0.551742" height="636.711" transform="rotate(-45 307.517 15.9502)" fill="#61C1B8"/>
<rect x="148.34" y="175.128" width="0.551742" height="636.711" transform="rotate(-45 148.34 175.128)" fill="#61C1B8"/>
<rect x="466.694" y="-143.228" width="0.551742" height="636.711" transform="rotate(-45 466.694 -143.228)" fill="#61C1B8"/>
<rect x="68.751" y="254.716" width="0.551742" height="636.711" transform="rotate(-45 68.751 254.716)" fill="#61C1B8"/>
<rect x="387.105" y="-63.6387" width="0.551742" height="636.711" transform="rotate(-45 387.105 -63.6387)" fill="#61C1B8"/>
<rect x="227.928" y="95.5391" width="0.551742" height="636.711" transform="rotate(-45 227.928 95.5391)" fill="#61C1B8"/>
<rect x="546.283" y="-222.815" width="0.551742" height="636.711" transform="rotate(-45 546.283 -222.815)" fill="#61C1B8"/>
<rect x="28.9561" y="294.511" width="0.551742" height="636.711" transform="rotate(-45 28.9561 294.511)" fill="#61C1B8"/>
<rect x="347.312" y="-23.8447" width="0.551742" height="636.711" transform="rotate(-45 347.312 -23.8447)" fill="#61C1B8"/>
<rect x="188.134" y="135.333" width="0.551742" height="636.711" transform="rotate(-45 188.134 135.333)" fill="#61C1B8"/>
<rect x="506.488" y="-183.021" width="0.551742" height="636.711" transform="rotate(-45 506.488 -183.021)" fill="#61C1B8"/>
<rect x="108.545" y="214.922" width="0.551742" height="636.711" transform="rotate(-45 108.545 214.922)" fill="#61C1B8"/>
<rect x="426.9" y="-103.433" width="0.551742" height="636.711" transform="rotate(-45 426.9 -103.433)" fill="#61C1B8"/>
<rect x="267.723" y="55.7441" width="0.551742" height="636.711" transform="rotate(-45 267.723 55.7441)" fill="#61C1B8"/>
<rect x="586.077" y="-262.61" width="0.551742" height="636.711" transform="rotate(-45 586.077 -262.61)" fill="#61C1B8"/>
</g>
<path d="M19 389C113.333 388.333 321.8 383.8 401 371C500 355 532 335.069 566 321C600 306.931 650 197 666 166C678.8 141.2 694 107.667 700 94" stroke="#138175" stroke-width="2"/>
<path d="M598.054 52C582.079 117.667 544.379 255.6 521.376 282C492.622 315 458.639 353 401.131 359C355.125 363.8 318.064 364.333 305.284 364C282.629 369 234.706 379.4 224.25 381C211.18 383 135.373 389 110.104 389C89.8894 389 38.9452 389 16 389H305.284C326.632 387.167 375.252 383 398.953 381C428.578 378.5 455.154 378.5 469.096 378C483.037 377.5 531.832 372 539.674 371.5C547.516 371 594.132 358 601.539 354.5C608.945 351 650.769 326 670.81 304C686.843 286.4 696.95 274.667 700 271" stroke="#61C1B8"/>
<circle cx="14" cy="388" r="5" fill="white" stroke="#138175" stroke-width="2"/>
<circle cx="134" cy="388" r="5" fill="white" stroke="#138175" stroke-width="2"/>
<circle cx="187" cy="385" r="5" fill="white" stroke="#138175" stroke-width="2"/>
<circle cx="240" cy="384" r="5" fill="white" stroke="#138175" stroke-width="2"/>
<circle cx="294" cy="381" r="5" fill="white" stroke="#138175" stroke-width="2"/>
<circle cx="347" cy="377" r="5" fill="white" stroke="#138175" stroke-width="2"/>
<circle cx="400" cy="371" r="5" fill="white" stroke="#138175" stroke-width="2"/>
<circle cx="453" cy="361" r="5" fill="white" stroke="#138175" stroke-width="2"/>
<circle cx="506" cy="346" r="5" fill="white" stroke="#138175" stroke-width="2"/>
<circle cx="568" cy="320" r="5" fill="white" stroke="#138175" stroke-width="2"/>
<circle cx="630" cy="237" r="5" fill="white" stroke="#138175" stroke-width="2"/>
<circle cx="72" cy="388" r="5" fill="white" stroke="#138175" stroke-width="2"/>
</svg>
