<svg width="80" height="80" viewBox="0 0 80 80" fill="none" xmlns="http://www.w3.org/2000/svg">
<path opacity="0.2" d="M40 80C62.0914 80 80 62.0914 80 40C80 17.9086 62.0914 0 40 0C17.9086 0 0 17.9086 0 40C0 62.0914 17.9086 80 40 80Z" fill="#61C1B8"/>
<path opacity="0.15" d="M40.0581 73.4011C58.4729 73.4011 73.4011 58.4729 73.4011 40.0581C73.4011 21.6433 58.4729 6.71509 40.0581 6.71509C21.6433 6.71509 6.71509 21.6433 6.71509 40.0581C6.71509 58.4729 21.6433 73.4011 40.0581 73.4011Z" fill="#61C1B8"/>
<path opacity="0.3" d="M40.1422 66.2493C54.5608 66.2493 66.2493 54.5608 66.2493 40.1422C66.2493 25.7237 54.5608 14.0352 40.1422 14.0352C25.7237 14.0352 14.0352 25.7237 14.0352 40.1422C14.0352 54.5608 25.7237 66.2493 40.1422 66.2493Z" fill="white"/>
<path d="M50.825 42.7485L53.2812 48.6789L44.825 46.2882H33.9313L25.8687 48.6789L28.325 42.7485L17 35.3355L25.325 33.8529L26.2332 25.6985L34.325 35.3355L35.075 30.1463L32.825 16.8029L39.575 21.2507L46.325 16.8029L43.325 30.1463L44.825 35.3355L52.244 25.7467L53.825 33.8529L62.15 35.1316L50.825 42.7485Z" fill="#AF102F"/>
<path d="M37.9715 46.2882C38.1508 45.8079 38.3233 45.3045 38.465 44.8019C39.59 40.9546 41.8025 36.9812 40.1375 33.1709C38.5775 29.5978 36.995 25.4094 38.1875 22.118C38.36 21.6369 38.5543 21.1706 38.7568 20.7095L32.825 16.8029L35.075 30.1463L34.325 35.3355L26.2333 25.6985L25.325 33.8529L17 35.3355L28.325 42.7485L25.8688 48.6789L33.9313 46.2882H37.9715Z" fill="#F2334F"/>
<path d="M39.5 58.3159C39.3011 58.3159 39.1103 58.2378 38.9697 58.0988C38.829 57.9598 38.75 57.7712 38.75 57.5746V39.7833C38.75 39.5867 38.829 39.3981 38.9697 39.2591C39.1103 39.1201 39.3011 39.042 39.5 39.042C39.6989 39.042 39.8897 39.1201 40.0303 39.2591C40.171 39.3981 40.25 39.5867 40.25 39.7833V57.5746C40.25 57.7712 40.171 57.9598 40.0303 58.0988C39.8897 58.2378 39.6989 58.3159 39.5 58.3159Z" fill="#844215"/>
<path d="M39.5752 37.5593C39.3763 37.5593 39.1855 37.4812 39.0449 37.3422C38.9042 37.2032 38.8252 37.0146 38.8252 36.818V35.3354C38.8252 35.1388 38.9042 34.9503 39.0449 34.8112C39.1855 34.6722 39.3763 34.5941 39.5752 34.5941C39.7741 34.5941 39.9649 34.6722 40.1055 34.8112C40.2462 34.9503 40.3252 35.1388 40.3252 35.3354V36.818C40.3252 37.0146 40.2462 37.2032 40.1055 37.3422C39.9649 37.4812 39.7741 37.5593 39.5752 37.5593Z" fill="#AF102F"/>
<path d="M39.5 63.505C39.3011 63.505 39.1103 63.4269 38.9697 63.2879C38.829 63.1488 38.75 62.9603 38.75 62.7637V60.5398C38.75 60.3432 38.829 60.1546 38.9697 60.0156C39.1103 59.8766 39.3011 59.7985 39.5 59.7985C39.6989 59.7985 39.8897 59.8766 40.0303 60.0156C40.171 60.1546 40.25 60.3432 40.25 60.5398V62.7637C40.25 62.9603 40.171 63.1488 40.0303 63.2879C39.8897 63.4269 39.6989 63.505 39.5 63.505Z" fill="#844215"/>
<path d="M44.8439 42.0071H44.1172C43.9183 42.0071 43.7275 41.929 43.5869 41.79C43.4462 41.651 43.3672 41.4624 43.3672 41.2658C43.3672 41.0692 43.4462 40.8807 43.5869 40.7417C43.7275 40.6026 43.9183 40.5245 44.1172 40.5245H44.8439C45.0429 40.5245 45.2336 40.6026 45.3743 40.7417C45.5149 40.8807 45.5939 41.0692 45.5939 41.2658C45.5939 41.4624 45.5149 41.651 45.3743 41.79C45.2336 41.929 45.0429 42.0071 44.8439 42.0071Z" fill="#F2334F"/>
<path d="M47.7502 42.0071H47.0234C46.8245 42.0071 46.6338 41.929 46.4931 41.79C46.3525 41.651 46.2734 41.4624 46.2734 41.2658C46.2734 41.0692 46.3525 40.8807 46.4931 40.7417C46.6338 40.6026 46.8245 40.5245 47.0234 40.5245H47.7502C47.9491 40.5245 48.1399 40.6026 48.2805 40.7417C48.4212 40.8807 48.5002 41.0692 48.5002 41.2658C48.5002 41.4624 48.4212 41.651 48.2805 41.79C48.1399 41.929 47.9491 42.0071 47.7502 42.0071Z" fill="#F2334F"/>
</svg>
