<svg width="80" height="80" viewBox="0 0 80 80" fill="none" xmlns="http://www.w3.org/2000/svg">
<path opacity="0.2" d="M40 80C62.0914 80 80 62.0914 80 40C80 17.9086 62.0914 0 40 0C17.9086 0 0 17.9086 0 40C0 62.0914 17.9086 80 40 80Z" fill="#61C1B8"/>
<path opacity="0.15" d="M40.0581 73.4011C58.4729 73.4011 73.4011 58.4729 73.4011 40.0581C73.4011 21.6433 58.4729 6.71509 40.0581 6.71509C21.6433 6.71509 6.71509 21.6433 6.71509 40.0581C6.71509 58.4729 21.6433 73.4011 40.0581 73.4011Z" fill="#61C1B8"/>
<path opacity="0.3" d="M40.1422 66.2493C54.5608 66.2493 66.2493 54.5608 66.2493 40.1422C66.2493 25.7237 54.5608 14.0352 40.1422 14.0352C25.7237 14.0352 14.0352 25.7237 14.0352 40.1422C14.0352 54.5608 25.7237 66.2493 40.1422 66.2493Z" fill="white"/>
<path d="M16 42.9475C16.0021 42.9475 16.0039 42.9476 16.006 42.9477C16.0023 42.9476 16 42.9475 16 42.9475Z" fill="#FFA733"/>
<path d="M63.6332 41.8831C63.6332 41.9239 63.6028 41.9587 63.5616 41.9656C59.9982 42.5699 59.8628 45.6157 59.9217 46.6409C59.9335 46.8388 59.8068 47.0182 59.6135 47.0736C58.1287 47.4984 52.1345 49.3201 48.5574 52.005C47.5122 52.7898 45.7349 53.2475 44.9753 52.1893C39.9654 45.2093 37.2942 51.0272 35.404 52.2999C34.3667 52.9992 33.0026 53.0002 31.9437 52.3328C28.9976 50.4762 26.5442 49.2327 24.6943 48.415C22.8974 47.6216 21.6697 47.2297 21.1123 47.0697C20.9199 47.0143 20.7923 46.835 20.8041 46.637C20.8571 45.6903 20.7452 43.049 17.965 42.1586C17.8609 42.1256 17.7913 42.0277 17.7913 41.92C17.7913 41.8599 17.8128 41.8036 17.8492 41.76C17.8855 41.7163 17.9366 41.6844 17.9964 41.6736C19.6794 41.3497 21.9542 40.4767 22.8699 38.1351C22.9514 37.9256 23.1849 37.8188 23.4008 37.8878C23.4155 37.8917 23.4302 37.8965 23.445 37.9014C26.3498 38.8132 28.0182 34.7354 25.2959 33.3803C24.8818 33.1746 24.4146 32.9719 23.8866 32.7789C23.6698 32.6994 23.5549 32.4626 23.6305 32.2463C23.9376 31.3753 24.2762 29.1598 21.0024 27.0385C20.761 26.8823 20.7394 26.5428 20.9582 26.3576C21.6138 25.8037 22.6374 24.5932 22.1417 22.7085C22.0426 22.3273 22.4646 22.0276 22.7963 22.2458C23.5235 22.7241 24.4715 23.1382 25.5549 23.113C26.028 23.1013 26.5264 23.0063 27.0437 22.7967C27.2694 22.7046 27.5275 22.8093 27.6128 23.0353C27.7394 23.369 27.9592 23.8462 28.3056 24.2943C28.7836 24.9142 29.5029 25.4777 30.551 25.5311C30.7248 25.5398 30.8748 25.6572 30.9288 25.8212C31.235 26.7427 32.3076 29.5275 33.9672 28.9183C33.9672 28.9183 36.9564 27.9038 33.1684 23.658C32.9564 23.4203 33.0702 23.044 33.3814 22.9655C34.5629 22.6706 36.6915 21.7617 36.0457 19.0923C35.9849 18.8401 36.1645 18.5947 36.4265 18.5715C37.3265 18.4939 39.139 18.0826 39.9664 16.0785C40.1116 15.7264 40.6141 15.7264 40.7593 16.0785C41.5866 18.0826 43.3992 18.4938 44.2991 18.5715C44.5612 18.5947 44.7408 18.8402 44.6799 19.0923C44.0342 21.7618 46.1628 22.6706 47.3443 22.9655C47.6554 23.044 47.7693 23.4203 47.5573 23.658C43.7692 27.9037 46.7585 28.9183 46.7585 28.9183C48.4179 29.5275 49.4906 26.7426 49.7968 25.8212C49.8508 25.6572 50.0009 25.5398 50.1746 25.5311C51.9804 25.4399 52.8106 23.8317 53.1129 23.0353C53.1983 22.8093 53.4564 22.7045 53.682 22.7967C55.3837 23.4884 56.8852 22.9326 57.9294 22.2457C58.2611 22.0275 58.683 22.3272 58.5839 22.7084C58.0884 24.5931 59.1119 25.8036 59.7674 26.3575C59.9862 26.5427 59.9647 26.8822 59.7233 27.0384C56.4494 29.1597 56.788 31.3752 57.0952 32.2462C57.1707 32.4625 57.0559 32.6993 56.8391 32.7788C56.3101 32.9718 55.842 33.1755 55.4278 33.3812C52.7055 34.7372 54.3738 38.8131 57.2787 37.9023C57.2943 37.8975 57.3101 37.8926 57.3248 37.8878C57.5407 37.8189 57.7742 37.9256 57.8557 38.1351C58.9332 40.8908 61.8959 41.6135 63.5584 41.7997C63.6018 41.8045 63.6332 41.8394 63.6332 41.8831Z" fill="#FFA733"/>
<path d="M27.0081 39.1463C26.9933 39.1415 26.9786 39.1366 26.9639 39.1327C26.748 39.0639 26.5145 39.1705 26.433 39.38C25.5173 41.7216 23.2426 42.5955 21.5595 42.9186C21.4996 42.9302 21.4486 42.9613 21.4123 43.0058C21.376 43.0486 21.3544 43.1048 21.3544 43.165C21.3544 43.2736 21.424 43.3706 21.5281 43.4036C24.3083 44.2941 24.4202 46.9353 24.3672 47.882C24.3554 48.0798 24.483 48.2593 24.6754 48.3146L24.694 48.4155C22.8971 47.6221 21.6695 47.2302 21.112 47.0702C20.9196 47.0148 20.7921 46.8354 20.8039 46.6375C20.8568 45.6908 20.745 43.0495 17.9647 42.1591C17.8607 42.1261 17.791 42.0282 17.791 41.9205C17.791 41.8603 17.8126 41.8041 17.849 41.7605C17.8852 41.7168 17.9363 41.6848 17.9961 41.6741C19.6791 41.3501 21.954 40.4772 22.8697 38.1356C22.9511 37.926 23.1847 37.8193 23.4006 37.8882C23.4153 37.8921 23.43 37.897 23.4447 37.9019C26.3496 38.8137 28.0179 34.7358 25.2956 33.3807C24.8815 33.1751 24.4144 32.9724 23.8864 32.7793C23.6695 32.6998 23.5547 32.4631 23.6302 32.2468C23.9374 31.3758 24.276 29.1603 21.0021 27.039C20.7607 26.8828 20.7392 26.5433 20.958 26.3581C21.6136 25.8042 22.6372 24.5937 22.1415 22.709C22.0424 22.3278 22.4644 22.0281 22.7961 22.2463C23.5233 22.7246 24.4713 23.1387 25.5547 23.1135L25.7048 23.9535C26.2004 25.8381 25.1768 27.0487 24.5213 27.6025C24.3025 27.7878 24.3241 28.1273 24.5655 28.2834C27.8393 30.4048 27.5008 32.6202 27.1936 33.4913C27.118 33.7076 27.2329 33.9443 27.4497 34.0238C27.9777 34.2168 28.4448 34.4196 28.859 34.6252C31.5812 35.9803 29.9129 40.0582 27.0081 39.1463Z" fill="#FF9811"/>
<path d="M54.7042 43.2392C54.6155 42.8471 54.2219 42.6004 53.8252 42.6881L47.0223 44.1933L47.8965 42.2524C48.0619 41.8854 47.8948 41.4553 47.5235 41.292C47.1521 41.1285 46.717 41.2936 46.5518 41.6607L45.2326 44.5893L41.0989 45.5039V43.2488L44.0494 39.9741L49.9107 39.1714C50.3133 39.1162 50.5945 38.7489 50.5387 38.3509C50.4829 37.953 50.1116 37.6753 49.7086 37.7302L45.5592 38.2985L53.0442 29.9909C53.3144 29.6908 53.2875 29.2309 52.984 28.9638C52.6804 28.6967 52.2152 28.7233 51.9448 29.0233L47.4533 34.0085L47.612 31.5672C47.6381 31.1662 47.3304 30.8203 46.9247 30.7945C46.5179 30.7685 46.1691 31.073 46.143 31.4739L45.8779 35.5542C45.8737 35.6188 45.879 35.6818 45.8911 35.7424L41.0991 41.0611V29.4245L43.756 26.9093C44.0495 26.6314 44.0595 26.1708 43.7785 25.8807C43.4972 25.5905 43.0314 25.5807 42.7378 25.8585L41.0993 27.4097V23.5444C41.0993 23.1426 40.7697 22.8169 40.3632 22.8169C39.9567 22.8169 39.6272 23.1426 39.6272 23.5444V33.5454L36.8585 30.1628C36.6028 29.8504 36.1393 29.8021 35.8233 30.0548C35.5072 30.3075 35.4583 30.7656 35.7141 31.078L39.6273 35.8587V41.7811L33.6233 35.0988V31.5205C33.6233 31.1187 33.2938 30.793 32.8873 30.793C32.4808 30.793 32.1513 31.1187 32.1513 31.5205V33.4605L26.1635 26.7962C25.8936 26.4959 25.4285 26.4685 25.1245 26.7353C24.8206 27.0021 24.793 27.462 25.0629 27.7623L27.2197 30.1629L26.4139 30.2208C26.0085 30.2499 25.7036 30.5984 25.733 30.9991C25.7612 31.3818 26.0841 31.6739 26.4664 31.6739C26.4844 31.6739 26.5024 31.6733 26.5206 31.672L28.451 31.5333L39.6273 43.9723V45.5005L35.4828 44.5674L32.8825 40.4725C32.6664 40.1322 32.2121 40.0294 31.8679 40.2429C31.5236 40.4565 31.4196 40.9056 31.6356 41.2458L33.4549 44.1109L25.2463 42.263C24.8499 42.1738 24.4554 42.419 24.3652 42.8107C24.2749 43.2025 24.523 43.5924 24.9194 43.6816L27.8115 44.3326L26.5119 45.0997C26.1629 45.3057 26.0489 45.7523 26.2574 46.0973C26.3952 46.3254 26.6394 46.4518 26.89 46.4518C27.0184 46.4518 27.1484 46.4187 27.2667 46.3488L29.8897 44.8005L39.6272 46.9927V62.5308C39.6272 62.9326 39.9567 63.2583 40.3632 63.2583C40.7697 63.2583 41.0993 62.9326 41.0993 62.5308V46.9948L48.2985 45.4021L51.4002 47.0528C51.5112 47.1119 51.6307 47.1399 51.7484 47.1399C52.0105 47.1399 52.2642 47.0011 52.3971 46.7571C52.5898 46.4033 52.4559 45.9622 52.0979 45.7717L50.4917 44.9169L54.1471 44.1081C54.5434 44.0203 54.793 43.6313 54.7042 43.2392Z" fill="#CC7400"/>
</svg>
