<svg width="80" height="80" viewBox="0 0 80 80" fill="none" xmlns="http://www.w3.org/2000/svg">
<path opacity="0.2" d="M40 80C62.0914 80 80 62.0914 80 40C80 17.9086 62.0914 0 40 0C17.9086 0 0 17.9086 0 40C0 62.0914 17.9086 80 40 80Z" fill="#61C1B8"/>
<path opacity="0.15" d="M40.0581 73.4011C58.4729 73.4011 73.4011 58.4729 73.4011 40.0581C73.4011 21.6433 58.4729 6.71509 40.0581 6.71509C21.6433 6.71509 6.71509 21.6433 6.71509 40.0581C6.71509 58.4729 21.6433 73.4011 40.0581 73.4011Z" fill="#61C1B8"/>
<path opacity="0.3" d="M40.1422 66.2493C54.5608 66.2493 66.2493 54.5608 66.2493 40.1422C66.2493 25.7237 54.5608 14.0352 40.1422 14.0352C25.7237 14.0352 14.0352 25.7237 14.0352 40.1422C14.0352 54.5608 25.7237 66.2493 40.1422 66.2493Z" fill="white"/>
<path d="M63.7954 28.4138C64.1648 27.8138 63.6028 27.0758 62.9172 27.2607L48.6333 31.1111C48.1016 31.2544 47.5897 30.8263 47.6445 30.2843L48.2435 24.364C48.2846 23.9568 47.9991 23.5878 47.5906 23.5204L44.0537 22.9377C43.774 22.8916 43.5412 22.7002 43.4443 22.437L41.1959 16.3259C41.0705 15.985 40.7639 15.8145 40.4573 15.8145L34.223 30.9185C34.2771 31.4533 32.8267 31.2429 32.3027 31.1165C32.2956 31.1147 32.2884 31.1129 32.2814 31.111L17.9975 27.2606C17.9444 27.2463 17.892 27.2375 17.8408 27.2337L30.2854 44.1693L39.8658 49.1665C40.1789 48.8128 40.7356 48.8128 41.0487 49.1665L45.5687 54.2723C45.7996 54.5331 46.1775 54.6113 46.4949 54.4636L58.2205 49.0097C58.7364 48.7698 58.8303 48.0837 58.3974 47.717L54.6304 44.5256C54.2276 44.1844 54.2755 43.555 54.7253 43.2771L59.2137 40.5044C59.659 40.2293 59.7113 39.6083 59.3183 39.2641L58.3791 38.4419C58.0943 38.1928 58.0311 37.7777 58.2287 37.4566L63.7954 28.4138Z" fill="#FFE07D"/>
<path d="M39.7177 16.3258L37.4694 22.4369C37.3724 22.7002 37.1396 22.8916 36.86 22.9376L33.3231 23.5203C32.9146 23.5876 32.629 23.9566 32.6703 24.3638L33.2693 30.2842C33.3235 30.8198 32.8268 31.2448 32.3018 31.1163L40.4563 39.1764V15.8145C40.1497 15.8145 39.8431 15.9849 39.7177 16.3258Z" fill="#FFD064"/>
<path d="M17.8399 27.2336C17.2253 27.1823 16.776 27.8575 17.1184 28.4136L22.685 37.4562C22.8827 37.7773 22.8193 38.1923 22.5346 38.4415L21.5954 39.2637C21.2023 39.6079 21.2547 40.2289 21.6999 40.504L26.1883 43.2767C26.6382 43.5546 26.686 44.1841 26.2833 44.5252L22.5163 47.7167C22.0835 48.0834 22.1772 48.7694 22.6931 49.0093L34.4188 54.4633C34.7361 54.6109 35.114 54.5329 35.3449 54.2719L39.8648 49.1661C40.0214 48.9892 40.2388 48.9008 40.4563 48.9008V48.498L17.8399 27.2336Z" fill="#FFD064"/>
<path d="M58.3165 31.6489C58.0171 31.3383 57.519 31.3269 57.2051 31.6235L41.2432 46.6833V39.4983L45.7286 35.0649C46.0356 34.7615 46.0356 34.2699 45.7286 33.9665C45.4215 33.663 44.9242 33.663 44.6173 33.9665L41.2432 37.3014V30.9533L43.3708 28.8504C43.6778 28.5469 43.6778 28.0553 43.3708 27.752C43.0637 27.4485 42.5664 27.4485 42.2594 27.752L41.2433 28.7563V25.1939C41.2433 24.7649 40.8917 24.4171 40.4574 24.4171C40.0229 24.4171 39.6715 24.765 39.6715 25.1939V28.7563L38.6553 27.752C38.3483 27.4485 37.8509 27.4485 37.544 27.752C37.237 28.0554 37.237 28.547 37.544 28.8504L39.6716 30.9533V37.3014L36.2976 33.9665C35.9906 33.663 35.4932 33.663 35.1862 33.9665C34.8792 34.27 34.8792 34.7616 35.1862 35.0649L39.6716 39.4983V46.6833L23.7093 31.6235C23.3962 31.3273 22.8981 31.3387 22.598 31.6489C22.2987 31.9591 22.3102 32.4507 22.6241 32.747L38.4958 47.7217H28.6682C28.2338 47.7217 27.8823 48.0695 27.8823 48.4985C27.8823 48.9274 28.2339 49.2753 28.6682 49.2753H38.8854C39.3194 49.2753 39.6713 49.623 39.6713 50.0521V52.3825C39.6713 52.8116 40.0228 53.1593 40.4572 53.1593C40.8916 53.1593 41.2431 52.8115 41.2431 52.3825V50.0521C41.2431 49.623 41.5949 49.2753 42.029 49.2753H52.2462C52.6806 49.2753 53.0321 48.9274 53.0321 48.4985C53.0321 48.0695 52.6805 47.7217 52.2462 47.7217H42.4186L58.2904 32.747C58.6043 32.4508 58.6158 31.9592 58.3165 31.6489Z" fill="#FFA95F"/>
<path d="M40.4568 63.2579C40.0227 63.2579 39.6709 62.9101 39.6709 62.4811V52.3824C39.6709 51.9534 40.0227 51.6056 40.4568 51.6056C40.8909 51.6056 41.2427 51.9534 41.2427 52.3824V62.4811C41.2428 62.9101 40.8909 63.2579 40.4568 63.2579Z" fill="#FF8B5A"/>
</svg>
