<svg width="40" height="40" viewBox="0 0 40 40" fill="none" xmlns="http://www.w3.org/2000/svg">
<g filter="url(#filter0_d)">
<path fill-rule="evenodd" clip-rule="evenodd" d="M20 34C28.8366 34 36 26.8366 36 18C36 9.16344 28.8366 2 20 2C11.1634 2 4 9.16344 4 18C4 26.8366 11.1634 34 20 34Z" fill="#FDE9C2"/>
</g>
<path d="M27.9997 15.3877V23.7913C27.9997 24.2224 27.8163 24.6105 27.5233 24.8822C27.2576 25.1286 26.9021 25.2791 26.5115 25.2791H13.989C13.5984 25.2791 13.2429 25.1286 12.9776 24.8825C12.6846 24.6105 12.5012 24.2224 12.5012 23.7913V15.3877H27.9997Z" fill="#FEC970"/>
<path d="M27.9994 15.3876L22.0422 10.4272C21.0039 9.56266 19.4965 9.56266 18.4582 10.4272L12.501 15.3876H12.5011L14.2569 16.8494L18.4582 20.3476C19.4966 21.2124 21.004 21.2124 22.0421 20.3476L26.2438 16.8494L27.9996 15.3876" fill="#FBA028"/>
<path d="M25.2307 17.6929L24.1728 18.5738L23.6031 19.0482L22.8433 19.6808L22.2735 20.1552L22.0421 20.3479C21.0041 21.2126 19.4967 21.2126 18.4582 20.3479L18.227 20.1552L17.657 19.6808L16.8974 19.0482L16.3277 18.5738L15.27 17.6932C15.3219 17.7001 15.375 17.7039 15.4291 17.7039H25.0713C25.1255 17.7039 25.1786 17.7001 25.2307 17.6929Z" fill="#20B58D"/>
<path d="M14.3155 16.8982C14.2775 16.7827 14.2571 16.6597 14.2571 16.5316V12.0861C14.2571 11.4386 14.7818 10.9136 15.4292 10.9136H25.0715C25.7189 10.9136 26.244 11.4386 26.244 12.0861V16.5316C26.244 16.6597 26.2234 16.7827 26.1855 16.8982L25.2309 17.6927C25.1787 17.7 25.1255 17.7038 25.0715 17.7038H15.4292C15.3751 17.7038 15.322 17.7 15.2701 17.693" fill="#20B58D"/>
<path d="M14.2571 15.853L16.4796 17.7036H15.4292C15.3751 17.7036 15.322 17.6999 15.2701 17.6929L14.3155 16.8981C14.2775 16.7825 14.2571 16.6595 14.2571 16.5315V15.853Z" fill="#20B58D"/>
<path d="M26.2439 15.853V16.5315C26.2439 16.6595 26.2233 16.7825 26.1853 16.8981L25.2308 17.6925C25.1786 17.6999 25.1254 17.7036 25.0714 17.7036H24.021L26.2439 15.853Z" fill="#20B58D"/>
<path d="M24.1727 18.5737L23.6031 19.0482H16.8973L16.3276 18.5737H24.1727Z" fill="#138175"/>
<path d="M22.8433 19.6807L22.2734 20.1551H18.227L17.657 19.6807H22.8433Z" fill="#138175"/>
<path d="M25.0657 12.8724C24.6283 12.8724 24.2724 12.5166 24.2724 12.079C24.2724 11.948 24.1662 11.8418 24.0351 11.8418H16.4657C16.3347 11.8418 16.2285 11.948 16.2285 12.079C16.2285 12.5166 15.8727 12.8724 15.4351 12.8724C15.3041 12.8724 15.1979 12.9787 15.1979 13.1096V15.508C15.1979 15.639 15.3041 15.7452 15.4351 15.7452C15.8727 15.7452 16.2285 16.1011 16.2285 16.5386C16.2285 16.6697 16.3347 16.7759 16.4657 16.7759H24.0353C24.1662 16.7759 24.2725 16.6697 24.2725 16.5386C24.2725 16.1011 24.6283 15.7452 25.0659 15.7452C25.1968 15.7452 25.3031 15.639 25.3031 15.508V13.1096C25.303 12.9787 25.1968 12.8724 25.0657 12.8724ZM22.2429 14.3088C22.2429 15.4075 21.3492 16.3014 20.2504 16.3014C19.1517 16.3014 18.2579 15.4075 18.2579 14.3088C18.2579 13.2102 19.1517 12.3162 20.2504 12.3162C21.3492 12.3162 22.2429 13.2102 22.2429 14.3088ZM16.6807 16.3014C16.5839 15.7922 16.1815 15.3899 15.6723 15.293V13.3246C16.1815 13.2279 16.5839 12.8255 16.6807 12.3164H18.7982C18.1838 12.7654 17.7835 13.4911 17.7835 14.3089C17.7835 15.1266 18.1836 15.8523 18.7982 16.3014H16.6807ZM24.8285 15.293C24.3193 15.3898 23.917 15.7922 23.8203 16.3014H21.7026C22.3172 15.8523 22.7174 15.1265 22.7174 14.3088C22.7174 13.491 22.3172 12.7654 21.7026 12.3162H23.8203C23.917 12.8255 24.3194 13.2278 24.8285 13.3246V15.293Z" fill="#138175"/>
<path d="M20.2503 15.6245C20.976 15.6245 21.5664 15.034 21.5664 14.3083C21.5664 13.5826 20.976 12.9922 20.2503 12.9922C19.5247 12.9922 18.9342 13.5826 18.9342 14.3083C18.9342 15.034 19.5247 15.6245 20.2503 15.6245ZM20.2503 13.4666C20.7145 13.4666 21.0919 13.8442 21.0919 14.3083C21.0919 14.7724 20.7143 15.15 20.2503 15.15C19.7862 15.15 19.4087 14.7724 19.4087 14.3083C19.4087 13.8442 19.7862 13.4666 20.2503 13.4666Z" fill="#138175"/>
<path d="M23.2628 14.3085C23.2628 14.4395 23.369 14.5457 23.5 14.5457H24.2116C24.3426 14.5457 24.4488 14.4395 24.4488 14.3085C24.4488 14.1776 24.3426 14.0713 24.2116 14.0713H23.5C23.369 14.0713 23.2628 14.1776 23.2628 14.3085Z" fill="#138175"/>
<path d="M17.0005 14.0713H16.2889C16.1578 14.0713 16.0516 14.1776 16.0516 14.3085C16.0516 14.4395 16.1578 14.5457 16.2889 14.5457H17.0005C17.1316 14.5457 17.2378 14.4395 17.2378 14.3085C17.2378 14.1776 17.1316 14.0713 17.0005 14.0713Z" fill="#138175"/>
<path d="M26.555 24.3133C26.5015 24.3133 26.4477 24.2953 26.4034 24.2584L22.6207 21.109C22.52 21.0251 22.5064 20.8755 22.5901 20.7749C22.674 20.6742 22.8236 20.6605 22.9242 20.7444L26.7068 23.8937C26.8076 23.9775 26.8213 24.127 26.7374 24.2278C26.6905 24.2842 26.623 24.3133 26.555 24.3133Z" fill="#FBA028"/>
<path d="M17.8726 21.1155L14.764 23.7707C14.3357 24.1366 14.5272 24.8359 15.0822 24.9324C15.9748 25.0875 17.0181 25.2616 17.2985 25.2792H13.9891C13.5984 25.2792 13.2429 25.1287 12.9776 24.8826C12.6846 24.6106 12.5012 24.2225 12.5012 23.7914V15.3877H13.6244V21.1162C13.6352 22.2742 14.9927 22.8956 15.8828 22.1549L17.5765 20.7445C17.679 20.6595 17.8324 20.675 17.9153 20.7809C17.9953 20.883 17.9722 21.0326 17.8726 21.1155Z" fill="#FBA028"/>
<defs>
<filter id="filter0_d" x="0" y="0" width="40" height="40" filterUnits="userSpaceOnUse" color-interpolation-filters="sRGB">
<feFlood flood-opacity="0" result="BackgroundImageFix"/>
<feColorMatrix in="SourceAlpha" type="matrix" values="0 0 0 0 0 0 0 0 0 0 0 0 0 0 0 0 0 0 127 0"/>
<feOffset dy="2"/>
<feGaussianBlur stdDeviation="2"/>
<feColorMatrix type="matrix" values="0 0 0 0 0.188536 0 0 0 0 0.188536 0 0 0 0 0.188536 0 0 0 0.200889 0"/>
<feBlend mode="normal" in2="BackgroundImageFix" result="effect1_dropShadow"/>
<feBlend mode="normal" in="SourceGraphic" in2="effect1_dropShadow" result="shape"/>
</filter>
</defs>
</svg>
