<svg width="13" height="13" viewBox="0 0 13 13" fill="none" xmlns="http://www.w3.org/2000/svg">
<path d="M12.7983 6.05508C12.7143 5.40666 12.0391 4.9628 11.3928 5.20482C11.1508 5.29638 10.8596 5.16038 10.7503 4.91622C10.6197 4.62496 10.4596 4.34599 10.2733 4.08685C10.1073 3.85607 10.1389 3.55409 10.345 3.38382C10.5913 3.18143 10.7289 2.88214 10.7225 2.56354C10.7161 2.2396 10.5635 1.94138 10.3038 1.74434C9.87652 1.42094 9.4107 1.15162 8.91864 0.944405C8.78585 0.888713 8.64666 0.860352 8.50475 0.860352C7.99182 0.860352 7.55918 1.22498 7.47565 1.72722C7.43175 1.99118 7.1817 2.17055 6.90007 2.14003C6.58737 2.10683 6.26185 2.10683 5.94968 2.14003C5.66911 2.17055 5.418 1.99118 5.3741 1.72722C5.29057 1.22498 4.85796 0.860352 4.345 0.860352C4.20312 0.860352 4.0639 0.888738 3.93166 0.944405C3.43906 1.15162 2.97323 1.42039 2.54596 1.74434C2.28682 1.94138 2.13423 2.2396 2.1278 2.56301C2.12137 2.88214 2.25899 3.18091 2.50528 3.38435C2.71196 3.55409 2.74248 3.85607 2.57703 4.0863C2.3907 4.34544 2.23008 4.6244 2.09944 4.91567C1.99021 5.15982 1.72036 5.30331 1.45103 5.20211C1.33324 5.15822 1.21061 5.13573 1.0864 5.13573C0.563831 5.13573 0.119417 5.53087 0.0514262 6.05505C0.0176691 6.32064 0 6.5921 0 6.86035C0 7.1286 0.0176691 7.40006 0.0519282 7.66563C0.135455 8.31349 0.810095 8.75737 1.45743 8.51588C1.6989 8.42432 1.99071 8.56033 2.09994 8.80448C2.23058 9.09575 2.39068 9.37471 2.57701 9.63385C2.74298 9.86463 2.71141 10.1666 2.50525 10.3369C2.25896 10.5393 2.12135 10.8386 2.12777 11.1572C2.1342 11.4811 2.2868 11.7793 2.54649 11.9764C2.97376 12.2998 3.43958 12.5691 3.93163 12.7763C4.06443 12.832 4.20362 12.8604 4.34553 12.8604C4.85846 12.8604 5.2911 12.4957 5.37463 11.9935C5.41853 11.7295 5.66911 11.5528 5.95021 11.5807C6.26235 11.6139 6.5879 11.6139 6.9006 11.5807C7.18223 11.5523 7.43228 11.7295 7.47618 11.9935C7.5597 12.4957 7.99232 12.8598 8.50528 12.8604C8.64716 12.8604 8.78638 12.832 8.91862 12.7763C9.41067 12.5691 9.87704 12.3003 10.3038 11.9764C10.5629 11.7793 10.7161 11.4811 10.7225 11.1577C10.7289 10.8386 10.5913 10.5398 10.345 10.3364C10.1383 10.1666 10.1078 9.86463 10.2732 9.63441C10.4596 9.37527 10.6202 9.0963 10.7508 8.80503C10.8601 8.56035 11.1304 8.41739 11.3993 8.51859C11.517 8.56304 11.6397 8.58553 11.7639 8.58553C12.2864 8.58553 12.7309 8.19038 12.7989 7.6662C12.8326 7.39738 12.8503 7.12699 12.8503 6.86035C12.8503 6.59371 12.8326 6.32333 12.7983 6.05508ZM6.42514 9.00206C5.24399 9.00206 4.28343 8.0415 4.28343 6.86035C4.28343 5.6792 5.24399 4.71865 6.42514 4.71865C7.60628 4.71865 8.56684 5.6792 8.56684 6.86035C8.56684 8.0415 7.60628 9.00206 6.42514 9.00206Z" fill="#138175"/>
</svg>
