<svg width="454" height="301" viewBox="0 0 454 301" fill="none" xmlns="http://www.w3.org/2000/svg">
<path opacity="0.3" d="M4.51066 136.272C4.51066 136.272 -14.3948 90.4232 25.2032 55.8111C64.8013 21.1989 107.686 67.4989 144.508 65.7002C181.331 63.9016 206.036 -2.61497 256.2 0.079703C306.363 2.77438 328.706 51.2916 314.612 85.4655C300.517 119.64 294.875 173.625 309.839 202.134C324.804 230.644 357.496 209.028 378.49 232.423C399.483 255.819 335.834 299.136 335.834 299.136H207.993C207.993 299.136 181.808 258.35 165.731 258.494C149.653 258.638 35.7034 224.228 4.51066 136.272Z" fill="#61C1B8"/>
<path opacity="0.3" d="M278.366 105.25C278.366 105.25 322.815 49.6564 274.327 15.9599C225.839 -17.7366 199.667 53.1163 158.636 60.6051C117.604 68.094 36.0119 59.7091 37.2033 122.628C38.3947 185.548 81.8878 207.792 84.5849 238.473C87.2819 269.155 108.276 280.868 128.372 272.614C148.469 264.36 205.899 166.535 238.29 151.433C270.681 136.331 278.366 105.25 278.366 105.25Z" fill="#61C1B8"/>
<path opacity="0.3" d="M124.621 41.4296C124.621 41.4296 152.286 54.9356 158.138 38.6302C163.99 22.3248 108.4 32.3252 124.621 41.4296Z" fill="#61C1B8"/>
<path d="M208.177 285.532C208.177 285.532 198.095 250.442 172.362 238.44C174.084 245.792 172.978 289.07 186.764 299.116H217.08L208.177 285.532Z" fill="#61C1B8"/>
<g style="mix-blend-mode:overlay" opacity="0.25">
<path d="M206.684 281.241C206.684 281.241 198.881 286.984 198.514 293.079C184.257 286.375 179.131 287.193 179.131 287.193" stroke="black" stroke-width="1.79" stroke-linecap="round" stroke-linejoin="round"/>
</g>
<g style="mix-blend-mode:overlay" opacity="0.25">
<path d="M201.35 268.428C201.35 268.428 194.189 272.888 193.403 278.703C193.403 278.703 182.105 273.104 175.729 272.914" stroke="black" stroke-width="1.79" stroke-linecap="round" stroke-linejoin="round"/>
</g>
<g style="mix-blend-mode:overlay" opacity="0.25">
<path d="M192.912 255.282C192.912 255.282 188.33 257.074 187.884 261.764C183.484 260.043 178.81 259.128 174.085 259.063" stroke="black" stroke-width="1.79" stroke-linecap="round" stroke-linejoin="round"/>
</g>
<g style="mix-blend-mode:overlay" opacity="0.25">
<path d="M201.35 299.169C199.628 296.265 195.458 286.356 190.411 268.815C185.364 251.273 172.344 238.474 172.344 238.474" stroke="black" stroke-width="1.79" stroke-linecap="round" stroke-linejoin="round"/>
</g>
<path d="M236.137 299.149C236.137 299.149 236.261 277.644 207.124 268.409C202.947 285.598 214.868 299.149 214.868 299.149H236.137Z" fill="#138175"/>
<g style="mix-blend-mode:overlay" opacity="0.25">
<path d="M207.123 268.428C207.123 268.428 225.734 292.575 225.59 299.168" stroke="black" stroke-width="1.79" stroke-linecap="round" stroke-linejoin="round"/>
</g>
<g style="mix-blend-mode:overlay" opacity="0.25">
<path d="M232.968 288.023C232.968 288.023 225.767 289.986 224.575 295.303C220.326 294.02 215.854 293.643 211.45 294.198" stroke="black" stroke-width="1.79" stroke-linecap="round" stroke-linejoin="round"/>
</g>
<g style="mix-blend-mode:overlay" opacity="0.25">
<path d="M225.78 278.704C225.78 278.704 219.954 282.118 219.594 286.199C210.501 283.099 207.464 284.767 207.464 284.767" stroke="black" stroke-width="1.79" stroke-linecap="round" stroke-linejoin="round"/>
</g>
<g style="mix-blend-mode:overlay" opacity="0.25">
<path d="M217.69 272.91C217.69 272.91 214.646 275.454 214.266 278.201C211.666 277.485 208.964 277.213 206.273 277.397" stroke="black" stroke-width="1.79" stroke-linecap="round" stroke-linejoin="round"/>
</g>
<path d="M100.48 180.015C100.48 180.015 95.0795 166.234 91.3154 160.236C87.5513 154.239 87.8656 146.75 84.8674 139.863C81.8692 132.976 76.0235 131.027 74.3934 124.434C73.313 120.328 71.3717 116.498 68.6982 113.197C68.6982 113.197 211.072 87.8073 233.342 87.6896C255.612 87.5719 262.8 165.521 262.8 165.521L115.51 195.149L100.48 180.015Z" fill="white"/>
<path d="M150.82 155.539L148.607 148.43C148.409 147.774 147.979 147.213 147.397 146.852C146.815 146.491 146.121 146.354 145.445 146.468L133.204 148.999C132.513 149.139 131.794 149.01 131.195 148.638C130.597 148.266 130.163 147.679 129.983 146.998L129.04 143.237C128.938 142.847 128.938 142.437 129.04 142.046L136.595 114.433C136.706 114.088 136.919 113.786 137.205 113.564C137.491 113.342 137.837 113.212 138.199 113.19L143.134 112.608C143.703 112.541 144.278 112.662 144.771 112.953C145.264 113.243 145.648 113.687 145.864 114.217L152.901 134.63C153.115 135.227 153.529 135.733 154.073 136.06C154.617 136.388 155.258 136.518 155.886 136.428C156.517 136.342 157.159 136.474 157.704 136.802C158.25 137.131 158.666 137.636 158.885 138.233L159.906 141.046C160.033 141.316 160.096 141.612 160.091 141.911C160.087 142.21 160.013 142.503 159.878 142.77C159.742 143.036 159.547 143.268 159.308 143.447C159.069 143.627 158.792 143.749 158.498 143.806C158.202 143.873 157.924 144.005 157.684 144.192C157.444 144.379 157.248 144.616 157.11 144.887C156.972 145.157 156.895 145.455 156.885 145.759C156.875 146.063 156.932 146.365 157.052 146.644L159.428 153.545C159.557 153.845 159.619 154.169 159.612 154.495C159.605 154.821 159.529 155.142 159.387 155.436C159.246 155.731 159.043 155.991 158.793 156.201C158.542 156.41 158.25 156.564 157.935 156.651L154.086 157.58C153.385 157.707 152.662 157.569 152.058 157.191C151.453 156.814 151.012 156.225 150.82 155.539ZM143.102 138.776C143.4 138.729 143.684 138.618 143.934 138.45C144.184 138.282 144.395 138.061 144.551 137.803C144.707 137.545 144.804 137.256 144.837 136.956C144.869 136.657 144.835 136.354 144.738 136.068L142.598 129.221C141.891 126.958 141.373 124.466 140.889 122.242H140.666C140.339 124.675 140.012 126.716 139.469 129.286L137.164 139.692L137.204 139.836L143.102 138.776Z" fill="#20B58D"/>
<path d="M182.169 127.017C189.101 141.864 187.17 150.216 180.428 151.87C170.942 154.179 163.139 142.897 158.897 131.477C154.557 119.783 155.022 110.737 163.054 109.802C171.656 108.795 177.973 118.03 182.169 127.017ZM167.303 129.796C171.27 139.843 174.418 144.369 177.286 143.741C179.832 143.185 178.634 138.116 174.477 128.554C170.838 120.188 168.062 115.656 165.587 115.989C163.113 116.323 163.512 120.574 167.303 129.796Z" fill="#20B58D"/>
<path d="M205.952 142.648L202.889 136.834C202.299 135.722 201.043 134.99 200.067 135.192L191.118 137.043C190.524 137.097 189.928 136.963 189.413 136.66C188.899 136.358 188.493 135.901 188.251 135.356L186.765 132.236C186.616 131.933 186.537 131.6 186.536 131.262L186.837 108.37C186.837 108.1 186.942 107.84 187.13 107.646C187.319 107.452 187.575 107.338 187.845 107.33L191.609 106.892C192.11 106.878 192.606 107 193.042 107.247C193.478 107.494 193.838 107.855 194.084 108.291L203.596 125.526C203.847 126.011 204.234 126.415 204.708 126.687C205.183 126.96 205.726 127.09 206.273 127.063C207.183 126.892 208.381 127.579 208.957 128.606L210.266 130.948C210.862 132.001 210.607 133.008 209.684 133.198C208.761 133.387 208.486 134.421 209.088 135.506L212.223 141.183C212.878 142.328 212.597 143.446 211.641 143.675L208.833 144.329C207.877 144.584 206.568 143.819 205.952 142.648ZM196.788 128.822C197.75 128.645 198.097 127.651 197.534 126.611L194.523 120.895C193.521 118.998 192.624 116.905 191.806 115.008H191.642C191.871 117.043 192.015 118.75 192.107 120.895L192.382 129.469L192.441 129.587L196.788 128.822Z" fill="#20B58D"/>
<path d="M226.703 281.156L225.197 299.149H325.701L321.204 283.347C321.204 283.347 229.976 279.979 226.703 281.156Z" fill="#2B5250"/>
<path d="M328.066 287.998C314.148 302.537 269.549 300.81 244.857 294.466C235.843 292.151 229.48 289.234 228.229 286.238C225.886 280.685 225.735 274.047 226.318 267.362C226.901 260.678 228.229 253.837 228.819 248.094C229.061 244.98 229.09 241.853 228.904 238.735C228.504 229.748 227.149 218.531 226.285 212.128C225.866 208.995 225.572 207.013 225.572 207.013C225.572 207.013 200.565 237.799 192.801 244.706C191.662 245.726 190.89 246.224 190.628 246.014C189.672 245.36 187.355 236.472 185.28 227.099C182.884 216.373 180.763 204.973 181.234 204.351C181.288 204.265 181.336 204.176 181.378 204.083C183.453 199.825 203.688 149.209 207.956 140.687C210.057 136.494 217.886 128.914 225.506 122.112C230.396 117.749 235.201 113.72 238.356 111.117C240.608 109.26 242.022 108.122 242.022 108.122C242.022 108.122 250.532 100.79 257.583 98.7359C264.633 96.6822 274.321 96.6822 274.321 96.6822C277.086 96.6509 279.846 96.9096 282.556 97.454C286.215 98.1774 289.73 99.4918 292.965 101.346C314.365 113.616 321.074 147.783 323.883 173.945C325.336 187.477 325.742 198.831 326.606 203.835C329.532 220.814 334.52 281.241 328.066 287.998Z" fill="#FFAB2F"/>
<path d="M267.571 95.2364L266.916 95.6092C263.414 97.5713 247.075 106.506 247.605 102.575C247.978 99.782 245.982 97.2247 244.476 95.7269C243.985 95.2346 243.46 94.7778 242.905 94.3599C242.905 94.3599 240.561 97.5844 237.635 96.1455C230.081 92.3716 225.387 83.2935 222.959 77.1193C222.343 75.5626 221.872 74.1891 221.538 73.1296C224.916 72.5802 227.155 71.3179 228.084 71.9327C229.845 73.1034 230.434 76.0401 232.195 76.0401C233.956 76.0401 232.195 69.2903 235.423 67.5375C238.283 65.9808 242.983 77.0735 239.54 80.4484C239.385 80.6048 239.266 80.7938 239.193 81.0017C239.12 81.2097 239.094 81.4312 239.117 81.6504C239.14 81.8696 239.212 82.0809 239.327 82.2689C239.442 82.457 239.598 82.617 239.782 82.7375C251.33 90.3964 259.323 87.6233 261.267 84.8501C261.466 85.0476 261.685 85.223 261.922 85.3733C263.375 90.8412 267.571 95.2364 267.571 95.2364Z" fill="url(#paint0_linear)"/>
<g style="mix-blend-mode:overlay" opacity="0.25">
<path d="M267.571 95.2367L266.917 95.6095C265.123 96.0346 262.95 96.4205 261.575 95.3151C255.029 90.0828 248.443 96.3289 244.476 95.7272C243.986 95.2349 243.461 94.7781 242.905 94.3602C243.56 90.6583 242.853 89.481 238.657 85.8118C234.461 82.1426 238.205 79.9843 238.794 77.9306C239.383 75.8769 237.911 70.5987 236.444 70.5987C234.978 70.5987 234.683 77.9306 232.333 77.6428C229.983 77.355 228.811 74.7061 226.167 75.0266C225.106 75.1443 223.947 76.0665 222.946 77.1261C222.331 75.5695 221.859 74.196 221.525 73.1364C224.903 72.587 227.142 71.3247 228.072 71.9395C229.833 73.1103 230.422 76.0469 232.183 76.0469C233.944 76.0469 232.183 69.2972 235.41 67.5443C238.271 65.9877 242.971 77.0803 239.527 80.4552C239.372 80.6116 239.253 80.8007 239.18 81.0086C239.107 81.2165 239.081 81.4381 239.104 81.6573C239.127 81.8765 239.199 82.0877 239.314 82.2758C239.429 82.4638 239.585 82.6239 239.77 82.7444C251.317 90.4033 259.31 87.6301 261.254 84.8569C261.453 85.0545 261.673 85.2299 261.909 85.3802C263.375 90.8415 267.571 95.2367 267.571 95.2367Z" fill="black"/>
</g>
<path d="M272.213 60.1742C271.775 68.0621 264.79 78.1867 264.79 80.6982C264.79 84.5113 267.14 85.1 267.14 85.1C267.14 85.1 264.207 86.807 261.903 85.3289C261.666 85.1786 261.447 85.0032 261.248 84.8057C259.284 87.5788 251.311 90.3585 239.764 82.6931C239.579 82.5726 239.423 82.4125 239.308 82.2245C239.193 82.0365 239.121 81.8252 239.098 81.606C239.075 81.3868 239.101 81.1652 239.174 80.9573C239.247 80.7494 239.366 80.5603 239.521 80.4039C242.965 77.029 238.265 65.9364 235.404 67.493C232.177 69.2524 233.937 75.9956 232.177 75.9956C230.416 75.9956 229.826 73.059 228.066 71.8882C227.136 71.2669 224.897 72.5423 221.519 73.0851C217.51 73.7406 213.397 73.0092 209.861 71.0118C204.126 67.9836 201.206 60.8872 201.861 54.0654C202.058 51.4549 202.856 48.9251 204.193 46.6731C205.529 44.4212 207.368 42.508 209.566 41.0826C209.037 43.875 209.449 46.7639 210.738 49.2974C210.738 49.2974 211.327 34.0385 220.721 31.697C220.21 32.852 219.947 34.1005 219.947 35.363C219.947 36.6254 220.21 37.874 220.721 39.0289C220.721 39.0289 229.826 25.5359 244.215 27.9101C254.689 29.6106 260.011 35 262.76 40.1473C264.558 43.5203 265.548 47.2634 265.654 51.083C270.884 52.5873 272.436 56.0865 272.213 60.1742Z" fill="#2B5250"/>
<path d="M242.323 108.148C242.323 108.148 241.439 104.04 242.912 101.398C244.385 98.7556 259.932 91.718 266.111 91.1294C272.291 90.5407 274.039 94.6482 274.334 96.7019C261.699 96.4141 242.323 108.148 242.323 108.148Z" fill="#EC8120"/>
<path d="M192.814 244.712C192.814 246.02 192.578 246.779 192.08 246.844C188.572 247.283 179.904 250.867 178.045 248.591C177.666 248.133 177.168 246.236 176.625 243.483C175.859 239.624 175.008 234.071 174.262 228.44C172.952 218.341 171.957 207.929 172.494 206.261C172.551 206.076 172.633 205.901 172.736 205.738C174.386 203.082 181.214 203.847 181.214 203.847L181.397 204.129C183.361 207.268 186.241 215.62 188.644 224.116C190.981 232.416 192.84 240.873 192.814 244.712Z" fill="#FF9623"/>
<path d="M176.618 243.484C173.683 243.097 170.802 242.38 168.029 241.345C164.638 240.089 154.001 232.188 142.63 223.333C138.957 220.474 135.207 217.518 131.606 214.66C120.275 205.667 110.37 197.602 108.694 196.458C104.878 193.842 99.0059 193.233 96.0667 187.654C93.1274 182.075 95.7721 169.171 96.0667 168.877C96.3613 168.582 101.958 178.262 102.822 178.262C103.686 178.262 104.583 169.459 106.344 170.342C108.105 171.225 112.805 187.066 115.738 189.119C117.224 190.153 132.379 194.555 147.036 198.655C157.653 201.625 167.983 204.444 172.71 205.713C172.606 205.876 172.525 206.051 172.468 206.236C171.937 207.904 172.913 218.316 174.235 228.415C175.001 234.072 175.859 239.618 176.618 243.484Z" fill="url(#paint1_linear)"/>
<path d="M176.618 243.484C173.683 243.097 170.802 242.38 168.029 241.345C164.638 240.089 154 232.188 142.63 223.332C137.569 211.978 143.415 202.848 147.055 198.655C157.673 201.625 168.003 204.444 172.729 205.712C172.626 205.875 172.544 206.051 172.487 206.236C171.656 208.852 174.49 232.718 176.618 243.484Z" fill="url(#paint2_linear)"/>
<g style="mix-blend-mode:overlay" opacity="0.25">
<path d="M267.133 85.1182C267.133 85.1182 264.2 86.8252 261.896 85.3471C261.66 85.1968 261.44 85.0213 261.241 84.8238C259.278 87.597 251.304 90.3767 239.757 82.7113C239.572 82.5908 239.417 82.4307 239.301 82.2427C239.186 82.0546 239.115 81.8434 239.091 81.6242C239.068 81.405 239.094 81.1834 239.167 80.9755C239.241 80.7675 239.359 80.5785 239.515 80.4221C242.958 77.0472 238.258 65.9546 235.397 67.5112C232.17 69.2706 233.931 76.0138 232.17 76.0138C230.409 76.0138 229.82 73.0772 228.059 71.9064C227.129 71.2851 224.89 72.5604 221.512 73.1033C217.503 73.7588 213.39 73.0273 209.854 71.03C204.119 68.0017 201.2 60.9053 201.854 54.0836C202.391 55.5029 205.455 62.0172 217.022 62.9983C212.826 60.6045 214.325 52.1084 214.325 52.1084C214.325 52.1084 217.925 56.9026 227.319 57.6482C236.713 58.3938 240.254 55.5945 247.73 59.9046C255.206 64.2148 254.001 68.198 254.001 68.198C254.44 66.8508 254.549 65.4185 254.322 64.0203C254.094 62.6222 253.535 61.2986 252.692 60.1597C258.387 61.906 258.152 70.6245 258.152 70.6245C258.152 70.6245 260.489 65.6341 264.285 64.7381C264.756 64.5866 265.253 64.5366 265.744 64.5916C266.235 64.6465 266.709 64.8051 267.134 65.0568C267.56 65.3084 267.926 65.6475 268.211 66.0514C268.495 66.4554 268.69 66.9151 268.783 67.4C270.571 65.3713 271.745 62.876 272.167 60.2055C271.729 68.0933 264.744 78.218 264.744 80.7295C264.783 84.5295 267.133 85.1182 267.133 85.1182Z" fill="black"/>
</g>
<g style="mix-blend-mode:overlay" opacity="0.25">
<path d="M262.773 40.1459C258.001 33.3176 247.894 30.4594 239.286 31.0939C246.683 33.8409 246.532 38.5892 246.532 38.5892C246.532 38.5892 244.333 32.8075 236.189 32.7028C228.046 32.5982 224.406 35.3975 223.594 38.5892C222.783 41.781 225.048 45.4371 225.048 45.4371C225.048 45.4371 221.545 45.1362 219.653 39.7927C217.762 34.4491 220.747 31.7283 220.747 31.7283C220.236 32.8832 219.973 34.1318 219.973 35.3942C219.973 36.6567 220.236 37.9052 220.747 39.0602C220.747 39.0602 229.852 25.5672 244.241 27.9414C254.656 29.6092 260.031 34.9985 262.773 40.1459Z" fill="white"/>
</g>
<g style="mix-blend-mode:overlay" opacity="0.25">
<path d="M226.291 212.135C225.872 209.002 225.577 207.02 225.577 207.02C225.577 207.02 200.571 237.806 192.807 244.713C192.807 246.021 192.571 246.78 192.074 246.845C188.565 247.283 179.898 250.867 178.039 248.591C177.659 248.133 177.162 246.237 176.618 243.483C173.684 243.097 170.802 242.379 168.03 241.344C164.639 240.089 154.001 232.188 142.63 223.332C138.958 220.474 135.207 217.518 131.606 214.659C142.434 218.551 162.956 225.726 174.262 228.394C177.437 229.146 179.885 229.552 181.181 229.421C182.163 229.33 183.577 228.499 185.292 227.099C186.307 226.275 187.433 225.255 188.631 224.071C201.52 211.389 223.738 180.093 223.738 173.389C223.738 165.475 238.67 184.9 226.291 212.135Z" fill="black"/>
</g>
<path d="M352.496 282.55C352.496 282.55 364.79 239.749 396.179 225.145C394.078 234.112 395.426 286.906 378.635 299.163H341.597L352.496 282.55Z" fill="#20B58D"/>
<g style="mix-blend-mode:overlay" opacity="0.25">
<path d="M396.178 225.131C396.178 225.131 380.284 240.743 374.137 262.137C367.99 283.531 362.89 295.624 360.789 299.162" stroke="black" stroke-width="1.79" stroke-linecap="round" stroke-linejoin="round"/>
</g>
<g style="mix-blend-mode:overlay" opacity="0.25">
<path d="M354.283 277.278C354.283 277.278 363.801 284.283 364.247 291.72C381.64 283.538 387.891 284.525 387.891 284.525" stroke="black" stroke-width="1.79" stroke-linecap="round" stroke-linejoin="round"/>
</g>
<g style="mix-blend-mode:overlay" opacity="0.25">
<path d="M360.789 261.666C360.789 261.666 369.522 267.114 370.477 274.198C370.477 274.198 384.225 267.369 392.015 267.134" stroke="black" stroke-width="1.79" stroke-linecap="round" stroke-linejoin="round"/>
</g>
<g style="mix-blend-mode:overlay" opacity="0.25">
<path d="M371.079 245.629C371.079 245.629 376.689 247.813 377.213 253.536C382.583 251.446 388.287 250.338 394.05 250.266" stroke="black" stroke-width="1.79" stroke-linecap="round" stroke-linejoin="round"/>
</g>
<path d="M318.357 299.149C318.357 299.149 318.207 272.915 353.746 261.672C358.846 282.641 344.3 299.168 344.3 299.168L318.357 299.149Z" fill="#138175"/>
<g style="mix-blend-mode:overlay" opacity="0.25">
<path d="M353.745 261.666C353.745 261.666 331.043 291.098 331.22 299.163" stroke="black" stroke-width="1.79" stroke-linecap="round" stroke-linejoin="round"/>
</g>
<g style="mix-blend-mode:overlay" opacity="0.25">
<path d="M322.219 285.577C322.219 285.577 331.036 287.997 332.457 294.453C337.641 292.887 343.096 292.428 348.469 293.105" stroke="black" stroke-width="1.79" stroke-linecap="round" stroke-linejoin="round"/>
</g>
<g style="mix-blend-mode:overlay" opacity="0.25">
<path d="M330.985 274.204C330.985 274.204 338.088 278.37 338.533 283.361C349.622 279.58 353.328 281.608 353.328 281.608" stroke="black" stroke-width="1.79" stroke-linecap="round" stroke-linejoin="round"/>
</g>
<g style="mix-blend-mode:overlay" opacity="0.25">
<path d="M340.857 267.141C340.857 267.141 344.576 270.241 345.04 273.596C348.211 272.723 351.507 272.391 354.788 272.615" stroke="black" stroke-width="1.79" stroke-linecap="round" stroke-linejoin="round"/>
</g>
<path d="M117.8 275.257C117.8 275.257 125.001 200.912 39.3047 213.044C40.6532 247.886 77.7637 274.545 117.8 275.257Z" fill="#20B58D"/>
<g style="mix-blend-mode:overlay" opacity="0.25">
<path d="M39.2842 213.045C39.2842 213.045 69.8747 250.555 117.106 273.564" stroke="black" stroke-width="1.79" stroke-linecap="round" stroke-linejoin="round"/>
</g>
<g style="mix-blend-mode:overlay" opacity="0.25">
<path d="M47.1406 238.473L63.9775 237.819C63.9775 237.819 64.0626 220.52 67.9052 212.312" stroke="black" stroke-width="1.79" stroke-linecap="round" stroke-linejoin="round"/>
</g>
<g style="mix-blend-mode:overlay" opacity="0.25">
<path d="M60.3574 253.928L82.6146 252.208C82.6146 252.208 81.3053 222.482 84.1398 216.157" stroke="black" stroke-width="1.79" stroke-linecap="round" stroke-linejoin="round"/>
</g>
<g style="mix-blend-mode:overlay" opacity="0.25">
<path d="M78.2158 265.714L98.1032 263.098C98.1032 263.098 98.7251 231.992 102.751 228.434" stroke="black" stroke-width="1.79" stroke-linecap="round" stroke-linejoin="round"/>
</g>
<path d="M117.801 275.257C117.801 275.257 98.5352 258.513 117.801 229.153C132.896 243.837 136.471 267.579 117.801 275.257Z" fill="#138175"/>
<g style="mix-blend-mode:overlay" opacity="0.25">
<path d="M117.801 229.153C117.801 229.153 125.656 242.11 117.801 275.257" stroke="black" stroke-width="1.79" stroke-linecap="round" stroke-linejoin="round"/>
</g>
<g style="mix-blend-mode:overlay" opacity="0.25">
<path d="M111.209 242.463C111.209 242.463 119.326 245.785 121.303 247.957C126.501 244.36 127.705 243.483 127.705 243.483" stroke="black" stroke-width="1.79" stroke-linecap="round" stroke-linejoin="round"/>
</g>
<g style="mix-blend-mode:overlay" opacity="0.25">
<path d="M109.297 252.202C109.297 252.202 119.627 256.323 120.779 258.206C126.049 254.321 130.494 253.798 130.494 253.798" stroke="black" stroke-width="1.79" stroke-linecap="round" stroke-linejoin="round"/>
</g>
<g style="mix-blend-mode:overlay" opacity="0.25">
<path d="M109.984 261.116C109.984 261.116 118.606 265.296 119.424 267.375C122.142 264.726 125.727 263.146 129.518 262.928" stroke="black" stroke-width="1.79" stroke-linecap="round" stroke-linejoin="round"/>
</g>
<path d="M77.2747 299.244C67.7009 293.656 66.5868 288.364 69.4416 280.453C73.2363 269.782 88.1193 268.625 90.5476 268.486H90.7129C91.6613 268.44 92.5786 268.133 93.3636 267.599C94.1487 267.065 94.7709 266.325 95.1617 265.46C95.5525 264.594 95.6965 263.638 95.5781 262.696C95.4596 261.754 95.0831 260.863 94.4902 260.122L93.3849 258.738C82.4968 245.082 80.4341 241.435 81.4176 237.954C82.6535 233.602 88.1367 231.565 89.6076 230.991C105.396 225.22 125.431 242.392 133.073 248.946C135.684 251.209 138.016 253.411 140.036 255.456C140.319 255.748 140.684 255.948 141.083 256.029C141.481 256.111 141.895 256.071 142.271 255.914C142.646 255.757 142.966 255.491 143.188 255.15C143.41 254.81 143.525 254.41 143.517 254.003C143.504 252.61 143.71 251.224 144.126 249.895C145.327 246.039 148.313 242.549 151.681 241.392C154.101 240.521 160.715 239.546 176.251 255.883C185.068 265.152 196.687 275.849 206.383 299.244C164.205 299.496 119.374 299.035 77.2747 299.244Z" fill="#138175"/>
<path d="M148.696 297.067C145.501 294.108 143.909 290.104 142.246 286.214C138.885 278.29 134.495 270.842 129.191 264.063C128.478 261.576 127.576 259.146 126.493 256.796C125.913 255.531 125.272 254.286 124.569 253.062C123.96 251.983 123.29 250.451 122.211 249.79C121.793 249.528 121.384 249.964 121.454 250.373C121.607 250.997 121.876 251.587 122.246 252.113C122.585 252.697 122.933 253.28 123.264 253.854C123.937 255.015 124.564 256.213 125.144 257.449C125.724 258.685 126.27 259.915 126.78 261.139C124.912 258.859 122.933 256.689 120.844 254.629C117.394 251.211 113.684 248.065 109.747 245.22C109.112 244.759 108.538 245.795 109.138 246.256C120.858 255.142 130.497 266.48 137.381 279.477C135.684 278.22 133.865 277.138 131.95 276.248C130.816 275.722 129.653 275.257 128.469 274.856C127.529 274.542 125.901 273.794 124.987 274.316C124.931 274.349 124.881 274.392 124.841 274.444C124.801 274.495 124.772 274.554 124.755 274.618C124.738 274.681 124.733 274.746 124.742 274.811C124.751 274.876 124.772 274.938 124.804 274.995C125.44 275.865 126.998 275.952 127.972 276.248C129.157 276.608 130.32 277.039 131.454 277.536C133.729 278.543 135.891 279.789 137.903 281.253C137.981 281.303 138.072 281.33 138.164 281.33C138.257 281.33 138.348 281.303 138.425 281.253C139.244 282.883 140.015 284.54 140.741 286.222C142.533 290.391 144.126 295.1 147.799 298.024C148.391 298.625 149.392 297.711 148.696 297.067Z" fill="#2B5250"/>
<path d="M180.812 299.175C175.181 296.111 171.534 290.471 168.967 284.779C166.182 278.6 164.615 271.968 161.786 265.797C161.007 264.058 160.106 262.377 159.088 260.766C158.135 259.074 156.891 257.563 155.415 256.301C154.893 255.901 154.197 256.667 154.545 257.172C155.476 258.616 156.669 259.878 157.609 261.332C158.54 262.79 159.374 264.308 160.107 265.875C160.429 266.554 160.733 267.241 161.02 267.929C159.402 267.065 157.695 266.379 155.929 265.884C154.955 265.611 153.963 265.404 152.961 265.266C152.002 265.043 151.004 265.043 150.045 265.266C149.697 265.388 149.506 265.979 149.923 266.136C150.75 266.4 151.607 266.552 152.474 266.589C153.463 266.712 154.444 266.886 155.415 267.111C157.332 267.568 159.185 268.258 160.933 269.165C161.022 269.221 161.125 269.25 161.229 269.25C161.334 269.25 161.437 269.221 161.525 269.165C162.396 271.332 163.161 273.517 163.927 275.736C166.06 281.898 168.236 288.165 172.283 293.369C174.405 296.18 177.176 298.434 180.36 299.941C180.899 300.202 181.334 299.497 180.812 299.175Z" fill="#2B5250"/>
<path d="M113.369 298.773C111.271 296.336 108.93 294.091 106.658 291.811C104.736 289.828 102.701 287.957 100.566 286.206C98.4854 284.484 96.2028 283.022 93.7683 281.854C91.4706 280.809 88.7377 279.808 86.1789 280.113C85.5609 280.183 85.3085 281.131 86.0222 281.288C87.319 281.575 88.6332 281.723 89.9213 282.08C91.1342 282.413 92.3142 282.855 93.4463 283.403C94.5799 283.954 95.676 284.579 96.7275 285.274C94.9346 285.1 93.1243 285.022 91.3227 284.926L87.554 284.717C86.44 284.656 85.03 284.343 83.9943 284.813C83.9225 284.861 83.8636 284.925 83.8228 285.001C83.7821 285.077 83.7607 285.162 83.7607 285.248C83.7607 285.334 83.7821 285.419 83.8228 285.495C83.8636 285.571 83.9225 285.636 83.9943 285.683C84.9168 286.232 86.3529 286.075 87.3974 286.127L91.166 286.319C93.6291 286.449 96.1009 286.632 98.564 286.536C99.0456 286.896 99.5185 287.267 99.9826 287.65C104.474 291.315 108.234 295.736 112.603 299.522C112.708 299.575 112.827 299.594 112.944 299.576C113.061 299.558 113.169 299.504 113.253 299.422C113.338 299.339 113.394 299.232 113.415 299.116C113.436 299 113.419 298.88 113.369 298.773Z" fill="#2B5250"/>
<path fill-rule="evenodd" clip-rule="evenodd" d="M443.587 267.021C434.53 283.702 423.476 288.968 410.427 282.817L443.587 267.021Z" fill="#95DC8F"/>
<path fill-rule="evenodd" clip-rule="evenodd" d="M387.711 266.474C384.554 280.301 384.444 291.476 387.38 300H396.554C393.316 287.803 390.368 276.628 387.711 266.474Z" fill="#95DC8F"/>
<path fill-rule="evenodd" clip-rule="evenodd" d="M394.309 244.797C391.234 269.167 395.794 283.498 407.991 287.792L394.309 244.797Z" fill="#95DC8F"/>
<path fill-rule="evenodd" clip-rule="evenodd" d="M406.781 299.82L439.698 204.194C439.813 203.848 439.786 203.47 439.623 203.144C439.46 202.817 439.174 202.569 438.827 202.453C438.481 202.338 438.103 202.365 437.777 202.528C437.45 202.691 437.202 202.978 437.087 203.324L403.883 299.82H406.781Z" fill="#95DC8F"/>
<path fill-rule="evenodd" clip-rule="evenodd" d="M428.251 233.159L429.531 229.434C429.102 214.76 429.102 200.834 429.531 187.657C420.294 210.774 419.867 225.941 428.251 233.159Z" fill="#95DC8F"/>
<path fill-rule="evenodd" clip-rule="evenodd" d="M421.246 253.613L422.116 251.063C416.511 242.812 413.102 230.464 411.889 214.021C406.551 239.116 409.67 252.313 421.246 253.613Z" fill="#95DC8F"/>
<path fill-rule="evenodd" clip-rule="evenodd" d="M450.298 173.976C446.382 200.034 441.009 212.686 434.179 211.932C433.083 198.232 438.456 185.58 450.298 173.976Z" fill="#95DC8F"/>
<path fill-rule="evenodd" clip-rule="evenodd" d="M453.797 217.066C445.511 242.707 435.746 251.732 424.501 244.143C437.812 239.263 447.577 230.238 453.797 217.066Z" fill="#95DC8F"/>
<path fill-rule="evenodd" clip-rule="evenodd" d="M440.846 257.007C431.104 269.54 422.555 274.263 415.197 271.176L440.846 257.007Z" fill="#95DC8F"/>
<path fill-rule="evenodd" clip-rule="evenodd" d="M439.148 290.907C438.255 293.995 437.09 296.998 435.667 299.881H427.294C432.661 296.689 436.612 293.698 439.148 290.907Z" fill="#BAD491"/>
<path fill-rule="evenodd" clip-rule="evenodd" d="M426.971 288.862C423.812 286.321 420.835 284.676 419.068 285.476C418.93 285.539 418.823 285.654 418.769 285.796C418.715 285.938 418.719 286.095 418.781 286.234L418.842 286.338C419.785 288.137 420.535 290.03 421.079 291.987C421.653 293.727 422.271 295.642 423.081 297.522C423.42 298.311 423.813 299.076 424.256 299.811H437.99C434.623 295.866 430.938 292.204 426.971 288.862Z" fill="#138175"/>
<path fill-rule="evenodd" clip-rule="evenodd" d="M386.197 293.031C385.008 290.754 383.692 288.546 382.254 286.417C382.15 286.394 382.048 286.362 381.95 286.321C381.079 285.973 380.209 284.719 379.547 283.779C379.339 283.483 379.156 283.222 379.025 283.057C378.512 282.422 377.876 281.656 377.224 280.864C370.722 273.031 362.549 263.152 367.832 251.133C367.86 251.036 367.909 250.946 367.976 250.872C368.043 250.797 368.127 250.739 368.221 250.702C368.314 250.664 368.415 250.65 368.515 250.658C368.615 250.666 368.712 250.698 368.799 250.75C369.39 251.011 370.217 252.551 370.861 253.744C371.114 254.214 371.34 254.614 371.479 254.849C372.917 256.947 374.521 258.926 376.275 260.767C379.06 263.848 381.836 266.929 383.238 271.011C383.82 273.549 384.112 276.145 384.108 278.749C384.186 281.543 384.056 284.249 383.603 285.372C383.521 285.588 383.406 285.791 383.264 285.973C384.666 288.065 385.953 290.233 387.119 292.466C387.668 293.519 388.155 294.554 388.573 295.547C388.683 294.357 388.86 293.118 389.104 291.83C389.538 289.606 390.12 287.414 390.845 285.268C391.959 278.888 392.159 273.335 391.332 268.505C391.187 267.646 391.007 266.81 390.792 265.998C389.874 262.375 388.141 259.008 385.727 256.154C385.646 256.053 385.603 255.927 385.603 255.798C385.603 255.668 385.646 255.542 385.727 255.441C383.777 253.126 379.33 239.583 381.741 228.538C382.907 223.186 384.83 218.312 385.222 214.778C389.078 215.822 389.8 238.721 389.661 243.23C389.379 247.416 388.32 251.513 386.536 255.31C386.578 255.34 386.617 255.375 386.649 255.415C388.697 257.825 390.276 260.597 391.306 263.587C391.732 261.768 392.246 259.914 392.829 258.095C393.209 253.571 393.285 249.026 393.055 244.492C392.864 238.016 392.672 231.715 394.509 224.474C393.786 223.804 393.525 221.863 393.334 220.461C393.282 220.061 393.229 219.695 393.177 219.426C392.959 218.294 392.742 217.259 392.524 216.197C390.166 204.673 387.198 190.173 397.198 180.025C397.257 179.947 397.334 179.884 397.421 179.841C397.509 179.798 397.605 179.775 397.703 179.775C397.801 179.775 397.897 179.798 397.984 179.841C398.072 179.884 398.148 179.947 398.208 180.025C398.678 180.495 398.747 182.636 398.8 184.255C398.8 184.89 398.8 185.447 398.869 185.761C399.245 188.716 399.826 191.642 400.61 194.516C401.741 199.155 402.873 203.794 402.351 208.825C401.765 211.784 400.89 214.679 399.74 217.467C398.582 220.47 397.276 223.273 396.38 224.239C396.178 224.475 395.925 224.663 395.64 224.787C393.839 231.889 394.021 238.112 394.213 244.501C394.309 247.608 394.404 250.758 394.274 254.074C395.04 252.073 395.867 250.184 396.719 248.487C396.593 248.285 396.499 248.065 396.441 247.834C396.084 246.572 396.206 243.36 396.554 240.001C396.812 236.833 397.357 233.696 398.182 230.627C400.027 225.536 403.151 221.41 406.276 217.285C408.286 214.743 410.137 212.081 411.82 209.312C411.994 209.016 412.264 208.442 412.577 207.859C413.387 206.249 414.44 204.151 415.075 203.951C415.163 203.91 415.26 203.892 415.357 203.895C415.454 203.899 415.549 203.926 415.634 203.974C415.719 204.021 415.791 204.088 415.845 204.169C415.899 204.249 415.934 204.342 415.945 204.438C420.184 217.955 410.915 231.062 403.552 241.472C402.908 242.342 402.281 243.265 401.498 244.396C401.332 244.631 401.123 244.971 400.88 245.362C400.009 246.729 398.869 248.6 397.886 248.844H397.799C396.503 251.448 395.387 254.138 394.457 256.894C393.449 259.817 392.635 262.803 392.02 265.833C392.228 266.639 392.405 267.469 392.55 268.322C393.172 272.332 393.246 276.408 392.768 280.437C393.076 279.706 393.4 278.966 393.743 278.218C393.63 277.008 394.387 273.657 395.579 270.071C396.586 266.925 397.91 263.889 399.531 261.011C400.819 258.896 404.413 255.006 408.138 251.307C413.065 246.415 418.356 241.872 419.009 242.046C419.097 242.07 419.177 242.115 419.244 242.177C419.316 242.243 419.37 242.327 419.401 242.42C419.914 243.743 418.53 248.678 416.398 253.935C414.187 259.427 411.237 265.38 408.991 267.861L408.669 268.2C407.721 269.149 402.916 273.422 399.165 276.242C397.337 277.626 395.684 278.67 394.718 278.853C393.715 281.047 392.823 283.289 392.046 285.572V285.625C391.323 287.728 390.742 289.876 390.305 292.056C389.787 294.601 389.582 297.2 389.696 299.794H388.547C388.547 299.399 388.547 298.996 388.547 298.584C387.941 296.663 387.154 294.804 386.197 293.031Z" fill="#138175"/>
<path fill-rule="evenodd" clip-rule="evenodd" d="M348.179 282.544C349.199 283.192 350.174 283.91 351.094 284.694C351.634 285.129 352.104 285.512 352.374 285.695C355.094 287.495 357.939 289.1 360.886 290.499C365.577 292.866 370.268 295.234 373.941 299.159C374.132 299.37 374.312 299.591 374.481 299.82H354.106C351.58 297.368 349.571 294.436 348.196 291.195L348.179 282.544Z" fill="#138175"/>
<defs>
<linearGradient id="paint0_linear" x1="233.321" y1="91.3579" x2="261.652" y2="73.2051" gradientUnits="userSpaceOnUse">
<stop stop-color="#FF8D8D"/>
<stop offset="1" stop-color="#E55555"/>
</linearGradient>
<linearGradient id="paint1_linear" x1="12179.5" y1="19802.7" x2="22794.4" y2="27983.8" gradientUnits="userSpaceOnUse">
<stop stop-color="#FF8D8D"/>
<stop offset="1" stop-color="#E55555"/>
</linearGradient>
<linearGradient id="paint2_linear" x1="5445.32" y1="11994.8" x2="11084.5" y2="15170.2" gradientUnits="userSpaceOnUse">
<stop stop-color="#FF8D8D"/>
<stop offset="1" stop-color="#E55555"/>
</linearGradient>
</defs>
</svg>
