<svg width="175" height="205" viewBox="0 0 175 205" fill="none" xmlns="http://www.w3.org/2000/svg">
<mask id="mask0" mask-type="alpha" maskUnits="userSpaceOnUse" x="0" y="-144" width="349" height="349">
<circle cx="174.5" cy="30.5" r="174.5" fill="#2B5250"/>
</mask>
<g mask="url(#mask0)">
<path d="M162.065 200.193C162.895 200.193 163.568 199.52 163.568 198.69C163.568 197.859 162.895 197.186 162.065 197.186C161.234 197.186 160.561 197.859 160.561 198.69C160.561 199.52 161.234 200.193 162.065 200.193Z" fill="#2B5250"/>
<path d="M145.225 200.193C146.055 200.193 146.728 199.52 146.728 198.69C146.728 197.859 146.055 197.186 145.225 197.186C144.394 197.186 143.721 197.859 143.721 198.69C143.721 199.52 144.394 200.193 145.225 200.193Z" fill="#2B5250"/>
<path d="M128.384 200.193C129.215 200.193 129.888 199.52 129.888 198.69C129.888 197.859 129.215 197.186 128.384 197.186C127.554 197.186 126.881 197.859 126.881 198.69C126.881 199.52 127.554 200.193 128.384 200.193Z" fill="#2B5250"/>
<path d="M111.544 200.193C112.375 200.193 113.048 199.52 113.048 198.69C113.048 197.859 112.375 197.186 111.544 197.186C110.714 197.186 110.041 197.859 110.041 198.69C110.041 199.52 110.714 200.193 111.544 200.193Z" fill="#2B5250"/>
<path d="M94.7032 200.193C95.5336 200.193 96.2068 199.52 96.2068 198.69C96.2068 197.859 95.5336 197.186 94.7032 197.186C93.8728 197.186 93.1996 197.859 93.1996 198.69C93.1996 199.52 93.8728 200.193 94.7032 200.193Z" fill="#2B5250"/>
<path d="M77.8631 200.193C78.6935 200.193 79.3667 199.52 79.3667 198.69C79.3667 197.859 78.6935 197.186 77.8631 197.186C77.0327 197.186 76.3595 197.859 76.3595 198.69C76.3595 199.52 77.0327 200.193 77.8631 200.193Z" fill="#2B5250"/>
<path d="M61.023 200.193C61.8534 200.193 62.5266 199.52 62.5266 198.69C62.5266 197.859 61.8534 197.186 61.023 197.186C60.1926 197.186 59.5194 197.859 59.5194 198.69C59.5194 199.52 60.1926 200.193 61.023 200.193Z" fill="#2B5250"/>
<path d="M44.1828 200.193C45.0132 200.193 45.6864 199.52 45.6864 198.69C45.6864 197.859 45.0132 197.186 44.1828 197.186C43.3524 197.186 42.6792 197.859 42.6792 198.69C42.6792 199.52 43.3524 200.193 44.1828 200.193Z" fill="#2B5250"/>
<path d="M27.3427 200.193C28.1731 200.193 28.8463 199.52 28.8463 198.69C28.8463 197.859 28.1731 197.186 27.3427 197.186C26.5123 197.186 25.8391 197.859 25.8391 198.69C25.8391 199.52 26.5123 200.193 27.3427 200.193Z" fill="#2B5250"/>
<path d="M10.5026 200.193C11.333 200.193 12.0062 199.52 12.0062 198.69C12.0062 197.859 11.333 197.186 10.5026 197.186C9.6722 197.186 8.99902 197.859 8.99902 198.69C8.99902 199.52 9.6722 200.193 10.5026 200.193Z" fill="#2B5250"/>
<path d="M162.065 183.353C162.895 183.353 163.568 182.68 163.568 181.85C163.568 181.019 162.895 180.346 162.065 180.346C161.234 180.346 160.561 181.019 160.561 181.85C160.561 182.68 161.234 183.353 162.065 183.353Z" fill="#2B5250"/>
<path d="M145.225 183.353C146.055 183.353 146.728 182.68 146.728 181.85C146.728 181.019 146.055 180.346 145.225 180.346C144.394 180.346 143.721 181.019 143.721 181.85C143.721 182.68 144.394 183.353 145.225 183.353Z" fill="#2B5250"/>
<path d="M128.384 183.353C129.215 183.353 129.888 182.68 129.888 181.85C129.888 181.019 129.215 180.346 128.384 180.346C127.554 180.346 126.881 181.019 126.881 181.85C126.881 182.68 127.554 183.353 128.384 183.353Z" fill="#2B5250"/>
<path d="M111.544 183.353C112.375 183.353 113.048 182.68 113.048 181.85C113.048 181.019 112.375 180.346 111.544 180.346C110.714 180.346 110.041 181.019 110.041 181.85C110.041 182.68 110.714 183.353 111.544 183.353Z" fill="#2B5250"/>
<path d="M94.7032 183.353C95.5336 183.353 96.2068 182.68 96.2068 181.85C96.2068 181.019 95.5336 180.346 94.7032 180.346C93.8728 180.346 93.1996 181.019 93.1996 181.85C93.1996 182.68 93.8728 183.353 94.7032 183.353Z" fill="#2B5250"/>
<path d="M77.8631 183.353C78.6935 183.353 79.3667 182.68 79.3667 181.85C79.3667 181.019 78.6935 180.346 77.8631 180.346C77.0327 180.346 76.3595 181.019 76.3595 181.85C76.3595 182.68 77.0327 183.353 77.8631 183.353Z" fill="#2B5250"/>
<path d="M61.023 183.353C61.8534 183.353 62.5266 182.68 62.5266 181.85C62.5266 181.019 61.8534 180.346 61.023 180.346C60.1926 180.346 59.5194 181.019 59.5194 181.85C59.5194 182.68 60.1926 183.353 61.023 183.353Z" fill="#2B5250"/>
<path d="M44.1828 183.353C45.0132 183.353 45.6864 182.68 45.6864 181.85C45.6864 181.019 45.0132 180.346 44.1828 180.346C43.3524 180.346 42.6792 181.019 42.6792 181.85C42.6792 182.68 43.3524 183.353 44.1828 183.353Z" fill="#2B5250"/>
<path d="M27.3427 183.353C28.1731 183.353 28.8463 182.68 28.8463 181.85C28.8463 181.019 28.1731 180.346 27.3427 180.346C26.5123 180.346 25.8391 181.019 25.8391 181.85C25.8391 182.68 26.5123 183.353 27.3427 183.353Z" fill="#2B5250"/>
<path d="M10.5026 183.353C11.333 183.353 12.0062 182.68 12.0062 181.85C12.0062 181.019 11.333 180.346 10.5026 180.346C9.6722 180.346 8.99902 181.019 8.99902 181.85C8.99902 182.68 9.6722 183.353 10.5026 183.353Z" fill="#2B5250"/>
<path d="M162.065 166.513C162.895 166.513 163.568 165.84 163.568 165.009C163.568 164.179 162.895 163.506 162.065 163.506C161.234 163.506 160.561 164.179 160.561 165.009C160.561 165.84 161.234 166.513 162.065 166.513Z" fill="#2B5250"/>
<path d="M145.225 166.513C146.055 166.513 146.728 165.84 146.728 165.009C146.728 164.179 146.055 163.506 145.225 163.506C144.394 163.506 143.721 164.179 143.721 165.009C143.721 165.84 144.394 166.513 145.225 166.513Z" fill="#2B5250"/>
<path d="M128.384 166.513C129.215 166.513 129.888 165.84 129.888 165.009C129.888 164.179 129.215 163.506 128.384 163.506C127.554 163.506 126.881 164.179 126.881 165.009C126.881 165.84 127.554 166.513 128.384 166.513Z" fill="#2B5250"/>
<path d="M111.544 166.513C112.375 166.513 113.048 165.84 113.048 165.009C113.048 164.179 112.375 163.506 111.544 163.506C110.714 163.506 110.041 164.179 110.041 165.009C110.041 165.84 110.714 166.513 111.544 166.513Z" fill="#2B5250"/>
<path d="M94.7032 166.513C95.5336 166.513 96.2068 165.84 96.2068 165.009C96.2068 164.179 95.5336 163.506 94.7032 163.506C93.8728 163.506 93.1996 164.179 93.1996 165.009C93.1996 165.84 93.8728 166.513 94.7032 166.513Z" fill="#2B5250"/>
<path d="M77.8631 166.513C78.6935 166.513 79.3667 165.84 79.3667 165.009C79.3667 164.179 78.6935 163.506 77.8631 163.506C77.0327 163.506 76.3595 164.179 76.3595 165.009C76.3595 165.84 77.0327 166.513 77.8631 166.513Z" fill="#2B5250"/>
<path d="M61.023 166.513C61.8534 166.513 62.5266 165.84 62.5266 165.009C62.5266 164.179 61.8534 163.506 61.023 163.506C60.1926 163.506 59.5194 164.179 59.5194 165.009C59.5194 165.84 60.1926 166.513 61.023 166.513Z" fill="#2B5250"/>
<path d="M44.1828 166.513C45.0132 166.513 45.6864 165.84 45.6864 165.009C45.6864 164.179 45.0132 163.506 44.1828 163.506C43.3524 163.506 42.6792 164.179 42.6792 165.009C42.6792 165.84 43.3524 166.513 44.1828 166.513Z" fill="#2B5250"/>
<path d="M27.3427 166.513C28.1731 166.513 28.8463 165.84 28.8463 165.009C28.8463 164.179 28.1731 163.506 27.3427 163.506C26.5123 163.506 25.8391 164.179 25.8391 165.009C25.8391 165.84 26.5123 166.513 27.3427 166.513Z" fill="#2B5250"/>
<path d="M10.5026 166.513C11.333 166.513 12.0062 165.84 12.0062 165.009C12.0062 164.179 11.333 163.506 10.5026 163.506C9.6722 163.506 8.99902 164.179 8.99902 165.009C8.99902 165.84 9.6722 166.513 10.5026 166.513Z" fill="#2B5250"/>
<path d="M162.065 149.672C162.895 149.672 163.568 148.999 163.568 148.168C163.568 147.338 162.895 146.665 162.065 146.665C161.234 146.665 160.561 147.338 160.561 148.168C160.561 148.999 161.234 149.672 162.065 149.672Z" fill="#2B5250"/>
<path d="M145.225 149.672C146.055 149.672 146.728 148.999 146.728 148.168C146.728 147.338 146.055 146.665 145.225 146.665C144.394 146.665 143.721 147.338 143.721 148.168C143.721 148.999 144.394 149.672 145.225 149.672Z" fill="#2B5250"/>
<path d="M128.384 149.672C129.215 149.672 129.888 148.999 129.888 148.168C129.888 147.338 129.215 146.665 128.384 146.665C127.554 146.665 126.881 147.338 126.881 148.168C126.881 148.999 127.554 149.672 128.384 149.672Z" fill="#2B5250"/>
<path d="M111.544 149.672C112.375 149.672 113.048 148.999 113.048 148.168C113.048 147.338 112.375 146.665 111.544 146.665C110.714 146.665 110.041 147.338 110.041 148.168C110.041 148.999 110.714 149.672 111.544 149.672Z" fill="#2B5250"/>
<path d="M94.7032 149.672C95.5336 149.672 96.2068 148.999 96.2068 148.168C96.2068 147.338 95.5336 146.665 94.7032 146.665C93.8728 146.665 93.1996 147.338 93.1996 148.168C93.1996 148.999 93.8728 149.672 94.7032 149.672Z" fill="#2B5250"/>
<path d="M77.8631 149.672C78.6935 149.672 79.3667 148.999 79.3667 148.168C79.3667 147.338 78.6935 146.665 77.8631 146.665C77.0327 146.665 76.3595 147.338 76.3595 148.168C76.3595 148.999 77.0327 149.672 77.8631 149.672Z" fill="#2B5250"/>
<path d="M61.023 149.672C61.8534 149.672 62.5266 148.999 62.5266 148.168C62.5266 147.338 61.8534 146.665 61.023 146.665C60.1926 146.665 59.5194 147.338 59.5194 148.168C59.5194 148.999 60.1926 149.672 61.023 149.672Z" fill="#2B5250"/>
<path d="M44.1828 149.672C45.0132 149.672 45.6864 148.999 45.6864 148.168C45.6864 147.338 45.0132 146.665 44.1828 146.665C43.3524 146.665 42.6792 147.338 42.6792 148.168C42.6792 148.999 43.3524 149.672 44.1828 149.672Z" fill="#2B5250"/>
<path d="M27.3427 149.672C28.1731 149.672 28.8463 148.999 28.8463 148.168C28.8463 147.338 28.1731 146.665 27.3427 146.665C26.5123 146.665 25.8391 147.338 25.8391 148.168C25.8391 148.999 26.5123 149.672 27.3427 149.672Z" fill="#2B5250"/>
<path d="M10.5026 149.672C11.333 149.672 12.0062 148.999 12.0062 148.168C12.0062 147.338 11.333 146.665 10.5026 146.665C9.6722 146.665 8.99902 147.338 8.99902 148.168C8.99902 148.999 9.6722 149.672 10.5026 149.672Z" fill="#2B5250"/>
<path d="M162.065 132.832C162.895 132.832 163.568 132.159 163.568 131.328C163.568 130.498 162.895 129.825 162.065 129.825C161.234 129.825 160.561 130.498 160.561 131.328C160.561 132.159 161.234 132.832 162.065 132.832Z" fill="#2B5250"/>
<path d="M145.225 132.832C146.055 132.832 146.728 132.159 146.728 131.328C146.728 130.498 146.055 129.825 145.225 129.825C144.394 129.825 143.721 130.498 143.721 131.328C143.721 132.159 144.394 132.832 145.225 132.832Z" fill="#2B5250"/>
<path d="M128.384 132.832C129.215 132.832 129.888 132.159 129.888 131.328C129.888 130.498 129.215 129.825 128.384 129.825C127.554 129.825 126.881 130.498 126.881 131.328C126.881 132.159 127.554 132.832 128.384 132.832Z" fill="#2B5250"/>
<path d="M111.544 132.832C112.375 132.832 113.048 132.159 113.048 131.328C113.048 130.498 112.375 129.825 111.544 129.825C110.714 129.825 110.041 130.498 110.041 131.328C110.041 132.159 110.714 132.832 111.544 132.832Z" fill="#2B5250"/>
<path d="M94.7032 132.832C95.5336 132.832 96.2068 132.159 96.2068 131.328C96.2068 130.498 95.5336 129.825 94.7032 129.825C93.8728 129.825 93.1996 130.498 93.1996 131.328C93.1996 132.159 93.8728 132.832 94.7032 132.832Z" fill="#2B5250"/>
<path d="M77.8631 132.832C78.6935 132.832 79.3667 132.159 79.3667 131.328C79.3667 130.498 78.6935 129.825 77.8631 129.825C77.0327 129.825 76.3595 130.498 76.3595 131.328C76.3595 132.159 77.0327 132.832 77.8631 132.832Z" fill="#2B5250"/>
<path d="M61.023 132.832C61.8534 132.832 62.5266 132.159 62.5266 131.328C62.5266 130.498 61.8534 129.825 61.023 129.825C60.1926 129.825 59.5194 130.498 59.5194 131.328C59.5194 132.159 60.1926 132.832 61.023 132.832Z" fill="#2B5250"/>
<path d="M44.1828 132.832C45.0132 132.832 45.6864 132.159 45.6864 131.328C45.6864 130.498 45.0132 129.825 44.1828 129.825C43.3524 129.825 42.6792 130.498 42.6792 131.328C42.6792 132.159 43.3524 132.832 44.1828 132.832Z" fill="#2B5250"/>
<path d="M27.3427 132.832C28.1731 132.832 28.8463 132.159 28.8463 131.328C28.8463 130.498 28.1731 129.825 27.3427 129.825C26.5123 129.825 25.8391 130.498 25.8391 131.328C25.8391 132.159 26.5123 132.832 27.3427 132.832Z" fill="#2B5250"/>
<path d="M10.5026 132.832C11.333 132.832 12.0062 132.159 12.0062 131.328C12.0062 130.498 11.333 129.825 10.5026 129.825C9.6722 129.825 8.99902 130.498 8.99902 131.328C8.99902 132.159 9.6722 132.832 10.5026 132.832Z" fill="#2B5250"/>
<path d="M162.065 115.992C162.895 115.992 163.568 115.319 163.568 114.488C163.568 113.658 162.895 112.985 162.065 112.985C161.234 112.985 160.561 113.658 160.561 114.488C160.561 115.319 161.234 115.992 162.065 115.992Z" fill="#2B5250"/>
<path d="M145.225 115.992C146.055 115.992 146.728 115.319 146.728 114.488C146.728 113.658 146.055 112.985 145.225 112.985C144.394 112.985 143.721 113.658 143.721 114.488C143.721 115.319 144.394 115.992 145.225 115.992Z" fill="#2B5250"/>
<path d="M128.384 115.992C129.215 115.992 129.888 115.319 129.888 114.488C129.888 113.658 129.215 112.985 128.384 112.985C127.554 112.985 126.881 113.658 126.881 114.488C126.881 115.319 127.554 115.992 128.384 115.992Z" fill="#2B5250"/>
<path d="M111.544 115.992C112.375 115.992 113.048 115.319 113.048 114.488C113.048 113.658 112.375 112.985 111.544 112.985C110.714 112.985 110.041 113.658 110.041 114.488C110.041 115.319 110.714 115.992 111.544 115.992Z" fill="#2B5250"/>
<path d="M94.7032 115.992C95.5336 115.992 96.2068 115.319 96.2068 114.488C96.2068 113.658 95.5336 112.985 94.7032 112.985C93.8728 112.985 93.1996 113.658 93.1996 114.488C93.1996 115.319 93.8728 115.992 94.7032 115.992Z" fill="#2B5250"/>
<path d="M77.8631 115.992C78.6935 115.992 79.3667 115.319 79.3667 114.488C79.3667 113.658 78.6935 112.985 77.8631 112.985C77.0327 112.985 76.3595 113.658 76.3595 114.488C76.3595 115.319 77.0327 115.992 77.8631 115.992Z" fill="#2B5250"/>
<path d="M61.023 115.992C61.8534 115.992 62.5266 115.319 62.5266 114.488C62.5266 113.658 61.8534 112.985 61.023 112.985C60.1926 112.985 59.5194 113.658 59.5194 114.488C59.5194 115.319 60.1926 115.992 61.023 115.992Z" fill="#2B5250"/>
<path d="M44.1828 115.992C45.0132 115.992 45.6864 115.319 45.6864 114.488C45.6864 113.658 45.0132 112.985 44.1828 112.985C43.3524 112.985 42.6792 113.658 42.6792 114.488C42.6792 115.319 43.3524 115.992 44.1828 115.992Z" fill="#2B5250"/>
<path d="M27.3427 115.992C28.1731 115.992 28.8463 115.319 28.8463 114.488C28.8463 113.658 28.1731 112.985 27.3427 112.985C26.5123 112.985 25.8391 113.658 25.8391 114.488C25.8391 115.319 26.5123 115.992 27.3427 115.992Z" fill="#2B5250"/>
<path d="M10.5026 115.992C11.333 115.992 12.0062 115.319 12.0062 114.488C12.0062 113.658 11.333 112.985 10.5026 112.985C9.6722 112.985 8.99902 113.658 8.99902 114.488C8.99902 115.319 9.6722 115.992 10.5026 115.992Z" fill="#2B5250"/>
<path d="M162.065 99.1515C162.895 99.1515 163.568 98.4783 163.568 97.6479C163.568 96.8175 162.895 96.1443 162.065 96.1443C161.234 96.1443 160.561 96.8175 160.561 97.6479C160.561 98.4783 161.234 99.1515 162.065 99.1515Z" fill="#2B5250"/>
<path d="M145.225 99.1515C146.055 99.1515 146.728 98.4783 146.728 97.6479C146.728 96.8175 146.055 96.1443 145.225 96.1443C144.394 96.1443 143.721 96.8175 143.721 97.6479C143.721 98.4783 144.394 99.1515 145.225 99.1515Z" fill="#2B5250"/>
<path d="M128.384 99.1515C129.215 99.1515 129.888 98.4783 129.888 97.6479C129.888 96.8175 129.215 96.1443 128.384 96.1443C127.554 96.1443 126.881 96.8175 126.881 97.6479C126.881 98.4783 127.554 99.1515 128.384 99.1515Z" fill="#2B5250"/>
<path d="M111.544 99.1515C112.375 99.1515 113.048 98.4783 113.048 97.6479C113.048 96.8175 112.375 96.1443 111.544 96.1443C110.714 96.1443 110.041 96.8175 110.041 97.6479C110.041 98.4783 110.714 99.1515 111.544 99.1515Z" fill="#2B5250"/>
<path d="M94.7032 99.1515C95.5336 99.1515 96.2068 98.4783 96.2068 97.6479C96.2068 96.8175 95.5336 96.1443 94.7032 96.1443C93.8728 96.1443 93.1996 96.8175 93.1996 97.6479C93.1996 98.4783 93.8728 99.1515 94.7032 99.1515Z" fill="#2B5250"/>
<path d="M77.8631 99.1515C78.6935 99.1515 79.3667 98.4783 79.3667 97.6479C79.3667 96.8175 78.6935 96.1443 77.8631 96.1443C77.0327 96.1443 76.3595 96.8175 76.3595 97.6479C76.3595 98.4783 77.0327 99.1515 77.8631 99.1515Z" fill="#2B5250"/>
<path d="M61.023 99.1515C61.8534 99.1515 62.5266 98.4783 62.5266 97.6479C62.5266 96.8175 61.8534 96.1443 61.023 96.1443C60.1926 96.1443 59.5194 96.8175 59.5194 97.6479C59.5194 98.4783 60.1926 99.1515 61.023 99.1515Z" fill="#2B5250"/>
<path d="M44.1828 99.1515C45.0132 99.1515 45.6864 98.4783 45.6864 97.6479C45.6864 96.8175 45.0132 96.1443 44.1828 96.1443C43.3524 96.1443 42.6792 96.8175 42.6792 97.6479C42.6792 98.4783 43.3524 99.1515 44.1828 99.1515Z" fill="#2B5250"/>
<path d="M27.3427 99.1515C28.1731 99.1515 28.8463 98.4783 28.8463 97.6479C28.8463 96.8175 28.1731 96.1443 27.3427 96.1443C26.5123 96.1443 25.8391 96.8175 25.8391 97.6479C25.8391 98.4783 26.5123 99.1515 27.3427 99.1515Z" fill="#2B5250"/>
<path d="M10.5026 99.1515C11.333 99.1515 12.0062 98.4783 12.0062 97.6479C12.0062 96.8175 11.333 96.1443 10.5026 96.1443C9.6722 96.1443 8.99902 96.8175 8.99902 97.6479C8.99902 98.4783 9.6722 99.1515 10.5026 99.1515Z" fill="#2B5250"/>
<path d="M162.065 82.3114C162.895 82.3114 163.568 81.6382 163.568 80.8078C163.568 79.9774 162.895 79.3042 162.065 79.3042C161.234 79.3042 160.561 79.9774 160.561 80.8078C160.561 81.6382 161.234 82.3114 162.065 82.3114Z" fill="#2B5250"/>
<path d="M145.225 82.3114C146.055 82.3114 146.728 81.6382 146.728 80.8078C146.728 79.9774 146.055 79.3042 145.225 79.3042C144.394 79.3042 143.721 79.9774 143.721 80.8078C143.721 81.6382 144.394 82.3114 145.225 82.3114Z" fill="#2B5250"/>
<path d="M128.384 82.3114C129.215 82.3114 129.888 81.6382 129.888 80.8078C129.888 79.9774 129.215 79.3042 128.384 79.3042C127.554 79.3042 126.881 79.9774 126.881 80.8078C126.881 81.6382 127.554 82.3114 128.384 82.3114Z" fill="#2B5250"/>
<path d="M111.544 82.3114C112.375 82.3114 113.048 81.6382 113.048 80.8078C113.048 79.9774 112.375 79.3042 111.544 79.3042C110.714 79.3042 110.041 79.9774 110.041 80.8078C110.041 81.6382 110.714 82.3114 111.544 82.3114Z" fill="#2B5250"/>
<path d="M94.7032 82.3114C95.5336 82.3114 96.2068 81.6382 96.2068 80.8078C96.2068 79.9774 95.5336 79.3042 94.7032 79.3042C93.8728 79.3042 93.1996 79.9774 93.1996 80.8078C93.1996 81.6382 93.8728 82.3114 94.7032 82.3114Z" fill="#2B5250"/>
<path d="M77.8631 82.3114C78.6935 82.3114 79.3667 81.6382 79.3667 80.8078C79.3667 79.9774 78.6935 79.3042 77.8631 79.3042C77.0327 79.3042 76.3595 79.9774 76.3595 80.8078C76.3595 81.6382 77.0327 82.3114 77.8631 82.3114Z" fill="#2B5250"/>
<path d="M61.023 82.3114C61.8534 82.3114 62.5266 81.6382 62.5266 80.8078C62.5266 79.9774 61.8534 79.3042 61.023 79.3042C60.1926 79.3042 59.5194 79.9774 59.5194 80.8078C59.5194 81.6382 60.1926 82.3114 61.023 82.3114Z" fill="#2B5250"/>
<path d="M44.1828 82.3114C45.0132 82.3114 45.6864 81.6382 45.6864 80.8078C45.6864 79.9774 45.0132 79.3042 44.1828 79.3042C43.3524 79.3042 42.6792 79.9774 42.6792 80.8078C42.6792 81.6382 43.3524 82.3114 44.1828 82.3114Z" fill="#2B5250"/>
<path d="M27.3427 82.3114C28.1731 82.3114 28.8463 81.6382 28.8463 80.8078C28.8463 79.9774 28.1731 79.3042 27.3427 79.3042C26.5123 79.3042 25.8391 79.9774 25.8391 80.8078C25.8391 81.6382 26.5123 82.3114 27.3427 82.3114Z" fill="#2B5250"/>
<path d="M10.5026 82.3114C11.333 82.3114 12.0062 81.6382 12.0062 80.8078C12.0062 79.9774 11.333 79.3042 10.5026 79.3042C9.6722 79.3042 8.99902 79.9774 8.99902 80.8078C8.99902 81.6382 9.6722 82.3114 10.5026 82.3114Z" fill="#2B5250"/>
<path d="M162.065 65.4713C162.895 65.4713 163.568 64.7981 163.568 63.9677C163.568 63.1373 162.895 62.4641 162.065 62.4641C161.234 62.4641 160.561 63.1373 160.561 63.9677C160.561 64.7981 161.234 65.4713 162.065 65.4713Z" fill="#2B5250"/>
<path d="M145.225 65.4713C146.055 65.4713 146.728 64.7981 146.728 63.9677C146.728 63.1373 146.055 62.4641 145.225 62.4641C144.394 62.4641 143.721 63.1373 143.721 63.9677C143.721 64.7981 144.394 65.4713 145.225 65.4713Z" fill="#2B5250"/>
<path d="M128.384 65.4713C129.215 65.4713 129.888 64.7981 129.888 63.9677C129.888 63.1373 129.215 62.4641 128.384 62.4641C127.554 62.4641 126.881 63.1373 126.881 63.9677C126.881 64.7981 127.554 65.4713 128.384 65.4713Z" fill="#2B5250"/>
<path d="M111.544 65.4713C112.375 65.4713 113.048 64.7981 113.048 63.9677C113.048 63.1373 112.375 62.4641 111.544 62.4641C110.714 62.4641 110.041 63.1373 110.041 63.9677C110.041 64.7981 110.714 65.4713 111.544 65.4713Z" fill="#2B5250"/>
<path d="M94.7032 65.4713C95.5336 65.4713 96.2068 64.7981 96.2068 63.9677C96.2068 63.1373 95.5336 62.4641 94.7032 62.4641C93.8728 62.4641 93.1996 63.1373 93.1996 63.9677C93.1996 64.7981 93.8728 65.4713 94.7032 65.4713Z" fill="#2B5250"/>
<path d="M77.8631 65.4713C78.6935 65.4713 79.3667 64.7981 79.3667 63.9677C79.3667 63.1373 78.6935 62.4641 77.8631 62.4641C77.0327 62.4641 76.3595 63.1373 76.3595 63.9677C76.3595 64.7981 77.0327 65.4713 77.8631 65.4713Z" fill="#2B5250"/>
<path d="M61.023 65.4713C61.8534 65.4713 62.5266 64.7981 62.5266 63.9677C62.5266 63.1373 61.8534 62.4641 61.023 62.4641C60.1926 62.4641 59.5194 63.1373 59.5194 63.9677C59.5194 64.7981 60.1926 65.4713 61.023 65.4713Z" fill="#2B5250"/>
<path d="M44.1828 65.4713C45.0132 65.4713 45.6864 64.7981 45.6864 63.9677C45.6864 63.1373 45.0132 62.4641 44.1828 62.4641C43.3524 62.4641 42.6792 63.1373 42.6792 63.9677C42.6792 64.7981 43.3524 65.4713 44.1828 65.4713Z" fill="#2B5250"/>
<path d="M27.3427 65.4713C28.1731 65.4713 28.8463 64.7981 28.8463 63.9677C28.8463 63.1373 28.1731 62.4641 27.3427 62.4641C26.5123 62.4641 25.8391 63.1373 25.8391 63.9677C25.8391 64.7981 26.5123 65.4713 27.3427 65.4713Z" fill="#2B5250"/>
<path d="M10.5026 65.4713C11.333 65.4713 12.0062 64.7981 12.0062 63.9677C12.0062 63.1373 11.333 62.4641 10.5026 62.4641C9.6722 62.4641 8.99902 63.1373 8.99902 63.9677C8.99902 64.7981 9.6722 65.4713 10.5026 65.4713Z" fill="#2B5250"/>
<path d="M162.065 48.6312C162.895 48.6312 163.568 47.958 163.568 47.1276C163.568 46.2972 162.895 45.624 162.065 45.624C161.234 45.624 160.561 46.2972 160.561 47.1276C160.561 47.958 161.234 48.6312 162.065 48.6312Z" fill="#2B5250"/>
<path d="M145.225 48.6312C146.055 48.6312 146.728 47.958 146.728 47.1276C146.728 46.2972 146.055 45.624 145.225 45.624C144.394 45.624 143.721 46.2972 143.721 47.1276C143.721 47.958 144.394 48.6312 145.225 48.6312Z" fill="#2B5250"/>
<path d="M128.384 48.6312C129.215 48.6312 129.888 47.958 129.888 47.1276C129.888 46.2972 129.215 45.624 128.384 45.624C127.554 45.624 126.881 46.2972 126.881 47.1276C126.881 47.958 127.554 48.6312 128.384 48.6312Z" fill="#2B5250"/>
<path d="M111.544 48.6312C112.375 48.6312 113.048 47.958 113.048 47.1276C113.048 46.2972 112.375 45.624 111.544 45.624C110.714 45.624 110.041 46.2972 110.041 47.1276C110.041 47.958 110.714 48.6312 111.544 48.6312Z" fill="#2B5250"/>
<path d="M94.7032 48.6312C95.5336 48.6312 96.2068 47.958 96.2068 47.1276C96.2068 46.2972 95.5336 45.624 94.7032 45.624C93.8728 45.624 93.1996 46.2972 93.1996 47.1276C93.1996 47.958 93.8728 48.6312 94.7032 48.6312Z" fill="#2B5250"/>
<path d="M77.8631 48.6312C78.6935 48.6312 79.3667 47.958 79.3667 47.1276C79.3667 46.2972 78.6935 45.624 77.8631 45.624C77.0327 45.624 76.3595 46.2972 76.3595 47.1276C76.3595 47.958 77.0327 48.6312 77.8631 48.6312Z" fill="#2B5250"/>
<path d="M61.023 48.6312C61.8534 48.6312 62.5266 47.958 62.5266 47.1276C62.5266 46.2972 61.8534 45.624 61.023 45.624C60.1926 45.624 59.5194 46.2972 59.5194 47.1276C59.5194 47.958 60.1926 48.6312 61.023 48.6312Z" fill="#2B5250"/>
<path d="M44.1828 48.6312C45.0132 48.6312 45.6864 47.958 45.6864 47.1276C45.6864 46.2972 45.0132 45.624 44.1828 45.624C43.3524 45.624 42.6792 46.2972 42.6792 47.1276C42.6792 47.958 43.3524 48.6312 44.1828 48.6312Z" fill="#2B5250"/>
<path d="M27.3427 48.6312C28.1731 48.6312 28.8463 47.958 28.8463 47.1276C28.8463 46.2972 28.1731 45.624 27.3427 45.624C26.5123 45.624 25.8391 46.2972 25.8391 47.1276C25.8391 47.958 26.5123 48.6312 27.3427 48.6312Z" fill="#2B5250"/>
<path d="M10.5026 48.6312C11.333 48.6312 12.0062 47.958 12.0062 47.1276C12.0062 46.2972 11.333 45.624 10.5026 45.624C9.6722 45.624 8.99902 46.2972 8.99902 47.1276C8.99902 47.958 9.6722 48.6312 10.5026 48.6312Z" fill="#2B5250"/>
<path d="M162.065 31.7901C162.895 31.7901 163.568 31.117 163.568 30.2865C163.568 29.4561 162.895 28.783 162.065 28.783C161.234 28.783 160.561 29.4561 160.561 30.2865C160.561 31.117 161.234 31.7901 162.065 31.7901Z" fill="#2B5250"/>
<path d="M145.225 31.7901C146.055 31.7901 146.728 31.117 146.728 30.2865C146.728 29.4561 146.055 28.783 145.225 28.783C144.394 28.783 143.721 29.4561 143.721 30.2865C143.721 31.117 144.394 31.7901 145.225 31.7901Z" fill="#2B5250"/>
<path d="M128.384 31.7901C129.215 31.7901 129.888 31.117 129.888 30.2865C129.888 29.4561 129.215 28.783 128.384 28.783C127.554 28.783 126.881 29.4561 126.881 30.2865C126.881 31.117 127.554 31.7901 128.384 31.7901Z" fill="#2B5250"/>
<path d="M111.544 31.7901C112.375 31.7901 113.048 31.117 113.048 30.2865C113.048 29.4561 112.375 28.783 111.544 28.783C110.714 28.783 110.041 29.4561 110.041 30.2865C110.041 31.117 110.714 31.7901 111.544 31.7901Z" fill="#2B5250"/>
<path d="M94.7032 31.7901C95.5336 31.7901 96.2068 31.117 96.2068 30.2865C96.2068 29.4561 95.5336 28.783 94.7032 28.783C93.8728 28.783 93.1996 29.4561 93.1996 30.2865C93.1996 31.117 93.8728 31.7901 94.7032 31.7901Z" fill="#2B5250"/>
<path d="M77.8631 31.7901C78.6935 31.7901 79.3667 31.117 79.3667 30.2865C79.3667 29.4561 78.6935 28.783 77.8631 28.783C77.0327 28.783 76.3595 29.4561 76.3595 30.2865C76.3595 31.117 77.0327 31.7901 77.8631 31.7901Z" fill="#2B5250"/>
<path d="M61.023 31.7901C61.8534 31.7901 62.5266 31.117 62.5266 30.2865C62.5266 29.4561 61.8534 28.783 61.023 28.783C60.1926 28.783 59.5194 29.4561 59.5194 30.2865C59.5194 31.117 60.1926 31.7901 61.023 31.7901Z" fill="#2B5250"/>
<path d="M44.1828 31.7901C45.0132 31.7901 45.6864 31.117 45.6864 30.2865C45.6864 29.4561 45.0132 28.783 44.1828 28.783C43.3524 28.783 42.6792 29.4561 42.6792 30.2865C42.6792 31.117 43.3524 31.7901 44.1828 31.7901Z" fill="#2B5250"/>
<path d="M27.3427 31.7901C28.1731 31.7901 28.8463 31.117 28.8463 30.2865C28.8463 29.4561 28.1731 28.783 27.3427 28.783C26.5123 28.783 25.8391 29.4561 25.8391 30.2865C25.8391 31.117 26.5123 31.7901 27.3427 31.7901Z" fill="#2B5250"/>
<path d="M10.5026 31.7901C11.333 31.7901 12.0062 31.117 12.0062 30.2865C12.0062 29.4561 11.333 28.783 10.5026 28.783C9.6722 28.783 8.99902 29.4561 8.99902 30.2865C8.99902 31.117 9.6722 31.7901 10.5026 31.7901Z" fill="#2B5250"/>
<path d="M162.065 14.9501C162.895 14.9501 163.568 14.2769 163.568 13.4465C163.568 12.6161 162.895 11.9429 162.065 11.9429C161.234 11.9429 160.561 12.6161 160.561 13.4465C160.561 14.2769 161.234 14.9501 162.065 14.9501Z" fill="#2B5250"/>
<path d="M145.225 14.9501C146.055 14.9501 146.728 14.2769 146.728 13.4465C146.728 12.6161 146.055 11.9429 145.225 11.9429C144.394 11.9429 143.721 12.6161 143.721 13.4465C143.721 14.2769 144.394 14.9501 145.225 14.9501Z" fill="#2B5250"/>
<path d="M128.384 14.9501C129.215 14.9501 129.888 14.2769 129.888 13.4465C129.888 12.6161 129.215 11.9429 128.384 11.9429C127.554 11.9429 126.881 12.6161 126.881 13.4465C126.881 14.2769 127.554 14.9501 128.384 14.9501Z" fill="#2B5250"/>
<path d="M111.544 14.9501C112.375 14.9501 113.048 14.2769 113.048 13.4465C113.048 12.6161 112.375 11.9429 111.544 11.9429C110.714 11.9429 110.041 12.6161 110.041 13.4465C110.041 14.2769 110.714 14.9501 111.544 14.9501Z" fill="#2B5250"/>
<path d="M94.7032 14.9501C95.5336 14.9501 96.2068 14.2769 96.2068 13.4465C96.2068 12.6161 95.5336 11.9429 94.7032 11.9429C93.8728 11.9429 93.1996 12.6161 93.1996 13.4465C93.1996 14.2769 93.8728 14.9501 94.7032 14.9501Z" fill="#2B5250"/>
<path d="M77.8631 14.9501C78.6935 14.9501 79.3667 14.2769 79.3667 13.4465C79.3667 12.6161 78.6935 11.9429 77.8631 11.9429C77.0327 11.9429 76.3595 12.6161 76.3595 13.4465C76.3595 14.2769 77.0327 14.9501 77.8631 14.9501Z" fill="#2B5250"/>
<path d="M61.023 14.9501C61.8534 14.9501 62.5266 14.2769 62.5266 13.4465C62.5266 12.6161 61.8534 11.9429 61.023 11.9429C60.1926 11.9429 59.5194 12.6161 59.5194 13.4465C59.5194 14.2769 60.1926 14.9501 61.023 14.9501Z" fill="#2B5250"/>
<path d="M44.1828 14.9501C45.0132 14.9501 45.6864 14.2769 45.6864 13.4465C45.6864 12.6161 45.0132 11.9429 44.1828 11.9429C43.3524 11.9429 42.6792 12.6161 42.6792 13.4465C42.6792 14.2769 43.3524 14.9501 44.1828 14.9501Z" fill="#2B5250"/>
<path d="M27.3427 14.9501C28.1731 14.9501 28.8463 14.2769 28.8463 13.4465C28.8463 12.6161 28.1731 11.9429 27.3427 11.9429C26.5123 11.9429 25.8391 12.6161 25.8391 13.4465C25.8391 14.2769 26.5123 14.9501 27.3427 14.9501Z" fill="#2B5250"/>
<path d="M10.5026 14.9501C11.333 14.9501 12.0062 14.2769 12.0062 13.4465C12.0062 12.6161 11.333 11.9429 10.5026 11.9429C9.6722 11.9429 8.99902 12.6161 8.99902 13.4465C8.99902 14.2769 9.6722 14.9501 10.5026 14.9501Z" fill="#2B5250"/>
</g>
</svg>
