<svg width="257" height="401" viewBox="0 0 257 401" fill="none" xmlns="http://www.w3.org/2000/svg">
<path fill-rule="evenodd" clip-rule="evenodd" d="M138.544 400.993H216.045L210.99 350.565H66.0888L61.0428 400.993H138.544Z" fill="#172041"/>
<path d="M164.099 93.7297C164.099 79.5976 152.658 68.1412 138.544 68.1412C124.43 68.1412 112.989 79.5976 112.989 93.7297V145.787C112.989 159.919 124.43 171.375 138.544 171.375C152.658 171.375 164.099 159.919 164.099 145.787V93.7297Z" fill="#EE8B83"/>
<path fill-rule="evenodd" clip-rule="evenodd" d="M164.099 138.076C164.099 138.076 168.961 139.968 171.238 143.023L222.928 160.531C222.928 160.531 222.049 166.508 220.915 176.12C218.753 194.112 215.553 224.832 214.999 253.043C214.999 253.043 212.995 318.304 210.727 340.847C210.727 340.847 214.137 343.584 212.406 349.5C212.406 349.5 219.069 379.762 219.676 382.209C220.282 384.656 193.611 392.323 138.544 392.323C83.4773 392.323 56.7879 384.647 57.4121 382.209C58.0363 379.771 64.6734 349.5 64.6734 349.5C62.9153 343.584 66.3613 340.847 66.3613 340.847C64.0932 318.304 62.0889 253.043 62.0889 253.043C61.2098 209.736 54.177 160.531 54.177 160.531L105.877 143.023C108.154 139.968 113.015 138.076 113.015 138.076C127.124 150.153 149.963 150.153 164.099 138.076Z" fill="#138175"/>
<path fill-rule="evenodd" clip-rule="evenodd" d="M212.845 308.076C212.212 321.086 211.483 333.347 210.727 340.865C210.727 340.865 214.137 343.602 212.406 349.517C212.406 349.517 214.208 357.686 216.019 365.872L155.071 297.847C155.071 297.847 140.68 279.882 124.514 292.865C108.347 305.849 66.3613 340.847 66.3613 340.847C64.0933 318.304 62.0889 253.043 62.0889 253.043C62.0889 251.908 62.0362 250.772 62.0098 249.637C62.0098 249.637 71.7502 269.742 79.5917 274.011C87.4333 278.28 94.3605 266.493 93.7188 266.898C93.0771 267.303 81.6752 251.283 81.6752 251.283L91.8287 245.579L100.356 244.602L131.907 265.824L156.029 267.435C156.029 267.435 167.079 246.222 168.565 246.776C170.051 247.331 195.378 251.318 195.378 251.318L184.881 261.767C184.881 261.767 182.93 274.407 181.716 273.641C181.198 273.306 195.843 289.415 212.845 308.041V308.076ZM142.095 175.16L137.753 170.759C132.336 165.476 125.059 162.542 117.498 162.592C109.937 162.642 102.7 165.673 97.3533 171.027C92.0071 176.381 88.9823 183.629 88.9339 191.2C88.8855 198.771 91.8173 206.056 97.0945 211.479L140.786 255.226C140.958 255.401 141.163 255.54 141.39 255.634C141.616 255.729 141.859 255.778 142.104 255.778C142.35 255.778 142.592 255.729 142.819 255.634C143.045 255.54 143.25 255.401 143.423 255.226L187.07 211.505C189.799 208.847 191.974 205.672 193.468 202.165C194.962 198.658 195.746 194.889 195.773 191.077C195.801 187.264 195.072 183.484 193.629 179.956C192.186 176.428 190.058 173.222 187.367 170.524C184.677 167.826 181.478 165.69 177.957 164.239C174.435 162.789 170.661 162.054 166.854 162.075C163.046 162.097 159.281 162.876 155.776 164.367C152.271 165.858 149.097 168.03 146.438 170.759L142.095 175.16Z" fill="#034B3E"/>
<path fill-rule="evenodd" clip-rule="evenodd" d="M216.282 224.77C215.913 230.237 215.597 235.791 215.403 241.336C214.521 241.374 213.641 241.229 212.818 240.909C211.995 240.59 211.247 240.103 210.621 239.479L195.949 224.814L181.312 239.479C180.119 240.672 178.501 241.342 176.815 241.342C175.129 241.342 173.512 240.672 172.319 239.479L157.682 224.814L143.036 239.479C141.844 240.671 140.229 241.341 138.544 241.341C136.859 241.341 135.243 240.671 134.052 239.479L119.38 224.814L104.743 239.479C103.549 240.672 101.932 241.342 100.246 241.342C98.5599 241.342 96.9427 240.672 95.7495 239.479L81.1389 224.814L66.5019 239.479C65.8761 240.103 65.1281 240.59 64.305 240.909C63.4819 241.229 62.6017 241.374 61.7196 241.336C61.4823 235.791 61.1746 230.228 60.8405 224.77L62.0361 225.967L76.6819 211.312C77.8736 210.119 79.4894 209.45 81.174 209.45C82.8587 209.45 84.4744 210.119 85.6662 211.312L100.312 225.967L114.949 211.312C116.142 210.119 117.759 209.449 119.446 209.449C121.132 209.449 122.749 210.119 123.942 211.312L138.579 225.967L153.216 211.312C154.409 210.119 156.026 209.449 157.713 209.449C159.399 209.449 161.016 210.119 162.209 211.312L176.846 225.967L191.465 211.312C192.659 210.119 194.276 209.449 195.962 209.449C197.648 209.449 199.265 210.119 200.459 211.312L215.104 225.967L216.3 224.77H216.282ZM214.858 257.453L200.441 243.018C199.248 241.825 197.631 241.155 195.944 241.155C194.258 241.155 192.641 241.825 191.448 243.018L176.811 257.682L162.174 243.018C160.981 241.825 159.364 241.155 157.677 241.155C155.991 241.155 154.374 241.825 153.181 243.018L138.544 257.682L123.907 243.018C122.714 241.825 121.096 241.155 119.41 241.155C117.724 241.155 116.107 241.825 114.914 243.018L100.277 257.682L85.6311 243.018C84.4393 241.825 82.8235 241.156 81.1389 241.156C79.4542 241.156 77.8385 241.825 76.6467 243.018L62.2383 257.453C62.3526 260.974 62.546 266.476 62.7833 272.998C64.1948 272.833 65.5087 272.194 66.5107 271.185L81.1477 256.52L95.7846 271.185C96.9779 272.378 98.5951 273.048 100.281 273.048C101.967 273.048 103.585 272.378 104.778 271.185L119.38 256.52L134.025 271.185C135.217 272.377 136.833 273.047 138.518 273.047C140.202 273.047 141.818 272.377 143.01 271.185L157.655 256.52L172.292 271.185C173.486 272.378 175.103 273.048 176.789 273.048C178.475 273.048 180.092 272.378 181.286 271.185L195.923 256.52L210.559 271.185C211.561 272.194 212.875 272.833 214.287 272.998C214.551 266.476 214.735 261.001 214.858 257.453Z" fill="#61C1B8"/>
<path fill-rule="evenodd" clip-rule="evenodd" d="M64.7701 254.91C66.8524 258.739 69.1627 262.44 71.6886 265.992L66.5019 271.185C65.4999 272.194 64.186 272.833 62.7746 272.998C62.5372 266.476 62.3438 261.001 62.2295 257.453L64.7701 254.91V254.91ZM165.743 232.904L157.682 224.832L143.036 239.497C141.844 240.689 140.229 241.359 138.544 241.359C136.859 241.359 135.244 240.689 134.052 239.497L119.38 224.814L114.87 229.33L105.885 220.334L114.887 211.312C116.081 210.119 117.698 209.449 119.384 209.449C121.07 209.449 122.687 210.119 123.881 211.312L138.518 225.967L153.154 211.312C154.348 210.119 155.965 209.449 157.651 209.449C159.337 209.449 160.954 210.119 162.148 211.312L174.763 223.89L165.778 232.886L165.743 232.904ZM157.48 241.178C155.863 241.226 154.325 241.89 153.181 243.035L140.873 255.358C141.227 255.667 141.684 255.83 142.152 255.814C142.621 255.797 143.066 255.603 143.397 255.27L157.462 241.187L157.48 241.178ZM92.9276 268.351C93.5605 267.427 93.8067 266.819 93.6924 266.916C93.0594 267.321 81.6488 251.301 81.6488 251.301L89.4815 246.899L100.277 257.709L108.127 249.839L118.87 257.022L104.804 271.106C103.611 272.299 101.994 272.969 100.308 272.969C98.6215 272.969 97.0043 272.299 95.811 271.106L92.9627 268.254L92.9276 268.351ZM122.149 259.284L131.907 265.86L147.344 266.89L143.036 271.203C141.844 272.395 140.229 273.065 138.544 273.065C136.859 273.065 135.244 272.395 134.052 271.203L122.149 259.284ZM160.425 259.284C162.469 255.418 164.726 251.668 167.185 248.053L176.811 257.691L184.837 249.655C190.463 250.535 195.386 251.345 195.386 251.345L184.89 261.793C184.89 261.793 184.292 265.631 183.562 268.949L181.321 271.194C180.127 272.387 178.51 273.057 176.824 273.057C175.138 273.057 173.521 272.387 172.328 271.194L160.425 259.284Z" fill="#138175"/>
<path fill-rule="evenodd" clip-rule="evenodd" d="M98.2813 79.3378C98.2813 79.3378 94.4133 75.2095 91.7848 75.456C89.1563 75.7025 85.9124 81.336 86.2904 85.5875C86.6685 89.839 91.6617 104.592 100.277 98.9671C108.892 93.3424 98.2813 79.3378 98.2813 79.3378Z" fill="#F2BA95"/>
<path fill-rule="evenodd" clip-rule="evenodd" d="M101.569 84.0911C101.715 84.2334 101.812 84.418 101.846 84.6187C101.881 84.8194 101.852 85.026 101.763 85.209C101.723 85.2758 101.67 85.3332 101.606 85.377C101.542 85.4209 101.47 85.4501 101.393 85.4627C101.317 85.4753 101.239 85.471 101.164 85.4499C101.09 85.4289 101.021 85.3917 100.963 85.341V85.341C100.963 85.341 98.6593 98.4389 96.7165 96.3968C94.7737 94.3546 92.7342 92.4005 91.9166 89.082C91.0991 85.7635 94.0352 82.7355 93.0067 81.8553C91.9782 80.9751 90.9057 82.3218 90.8002 82.4451C90.2355 83.1884 89.7932 84.0175 89.4903 84.9009C89.4714 84.9856 89.4319 85.0643 89.3753 85.1301C89.3187 85.1958 89.2469 85.2466 89.166 85.2779C89.0852 85.3093 88.9979 85.3202 88.9119 85.3097C88.8259 85.2992 88.7437 85.2676 88.6728 85.2178C88.5014 85.1041 88.3707 84.9388 88.2995 84.7457C88.2284 84.5526 88.2206 84.3418 88.2772 84.1439C88.2772 84.1439 89.7628 79.1618 93.4023 79.3202C96.9011 79.4611 101.56 84.0823 101.569 84.0911Z" fill="#EE8B83"/>
<path fill-rule="evenodd" clip-rule="evenodd" d="M179.774 79.3202C179.774 79.3202 183.659 75.2095 186.288 75.4648C188.916 75.7201 192.125 81.3712 191.738 85.6227C191.351 89.8742 186.279 104.609 177.672 98.9407C169.066 93.2719 179.774 79.3202 179.774 79.3202Z" fill="#F2BA95"/>
<path fill-rule="evenodd" clip-rule="evenodd" d="M176.451 84.0647C176.305 84.2048 176.207 84.388 176.172 84.5875C176.138 84.787 176.167 84.9924 176.257 85.1738C176.295 85.241 176.347 85.2991 176.409 85.3438C176.472 85.3885 176.544 85.4187 176.619 85.4322C176.695 85.4456 176.773 85.4421 176.847 85.4218C176.921 85.4014 176.99 85.3648 177.048 85.3146V85.3146C177.048 85.3146 179.299 98.4125 181.25 96.388C183.202 94.3634 185.25 92.4093 186.086 89.0996C186.921 85.7899 183.993 82.7355 185.066 81.8553C186.138 80.975 187.167 82.3394 187.263 82.4626C187.808 83.208 188.226 84.0376 188.503 84.9185C188.522 85.0032 188.561 85.0819 188.618 85.1476C188.675 85.2134 188.746 85.2642 188.827 85.2955C188.908 85.3268 188.995 85.3377 189.081 85.3273C189.167 85.3168 189.25 85.2852 189.321 85.2354C189.491 85.121 189.622 84.956 189.695 84.7634C189.767 84.5708 189.778 84.3604 189.725 84.1615C189.725 84.1615 188.257 79.1706 184.617 79.3114C181.145 79.4522 176.468 84.0471 176.451 84.0647Z" fill="#EE8B83"/>
<path fill-rule="evenodd" clip-rule="evenodd" d="M138.72 21.5416C84.7081 22.6595 92.9101 64.6731 97.8857 98.6326C100.04 112.91 107.951 121.299 107.951 121.299C107.951 121.299 123.256 134.59 128.531 137.363C131.94 139.02 135.697 139.832 139.485 139.731C143.27 139.792 147.014 138.931 150.394 137.222C155.669 134.388 170.78 120.911 170.78 120.911C170.78 120.911 178.622 112.426 180.538 98.122C185.083 64.145 192.767 21.9993 138.72 21.5416Z" fill="#F2BA95"/>
<path fill-rule="evenodd" clip-rule="evenodd" d="M131.687 21.9465C128.491 22.2528 125.321 22.7882 122.202 23.5485L99.1604 51.1879C98.9406 52.0681 104.154 59.9902 104.154 59.9902C104.154 59.9902 110.219 54.4624 117.727 56.3725C125.234 58.2826 132.672 62.6221 139.036 62.1644L143.836 56.3285L145.093 60.5008C145.093 60.5008 151.247 58.7931 152.566 59.066C153.884 59.3389 155.449 62.4373 155.985 69.8753L159.669 60.9761L159.053 58.4498C159.053 58.4498 162.464 56.0556 164.029 55.8091C165.594 55.5627 175.404 61.8299 174.745 61.8916C174.42 61.8916 178.174 55.3866 182.024 48.8201C180.327 41.9982 177.198 35.9774 171.897 31.3386L131.687 21.9465Z" fill="#EE8B83"/>
<path fill-rule="evenodd" clip-rule="evenodd" d="M142.386 119.793C142.617 119.733 142.818 119.588 142.947 119.386C143.076 119.184 143.124 118.941 143.082 118.705C143.04 118.469 142.91 118.258 142.719 118.114C142.528 117.97 142.29 117.903 142.052 117.927C139.983 118.207 137.887 118.207 135.819 117.927C135.575 117.905 135.331 117.979 135.14 118.132C134.949 118.286 134.824 118.507 134.792 118.751C134.76 118.994 134.824 119.241 134.969 119.438C135.115 119.636 135.331 119.769 135.573 119.811C137.834 120.11 140.126 120.104 142.386 119.793V119.793Z" fill="#EE8B83"/>
<path fill-rule="evenodd" clip-rule="evenodd" d="M148.232 114.697C148.35 114.656 148.459 114.592 148.553 114.509C148.646 114.425 148.723 114.324 148.777 114.212C148.832 114.099 148.864 113.976 148.871 113.851C148.879 113.726 148.862 113.601 148.821 113.482C148.78 113.364 148.716 113.254 148.633 113.161C148.549 113.067 148.449 112.99 148.336 112.936C148.223 112.881 148.101 112.849 147.976 112.841C147.851 112.834 147.726 112.851 147.607 112.892C141.938 114.549 135.914 114.549 130.245 112.892C130.124 112.855 129.997 112.843 129.871 112.856C129.745 112.869 129.623 112.907 129.512 112.968C129.401 113.029 129.303 113.111 129.224 113.211C129.145 113.31 129.087 113.424 129.053 113.546C129.019 113.668 129.01 113.796 129.026 113.922C129.042 114.048 129.083 114.169 129.147 114.279C129.21 114.388 129.295 114.484 129.396 114.561C129.497 114.637 129.613 114.692 129.735 114.723C135.778 116.471 142.193 116.462 148.232 114.697V114.697Z" fill="#EE8B83"/>
<path d="M122.158 91.0889C122.158 88.5853 120.131 86.5557 117.63 86.5557C115.13 86.5557 113.103 88.5853 113.103 91.0889V95.6045C113.103 98.1082 115.13 100.138 117.63 100.138C120.131 100.138 122.158 98.1082 122.158 95.6045V91.0889Z" fill="#172041"/>
<path d="M164.337 91.0889C164.337 88.5853 162.31 86.5557 159.809 86.5557C157.309 86.5557 155.282 88.5853 155.282 91.0889V95.6045C155.282 98.1082 157.309 100.138 159.809 100.138C162.31 100.138 164.337 98.1082 164.337 95.6045V91.0889Z" fill="#172041"/>
<path fill-rule="evenodd" clip-rule="evenodd" d="M123.379 77.6302C124.104 77.8568 124.879 77.8568 125.604 77.6302C126.103 77.3768 126.546 77.0246 126.906 76.5949C127.265 76.1652 127.534 75.667 127.696 75.1303C127.696 74.7254 127.054 75.324 125.059 74.2501C123.063 73.1762 116.039 70.4122 110.589 75.2183C109.639 76.0458 110.246 76.794 111.38 76.5123C113.341 75.8125 115.43 75.55 117.503 75.7431C119.576 75.9362 121.581 76.5802 123.379 77.6302V77.6302Z" fill="#172041"/>
<path fill-rule="evenodd" clip-rule="evenodd" d="M137.559 103.095C137.058 102.646 137.471 100.719 137.867 99.4248C138.166 98.4477 138.412 97.9724 138.693 98.0076C138.975 98.0428 139.291 98.3157 139.739 99.2135C140.337 100.402 141.058 102.198 140.619 102.734C140.211 103.108 139.696 103.344 139.147 103.409C138.598 103.473 138.043 103.364 137.559 103.095Z" fill="#F9D4C8"/>
<path fill-rule="evenodd" clip-rule="evenodd" d="M136.962 92.1452C137.033 91.9534 137.173 91.795 137.354 91.7005C137.536 91.606 137.746 91.5822 137.943 91.6336C138.141 91.6851 138.313 91.8081 138.426 91.979C138.538 92.15 138.583 92.3566 138.553 92.559C138.166 94.0201 135.915 102.33 136.135 103.069C136.293 103.553 137.234 104.204 137.647 104.451C138.374 104.883 139.194 105.133 140.038 105.182C140.242 105.208 140.428 105.31 140.561 105.466C140.694 105.623 140.764 105.823 140.757 106.028C140.75 106.234 140.668 106.429 140.525 106.577C140.383 106.725 140.19 106.814 139.986 106.828C138.872 106.776 137.788 106.449 136.83 105.877C135.849 105.368 135.055 104.56 134.562 103.571C134.263 102.541 136.504 93.7561 136.962 92.1452Z" fill="#EE8B83"/>
<path fill-rule="evenodd" clip-rule="evenodd" d="M155.88 77.6302C155.156 77.8568 154.38 77.8568 153.656 77.6302C153.158 77.3769 152.716 77.0258 152.356 76.5978C151.997 76.1698 151.727 75.6737 151.563 75.1391C151.563 74.7254 152.205 75.3239 154.148 74.2589C156.091 73.1938 163.22 70.4298 168.706 75.2271C169.655 76.0545 169.049 76.8027 167.914 76.5211C165.949 75.8146 163.853 75.5478 161.774 75.7394C159.695 75.931 157.683 76.5764 155.88 77.6302V77.6302Z" fill="#172041"/>
<path fill-rule="evenodd" clip-rule="evenodd" d="M97.1297 94.0202C98.8351 93.6065 102.272 89.1085 100.646 80.4557C100.646 80.4557 109.534 62.6574 103.283 55.0345C97.033 47.4117 87.864 55.6771 87.864 55.6771L90.598 75.4032C90.598 75.5352 90.598 75.7729 90.6947 75.8081C96.3385 77.7358 96.1451 90.4992 97.1297 94.0202Z" fill="#172041"/>
<path fill-rule="evenodd" clip-rule="evenodd" d="M181.083 94.0202C179.378 93.6065 175.941 89.1085 177.567 80.4557C177.567 80.4557 168.671 62.6574 174.93 55.0345C181.189 47.4117 190.349 55.6771 190.349 55.6771L187.615 75.4032C187.615 75.5352 187.615 75.7729 187.518 75.8081C181.875 77.7358 182.068 90.4992 181.083 94.0202Z" fill="#172041"/>
<path fill-rule="evenodd" clip-rule="evenodd" d="M144.082 58.3442C144.082 58.3442 150.878 55.8356 152.873 56.5838C154.869 57.332 157.269 65.0164 155.95 69.8665C155.95 69.8665 155.678 71.0636 156.205 71.2925C156.732 71.5214 159.721 71.0636 161.761 65.078C163.8 59.0924 159.124 52.8252 155.871 50.4309C152.618 48.0367 146.561 51.3376 144.082 58.3442Z" fill="#172041"/>
<path fill-rule="evenodd" clip-rule="evenodd" d="M178.578 48.2303C178.578 48.2303 195.685 34.8859 191.835 24.2527C187.984 13.6194 158.939 0.87364 147.3 0.0462188C135.66 -0.781202 115.362 9.72881 109.296 13.3114C120.276 -14.6449 75.3017 14.1476 93.6133 41.2148C107.169 61.2578 178.578 48.2303 178.578 48.2303Z" fill="#172041"/>
<path fill-rule="evenodd" clip-rule="evenodd" d="M132.566 60.2719C128.83 58.3354 118.325 52.8075 116.452 52.1826C114.58 51.5576 113.103 52.0153 110.079 54.1191C108.141 55.4253 106.301 56.8728 104.576 58.4498C103.943 59.0396 104.119 63.7929 103.108 68.5461H89.9739C87.8289 60.3423 85.6399 51.9273 85.0949 49.5595C81.8159 34.8507 123.626 17.158 139.01 18.4783C154.394 17.1932 196.204 34.8859 192.898 49.5947C192.345 51.9273 190.191 60.3423 188.037 68.5461H174.956C173.945 63.7929 174.077 59.0396 173.488 58.4498C171.766 56.8722 169.93 55.4247 167.994 54.1191C164.961 52.0153 163.484 51.5576 161.611 52.1826C159.739 52.8075 149.234 58.3442 145.498 60.2719C140.619 62.7982 137.401 62.7982 132.566 60.2719Z" fill="#1C273C"/>
<path fill-rule="evenodd" clip-rule="evenodd" d="M192.345 28.0377C192.414 26.7524 192.229 25.466 191.8 24.2527C187.949 13.6194 158.939 0.87364 147.3 0.0462188C135.66 -0.781202 115.362 9.72881 109.296 13.3114C116.725 -5.59609 98.5626 1.4546 91.7145 16.3658C88.831 36.0831 112.347 40.8715 126.5 45.5192C140.654 50.1668 154.807 49.8587 173.585 43.3274C190.929 37.2978 192.274 29.226 192.345 28.0377Z" fill="#30394A"/>
<path fill-rule="evenodd" clip-rule="evenodd" d="M142.605 0.21344C130.808 1.68343 114.606 10.1337 109.296 13.3113C105.068 20.8726 119.441 21.9993 119.441 21.9993C120.435 10.9083 142.579 0.231045 142.605 0.21344Z" fill="#1C273C"/>
<path fill-rule="evenodd" clip-rule="evenodd" d="M173.796 9.14783C173.347 10.1161 172.855 11.1108 172.31 12.1142C177.371 15.0439 181.938 18.7575 185.839 23.1172C186.648 21.832 187.439 20.4765 188.204 19.0329C184.784 15.5735 179.536 12.1406 173.796 9.14783V9.14783ZM170.2 15.6616C175.205 18.5388 179.683 22.251 183.439 26.6381C159.783 58.7051 122.175 34.0057 122.166 33.1166C122.158 32.2276 123.265 32.1924 123.265 32.1924C148.908 38.4157 162.877 26.955 170.2 15.6616Z" fill="#2B5250"/>
<path fill-rule="evenodd" clip-rule="evenodd" d="M194.982 267.638L182.956 260.666L158.007 277.215L159.405 280.736C176.327 294.335 195.562 311.456 219.263 329.818C240.519 346.278 259.042 315.355 255.859 300.77C255.859 300.77 254.98 288.649 252.246 269.354H214.322L214.111 277.778C214.111 277.778 195.861 268.192 194.982 267.638Z" fill="#F2BA95"/>
<path fill-rule="evenodd" clip-rule="evenodd" d="M216.08 201.47C215.614 221.197 214.726 256.371 214.322 271.009H214.401C221.161 270.34 241.759 269.134 255.051 272.039C250.875 242.322 243.253 204.446 239.376 185.776C235.499 167.106 222.946 160.487 222.946 160.487C222.946 160.487 216.634 176.102 216.08 201.47Z" fill="#138175"/>
<path fill-rule="evenodd" clip-rule="evenodd" d="M214.639 258.122L214.322 271.035H214.401C221.161 270.366 241.759 269.161 255.051 272.065C254.391 267.356 253.644 262.453 252.844 257.445C240.116 256.474 227.325 256.701 214.639 258.122V258.122Z" fill="white"/>
<path fill-rule="evenodd" clip-rule="evenodd" d="M186.815 262.911L182.947 260.657L181.787 261.432L157.99 277.215L159.387 280.744L170.007 289.45L186.815 262.911Z" fill="#EE8B83"/>
<path fill-rule="evenodd" clip-rule="evenodd" d="M138.544 167.845L142.887 163.497C148.278 158.097 155.591 155.063 163.217 155.063C170.843 155.062 178.156 158.094 183.549 163.493C188.942 168.891 191.972 176.214 191.973 183.849C191.974 191.485 188.945 198.808 183.554 204.208L139.863 247.964C139.69 248.139 139.485 248.278 139.258 248.372C139.032 248.467 138.789 248.516 138.544 248.516C138.299 248.516 138.056 248.467 137.829 248.372C137.603 248.278 137.398 248.139 137.225 247.964L93.5342 204.208C88.2581 198.784 85.3278 191.498 85.3779 183.927C85.428 176.356 88.4544 169.109 93.8017 163.756C99.1491 158.403 106.387 155.374 113.948 155.326C121.51 155.277 128.786 158.213 134.201 163.497L138.544 167.845Z" fill="#65A4C5"/>
<path fill-rule="evenodd" clip-rule="evenodd" d="M138.544 167.845L142.887 163.497C144.742 161.647 146.838 160.057 149.119 158.77C144.311 166.12 148.108 174.905 148.689 175.495C149.41 176.217 149.796 176.912 149.357 177.44C149.227 177.584 149.053 177.682 148.862 177.717C148.671 177.752 148.474 177.722 148.302 177.634L138.544 167.854V167.845ZM180.679 160.988C180.943 161.27 192.986 174.729 182.217 189.473C171.343 204.366 142.922 230.844 137.7 234.937C132.478 239.03 124.039 234.743 124.03 234.735L137.216 247.938C137.389 248.113 137.594 248.251 137.821 248.346C138.047 248.44 138.29 248.489 138.535 248.489C138.78 248.489 139.023 248.44 139.25 248.346C139.476 248.251 139.681 248.113 139.854 247.938L183.554 204.208C188.929 198.801 191.947 191.482 191.947 183.853C191.947 176.223 188.929 168.904 183.554 163.497C182.655 162.595 181.694 161.757 180.679 160.988Z" fill="#1DB4E8"/>
<path fill-rule="evenodd" clip-rule="evenodd" d="M152.495 157.159C153.119 156.904 153.761 156.675 154.403 156.473C155.282 157.124 156.653 158.612 157.568 158.779C158.693 158.99 157.919 158.779 158.983 157.652C160.047 156.526 158.693 157.371 157.497 156.244C157.34 156.103 157.211 155.932 157.119 155.742C163.189 154.412 169.526 155.087 175.18 157.668C180.834 160.248 185.5 164.594 188.478 170.055C191.456 175.515 192.586 181.795 191.698 187.953C190.81 194.11 187.953 199.814 183.554 204.208L173.444 214.331C173.156 214.405 172.853 214.405 172.565 214.331C171.932 214.084 171.791 215.211 171.791 215.633C171.791 216.056 169.576 216.408 168.169 216.514C166.763 216.619 167.396 217.288 166.868 217.288C166.341 217.288 165.884 219.859 165.11 219.929C164.192 219.991 163.275 219.783 162.473 219.33C162.051 218.978 159.721 219.119 160.178 217.429C160.263 217.231 160.308 217.017 160.31 216.801C160.311 216.585 160.27 216.371 160.188 216.171C160.106 215.971 159.986 215.789 159.833 215.637C159.68 215.484 159.499 215.363 159.299 215.281C159.299 215.281 157.541 213.697 157.647 212.535C157.752 211.373 158.28 211.408 158.315 210.951C158.35 210.493 157.049 209.824 157.26 208.979C157.471 208.134 157.787 208.345 158.737 206.972C159.686 205.599 157.26 206.725 157.647 204.921C158.033 203.117 159.651 204.498 160.284 204.217C160.917 203.935 159.405 202.527 160.064 200.414C160.724 198.302 160.425 200.273 161.444 198.583C162.464 196.893 162.218 195.661 162.499 195.238C162.747 194.675 163.041 194.133 163.378 193.619C163.871 193.02 160.53 192.844 160.811 192.422C161.093 191.999 161.761 192.21 161.585 191.779C161.116 190.874 160.795 189.899 160.636 188.892C160.636 187.871 163.203 189.772 164.328 189.913C165.453 190.054 164.785 189.174 165.031 188.329C165.277 187.484 166.086 187.976 167.282 187.906C168.477 187.836 168.231 187.378 168.231 186.779C168.231 186.181 169.11 185.688 170.587 185.688C172.064 185.688 171.818 187.272 173.048 187.554C174.279 187.836 174.569 186.251 175.308 186.075C176.046 185.899 175.765 185.195 176.081 185.089C176.398 184.984 177.453 184.702 177.84 184.209C178.226 183.716 178.437 184.068 180.793 181.357C183.149 178.646 180.617 180.406 180.864 179.245C181.11 178.083 180.688 177.484 180.336 176.173C179.985 174.861 179.457 176.525 178.93 175.715C178.402 174.905 177.945 175.151 177.664 174.518C177.382 173.884 176.363 174.025 176.081 174.095C175.252 174.427 174.469 174.865 173.752 175.398C173.752 175.574 174.701 175.926 176.081 176.991C177.462 178.056 176.222 178.752 176.081 179.491C175.941 180.23 174.218 179.174 173.857 178.892C173.307 178.474 172.718 178.108 172.099 177.801C170.974 177.158 170.341 177.907 170.024 177.907C169.708 177.907 169.145 178.329 168.758 178.012C168.372 177.695 167.211 178.681 166.649 179.068C166.086 179.456 166.332 181.428 165.84 181.04C165.348 180.653 163.695 182.132 163.695 183.012C163.791 183.823 163.644 184.644 163.273 185.371C162.816 186.11 161.409 186.04 161.972 184.772C162.534 183.505 161.831 183.399 161.409 182.836C160.987 182.273 161.409 182.449 161.655 182.026C161.902 181.604 162.112 181.604 162.253 181.428C162.538 180.898 162.74 180.328 162.851 179.737C162.992 179.033 162.359 179.526 161.163 178.329C159.967 177.132 160.003 179.737 159.264 180.09C158.526 180.442 158.482 180.794 158.271 180.266C158.084 179.807 157.848 179.371 157.568 178.963C157.36 178.572 157.206 178.154 157.11 177.722C156.899 177.088 156.302 177.44 156.056 176.841C155.809 176.243 153.594 176.384 153.348 175.856C153.102 175.327 153.629 175.398 154.93 174.623C156.231 173.849 153.946 173.919 152.926 173.039C151.906 172.159 152.926 172.511 152.926 172.511L153.664 172.299C153.718 171.29 153.957 170.3 154.368 169.377C155.036 167.934 154.473 169.729 154.473 170.821C154.473 171.912 155.809 171.771 156.829 172.123C157.849 172.476 157.286 172.898 158.411 173.673C159.537 174.447 159.088 174.342 160.003 173.884C160.917 173.426 160.214 172.264 160.073 171.56C159.932 170.856 159.194 171.278 158.517 170.152C157.84 169.025 158.517 168.602 158.517 168.602C158.165 168.43 157.835 168.218 157.532 167.969C157.003 167.547 156.594 166.993 156.347 166.362C156.1 165.732 156.024 165.047 156.126 164.377C156.337 162.397 156.056 163.497 155.845 163.031C155.634 162.564 154.649 162.679 154.86 161.763C154.937 161.307 155.055 160.86 155.212 160.425C155.352 160.073 155.071 159.439 153.102 158.594C151.678 157.943 152.117 157.626 152.495 157.159Z" fill="#60CA8E"/>
<path fill-rule="evenodd" clip-rule="evenodd" d="M104.365 156.675C105.006 156.446 105.666 156.244 106.316 156.068C106.643 156.024 106.965 155.945 107.274 155.83C112.825 154.537 118.633 154.904 123.977 156.887C123.855 156.959 123.725 157.018 123.59 157.063C122.078 157.591 119.722 156.358 119.371 156.816C119.019 157.274 118.597 157.943 118.773 158.33C118.949 158.717 117.964 159.07 119.828 159.422C121.692 159.774 121.164 159.316 122.078 159.668C122.993 160.02 123.45 158.788 124.188 159.915C124.927 161.041 123.907 162.344 124.048 163.541C124.188 164.738 126.79 164.421 124.329 165.522C121.867 166.622 120.672 166.402 120.672 166.402C120.672 166.402 118.035 166.331 117.788 167.036C117.542 167.74 114.905 166.684 114.764 167.529C114.709 168.712 114.926 169.893 115.397 170.979C115.749 171.542 118.632 171.472 116.874 173.162C115.116 174.852 116.382 176.19 116.804 176.965C117.226 177.739 118.914 177.035 118.984 175.345C119.054 173.655 120.953 171.19 121.375 170.944C121.797 170.697 119.195 166.719 121.727 167C122.916 167.206 124.133 167.182 125.314 166.93C125.314 166.93 126.456 164.589 126.878 165.328C127.3 166.067 127.757 164.976 128.786 165.328C129.814 165.68 131.529 165.117 130.931 166.384C130.333 167.652 130.474 167.933 130.052 168.426C129.63 168.919 127.793 167.722 128.004 169.412C128.215 171.102 129.067 171.173 128.074 171.56C127.08 171.947 125.753 171.384 125.648 171.63C125.542 171.877 124.874 171.877 125.19 172.898C125.507 173.919 126.843 174.095 126.878 175.715C126.913 177.334 124.979 176.771 126.351 178.496C127.722 180.222 129.489 179.033 127.687 180.723C125.885 182.413 125.577 178.576 124.311 179.139C123.045 179.702 123.819 180.266 121.85 180.899C119.881 181.533 119.67 181.075 118.966 181.568C118.263 182.061 116.927 182.73 116.786 183.399C116.646 184.068 114.536 183.54 114.149 184.35C113.762 185.16 113.446 184.526 113.446 185.371C113.446 186.216 113.446 186.744 113.938 187.026C114.43 187.307 114.536 186.146 115.942 186.216C116.363 186.292 116.796 186.238 117.185 186.062C117.575 185.886 117.901 185.596 118.123 185.23C118.263 184.913 118.263 184.35 118.861 184.244C119.488 184.138 120.126 184.115 120.76 184.174C120.936 184.279 122.975 183.294 123.503 183.505C124.03 183.716 124.979 183.294 125.261 183.434C125.542 183.575 126.14 182.871 126.324 183.047C126.509 183.223 127.415 183.047 127.415 183.047C127.415 183.047 129.56 183.153 129.7 183.505C129.841 183.857 130.017 183.505 130.157 184.491C130.298 185.477 131.247 186.568 129.56 186.568C127.872 186.568 129.102 185.688 127.696 185.16C126.289 184.632 124.241 185.371 124.179 185.653C124.118 185.934 123.3 185.512 122.421 185.441C121.542 185.371 120.944 184.948 120.944 185.688C120.944 186.427 121.683 187.026 120.558 187.307C119.432 187.589 117.147 186.04 115.986 187.484C115.428 188.351 114.618 189.026 113.665 189.42C112.575 190.019 112.786 192.061 112.4 192.202C112.013 192.342 109.964 191.075 108.804 192.351C107.644 193.628 109.2 192.703 108.136 194.112C107.072 195.52 106.518 195.45 106.8 196.154C107.081 196.858 109.586 197.386 108.171 197.985C106.756 198.583 106.167 199.886 105.604 198.654C105.042 197.421 105.674 196.295 105.077 194.886C104.479 193.478 104.198 193.654 103.74 192.879C103.283 192.105 106.307 192.202 103.389 190.828C100.47 189.455 100.752 191.145 99.0989 190.3C97.4462 189.455 96.8835 191.638 96.7077 192.941C96.5319 194.244 95.0902 193.716 95.8286 195.089C96.5671 196.462 96.8835 196.11 96.778 197.06C96.6725 198.011 97.1297 198.363 96.8484 198.434C96.5671 198.504 95.3363 199.666 94.7298 198.434C94.1232 197.201 93.6397 197.131 93.6045 196.075C93.5693 195.018 93.8155 194.455 92.9012 193.962C91.987 193.469 91.143 194.173 91.7057 192.765C92.2683 191.357 93.4639 189.376 92.4441 186.982C91.4244 184.588 90.1936 186.102 91.3892 183.672C92.5848 181.243 94.7737 181.771 93.0067 179.729C91.2397 177.686 89.1387 179.729 90.9672 176.621C92.7957 173.514 92.9364 174.227 93.6045 172.748C94.1327 171.409 94.513 170.016 94.7385 168.594C94.7385 168.594 94.8089 166.129 98.4659 164.192C102.123 162.256 102.053 163.409 103.108 160.029C103.436 158.879 103.857 157.758 104.365 156.675Z" fill="#60CA8E"/>
<path fill-rule="evenodd" clip-rule="evenodd" d="M97.1297 199.992C97.1297 199.992 95.6879 199.886 96.2506 200.802C96.8132 201.717 97.3406 201.682 96.8835 202.395C96.4264 203.108 95.6879 203.055 96.356 203.803C97.0242 204.551 97.2351 204.437 97.4461 204.683C97.6571 204.93 97.9033 204.754 97.9384 205.247C97.9736 205.74 97.3406 205.388 98.3252 206.409C99.3098 207.43 99.7318 206.902 99.9779 207.078C100.224 207.254 100.189 206.937 100.224 207.394C100.238 207.708 100.335 208.012 100.505 208.275C100.646 208.486 103.283 207.641 102.369 205.986C101.455 204.331 101.173 204.859 100.963 203.979C100.752 203.099 103.459 202.034 101.701 201.858C99.9428 201.682 99.6966 201.611 99.4505 201.4C99.1214 200.863 98.9059 200.264 98.8175 199.64C98.7824 199.358 97.8681 198.971 97.1297 199.992Z" fill="#60CA8E"/>
<path fill-rule="evenodd" clip-rule="evenodd" d="M102.457 200.229C102.457 200.229 104.145 200.511 103.934 201.365C103.723 202.219 104.18 201.682 104.25 202.315C104.321 202.949 103.758 203.055 104.11 203.794C104.329 204.241 104.704 204.592 105.165 204.78C105.165 204.78 105.34 204.287 105.34 205.449C105.34 206.611 106.993 206.435 106.993 206.435C106.993 206.435 107.134 205.414 107.732 205.555C108.042 205.635 108.36 205.682 108.681 205.696C108.681 205.696 109.56 205.379 109.666 204.991C109.771 204.604 110.756 204.604 109.806 203.548C108.857 202.492 108.54 202.315 108.47 202.104C108.4 201.893 109.63 201.145 108.294 201.145C107.69 201.208 107.08 201.098 106.536 200.828C106.517 200.693 106.469 200.564 106.396 200.448C106.324 200.333 106.227 200.234 106.114 200.159C105.712 200.054 105.298 200.007 104.883 200.018C104.326 199.856 103.785 199.644 103.266 199.384C103.266 199.384 101.965 199.736 102.457 200.229Z" fill="#60CA8E"/>
<path fill-rule="evenodd" clip-rule="evenodd" d="M114.466 204.516C114.114 204.516 113.868 205.748 112.707 206.065C111.547 206.382 111.16 205.432 110.949 206.734C110.738 208.037 109.085 208.037 109.085 208.037C109.085 208.037 108.874 207.931 109.296 208.46C109.718 208.988 111.055 206.946 111.934 207.579C112.813 208.213 112.531 208.46 112.813 208.988C113.094 209.516 114.852 208.248 115.134 208.495C115.415 208.741 116.795 207.368 116.962 207.861C117.129 208.354 117.384 208.952 118.237 208.636C119.09 208.319 120.241 207.403 120.101 206.875C119.96 206.347 118.483 203.741 117.885 204.657C117.287 205.572 115.696 206.417 115.626 205.784C115.556 205.15 115.309 204.208 114.466 204.516Z" fill="#60CA8E"/>
<path fill-rule="evenodd" clip-rule="evenodd" d="M100.224 210.898L99.7318 210.405C99.934 209.859 100.558 208.785 102.176 209.709C102.631 210.162 103.187 210.5 103.799 210.694C104.41 210.889 105.059 210.934 105.692 210.827C108.013 210.546 107.028 209.067 108.646 210.202C109.411 210.788 110.27 211.241 111.186 211.54C111.186 211.54 112.312 209.912 112.523 210.766C112.734 211.62 113.085 213.582 112.452 213.653C111.819 213.723 111.749 213.864 110.483 213.23C109.217 212.597 108.514 210.405 107.494 211.708C106.994 212.343 106.438 212.933 105.833 213.468C105.369 213.723 104.839 213.833 104.313 213.783C103.786 213.732 103.286 213.525 102.879 213.186C102.176 212.306 102 212.13 101.683 211.708C101.249 211.353 100.755 211.079 100.224 210.898V210.898Z" fill="#60CA8E"/>
<path fill-rule="evenodd" clip-rule="evenodd" d="M132.065 242.78L108.98 219.674C108.887 219.114 108.887 218.543 108.98 217.984C109.261 216.787 110.175 217.42 110.879 216.285C111.711 215.241 112.879 214.52 114.184 214.243C115.872 214.067 115.591 214.56 116.716 215.123C117.841 215.686 118.694 216.188 119.679 215.123C120.663 214.058 123.547 214.524 123.406 215.519C123.384 216.652 123.478 217.785 123.687 218.899C123.687 218.899 130.439 219.779 131.423 220.026C132.408 220.272 132.417 221.716 132.557 223.688C132.666 224.344 132.909 224.971 133.272 225.529C133.636 226.087 134.111 226.563 134.667 226.927C137.675 227.089 140.686 226.659 143.528 225.659C148.741 223.969 144.935 229.039 146.342 230.87C147.748 232.701 146.342 233.978 145.92 235.527C145.498 237.076 145.04 236.794 145.04 236.794C145.04 236.794 141.524 237.921 140.645 238.625C139.766 239.329 140.223 239.505 139.098 238.625C137.973 237.745 137.551 238.484 137.551 238.484C135.882 238.914 134.339 239.735 133.05 240.879C132.514 241.381 132.167 242.052 132.065 242.78V242.78Z" fill="#60CA8E"/>
<path fill-rule="evenodd" clip-rule="evenodd" d="M135.845 246.574L134.447 245.165C134.478 244.649 134.654 244.153 134.954 243.732C135.254 243.312 135.667 242.985 136.144 242.789C139.027 241.521 138.394 243.07 140.434 242.014C141.923 241.104 143.217 239.907 144.24 238.493C144.24 238.493 145.225 238.775 145.647 238.845C146.069 238.916 147.687 238.352 146.35 239.831C145.014 241.31 145.788 242.472 144.451 242.93C143.115 243.387 140.997 242.049 140.645 243.176C140.418 244.118 139.871 244.952 139.098 245.535C138.526 245.887 135.019 243.968 135.687 245.535C135.84 245.858 135.895 246.219 135.845 246.574V246.574Z" fill="#60CA8E"/>
<path fill-rule="evenodd" clip-rule="evenodd" d="M125.718 157.635C126.62 158.044 127.5 158.5 128.355 158.999L128.267 159.219C127.634 160.874 127.67 159.959 127.67 159.959C127.67 159.959 126.157 160.909 125.982 160.416C125.806 159.923 125.595 159.853 125.314 159.536C125.032 159.219 125.243 158.339 125.384 158.057C125.484 157.908 125.596 157.767 125.718 157.635Z" fill="#60CA8E"/>
<path fill-rule="evenodd" clip-rule="evenodd" d="M138.544 167.845L141.243 165.143C140.988 165.61 141.691 166.111 141.726 166.455C141.761 166.798 140.777 166.956 139.713 167.766C138.649 168.576 139.933 168.646 140.109 169.527C140.285 170.407 139.546 170.055 138.772 171.182C137.999 172.308 138.06 171.78 137.498 172.379C136.935 172.977 137.498 173.822 137.322 175.019C137.146 176.217 135.704 176.04 135.177 175.266C134.65 174.491 135.177 174.456 134.474 173.505C133.77 172.555 132.716 172.625 132.469 172.027C132.223 171.428 132.294 171.534 133.243 170.548C134.192 169.562 132.751 169.245 132.927 168.259C133.107 167.137 133.438 166.044 133.911 165.011C134.263 164.483 133.032 164.729 133.032 164.483C133.032 164.237 133.032 163.409 133.155 162.467C133.507 162.793 133.858 163.119 134.201 163.462L138.544 167.81V167.845ZM141.498 164.888L141.586 164.835C142.535 164.307 144.223 165.618 144.012 162.441C143.625 162.784 143.256 163.136 142.887 163.506L141.498 164.897V164.888ZM129.331 159.606C130.446 160.313 131.51 161.098 132.513 161.957C131.96 162.062 131.186 162.318 130.755 161.895C130.063 161.336 129.427 160.711 128.856 160.029C128.654 159.73 128.918 159.633 129.331 159.589V159.606Z" fill="#60CA8E"/>
<path fill-rule="evenodd" clip-rule="evenodd" d="M145.559 165.548C145.348 165.548 143.52 165.434 143.52 166.428C143.52 167.423 143.379 167.309 142.852 168.127C142.324 168.946 142.57 169.5 142.219 169.958C141.867 170.416 141.621 170.134 141.41 170.838C141.199 171.542 142.5 171.402 141.164 171.824C139.827 172.247 139.3 172.106 139.405 172.528C139.511 172.951 138.772 173.937 140.144 174.007C141.515 174.078 141.48 173.655 142.219 173.127C142.957 172.599 142.746 172.88 143.098 172.528C143.449 172.176 142.922 171.542 143.414 169.676C143.906 167.81 143.731 169.395 144.961 168.092C146.192 166.789 146.509 165.583 145.559 165.548Z" fill="#60CA8E"/>
<path fill-rule="evenodd" clip-rule="evenodd" d="M138.544 167.845L141.243 165.143C140.988 165.61 141.691 166.111 141.726 166.455C141.761 166.798 140.777 166.956 139.713 167.766C138.649 168.576 139.713 168.646 140.038 169.342L138.544 167.845V167.845ZM180.679 160.98C181.691 161.751 182.649 162.593 183.545 163.497C188.921 168.903 191.941 176.221 191.942 183.851C191.944 191.48 188.928 198.8 183.554 204.208L173.444 214.331C173.156 214.405 172.853 214.405 172.565 214.331C171.932 214.084 171.791 215.211 171.791 215.633C171.791 216.056 169.576 216.408 168.169 216.514C166.763 216.619 167.396 217.288 166.868 217.288C166.341 217.288 165.884 219.859 165.11 219.929C164.192 219.991 163.275 219.783 162.473 219.33C162.051 218.978 159.721 219.119 160.178 217.429C160.263 217.23 160.308 217.017 160.31 216.801C160.311 216.585 160.27 216.371 160.188 216.171C160.106 215.971 159.986 215.789 159.833 215.637C159.68 215.484 159.499 215.363 159.299 215.281L159.088 215.079C167.879 206.373 177.066 196.594 182.261 189.499C193.092 174.676 180.846 161.147 180.723 161.006L180.679 160.98ZM132.065 242.78L124.03 234.735C124.03 234.735 132.487 239.048 137.7 234.937C139.124 233.81 142.289 231.02 146.35 227.244C146.183 228.485 145.717 230.025 146.35 230.87C147.757 232.71 146.35 233.978 145.928 235.527C145.506 237.076 145.049 236.794 145.049 236.794C145.049 236.794 141.533 237.921 140.654 238.625C139.775 239.329 140.232 239.505 139.107 238.625C137.981 237.745 137.559 238.484 137.559 238.484C135.891 238.914 134.348 239.735 133.058 240.879C132.487 241.367 132.105 242.039 131.977 242.78H132.065ZM145.559 165.548C145.348 165.548 143.52 165.434 143.52 166.428C143.52 167.423 143.379 167.309 142.851 168.127C142.324 168.946 142.57 169.5 142.219 169.958C141.867 170.416 141.656 170.169 141.454 170.733L143.106 172.387C143.074 171.477 143.153 170.567 143.344 169.676C143.836 167.81 143.66 169.395 144.891 168.092C146.122 166.789 146.509 165.557 145.559 165.522V165.548ZM135.845 246.53C135.89 246.184 135.835 245.833 135.687 245.517C135.019 243.924 138.526 245.843 139.098 245.517C139.871 244.934 140.418 244.1 140.645 243.158C140.997 241.996 143.115 243.334 144.451 242.912C145.788 242.489 145.014 241.292 146.35 239.813C147.686 238.335 146.069 238.933 145.647 238.828C145.225 238.722 144.24 238.476 144.24 238.476C143.217 239.89 141.923 241.086 140.434 241.996C138.394 243.053 139.027 241.504 136.144 242.771C135.666 242.967 135.254 243.294 134.954 243.715C134.654 244.135 134.478 244.632 134.447 245.148L135.845 246.556V246.53ZM141.498 164.844L141.586 164.791C142.535 164.263 144.223 165.574 144.012 162.397C143.625 162.74 143.256 163.092 142.887 163.462L141.498 164.844Z" fill="#20B58D"/>
<path fill-rule="evenodd" clip-rule="evenodd" d="M127.889 191.313C127.91 191.109 128.006 190.92 128.158 190.783C128.31 190.646 128.507 190.57 128.711 190.57C128.916 190.57 129.113 190.646 129.265 190.783C129.416 190.92 129.512 191.109 129.533 191.313C129.534 191.937 129.412 192.556 129.174 193.133C128.936 193.71 128.586 194.234 128.144 194.675V194.675C127.705 195.118 127.182 195.469 126.607 195.709C126.031 195.948 125.414 196.072 124.79 196.072C124.167 196.072 123.55 195.948 122.974 195.709C122.399 195.469 121.876 195.118 121.437 194.675V194.675C120.995 194.234 120.645 193.71 120.407 193.133C120.168 192.556 120.046 191.937 120.048 191.313C120.048 191.093 120.135 190.883 120.29 190.727C120.445 190.572 120.655 190.485 120.874 190.485C121.093 190.485 121.303 190.572 121.458 190.727C121.613 190.883 121.7 191.093 121.7 191.313C121.695 191.719 121.77 192.123 121.921 192.501C122.072 192.878 122.296 193.222 122.58 193.513C123.163 194.096 123.953 194.423 124.777 194.423C125.601 194.423 126.392 194.096 126.975 193.513C127.558 192.929 127.887 192.138 127.889 191.313V191.313Z" fill="#164579"/>
<path fill-rule="evenodd" clip-rule="evenodd" d="M120.54 191.004C120.609 190.96 120.687 190.93 120.768 190.916C120.849 190.902 120.932 190.905 121.012 190.924C121.092 190.943 121.168 190.977 121.234 191.026C121.301 191.074 121.357 191.136 121.399 191.207C121.442 191.277 121.469 191.356 121.481 191.437C121.492 191.519 121.487 191.602 121.466 191.681C121.445 191.761 121.408 191.836 121.358 191.901C121.308 191.966 121.245 192.02 121.173 192.061C120.534 192.38 119.82 192.52 119.107 192.466C118.944 192.466 118.787 192.401 118.672 192.285C118.557 192.17 118.492 192.013 118.492 191.849C118.492 191.686 118.557 191.529 118.672 191.414C118.787 191.298 118.944 191.233 119.107 191.233C119.597 191.293 120.093 191.213 120.54 191.004V191.004Z" fill="#164579"/>
<path fill-rule="evenodd" clip-rule="evenodd" d="M120.962 192.642C121.031 192.597 121.109 192.567 121.19 192.553C121.271 192.54 121.354 192.542 121.434 192.561C121.514 192.58 121.59 192.615 121.656 192.663C121.723 192.712 121.779 192.773 121.821 192.844C121.864 192.914 121.891 192.993 121.903 193.074C121.914 193.156 121.909 193.239 121.888 193.319C121.867 193.398 121.83 193.473 121.78 193.538C121.73 193.603 121.667 193.658 121.595 193.698C120.955 194.017 120.242 194.157 119.529 194.103C119.365 194.096 119.21 194.025 119.098 193.904C118.987 193.784 118.926 193.625 118.931 193.46C118.934 193.38 118.952 193.3 118.985 193.227C119.018 193.154 119.065 193.088 119.124 193.033C119.183 192.978 119.253 192.935 119.328 192.907C119.404 192.88 119.484 192.867 119.564 192.871C120.042 192.917 120.524 192.838 120.962 192.642V192.642Z" fill="#164579"/>
<path fill-rule="evenodd" clip-rule="evenodd" d="M140.047 197.016C140.047 196.853 140.112 196.696 140.227 196.581C140.343 196.465 140.499 196.4 140.663 196.4C140.826 196.4 140.982 196.465 141.098 196.581C141.213 196.696 141.278 196.853 141.278 197.016C141.271 197.734 140.984 198.419 140.478 198.927C140.478 198.927 140.478 198.927 140.478 198.927C139.966 199.428 139.278 199.708 138.561 199.708C137.845 199.708 137.157 199.428 136.645 198.927V198.927C136.389 198.672 136.185 198.369 136.046 198.035C135.907 197.701 135.836 197.343 135.836 196.981C135.839 196.817 135.905 196.66 136.022 196.545C136.139 196.43 136.296 196.365 136.46 196.365C136.624 196.365 136.78 196.43 136.896 196.546C137.011 196.661 137.076 196.818 137.076 196.981C137.075 197.179 137.113 197.375 137.188 197.558C137.264 197.741 137.375 197.907 137.515 198.046C137.801 198.323 138.182 198.478 138.579 198.478C138.965 198.477 139.336 198.329 139.616 198.064V198.064C139.892 197.785 140.047 197.409 140.047 197.016V197.016Z" fill="#164579"/>
<path fill-rule="evenodd" clip-rule="evenodd" d="M147.555 191.313C147.576 191.109 147.671 190.92 147.823 190.783C147.975 190.646 148.172 190.57 148.377 190.57C148.581 190.57 148.778 190.646 148.93 190.783C149.082 190.92 149.178 191.109 149.199 191.313C149.192 192.133 149.507 192.924 150.078 193.513V193.513C150.366 193.798 150.708 194.023 151.084 194.174C151.46 194.325 151.862 194.399 152.267 194.393C152.673 194.399 153.076 194.324 153.453 194.173C153.83 194.022 154.174 193.797 154.464 193.513V193.513C154.748 193.222 154.972 192.878 155.123 192.501C155.274 192.123 155.349 191.719 155.343 191.313C155.343 191.093 155.431 190.883 155.585 190.727C155.74 190.572 155.951 190.485 156.17 190.485C156.389 190.485 156.599 190.572 156.754 190.727C156.909 190.883 156.996 191.093 156.996 191.313C156.997 191.937 156.875 192.556 156.637 193.133C156.399 193.71 156.049 194.234 155.607 194.675V194.675C155.168 195.118 154.645 195.469 154.07 195.709C153.494 195.948 152.877 196.072 152.253 196.072C151.63 196.072 151.013 195.948 150.437 195.709C149.862 195.469 149.339 195.118 148.9 194.675V194.675C148.024 193.777 147.54 192.568 147.555 191.313V191.313Z" fill="#164579"/>
<path fill-rule="evenodd" clip-rule="evenodd" d="M155.906 192.043C155.832 192.002 155.767 191.945 155.716 191.877C155.665 191.81 155.628 191.732 155.608 191.649C155.588 191.567 155.586 191.481 155.601 191.397C155.616 191.313 155.648 191.234 155.695 191.163C155.737 191.09 155.794 191.026 155.862 190.975C155.93 190.925 156.007 190.888 156.089 190.869C156.172 190.849 156.257 190.846 156.34 190.86C156.424 190.875 156.503 190.906 156.574 190.952C157.008 191.153 157.488 191.232 157.963 191.181C158.127 191.176 158.287 191.236 158.407 191.348C158.527 191.46 158.598 191.615 158.605 191.779C158.607 191.86 158.594 191.941 158.565 192.016C158.536 192.092 158.493 192.161 158.437 192.22C158.382 192.279 158.315 192.326 158.241 192.359C158.168 192.392 158.088 192.411 158.007 192.413C157.286 192.48 156.561 192.352 155.906 192.043V192.043Z" fill="#164579"/>
<path fill-rule="evenodd" clip-rule="evenodd" d="M155.493 193.698C155.421 193.658 155.358 193.603 155.308 193.538C155.257 193.473 155.221 193.398 155.199 193.319C155.178 193.239 155.173 193.156 155.185 193.074C155.197 192.993 155.224 192.914 155.267 192.844C155.309 192.773 155.365 192.712 155.431 192.663C155.498 192.615 155.573 192.58 155.654 192.561C155.734 192.542 155.817 192.54 155.898 192.553C155.979 192.567 156.057 192.597 156.126 192.642C156.561 192.838 157.04 192.917 157.515 192.871C157.596 192.867 157.676 192.879 157.752 192.907C157.828 192.935 157.898 192.977 157.958 193.032C158.017 193.087 158.066 193.153 158.1 193.226C158.134 193.3 158.153 193.379 158.157 193.46C158.161 193.625 158.101 193.784 157.989 193.904C157.877 194.025 157.723 194.096 157.559 194.103C156.846 194.157 156.132 194.017 155.493 193.698Z" fill="#164579"/>
<path fill-rule="evenodd" clip-rule="evenodd" d="M123.872 206.18C124.687 206.178 125.483 205.934 126.16 205.48C126.837 205.025 127.364 204.38 127.675 203.625C127.985 202.871 128.066 202.041 127.906 201.241C127.746 200.44 127.352 199.706 126.775 199.129C126.198 198.553 125.464 198.16 124.664 198.002C123.865 197.843 123.036 197.926 122.283 198.238C121.53 198.551 120.887 199.08 120.434 199.759C119.982 200.438 119.74 201.235 119.74 202.051C119.742 203.147 120.179 204.197 120.953 204.971C121.728 205.745 122.778 206.18 123.872 206.18Z" fill="#ECA991"/>
<path fill-rule="evenodd" clip-rule="evenodd" d="M153.216 206.18C154.032 206.18 154.829 205.938 155.507 205.484C156.185 205.03 156.713 204.386 157.025 203.631C157.337 202.877 157.419 202.047 157.26 201.246C157.101 200.445 156.708 199.71 156.131 199.132C155.555 198.555 154.82 198.162 154.02 198.002C153.221 197.843 152.392 197.925 151.638 198.237C150.885 198.55 150.241 199.079 149.788 199.758C149.335 200.437 149.093 201.235 149.093 202.051C149.095 203.146 149.531 204.194 150.303 204.968C151.076 205.742 152.123 206.177 153.216 206.18V206.18Z" fill="#ECA991"/>
<path fill-rule="evenodd" clip-rule="evenodd" d="M82.1235 267.638L94.1407 260.666L119.098 277.215L117.701 280.736C100.778 294.344 81.5785 311.465 57.8429 329.826C36.5863 346.287 18.055 315.364 21.2461 300.779C21.2461 300.779 22.1252 288.658 24.8592 269.363H62.7394L62.9504 277.787C62.9504 277.787 81.1829 268.192 82.1235 267.638Z" fill="#F2BA95"/>
<path fill-rule="evenodd" clip-rule="evenodd" d="M61.0515 201.47C61.5175 221.197 62.4054 256.371 62.8097 271.009H62.7394C55.9792 270.34 35.3731 269.134 22.09 272.039C26.2569 242.322 33.8875 204.446 37.7555 185.776C41.6235 167.106 54.1858 160.487 54.1858 160.487C54.1858 160.487 60.4801 176.102 61.0515 201.47Z" fill="#138175"/>
<path fill-rule="evenodd" clip-rule="evenodd" d="M62.4493 258.122L62.7746 271.035H62.7043C55.944 270.366 35.338 269.161 22.0548 272.065C22.7142 267.356 23.4614 262.453 24.2614 257.445C36.9839 256.475 49.7692 256.702 62.4493 258.122V258.122Z" fill="white"/>
<path fill-rule="evenodd" clip-rule="evenodd" d="M90.2727 262.911L94.1408 260.657L95.3012 261.432L119.098 277.215L117.701 280.744L107.081 289.45L90.2727 262.911Z" fill="#EE8B83"/>
<path fill-rule="evenodd" clip-rule="evenodd" d="M138.561 268.615C138.561 262.647 137.682 252.19 149.348 251.309C153.902 240.685 164.565 236.794 180.363 241.266C188.195 243.493 193.03 242.322 196.063 244.444C199.096 246.565 198.024 255.763 183.518 251.82L173.848 251.494L163.071 265.974L138.561 268.615Z" fill="#F2BA95"/>
<path fill-rule="evenodd" clip-rule="evenodd" d="M183.554 251.82L173.884 251.494L172.073 253.941L168.363 252.33C168.363 252.33 171.299 243.748 171.932 243.185C172.565 242.621 172.952 243.185 172.952 243.185C173.84 245.408 175.28 247.367 177.135 248.878C178.99 250.389 181.199 251.402 183.554 251.82V251.82Z" fill="#EE8B83"/>
<path fill-rule="evenodd" clip-rule="evenodd" d="M138.561 275.023V267.259C138.561 265.015 140.522 261.432 144.539 263.413C143.748 259.804 146.166 256.802 149.462 258.272C149.005 254.751 151.528 252.753 154.684 254.1C156.099 248.299 162.754 249.698 166.833 251.459H173.804L183.475 251.785C183.624 252.392 183.782 252.982 183.923 253.545C184.978 257.559 185.031 263.791 177.725 265.525C177.472 265.641 177.255 265.825 177.1 266.056C176.945 266.288 176.857 266.558 176.846 266.837C176.213 273.051 174.613 277.259 167.95 277.03C167.95 277.03 164.82 276.951 163.625 277.725C162.429 278.5 161.559 280.832 160.064 281.845C158.57 282.857 156.548 283.403 153.278 281.149C152.477 280.617 151.604 280.205 150.684 279.926C149.937 279.864 146.113 280.348 144.249 280.137C142.386 279.926 138.561 278.658 138.561 275.023Z" fill="#F2BA95"/>
<path fill-rule="evenodd" clip-rule="evenodd" d="M180.283 264.645C179.483 265.037 178.639 265.333 177.769 265.525C177.516 265.641 177.299 265.825 177.144 266.056C176.989 266.288 176.901 266.558 176.89 266.837C176.793 267.779 176.679 268.668 176.521 269.477L173.339 264.698C173.339 264.698 173.145 264.319 173.339 264.134C173.935 263.949 174.57 263.931 175.176 264.082C175.659 264.143 178.094 264.381 180.292 264.601L180.283 264.645ZM167.818 277.047C167.185 277.047 164.679 277.047 163.633 277.743C162.754 278.324 162.033 279.75 161.119 280.868C161.535 280.192 161.689 279.387 161.55 278.605C161.365 277.1 161.075 275.032 161.075 275.032C161.075 275.032 161.022 274.688 161.286 274.644C161.55 274.6 167.818 277.047 167.818 277.047V277.047ZM153.286 281.167C152.486 280.634 151.613 280.222 150.693 279.943C150.359 279.943 149.436 279.996 148.337 280.075C148.337 280.075 150.095 279.767 150.306 278.315C150.306 278.315 150.306 278.095 150.491 278.174C150.675 278.253 153.286 281.176 153.286 281.176V281.167Z" fill="#EE8B83"/>
<path fill-rule="evenodd" clip-rule="evenodd" d="M140.364 266.749C139.766 267.673 139.968 270.314 139.994 270.71C140.021 271.106 140.452 271.467 141.181 271.59C142.566 271.691 143.95 271.385 145.163 270.71C145.311 270.586 145.418 270.421 145.47 270.236C145.522 270.05 145.516 269.853 145.454 269.671C145.251 268.993 144.46 266.696 144.258 266.273C143.599 264.856 141.032 265.71 140.364 266.749Z" fill="white"/>
<path fill-rule="evenodd" clip-rule="evenodd" d="M145.524 262.224C145.199 263.36 146.227 266.027 146.403 266.423C146.579 266.819 147.115 267.057 147.889 266.916C148.662 266.775 150.913 265.921 151.73 264.795C151.847 264.623 151.91 264.421 151.91 264.214C151.91 264.006 151.847 263.804 151.73 263.633C151.308 262.99 149.779 260.878 149.445 260.508C148.267 259.267 145.884 260.948 145.524 262.224Z" fill="white"/>
<path fill-rule="evenodd" clip-rule="evenodd" d="M150.904 258.783C151.018 260.006 153.014 262.207 153.313 262.541C153.612 262.876 154.236 262.884 154.939 262.462C155.642 262.039 157.497 260.349 157.866 258.941C157.911 258.731 157.89 258.512 157.807 258.314C157.723 258.115 157.582 257.947 157.401 257.832C156.759 257.365 154.473 255.887 154.016 255.649C152.46 254.883 150.781 257.418 150.904 258.783Z" fill="white"/>
<path fill-rule="evenodd" clip-rule="evenodd" d="M154.341 254.1C154.341 254.009 154.377 253.921 154.442 253.857C154.506 253.793 154.593 253.756 154.684 253.756C154.729 253.756 154.773 253.765 154.814 253.783C154.855 253.8 154.892 253.825 154.924 253.857C154.955 253.889 154.979 253.927 154.995 253.969C155.012 254.011 155.019 254.055 155.018 254.1C155.042 254.427 155.156 254.742 155.349 255.008C155.541 255.274 155.804 255.481 156.108 255.605C156.689 255.895 158.271 256.6 159.924 257.304C161.796 258.114 163.748 258.923 164.407 259.179C164.908 259.364 165.567 259.654 166.262 259.953C167.193 260.403 168.157 260.783 169.145 261.089C170.077 261.274 175.484 262.638 175.492 262.647C175.535 262.657 175.575 262.676 175.611 262.702C175.647 262.728 175.677 262.76 175.699 262.798C175.722 262.836 175.738 262.877 175.744 262.921C175.751 262.964 175.749 263.009 175.739 263.052C175.728 263.095 175.709 263.137 175.683 263.173C175.656 263.209 175.623 263.24 175.584 263.263C175.546 263.286 175.503 263.301 175.458 263.307C175.414 263.313 175.369 263.31 175.325 263.298C175.325 263.298 169.945 261.934 169.013 261.749C167.97 261.427 166.953 261.024 165.972 260.543C165.286 260.235 164.627 259.953 164.152 259.777C163.449 259.513 161.515 258.695 159.625 257.894C157.99 257.181 156.398 256.485 155.783 256.177C155.37 255.991 155.015 255.697 154.757 255.324C154.498 254.952 154.345 254.517 154.315 254.065L154.341 254.1ZM149.023 251.221C149.049 251.137 149.107 251.066 149.183 251.022C149.26 250.978 149.35 250.964 149.436 250.984C149.479 250.995 149.519 251.015 149.554 251.042C149.59 251.068 149.619 251.102 149.641 251.141C149.663 251.179 149.678 251.222 149.683 251.266C149.689 251.31 149.685 251.355 149.673 251.397L148.39 255.957C148.378 256 148.358 256.04 148.331 256.075C148.304 256.11 148.271 256.139 148.232 256.162C148.194 256.184 148.152 256.198 148.108 256.204C148.064 256.209 148.019 256.206 147.977 256.195C147.934 256.183 147.894 256.163 147.859 256.136C147.824 256.109 147.794 256.075 147.772 256.037C147.75 255.999 147.736 255.956 147.73 255.912C147.725 255.868 147.728 255.824 147.739 255.781L148.988 251.221H149.023ZM166.605 251.741C166.572 251.709 166.546 251.672 166.528 251.63C166.51 251.589 166.501 251.544 166.501 251.499C166.501 251.453 166.51 251.409 166.528 251.367C166.546 251.325 166.572 251.288 166.605 251.257C166.636 251.225 166.673 251.2 166.713 251.183C166.754 251.166 166.798 251.157 166.842 251.157C166.886 251.157 166.93 251.166 166.971 251.183C167.011 251.2 167.048 251.225 167.079 251.257C167.409 251.679 167.613 252.185 167.668 252.718C167.678 252.806 167.651 252.895 167.595 252.965C167.539 253.034 167.458 253.078 167.37 253.087C167.281 253.097 167.192 253.071 167.123 253.014C167.054 252.958 167.01 252.877 167 252.788C166.969 252.409 166.832 252.046 166.605 251.741V251.741ZM144.214 263.474C144.198 263.387 144.217 263.297 144.266 263.223C144.315 263.149 144.391 263.097 144.478 263.078C144.521 263.069 144.566 263.069 144.609 263.077C144.653 263.086 144.694 263.103 144.731 263.127C144.768 263.152 144.799 263.184 144.824 263.22C144.848 263.257 144.865 263.299 144.873 263.342C145.031 264.153 145.243 264.953 145.506 265.736C145.928 266.942 150.403 277.4 150.421 277.435C150.453 277.517 150.453 277.608 150.421 277.69C150.388 277.772 150.325 277.838 150.245 277.875C150.162 277.908 150.069 277.908 149.986 277.876C149.902 277.843 149.835 277.78 149.796 277.699C149.796 277.699 145.313 267.206 144.873 265.956C144.597 265.145 144.377 264.316 144.214 263.474V263.474ZM149.146 258.351C149.341 259.018 149.637 259.65 150.025 260.226V260.226C150.421 260.798 152.214 263.087 153.717 265.015C154.596 266.168 155.414 267.18 155.757 267.655C156.636 268.773 162.113 274.31 162.13 274.328C162.193 274.391 162.278 274.426 162.367 274.426C162.456 274.426 162.542 274.391 162.605 274.328C162.668 274.264 162.703 274.179 162.703 274.09C162.703 274.001 162.668 273.915 162.605 273.852C162.605 273.852 157.11 268.324 156.293 267.25C156.02 266.881 155.185 265.816 154.245 264.61C152.741 262.691 150.957 260.402 150.579 259.856C150.235 259.348 149.971 258.79 149.796 258.202C149.775 258.115 149.721 258.041 149.645 257.995C149.569 257.948 149.478 257.934 149.392 257.955C149.306 257.976 149.231 258.031 149.185 258.107C149.139 258.183 149.125 258.274 149.146 258.36V258.351Z" fill="#EE8B83"/>
<path fill-rule="evenodd" clip-rule="evenodd" d="M155.607 254.425C155.999 253.778 156.567 253.256 157.244 252.92C157.921 252.583 158.679 252.446 159.431 252.524C161.383 252.788 162.948 253.343 163.15 254.012C163.352 254.681 161.647 257.436 161.392 257.726C161.177 257.895 160.925 258.008 160.657 258.057C160.389 258.106 160.113 258.09 159.853 258.008C159.343 257.832 156.258 256.459 155.862 256.177C155.612 255.967 155.448 255.673 155.401 255.35C155.354 255.027 155.427 254.698 155.607 254.425V254.425Z" fill="white"/>
<path fill-rule="evenodd" clip-rule="evenodd" d="M138.896 267.259C138.897 267.304 138.889 267.348 138.873 267.39C138.856 267.432 138.832 267.469 138.801 267.501C138.77 267.533 138.733 267.559 138.691 267.576C138.65 267.594 138.606 267.602 138.562 267.602C138.471 267.602 138.383 267.566 138.319 267.502C138.255 267.438 138.219 267.35 138.219 267.259C138.234 266.439 138.432 265.633 138.799 264.9C139.111 264.243 139.572 263.668 140.144 263.219V263.219C140.772 262.755 141.534 262.508 142.315 262.515C142.918 262.522 143.514 262.642 144.073 262.867C143.935 261.843 144.072 260.801 144.469 259.848V259.848C144.707 259.312 145.054 258.832 145.489 258.439C145.925 258.06 146.447 257.794 147.01 257.665C147.686 257.527 148.387 257.573 149.04 257.797C148.998 257.034 149.121 256.271 149.401 255.561C149.643 254.984 150.027 254.478 150.517 254.091C151.012 253.716 151.598 253.479 152.214 253.404C152.961 253.322 153.716 253.416 154.42 253.677C154.5 253.413 154.596 253.158 154.693 252.911C155.016 252.13 155.527 251.441 156.18 250.905C156.834 250.369 157.609 250.003 158.438 249.839C160.133 249.53 161.877 249.611 163.537 250.077C164.673 250.359 165.784 250.733 166.86 251.195H173.637C173.718 251.208 173.791 251.249 173.844 251.311C173.897 251.373 173.926 251.452 173.926 251.534C173.926 251.615 173.897 251.694 173.844 251.756C173.791 251.818 173.718 251.86 173.637 251.873H166.851C166.807 251.881 166.763 251.881 166.719 251.873C165.656 251.409 164.556 251.035 163.431 250.755C161.872 250.319 160.234 250.24 158.64 250.526C157.916 250.667 157.238 250.987 156.667 251.455C156.096 251.924 155.65 252.527 155.37 253.211C155.229 253.538 155.118 253.876 155.036 254.223V254.293C154.999 254.374 154.933 254.437 154.851 254.47C154.769 254.502 154.678 254.502 154.596 254.469C153.904 254.149 153.139 254.021 152.381 254.1C151.883 254.16 151.41 254.351 151.01 254.654C150.618 254.97 150.315 255.383 150.13 255.851C149.828 256.623 149.737 257.462 149.867 258.281C149.885 258.341 149.885 258.405 149.867 258.466C149.83 258.548 149.763 258.613 149.679 258.646C149.595 258.679 149.501 258.677 149.418 258.642C148.756 258.319 148.007 258.217 147.282 258.351C146.831 258.453 146.414 258.668 146.069 258.976C145.695 259.298 145.395 259.698 145.19 260.147C144.772 261.171 144.686 262.301 144.944 263.377V263.377C144.97 263.451 144.97 263.532 144.944 263.606C144.902 263.684 144.833 263.743 144.749 263.771C144.666 263.799 144.575 263.793 144.495 263.756C143.863 263.419 143.163 263.232 142.447 263.21C141.814 263.208 141.196 263.411 140.689 263.791V263.791C140.199 264.173 139.804 264.664 139.537 265.226C139.175 265.847 138.956 266.542 138.896 267.259Z" fill="#EE8B83"/>
<path fill-rule="evenodd" clip-rule="evenodd" d="M138.526 268.615C138.526 262.647 139.405 252.19 127.74 251.309C123.186 240.685 112.523 236.794 96.7253 241.266C88.8838 243.493 84.0575 242.322 81.0247 244.444C77.9918 246.565 79.0643 255.763 93.5694 251.82L103.283 251.494L114.008 265.974L138.526 268.615Z" fill="#F2BA95"/>
<path fill-rule="evenodd" clip-rule="evenodd" d="M93.5694 251.82L103.283 251.494L105.094 253.941L108.795 252.33C108.795 252.33 105.868 243.748 105.235 243.185C104.602 242.621 104.215 243.185 104.215 243.185C103.323 245.413 101.877 247.377 100.013 248.888C98.15 250.399 95.9318 251.409 93.5694 251.82V251.82Z" fill="#EE8B83"/>
<path fill-rule="evenodd" clip-rule="evenodd" d="M138.526 275.023V267.259C138.526 265.015 136.566 261.432 132.549 263.413C133.34 259.804 130.922 256.802 127.626 258.272C128.083 254.751 125.56 252.753 122.404 254.1C120.988 248.299 114.334 249.698 110.255 251.459H103.283L93.5694 251.785L93.121 253.545C92.0661 257.559 92.0134 263.791 99.3187 265.525C99.571 265.642 99.7863 265.827 99.9413 266.058C100.096 266.289 100.185 266.558 100.198 266.837C100.831 273.051 102.431 277.259 109.094 277.03C109.094 277.03 112.215 276.951 113.419 277.725C114.624 278.5 115.476 280.832 116.98 281.845C118.483 282.857 120.496 283.403 123.766 281.149C124.582 280.606 125.474 280.188 126.412 279.908C127.16 279.847 130.975 280.331 132.847 280.119C134.72 279.908 138.526 278.658 138.526 275.023Z" fill="#F2BA95"/>
<path fill-rule="evenodd" clip-rule="evenodd" d="M96.8044 264.645C97.6046 265.037 98.4486 265.333 99.3186 265.525C99.5709 265.642 99.7863 265.827 99.9413 266.058C100.096 266.289 100.185 266.559 100.198 266.837C100.294 267.779 100.409 268.668 100.558 269.477L103.749 264.698C103.749 264.698 103.943 264.319 103.749 264.134C103.156 263.949 102.524 263.931 101.921 264.082C101.437 264.143 99.0022 264.381 96.8044 264.601V264.645ZM109.27 277.047C109.903 277.047 112.408 277.047 113.454 277.743C114.334 278.324 115.054 279.75 115.969 280.868C115.552 280.192 115.399 279.387 115.538 278.605C115.714 277.1 116.013 275.032 116.013 275.032C116.013 275.032 116.065 274.688 115.802 274.644C115.538 274.6 109.27 277.047 109.27 277.047V277.047ZM123.775 281.167C124.587 280.618 125.476 280.194 126.412 279.908C126.738 279.908 127.669 279.961 128.768 280.04C128.768 280.04 127.01 279.732 126.799 278.28C126.799 278.28 126.799 278.06 126.615 278.139C126.43 278.218 123.819 281.141 123.819 281.141L123.775 281.167Z" fill="#EE8B83"/>
<path fill-rule="evenodd" clip-rule="evenodd" d="M136.724 266.749C137.313 267.673 137.12 270.314 137.093 270.71C137.067 271.106 136.636 271.467 135.907 271.59C134.522 271.692 133.138 271.386 131.924 270.71C131.777 270.586 131.67 270.421 131.618 270.236C131.566 270.05 131.572 269.853 131.634 269.671C131.836 268.993 132.628 266.696 132.821 266.273C133.489 264.856 136.082 265.71 136.724 266.749Z" fill="white"/>
<path fill-rule="evenodd" clip-rule="evenodd" d="M131.564 262.224C131.889 263.36 130.861 266.027 130.685 266.423C130.509 266.819 129.973 267.057 129.199 266.916C128.426 266.775 126.175 265.921 125.357 264.795C125.241 264.623 125.178 264.421 125.178 264.214C125.178 264.006 125.241 263.804 125.357 263.633C125.779 262.99 127.309 260.878 127.643 260.508C128.821 259.267 131.203 260.948 131.564 262.224Z" fill="white"/>
<path fill-rule="evenodd" clip-rule="evenodd" d="M126.184 258.783C126.07 260.006 124.074 262.207 123.775 262.541C123.476 262.876 122.852 262.884 122.149 262.462C121.445 262.039 119.591 260.349 119.221 258.941C119.177 258.731 119.198 258.512 119.281 258.314C119.364 258.115 119.506 257.947 119.687 257.832C120.329 257.365 122.606 255.887 123.072 255.649C124.654 254.883 126.307 257.418 126.184 258.783Z" fill="white"/>
<path fill-rule="evenodd" clip-rule="evenodd" d="M122.07 254.1C122.07 254.011 122.105 253.926 122.167 253.863C122.23 253.8 122.315 253.765 122.404 253.765C122.492 253.765 122.577 253.8 122.64 253.863C122.703 253.926 122.738 254.011 122.738 254.1C122.71 254.552 122.559 254.987 122.302 255.36C122.045 255.732 121.691 256.027 121.278 256.212C120.663 256.52 119.072 257.216 117.428 257.929C115.564 258.73 113.604 259.548 112.909 259.812C112.435 259.988 111.775 260.27 111.09 260.578C110.116 261.046 109.108 261.437 108.074 261.749C107.134 261.934 101.771 263.289 101.763 263.298C101.719 263.31 101.674 263.313 101.629 263.307C101.585 263.301 101.542 263.286 101.504 263.263C101.465 263.24 101.432 263.209 101.405 263.173C101.379 263.137 101.36 263.095 101.349 263.052C101.328 262.967 101.341 262.876 101.385 262.801C101.43 262.725 101.502 262.67 101.587 262.647C101.587 262.647 107.011 261.274 107.943 261.089C108.93 260.782 109.894 260.402 110.826 259.953C111.52 259.654 112.18 259.364 112.672 259.179C113.34 258.923 115.309 258.114 117.164 257.304C118.817 256.6 120.399 255.895 120.98 255.605C121.283 255.481 121.547 255.274 121.739 255.008C121.932 254.742 122.046 254.427 122.07 254.1V254.1ZM127.415 251.397C127.39 251.312 127.4 251.221 127.443 251.143C127.486 251.066 127.558 251.008 127.643 250.984C127.729 250.962 127.821 250.975 127.898 251.019C127.975 251.063 128.032 251.136 128.056 251.221L129.313 255.781C129.337 255.867 129.325 255.959 129.28 256.037C129.236 256.115 129.162 256.171 129.076 256.195C128.99 256.218 128.898 256.206 128.82 256.162C128.743 256.117 128.686 256.043 128.663 255.957L127.415 251.397V251.397ZM110.017 251.257C110.048 251.225 110.085 251.2 110.126 251.183C110.167 251.166 110.21 251.157 110.255 251.157C110.299 251.157 110.342 251.166 110.383 251.183C110.424 251.2 110.461 251.225 110.492 251.257C110.556 251.321 110.592 251.408 110.592 251.499C110.592 251.589 110.556 251.676 110.492 251.741C110.265 252.046 110.128 252.409 110.096 252.788C110.087 252.877 110.043 252.958 109.974 253.014C109.904 253.07 109.816 253.097 109.727 253.087C109.639 253.078 109.557 253.034 109.501 252.965C109.445 252.895 109.419 252.806 109.428 252.718C109.484 252.185 109.688 251.679 110.017 251.257V251.257ZM132.214 263.342C132.233 263.254 132.287 263.176 132.362 263.127C132.438 263.077 132.53 263.06 132.619 263.078C132.705 263.097 132.781 263.149 132.83 263.223C132.88 263.297 132.898 263.387 132.883 263.474C132.72 264.316 132.499 265.145 132.223 265.956C131.784 267.206 127.309 277.664 127.291 277.699C127.257 277.781 127.191 277.845 127.108 277.878C127.026 277.911 126.934 277.91 126.852 277.875C126.77 277.84 126.706 277.774 126.673 277.691C126.64 277.609 126.641 277.516 126.676 277.435C126.676 277.435 131.168 266.942 131.581 265.736C131.85 264.955 132.061 264.155 132.214 263.342V263.342ZM127.291 258.193C127.117 258.781 126.853 259.339 126.509 259.848V259.848C126.131 260.393 124.338 262.682 122.843 264.601C121.903 265.798 121.085 266.863 120.786 267.242C119.977 268.315 114.492 273.826 114.483 273.843C114.42 273.906 114.385 273.992 114.385 274.081C114.385 274.17 114.42 274.256 114.483 274.319C114.546 274.382 114.631 274.417 114.72 274.417C114.809 274.417 114.895 274.382 114.958 274.319C114.958 274.319 120.487 268.764 121.331 267.647C121.674 267.189 122.465 266.177 123.371 265.006C124.874 263.078 126.667 260.789 127.063 260.217C127.451 259.641 127.747 259.009 127.942 258.342C127.963 258.256 127.949 258.165 127.903 258.089C127.857 258.013 127.782 257.959 127.696 257.938C127.61 257.917 127.519 257.931 127.443 257.977C127.367 258.023 127.312 258.098 127.291 258.184V258.193Z" fill="#EE8B83"/>
<path fill-rule="evenodd" clip-rule="evenodd" d="M121.472 254.425C121.083 253.778 120.517 253.255 119.841 252.918C119.165 252.581 118.407 252.444 117.657 252.524C115.705 252.788 114.14 253.343 113.938 254.012C113.736 254.681 115.441 257.436 115.696 257.726C115.911 257.895 116.163 258.008 116.431 258.057C116.699 258.106 116.975 258.09 117.235 258.008C117.736 257.832 120.83 256.459 121.226 256.177C121.478 255.969 121.643 255.673 121.688 255.349C121.734 255.025 121.657 254.695 121.472 254.425V254.425Z" fill="white"/>
<path fill-rule="evenodd" clip-rule="evenodd" d="M138.869 267.259C138.869 267.35 138.833 267.438 138.769 267.502C138.704 267.566 138.617 267.603 138.526 267.603C138.482 267.603 138.438 267.594 138.396 267.576C138.355 267.559 138.318 267.533 138.287 267.501C138.256 267.469 138.231 267.432 138.215 267.39C138.199 267.348 138.191 267.304 138.192 267.259C138.18 266.543 138.006 265.839 137.682 265.2C137.419 264.638 137.027 264.147 136.54 263.765V263.765C136.032 263.385 135.415 263.181 134.781 263.184C134.066 263.206 133.365 263.393 132.733 263.73C132.653 263.767 132.562 263.772 132.479 263.744C132.396 263.717 132.326 263.658 132.285 263.58C132.259 263.506 132.259 263.425 132.285 263.351V263.351C132.54 262.274 132.451 261.144 132.03 260.121V260.121C131.825 259.671 131.525 259.272 131.151 258.95C130.804 258.64 130.383 258.424 129.929 258.325C129.207 258.191 128.461 258.293 127.801 258.615C127.719 258.651 127.625 258.652 127.541 258.619C127.457 258.586 127.39 258.522 127.353 258.439C127.335 258.379 127.335 258.315 127.353 258.254C127.483 257.436 127.392 256.597 127.089 255.825C126.905 255.357 126.602 254.944 126.21 254.628C125.81 254.325 125.337 254.134 124.839 254.073C124.081 253.995 123.315 254.122 122.623 254.443C122.583 254.46 122.54 254.47 122.496 254.47C122.452 254.471 122.408 254.463 122.367 254.446C122.326 254.43 122.289 254.406 122.258 254.375C122.226 254.344 122.201 254.307 122.184 254.267V254.197C122.102 253.85 121.99 253.511 121.85 253.184V253.184C121.569 252.5 121.122 251.896 120.549 251.427C119.977 250.958 119.297 250.64 118.571 250.5C116.977 250.214 115.339 250.292 113.78 250.728C112.658 251.01 111.561 251.384 110.501 251.846C110.457 251.855 110.412 251.855 110.369 251.846H103.529C103.449 251.833 103.376 251.792 103.323 251.73C103.27 251.668 103.241 251.589 103.241 251.507C103.241 251.426 103.27 251.347 103.323 251.285C103.376 251.223 103.449 251.182 103.529 251.169H110.299C111.375 250.708 112.486 250.334 113.622 250.051C115.281 249.585 117.025 249.504 118.72 249.813C119.55 249.974 120.326 250.339 120.98 250.876C121.634 251.412 122.144 252.102 122.465 252.885V252.885C122.573 253.135 122.667 253.39 122.747 253.651C123.451 253.389 124.206 253.296 124.953 253.378C125.566 253.454 126.148 253.691 126.641 254.065C127.137 254.446 127.522 254.954 127.757 255.534C128.046 256.243 128.172 257.007 128.127 257.77C128.78 257.546 129.481 257.5 130.157 257.638C130.72 257.768 131.242 258.034 131.678 258.413C132.113 258.804 132.458 259.284 132.689 259.821C133.093 260.773 133.233 261.816 133.094 262.84C133.653 262.615 134.249 262.495 134.852 262.488C135.632 262.483 136.394 262.73 137.023 263.193V263.193C137.6 263.639 138.064 264.215 138.377 264.874C138.717 265.622 138.885 266.437 138.869 267.259V267.259Z" fill="#EE8B83"/>
<path fill-rule="evenodd" clip-rule="evenodd" d="M214.665 271.009C214.665 273.218 214.595 274.979 214.577 276.176C221.469 275.938 238.664 276.229 254.092 283.596C253.662 280.075 253.152 276.026 252.545 271.581C239.491 269.345 221.267 270.375 214.665 271.009Z" fill="#EE8B83"/>
<path fill-rule="evenodd" clip-rule="evenodd" d="M62.4142 271.009C55.8209 270.375 37.5973 269.337 24.5427 271.581C24.3669 272.866 24.1998 274.116 24.0328 275.322C32.8238 274.856 50.7486 274.609 60.8845 279.468L62.9768 278.333C70.9678 273.975 78.8972 269.592 86.4926 265.129L82.1411 267.655C81.2004 268.21 62.968 277.769 62.968 277.769L62.7922 271.071H62.7218L62.4142 271.009Z" fill="#EE8B83"/>
<path fill-rule="evenodd" clip-rule="evenodd" d="M190.147 265.824C189.96 265.705 189.825 265.518 189.769 265.302C189.714 265.087 189.742 264.858 189.848 264.663C189.969 264.476 190.156 264.343 190.371 264.289C190.586 264.235 190.814 264.265 191.008 264.372C200.125 269.759 209.672 274.935 219.227 280.155L236.22 284.107C236.386 284.2 236.517 284.344 236.594 284.518C236.67 284.692 236.689 284.886 236.646 285.072C236.604 285.257 236.503 285.423 236.358 285.546C236.213 285.669 236.032 285.742 235.842 285.753L224.774 283.174C230.708 286.413 236.59 289.652 242.268 292.918C242.455 293.036 242.59 293.221 242.647 293.434C242.704 293.648 242.679 293.875 242.576 294.071C242.458 294.258 242.274 294.393 242.06 294.45C241.847 294.508 241.62 294.482 241.425 294.379C233.882 290.048 226.225 285.885 218.568 281.721L218.471 281.669L218.401 281.625C208.819 276.387 199.228 271.185 190.147 265.824Z" fill="#EE8B83"/>
<path fill-rule="evenodd" clip-rule="evenodd" d="M57.9483 280.137C58.1656 280.096 58.3902 280.139 58.5776 280.256C58.7649 280.374 58.9012 280.557 58.9593 280.771C59.0002 280.988 58.9578 281.213 58.8405 281.401C58.7232 281.589 58.5396 281.725 58.3264 281.783L41.2279 285.762C41.1088 285.829 40.9757 285.867 40.8393 285.874C40.7028 285.88 40.5667 285.855 40.4417 285.799C40.3167 285.744 40.2064 285.66 40.1194 285.555C40.0324 285.449 39.9712 285.325 39.9405 285.192C39.9099 285.058 39.9108 284.92 39.943 284.787C39.9752 284.654 40.038 284.53 40.1262 284.426C40.2145 284.321 40.3259 284.239 40.4515 284.185C40.5771 284.131 40.7135 284.108 40.8499 284.116L57.9483 280.137Z" fill="#EE8B83"/>
<path fill-rule="evenodd" clip-rule="evenodd" d="M105.042 144C104.8 143.781 104.652 143.478 104.628 143.152C104.604 142.827 104.706 142.505 104.913 142.253C105.121 142.002 105.417 141.839 105.74 141.801C106.064 141.762 106.39 141.85 106.65 142.046C106.747 142.125 137.946 168.682 170.438 142.046C170.699 141.846 171.027 141.756 171.353 141.795C171.68 141.834 171.978 141.998 172.186 142.252C172.393 142.507 172.494 142.833 172.466 143.161C172.439 143.488 172.285 143.792 172.038 144.009C137.92 171.983 105.138 144.079 105.042 144.009V144ZM175.862 306.025C176.08 305.783 176.383 305.634 176.708 305.611C177.033 305.587 177.355 305.689 177.606 305.897C177.857 306.104 178.019 306.401 178.058 306.725C178.096 307.048 178.009 307.375 177.813 307.636C177.734 307.732 152.627 338.972 71.8293 349.007C71.6647 349.028 71.4976 349.016 71.3376 348.972C71.1776 348.928 71.0279 348.852 70.8971 348.75C70.7664 348.648 70.6571 348.52 70.5757 348.376C70.4943 348.231 70.4423 348.071 70.4227 347.906C70.4018 347.741 70.4136 347.573 70.4576 347.413C70.5015 347.252 70.5766 347.101 70.6787 346.97C70.7807 346.838 70.9077 346.728 71.0524 346.645C71.197 346.563 71.3565 346.51 71.5216 346.489C151.308 336.595 175.791 306.122 175.862 305.998V306.025ZM58.8538 375.563C58.5524 375.457 58.3026 375.239 58.1546 374.955C58.0065 374.672 57.9713 374.342 58.0559 374.033C58.1405 373.725 58.3387 373.459 58.6107 373.291C58.8826 373.122 59.2082 373.063 59.5219 373.125C59.7241 373.187 129.507 393.23 217.891 373.125C218.058 373.073 218.234 373.055 218.408 373.074C218.583 373.093 218.751 373.148 218.903 373.236C219.054 373.323 219.186 373.441 219.29 373.583C219.394 373.724 219.468 373.885 219.506 374.056C219.544 374.227 219.547 374.404 219.514 374.577C219.48 374.749 219.411 374.912 219.312 375.056C219.212 375.2 219.083 375.322 218.934 375.414C218.785 375.506 218.618 375.566 218.445 375.59C129.428 395.835 59.056 375.634 58.8538 375.59V375.563ZM215.808 277.989C215.781 278.306 215.637 278.601 215.403 278.817C215.17 279.032 214.864 279.151 214.546 279.151C214.229 279.151 213.923 279.032 213.689 278.817C213.456 278.601 213.311 278.306 213.285 277.989C213.285 277.84 214.164 226.795 214.779 201.479C215.377 175.873 221.742 160.108 221.759 160.108C221.895 159.813 222.139 159.581 222.441 159.46C222.742 159.34 223.079 159.34 223.38 159.461C223.682 159.582 223.925 159.815 224.06 160.11C224.196 160.406 224.212 160.743 224.106 161.05C224.106 161.094 217.891 176.419 217.293 201.541C216.696 226.962 215.808 277.884 215.808 278.033V277.989ZM63.8031 277.989C63.7767 278.306 63.6323 278.601 63.3987 278.817C63.165 279.032 62.8591 279.151 62.5416 279.151C62.2241 279.151 61.9182 279.032 61.6846 278.817C61.4509 278.601 61.3066 278.306 61.2801 277.989C61.2801 277.84 60.401 226.936 59.7857 201.497C59.1967 176.366 52.999 161.006 52.9815 161.006C52.8758 160.699 52.8923 160.362 53.0274 160.066C53.1626 159.771 53.4061 159.538 53.7076 159.417C54.0091 159.296 54.3455 159.296 54.6473 159.416C54.949 159.537 55.1929 159.769 55.3287 160.064C55.3287 160.117 61.7109 175.847 62.3087 201.435C62.9065 226.76 63.8031 277.804 63.8031 277.954V277.989Z" fill="#2B5250"/>
<path fill-rule="evenodd" clip-rule="evenodd" d="M91.776 261.062C91.9613 260.953 92.1802 260.915 92.3914 260.957C91.9974 259.888 91.7864 258.76 91.7672 257.621C91.7484 256.177 91.9289 254.737 92.3034 253.343C92.4009 253.178 92.5493 253.05 92.7262 252.977C92.9031 252.905 93.0987 252.892 93.2836 252.94C93.4684 252.989 93.6324 253.097 93.7506 253.247C93.8687 253.398 93.9348 253.583 93.9386 253.774C93.5973 255.015 93.4345 256.298 93.4551 257.585C93.4656 258.647 93.6805 259.696 94.088 260.675C94.5153 261.678 95.2009 262.55 96.0748 263.201C97.1022 263.943 98.2729 264.462 99.512 264.724C99.7253 264.782 99.9089 264.919 100.026 265.106C100.143 265.294 100.186 265.519 100.145 265.736C100.118 265.847 100.071 265.952 100.004 266.045C100.051 266.035 100.099 266.035 100.145 266.045C100.357 266.042 100.563 266.117 100.724 266.254C100.886 266.392 100.992 266.583 101.024 266.793C101.323 269.768 101.85 272.25 103.055 273.896C104.259 275.542 106.044 276.334 109.059 276.229C109.059 276.229 112.452 276.15 113.868 277.065C114.612 277.635 115.237 278.347 115.705 279.16C116.17 279.934 116.765 280.622 117.463 281.193C117.583 281.34 117.653 281.521 117.662 281.71C117.672 281.9 117.619 282.087 117.514 282.244C117.408 282.401 117.254 282.52 117.076 282.583C116.897 282.646 116.703 282.649 116.523 282.593C115.647 281.907 114.906 281.065 114.334 280.111C113.983 279.494 113.528 278.943 112.989 278.482C111.995 277.84 109.147 277.919 109.138 277.919C105.49 278.042 103.204 276.915 101.719 274.891C100.233 272.866 99.7054 270.208 99.3714 266.969C99.3522 266.76 99.4083 266.55 99.5296 266.379C99.3918 266.419 99.2455 266.419 99.1077 266.379C97.6428 266.059 96.26 265.438 95.0462 264.557C94.1898 263.916 93.472 263.107 92.9364 262.18C92.8637 262.321 92.7544 262.44 92.6199 262.524C82.3345 268.606 71.6359 274.46 60.9109 280.331C52.4892 284.943 44.0498 289.556 35.6281 294.415C35.4411 294.471 35.2406 294.463 35.0583 294.393C34.8761 294.323 34.7224 294.193 34.6217 294.026C34.5209 293.858 34.4787 293.662 34.5017 293.468C34.5248 293.274 34.6118 293.093 34.749 292.953C43.0125 288.209 51.5485 283.535 60.067 278.87C70.748 273.025 81.3939 267.198 91.7145 261.089L91.776 261.062ZM128.513 250.984C128.537 251.173 128.497 251.365 128.402 251.531C128.306 251.696 128.159 251.826 127.984 251.901C127.808 251.975 127.613 251.99 127.428 251.944C127.243 251.898 127.077 251.792 126.957 251.644C126.009 249.226 124.534 247.049 122.641 245.273C120.748 243.496 118.484 242.163 116.013 241.372C110.984 239.743 104.584 239.919 96.9539 242.085C93.8889 242.919 90.7506 243.456 87.5827 243.687C84.9454 243.951 82.9323 244.144 81.5081 245.13C81.2298 245.352 80.9991 245.627 80.8299 245.94C80.6607 246.254 80.5565 246.598 80.5236 246.952C80.4147 247.789 80.5879 248.637 81.0158 249.364C81.0688 249.55 81.0594 249.748 80.989 249.927C80.9186 250.107 80.7911 250.259 80.6262 250.359C80.4613 250.459 80.2682 250.502 80.0765 250.481C79.8848 250.46 79.7052 250.377 79.5653 250.244C78.9366 249.185 78.6856 247.944 78.8533 246.723C78.917 246.138 79.0997 245.573 79.3899 245.061C79.6802 244.549 80.072 244.103 80.5411 243.748C82.2993 242.507 84.5146 242.296 87.4245 241.988C90.4992 241.769 93.5459 241.256 96.5231 240.456C104.497 238.203 111.213 238.035 116.549 239.77C119.253 240.632 121.731 242.086 123.805 244.025C125.879 245.965 127.496 248.342 128.54 250.984H128.513ZM139.74 260.763C139.695 260.979 139.571 261.171 139.391 261.3C139.212 261.428 138.991 261.485 138.772 261.459C138.555 261.414 138.362 261.288 138.233 261.107C138.105 260.925 138.049 260.702 138.078 260.481C138.409 258.029 139.462 255.731 141.102 253.88C142.764 252.119 145.207 250.878 148.785 250.517C149.854 247.978 151.461 245.702 153.495 243.847C155.529 241.991 157.942 240.6 160.565 239.77C165.901 238.009 172.618 238.203 180.591 240.456C183.572 241.281 186.624 241.817 189.707 242.058C192.617 242.34 194.815 242.551 196.591 243.819C196.721 243.862 196.838 243.935 196.935 244.032C197.032 244.129 197.104 244.248 197.147 244.378C197.19 244.508 197.202 244.646 197.182 244.782C197.162 244.917 197.111 245.046 197.032 245.159C196.954 245.271 196.85 245.363 196.73 245.428C196.609 245.493 196.475 245.529 196.339 245.533C196.202 245.537 196.066 245.51 195.942 245.452C195.818 245.394 195.709 245.308 195.624 245.201C194.2 244.215 192.195 244.021 189.549 243.757C186.363 243.498 183.21 242.929 180.134 242.058C172.495 239.893 166.068 239.717 161.075 241.345C158.609 242.139 156.349 243.472 154.459 245.247C152.57 247.022 151.097 249.195 150.148 251.609C150.088 251.756 149.99 251.885 149.863 251.981C149.736 252.078 149.585 252.137 149.427 252.154C146.034 252.41 143.801 253.501 142.333 255.042C140.922 256.65 140.019 258.641 139.74 260.763V260.763Z" fill="white"/>
<path fill-rule="evenodd" clip-rule="evenodd" d="M22.8812 272.18C22.9043 272.316 22.895 272.456 22.8541 272.588C22.8132 272.72 22.7419 272.84 22.6458 272.94C22.5497 273.039 22.4317 273.114 22.3012 273.159C22.1707 273.204 22.0314 273.218 21.8947 273.199C21.7579 273.18 21.6276 273.129 21.5141 273.051C21.4006 272.972 21.3072 272.868 21.2415 272.746C21.1757 272.625 21.1395 272.489 21.1357 272.351C21.132 272.213 21.1607 272.076 21.2197 271.951C23.3032 257.084 26.2569 240.166 29.1316 224.638C32.0062 209.111 34.916 194.974 36.8588 185.644C40.806 166.613 53.676 159.809 53.7111 159.791L53.843 159.73L105.314 142.31C107.793 139.176 112.646 137.292 112.663 137.292C112.811 137.234 112.973 137.22 113.129 137.251C113.285 137.282 113.428 137.358 113.542 137.469C115.941 139.51 118.602 141.221 121.454 142.556C124.434 143.949 127.576 144.96 130.808 145.567C131.024 145.615 131.214 145.744 131.339 145.927C131.465 146.11 131.517 146.333 131.485 146.553C131.434 146.767 131.305 146.955 131.123 147.079C130.94 147.203 130.718 147.254 130.5 147.222C127.138 146.591 123.868 145.538 120.769 144.088C117.917 142.75 115.244 141.058 112.813 139.053C111.6 139.581 108.25 141.192 106.518 143.498C106.416 143.653 106.264 143.768 106.088 143.824L54.4671 161.305C53.5881 161.807 42.1598 168.435 38.5203 185.952C36.5863 195.274 33.7117 209.401 30.8019 224.911C27.8921 240.421 24.9471 257.295 22.89 272.145L22.8812 272.18ZM119.828 229.339L94.132 203.609C91.5398 201.016 89.4848 197.935 88.0848 194.543C86.6848 191.152 85.9675 187.518 85.974 183.848V183.848C85.9659 180.181 86.6808 176.549 88.0777 173.159C89.4746 169.77 91.5261 166.69 94.1144 164.096V164.096C99.359 158.874 106.454 155.943 113.85 155.943C121.246 155.943 128.341 158.874 133.586 164.096V164.096C133.651 164.216 133.744 164.32 133.857 164.398C133.969 164.476 134.098 164.527 134.234 164.546C134.369 164.565 134.508 164.553 134.638 164.509C134.767 164.466 134.885 164.392 134.982 164.295C135.078 164.197 135.151 164.079 135.193 163.949C135.236 163.818 135.248 163.68 135.227 163.544C135.207 163.408 135.155 163.279 135.076 163.167C134.997 163.055 134.893 162.963 134.773 162.899V162.899C129.213 157.362 121.691 154.254 113.85 154.254C106.009 154.254 98.487 157.362 92.9276 162.899V162.899C90.1843 165.651 88.0103 168.918 86.5305 172.513C85.0506 176.108 84.2939 179.96 84.3037 183.848V183.848C84.2958 187.738 85.0542 191.592 86.5355 195.188C88.0169 198.785 90.192 202.053 92.9364 204.807V204.807L118.624 230.536C118.791 230.629 118.983 230.665 119.173 230.638C119.362 230.612 119.537 230.524 119.673 230.389C119.808 230.254 119.895 230.078 119.922 229.888C119.948 229.699 119.912 229.506 119.819 229.339H119.828ZM97.077 98.7558C99.2044 113.288 107.31 121.844 107.336 121.871C107.358 121.901 107.384 121.928 107.415 121.95C107.969 122.434 122.861 135.338 128.135 138.111C129.803 138.963 131.577 139.587 133.41 139.968C135.406 140.397 137.443 140.601 139.485 140.576C139.616 140.617 139.755 140.626 139.891 140.603C140.027 140.58 140.156 140.526 140.267 140.444C140.378 140.362 140.468 140.255 140.53 140.132C140.592 140.009 140.624 139.873 140.624 139.735C140.624 139.597 140.592 139.461 140.53 139.338C140.468 139.215 140.378 139.108 140.267 139.026C140.156 138.945 140.027 138.89 139.891 138.867C139.755 138.844 139.616 138.854 139.485 138.895C137.565 138.917 135.648 138.725 133.77 138.322C132.09 137.971 130.464 137.396 128.935 136.615C123.881 133.974 109.34 121.378 108.549 120.691C103.268 114.366 99.8769 106.678 98.7648 98.5093C98.7241 98.2915 98.6027 98.0972 98.4251 97.965C98.2475 97.8328 98.0266 97.7726 97.8066 97.7963C97.5891 97.8372 97.395 97.9586 97.263 98.1365C97.131 98.3143 97.0708 98.5355 97.0945 98.7558H97.077ZM91.4859 75.4296C91.5317 75.5336 91.5553 75.646 91.5553 75.7597C91.5553 75.8733 91.5317 75.9857 91.4859 76.0897C91.405 76.2934 91.2511 76.4594 91.0544 76.5555C90.8577 76.6515 90.6322 76.6706 90.4222 76.6091C90.2003 76.5416 90.0107 76.3951 89.8892 76.1973C89.7677 75.9995 89.7228 75.7639 89.7629 75.5352V75.5352L88.497 66.3807C87.3805 62.1204 86.3432 58.1329 85.6311 55.3426C84.9806 52.7811 84.4795 50.7742 84.2509 49.7619C83.8089 47.4952 84.1794 45.1451 85.2971 43.1249C86.6965 40.5415 88.5659 38.2427 90.809 36.3471C90.8792 36.2277 90.9765 36.1265 91.0931 36.0519C91.2096 35.9772 91.3421 35.9312 91.4798 35.9175C91.6175 35.9038 91.7565 35.9229 91.8855 35.9731C92.0144 36.0234 92.1297 36.1034 92.222 36.2066C92.3142 36.3099 92.3808 36.4335 92.4163 36.5674C92.4519 36.7013 92.4553 36.8418 92.4264 36.9773C92.3975 37.1128 92.3371 37.2395 92.25 37.3472C92.163 37.4549 92.0518 37.5405 91.9255 37.597C89.86 39.3658 88.1401 41.5027 86.8531 43.8995C85.9307 45.5658 85.6197 47.5028 85.974 49.3746C86.1762 50.2548 86.6772 52.2794 87.3454 54.9113C88.2245 58.3002 89.2178 62.1732 90.2024 65.9494C90.2064 65.9963 90.2064 66.0434 90.2024 66.0903L91.4771 75.2887C91.485 75.3352 91.4879 75.3824 91.4859 75.4296V75.4296Z" fill="white"/>
<path d="M40.6477 334.58C40.5717 334.587 40.4952 334.587 40.4192 334.58C27.4525 330.645 18.0374 311.799 20.4812 300.603C20.4812 300.603 21.3603 288.35 24.0767 269.249C24.0912 269.146 24.1256 269.048 24.178 268.959C24.2305 268.87 24.2999 268.792 24.3823 268.73C24.4648 268.668 24.5586 268.623 24.6585 268.597C24.7585 268.571 24.8625 268.565 24.9646 268.58C25.0668 268.594 25.1651 268.629 25.254 268.681C25.3429 268.734 25.4205 268.803 25.4826 268.886C25.5446 268.968 25.5898 269.062 25.6156 269.162C25.6414 269.262 25.6472 269.366 25.6328 269.469C22.9955 288.517 22.0372 300.708 22.0285 300.831C19.7604 311.297 28.8415 329.421 40.8763 333.074C41.0625 333.124 41.2241 333.24 41.3302 333.401C41.4362 333.562 41.4791 333.756 41.4508 333.947C41.4225 334.138 41.3249 334.311 41.1767 334.435C41.0286 334.558 40.8402 334.622 40.6477 334.615V334.58Z" fill="white"/>
<path fill-rule="evenodd" clip-rule="evenodd" d="M182.947 156.763C182.868 156.913 182.76 157.046 182.63 157.153C182.499 157.261 182.348 157.341 182.186 157.389C182.023 157.437 181.853 157.452 181.685 157.433C181.517 157.414 181.354 157.361 181.207 157.278C181.059 157.195 180.93 157.083 180.826 156.95C180.723 156.816 180.647 156.662 180.603 156.499C180.56 156.335 180.55 156.164 180.573 155.997C180.597 155.829 180.654 155.668 180.741 155.522L183.097 151.332C183.171 151.176 183.277 151.036 183.407 150.922C183.537 150.808 183.69 150.722 183.855 150.67C184.02 150.617 184.194 150.599 184.366 150.616C184.538 150.633 184.705 150.686 184.856 150.77C185.007 150.855 185.14 150.969 185.245 151.107C185.35 151.245 185.426 151.402 185.468 151.571C185.51 151.739 185.517 151.914 185.488 152.085C185.46 152.256 185.397 152.419 185.303 152.565L182.947 156.763V156.763ZM176.134 152.943C176.121 153.117 176.072 153.286 175.99 153.44C175.908 153.594 175.796 153.729 175.66 153.837C175.523 153.946 175.366 154.025 175.198 154.07C175.03 154.115 174.855 154.124 174.682 154.098C174.51 154.072 174.346 154.011 174.198 153.918C174.051 153.825 173.924 153.703 173.826 153.559C173.728 153.415 173.661 153.253 173.628 153.082C173.596 152.911 173.599 152.735 173.637 152.565L174.095 149.589C174.119 149.425 174.176 149.266 174.262 149.124C174.348 148.981 174.461 148.857 174.595 148.758C174.729 148.659 174.881 148.587 175.042 148.547C175.204 148.507 175.372 148.499 175.536 148.524C175.868 148.576 176.165 148.757 176.364 149.027C176.563 149.298 176.648 149.636 176.6 149.968L176.134 152.943V152.943ZM187.817 161.745C187.671 161.823 187.511 161.872 187.347 161.888C187.182 161.904 187.016 161.888 186.857 161.839C186.699 161.791 186.551 161.712 186.424 161.607C186.296 161.502 186.19 161.372 186.112 161.226C186.034 161.08 185.986 160.92 185.969 160.755C185.953 160.59 185.97 160.423 186.018 160.265C186.066 160.106 186.145 159.959 186.25 159.831C186.355 159.703 186.484 159.596 186.631 159.518L189.268 158.092C189.563 157.936 189.908 157.903 190.227 158.001C190.547 158.098 190.815 158.318 190.973 158.612C191.052 158.758 191.1 158.918 191.117 159.083C191.133 159.248 191.117 159.415 191.068 159.574C191.02 159.732 190.941 159.88 190.836 160.008C190.731 160.136 190.601 160.242 190.455 160.319L187.817 161.745Z" fill="white"/>
<path fill-rule="evenodd" clip-rule="evenodd" d="M50.9279 140.326L52.9281 147.62C52.9844 147.857 52.9476 148.106 52.8253 148.317C52.7031 148.528 52.5046 148.684 52.2709 148.753C52.1057 148.798 51.9313 148.798 51.7661 148.753L44.213 146.668C41.8728 148.186 39.2985 149.309 36.5933 149.991C33.7485 150.694 30.8043 150.907 27.8878 150.619H27.8116C21.1255 149.936 14.9829 146.631 10.7302 141.428C6.47745 136.225 4.46143 129.549 5.12397 122.863V122.777C5.81888 116.095 9.13332 109.96 14.342 105.715C19.5507 101.469 26.2295 99.4595 32.9168 100.125H33.0026C39.688 100.817 45.8264 104.13 50.0735 109.338C54.3205 114.546 56.33 121.224 55.6616 127.91C55.4235 130.194 54.8789 132.436 54.0425 134.575C53.2595 136.619 52.2125 138.553 50.9279 140.326V140.326Z" fill="#DCE0EA"/>
<path fill-rule="evenodd" clip-rule="evenodd" d="M48.1201 138.34L50.1771 145.84C50.2117 145.965 50.2212 146.096 50.2049 146.225C50.1887 146.354 50.1471 146.479 50.0825 146.592C50.018 146.705 49.9317 146.804 49.8288 146.883C49.7258 146.962 49.6082 147.021 49.4826 147.054C49.3125 147.098 49.1341 147.098 48.964 147.054V147.054L41.2016 144.898C36.2411 148.13 30.3251 149.565 24.4372 148.964H24.3581C17.4829 148.26 11.1676 144.853 6.79843 139.491C2.42923 134.13 0.363 127.251 1.05323 120.366C1.04936 120.336 1.04936 120.307 1.05323 120.278C1.76122 113.398 5.1644 107.081 10.5167 102.71C15.8691 98.339 22.7339 96.2713 29.6063 96.9601H29.6942C36.5653 97.6712 42.8747 101.081 47.2397 106.441C51.6048 111.802 53.6695 118.677 52.9815 125.559V125.559C52.5161 130.15 50.8382 134.534 48.1201 138.261V138.34Z" fill="#EC7C7F"/>
<path d="M27.2554 139.461C24.5175 139.462 21.8235 138.773 19.4238 137.456C17.024 136.139 14.9964 134.237 13.5293 131.928C12.0621 129.618 11.2031 126.975 11.032 124.245C10.8609 121.515 11.3832 118.785 12.5505 116.311C13.7178 113.836 15.4921 111.697 17.7087 110.091C19.9252 108.485 22.5121 107.465 25.2288 107.126C27.9456 106.786 30.7041 107.139 33.2481 108.15C35.7922 109.161 38.0391 110.798 39.7802 112.909C40.3304 113.575 40.5935 114.431 40.5117 115.29C40.4298 116.149 40.0098 116.941 39.3438 117.491C38.6779 118.04 37.8207 118.303 36.9608 118.222C36.1009 118.14 35.3088 117.72 34.7586 117.055C33.4789 115.502 31.7488 114.384 29.8067 113.855C27.8646 113.326 25.8062 113.412 23.9149 114.101C22.0237 114.79 20.3928 116.048 19.247 117.701C18.1011 119.355 17.4968 121.323 17.5172 123.334C17.5376 125.345 18.1817 127.3 19.3608 128.931C20.5399 130.561 22.196 131.785 24.1008 132.436C26.0056 133.086 28.0654 133.13 29.9963 132.562C31.9273 131.994 33.6344 130.841 34.8823 129.263C35.1479 128.928 35.4769 128.649 35.8506 128.441C36.2243 128.233 36.6353 128.1 37.0601 128.051C37.485 128.002 37.9154 128.037 38.3268 128.154C38.7382 128.271 39.1225 128.467 39.4578 128.733C39.7931 128.998 40.0728 129.327 40.2809 129.7C40.4891 130.073 40.6216 130.484 40.6709 130.909C40.7201 131.333 40.6853 131.763 40.5682 132.174C40.4512 132.585 40.2542 132.969 39.9887 133.304C38.4724 135.228 36.5381 136.782 34.3321 137.849C32.126 138.915 29.7061 139.466 27.2554 139.461Z" fill="white"/>
<path d="M39.8743 112.909C38.3476 111.061 36.4304 109.573 34.2601 108.551C32.0898 107.53 29.7201 107 27.3207 107C24.9213 107 22.5516 107.53 20.3813 108.551C18.2111 109.573 16.2939 111.061 14.7672 112.909C14.216 113.575 13.9525 114.433 14.0344 115.293C14.1164 116.153 14.5373 116.945 15.2043 117.495C15.8714 118.046 16.7302 118.309 17.5916 118.227C18.453 118.145 19.2466 117.725 19.7977 117.059C20.9175 115.701 22.3856 114.672 24.0453 114.082V123.202C24.0453 124.066 24.389 124.895 25.0009 125.505C25.6127 126.116 26.4425 126.459 27.3077 126.459C28.1729 126.459 29.0027 126.116 29.6145 125.505C30.2263 124.895 30.57 124.066 30.57 123.202V114.082C32.2345 114.67 33.7074 115.699 34.8307 117.059C35.3818 117.725 36.1754 118.145 37.0368 118.227C37.8983 118.309 38.757 118.046 39.4241 117.495C40.0912 116.945 40.512 116.153 40.594 115.293C40.676 114.433 40.4124 113.575 39.8612 112.909H39.8743Z" fill="white"/>
<path d="M38.7633 126.46C40.5699 126.46 42.0345 124.995 42.0345 123.189C42.0345 121.382 40.5699 119.918 38.7633 119.918C36.9567 119.918 35.4921 121.382 35.4921 123.189C35.4921 124.995 36.9567 126.46 38.7633 126.46Z" fill="white"/>
<path fill-rule="evenodd" clip-rule="evenodd" d="M199.87 138.261L198.78 142.257C198.761 142.324 198.756 142.393 198.764 142.462C198.773 142.53 198.795 142.596 198.83 142.656C198.864 142.716 198.91 142.768 198.965 142.81C199.02 142.852 199.082 142.882 199.149 142.9C199.238 142.926 199.332 142.926 199.421 142.9V142.9L203.562 141.755C204.845 142.593 206.26 143.209 207.746 143.577C209.303 143.967 210.915 144.083 212.511 143.921H212.564C216.226 143.538 219.588 141.72 221.916 138.864C224.243 136.007 225.347 132.344 224.985 128.675C224.985 128.675 224.985 128.675 224.985 128.622C224.611 124.949 222.794 121.576 219.936 119.243C217.077 116.911 213.41 115.811 209.742 116.184H209.698C206.035 116.569 202.673 118.389 200.346 121.247C198.018 124.105 196.915 127.769 197.276 131.439V131.439C197.398 132.7 197.694 133.938 198.155 135.118C198.593 136.234 199.169 137.289 199.87 138.261V138.261Z" fill="#EC7C7F"/>
<path fill-rule="evenodd" clip-rule="evenodd" d="M217.838 125.268C217.102 124.534 216.105 124.121 215.065 124.121C214.025 124.121 213.028 124.534 212.291 125.268L211.096 126.457L209.927 125.268C209.19 124.534 208.193 124.121 207.153 124.121C206.113 124.121 205.116 124.534 204.379 125.268V125.268C204.015 125.632 203.726 126.064 203.529 126.54C203.332 127.016 203.231 127.526 203.231 128.041C203.231 128.556 203.332 129.066 203.529 129.542C203.726 130.018 204.015 130.45 204.379 130.814L205.575 132.011L211.113 137.565L216.66 132.011L217.856 130.814C218.219 130.449 218.507 130.016 218.702 129.539C218.898 129.063 218.998 128.553 218.996 128.038C218.994 127.522 218.891 127.013 218.693 126.538C218.494 126.062 218.204 125.631 217.838 125.268Z" fill="white"/>
</svg>
