<svg width="305" height="400" viewBox="0 0 305 400" fill="none" xmlns="http://www.w3.org/2000/svg">
<path fill-rule="evenodd" clip-rule="evenodd" d="M219.547 114.887C219.42 114.808 219.314 114.701 219.237 114.574C219.159 114.447 219.113 114.304 219.101 114.156C219.088 114.007 219.111 113.858 219.167 113.721C219.223 113.583 219.311 113.46 219.423 113.362C219.535 113.264 219.668 113.194 219.812 113.156C219.956 113.119 220.107 113.116 220.252 113.148C220.398 113.18 220.534 113.245 220.649 113.339C220.765 113.432 220.857 113.552 220.918 113.687C221.728 114.639 222.633 115.592 223.623 116.696C232.805 126.846 249.444 145.261 241.072 156.878C241.023 157.017 240.942 157.143 240.836 157.246C240.729 157.349 240.601 157.425 240.46 157.469C240.319 157.514 240.169 157.524 240.023 157.501C239.877 157.478 239.739 157.42 239.619 157.334C239.499 157.248 239.4 157.135 239.331 157.004C239.263 156.874 239.225 156.729 239.222 156.581C239.219 156.433 239.25 156.287 239.313 156.153C239.377 156.02 239.47 155.903 239.586 155.812C247.101 145.338 231.1 127.684 222.271 117.915C221.232 116.782 220.299 115.744 219.547 114.887Z" fill="#2B5250"/>
<path fill-rule="evenodd" clip-rule="evenodd" d="M101.432 88.7877C101.635 88.7496 101.845 88.7788 102.031 88.8708C102.216 88.9628 102.366 89.1127 102.459 89.2978C102.552 89.4828 102.581 89.693 102.544 89.8965C102.506 90.1 102.403 90.2856 102.251 90.4255C102.136 90.4255 63.5045 109.469 59.8089 143.357C59.8369 143.503 59.83 143.654 59.789 143.798C59.7479 143.941 59.6739 144.072 59.5727 144.182C59.4715 144.291 59.346 144.375 59.2064 144.427C59.0668 144.48 58.9168 144.498 58.7687 144.482C58.6205 144.465 58.4783 144.415 58.3534 144.333C58.2285 144.252 58.1245 144.142 58.0497 144.014C57.9748 143.885 57.9313 143.74 57.9225 143.591C57.9138 143.443 57.94 143.294 57.9993 143.157C61.8186 108.336 101.317 88.8639 101.432 88.7877Z" fill="#1C273C"/>
<path fill-rule="evenodd" clip-rule="evenodd" d="M221.185 74.7526C237.32 -4.6876 156.903 -11.3433 127.424 13.4324C122.186 0.530335 104.68 16.3555 115.157 29.7527C99.1838 34.5136 103.651 58.2038 105.184 77.971C105.184 78.0662 105.184 78.3138 105.261 78.2376L135.768 38.5127L221.185 74.7526Z" fill="#1C273C"/>
<path fill-rule="evenodd" clip-rule="evenodd" d="M126.396 56.0613C119.78 67.9872 111.556 78.9477 101.955 88.6353C91.2403 99.2616 40.1978 136.587 72.9244 173.16C72.9244 173.16 87.4876 173.055 99.9648 177.064C107.908 179.625 137.492 186.453 124.796 168.828C124.796 168.828 124.719 168.733 124.748 168.752C124.777 168.771 124.815 168.818 124.853 168.809C138.187 167.466 122.129 154.812 125.234 147.718L128.958 139.225L133.977 56.4993L126.396 56.0613Z" fill="#1C273C"/>
<path fill-rule="evenodd" clip-rule="evenodd" d="M176.59 47.2726C176.59 47.2726 220.699 61.7934 217.346 87.1689C212.184 126.284 265.408 145.68 221.156 173.084C221.156 173.084 212.317 188.014 197.345 191.661C187.82 193.984 152.465 199.478 168.875 179.854C168.875 179.854 168.98 179.759 168.952 179.768C168.923 179.778 168.866 179.844 168.818 179.835C153.246 177.112 173.219 163.648 170.171 155.021C167.704 148.061 166.532 144.738 166.532 144.738L167.713 47.1393L176.59 47.2726Z" fill="#1C273C"/>
<path fill-rule="evenodd" clip-rule="evenodd" d="M140.683 83.7032L173.943 87.3215C176.289 87.5849 178.436 88.7665 179.914 90.6078C181.392 92.4492 182.08 94.8006 181.829 97.1479L175.562 154.669C175.562 155.317 175.19 166.762 190.363 172.322L140.835 236.48L106.318 163.162C122.786 160.944 124.576 149.089 124.576 149.089L130.863 91.6444C130.985 90.478 131.336 89.3472 131.896 88.3167C132.456 87.2861 133.214 86.3761 134.126 85.6385C135.038 84.9009 136.086 84.3504 137.211 84.0183C138.337 83.6862 139.516 83.5791 140.683 83.7032Z" fill="#EE8B83"/>
<path fill-rule="evenodd" clip-rule="evenodd" d="M114.052 79.8467C114.052 79.8467 110.851 74.6574 108.023 74.3527C105.194 74.048 100.546 79.2849 100.022 83.8744C99.4981 88.4639 101.593 105.098 111.918 101.014C122.243 96.9288 114.052 79.8467 114.052 79.8467Z" fill="#F2BA95"/>
<path fill-rule="evenodd" clip-rule="evenodd" d="M116.509 85.5884C116.638 85.7656 116.707 85.9789 116.707 86.1978C116.707 86.4167 116.638 86.63 116.509 86.8072C116.455 86.8712 116.388 86.9227 116.313 86.9581C116.237 86.9934 116.155 87.0117 116.071 87.0117C115.987 87.0117 115.905 86.9934 115.829 86.9581C115.754 86.9227 115.686 86.8712 115.633 86.8072C115.633 86.8072 110.366 100.138 108.756 97.5573C107.146 94.9769 105.403 92.4727 105.251 88.7973C105.099 85.1218 108.87 82.5319 107.927 81.3893C106.984 80.2467 105.603 81.3893 105.48 81.5321C104.743 82.2029 104.12 82.9873 103.632 83.8554C103.593 83.943 103.532 84.0194 103.456 84.0774C103.379 84.1355 103.29 84.1734 103.195 84.1876C103.1 84.2019 103.003 84.192 102.913 84.1589C102.823 84.1258 102.742 84.0706 102.679 83.9983C102.526 83.8414 102.425 83.6407 102.391 83.424C102.357 83.2073 102.391 82.9854 102.489 82.789C102.489 82.789 105.137 77.8472 108.956 78.7994C112.575 79.6944 116.5 85.5694 116.509 85.5884Z" fill="#EE8B83"/>
<path fill-rule="evenodd" clip-rule="evenodd" d="M200.65 95.4529C200.65 95.4529 205.65 91.9584 208.365 92.8058C211.079 93.6533 213.27 100.299 211.936 104.708C210.603 109.117 202.059 123.561 194.202 115.725C186.344 107.888 200.65 95.4529 200.65 95.4529Z" fill="#F2BA95"/>
<path fill-rule="evenodd" clip-rule="evenodd" d="M196.116 99.7663C195.93 99.8826 195.785 100.055 195.703 100.258C195.621 100.462 195.605 100.686 195.659 100.899C195.686 100.978 195.73 101.051 195.788 101.111C195.846 101.171 195.916 101.218 195.994 101.249C196.072 101.28 196.155 101.293 196.239 101.289C196.322 101.284 196.404 101.262 196.478 101.223C196.478 101.223 196.021 115.506 198.516 113.82C201.012 112.135 203.612 110.478 205.183 107.155C206.755 103.832 204.345 99.9663 205.669 99.2902C206.993 98.6142 207.784 100.242 207.86 100.404C208.266 101.31 208.53 102.274 208.641 103.261C208.642 103.355 208.666 103.447 208.712 103.53C208.757 103.612 208.823 103.681 208.903 103.732C208.983 103.782 209.074 103.811 209.168 103.817C209.262 103.823 209.356 103.805 209.441 103.765C209.644 103.682 209.816 103.537 209.932 103.351C210.048 103.165 210.103 102.947 210.089 102.728C210.089 102.728 209.622 97.1383 205.736 96.5003C202.069 95.9195 196.116 99.7568 196.116 99.7663Z" fill="#EE8B83"/>
<path fill-rule="evenodd" clip-rule="evenodd" d="M169.761 25.5917C112.414 15.1178 111.985 61.2603 109.909 98.1382C109.032 113.668 115.623 124.247 115.623 124.247C115.623 124.247 128.958 141.586 133.92 145.661C137.203 148.08 140.98 149.745 144.98 150.538C148.981 151.332 153.107 151.233 157.065 150.251C163.227 148.347 182.153 137.435 182.153 137.435C182.153 137.435 192.278 130.179 197.392 115.534C209.546 80.6086 226.785 37.7701 169.761 25.5917Z" fill="#F2BA95"/>
<path fill-rule="evenodd" clip-rule="evenodd" d="M114.604 56.347C112.639 64.5597 111.405 72.9304 110.918 81.3608C132.901 82.6081 142.016 55.0521 142.016 55.0521L136.663 52.605L147.398 48.9201L152.427 54.3475C156.865 56.309 165.761 65.8498 179.172 89.8352C186.468 102.928 193.563 109.269 198.497 112.326C205.888 91.2634 214.232 67.7922 206.707 50.0912C193.011 44.1687 164.97 38.7984 164.97 38.7984C164.97 38.7984 133.063 49.9865 114.604 56.347Z" fill="#EE8B83"/>
<path fill-rule="evenodd" clip-rule="evenodd" d="M152.969 127.132C153.104 127.136 153.238 127.113 153.364 127.064C153.49 127.016 153.604 126.943 153.702 126.85C153.799 126.757 153.877 126.646 153.931 126.523C153.986 126.399 154.015 126.267 154.017 126.132C154.02 125.862 153.917 125.601 153.73 125.405C153.543 125.21 153.287 125.095 153.017 125.085C150.769 124.933 148.552 124.478 146.426 123.733C146.296 123.664 146.153 123.625 146.006 123.617C145.86 123.61 145.713 123.634 145.577 123.688C145.44 123.742 145.317 123.825 145.216 123.931C145.114 124.037 145.037 124.164 144.989 124.303C144.941 124.441 144.924 124.589 144.938 124.735C144.953 124.881 144.999 125.022 145.073 125.149C145.147 125.275 145.247 125.385 145.367 125.469C145.487 125.553 145.624 125.61 145.769 125.637C148.091 126.455 150.513 126.957 152.969 127.132Z" fill="#EE8B83"/>
<path fill-rule="evenodd" clip-rule="evenodd" d="M176.962 84.7219C176.143 84.7432 175.338 84.5103 174.657 84.0553C174.215 83.6462 173.86 83.1518 173.615 82.6019C173.369 82.052 173.238 81.4581 173.228 80.856C173.371 80.437 173.847 81.2369 176.181 80.7037C178.514 80.1704 186.734 79.4468 190.992 86.0549C191.725 87.188 190.877 87.7879 189.782 87.1594C187.953 85.842 185.857 84.9411 183.642 84.52C181.427 84.0989 179.147 84.1678 176.962 84.7219Z" fill="#2B5250"/>
<path fill-rule="evenodd" clip-rule="evenodd" d="M142.492 77.4854C143.202 77.8934 144.019 78.076 144.835 78.0091C145.421 77.858 145.969 77.5903 146.449 77.2222C146.929 76.8541 147.329 76.3931 147.626 75.8667C147.702 75.4287 146.902 75.8667 145.102 74.3337C143.302 72.8007 136.435 68.1922 129.539 71.9533C128.348 72.6103 128.815 73.5434 130.072 73.5053C132.307 73.2232 134.577 73.4333 136.723 74.1208C138.868 74.8084 140.838 75.9567 142.492 77.4854Z" fill="#2B5250"/>
<path fill-rule="evenodd" clip-rule="evenodd" d="M117.061 156.221C117.061 156.221 119.128 148.737 124.634 148.67C124.634 148.67 140.121 165.809 169.771 160.306C199.421 154.802 144.55 187.186 142.635 185.539C140.721 183.891 117.061 156.221 117.061 156.221Z" fill="white"/>
<path fill-rule="evenodd" clip-rule="evenodd" d="M150.036 107.698C149.598 107.117 150.455 105.165 151.15 103.889C151.684 102.937 152.045 102.461 152.341 102.575C152.646 102.518 152.893 103.023 153.179 104.07C153.56 105.451 153.931 107.498 153.369 107.993C152.853 108.301 152.253 108.438 151.655 108.385C151.056 108.332 150.49 108.091 150.036 107.698Z" fill="#F9D4C8"/>
<path fill-rule="evenodd" clip-rule="evenodd" d="M151.798 96.0053C151.849 95.9007 151.921 95.8073 152.009 95.7305C152.097 95.6538 152.199 95.5951 152.31 95.558C152.421 95.5208 152.537 95.5059 152.654 95.514C152.77 95.5221 152.884 95.5532 152.988 95.6054C153.19 95.72 153.343 95.9041 153.418 96.1232C153.493 96.3423 153.486 96.5814 153.398 96.7956C152.674 98.2525 148.531 106.546 148.569 107.365C148.569 107.908 149.521 108.803 149.864 109.145C150.541 109.757 151.354 110.198 152.236 110.431C152.359 110.449 152.477 110.493 152.582 110.559C152.687 110.625 152.777 110.713 152.847 110.816C152.916 110.919 152.964 111.035 152.986 111.158C153.008 111.28 153.004 111.406 152.975 111.527C152.945 111.647 152.891 111.761 152.816 111.86C152.74 111.958 152.645 112.04 152.536 112.1C152.427 112.16 152.307 112.197 152.183 112.208C152.059 112.219 151.935 112.204 151.817 112.164C150.654 111.865 149.581 111.287 148.693 110.478C147.758 109.732 147.09 108.703 146.788 107.546C146.674 106.394 150.941 97.605 151.798 96.0053Z" fill="#EE8B83"/>
<path fill-rule="evenodd" clip-rule="evenodd" d="M138.759 92.2156C139.485 92.5935 140.309 92.7397 141.121 92.6345C141.7 92.4612 142.238 92.1717 142.701 91.7837C143.164 91.3957 143.544 90.9174 143.816 90.3779C143.816 89.9399 143.092 90.4635 141.225 88.9496C139.692 87.7118 134.473 84.5124 128.843 85.8836C128.566 85.6394 128.345 85.3372 128.197 84.9982C128.048 84.6592 127.977 84.2919 127.986 83.9221C128.002 83.8034 127.993 83.6827 127.96 83.5677C127.926 83.4528 127.869 83.3461 127.791 83.2547C127.714 83.1633 127.618 83.089 127.51 83.0368C127.403 82.9846 127.285 82.9555 127.165 82.9515C127.046 82.9475 126.926 82.9686 126.815 83.0135C126.704 83.0584 126.604 83.1261 126.521 83.2121C126.437 83.2982 126.373 83.4008 126.332 83.5132C126.291 83.6256 126.273 83.7455 126.281 83.865C126.244 84.7973 126.526 85.7144 127.081 86.4644L126.948 86.5215C126.632 86.3905 126.379 86.1411 126.243 85.8264C126.142 85.63 125.968 85.4805 125.758 85.4091C125.549 85.3378 125.32 85.3501 125.12 85.4436C124.919 85.537 124.763 85.7044 124.683 85.9106C124.603 86.1168 124.606 86.346 124.691 86.5501C124.834 86.8775 125.034 87.1772 125.281 87.4356C124.481 88.1022 124.996 88.8544 126.139 88.7782C128.366 88.3941 130.65 88.5028 132.83 89.0967C135.011 89.6906 137.034 90.7552 138.759 92.2156Z" fill="#2B5250"/>
<path fill-rule="evenodd" clip-rule="evenodd" d="M173.733 99.376C172.915 99.4409 172.096 99.2513 171.39 98.8332C170.926 98.4464 170.546 97.9692 170.272 97.4306C169.999 96.892 169.838 96.3034 169.799 95.7006C169.923 95.2721 170.438 96.0624 172.743 95.4054C174.647 94.8626 180.696 93.9771 185.306 97.4335C185.658 97.3186 185.98 97.1277 186.25 96.8743C186.52 96.6209 186.731 96.3112 186.868 95.9672C186.908 95.8631 186.97 95.7682 187.047 95.6879C187.125 95.6076 187.218 95.5435 187.321 95.4992C187.424 95.455 187.534 95.4315 187.646 95.4301C187.758 95.4287 187.869 95.4494 187.972 95.4911C188.077 95.5301 188.173 95.5896 188.254 95.666C188.335 95.7425 188.4 95.8345 188.446 95.9365C188.491 96.0385 188.515 96.1485 188.517 96.26C188.52 96.3716 188.499 96.4824 188.458 96.5861C188.126 97.4591 187.504 98.1917 186.696 98.6618L186.801 98.7666C186.975 98.7767 187.15 98.7507 187.314 98.69C187.478 98.6294 187.627 98.5355 187.753 98.4143C187.923 98.2629 188.145 98.1849 188.372 98.1974C188.599 98.2099 188.811 98.3119 188.963 98.4809C189.038 98.5639 189.095 98.6609 189.132 98.7662C189.169 98.8716 189.185 98.9832 189.179 99.0947C189.173 99.2061 189.145 99.3153 189.096 99.4159C189.048 99.5164 188.98 99.6064 188.896 99.6807C188.634 99.9225 188.335 100.122 188.011 100.271C188.487 101.223 187.715 101.68 186.696 101.157C184.796 99.932 182.651 99.138 180.412 98.8304C178.173 98.5228 175.893 98.709 173.733 99.376Z" fill="#2B5250"/>
<path fill-rule="evenodd" clip-rule="evenodd" d="M161.58 122.285C161.875 122.261 162.149 122.121 162.341 121.895C162.533 121.669 162.627 121.376 162.604 121.081C162.58 120.785 162.439 120.512 162.213 120.32C161.987 120.128 161.694 120.033 161.399 120.057C161.399 120.057 150.388 121.009 140.559 115.791C140.429 115.723 140.288 115.68 140.142 115.666C139.996 115.652 139.848 115.667 139.708 115.71C139.568 115.753 139.438 115.823 139.325 115.916C139.212 116.009 139.118 116.124 139.049 116.253C138.98 116.383 138.938 116.524 138.924 116.67C138.91 116.816 138.925 116.963 138.967 117.104C139.01 117.244 139.08 117.374 139.174 117.487C139.267 117.6 139.382 117.694 139.511 117.762C149.912 123.295 161.542 122.285 161.58 122.285Z" fill="#EE8B83"/>
<path fill-rule="evenodd" clip-rule="evenodd" d="M211.403 79.5897C211.403 79.5897 213.365 84.5315 208.203 92.7774C208.203 92.7774 204.05 95.253 202.078 101.947L200.878 105.384C199.296 101.757 199.204 97.653 200.621 93.9581C200.621 93.9581 195.106 70.3155 204.24 64.4405C213.375 58.5656 211.403 79.5897 211.403 79.5897Z" fill="#2B5250"/>
<path fill-rule="evenodd" clip-rule="evenodd" d="M134.72 46.1492C134.72 46.1492 129.644 66.1449 116.566 77.3901C116.566 77.3901 115.442 88.5497 110.394 89.3114C110.394 89.3114 111.071 74.8574 107.204 74.4003L108.737 65.0499C108.737 65.0499 116.49 45.1875 134.72 46.1492Z" fill="#2B5250"/>
<path fill-rule="evenodd" clip-rule="evenodd" d="M216.461 56.5565C218.947 55.6615 221.575 58.5561 220.109 62.0601C250.521 53.1668 223.185 149.584 183.82 91.6633C170.085 71.4676 158.379 51.1005 146.74 53.043C135.101 54.9854 131.882 75.6953 116.566 77.3616C114.909 77.5425 107.861 72.0675 107.823 70.6107C105.756 -10.0007 214.765 -3.57353 216.461 56.5565Z" fill="#1C273C"/>
<path fill-rule="evenodd" clip-rule="evenodd" d="M231.814 285.032C231.814 285.032 222.899 329.86 222.585 336.364C222.585 336.364 230.538 345.6 224.49 356.893L238.177 399.464H50.3891L64.9523 349.361C59.2375 343.4 65.981 336.364 65.981 336.364C65.6666 329.86 56.7516 285.032 56.7516 285.032L144.273 263.817L231.814 285.032Z" fill="#138175"/>
<path fill-rule="evenodd" clip-rule="evenodd" d="M229.614 296.239C226.957 309.969 222.794 331.955 222.585 336.364C222.585 336.364 230.538 345.6 224.49 356.893L224.937 358.292C207.793 365.262 206.984 368.119 191.601 359.416C190.499 358.805 189.241 358.532 187.985 358.63C186.728 358.728 185.528 359.194 184.534 359.968C175.533 366.233 149.464 394.618 136.711 387.448L65.9904 336.354C65.6761 329.851 56.7611 285.022 56.7611 285.022L99.6219 274.634L229.614 296.239Z" fill="#2B5250"/>
<path fill-rule="evenodd" clip-rule="evenodd" d="M99.4315 228.472L92.869 234.852C92.869 234.852 97.3551 240.965 109.356 243.859C121.357 246.754 157.932 241.003 162.865 238.708C167.38 236.604 184.372 187.519 202.126 141.9C202.507 140.948 200.383 141.815 199.812 142.253L126.472 197.755L99.4315 228.472Z" fill="#786FB0"/>
<path fill-rule="evenodd" clip-rule="evenodd" d="M25.5012 155.792C40.1112 142.482 59.3958 135.492 79.1438 136.349C98.8918 137.205 117.499 145.838 130.901 160.363L145.893 176.712L162.237 161.725C176.848 148.414 196.135 141.423 215.884 142.28C235.634 143.136 254.242 151.77 267.646 166.295C280.96 180.901 287.952 200.179 287.096 219.922C286.239 239.664 277.603 258.265 263.074 271.663L246.72 286.65L136.749 387.448L35.9212 277.509L20.9294 261.132C7.62409 246.528 0.637313 227.255 1.49383 207.52C2.35035 187.785 10.9806 169.19 25.5012 155.792Z" fill="#65A4C5"/>
<path fill-rule="evenodd" clip-rule="evenodd" d="M47.2556 152.774C72.6482 140.005 100.822 144.709 110.166 163.248C119.509 181.787 106.499 207.239 81.1061 220.007C55.7135 232.776 27.5491 228.072 18.2436 209.533C8.938 190.995 21.8629 165.543 47.2556 152.774Z" fill="#83CBCA"/>
<path fill-rule="evenodd" clip-rule="evenodd" d="M192.306 144.966C202.119 142.221 212.387 141.498 222.488 142.842C232.589 144.186 242.311 147.568 251.064 152.784C249.892 153.517 245.139 157.373 245.235 157.849C245.33 158.325 248.32 158.801 252.94 161.096C257.559 163.391 254.369 166.038 254.521 168.352C254.673 170.665 248.892 168.533 247.701 167.923C245.845 167.039 243.913 166.322 241.929 165.781C238.272 164.6 236.758 167.152 235.938 167.314C235.119 167.476 233.729 169.047 232.31 168.371C230.89 167.695 228.195 171.227 226.785 172.694C225.376 174.16 227.252 179.749 225.585 178.911C223.918 178.073 219.975 183.358 220.499 185.929C221.023 188.5 221.556 190.623 220.661 193.042C219.766 195.46 215.613 196.098 216.508 192.089C217.404 188.081 215.289 188.176 213.727 186.776C212.165 185.377 213.394 185.672 213.965 184.282C214.537 182.891 215.051 182.777 215.356 182.177C215.874 180.468 216.125 178.688 216.099 176.902C216.099 174.769 214.537 176.579 210.384 173.798C206.231 171.018 207.831 178.559 205.907 180.149C203.983 181.739 204.06 182.663 203.136 181.244C202.298 180.029 201.34 178.899 200.278 177.873C199.326 176.921 199.211 176.274 198.221 174.55C197.23 172.827 195.687 174.208 194.621 172.646C193.554 171.084 187.172 172.77 186.144 171.38C185.115 169.989 186.687 169.875 190.03 166.857C193.373 163.838 186.744 165.39 183.248 163.429C179.753 161.467 183.039 161.867 183.039 161.867L185.067 160.81C184.629 157.842 184.738 154.818 185.391 151.889C186.487 147.29 185.906 152.841 186.553 156.03C187.201 159.22 191.011 158.011 194.173 158.43C197.335 158.849 195.964 160.42 199.707 162.01C203.45 163.6 202.05 163.562 204.469 161.686C206.888 159.811 204.136 156.849 203.307 154.878C202.478 152.907 200.707 154.488 198.021 151.631C195.335 148.775 197.068 147.118 197.068 147.118C195.943 146.854 194.856 146.451 193.83 145.918C193.298 145.641 192.789 145.323 192.306 144.966ZM270.218 169.275C269.951 169.789 269.637 170.361 269.265 171.027C263.988 180.311 263.15 179.311 262.331 181.073C261.512 182.834 258.579 184.186 257.74 184.777C256.902 185.367 258.121 187.167 256.074 188.109C254.026 189.052 254.169 193.822 250.359 193.746C246.549 193.67 246.492 188.871 242.082 189.766C237.672 190.661 235.5 192.623 235.853 194.337C236.205 196.051 237.186 197.269 233.748 198.145C230.309 199.021 227.652 198.145 227.433 200.707C227.214 203.268 229.7 205.582 226.319 205.734C222.937 205.887 214.241 201.992 214.946 204.944C215.651 207.896 218.651 211.666 219.413 212.79C220.175 213.913 218.108 213.742 217.508 215.094C216.908 216.446 226.785 215.027 225.699 217.065C224.614 219.103 224.661 220.874 224.09 222.302C223.518 223.73 224.966 227.139 222.985 232.662C221.004 238.184 220.67 232.281 220.07 238.803C219.47 245.326 224.614 248.563 222.928 249.753C221.242 250.944 215.727 247.906 215.651 253.362C215.575 258.818 222.004 254.105 220.042 258.666C218.08 263.227 217.032 262.798 216.918 265.331C216.803 267.864 220.994 269.14 221.156 270.454C221.318 271.768 219.766 272.015 220.147 275.462C220.528 278.909 226.585 282.489 226.585 282.489C226.585 282.489 230.862 283.003 230.519 288.202C230.176 293.401 236.872 291.611 238.31 292.382C238.772 292.608 239.267 292.759 239.777 292.83L246.635 286.546L250.559 282.946C250.635 282.318 250.664 281.451 252.902 280.804L262.988 271.558C276.995 258.641 285.545 240.869 286.895 221.866C288.246 202.864 282.295 184.062 270.256 169.294L270.218 169.275Z" fill="#60CA8E"/>
<path fill-rule="evenodd" clip-rule="evenodd" d="M30.9874 151.232C43.908 141.501 59.6527 136.252 75.8294 136.282C75.096 137.806 74.3245 139.91 75.0484 140.91C75.7722 141.91 73.1434 143.538 78.763 143.462C84.3825 143.386 82.5728 142.367 85.4302 142.852C88.2876 143.338 88.9067 139.482 91.726 142.319C94.5453 145.157 92.3451 149.565 93.4595 152.965C94.5738 156.364 101.955 153.802 95.4406 158.544C88.9257 163.286 85.3159 163.372 85.3159 163.372C85.3159 163.372 77.6962 164.705 77.2771 166.923C76.858 169.142 68.705 167.599 68.705 170.142C68.705 172.684 71.229 178.388 72.591 179.816C73.953 181.244 82.3156 179.34 78.182 185.3C74.0483 191.261 78.5344 194.413 80.2202 196.422C81.9061 198.431 86.4208 195.375 85.6302 190.414C84.8397 185.453 88.9162 177.15 89.983 176.131C91.0497 175.112 81.1251 165.114 88.6781 164.438C96.2311 163.762 99.1933 162.105 99.1933 162.105C99.1933 162.105 101.098 154.612 102.813 156.516C104.527 158.42 105.27 154.945 108.327 155.288C111.385 155.631 116.204 153.05 115.214 157.097C114.223 161.144 114.795 161.858 113.852 163.562C112.909 165.267 106.87 162.839 108.489 167.638C110.109 172.437 112.623 172.246 109.956 173.855C107.289 175.464 103.089 174.712 102.927 175.493C102.765 176.274 100.812 176.664 102.336 179.454C103.86 182.244 107.861 181.958 108.927 186.653C109.994 191.347 104.013 190.852 109.032 195.07C114.052 199.288 118.471 194.756 114.233 200.783C109.994 206.81 106.813 195.774 103.46 198.164C100.108 200.554 102.689 201.735 97.2979 204.639C91.907 207.543 91.0402 206.439 89.2782 208.286C87.5161 210.133 84.0205 212.885 84.0015 214.951C83.9825 217.018 77.5248 216.694 76.8676 219.274C76.2104 221.855 74.9626 220.226 75.4198 222.664C75.877 225.102 76.1342 226.682 77.8391 227.196C79.544 227.71 79.0392 224.178 83.2014 223.654C87.3637 223.131 88.7543 220.503 88.9829 219.493C89.2115 218.484 88.8495 216.741 90.5545 216.189C92.2594 215.637 95.4787 214.656 96.0502 214.856C96.6216 215.056 102.013 211.047 103.67 211.285C105.327 211.523 107.861 209.8 108.661 210.067C109.461 210.333 110.89 207.905 111.518 208.315C112.147 208.724 114.699 207.667 114.699 207.667C114.699 207.667 121.014 206.715 121.633 207.667C122.252 208.619 122.586 207.581 123.538 210.267C124.491 212.952 127.948 215.675 123.024 216.675C118.1 217.675 121.119 214.275 116.757 213.675C112.394 213.076 106.832 216.322 106.794 217.189C106.756 218.055 104.146 217.294 101.641 217.589C99.1361 217.884 97.0407 217.027 97.4789 219.179C97.917 221.331 100.422 222.645 97.3074 224.13C94.1929 225.616 86.6017 222.454 84.0777 227.339C81.5537 232.224 81.2775 231.967 78.4486 234.357C75.6198 236.747 77.3438 242.584 76.4008 243.202C75.4579 243.821 68.6573 241.355 66.019 245.735C63.3807 250.115 67.362 246.526 65.0665 251.248C62.7711 255.971 61.1329 256.104 62.3711 257.99C63.6093 259.875 71.2004 259.942 67.4572 262.513C63.714 265.083 62.6949 269.235 60.3614 265.979C58.0278 262.722 59.1708 259.066 56.5515 255.314C53.9323 251.563 53.3608 252.229 51.4654 250.258C49.57 248.287 58.5612 246.792 49.2366 244.545C39.912 242.298 41.836 247.002 36.4069 245.497C30.9779 243.993 30.6922 250.706 31.016 254.705C31.3398 258.704 26.7585 257.923 29.8254 261.465C32.8923 265.007 33.5019 263.808 33.7591 266.645C34.0163 269.483 35.5497 270.225 34.7687 270.597C34.2925 270.825 33.0257 272.453 31.5494 272.939L23.682 264.369C23.2534 262.084 23.1677 260.675 20.6437 259.913C20.2531 259.799 19.8502 259.732 19.4436 259.713C18.4594 258.571 17.5069 257.409 16.5862 256.228C17.4339 251.858 19.3578 245.811 15.167 239.879C10.6714 233.528 8.06164 238.546 10.138 230.862C12.2144 223.178 18.9578 223.207 12.6335 218.284C6.3091 213.361 1.34677 220.569 4.85183 210.467C8.3569 200.364 9.18554 202.325 10.3571 197.603C11.5286 192.88 11.1857 184.843 11.1857 184.843C11.1857 184.843 9.93799 177.616 19.4817 169.923C29.0253 162.229 29.4921 165.543 30.5683 155.078C30.7207 153.679 30.8541 152.393 30.9874 151.232Z" fill="#60CA8E"/>
<path fill-rule="evenodd" clip-rule="evenodd" d="M52.094 295.144L51.1416 294.134C50.8795 293.649 50.6749 293.134 50.532 292.601C50.1605 291.287 50.4463 292.192 49.5795 291.821C49.3859 291.749 49.1731 291.749 48.9795 291.821L38.0071 279.738C38.7024 277.833 37.207 278.005 35.1497 275.776C33.0924 273.548 37.2356 272.92 37.2356 272.92C38.7786 269.502 41.6741 270.063 41.9979 271.101C42.3218 272.139 44.0172 275.281 44.8553 275.748C45.6935 276.214 46.4555 276.281 51.6845 275.748C56.9135 275.215 49.6462 279.899 50.732 282.337C51.8178 284.775 52.3798 283.07 56.0277 287.355C59.3994 291.335 53.3322 295.106 52.094 295.144Z" fill="#60CA8E"/>
<path fill-rule="evenodd" clip-rule="evenodd" d="M49.6081 269.521C49.6081 269.521 54.6942 269.34 54.5799 271.93C54.4656 274.52 55.4847 272.701 56.0657 274.51C56.6468 276.319 55.1133 276.957 56.5229 278.9C57.4304 280.07 58.7344 280.87 60.1899 281.147C60.1899 281.147 60.409 279.604 61.0947 282.994C61.7805 286.384 66.4952 284.898 66.4952 284.898C66.4952 284.898 66.3047 281.851 68.1334 281.899C69.0883 281.948 70.0456 281.9 70.9908 281.756C70.9908 281.756 73.4768 280.29 73.4482 279.119C73.4196 277.947 76.4008 277.348 73.0101 274.834C69.6193 272.32 68.5811 271.977 68.2477 271.415C67.9144 270.854 71.1051 267.959 67.1715 268.749C63.2378 269.54 61.8567 268.873 61.8567 268.873C61.7222 268.49 61.5073 268.139 61.2264 267.845C60.9456 267.551 60.6052 267.321 60.228 267.169C59.1041 266.864 57.9326 267.426 56.561 267.492C54.8387 267.351 53.1329 267.051 51.4654 266.597C51.4654 266.597 47.8746 268.378 49.6081 269.521Z" fill="#60CA8E"/>
<path fill-rule="evenodd" clip-rule="evenodd" d="M79.9631 277.033C78.9344 277.243 78.944 280.975 75.8485 282.565C72.753 284.156 70.9623 281.613 71.2195 285.527C71.4767 289.44 66.5524 290.421 66.5524 290.421C66.5524 290.421 65.8762 290.24 67.4192 291.525C68.9622 292.811 71.6481 286.079 74.5055 287.526C77.3629 288.974 76.7723 289.745 77.801 291.135C78.8297 292.525 83.3158 287.774 84.2778 288.326C85.2397 288.878 88.4305 284.07 89.2401 285.403C90.0497 286.736 91.145 288.326 93.3833 286.907C95.6216 285.489 98.5075 282.147 97.8027 280.785C97.0979 279.423 91.2402 272.615 90.0306 275.634C88.821 278.652 84.7349 282.147 84.1349 280.242C83.5348 278.338 82.23 275.605 79.9631 277.033Z" fill="#60CA8E"/>
<path fill-rule="evenodd" clip-rule="evenodd" d="M66.2667 310.645L56.5706 300.067L56.9897 300.19C56.9897 300.19 61.3139 303.59 67.9145 301.4C74.5151 299.21 70.7719 295.477 76.1533 297.8C81.5347 300.124 84.3254 300.2 84.3254 300.2C84.3254 300.2 86.659 294.82 87.7733 297.153C88.8877 299.486 91.0784 305.027 89.2687 305.608C87.459 306.189 87.3638 306.637 83.2777 305.542C79.1916 304.447 75.8866 298.476 73.6769 302.885C71.4672 307.294 70.6385 307.455 69.867 308.903C69.486 309.56 67.9907 310.283 66.2667 310.645Z" fill="#60CA8E"/>
<path fill-rule="evenodd" clip-rule="evenodd" d="M185.115 343.124L136.749 387.448L71.7719 316.606C73.8769 313.587 77.8201 310.893 79.1821 310.598C84.0016 309.093 83.4777 310.693 87.0875 311.664C90.6974 312.635 93.4595 313.568 95.7073 309.921C97.9552 306.275 106.632 305.894 106.804 308.846C106.975 311.797 109.661 318.529 109.661 318.529C109.661 318.529 129.853 316.996 132.891 317.234C135.93 317.472 136.758 321.576 138.34 327.232C139.921 332.888 146.407 335.421 146.407 335.421C146.407 335.421 157.322 334.469 171.504 326.489C185.687 318.51 177.6 335.506 182.781 340.001C183.793 340.845 184.592 341.915 185.115 343.124Z" fill="#60CA8E"/>
<path fill-rule="evenodd" clip-rule="evenodd" d="M94.1071 138.52C96.6042 139.14 99.0679 139.887 101.489 140.758C100.412 141.71 97.9646 143.614 97.3455 142.662C96.5454 141.329 95.8787 141.243 94.8977 140.596C94.6339 140.32 94.4281 139.994 94.2923 139.638C94.1565 139.281 94.0936 138.901 94.1071 138.52Z" fill="#60CA8E"/>
<path fill-rule="evenodd" clip-rule="evenodd" d="M122.776 152.755C125.663 155.091 128.372 157.637 130.882 160.372L139.159 169.399C138.655 169.752 138.24 170.218 137.949 170.761C136.654 172.836 138.902 174.941 138.968 178.454C139.035 181.968 134.854 182.377 132.863 180.435C130.872 178.492 132.377 178.073 129.787 175.826C127.196 173.579 124.072 174.427 123.119 172.703C122.167 170.98 122.31 171.37 124.5 167.942C126.691 164.514 122.291 164.438 122.224 161.467C122.148 158.553 122.333 155.637 122.776 152.755Z" fill="#60CA8E"/>
<path fill-rule="evenodd" clip-rule="evenodd" d="M93.2499 148.575C93.0785 150.043 93.1753 151.531 93.5356 152.965C94.65 156.373 102.032 153.802 95.5168 158.544C89.0019 163.286 85.3921 163.372 85.3921 163.372C85.3921 163.372 77.7724 164.705 77.3533 166.923C76.9342 169.142 68.7811 167.6 68.7811 170.142C68.7811 172.684 71.3052 178.388 72.6672 179.816C74.0292 181.244 82.3918 179.34 78.2581 185.301C74.1245 191.261 78.6105 194.413 80.2964 196.422C81.9823 198.431 86.4969 195.375 85.7064 190.414C84.9159 185.453 88.9924 177.15 90.0592 176.131C91.1259 175.112 81.2012 165.114 88.7543 164.438C96.3073 163.762 99.1933 162.105 99.1933 162.105C99.1933 162.105 101.098 154.612 102.813 156.516C103.698 157.526 104.346 157.011 105.213 156.364C107.209 158.418 108.879 160.765 110.166 163.324C110.347 163.667 110.509 164.019 110.67 164.381C109.042 164.543 107.594 164.991 108.489 167.638C110.099 172.399 112.623 172.246 109.956 173.855C107.289 175.465 103.089 174.712 102.927 175.493C102.765 176.274 100.812 176.664 102.336 179.454C103.86 182.244 107.861 181.958 108.927 186.662C109.88 191.118 104.594 190.89 108.356 194.47C107.651 195.803 106.873 197.117 106.022 198.412C105.165 197.774 104.318 197.46 103.46 198.126C100.098 200.507 102.689 201.697 97.2979 204.601C91.9069 207.505 91.0402 206.401 89.2781 208.248C87.5161 210.095 84.011 212.847 84.0015 214.913C83.992 216.98 77.5152 216.656 76.8675 219.236C76.2199 221.817 74.9626 220.188 75.4198 222.626C51.6082 232.081 26.8442 226.777 18.1863 209.572C8.84265 190.995 21.8533 165.581 47.2459 152.812C63.2854 144.709 80.4202 143.614 93.2499 148.575Z" fill="#A4D4B2"/>
<path fill-rule="evenodd" clip-rule="evenodd" d="M145.893 176.712L162.237 161.724L163.342 160.772C155.941 175.055 161.065 191.985 161.065 191.985C161.065 191.985 162.713 194.051 163.732 195.26C164.751 196.469 165.028 196.955 164.551 197.545C164.075 198.136 163.256 197.422 163.256 197.422L145.893 176.712Z" fill="#5D9CD4"/>
<path fill-rule="evenodd" clip-rule="evenodd" d="M199.459 329.974L136.749 387.448L109.242 357.464C110.442 354.531 115.261 343.038 117.966 340.61C121.071 337.83 119.024 336.145 119.024 336.145L110.699 328.813L120.319 326.804L196.859 323.738L199.459 329.974ZM82.4776 328.28C94.7644 322.69 138.806 300.666 151.055 295.096C160.058 290.907 167.919 284.609 173.971 276.738L209.06 233.338L201.926 232.633C201.926 232.633 198.859 205.401 193.954 206.62C189.049 207.838 189.325 204.972 189.325 204.972L190.211 192.423L181.572 195.936L174.447 233.414L46.5793 289.174L82.4776 328.28Z" fill="#5D9CD4"/>
<path fill-rule="evenodd" clip-rule="evenodd" d="M51.1607 294.125C50.8968 293.644 50.6921 293.132 50.5511 292.601C50.1796 291.287 50.4654 292.192 49.5986 291.821C49.405 291.749 49.1922 291.749 48.9986 291.821L46.5793 289.174L54.4657 285.736C54.8943 286.146 55.4182 286.688 55.9611 287.336C59.3614 291.335 53.2942 295.106 52.056 295.144L51.1607 294.125Z" fill="#74BDE9"/>
<path fill-rule="evenodd" clip-rule="evenodd" d="M61.0663 282.87V282.994C61.752 286.374 66.4667 284.898 66.4667 284.898C66.4667 284.898 66.2762 281.851 68.105 281.899C69.0598 281.948 70.0171 281.9 70.9623 281.756C70.9623 281.756 73.4483 280.29 73.4197 279.119C73.4197 278.385 74.5627 277.881 74.6008 276.976L61.0663 282.87Z" fill="#74BDE9"/>
<path fill-rule="evenodd" clip-rule="evenodd" d="M79.9631 277.033C78.9344 277.243 78.944 280.975 75.8485 282.565C72.753 284.156 70.9623 281.613 71.2195 285.527C71.4767 289.44 66.5524 290.421 66.5524 290.421C66.5524 290.421 65.8762 290.24 67.4192 291.525C68.9622 292.811 71.6481 286.079 74.5055 287.526C77.3629 288.974 76.7723 289.745 77.801 291.135C78.8297 292.525 83.3158 287.774 84.2778 288.326C85.2397 288.878 88.4305 284.07 89.2401 285.403C90.0497 286.736 91.145 288.326 93.3833 286.907C95.6216 285.489 98.5075 282.147 97.8027 280.785C97.0979 279.423 91.2402 272.615 90.0306 275.634C88.821 278.652 84.7349 282.147 84.1349 280.242C83.5348 278.338 82.23 275.605 79.9631 277.033Z" fill="#74BDE9"/>
<path fill-rule="evenodd" clip-rule="evenodd" d="M66.2667 310.645L56.5706 300.067L56.9897 300.19C56.9897 300.19 61.3139 303.59 67.9145 301.4C74.5151 299.21 70.7719 295.477 76.1533 297.8C81.5347 300.124 84.3254 300.2 84.3254 300.2C84.3254 300.2 86.659 294.82 87.7733 297.153C88.8877 299.486 91.0784 305.027 89.2687 305.608C87.459 306.189 87.3638 306.637 83.2777 305.542C79.1916 304.447 75.8866 298.476 73.6769 302.885C71.4672 307.294 70.6385 307.455 69.867 308.903C69.486 309.56 67.9907 310.283 66.2667 310.645Z" fill="#74BDE9"/>
<path fill-rule="evenodd" clip-rule="evenodd" d="M136.749 387.448L109.242 357.464C110.442 354.531 115.261 343.038 117.966 340.61C121.071 337.83 119.024 336.144 119.024 336.144L110.699 328.813L120.319 326.804L137.987 326.099L138.301 327.232C139.873 332.888 146.369 335.421 146.369 335.421C146.369 335.421 157.284 334.469 171.466 326.489C172.837 325.666 174.31 325.026 175.848 324.585L178.153 324.49C182.62 325.671 178.753 336.535 182.743 340.001C183.769 340.841 184.581 341.911 185.115 343.124L136.749 387.448ZM82.4586 328.279L71.7529 316.606C73.8578 313.587 77.801 310.893 79.1631 310.598C83.9825 309.093 83.4587 310.693 87.0685 311.664C90.6783 312.635 93.4405 313.568 95.6883 309.921C97.9361 306.275 106.613 305.894 106.785 308.846C107.128 311.185 107.725 313.481 108.566 315.692C97.498 321.119 87.4209 326.032 82.4776 328.279H82.4586Z" fill="#74BDE9"/>
<path fill-rule="evenodd" clip-rule="evenodd" d="M151.626 232.567C151.626 232.567 159.084 227.634 162.018 224.949C164.951 222.264 167.999 211.619 169.047 209.848C170.095 208.077 184.344 189.043 186.515 185.9C188.687 182.758 191.754 189.966 189.449 196.374C187.144 202.782 183.639 209.048 183.42 210.8C183.395 210.897 183.395 210.999 183.421 211.096C183.446 211.194 183.496 211.283 183.566 211.355C183.635 211.427 183.722 211.481 183.819 211.51C183.915 211.54 184.017 211.544 184.115 211.523C191.735 206.858 200.545 202.373 206.431 195.984C206.615 195.662 206.762 195.32 206.869 194.965C208.536 190.442 211.413 186.015 216.222 186.015C217.375 186.015 218.175 186.491 217.87 187.795C217.565 189.1 216.318 193.689 216.318 193.689C216.318 193.689 218.546 193.413 219.327 194.26C220.109 195.108 219.261 196.993 218.423 199.897C218.423 199.897 219.813 199.726 220.08 201.468C220.347 203.211 219.889 203.563 218.004 210.99C218.7 211.95 219.104 213.091 219.166 214.275C219.27 216.237 216.499 225.359 212.355 230.043C208.212 234.728 196.326 244.593 193.259 245.897C190.192 247.202 174.724 248.858 165.142 253.391C165.18 253.353 152.026 244.859 151.626 232.567Z" fill="#F2BA95"/>
<path fill-rule="evenodd" clip-rule="evenodd" d="M165.38 319.977C165.38 319.977 156.808 323.176 152.846 323.947C148.883 324.718 139.121 321.919 137.054 321.71C134.987 321.5 111.061 321.767 107.213 321.652C103.365 321.538 107.403 328.318 113.985 330.27C120.567 332.222 127.739 333.126 129.282 333.955C129.369 333.993 129.445 334.053 129.504 334.127C129.563 334.202 129.603 334.29 129.621 334.383C129.639 334.477 129.634 334.573 129.606 334.664C129.578 334.756 129.529 334.839 129.463 334.907C121.138 338.335 112.261 342.8 103.575 343.781C103.205 343.733 102.841 343.647 102.489 343.524C97.8217 342.2 92.5165 341.896 89.6591 345.8C88.9829 346.752 88.8876 347.704 90.1258 348.199C91.364 348.694 95.8406 350.446 95.8406 350.446C95.8406 350.446 94.2976 352.084 94.5262 353.227C94.7548 354.369 96.7835 354.798 99.6409 355.836C99.5035 356.001 99.4014 356.193 99.3411 356.399C99.2808 356.605 99.2635 356.822 99.2903 357.035C99.3171 357.249 99.3874 357.454 99.4968 357.639C99.6063 357.824 99.7526 357.985 99.9267 358.111C101.193 359.359 101.746 359.206 108.889 362.091C109.258 363.229 109.946 364.237 110.87 364.996C112.404 366.233 121.462 369.414 127.729 368.804C133.996 368.195 149.074 364.443 151.903 362.739C154.731 361.034 161.665 351.751 171.038 346.676C171.028 346.742 175.162 327.604 165.38 319.977Z" fill="#F2BA95"/>
<path fill-rule="evenodd" clip-rule="evenodd" d="M21.2438 261.513C18.5769 276.167 22.5106 295.687 32.359 307.332C54.1038 334.678 95.7169 311.693 108.899 301.619C122.081 291.545 147.207 292.678 157.256 284.822C167.304 276.967 164.475 261.437 164.475 261.437C164.475 261.437 174.847 254.295 176.095 253.048C177.343 251.801 176.581 249.477 176.581 249.477C165.609 240.422 161.494 225.673 161.494 225.673C160.313 223.607 158.637 224.197 158.637 224.197L145.197 230.301C129.958 225.597 120.605 233.89 105.194 244.088C89.783 254.286 78.3439 256.333 59.1899 260.275C40.0359 264.217 34.6735 276.215 34.6735 276.215L21.2438 261.513Z" fill="#138175"/>
<path fill-rule="evenodd" clip-rule="evenodd" d="M27.2633 299.695C28.6846 302.409 30.3929 304.963 32.359 307.313C54.1037 334.659 95.7168 311.674 108.899 301.6C122.081 291.526 147.207 292.659 157.255 284.803C167.304 276.948 164.475 261.418 164.475 261.418C164.475 261.418 174.847 254.276 176.095 253.029C177.343 251.782 176.581 249.458 176.581 249.458C173.926 247.229 171.566 244.669 169.561 241.841C169.653 242.355 169.602 242.884 169.414 243.37C169.225 243.857 168.908 244.283 168.494 244.602C167.085 245.469 154.95 254.124 154.95 254.124C155.702 257.555 155.251 261.139 153.673 264.277C152.095 267.415 149.486 269.915 146.283 271.358C134.663 277.167 115.804 274.024 85.2111 289.45C54.618 304.875 39.6643 313.502 27.2633 299.695Z" fill="#034B3E"/>
<path fill-rule="evenodd" clip-rule="evenodd" d="M164.466 261.475C164.466 261.475 174.838 254.333 176.086 253.086C177.333 251.839 176.571 249.515 176.571 249.515C165.599 240.46 161.484 225.711 161.484 225.711C160.303 223.645 158.627 224.235 158.627 224.235L145.188 230.339C145.188 230.339 146.102 252.077 164.466 261.475Z" fill="white"/>
<path fill-rule="evenodd" clip-rule="evenodd" d="M164.466 261.475C164.466 261.475 174.838 254.333 176.086 253.086C177.333 251.839 176.571 249.515 176.571 249.515C173.916 247.286 171.557 244.726 169.552 241.898C169.643 242.412 169.592 242.941 169.404 243.428C169.216 243.914 168.898 244.34 168.485 244.659C167.133 245.488 155.951 253.476 155.008 254.181C157.681 257.178 160.888 259.651 164.466 261.475Z" fill="#BDCEE8"/>
<path fill-rule="evenodd" clip-rule="evenodd" d="M278.142 252.372C286.648 260.694 293.467 272.034 295.115 282.975C301.344 317.349 260.188 332.65 243.939 335.945C224.156 339.944 213.232 368.052 185.572 346.704C185.572 346.704 173.724 350.046 171.952 350.161C170.18 350.275 168.952 348.171 168.952 348.171C169.38 333.945 160.98 321.119 160.98 321.119C160.199 318.872 161.723 318.025 161.723 318.025L176.857 311.188C183.353 296.639 194.087 295.82 211.908 290.983C229.728 286.146 226.395 283.956 241.977 272.149C257.559 260.342 270.132 264.227 270.132 264.227C273.181 260.545 275.864 256.574 278.142 252.372Z" fill="#138175"/>
<path fill-rule="evenodd" clip-rule="evenodd" d="M294.22 299.962C287.133 322.538 257.226 333.288 243.949 335.945C224.166 339.944 213.241 368.052 185.582 346.704C185.582 346.704 173.733 350.046 171.961 350.161C170.19 350.275 168.961 348.171 168.961 348.171C169.052 344.856 168.732 341.542 168.009 338.306C168.3 338.786 168.727 339.169 169.235 339.408C169.743 339.646 170.311 339.73 170.866 339.648C173.066 339.563 187.782 335.487 187.782 335.487C187.782 335.487 200.697 343.962 218.127 335.326C235.557 326.689 246.13 316.91 269.151 310.997C282.133 307.655 289.914 304.227 294.22 299.962Z" fill="#034B3E"/>
<path fill-rule="evenodd" clip-rule="evenodd" d="M185.582 346.704C185.582 346.704 173.733 350.046 171.961 350.161C170.19 350.275 168.961 348.171 168.961 348.171C169.39 333.945 160.989 321.119 160.989 321.119C160.208 318.872 161.732 318.025 161.732 318.025L176.867 311.188C176.867 311.188 193.935 323.604 185.582 346.704Z" fill="white"/>
<path fill-rule="evenodd" clip-rule="evenodd" d="M185.582 346.704C185.582 346.704 173.733 350.046 171.961 350.161C170.19 350.275 168.961 348.171 168.961 348.171C169.052 344.856 168.732 341.542 168.009 338.306C168.3 338.786 168.727 339.169 169.235 339.408C169.743 339.646 170.311 339.73 170.866 339.649C173.066 339.563 187.782 335.488 187.782 335.488L187.887 335.554C187.695 339.367 186.918 343.128 185.582 346.704Z" fill="#BDCEE8"/>
<path fill-rule="evenodd" clip-rule="evenodd" d="M269.827 265.083C269.679 265.074 269.535 265.031 269.407 264.956C269.279 264.881 269.17 264.778 269.089 264.654C269.008 264.53 268.957 264.388 268.94 264.241C268.924 264.094 268.941 263.945 268.992 263.805C269.044 263.666 269.126 263.541 269.234 263.439C269.342 263.338 269.473 263.263 269.615 263.221C269.757 263.178 269.907 263.17 270.053 263.196C270.199 263.221 270.337 263.281 270.456 263.37C270.456 263.37 277.837 266.074 283.581 265.274C283.783 265.306 283.97 265.403 284.113 265.55C284.255 265.697 284.347 265.887 284.374 266.09C284.401 266.293 284.361 266.499 284.261 266.678C284.161 266.857 284.006 266.999 283.819 267.083C277.628 267.892 269.846 265.045 269.827 265.036V265.083ZM231.519 342.638C231.331 342.72 231.121 342.738 230.921 342.69C230.722 342.643 230.543 342.532 230.411 342.375C230.28 342.218 230.202 342.022 230.191 341.817C230.179 341.613 230.234 341.41 230.347 341.239L259.874 316.482C259.956 316.358 260.065 316.256 260.194 316.182C260.323 316.108 260.467 316.065 260.615 316.057C260.763 316.048 260.911 316.075 261.047 316.134C261.183 316.193 261.303 316.283 261.399 316.396C261.494 316.51 261.561 316.644 261.595 316.789C261.629 316.933 261.629 317.083 261.595 317.228C261.561 317.372 261.493 317.506 261.398 317.62C261.302 317.733 261.182 317.823 261.045 317.882L231.519 342.638ZM176.276 311.883C176.099 311.722 175.989 311.501 175.968 311.263C175.947 311.024 176.016 310.787 176.162 310.598C176.324 310.419 176.548 310.309 176.789 310.29C177.029 310.271 177.268 310.343 177.457 310.493C177.505 310.493 194.668 324.776 186.439 347.018C186.316 347.183 186.144 347.304 185.947 347.362C185.75 347.421 185.54 347.414 185.347 347.344C185.154 347.273 184.99 347.142 184.878 346.97C184.765 346.798 184.712 346.595 184.724 346.39C192.516 325.375 176.324 311.921 176.276 311.883Z" fill="#034B3E"/>
<path fill-rule="evenodd" clip-rule="evenodd" d="M183.667 210.666C183.871 210.678 184.066 210.755 184.223 210.886C184.38 211.017 184.49 211.195 184.538 211.393C184.586 211.592 184.569 211.8 184.49 211.988C184.41 212.176 184.272 212.334 184.096 212.438L179.229 213.609C179.026 213.595 178.832 213.517 178.677 213.385C178.521 213.254 178.412 213.076 178.365 212.878C178.318 212.68 178.336 212.472 178.416 212.285C178.496 212.097 178.634 211.941 178.81 211.838L183.667 210.666ZM130.206 335.459C130.125 335.584 130.016 335.687 129.888 335.763C129.76 335.838 129.616 335.882 129.468 335.891C129.319 335.901 129.171 335.876 129.034 335.818C128.898 335.76 128.776 335.671 128.68 335.557C128.584 335.444 128.516 335.31 128.481 335.166C128.446 335.022 128.445 334.871 128.478 334.727C128.512 334.582 128.578 334.447 128.673 334.333C128.768 334.219 128.888 334.128 129.024 334.069L132.834 330.812C133.023 330.727 133.234 330.706 133.436 330.752C133.638 330.798 133.82 330.909 133.953 331.067C134.086 331.225 134.165 331.422 134.176 331.629C134.187 331.836 134.131 332.04 134.015 332.212L130.206 335.459ZM108.566 363.015C108.4 362.892 108.279 362.719 108.22 362.521C108.162 362.323 108.169 362.112 108.241 361.919C108.313 361.725 108.446 361.561 108.619 361.449C108.793 361.338 108.998 361.286 109.204 361.301C111.28 362.102 113.431 362.699 115.623 363.082C118.119 363.367 127.882 361.13 127.91 361.12C128.039 361.048 128.183 361.006 128.331 360.999C128.479 360.992 128.627 361.02 128.762 361.079C128.897 361.139 129.017 361.23 129.111 361.344C129.205 361.458 129.272 361.593 129.305 361.737C129.338 361.881 129.337 362.031 129.302 362.175C129.267 362.319 129.199 362.452 129.104 362.565C129.008 362.678 128.887 362.767 128.751 362.826C128.615 362.884 128.467 362.91 128.32 362.901C128.32 362.901 118.214 365.215 115.423 364.891C113.081 364.48 110.784 363.843 108.566 362.986V363.015ZM99.4124 356.788C99.1831 356.723 98.9864 356.574 98.8612 356.372C98.736 356.169 98.6914 355.927 98.7362 355.693C98.8011 355.462 98.951 355.263 99.1559 355.138C99.3608 355.013 99.6055 354.969 99.841 355.017C99.841 355.017 106.175 356.578 108.023 357.073C108.891 357.288 109.788 357.365 110.68 357.302C111.588 357.251 112.491 357.143 113.385 356.978C116.442 356.464 123.205 354.988 123.233 354.979C123.438 354.998 123.63 355.083 123.782 355.221C123.933 355.359 124.037 355.541 124.076 355.742C124.116 355.944 124.09 356.152 124.001 356.337C123.913 356.522 123.767 356.673 123.586 356.769C123.586 356.769 114.061 358.673 113.69 358.778C112.722 358.947 111.746 359.065 110.766 359.13C109.684 359.198 108.598 359.098 107.546 358.835C105.584 358.311 99.4315 356.797 99.4124 356.788ZM95.6026 351.389C95.4548 351.388 95.3092 351.352 95.1775 351.285C95.0458 351.218 94.9315 351.121 94.8437 351.003C94.7558 350.884 94.6969 350.746 94.6714 350.601C94.646 350.455 94.6548 350.306 94.6971 350.164C94.7394 350.022 94.8141 349.893 94.9153 349.785C95.0165 349.677 95.1413 349.595 95.28 349.543C95.4187 349.492 95.5673 349.474 95.7142 349.49C95.8611 349.507 96.0023 349.557 96.1264 349.637L102.679 351.589C103.948 351.79 105.245 351.729 106.489 351.408C108.518 350.77 123.91 347.856 123.957 347.847C124.089 347.778 124.236 347.741 124.385 347.739C124.534 347.737 124.681 347.769 124.815 347.835C124.949 347.9 125.066 347.995 125.156 348.114C125.246 348.232 125.307 348.37 125.335 348.517C125.362 348.663 125.354 348.814 125.313 348.957C125.271 349.1 125.197 349.231 125.095 349.34C124.994 349.449 124.868 349.532 124.728 349.584C124.589 349.636 124.439 349.654 124.291 349.637C124.243 349.637 108.956 352.551 107.023 353.141C105.507 353.544 103.924 353.629 102.375 353.388H102.232L95.5644 351.408L95.6026 351.389ZM217.127 210.733C217.124 210.584 217.156 210.437 217.22 210.302C217.284 210.168 217.379 210.05 217.496 209.959C217.614 209.868 217.752 209.806 217.898 209.777C218.044 209.749 218.195 209.755 218.339 209.796C218.482 209.836 218.614 209.91 218.724 210.01C218.833 210.111 218.918 210.236 218.971 210.376C219.023 210.515 219.042 210.665 219.027 210.813C219.011 210.961 218.961 211.103 218.88 211.228C218.262 213.505 217.419 215.716 216.365 217.827C214.975 220.255 207.212 226.977 207.193 226.996C207.115 227.124 207.008 227.231 206.88 227.31C206.753 227.388 206.609 227.436 206.46 227.448C206.31 227.46 206.16 227.437 206.022 227.381C205.883 227.324 205.76 227.236 205.662 227.123C205.563 227.01 205.493 226.876 205.457 226.731C205.421 226.585 205.419 226.434 205.452 226.288C205.485 226.142 205.552 226.006 205.648 225.891C205.744 225.776 205.865 225.685 206.003 225.625C206.003 225.625 213.546 219.084 214.784 216.922C215.764 214.94 216.549 212.867 217.127 210.733ZM217.575 199.545C217.575 199.545 215.099 205.563 214.432 207.296C214.09 208.12 213.624 208.888 213.051 209.571C212.473 210.264 211.856 210.922 211.203 211.542C209.955 212.761 203.85 218.208 203.831 218.255C203.694 218.316 203.574 218.409 203.479 218.526C203.385 218.642 203.319 218.779 203.288 218.926C203.257 219.072 203.261 219.224 203.299 219.369C203.338 219.514 203.41 219.648 203.51 219.759C203.61 219.871 203.735 219.958 203.874 220.012C204.014 220.066 204.165 220.087 204.314 220.072C204.463 220.057 204.606 220.008 204.733 219.927C204.859 219.846 204.965 219.737 205.041 219.607C205.041 219.607 211.241 214.047 212.47 212.847C213.181 212.179 213.849 211.467 214.47 210.714C215.163 209.885 215.722 208.954 216.127 207.953C216.87 206.048 219.261 200.24 219.27 200.221C219.349 199.997 219.34 199.751 219.247 199.533C219.154 199.314 218.982 199.139 218.766 199.04C218.54 198.959 218.292 198.966 218.071 199.06C217.851 199.153 217.673 199.327 217.575 199.545ZM215.46 193.375L213.175 199.812C212.593 200.933 211.786 201.922 210.803 202.716C209.098 203.982 197.735 214.599 197.697 214.637C197.564 214.703 197.449 214.8 197.36 214.918C197.272 215.037 197.212 215.175 197.186 215.321C197.159 215.466 197.168 215.616 197.21 215.759C197.252 215.901 197.326 216.031 197.428 216.139C197.529 216.247 197.654 216.331 197.793 216.382C197.932 216.433 198.081 216.451 198.229 216.435C198.376 216.419 198.517 216.368 198.642 216.287C198.766 216.207 198.87 216.098 198.945 215.97C198.945 215.97 210.289 205.372 211.889 204.182C213.095 203.214 214.084 202.004 214.794 200.63C214.828 200.576 214.857 200.519 214.88 200.459L217.184 193.984C217.271 193.864 217.328 193.726 217.352 193.58C217.375 193.434 217.365 193.285 217.32 193.143C217.276 193.002 217.2 192.873 217.097 192.767C216.994 192.661 216.868 192.58 216.729 192.53C216.59 192.481 216.441 192.465 216.294 192.483C216.147 192.501 216.007 192.554 215.883 192.635C215.76 192.717 215.658 192.827 215.585 192.955C215.511 193.084 215.469 193.227 215.46 193.375Z" fill="#EE8B83"/>
<path fill-rule="evenodd" clip-rule="evenodd" d="M34.7211 276.205L24.8727 265.474C25.1108 265.741 34.5211 276.71 29.1016 284.622C31.9114 281.842 34.7211 276.205 34.7211 276.205ZM119.662 295.41L84.2111 301.381C84.5444 301.333 95.0215 299.781 98.6314 308.37C102.191 306.371 105.617 304.144 108.889 301.704C112.389 299.188 116.275 297.259 120.395 295.991C122.3 295.372 124.205 294.83 126.167 294.325L119.662 295.41Z" fill="#2B5250"/>
<path fill-rule="evenodd" clip-rule="evenodd" d="M276.713 254.895C274.772 258.174 272.574 261.294 270.141 264.227C273.909 265.553 277.863 266.273 281.857 266.359C273.38 262.237 276.075 256.105 276.713 254.933V254.895ZM259.14 318.263L230.938 341.943C234.995 339.239 239.224 336.906 243.949 335.954C247.222 335.269 250.453 334.394 253.626 333.336C252.149 325.147 259.14 318.263 259.14 318.263Z" fill="#2B5250"/>
<path fill-rule="evenodd" clip-rule="evenodd" d="M218.023 107.431C187.763 98.5095 174.209 36.199 140.34 39.722C188.544 25.5631 211.651 101.071 232.729 80.9894C231.157 91.0539 225.842 102.271 218.023 107.431Z" fill="#2B5250"/>
<path fill-rule="evenodd" clip-rule="evenodd" d="M105.784 96.2147C105.492 96.1844 105.198 96.2413 104.938 96.3782C104.678 96.515 104.465 96.7257 104.325 96.9837C104.185 97.2416 104.125 97.5353 104.151 97.8275C104.178 98.1198 104.291 98.3976 104.475 98.6258C104.66 98.8541 104.908 99.0226 105.188 99.1101C105.468 99.1975 105.768 99.2001 106.05 99.1173C106.332 99.0346 106.582 98.8703 106.771 98.6452C106.959 98.4201 107.077 98.1442 107.108 97.8525C107.129 97.6579 107.112 97.4612 107.057 97.2734C107.001 97.0857 106.91 96.9107 106.787 96.7585C106.664 96.6064 106.512 96.48 106.34 96.3866C106.168 96.2933 105.979 96.2349 105.784 96.2147Z" fill="white"/>
<path fill-rule="evenodd" clip-rule="evenodd" d="M105.784 113.963C105.49 113.931 105.193 113.987 104.931 114.123C104.669 114.26 104.453 114.471 104.31 114.731C104.168 114.99 104.106 115.286 104.132 115.58C104.158 115.875 104.271 116.155 104.456 116.386C104.641 116.616 104.891 116.787 105.173 116.875C105.455 116.964 105.757 116.967 106.041 116.884C106.325 116.801 106.578 116.636 106.768 116.409C106.958 116.183 107.076 115.905 107.108 115.611C107.131 115.415 107.114 115.218 107.06 115.029C107.005 114.84 106.914 114.664 106.791 114.51C106.667 114.357 106.515 114.23 106.342 114.136C106.17 114.042 105.98 113.983 105.784 113.963Z" fill="white"/>
<path fill-rule="evenodd" clip-rule="evenodd" d="M105.184 119.438C105.974 119.526 106.772 119.377 107.478 119.011C108.183 118.644 108.763 118.076 109.145 117.38C109.526 116.683 109.692 115.888 109.621 115.097C109.551 114.305 109.246 113.553 108.747 112.935C108.421 112.523 108.017 112.181 107.557 111.927C107.098 111.674 106.592 111.515 106.07 111.459V115.449C106.07 115.567 106.023 115.681 105.939 115.765C105.855 115.849 105.741 115.896 105.623 115.896C105.504 115.896 105.39 115.849 105.306 115.765C105.222 115.681 105.175 115.567 105.175 115.449V111.459C104.419 111.543 103.702 111.84 103.108 112.316C102.279 112.984 101.749 113.954 101.633 115.012C101.517 116.07 101.825 117.13 102.489 117.962C103.157 118.791 104.126 119.322 105.184 119.438ZM108.689 119.267C108.093 119.747 107.392 120.081 106.644 120.242C105.895 120.403 105.119 120.387 104.377 120.194C103.636 120.001 102.95 119.638 102.375 119.132C101.799 118.627 101.35 117.994 101.064 117.284C100.777 116.574 100.661 115.807 100.724 115.044C100.787 114.281 101.028 113.543 101.428 112.89C101.827 112.236 102.374 111.686 103.025 111.282C103.676 110.878 104.412 110.632 105.175 110.564V97.6906C105.175 97.5719 105.222 97.4581 105.306 97.3741C105.39 97.2902 105.504 97.243 105.623 97.243C105.741 97.243 105.855 97.2902 105.939 97.3741C106.023 97.4581 106.07 97.5719 106.07 97.6906V110.564H106.146C106.787 110.633 107.408 110.827 107.973 111.136C108.539 111.445 109.038 111.862 109.442 112.364C110.254 113.379 110.631 114.674 110.49 115.966C110.349 117.258 109.701 118.441 108.689 119.257V119.267Z" fill="white"/>
<path fill-rule="evenodd" clip-rule="evenodd" d="M105.784 103.908C105.49 103.876 105.193 103.932 104.931 104.069C104.669 104.205 104.453 104.416 104.31 104.676C104.168 104.935 104.106 105.231 104.132 105.525C104.158 105.82 104.271 106.1 104.456 106.331C104.641 106.561 104.891 106.732 105.173 106.82C105.455 106.909 105.757 106.912 106.041 106.829C106.325 106.746 106.578 106.581 106.768 106.354C106.958 106.128 107.076 105.85 107.108 105.556C107.151 105.162 107.036 104.767 106.787 104.458C106.539 104.149 106.178 103.951 105.784 103.908Z" fill="white"/>
<path fill-rule="evenodd" clip-rule="evenodd" d="M200.621 114.001C200.329 113.971 200.035 114.028 199.775 114.165C199.515 114.302 199.302 114.512 199.162 114.77C199.022 115.028 198.961 115.322 198.988 115.614C199.015 115.907 199.128 116.184 199.312 116.413C199.497 116.641 199.745 116.809 200.025 116.897C200.305 116.984 200.605 116.987 200.887 116.904C201.168 116.821 201.419 116.657 201.608 116.432C201.796 116.207 201.913 115.931 201.945 115.639C201.966 115.445 201.949 115.248 201.893 115.06C201.838 114.872 201.747 114.697 201.624 114.545C201.5 114.393 201.349 114.267 201.177 114.173C201.005 114.08 200.816 114.022 200.621 114.001Z" fill="white"/>
<path fill-rule="evenodd" clip-rule="evenodd" d="M200.621 131.75C200.327 131.718 200.03 131.774 199.768 131.91C199.505 132.047 199.289 132.258 199.147 132.517C199.005 132.777 198.943 133.072 198.969 133.367C198.995 133.662 199.107 133.942 199.293 134.172C199.478 134.403 199.728 134.573 200.01 134.662C200.292 134.751 200.594 134.754 200.878 134.671C201.162 134.588 201.415 134.423 201.605 134.196C201.795 133.969 201.913 133.691 201.945 133.397C201.968 133.202 201.951 133.004 201.896 132.815C201.842 132.627 201.75 132.451 201.627 132.297C201.504 132.144 201.352 132.017 201.179 131.923C201.006 131.829 200.817 131.77 200.621 131.75Z" fill="white"/>
<path fill-rule="evenodd" clip-rule="evenodd" d="M200.021 137.225C201.054 137.293 202.072 136.96 202.865 136.295C203.659 135.631 204.165 134.687 204.279 133.659C204.393 132.631 204.106 131.598 203.478 130.776C202.85 129.954 201.929 129.406 200.907 129.246V133.235C200.907 133.354 200.86 133.468 200.776 133.552C200.692 133.636 200.578 133.683 200.459 133.683C200.341 133.683 200.227 133.636 200.143 133.552C200.059 133.468 200.012 133.354 200.012 133.235V129.246C199.255 129.33 198.538 129.627 197.945 130.103C197.532 130.431 197.188 130.838 196.935 131.301C196.681 131.764 196.523 132.273 196.468 132.797C196.41 133.321 196.456 133.852 196.603 134.358C196.75 134.864 196.996 135.337 197.326 135.748C197.656 136.159 198.064 136.501 198.526 136.755C198.989 137.008 199.497 137.168 200.021 137.225ZM203.526 137.054C202.77 137.659 201.851 138.027 200.886 138.111C199.921 138.195 198.952 137.992 198.103 137.527C197.253 137.061 196.56 136.355 196.112 135.496C195.663 134.637 195.479 133.665 195.583 132.702C195.702 131.576 196.209 130.526 197.017 129.733C197.825 128.939 198.883 128.45 200.012 128.351V115.449C200.012 115.33 200.059 115.216 200.143 115.132C200.227 115.048 200.341 115.001 200.459 115.001C200.578 115.001 200.692 115.048 200.776 115.132C200.86 115.216 200.907 115.33 200.907 115.449V128.322H200.983C201.949 128.423 202.863 128.81 203.609 129.432C204.355 130.054 204.899 130.884 205.172 131.816C205.445 132.748 205.434 133.74 205.141 134.666C204.848 135.592 204.286 136.41 203.526 137.015V137.054Z" fill="white"/>
<path fill-rule="evenodd" clip-rule="evenodd" d="M200.621 121.695C200.327 121.663 200.03 121.719 199.768 121.855C199.505 121.992 199.289 122.203 199.147 122.462C199.005 122.722 198.943 123.017 198.969 123.312C198.995 123.607 199.107 123.887 199.293 124.117C199.478 124.348 199.728 124.518 200.01 124.607C200.292 124.696 200.594 124.699 200.878 124.616C201.162 124.533 201.415 124.368 201.605 124.141C201.795 123.914 201.913 123.636 201.945 123.342C201.988 122.948 201.872 122.554 201.624 122.245C201.376 121.936 201.015 121.738 200.621 121.695Z" fill="white"/>
<path d="M144.969 150.965H144.883C140.789 150.233 136.931 148.529 133.634 145.995C128.672 141.938 115.823 125.218 115.28 124.514C110.893 116.438 108.869 107.291 109.442 98.1192L109.899 89.8257C109.906 89.7137 109.957 89.6091 110.041 89.5343C110.125 89.4595 110.235 89.4205 110.347 89.4258C110.459 89.4331 110.563 89.4841 110.638 89.5678C110.713 89.6515 110.752 89.7612 110.747 89.8733L110.299 98.1668C109.733 107.145 111.7 116.102 115.976 124.018C116.09 124.161 129.31 141.339 134.177 145.328C137.365 147.765 141.092 149.398 145.045 150.089C145.156 150.112 145.253 150.178 145.316 150.273C145.378 150.367 145.401 150.483 145.378 150.594C145.367 150.695 145.319 150.788 145.243 150.856C145.168 150.925 145.07 150.963 144.969 150.965Z" fill="white"/>
<path fill-rule="evenodd" clip-rule="evenodd" d="M144.302 230.339C144.353 230.139 144.468 229.961 144.629 229.832C144.79 229.703 144.989 229.63 145.195 229.623C145.401 229.617 145.604 229.677 145.773 229.796C145.941 229.915 146.067 230.085 146.131 230.281C146.131 230.348 146.617 251.382 164.885 260.665C165.03 260.693 165.168 260.753 165.286 260.843C165.404 260.932 165.499 261.048 165.564 261.181C165.63 261.313 165.664 261.459 165.663 261.608C165.662 261.756 165.626 261.901 165.559 262.033C165.492 262.165 165.395 262.28 165.276 262.368C165.157 262.455 165.019 262.514 164.873 262.54C164.727 262.565 164.577 262.556 164.435 262.513C164.294 262.47 164.164 262.395 164.056 262.294C144.826 252.562 144.302 230.405 144.302 230.339ZM126.015 293.392C126.252 293.363 126.491 293.424 126.685 293.564C126.879 293.703 127.014 293.91 127.062 294.144C127.091 294.381 127.03 294.62 126.891 294.814C126.751 295.008 126.544 295.143 126.31 295.191L80.0584 303.028C79.8212 303.057 79.5818 302.995 79.3878 302.856C79.1937 302.717 79.0591 302.509 79.0107 302.276C78.9818 302.038 79.0432 301.799 79.1826 301.605C79.3219 301.411 79.5292 301.277 79.7631 301.228L126.015 293.43V293.392ZM33.9116 275.796C34.0319 275.588 34.2263 275.433 34.4559 275.362C34.6855 275.292 34.9334 275.31 35.1498 275.415C35.358 275.53 35.5156 275.719 35.5914 275.944C35.6672 276.17 35.6558 276.416 35.5593 276.633C35.5593 276.633 32.4734 282.813 29.4445 285.593C29.2605 285.68 29.0534 285.706 28.8537 285.667C28.654 285.628 28.4721 285.525 28.3347 285.375C28.1973 285.225 28.1116 285.035 28.0902 284.833C28.0688 284.63 28.1129 284.426 28.2158 284.251C30.978 281.67 33.902 275.815 33.9116 275.796Z" fill="#034B3E"/>
<path fill-rule="evenodd" clip-rule="evenodd" d="M229.166 343.143C224.909 346.095 220.766 349.304 216.327 351.57C227.385 325.861 213.279 304.437 203.059 293.287C205.803 292.582 208.774 291.849 211.917 290.983L213.537 290.535C223.061 302.199 233.538 320.776 229.166 343.143ZM210.346 353.903C217.965 328.794 206.212 307.893 195.773 295.315C192.513 296.271 189.393 297.654 186.496 299.429C196.259 310.407 208.708 330.289 199.973 354.074C203.394 354.857 206.953 354.798 210.346 353.903Z" fill="white"/>
<path fill-rule="evenodd" clip-rule="evenodd" d="M229.166 343.143C224.909 346.095 220.766 349.304 216.327 351.57C218.743 346.081 220.101 340.185 220.327 334.193C223.775 332.412 226.995 330.593 230.071 328.784C230.408 333.589 230.104 338.418 229.166 343.143ZM210.346 353.903C206.953 354.798 203.394 354.857 199.973 354.074C201.751 349.311 202.745 344.292 202.916 339.211C206.271 339.137 209.597 338.566 212.784 337.516C212.798 343.069 211.976 348.594 210.346 353.903Z" fill="#ACC1DD"/>
<path fill-rule="evenodd" clip-rule="evenodd" d="M128.815 293.649C133.796 292.478 138.863 291.526 143.473 290.402C117.614 279.795 112.671 254.371 112.109 239.46C109.937 240.927 107.67 242.488 105.241 244.097C104.413 244.64 103.613 245.164 102.803 245.659C104.318 260.608 110.061 280.994 128.815 293.649ZM150.493 288.355C126.31 275.796 120.014 251.658 118.614 235.214C121.591 233.307 124.766 231.727 128.082 230.5C128.586 245.497 133.511 271.511 160.122 282.013C159.287 283.076 158.328 284.035 157.265 284.87C155.205 286.38 152.919 287.556 150.493 288.355Z" fill="white"/>
<path fill-rule="evenodd" clip-rule="evenodd" d="M128.815 293.649C133.796 292.478 138.863 291.525 143.473 290.402C136.105 287.467 129.605 282.706 124.586 276.567C121.329 277.147 117.804 277.852 113.995 278.785C117.925 284.652 122.959 289.7 128.815 293.649ZM150.493 288.355C144.07 285.055 138.358 280.525 133.682 275.024C137.396 274.467 141.044 273.532 144.569 272.234C149.071 276.472 154.353 279.796 160.122 282.023C159.287 283.085 158.328 284.044 157.265 284.879C155.204 286.386 152.919 287.559 150.493 288.355Z" fill="#ACC1DD"/>
<path fill-rule="evenodd" clip-rule="evenodd" d="M15.729 252.477C15.9349 252.775 16.0139 253.142 15.9487 253.498C15.8835 253.855 15.6795 254.17 15.3814 254.376C15.0833 254.582 14.7156 254.661 14.3593 254.596C14.0029 254.531 13.6871 254.327 13.4812 254.029C2.5554 238.206 -1.96172 218.83 0.840998 199.809C3.64371 180.788 13.5577 163.537 28.5832 151.536C43.6087 139.536 62.6277 133.678 81.8037 135.144C100.98 136.611 118.886 145.293 131.91 159.439C132.163 159.707 132.299 160.064 132.288 160.432C132.278 160.8 132.121 161.148 131.853 161.401C131.586 161.653 131.228 161.789 130.86 161.778C130.492 161.768 130.144 161.611 129.891 161.344C117.321 147.782 100.084 139.477 81.641 138.095C63.1984 136.713 44.9156 142.357 30.4635 153.894C16.0114 165.431 6.45996 182.006 3.72689 200.292C0.993822 218.578 5.28149 237.22 15.729 252.477ZM162.942 225.901C165.218 223.797 167.371 217.96 168.856 213.932C169.25 212.756 169.708 211.602 170.228 210.476C170.8 209.524 175.638 202.954 180.096 196.917C183.505 192.308 186.687 187.995 187.639 186.614C187.741 186.467 187.813 186.301 187.851 186.125C187.888 185.95 187.891 185.769 187.859 185.593C187.826 185.416 187.76 185.248 187.662 185.097C187.565 184.947 187.439 184.817 187.291 184.715C187.144 184.613 186.978 184.541 186.802 184.503C186.627 184.466 186.446 184.463 186.269 184.495C186.093 184.527 185.924 184.594 185.774 184.691C185.623 184.789 185.493 184.915 185.391 185.062C184.439 186.395 181.296 190.699 177.895 195.289C173.381 201.411 168.475 208.048 167.856 209.095C167.257 210.362 166.732 211.662 166.285 212.99C164.989 216.513 163.142 221.502 161.456 223.464C161.013 223.107 160.492 222.862 159.935 222.749C159.378 222.637 158.802 222.66 158.256 222.816L158.094 222.883L145.112 228.777C131.282 224.711 122.252 230.862 109.509 239.498C108.004 240.527 106.432 241.593 104.489 242.879C89.9449 252.524 78.8964 254.781 61.2758 258.38L58.9708 258.847C43.6457 261.989 36.7975 270.225 34.464 273.824L22.2534 260.494C22.0103 260.233 21.6746 260.078 21.3184 260.062C20.9623 260.046 20.614 260.17 20.3485 260.408C20.092 260.654 19.9401 260.989 19.9241 261.343C19.9081 261.698 20.0294 262.045 20.2628 262.313L33.7115 277.128C33.8365 277.262 33.985 277.372 34.1497 277.452C34.4809 277.601 34.8576 277.614 35.1981 277.488C35.5386 277.361 35.8155 277.105 35.9689 276.776C35.9689 276.776 41.0455 265.35 59.5137 261.598L61.8187 261.132C79.7726 257.466 91.0212 255.171 105.994 245.24C107.556 244.202 109.328 242.993 111.042 241.831C123.262 233.519 131.92 227.653 144.769 231.614C145.098 231.732 145.461 231.714 145.778 231.567L159.113 225.501C159.284 225.501 159.789 225.501 160.284 226.368C160.416 226.605 160.615 226.797 160.856 226.92C161.098 227.043 161.37 227.091 161.639 227.058C161.908 227.025 162.161 226.913 162.366 226.736C162.571 226.559 162.718 226.325 162.789 226.063C162.841 226.031 162.889 225.993 162.932 225.949L162.942 225.901ZM184.848 212.637C184.695 212.747 184.521 212.824 184.337 212.863C184.153 212.902 183.962 212.903 183.778 212.866C183.593 212.828 183.418 212.753 183.264 212.645C183.11 212.537 182.979 212.398 182.881 212.238C182.783 212.077 182.719 211.898 182.693 211.712C182.666 211.525 182.679 211.335 182.73 211.154C182.78 210.973 182.867 210.804 182.986 210.658C183.105 210.511 183.252 210.391 183.42 210.305C184.791 209.467 186.334 208.562 187.877 207.648C194.192 203.935 200.754 200.031 205.383 195.07L205.622 194.451C206.518 191.757 208.005 189.298 209.974 187.252C210.795 186.418 211.773 185.755 212.853 185.303C213.932 184.85 215.09 184.616 216.261 184.615C216.622 184.615 216.968 184.758 217.224 185.014C217.479 185.269 217.623 185.615 217.623 185.976C217.623 186.338 217.479 186.684 217.224 186.939C216.968 187.195 216.622 187.338 216.261 187.338C215.438 187.35 214.625 187.524 213.87 187.851C213.115 188.178 212.432 188.651 211.86 189.242C210.202 191.01 208.95 193.119 208.193 195.422C208.088 195.708 207.993 195.946 207.907 196.146C207.833 196.338 207.74 196.523 207.631 196.698L207.469 196.898C202.574 202.221 195.802 206.21 189.287 210.048C187.83 210.904 186.429 211.752 184.867 212.676L184.848 212.637ZM205.383 195.07L205.441 195.003L205.374 195.07H205.383ZM161.57 319.872C161.912 319.746 162.291 319.76 162.622 319.913C162.954 320.066 163.211 320.344 163.337 320.686C163.463 321.028 163.448 321.406 163.296 321.738C163.143 322.069 162.865 322.326 162.523 322.452C161.084 322.957 159.37 323.538 157.76 324.042C156.151 324.547 154.455 324.995 153.255 325.252C150.141 325.861 144.064 324.518 140.121 323.642C138.702 323.338 137.578 323.081 137.063 323.033C135.939 322.909 127.729 322.947 120.167 322.985C114.395 322.985 108.994 323.033 107.327 322.985C106.984 322.949 106.667 322.784 106.44 322.524C106.213 322.265 106.092 321.929 106.102 321.584C106.112 321.239 106.251 320.91 106.492 320.664C106.733 320.417 107.059 320.27 107.404 320.253C109.061 320.3 114.423 320.253 120.157 320.253C127.777 320.253 136.111 320.186 137.301 320.31C137.94 320.376 139.149 320.643 140.673 320.976C144.388 321.805 150.112 323.062 152.693 322.566C153.827 322.338 155.341 321.919 156.922 321.433C158.503 320.948 160.218 320.367 161.618 319.872H161.57ZM129.005 333.64C129.171 333.572 129.349 333.537 129.528 333.538C129.707 333.538 129.884 333.574 130.05 333.643C130.215 333.712 130.365 333.813 130.492 333.94C130.618 334.067 130.718 334.217 130.787 334.383C130.855 334.549 130.89 334.726 130.889 334.905C130.889 335.084 130.853 335.262 130.784 335.427C130.715 335.592 130.614 335.743 130.487 335.869C130.36 335.995 130.209 336.095 130.044 336.164C128.672 336.735 126.977 337.459 125.281 338.201C118.3 341.201 111.051 344.324 103.813 345.133C103.521 345.157 103.227 345.128 102.946 345.047H102.889L102.194 344.866C99.8694 344.113 97.4088 343.876 94.9835 344.171C93.3326 344.413 91.8438 345.296 90.8402 346.628C90.7339 346.772 90.6002 346.895 90.4467 346.987C90.2932 347.08 90.1229 347.142 89.9456 347.169C89.7682 347.196 89.5873 347.187 89.4132 347.144C89.239 347.102 89.075 347.025 88.9305 346.918C88.7861 346.812 88.664 346.678 88.5712 346.525C88.4784 346.371 88.4168 346.201 88.3898 346.024C88.3628 345.847 88.371 345.666 88.414 345.492C88.4569 345.318 88.5337 345.154 88.6401 345.009C89.3386 344.063 90.2174 343.263 91.2259 342.657C92.2344 342.051 93.3528 341.65 94.5168 341.477C97.3445 341.104 100.22 341.361 102.937 342.229L103.546 342.4C110.347 341.62 117.385 338.592 124.167 335.668C125.691 335.011 127.196 334.364 128.977 333.631L129.005 333.64ZM211.689 64.1548C211.517 64.2042 211.337 64.2192 211.159 64.199C210.981 64.1789 210.809 64.1239 210.652 64.0373C210.496 63.9506 210.358 63.834 210.247 63.694C210.135 63.5541 210.052 63.3936 210.003 63.2216C209.953 63.0497 209.938 62.8697 209.959 62.692C209.979 62.5142 210.034 62.3422 210.12 62.1857C210.207 62.0292 210.324 61.8913 210.464 61.7799C210.604 61.6684 210.764 61.5857 210.936 61.5363C212.079 61.1935 213.27 60.8983 214.489 60.6508C218.356 59.87 222.413 59.6986 225.852 60.7269C227.738 61.2443 229.454 62.2501 230.827 63.6427C232.2 65.0354 233.181 66.7656 233.672 68.6586C233.786 69.068 233.891 69.5155 233.986 69.9726C235.405 77.0187 233.71 86.9023 229.671 95.2148C226.109 102.547 220.718 108.736 213.975 110.878C209.212 112.373 203.907 111.887 198.164 108.422C193.278 105.489 188.077 100.366 182.686 92.4345C180.781 89.6446 179.172 87.207 177.581 84.817C166.266 67.8302 156.265 52.8239 146.969 54.3473C146.611 54.4067 146.245 54.3216 145.95 54.1109C145.656 53.9002 145.457 53.5811 145.397 53.2238C145.338 52.8664 145.423 52.5002 145.634 52.2055C145.845 51.9109 146.164 51.712 146.521 51.6527C157.56 49.7483 168.018 65.4878 179.857 83.265C181.61 85.893 183.391 88.5591 184.953 90.8824C190.096 98.4998 195.002 103.261 199.573 106.06C204.574 109.06 209.098 109.507 213.146 108.241C219.099 106.336 223.947 100.718 227.204 94.0151C231.014 86.1882 232.614 76.9806 231.309 70.4868C231.233 70.1154 231.148 69.7536 231.043 69.4013C230.671 67.9507 229.922 66.6244 228.872 65.5573C227.821 64.4902 226.506 63.7204 225.061 63.3264C222.118 62.4313 218.508 62.6218 215.022 63.3264C213.898 63.5549 212.775 63.8406 211.689 64.1548Z" fill="white"/>
<path fill-rule="evenodd" clip-rule="evenodd" d="M88.0971 72.7436L90.0973 80.0373C90.1535 80.2744 90.1168 80.524 89.9945 80.7348C89.8723 80.9455 89.6738 81.1014 89.4401 81.1704C89.2749 81.2158 89.1005 81.2158 88.9353 81.1704L81.3822 79.0851C79.042 80.6034 76.4677 81.7262 73.7625 82.4082C70.9177 83.1121 67.9735 83.3246 65.057 83.0367H64.9808C58.2947 82.3536 52.1521 79.0485 47.8994 73.8457C43.6466 68.643 41.6306 61.9669 42.2932 55.2807V55.195C42.9881 48.5126 46.3025 42.3775 51.5112 38.1322C56.7199 33.8869 63.3987 31.8771 70.086 32.5426H70.1717C76.8572 33.2349 82.9956 36.5477 87.2427 41.7555C91.4897 46.9632 93.4992 53.6413 92.8308 60.3272C92.5927 62.6115 92.0481 64.8534 91.2117 66.9925C90.4287 69.037 89.3816 70.9705 88.0971 72.7436Z" fill="#DCE0EA"/>
<path fill-rule="evenodd" clip-rule="evenodd" d="M275.97 156.202L274.742 160.687C274.715 160.787 274.715 160.892 274.741 160.993C274.768 161.093 274.821 161.184 274.894 161.258C274.968 161.331 275.059 161.384 275.16 161.411C275.26 161.438 275.365 161.437 275.466 161.41L280.114 160.115C281.557 161.054 283.148 161.746 284.819 162.163C286.571 162.6 288.385 162.732 290.181 162.553H290.229C294.351 162.125 298.136 160.081 300.753 156.868C303.371 153.655 304.607 149.536 304.192 145.414C304.196 145.395 304.196 145.375 304.192 145.357C303.764 141.235 301.719 137.452 298.505 134.835C295.292 132.219 291.171 130.982 287.048 131.398H287C282.875 131.821 279.088 133.864 276.469 137.078C273.851 140.291 272.616 144.413 273.037 148.537C273.184 149.95 273.52 151.337 274.037 152.66C274.524 153.92 275.174 155.111 275.97 156.202Z" fill="#DCE0EA"/>
<path fill-rule="evenodd" clip-rule="evenodd" d="M85.1159 71.5342L87.116 78.8184C87.1506 78.9403 87.1604 79.0679 87.145 79.1937C87.1295 79.3194 87.0891 79.4408 87.0261 79.5508C86.9632 79.6608 86.8789 79.7571 86.7782 79.834C86.6775 79.911 86.5625 79.9671 86.4398 79.9991C86.2743 80.0418 86.1006 80.0418 85.935 79.9991L78.382 77.9043C73.5472 81.0453 67.7836 82.4396 62.0472 81.8558H61.971C55.2836 81.1684 49.142 77.8569 44.894 72.648C40.646 67.439 38.6385 60.7582 39.3119 54.0713V53.9856C40.0045 47.3015 43.3179 41.164 48.5269 36.9167C53.7359 32.6694 60.416 30.6583 67.1048 31.3237H67.1905C73.8749 32.0184 80.0119 35.3319 84.2584 40.539C88.505 45.7462 90.5154 52.4229 89.8496 59.1083C89.6172 61.3936 89.0724 63.6362 88.2304 65.7735C87.4454 67.8201 86.3985 69.7565 85.1159 71.5342Z" fill="#EC7C7F"/>
<path fill-rule="evenodd" clip-rule="evenodd" d="M273.704 155.278L272.465 159.763C272.441 159.864 272.442 159.969 272.471 160.069C272.499 160.169 272.553 160.26 272.627 160.333C272.701 160.406 272.792 160.458 272.892 160.485C272.993 160.512 273.098 160.513 273.199 160.487L277.847 159.201C280.828 161.134 284.379 161.994 287.914 161.639H287.962C292.084 161.211 295.869 159.167 298.487 155.954C301.104 152.741 302.34 148.622 301.925 144.5C301.93 144.481 301.93 144.461 301.925 144.442C301.497 140.321 299.452 136.538 296.239 133.921C293.025 131.304 288.905 130.068 284.781 130.484H284.724C280.601 130.909 276.815 132.953 274.199 136.166C271.583 139.38 270.349 143.501 270.77 147.623C270.918 149.035 271.254 150.422 271.77 151.746C272.258 153.002 272.908 154.19 273.704 155.278Z" fill="#EC7C7F"/>
<path fill-rule="evenodd" clip-rule="evenodd" d="M278.923 141.5C279.736 140.694 280.835 140.242 281.98 140.242C283.126 140.242 284.224 140.694 285.038 141.5L286.352 142.824L287.667 141.5C288.48 140.694 289.579 140.242 290.724 140.242C291.869 140.242 292.968 140.694 293.781 141.5C294.591 142.314 295.045 143.414 295.045 144.562C295.045 145.709 294.591 146.809 293.781 147.623L292.467 148.937L286.352 155.05L280.237 148.937L278.923 147.623C278.114 146.809 277.66 145.709 277.66 144.562C277.66 143.414 278.114 142.314 278.923 141.5Z" fill="white"/>
<path d="M65.2554 72.4606C62.5175 72.4625 59.8235 71.7729 57.4238 70.4559C55.024 69.1389 52.9964 67.2372 51.5293 64.9275C50.0621 62.6178 49.2031 59.9751 49.032 57.2448C48.8609 54.5146 49.3832 51.7854 50.5505 49.3109C51.7178 46.8364 53.4921 44.6968 55.7087 43.091C57.9252 41.4851 60.5121 40.4651 63.2288 40.1257C65.9456 39.7864 68.7041 40.1386 71.2481 41.1497C73.7922 42.1609 76.0391 43.7981 77.7802 45.9093C78.3304 46.5747 78.5935 47.4311 78.5117 48.2903C78.4298 49.1495 78.0098 49.941 77.3438 50.4907C76.6779 51.0404 75.8207 51.3033 74.9608 51.2215C74.1009 51.1398 73.3088 50.72 72.7586 50.0547C71.4789 48.5022 69.7488 47.3844 67.8067 46.8554C65.8646 46.3264 63.8062 46.4122 61.9149 47.101C60.0237 47.7898 58.3928 49.0476 57.247 50.7012C56.1011 52.3549 55.4968 54.3228 55.5172 56.334C55.5376 58.3451 56.1817 60.3005 57.3608 61.9306C58.5399 63.5606 60.196 64.7852 62.1008 65.4356C64.0056 66.086 66.0654 66.1301 67.9963 65.5619C69.9273 64.9937 71.6344 63.8412 72.8823 62.2631C73.1479 61.9281 73.4769 61.6486 73.8506 61.4407C74.2243 61.2327 74.6353 61.1003 75.0601 61.0511C75.485 61.0018 75.9154 61.0367 76.3268 61.1536C76.7382 61.2706 77.1225 61.4673 77.4578 61.7327C77.7931 61.998 78.0728 62.3268 78.2809 62.7001C78.4891 63.0735 78.6216 63.4842 78.6709 63.9087C78.7201 64.3332 78.6853 64.7632 78.5682 65.1743C78.4512 65.5853 78.2542 65.9693 77.9887 66.3043C76.4724 68.228 74.5381 69.782 72.3321 70.8485C70.126 71.9151 67.7061 72.4664 65.2554 72.4606Z" fill="white"/>
<path d="M77.8743 45.9093C76.3476 44.0612 74.4304 42.573 72.2601 41.5514C70.0898 40.5298 67.7201 40 65.3207 40C62.9213 40 60.5516 40.5298 58.3813 41.5514C56.2111 42.573 54.2939 44.0612 52.7672 45.9093C52.216 46.5753 51.9525 47.4327 52.0344 48.2928C52.1164 49.1528 52.5373 49.9452 53.2043 50.4955C53.8714 51.0457 54.7302 51.3089 55.5916 51.2271C56.453 51.1452 57.2466 50.725 57.7977 50.059C58.9175 48.7009 60.3856 47.6719 62.0453 47.0819V56.2021C62.0453 57.066 62.389 57.8945 63.0009 58.5054C63.6127 59.1162 64.4425 59.4594 65.3077 59.4594C66.1729 59.4594 67.0027 59.1162 67.6145 58.5054C68.2263 57.8945 68.57 57.066 68.57 56.2021V47.0819C70.2345 47.6698 71.7074 48.699 72.8307 50.059C73.3818 50.725 74.1754 51.1452 75.0368 51.2271C75.8983 51.3089 76.757 51.0457 77.4241 50.4955C78.0912 49.9452 78.512 49.1528 78.594 48.2928C78.676 47.4327 78.4124 46.5753 77.8612 45.9093H77.8743Z" fill="white"/>
<path d="M76.7633 59.4599C78.5699 59.4599 80.0345 57.9954 80.0345 56.1887C80.0345 54.3821 78.5699 52.9175 76.7633 52.9175C74.9567 52.9175 73.4921 54.3821 73.4921 56.1887C73.4921 57.9954 74.9567 59.4599 76.7633 59.4599Z" fill="white"/>
</svg>
