<svg width="489" height="317" viewBox="0 0 489 317" fill="none" xmlns="http://www.w3.org/2000/svg">
<path fill-rule="evenodd" clip-rule="evenodd" d="M323.588 47.6323C328.756 43.6193 332.928 35.3203 331.288 34.3411C329.648 33.3619 325.276 41.8214 325.276 41.8214C325.276 41.8214 325.927 32.6797 322.768 31.9012C319.609 31.1227 321.112 48.3225 323.588 47.6323Z" fill="#1C273C"/>
<path fill-rule="evenodd" clip-rule="evenodd" d="M331.77 46.5809C324.367 42.1986 304.353 43.0253 296.942 64.1018C289.532 85.1782 298.863 113.936 312.303 122.973C325.742 132.01 331.77 46.5809 331.77 46.5809Z" fill="#1C273C"/>
<path fill-rule="evenodd" clip-rule="evenodd" d="M317.784 61.3408C317.511 50.9069 322.72 39.9834 343.561 30.9541C364.403 21.9248 381.098 24.6777 397.029 41.1071C412.96 57.5365 418.007 97.7792 437.748 113.663C449.531 123.142 493.064 125.228 487.518 161.033C486.625 158.265 485.162 155.715 483.225 153.545C481.287 151.375 478.916 149.633 476.265 148.432C470.853 145.973 464.93 144.847 458.992 145.149C458.992 145.149 472.423 149.531 477.085 161.306C479.871 168.36 480.446 176.094 478.733 183.482C462.151 162.461 428.762 190.874 395.646 172.245C371.798 158.834 360.827 146.241 360.553 117.491C360.28 88.7418 348.77 55.6182 317.784 61.3408Z" fill="#1C273C"/>
<path fill-rule="evenodd" clip-rule="evenodd" d="M310.365 112.29C285.979 51.549 323.973 54.1174 327.663 49.0529C339.551 45.2084 344.446 42.1345 355.883 46.1475C367.321 50.1605 383.445 94.6089 404.833 111.448C426.222 128.286 445.754 128.696 464.16 134.041C480.493 138.776 485.653 149.628 487.036 159.652C485.017 154.672 481.166 150.651 476.273 148.416C470.861 145.957 464.938 144.831 459 145.133C459 145.133 472.431 149.515 477.093 161.29C479.879 168.344 480.454 176.078 478.741 183.466C462.159 162.445 428.77 190.858 395.654 172.229C371.806 158.817 360.835 146.225 360.561 117.475C360.288 88.7258 341.367 106.544 310.365 112.29Z" fill="#30394A"/>
<path fill-rule="evenodd" clip-rule="evenodd" d="M370.432 142.685C385.575 152.06 395.518 162.654 401.94 172.847C404.568 177.013 407.984 178.794 409.937 183.69C411.89 188.586 411.545 194.349 413.209 200.184C420.885 226.469 423.658 275.204 423.658 275.204C432.041 285.95 426.342 287.411 424.204 296.561C424.204 296.561 413.755 290.533 394.866 293.278C375.978 296.023 381.291 296.834 381.291 296.834C379.844 291.448 377.4 282.86 381.291 278.013L371.557 242.345C365.931 262.113 351.037 290.389 339.84 316H221.532L254.173 227.834L227.85 177.462C256.529 159.66 265.804 145.582 277.684 139.451C280.489 137.998 284.227 139.707 287.506 138.8C304.056 134.242 330.556 136.409 370.432 142.685Z" fill="#FFAB2F"/>
<path fill-rule="evenodd" clip-rule="evenodd" d="M372.136 244.592L371.525 242.345C365.898 262.113 351.004 290.389 339.808 316H221.532L254.174 227.834L239.537 199.831C241.562 196.026 243.789 193.314 246.104 192.736C254.334 190.681 276.543 173.433 276.543 173.433C276.543 173.433 269.96 195.609 269.96 198.482C269.96 201.356 276.543 205.056 276.133 207.52C275.723 209.984 325.485 267.073 327.341 267.274C329.198 267.474 346.463 268.076 352.837 265.428C359.211 262.779 363.535 251.053 375.664 222.89C374.378 230.472 373.202 237.706 372.136 244.592Z" fill="#BF8118"/>
<path fill-rule="evenodd" clip-rule="evenodd" d="M271.784 201.179C271.728 189.75 276.486 180.664 277.515 168.89C277.884 163.382 277.862 157.854 277.451 152.348C276.068 158.248 276.406 162.726 275.522 168.649C273.737 180.624 268.674 189.172 268.288 201.259C268.293 201.487 268.343 201.711 268.435 201.92C268.527 202.128 268.66 202.316 268.825 202.473C268.99 202.631 269.184 202.754 269.397 202.836C269.609 202.918 269.836 202.958 270.064 202.953C270.292 202.948 270.517 202.897 270.726 202.805C270.934 202.713 271.123 202.581 271.28 202.417C271.438 202.252 271.561 202.058 271.643 201.846C271.726 201.633 271.765 201.407 271.76 201.179H271.784Z" fill="#BF8118"/>
<path fill-rule="evenodd" clip-rule="evenodd" d="M275.297 316H274.043C290.247 284.779 301.612 250.909 316.707 219.149C324.231 203.314 332.871 185.512 346.744 174.364C346.927 174.227 347.135 174.128 347.356 174.072C347.577 174.016 347.807 174.003 348.033 174.036C348.258 174.068 348.475 174.145 348.672 174.261C348.868 174.377 349.039 174.531 349.176 174.713C349.313 174.895 349.412 175.103 349.468 175.324C349.525 175.544 349.537 175.774 349.505 175.999C349.472 176.225 349.396 176.442 349.279 176.638C349.163 176.833 349.009 177.004 348.826 177.141C335.025 188.016 325.83 206.91 318.283 222.544C303.678 252.771 291.638 286.873 275.297 316Z" fill="#BF8118"/>
<path fill-rule="evenodd" clip-rule="evenodd" d="M372.956 247.594L371.525 242.345C370.994 244.231 370.375 246.197 369.684 248.22C369.557 247.971 369.491 247.696 369.491 247.417C370.166 242.273 376.38 214.221 380.013 211.549C383.646 208.876 387.753 206.452 391.684 203.418C393.521 202.112 395.213 200.614 396.731 198.948C396.289 202.415 384.233 211.196 381.098 213.355H381.154C378.478 217.665 373.574 241.823 372.964 247.441C372.964 247.492 372.962 247.543 372.956 247.594V247.594Z" fill="#BF8118"/>
<path fill-rule="evenodd" clip-rule="evenodd" d="M423.561 274.112C423.561 274.818 423.626 275.204 423.626 275.204C424.661 276.504 425.596 277.88 426.423 279.321C425.982 279.392 425.53 279.292 425.161 279.04C416.376 272.427 411.408 273.767 401.257 271.857C409.777 270.42 416.416 270.516 423.561 274.112Z" fill="#BF8118"/>
<path fill-rule="evenodd" clip-rule="evenodd" d="M379.346 282.668C379.559 280.974 380.219 279.368 381.259 278.013L380.993 277.041C385.097 274.221 389.755 272.306 394.658 271.423H394.601C394.812 271.35 395.042 271.35 395.252 271.423C394.85 272.306 384.361 277.082 379.346 282.668Z" fill="#BF8118"/>
<path fill-rule="evenodd" clip-rule="evenodd" d="M373.173 125.983C378.928 130.911 380.029 131.457 383.871 143.231C387.713 155.005 389.899 170.343 389.899 170.343L367.393 168.698L374.82 177.719L339.173 185.384L333.964 185.111L317.238 167.036L323.821 160.463L303.252 154.716C303.252 154.716 335.331 109.28 373.173 125.983Z" fill="#BF8118"/>
<path fill-rule="evenodd" clip-rule="evenodd" d="M377.288 110.653C374.82 127.355 372.079 134.474 366.035 148.159C359.991 161.843 345.474 184.027 337.244 189.509C329.013 194.991 335.636 179.372 333.956 166.234C332.276 153.095 330.661 135.02 330.661 135.02L377.288 110.653Z" fill="#EDCBAB"/>
<path fill-rule="evenodd" clip-rule="evenodd" d="M377.288 110.653C375.849 120.365 375.761 121.392 373.55 127.805C368.053 138.961 358.391 147.926 347.741 152.284C329.712 159.652 331.915 148.648 330.669 135.02L377.288 110.653Z" fill="#E4AE8F"/>
<path fill-rule="evenodd" clip-rule="evenodd" d="M333.554 46.308C329.383 47.0544 326.32 48.4991 323.821 51.0434C321.305 55.4336 319.432 61.7742 317.391 70.8196C313.002 90.0822 311.499 105.059 311.909 112.218C312.206 117.499 317.318 133.792 320.421 140.309C326.377 145.438 340.017 146.112 347.556 143.03C361.373 137.388 371.453 123.944 375.777 119.931C375.777 119.931 385.647 124.586 393.323 118.149C403.314 109.778 400.107 101.856 393.492 99.9944C390.406 99.9462 386.499 101.086 384.827 103.109C384.827 103.109 384.827 102.306 384.827 100.869C383.893 101.249 383.05 101.82 382.352 102.547C382.352 102.547 384.691 39.3253 333.554 46.308Z" fill="#EDCBAB"/>
<path fill-rule="evenodd" clip-rule="evenodd" d="M333.554 46.308C329.303 47.0705 326.176 48.5553 323.676 51.1878C330.396 49.4221 340.411 49.4462 351.921 69.2064C363.431 88.9666 379.956 102.274 392.809 104.433C405.661 106.592 396.193 106.544 399.601 106.423C399.435 105.299 399.005 104.229 398.347 103.301C394.966 102.737 391.713 101.574 388.742 99.866C386.66 100.155 382.312 96.7599 381.998 93.6297C374.507 82.5537 370.946 60.6666 358.182 49.4863C351.792 46.324 343.738 44.9195 333.554 46.308Z" fill="#E4AE8F"/>
<path fill-rule="evenodd" clip-rule="evenodd" d="M318.001 84.2553C319.995 84.4399 321.433 87.0323 321.216 90.0581C320.999 93.0839 319.199 95.3874 317.198 95.2028C315.196 95.0182 313.765 92.4178 313.982 89.4C314.2 86.3822 315.992 84.0707 318.001 84.2553Z" fill="white"/>
<path fill-rule="evenodd" clip-rule="evenodd" d="M349.622 87.9553C352.154 88.164 353.978 91.0775 353.697 94.4645C353.416 97.8515 351.141 100.444 348.617 100.235C346.093 100.027 344.261 97.1131 344.542 93.718C344.823 90.323 347.09 87.7466 349.622 87.9553Z" fill="white"/>
<path fill-rule="evenodd" clip-rule="evenodd" d="M384.868 106.616C386.885 104.898 388.702 104.264 390.116 104.625C397.246 106.431 389.2 120.348 382.078 115.396C377.569 112.234 384.868 106.616 384.868 106.616Z" fill="#DC9576"/>
<path fill-rule="evenodd" clip-rule="evenodd" d="M352.395 87.5459C354.927 87.7626 356.751 90.8045 356.47 94.344C356.189 97.8835 353.922 100.58 351.39 100.364C348.858 100.147 347.042 97.105 347.315 93.5655C347.588 90.026 349.871 87.3373 352.395 87.5459Z" fill="#2B5250"/>
<path fill-rule="evenodd" clip-rule="evenodd" d="M353.601 90.4193C350.273 86.631 346.744 89.4 344.92 92.4338C344.679 88.3325 350.136 84.5763 354.702 89.1592C354.876 89.3506 354.98 89.5949 354.997 89.8528C355.015 90.1106 354.945 90.3668 354.798 90.5798C354.712 90.6549 354.611 90.7107 354.501 90.7436C354.392 90.7764 354.276 90.7856 354.163 90.7704C354.05 90.7552 353.941 90.716 353.844 90.6555C353.747 90.5949 353.664 90.5144 353.601 90.4193V90.4193Z" fill="#D7967A"/>
<path fill-rule="evenodd" clip-rule="evenodd" d="M362.306 83.5008C360.425 82.8266 344.068 80.0416 344.036 78.9581C343.907 74.4314 356.036 76.0366 362.306 83.5008Z" fill="#2B5250"/>
<path fill-rule="evenodd" clip-rule="evenodd" d="M320.204 84.2633C321.731 84.4479 322.832 87.0483 322.663 90.0742C322.494 93.1 321.12 95.3954 319.593 95.2108C318.066 95.0262 316.973 92.4338 317.182 89.408C317.39 86.3822 318.685 84.0867 320.204 84.2633Z" fill="#2B5250"/>
<path fill-rule="evenodd" clip-rule="evenodd" d="M312.23 79.6001C314.513 77.9307 316.739 76.9034 320.027 77.9949C320.983 78.1314 324.416 79.1748 324.906 77.9949C326.489 74.3912 316.675 70.8678 312.23 79.6001Z" fill="#2B5250"/>
<path fill-rule="evenodd" clip-rule="evenodd" d="M384.9 99.1436C382.04 102.826 379.494 106.74 377.288 110.846C377.288 110.846 375.23 93.5976 375.439 88.0516C375.648 82.5056 384.9 99.1436 384.9 99.1436Z" fill="#791B12"/>
<path fill-rule="evenodd" clip-rule="evenodd" d="M329.849 47.3835C338.353 44.6065 346.222 43.4186 356.952 66.1966C367.683 88.9746 372.578 100.452 392.889 105.717C413.201 110.982 419.784 104.73 419.784 104.73C419.784 104.73 405.163 108.968 392.889 98.5818C380.616 88.1961 383.316 49.8957 358.914 40.6898C334.511 31.4838 329.849 47.3835 329.849 47.3835Z" fill="#2B5250"/>
<path fill-rule="evenodd" clip-rule="evenodd" d="M323.877 103.245C324.03 105.556 325.621 106.223 329.841 106.993C334.061 107.764 333.128 109.666 329.889 111.006C326.65 112.347 323.049 109.818 323.877 103.245Z" fill="#D7967A"/>
<path fill-rule="evenodd" clip-rule="evenodd" d="M328.386 107.451C321.048 105.211 324.737 102.868 326.851 96.3104C322.285 102.41 319.737 106.263 327.84 109.305C327.962 109.34 328.089 109.352 328.216 109.338C328.342 109.325 328.465 109.287 328.576 109.226C328.688 109.165 328.786 109.083 328.866 108.984C328.946 108.886 329.005 108.772 329.041 108.651C329.077 108.529 329.089 108.401 329.075 108.275C329.062 108.149 329.023 108.027 328.963 107.915C328.902 107.804 328.82 107.705 328.721 107.626C328.622 107.546 328.508 107.486 328.386 107.451V107.451Z" fill="#EE8B83"/>
<path fill-rule="evenodd" clip-rule="evenodd" d="M320.887 87.0243C318.773 82.8587 315.646 85.9167 313.83 89.2555C314.167 84.7448 318.934 80.5954 321.916 85.6277C322.032 85.8836 322.082 86.1643 322.063 86.4445C322.043 86.7247 321.954 86.9957 321.803 87.2329C321.522 87.5781 321.104 87.5058 320.887 87.0243Z" fill="#D7967A"/>
<path fill-rule="evenodd" clip-rule="evenodd" d="M324.745 125.822C327.743 126.898 330.524 128.134 335.025 127.187C339.527 126.24 335.725 130.18 333.209 131.2C330.693 132.219 324.11 130.919 324.745 125.822Z" fill="#D7967A"/>
<path fill-rule="evenodd" clip-rule="evenodd" d="M341.906 114.923C336.649 121.255 327.912 119.787 320.726 118.27C321.743 119.108 322.953 119.679 324.247 119.931C331.264 122.018 338.61 121.881 343.762 116.279C343.852 116.158 343.916 116.019 343.952 115.873C343.987 115.726 343.994 115.574 343.971 115.425C343.948 115.276 343.895 115.133 343.817 115.004C343.738 114.875 343.635 114.763 343.513 114.674C343.391 114.585 343.253 114.521 343.106 114.485C342.96 114.449 342.807 114.443 342.658 114.466C342.509 114.489 342.365 114.541 342.236 114.62C342.107 114.698 341.995 114.801 341.906 114.923V114.923Z" fill="#EE8B83"/>
<path fill-rule="evenodd" clip-rule="evenodd" d="M354.517 90.1223C354.281 90.1207 354.051 90.189 353.854 90.3186C353.657 90.4481 353.503 90.6331 353.412 90.85C353.321 91.0669 353.296 91.306 353.341 91.537C353.386 91.7679 353.499 91.9803 353.665 92.1472C353.831 92.3142 354.043 92.4281 354.274 92.4746C354.505 92.5211 354.744 92.498 354.962 92.4084C355.18 92.3187 355.366 92.1664 355.497 91.9709C355.628 91.7754 355.698 91.5454 355.698 91.3102C355.7 91.1546 355.67 91.0003 355.611 90.8562C355.552 90.7121 355.465 90.5811 355.355 90.4707C355.245 90.3603 355.115 90.2727 354.971 90.2129C354.827 90.1531 354.673 90.1223 354.517 90.1223V90.1223Z" fill="white"/>
<path fill-rule="evenodd" clip-rule="evenodd" d="M320.999 86.7353C320.764 86.7337 320.532 86.8022 320.336 86.9322C320.139 87.0621 319.985 87.2475 319.894 87.4649C319.803 87.6823 319.779 87.9218 319.824 88.1529C319.87 88.3841 319.983 88.5965 320.15 88.7631C320.317 88.9297 320.53 89.043 320.761 89.0886C320.993 89.1341 321.233 89.1099 321.45 89.019C321.668 88.9281 321.854 88.7747 321.984 88.5781C322.114 88.3815 322.183 88.1508 322.181 87.9151C322.181 87.6022 322.057 87.3021 321.835 87.0809C321.613 86.8596 321.313 86.7353 320.999 86.7353V86.7353Z" fill="white"/>
<path fill-rule="evenodd" clip-rule="evenodd" d="M390.566 97.4581C384.65 93.1561 383.003 93.1561 378.277 86.7754C368.237 73.2194 360.328 42.0782 339.671 43.5229C335.877 43.7878 331.875 44.5984 331.754 46.2197C332.059 46.1475 331.826 46.2197 332.26 45.9869C334.286 44.9034 337.847 44.5262 341.222 44.7991C348.569 45.401 351.511 48.9486 355.642 54.7915C360.393 61.5093 364.821 70.2497 367.892 75.4908C373.502 85.0338 379.386 94.3601 390.566 97.4581Z" fill="#30394A"/>
<path fill-rule="evenodd" clip-rule="evenodd" d="M380.294 215.273C377.698 233.476 377.079 237.048 381.251 250.435C384.466 260.773 386.877 269.529 387.89 273.39C385.473 274.348 383.17 275.573 381.025 277.042L372.988 247.594C372.992 247.538 372.992 247.481 372.988 247.425C373.518 242.385 377.513 222.44 380.294 215.273Z" fill="#BF8118"/>
<path fill-rule="evenodd" clip-rule="evenodd" d="M382.07 114.152C380.873 111.223 389.264 103.807 391.233 105.027C392.351 105.717 392.785 107.579 393.154 108.743C393.38 107.194 392.857 104.874 391.266 104.152C388.854 103.06 378.871 110.019 380.583 114.827C380.627 114.925 380.69 115.014 380.768 115.088C380.847 115.162 380.939 115.22 381.041 115.257C381.142 115.295 381.25 115.312 381.358 115.306C381.465 115.301 381.571 115.275 381.669 115.228C381.766 115.185 381.855 115.122 381.928 115.044C382.002 114.966 382.059 114.875 382.096 114.775C382.134 114.674 382.151 114.568 382.146 114.461C382.142 114.354 382.116 114.249 382.07 114.152V114.152Z" fill="#823B2F"/>
<path fill-rule="evenodd" clip-rule="evenodd" d="M109.164 42.1665C113.866 38.4505 115.402 28.6025 112.886 26.7003C110.37 24.7981 108.666 34.8548 108.666 34.8548C108.666 34.8548 105.354 22.5909 101.006 20.4079C96.6575 18.2248 106.343 42.2468 109.164 42.1665Z" fill="#791B12"/>
<path fill-rule="evenodd" clip-rule="evenodd" d="M173.298 193.61L138.044 215.377L151.218 316H4.87427C3.37121 304.081 41.7515 256.687 41.7515 243.765C41.7515 243.765 27.9588 182.655 27.9588 162.943C27.9588 134.049 79.9872 116.183 118.665 121.536C162.23 127.572 161.667 157.493 173.298 193.61Z" fill="#65A4C5"/>
<path fill-rule="evenodd" clip-rule="evenodd" d="M141.79 243.982L151.218 316H4.87425C4.32768 311.65 9.10212 302.556 15.3796 292.147C20.1219 292.106 25.0249 292.002 30.0807 291.809C62.1594 290.581 104.936 269.224 131.67 242.529C135.207 242.925 138.58 243.41 141.79 243.982Z" fill="#4A7388"/>
<path fill-rule="evenodd" clip-rule="evenodd" d="M111.109 129.611C113.087 154.837 111.351 160.463 104.969 184.437C103.996 188.089 102.139 191.949 101.753 195.408C103.523 191.994 105.062 188.466 106.359 184.846C114.132 161.619 115.884 154.082 114.598 129.37C114.597 129.131 114.547 128.896 114.452 128.677C114.356 128.459 114.216 128.262 114.042 128.1C113.867 127.937 113.66 127.812 113.435 127.733C113.21 127.653 112.971 127.621 112.733 127.637C112.495 127.654 112.262 127.719 112.05 127.829C111.838 127.939 111.651 128.091 111.5 128.276C111.35 128.461 111.239 128.675 111.174 128.904C111.11 129.134 111.093 129.374 111.125 129.611H111.109Z" fill="#3E4157"/>
<path fill-rule="evenodd" clip-rule="evenodd" d="M60.5921 144.989C68.6298 168.89 88.2741 199.052 111.471 210.562C112.818 211.286 114.245 211.852 115.723 212.247C110.394 208.876 117.331 213.21 111.849 209.839C89.4557 196.179 71.644 168.633 63.9197 144.009C63.7621 143.596 63.4532 143.259 63.0556 143.065C62.658 142.871 62.2014 142.835 61.7784 142.965C61.3553 143.094 60.9974 143.379 60.7771 143.763C60.5568 144.146 60.4907 144.599 60.5921 145.029V144.989Z" fill="#3E4157"/>
<path fill-rule="evenodd" clip-rule="evenodd" d="M150.84 204.839C150.583 186.628 140.704 178.851 136.428 163.818C136.002 162.317 133.768 152.918 132.884 151.73C132.249 153.336 133.969 162.718 134.266 164.283C136.967 178.602 146.652 188.153 146.186 204.582C146.165 205.191 146.383 205.784 146.795 206.234C147.206 206.684 147.778 206.954 148.387 206.988C148.996 207.022 149.594 206.815 150.053 206.414C150.512 206.012 150.794 205.446 150.84 204.839V204.839Z" fill="#3E4157"/>
<path fill-rule="evenodd" clip-rule="evenodd" d="M39.2599 232.336C35.241 213.668 27.9588 177.318 27.9588 162.951C27.9594 160.356 28.3829 157.778 29.2127 155.318C43.4315 167.71 69.0638 202.8 80.7588 243.886C73.999 244.849 56.5009 241.125 39.2599 232.336Z" fill="#4A7388"/>
<path fill-rule="evenodd" clip-rule="evenodd" d="M80.0515 242.345C68.5333 241.253 30.153 219.872 17.5337 188.682C4.91445 157.493 35.675 138.118 43.351 137.572C51.0271 137.027 77.8571 187.591 80.0515 242.345Z" fill="#3E4157"/>
<path fill-rule="evenodd" clip-rule="evenodd" d="M30.153 92.3054C24.8481 111.696 0.726723 126.36 1.00001 145.141C1.12057 153.231 3.53997 164.323 17.6463 173.232C25.2339 178.008 16.9871 184.822 27.6693 202.495C29.7833 205.979 37.8612 211.822 41.3898 212.536C47.7075 213.82 29.7753 199.895 44.0343 195.962C73.0265 187.936 92.0198 162.63 70.4544 118.35C46.325 68.7569 53.1571 68.2111 30.153 92.3054Z" fill="#4E1000"/>
<path fill-rule="evenodd" clip-rule="evenodd" d="M56.8786 190.841C78.0098 179.469 88.6197 155.623 70.4543 118.318C61.5565 100.043 56.8785 88.4368 53.35 82.2728C44.7496 97.7712 21.3195 105.677 21.5687 122.548C21.6812 130.646 29.0438 148.721 43.15 157.597C50.7377 162.373 42.491 169.179 53.1732 186.853C54.2066 188.356 55.455 189.7 56.8786 190.841Z" fill="#4E1000"/>
<path fill-rule="evenodd" clip-rule="evenodd" d="M53.3178 102.161C78.2349 159.387 92.2528 186.218 96.3681 187.045C100.483 187.872 107.058 142.958 107.058 142.958L106.512 121.881L53.3178 102.161Z" fill="#DC9576"/>
<path fill-rule="evenodd" clip-rule="evenodd" d="M53.3178 102.161C58.5638 114.195 63.3275 124.897 67.609 134.266C78.0581 144.924 90.9185 157.614 105.965 150.013C106.648 145.799 107.058 142.974 107.058 142.974L106.512 121.898L53.3178 102.161Z" fill="#A85A49"/>
<path fill-rule="evenodd" clip-rule="evenodd" d="M107.613 36.5884C120.771 34.3973 135.03 44.2533 140.511 77.112C145.993 109.971 129.516 124.747 103.224 131.32C76.9328 137.893 89.5119 45.3529 107.613 36.5884Z" fill="#791B12"/>
<path fill-rule="evenodd" clip-rule="evenodd" d="M129.58 118.607C122.957 124.642 113.907 128.655 103.224 131.32C81.0964 136.85 86.4817 72.3285 99.5189 46.4204C99.744 46.2839 99.9771 46.1475 100.21 46.0351C113.368 43.844 127.627 53.7 133.109 86.5587C135.367 100.075 133.912 110.525 129.58 118.607Z" fill="#4E1000"/>
<path fill-rule="evenodd" clip-rule="evenodd" d="M57.176 100.083C54.8451 95.861 52.1605 93.6137 49.5241 93.3167C36.2216 91.8158 40.9478 120.678 56.2195 116.809C66.0176 114.313 57.176 100.083 57.176 100.083Z" fill="#DC9576"/>
<path fill-rule="evenodd" clip-rule="evenodd" d="M54.5316 102.394C53.2536 100.075 51.7746 98.8386 50.3278 98.6781C43.0134 97.8755 45.6096 113.711 54.0011 111.584C59.3623 110.228 54.5316 102.394 54.5316 102.394Z" fill="#C2684D"/>
<path fill-rule="evenodd" clip-rule="evenodd" d="M107.34 45.08C116.109 50.008 122.145 59.864 123.238 79.0303C124.331 98.1966 123.238 110.789 117.483 121.464C111.728 132.139 108.16 137.075 104.872 138.993C86.4254 149.732 71.218 129.562 59.5873 118.454C59.5873 118.454 46.4215 95.7326 46.4215 78.2036C46.4215 60.6747 67.8502 18.0001 107.34 45.08Z" fill="#EAC1A2"/>
<path fill-rule="evenodd" clip-rule="evenodd" d="M107.34 45.08C110.755 46.9928 113.684 49.6649 115.9 52.8894C106.351 47.6162 87.8079 43.7156 76.33 52.7529C62.9069 63.3152 64.5627 95.3714 53.2616 105.404C49.9018 97.4662 46.4616 87.1527 46.4616 78.2036C46.4616 71.2289 49.8616 60.2573 56.4365 51.2922C57.415 50.7114 58.5161 50.3678 59.6516 50.2889C62.6417 50.016 83.0495 39.1728 99.8404 40.6576C102.44 41.9551 104.946 43.4329 107.34 45.08V45.08Z" fill="#DC9576"/>
<path fill-rule="evenodd" clip-rule="evenodd" d="M110.081 46.7173C113.915 37.1342 102.372 15.4638 68.1235 18.2408C15.1386 22.5428 23.4255 81.4943 15.2833 108.935C14.0696 113.045 9.49607 124.851 8.00105 126.4C4.20723 130.333 15.7494 116.44 27.4846 110.043C35.6107 105.605 44.9346 109.16 49.1865 104.473C57.6824 95.1627 60.6966 59.5751 75.5021 50.2649C90.3077 40.9546 110.081 46.7173 110.081 46.7173Z" fill="#791B12"/>
<path fill-rule="evenodd" clip-rule="evenodd" d="M109.606 78.332C107.082 78.7895 105.378 81.8715 105.796 85.2184C106.214 88.5652 108.594 90.9089 111.117 90.4514C113.641 89.9939 115.345 86.9038 114.927 83.557C114.509 80.2101 112.13 77.8745 109.606 78.332V78.332ZM76.3782 83.2921C73.8543 83.7496 72.1503 86.8316 72.5603 90.1785C72.9702 93.5254 75.3654 95.869 77.8893 95.4115C80.4131 94.954 82.0931 91.8399 81.6992 88.5251C81.3054 85.2103 78.878 82.8346 76.3782 83.2921Z" fill="white"/>
<path fill-rule="evenodd" clip-rule="evenodd" d="M73.4846 83.5971C70.9929 84.0626 69.4657 87.1447 70.0846 90.4915C70.7035 93.8384 73.2194 96.174 75.7111 95.7165C78.2028 95.259 79.73 92.177 79.1111 88.8301C78.4921 85.4833 75.9763 83.1396 73.4846 83.5971Z" fill="#172041"/>
<path fill-rule="evenodd" clip-rule="evenodd" d="M72.1423 86.3982C74.9073 82.4735 79.7621 84.6485 82.728 87.265C81.8439 83.4045 74.4813 80.5392 70.5107 85.3548C70.4146 85.4587 70.3424 85.5822 70.2991 85.7169C70.2558 85.8515 70.2425 85.9939 70.2601 86.1342C70.2776 86.2745 70.3256 86.4093 70.4008 86.5291C70.4759 86.649 70.5764 86.751 70.6951 86.828C70.8138 86.9051 70.9479 86.9553 71.0881 86.9752C71.2283 86.9952 71.3712 86.9843 71.5067 86.9433C71.6422 86.9024 71.7671 86.8324 71.8728 86.7383C71.9784 86.6441 72.0622 86.5281 72.1183 86.3982H72.1423Z" fill="#D48B70"/>
<path fill-rule="evenodd" clip-rule="evenodd" d="M106.938 78.942C104.446 79.4075 102.919 82.4895 103.538 85.8364C104.157 89.1833 106.673 91.5188 109.164 91.0614C111.656 90.6039 113.183 87.5219 112.572 84.175C111.961 80.8281 109.421 78.4845 106.938 78.942Z" fill="#172041"/>
<path fill-rule="evenodd" clip-rule="evenodd" d="M105.595 81.7431C108.36 77.8184 113.215 79.9934 116.181 82.6099C115.297 78.7494 107.934 75.8841 103.956 80.6997C103.86 80.8036 103.787 80.9271 103.744 81.0618C103.701 81.1964 103.688 81.3388 103.705 81.4791C103.723 81.6194 103.771 81.7542 103.846 81.874C103.921 81.9939 104.021 82.0959 104.14 82.1729C104.259 82.25 104.393 82.3002 104.533 82.3201C104.673 82.3401 104.816 82.3292 104.952 82.2882C105.087 82.2473 105.212 82.1773 105.318 82.0832C105.423 81.989 105.507 81.8729 105.563 81.7431H105.595Z" fill="#D48B70"/>
<path fill-rule="evenodd" clip-rule="evenodd" d="M76.0969 69.6478C71.6842 69.6478 67.7457 70.3541 64.6994 73.5003C68.2842 73.1151 71.9334 72.5372 75.3976 73.5003C75.8998 73.5807 76.4135 73.4616 76.8287 73.1684C77.2439 72.8752 77.5276 72.4313 77.6191 71.9317C77.7105 71.4322 77.6024 70.9168 77.3179 70.4959C77.0334 70.075 76.5951 69.7821 76.0969 69.6799V69.6478Z" fill="#4E1000"/>
<path fill-rule="evenodd" clip-rule="evenodd" d="M104.326 67.2159C108.698 66.6701 112.315 66.9591 115.747 69.6799C112.286 69.1158 108.736 69.5416 105.507 70.9079C105.264 70.9854 105.009 71.0143 104.755 70.9931C104.501 70.9719 104.253 70.901 104.027 70.7844C103.8 70.6677 103.599 70.5077 103.434 70.3133C103.27 70.119 103.145 69.8942 103.068 69.6518C102.99 69.4094 102.961 69.1541 102.982 68.9005C103.003 68.6469 103.075 68.3999 103.191 68.1737C103.308 67.9475 103.468 67.7465 103.663 67.5822C103.858 67.4178 104.083 67.2934 104.326 67.2159V67.2159Z" fill="#4E1000"/>
<path fill-rule="evenodd" clip-rule="evenodd" d="M79.3441 109.345C90.7015 116.905 107.203 111.48 107.203 111.48C100.057 118.374 104.848 128.053 97.4613 128.824C89.0618 129.699 80.7106 119.779 79.3441 109.345Z" fill="white"/>
<path fill-rule="evenodd" clip-rule="evenodd" d="M55.2389 134.747C49.2026 132.283 40.7066 131.457 40.7066 131.457L38.7856 133.238C38.0711 132.599 37.1909 132.174 36.2457 132.01C35.0159 131.938 33.8343 133.856 33.8343 133.856C33.1001 133.118 32.1308 132.658 31.0934 132.556C29.4859 132.484 28.4168 134.747 28.4168 134.747L28.8991 127.524C28.8991 127.524 32.1866 122.186 32.3232 119.722C32.4599 117.258 30.9568 116.432 30.9568 116.432C30.9568 116.432 23.0075 128.888 22.3162 130.943C21.625 132.998 27.5247 157.911 27.5247 157.911L42.2097 175.311C42.2097 175.311 55.5202 223.861 60.584 230.892C69.8194 243.693 81.4822 245.989 87.0122 242.128C94.3265 236.975 93.7237 221.79 90.7497 213.949C87.3658 205.04 54.5798 162.742 54.5798 162.742C54.5798 162.742 55.6729 156.996 54.2985 154.532C52.924 152.068 45.8025 138.102 45.8025 138.102C45.8025 138.102 55.6488 141.602 55.2389 134.747Z" fill="#EAC1A2"/>
<path fill-rule="evenodd" clip-rule="evenodd" d="M39.4929 132.572L38.7775 133.238C38.617 133.097 38.4479 132.966 38.2712 132.845C38.3358 135.62 38.5424 138.39 38.8901 141.144C38.9713 141.407 39.15 141.63 39.3898 141.766C39.6296 141.903 39.9125 141.943 40.1808 141.879C40.4492 141.814 40.6828 141.65 40.8343 141.42C40.9857 141.189 41.0435 140.91 40.996 140.638C40.4494 137.902 40.0475 135.237 39.4929 132.572ZM34.5819 132.901C34.3078 133.197 34.0603 133.517 33.8424 133.856C33.6266 133.641 33.3897 133.447 33.1351 133.279C33.0371 136.572 33.3558 139.865 34.0835 143.078C34.1226 143.214 34.1881 143.341 34.2762 143.452C34.3644 143.563 34.4736 143.655 34.5975 143.723C34.7214 143.792 34.8576 143.836 34.9984 143.852C35.1391 143.868 35.2816 143.856 35.4178 143.817C35.5539 143.778 35.6811 143.712 35.7919 143.624C35.9028 143.536 35.9952 143.427 36.0639 143.304C36.1325 143.18 36.1761 143.044 36.1921 142.903C36.2081 142.763 36.1963 142.62 36.1572 142.484C35.2624 139.361 34.7232 136.146 34.5497 132.901H34.5819ZM29.5342 133.246C29.0855 133.683 28.7108 134.19 28.4249 134.747L28.8108 128.96L28.7384 128.76C27.7498 132.187 28.3285 141.658 29.1564 145.542C29.2028 145.676 29.2752 145.8 29.3694 145.906C29.4636 146.011 29.5778 146.098 29.7055 146.16C29.8331 146.222 29.9717 146.258 30.1133 146.266C30.2549 146.274 30.3968 146.255 30.5308 146.209C30.6649 146.162 30.7885 146.09 30.8945 145.996C31.0006 145.902 31.0871 145.788 31.1491 145.66C31.211 145.533 31.2472 145.394 31.2556 145.253C31.264 145.112 31.2444 144.97 31.198 144.836C30.3701 141.874 29.9682 136.954 29.5422 133.246H29.5342Z" fill="#DC9576"/>
<path fill-rule="evenodd" clip-rule="evenodd" d="M89.4476 104.304C92.6627 104.545 95.6286 105.003 99.7199 102.908C103.811 100.813 101.191 105.605 99.0367 107.266C96.8825 108.927 90.179 109.385 89.4476 104.304Z" fill="#D48B70"/>
<path fill-rule="evenodd" clip-rule="evenodd" d="M95.9662 106.56C104.044 104.264 103.144 101.576 97.7345 95.0423C100.491 102.121 102.975 103.108 95.6125 104.674C95.4869 104.697 95.3671 104.744 95.2599 104.814C95.1528 104.883 95.0604 104.973 94.988 105.078C94.9156 105.183 94.8646 105.302 94.838 105.426C94.8114 105.551 94.8096 105.68 94.8329 105.805C94.8561 105.931 94.9038 106.05 94.9733 106.157C95.0429 106.264 95.1328 106.357 95.238 106.429C95.3433 106.501 95.4618 106.552 95.5867 106.579C95.7116 106.605 95.8406 106.607 95.9662 106.584V106.56Z" fill="#EE8B83"/>
<path fill-rule="evenodd" clip-rule="evenodd" d="M97.3648 120.806C99.1639 121.476 100.806 122.509 102.188 123.84C101.601 126.521 100.668 128.495 97.5015 128.824C96.4276 128.936 95.3426 128.879 94.2864 128.655C90.7819 127.941 87.4543 125.525 84.8098 122.186C84.3195 121.56 83.8453 120.902 83.4032 120.22C83.6133 120.136 83.828 120.063 84.0462 120.003C85.972 119.504 87.9568 119.269 89.946 119.305C92.4888 119.359 95.0015 119.867 97.3648 120.806V120.806Z" fill="#A85A49"/>
<path fill-rule="evenodd" clip-rule="evenodd" d="M95.3795 117.748C98.2874 117.448 101.17 116.939 104.004 116.223C103.458 117.603 103.048 119.033 102.782 120.493V120.613C102.565 121.753 102.388 122.845 102.171 123.824C100.789 122.493 99.1478 121.46 97.3488 120.79C94.9854 119.851 92.4728 119.343 89.9299 119.289C87.9407 119.253 85.9559 119.488 84.0302 119.987C83.8119 120.047 83.5972 120.12 83.3872 120.204C82.4798 118.802 81.7049 117.319 81.0723 115.774C83.3631 117.186 86.4013 117.804 89.6164 117.933C91.5394 118.008 93.4653 117.946 95.3795 117.748V117.748Z" fill="#EE8B83"/>
<path fill-rule="evenodd" clip-rule="evenodd" d="M84.4562 36.3316C77.1257 37.0906 70.0657 39.5119 63.8152 43.4106C55.5765 48.6998 48.2701 57.4482 44.1467 71.6463C43.1661 74.9932 42.1213 78.0672 41.0201 80.8522C36.2698 92.8913 30.3942 100.115 24.2935 104.65C21.4827 106.714 18.3885 108.363 15.1063 109.545C15.1706 109.337 15.2349 109.136 15.2831 108.951C23.4174 81.4943 15.1385 22.5428 68.1234 18.2408C87.4703 16.6757 99.5752 22.904 105.748 30.3522C106.705 31.4999 113.738 45.3368 111.56 45.4412C108.947 45.5535 108.168 33.5465 84.4562 36.3316Z" fill="#791B12"/>
<path fill-rule="evenodd" clip-rule="evenodd" d="M105.475 81.406C105.241 81.406 105.013 81.4752 104.818 81.6049C104.624 81.7345 104.473 81.9188 104.383 82.1344C104.294 82.3499 104.27 82.5872 104.316 82.816C104.362 83.0449 104.474 83.2551 104.639 83.4201C104.805 83.5851 105.015 83.6975 105.244 83.743C105.474 83.7885 105.711 83.7652 105.927 83.6759C106.143 83.5866 106.327 83.4354 106.457 83.2413C106.587 83.0473 106.656 82.8192 106.656 82.5859C106.656 82.2729 106.532 81.9728 106.31 81.7516C106.089 81.5303 105.788 81.406 105.475 81.406V81.406Z" fill="white"/>
<path fill-rule="evenodd" clip-rule="evenodd" d="M71.7485 86.326C71.5148 86.326 71.2863 86.3952 71.092 86.5248C70.8977 86.6545 70.7463 86.8387 70.6569 87.0543C70.5675 87.2699 70.544 87.5071 70.5896 87.736C70.6352 87.9649 70.7478 88.1751 70.913 88.3401C71.0783 88.5051 71.2888 88.6175 71.518 88.663C71.7471 88.7085 71.9847 88.6852 72.2006 88.5959C72.4165 88.5066 72.601 88.3553 72.7309 88.1613C72.8607 87.9673 72.93 87.7392 72.93 87.5058C72.93 87.1929 72.8055 86.8928 72.5839 86.6716C72.3624 86.4503 72.0618 86.326 71.7485 86.326Z" fill="white"/>
<path fill-rule="evenodd" clip-rule="evenodd" d="M96.3922 33.081C74.1598 29.3248 55.0058 39.5019 45.6016 60.0406C40.6986 70.7393 37.0896 89.0548 31.5757 97.4983C28.2481 102.587 25.5635 103.67 19.8888 104.954L22.6056 105.099C30.1209 104.545 34.5497 96.9766 37.2584 90.8768C44.3959 74.8246 47.1368 56.2202 61.3074 43.8119C71.9173 34.5257 83.2746 34.2769 96.3922 33.081Z" fill="#A85A49"/>
<path fill-rule="evenodd" clip-rule="evenodd" d="M97.2121 30.617C83.0013 26.1625 61.0421 23.1447 48.2701 32.7038C36.8243 41.2756 32.6528 57.4321 31.4551 70.627C30.5549 80.8442 29.8476 85.5153 25.6036 94.8657C24.4048 97.4501 22.8903 99.8764 21.0945 102.089C23.554 100.259 24.0443 99.8579 25.7403 97.2735C30.1048 90.5878 32.6528 82.1845 33.6897 74.4634C35.249 62.8577 36.4144 55.4818 42.2981 44.9676C54.7646 22.6391 75.8879 29.2365 97.2121 30.617Z" fill="#A85A49"/>
<path fill-rule="evenodd" clip-rule="evenodd" d="M84.0543 236.068C85.2599 226.967 80.2845 213.652 74.0955 201.219C71.2501 195.521 68.1556 189.983 65.2539 185.167C59.3864 175.311 54.4271 168.312 54.4271 168.312L54.7405 162.951C55.8658 164.404 61.444 171.635 67.9064 180.295L68.9433 181.684C78.2189 194.148 88.8769 209.021 90.7336 213.892C93.7076 221.734 94.3105 236.919 86.9961 242.072C85.5796 243.025 83.9406 243.598 82.2377 243.733C83.1053 241.247 83.714 238.679 84.0543 236.068V236.068Z" fill="#DC9576"/>
<path fill-rule="evenodd" clip-rule="evenodd" d="M194.164 86.2778C194.372 79.7286 190.683 71.229 188.875 71.8309C187.066 72.4329 190.78 81.2294 190.78 81.2294C190.78 81.2294 184.165 74.8808 181.536 76.7991C178.908 78.7173 193.103 88.6295 194.164 86.2778Z" fill="#A7672A"/>
<path fill-rule="evenodd" clip-rule="evenodd" d="M122.772 237.28C113.456 245.499 104.952 257.273 104.952 257.273C104.952 257.273 76.2978 277.668 62.1754 291.785L37.8853 316H115.948C121.84 309.435 136.412 292.54 140.327 281.913C145.262 268.494 154.875 255.355 154.875 255.355L122.772 237.28Z" fill="#E6B495"/>
<path fill-rule="evenodd" clip-rule="evenodd" d="M302.135 237.28C311.459 245.499 319.955 257.273 319.955 257.273C319.955 257.273 348.609 277.668 362.732 291.785L386.998 316.016H308.959C303.067 309.451 288.495 292.556 284.588 281.929C279.653 268.51 270.04 255.371 270.04 255.371L302.135 237.28Z" fill="#E6B495"/>
<path fill-rule="evenodd" clip-rule="evenodd" d="M236.418 183.754C240.316 184.092 245.887 183.016 251.746 185.295C257.983 187.733 263.946 190.822 269.534 194.509C271.358 195.713 274.163 195.769 275.867 197.118C277.571 198.466 277.997 200.954 279.452 202.351C282.642 205.334 285.394 208.752 287.627 212.504C291.86 220.005 296.662 227.172 301.99 233.941C304.353 236.879 306.339 239.68 306.339 239.68C306.339 239.68 288.72 241.526 284.331 258.501C279.943 275.476 280.497 280.404 280.497 280.404L271.72 266.166L266.897 316H159.489L154.666 266.166L145.897 280.404C145.897 280.404 146.443 275.476 142.055 258.501C137.666 241.526 120.674 238.243 120.674 238.243C120.674 238.243 128.35 230.579 138.775 212.504C146.524 199.052 164.006 188.939 177.63 184.196C182.316 182.591 186.343 184.035 189.566 183.754H236.418Z" fill="#138175"/>
<path fill-rule="evenodd" clip-rule="evenodd" d="M250.822 184.942C251.127 185.047 251.433 185.151 251.746 185.271C252.494 185.568 253.249 185.873 254.013 186.194C255.323 215.49 238.628 230.258 212.015 238.918C207.659 240.338 209.604 239.881 205.063 240.419C207.333 239.791 209.55 238.986 211.694 238.011C236.9 227.794 253.056 214.88 250.765 185.512C250.748 185.32 250.768 185.127 250.822 184.942Z" fill="#2B5250"/>
<path fill-rule="evenodd" clip-rule="evenodd" d="M172.261 204.951C177.365 219.029 187.428 225.771 200.329 232.344C203.058 233.783 205.877 235.046 208.768 236.125C195.024 226.236 181.175 222.023 175.347 204.06C175.229 203.652 174.954 203.307 174.582 203.101C174.21 202.895 173.771 202.844 173.362 202.961C173.158 203.019 172.969 203.117 172.803 203.248C172.638 203.38 172.5 203.543 172.397 203.728C172.295 203.913 172.23 204.116 172.207 204.326C172.183 204.536 172.202 204.748 172.261 204.951Z" fill="#2B5250"/>
<path fill-rule="evenodd" clip-rule="evenodd" d="M275.369 272.097L271.72 266.166L271.463 268.783C270.22 265.851 268.811 262.991 267.243 260.219C262.179 251.27 262.284 249.929 264.269 239.784C265.873 231.031 268.503 222.497 272.106 214.358C271.862 216.439 271.41 218.491 270.755 220.482C268.818 226.927 267.354 233.504 266.375 240.162C264.904 249.665 264.767 250.596 269.694 258.766C271.939 262.516 273.928 266.412 275.65 270.428C275.764 270.705 275.798 271.008 275.748 271.303C275.698 271.598 275.567 271.873 275.369 272.097V272.097Z" fill="#2B5250"/>
<path fill-rule="evenodd" clip-rule="evenodd" d="M154.899 268.767L154.642 266.166L152.825 269.128C152.56 268.976 152.344 268.752 152.201 268.482C152.059 268.212 151.997 267.907 152.022 267.603C153.766 254.039 158.918 241.919 156.418 228.018C155.767 224.431 155.397 225.113 156.089 221.75C156.643 225.177 156.531 224.11 157.56 227.753C161.337 241.133 156.467 254.544 155.221 267.884C155.204 268.204 155.092 268.511 154.899 268.767V268.767Z" fill="#2B5250"/>
<path fill-rule="evenodd" clip-rule="evenodd" d="M299.587 230.843C300.391 231.887 301.09 232.818 301.741 233.637C298.413 235.362 288.406 236.397 283.929 239.744C282.161 241.061 279.693 249.376 278.97 251.984C277.901 255.893 276.928 260.508 275.602 264.256C275.305 260.155 277.25 249.632 278.624 245.595C279.886 241.887 280.232 238.781 283.728 236.67C288.572 233.69 293.964 231.709 299.587 230.843V230.843Z" fill="#2B5250"/>
<path fill-rule="evenodd" clip-rule="evenodd" d="M123.174 235.402C123.809 234.64 124.557 233.725 125.392 232.649C132.104 235.057 142.336 239.319 143.453 241.309C145.415 244.793 151.547 258.164 151.596 261.591C148.276 255.17 144.699 248.862 141.347 242.449C138.888 240.627 128.969 237.336 123.174 235.402Z" fill="#2B5250"/>
<path fill-rule="evenodd" clip-rule="evenodd" d="M253.571 186.034C253.571 186.732 253.619 187.43 253.619 188.137C253.619 211.725 235.084 230.851 212.216 230.851C189.349 230.851 170.814 211.725 170.814 188.137C170.814 187.711 170.814 187.334 170.814 186.877C189.453 178.658 234.891 178.281 253.571 186.034Z" fill="#2B5250"/>
<path fill-rule="evenodd" clip-rule="evenodd" d="M188.706 182.005C184.767 175.897 180.821 175.76 178.9 177.406C177.923 178.212 177.007 179.089 176.159 180.03C176.159 180.03 171.087 178.61 169.576 179.485C168.065 180.359 166.562 183.313 166.562 183.313C166.562 183.313 163.001 182.438 161.353 184.075C160.432 184.948 159.687 185.989 159.159 187.141C159.159 187.141 156.691 186.844 155.052 190.127C153.412 193.41 150.936 205.634 152.44 206.508C153.943 207.383 157.31 204.542 157.31 204.542C157.31 204.542 155.888 209.358 159.553 209.911C163.218 210.465 163.789 204.293 163.789 204.293C164.102 211.942 169.255 209.984 170.983 203.426C170.645 205.625 169.914 208.836 170.356 209.045C175.468 211.26 176.046 205.192 177.091 202.19C179.454 195.408 183.907 183.008 183.907 183.008C185.533 182.814 187.139 182.478 188.706 182.005V182.005Z" fill="#EDCBAB"/>
<path fill-rule="evenodd" clip-rule="evenodd" d="M156.322 205.505C156.438 206.166 156.714 206.789 157.126 207.319C158.154 201.075 160.276 192.728 160.501 191.805C160.544 191.516 160.475 191.223 160.309 190.984C160.142 190.744 159.891 190.577 159.606 190.516C159.321 190.454 159.023 190.504 158.773 190.654C158.523 190.804 158.339 191.043 158.259 191.323C158.259 191.516 156.973 198.763 156.29 205.505H156.322ZM163.636 206.067L163.789 205.898C164.079 206.168 164.382 206.422 164.697 206.661C164.986 198.145 166.972 194.574 167.96 186.499C167.978 186.196 167.875 185.898 167.673 185.671C167.471 185.444 167.187 185.306 166.883 185.287C164.601 185.151 163.725 199.823 163.668 206.067H163.636ZM170.613 206.26C170.945 205.594 171.24 204.911 171.497 204.213C171.634 204.414 175.428 187.824 176.601 183.762C176.601 183.458 176.48 183.166 176.264 182.951C176.049 182.736 175.756 182.615 175.452 182.615C175.147 182.615 174.854 182.736 174.639 182.951C174.423 183.166 174.302 183.458 174.302 183.762C172.003 191.861 169.865 198.587 170.613 206.26V206.26Z" fill="#DC9576"/>
<path fill-rule="evenodd" clip-rule="evenodd" d="M244.986 172.67C239.038 189.726 235.831 198.916 234.111 203.86C229.907 215.899 216.324 219.543 204.677 216.477C191.278 212.945 186.094 203.763 185.949 191.419L185.483 150.214L244.986 172.67Z" fill="#DC9576"/>
<path fill-rule="evenodd" clip-rule="evenodd" d="M244.986 172.67L237.375 194.509C232.616 198.225 227.729 201.54 225.591 202.463C218.735 205.433 198.874 201.789 193.521 196.58C191.961 195.055 188.859 190.673 185.885 185.849L185.483 150.214L244.986 172.67Z" fill="#A85A49"/>
<path fill-rule="evenodd" clip-rule="evenodd" d="M255.202 141.794C257.983 137.861 260.901 135.927 263.554 135.919C276.945 135.919 269.027 164.066 254.286 158.52C244.874 154.989 255.202 141.794 255.202 141.794Z" fill="#DC9576"/>
<path fill-rule="evenodd" clip-rule="evenodd" d="M257.59 144.387C259.117 142.22 260.716 141.176 262.179 141.176C269.534 141.176 265.185 156.642 257.083 153.592C251.907 151.634 257.59 144.387 257.59 144.387Z" fill="#A85A49"/>
<path fill-rule="evenodd" clip-rule="evenodd" d="M188.545 129.562C187.348 124.899 185.33 122.05 182.83 121.103C170.316 116.335 167.687 145.462 183.441 145.526C193.504 145.558 188.545 129.562 188.545 129.562Z" fill="#DC9576"/>
<path fill-rule="evenodd" clip-rule="evenodd" d="M185.394 131.168C184.735 128.607 183.61 127.042 182.252 126.521C175.379 123.904 173.932 139.908 182.589 139.94C188.119 139.932 185.394 131.168 185.394 131.168Z" fill="#A85A49"/>
<path fill-rule="evenodd" clip-rule="evenodd" d="M266.423 115.212C254.495 167.325 254.278 169.251 250.348 174.565C246.417 179.878 232.158 190.432 228.091 192.222C221.235 195.192 201.373 191.548 196.02 186.339C192.853 183.249 183.305 168.336 181.496 161.956C179.688 155.575 180.17 153.705 187.581 100.757C195.345 67.7135 270.892 81.5826 266.423 115.212Z" fill="#E6B495"/>
<path fill-rule="evenodd" clip-rule="evenodd" d="M201.767 125.734C204.291 126.191 206.027 129.273 205.65 132.62C205.272 135.967 202.909 138.311 200.385 137.853C197.861 137.396 196.117 134.306 196.503 130.959C196.888 127.612 199.235 125.276 201.767 125.734V125.734ZM243.925 133.471C241.466 133.014 238.757 135.349 237.873 138.696C236.989 142.043 238.267 145.117 240.718 145.582C243.17 146.048 245.887 143.704 246.771 140.357C247.655 137.011 246.385 133.929 243.925 133.471Z" fill="white"/>
<path fill-rule="evenodd" clip-rule="evenodd" d="M241.056 132.644C238.556 132.187 236.032 134.531 235.429 137.877C234.827 141.224 236.338 144.298 238.829 144.764C241.321 145.229 243.845 142.878 244.456 139.531C245.067 136.184 243.548 133.102 241.056 132.644Z" fill="#172041"/>
<path fill-rule="evenodd" clip-rule="evenodd" d="M238.829 134.787C242.808 132.099 246.578 135.855 248.418 139.354C248.965 135.429 243.097 130.14 237.672 133.23C237.561 133.303 237.467 133.397 237.394 133.508C237.321 133.618 237.271 133.742 237.248 133.872C237.225 134.003 237.229 134.136 237.259 134.265C237.29 134.394 237.346 134.515 237.425 134.621C237.504 134.727 237.604 134.816 237.718 134.882C237.833 134.949 237.96 134.991 238.091 135.006C238.223 135.022 238.356 135.011 238.483 134.973C238.61 134.935 238.728 134.872 238.829 134.787V134.787Z" fill="#D48B70"/>
<path fill-rule="evenodd" clip-rule="evenodd" d="M205.071 126.039C207.571 126.496 209.09 129.578 208.479 132.925C207.868 136.272 205.336 138.616 202.852 138.158C200.369 137.701 198.834 134.619 199.452 131.272C200.071 127.925 202.555 125.549 205.071 126.039Z" fill="#172041"/>
<path fill-rule="evenodd" clip-rule="evenodd" d="M206.389 128.84C203.624 124.915 198.769 127.082 195.803 129.699C196.687 125.846 204.05 122.981 208.029 127.789C208.124 128 208.141 128.238 208.076 128.46C208.011 128.682 207.869 128.874 207.675 129.001C207.481 129.128 207.248 129.181 207.018 129.152C206.789 129.122 206.577 129.012 206.421 128.84H206.389Z" fill="#D48B70"/>
<path fill-rule="evenodd" clip-rule="evenodd" d="M235.775 163.97L198.801 157.188C198.665 170.993 206.887 173.923 214.073 175.648C222.344 177.655 233.034 174.123 235.775 163.97Z" fill="white"/>
<path fill-rule="evenodd" clip-rule="evenodd" d="M258.12 105.861C249.897 95.1788 234.811 90.5317 215.898 95.1788C196.985 99.8258 195.329 86.4223 195.329 86.4223C195.329 86.4223 217.015 72.7298 234.007 75.4667C250.999 78.2036 261.986 89.9779 258.12 105.861Z" fill="#885312"/>
<path fill-rule="evenodd" clip-rule="evenodd" d="M273.778 112.499C272.974 122.933 258.972 147.268 258.972 147.268L260.338 129.201C260.338 129.201 256.368 124.546 254.993 115.236C253.619 105.926 252.799 92.8512 241.972 88.3405C231.145 83.8299 222.641 89.2956 214.137 93.6779C208.927 96.3027 203.018 97.213 197.258 96.2783C197.258 96.2783 199.999 101.479 197.941 102.699C195.884 103.919 193.818 96.1419 193.818 96.1419C193.818 96.1419 193.681 106.576 190.804 111.199C187.926 115.822 183.706 130.365 183.706 130.365C183.706 130.365 180.411 92.8512 182.469 87.3774C184.526 81.9036 191.407 82.4494 191.407 82.4494C191.407 82.4494 198.263 68.7569 212.104 67.256C225.945 65.7552 235.55 70.5387 235.55 70.5387C235.55 70.5387 278.849 70.6751 273.778 112.499Z" fill="#A7672A"/>
<path fill-rule="evenodd" clip-rule="evenodd" d="M208.672 114.73C202.587 114.176 201.711 114.056 196.937 116.777C201.695 117.459 202.426 117.05 207.016 118.422C208.439 118.751 209.958 118.189 210.416 117.17C210.874 116.151 210.094 115.059 208.672 114.73Z" fill="#885312"/>
<path fill-rule="evenodd" clip-rule="evenodd" d="M241.763 119.61C247.671 121.127 248.555 121.312 251.127 125.301C246.305 124.337 245.935 123.735 240.847 123.439C239.336 123.262 238.315 122.267 238.572 121.207C238.829 120.148 240.252 119.434 241.763 119.61Z" fill="#885312"/>
<path fill-rule="evenodd" clip-rule="evenodd" d="M299.86 288.19C299.86 288.19 310.912 304.057 331.802 316H308.959C303.067 309.435 288.495 292.54 284.588 281.913C283.549 279.132 282.368 276.405 281.052 273.743C281.574 270.348 282.539 265.428 284.331 258.493C287.804 245.058 299.177 240.202 303.767 238.757C304.442 239.391 305.117 240.033 305.776 240.691C293.776 247.393 291.549 257.851 290.4 264.368C289.667 268.431 289.397 272.565 289.596 276.688L299.86 288.19Z" fill="#DC9576"/>
<path fill-rule="evenodd" clip-rule="evenodd" d="M140.327 281.913C136.412 292.54 121.84 309.435 115.948 316H91.3365C112.235 304.057 123.279 288.19 123.279 288.19L133.535 276.696C133.734 272.581 133.464 268.455 132.731 264.4C131.622 258.084 129.516 248.091 118.472 241.374C119.453 240.386 120.465 239.407 121.478 238.468C124.967 239.391 138.221 243.83 142.023 258.533C143.461 264.152 144.37 268.381 144.94 271.608C143.195 274.947 141.654 278.388 140.327 281.913V281.913Z" fill="#DC9576"/>
<path fill-rule="evenodd" clip-rule="evenodd" d="M212.683 148.825C215.472 150.35 218.02 152.035 222.617 151.787C227.215 151.538 222.834 154.853 220.206 155.479C217.578 156.105 211.252 153.745 212.683 148.825Z" fill="#D48B70"/>
<path fill-rule="evenodd" clip-rule="evenodd" d="M218.622 151.233C211.388 149.499 214.604 147.493 216.693 139.844L215.287 142.179C211.461 149.026 211.429 151.096 217.851 153.135C218.357 153.231 223.477 152.991 223.678 152.461C223.879 151.931 219.129 151.297 218.622 151.233Z" fill="#EE8B83"/>
<path fill-rule="evenodd" clip-rule="evenodd" d="M227.062 168.986C228.734 169.112 230.398 168.649 231.764 167.678C233.118 166.699 234.154 165.346 234.746 163.786L235.775 163.97C235.353 165.555 234.695 167.068 233.822 168.457C232.796 170.07 231.479 171.479 229.94 172.614C229.94 172.55 229.98 172.486 229.996 172.43C230.406 170.736 223.413 168.73 223.413 168.73L227.062 168.986Z" fill="#EE8B83"/>
<path fill-rule="evenodd" clip-rule="evenodd" d="M204.629 164.412C207.932 165.72 208.021 165.768 208.021 165.768C208.021 165.768 200.859 164.532 200.489 166.234C200.485 166.29 200.485 166.346 200.489 166.402C199.296 163.482 198.748 160.339 198.882 157.188L200.015 157.397C199.997 158.892 200.426 160.359 201.248 161.608C202.07 162.858 203.247 163.834 204.629 164.412V164.412Z" fill="#EE8B83"/>
<path fill-rule="evenodd" clip-rule="evenodd" d="M207.538 177.157C210.335 178.682 212.883 180.367 217.473 180.119C222.063 179.87 217.69 183.177 215.062 183.811C212.433 184.445 206.108 182.077 207.538 177.157Z" fill="#D48B70"/>
<path fill-rule="evenodd" clip-rule="evenodd" d="M238.942 135.181C238.706 135.179 238.476 135.247 238.279 135.377C238.082 135.507 237.928 135.691 237.837 135.908C237.746 136.125 237.721 136.364 237.766 136.595C237.811 136.826 237.924 137.039 238.09 137.206C238.256 137.373 238.468 137.486 238.699 137.533C238.93 137.579 239.169 137.556 239.387 137.467C239.605 137.377 239.791 137.225 239.922 137.029C240.054 136.834 240.124 136.604 240.124 136.369C240.125 136.213 240.095 136.059 240.036 135.915C239.977 135.771 239.89 135.639 239.78 135.529C239.67 135.419 239.54 135.331 239.396 135.271C239.252 135.211 239.098 135.181 238.942 135.181V135.181Z" fill="white"/>
<path fill-rule="evenodd" clip-rule="evenodd" d="M201.928 128.013C201.694 128.013 201.466 128.083 201.272 128.212C201.077 128.342 200.926 128.526 200.836 128.742C200.747 128.957 200.724 129.195 200.769 129.423C200.815 129.652 200.927 129.862 201.093 130.027C201.258 130.192 201.468 130.305 201.698 130.35C201.927 130.396 202.164 130.373 202.38 130.283C202.596 130.194 202.781 130.043 202.91 129.849C203.04 129.655 203.11 129.427 203.11 129.193C203.11 128.88 202.985 128.58 202.764 128.359C202.542 128.138 202.241 128.013 201.928 128.013Z" fill="white"/>
<path fill-rule="evenodd" clip-rule="evenodd" d="M242.495 296.746C226.467 297.155 190.924 300.486 177.469 290.878C175.114 289.201 173.354 287.588 170.725 286.231C172.629 288.171 174.636 290.006 176.738 291.729C189.984 302.613 226.041 299.98 242.495 299.956C242.921 299.956 243.33 299.787 243.631 299.486C243.933 299.185 244.102 298.776 244.102 298.351C244.102 297.925 243.933 297.517 243.631 297.216C243.33 296.915 242.921 296.746 242.495 296.746Z" fill="#3E4157"/>
<path fill-rule="evenodd" clip-rule="evenodd" d="M227.376 300.205C233.187 300.124 238.436 299.956 242.495 299.956C242.921 299.956 243.33 299.787 243.631 299.486C243.933 299.185 244.102 298.776 244.102 298.351C244.102 297.925 243.933 297.517 243.631 297.216C243.33 296.915 242.921 296.745 242.495 296.745C238.717 296.842 233.854 297.099 228.445 297.315C210.93 298.006 187.749 298.222 177.469 290.895C175.114 289.217 173.354 287.604 170.725 286.247C172.629 288.187 174.636 290.023 176.738 291.745C186.713 299.94 209.644 300.47 227.376 300.221V300.205ZM229.168 295.389C237.391 294.803 244.544 294.049 248.459 293.696C259.02 292.732 260.797 275.838 263.329 251.695C263.867 254.015 265.081 256.439 267.235 260.243C268.803 263.016 270.211 265.875 271.455 268.807L266.873 316.024H159.489L157.415 294.755C160.357 298.872 164.561 302.292 170.525 303.142C187.798 305.606 212.273 304.788 190.675 300.47C169.078 296.152 162.913 281.576 162.913 281.576C170.269 285.956 177.893 289.87 185.74 293.294C194.34 297.018 213.655 296.505 229.184 295.365L229.168 295.389Z" fill="#2B5250"/>
<path fill-rule="evenodd" clip-rule="evenodd" d="M119.067 241.727C115.411 246.637 112.161 251.837 109.349 257.273C109.349 257.273 85.2359 277.668 74.208 291.785L55.3112 316.016H37.8854L62.1755 291.769C76.2978 277.668 104.952 257.257 104.952 257.257C109.094 251.648 113.613 246.328 118.48 241.334L119.067 241.727Z" fill="#F5E2CE"/>
<path fill-rule="evenodd" clip-rule="evenodd" d="M319.955 257.273C319.955 257.273 339.679 271.311 354.461 284.145C357.499 286.777 360.328 289.37 362.732 291.769L381.218 310.229L386.957 315.96H369.339L350.723 292.018L350.498 291.729C339.535 277.627 315.445 257.217 315.445 257.217C313.246 252.941 310.779 248.807 308.059 244.841C307.488 244.038 306.893 243.188 306.282 242.361C305.929 241.887 305.575 241.414 305.205 240.94L305.736 240.643L306.636 241.542C307.303 242.216 307.962 242.907 308.605 243.589C312.646 247.931 316.435 252.5 319.955 257.273V257.273Z" fill="#F5E2CE"/>
<path fill-rule="evenodd" clip-rule="evenodd" d="M250.01 105.877C248.161 99.4085 234.891 94.1755 216.902 96.4308C208.913 97.4341 203.359 97.2334 199.501 96.5592C202.036 96.7448 204.585 96.5937 207.08 96.1098C210.058 96.2651 213.042 95.9509 215.922 95.1787C230.792 91.5188 243.331 93.6217 251.995 99.866C253.756 104.882 254.302 110.525 254.993 115.204C255.38 117.91 256.07 120.565 257.051 123.117C253.916 117.901 251.441 110.878 250.01 105.877Z" fill="#DC9576"/>
<path fill-rule="evenodd" clip-rule="evenodd" d="M268.931 101.768C265.764 87.1206 250.251 75.2019 235.172 77.2726C224.932 78.6772 217.489 83.0433 208.262 86.013C202.081 88.0115 199.927 87.0243 194.445 87.859C194.394 87.8643 194.344 87.8808 194.3 87.9071C194.18 87.9794 194.678 88.164 194.702 88.172C198.303 89.3599 205.039 88.8703 208.841 87.9312C221.347 84.8572 235.365 77.0158 248.7 82.008C258.924 85.8364 263.626 92.9555 268.931 101.768Z" fill="#C07D19"/>
<path fill-rule="evenodd" clip-rule="evenodd" d="M259.728 144.354C262.139 141.417 264.365 139.948 266.455 145.157C266.584 144.852 266.624 144.876 266.56 144.587C265.37 139.491 262.766 140.061 260.258 142.043C260.089 142.854 259.921 143.616 259.728 144.354Z" fill="#823B2F"/>
<path fill-rule="evenodd" clip-rule="evenodd" d="M183.674 128.407C182.71 126.561 181.142 125.293 178.924 126.336C177.413 127.05 176.963 128.367 176.81 129.892C180.025 124.634 182.919 127.436 183.176 132.034C183.369 130.879 183.505 129.675 183.674 128.407Z" fill="#823B2F"/>
<path fill-rule="evenodd" clip-rule="evenodd" d="M188.928 44.326L190.928 51.6197C190.984 51.8568 190.947 52.1064 190.825 52.3171C190.703 52.5279 190.504 52.6838 190.271 52.7528C190.105 52.7982 189.931 52.7982 189.766 52.7528L182.213 50.6675C179.873 52.1858 177.298 53.3086 174.593 53.9906C171.748 54.6945 168.804 54.907 165.888 54.6191H165.811C159.125 53.936 152.983 50.6309 148.73 45.4281C144.477 40.2254 142.461 33.5493 143.124 26.8631V26.7774C143.819 20.095 147.133 13.9599 152.342 9.71456C157.551 5.46926 164.229 3.45949 170.917 4.12504H171.002C177.688 4.81732 183.826 8.13012 188.073 13.3379C192.32 18.5456 194.33 25.2237 193.661 31.9096C193.423 34.1939 192.879 36.4358 192.042 38.5748C191.259 40.6194 190.212 42.5529 188.928 44.326V44.326Z" fill="#DCE0EA"/>
<path fill-rule="evenodd" clip-rule="evenodd" d="M449.661 79.148L448.571 83.1442C448.552 83.2107 448.547 83.2802 448.555 83.3487C448.564 83.4172 448.586 83.4833 448.621 83.5431C448.655 83.6029 448.701 83.6553 448.756 83.6971C448.81 83.739 448.873 83.7695 448.94 83.7868C449.029 83.813 449.123 83.813 449.212 83.7868V83.7868L453.353 82.6425C454.636 83.4799 456.051 84.0958 457.537 84.4646C459.094 84.8544 460.706 84.9705 462.302 84.8079H462.355C466.017 84.4256 469.379 82.6075 471.707 79.7508C474.034 76.8941 475.138 73.2311 474.776 69.5622C474.776 69.5622 474.776 69.5622 474.776 69.5094C474.401 65.8363 472.585 62.4627 469.727 60.1303C466.868 57.7979 463.201 56.6977 459.533 57.0716H459.489C455.826 57.4561 452.464 59.276 450.137 62.1341C447.809 64.9922 446.706 68.6562 447.067 72.3261V72.3261C447.189 73.5873 447.485 74.8256 447.946 76.0055C448.384 77.1208 448.96 78.1766 449.661 79.148V79.148Z" fill="#EC7C7F"/>
<path fill-rule="evenodd" clip-rule="evenodd" d="M467.629 66.1557C466.893 65.4209 465.896 65.0083 464.856 65.0083C463.816 65.0083 462.819 65.4209 462.082 66.1557L460.887 67.344L459.718 66.1557C458.981 65.4209 457.984 65.0083 456.944 65.0083C455.904 65.0083 454.907 65.4209 454.17 66.1557V66.1557C453.806 66.5195 453.517 66.9517 453.32 67.4275C453.123 67.9033 453.022 68.4133 453.022 68.9284C453.022 69.4435 453.123 69.9535 453.32 70.4293C453.517 70.9051 453.806 71.3373 454.17 71.7011L455.366 72.8983L460.904 78.4526L466.451 72.8983L467.647 71.7011C468.01 71.3361 468.298 70.903 468.493 70.4266C468.689 69.9502 468.789 69.4399 468.787 68.9248C468.785 68.4097 468.682 67.8999 468.484 67.4248C468.285 66.9496 467.995 66.5184 467.629 66.1557Z" fill="white"/>
<path fill-rule="evenodd" clip-rule="evenodd" d="M186.197 41.5099L188.254 49.0095C188.289 49.1349 188.298 49.2659 188.282 49.395C188.266 49.5241 188.224 49.6487 188.16 49.7617C188.095 49.8746 188.009 49.9736 187.906 50.053C187.803 50.1324 187.685 50.1906 187.56 50.2242C187.39 50.2682 187.211 50.2682 187.041 50.2242V50.2242L179.279 48.0676C174.318 51.3002 168.402 52.7353 162.514 52.1343H162.435C155.56 51.4298 149.245 48.0228 144.876 42.6611C140.507 37.2994 138.44 30.421 139.131 23.5355C139.127 23.5063 139.127 23.4766 139.131 23.4474C139.839 16.5682 143.242 10.2506 148.594 5.87973C153.946 1.50881 160.811 -0.558847 167.684 0.130007H167.771C174.643 0.841089 180.952 4.25053 185.317 9.61121C189.682 14.9719 191.747 21.8466 191.059 28.7288V28.7288C190.593 33.3199 188.915 37.7041 186.197 41.4307V41.5099Z" fill="#EC7C7F"/>
<path d="M165.333 42.6305C162.595 42.6324 159.901 41.9428 157.501 40.6258C155.101 39.3088 153.074 37.4071 151.607 35.0975C150.139 32.7878 149.28 30.145 149.109 27.4148C148.938 24.6845 149.461 21.9553 150.628 19.4808C151.795 17.0063 153.569 14.8667 155.786 13.2609C158.003 11.655 160.589 10.635 163.306 10.2957C166.023 9.95628 168.781 10.3085 171.325 11.3197C173.869 12.3308 176.116 13.968 177.858 16.0792C178.408 16.7446 178.671 17.6011 178.589 18.4602C178.507 19.3194 178.087 20.1109 177.421 20.6606C176.755 21.2103 175.898 21.4732 175.038 21.3915C174.178 21.3097 173.386 20.89 172.836 20.2246C171.556 18.6721 169.826 17.5543 167.884 17.0253C165.942 16.4963 163.883 16.5821 161.992 17.2709C160.101 17.9597 158.47 19.2175 157.324 20.8712C156.178 22.5248 155.574 24.4927 155.594 26.5039C155.615 28.5151 156.259 30.4704 157.438 32.1005C158.617 33.7306 160.273 34.9552 162.178 35.6055C164.083 36.2559 166.143 36.3 168.074 35.7318C170.005 35.1636 171.712 34.0111 172.96 32.433C173.225 32.098 173.554 31.8185 173.928 31.6106C174.302 31.4026 174.713 31.2702 175.137 31.221C175.562 31.1717 175.993 31.2066 176.404 31.3235C176.816 31.4405 177.2 31.6373 177.535 31.9026C177.87 32.168 178.15 32.4967 178.358 32.8701C178.566 33.2434 178.699 33.6541 178.748 34.0786C178.797 34.5031 178.763 34.9332 178.646 35.3442C178.528 35.7553 178.332 36.1392 178.066 36.4742C176.55 38.398 174.615 39.9519 172.409 41.0185C170.203 42.085 167.783 42.6363 165.333 42.6305Z" fill="white"/>
<path d="M177.952 16.0792C176.425 14.2311 174.508 12.7429 172.337 11.7213C170.167 10.6997 167.797 10.1699 165.398 10.1699C162.999 10.1699 160.629 10.6997 158.459 11.7213C156.288 12.7429 154.371 14.2311 152.844 16.0792C152.293 16.7452 152.03 17.6026 152.112 18.4627C152.194 19.3228 152.615 20.1151 153.282 20.6654C153.949 21.2157 154.807 21.4788 155.669 21.397C156.53 21.3151 157.324 20.895 157.875 20.2289C158.995 18.8708 160.463 17.8418 162.123 17.2518V26.3721C162.123 27.2359 162.466 28.0644 163.078 28.6753C163.69 29.2861 164.52 29.6293 165.385 29.6293C166.25 29.6293 167.08 29.2861 167.692 28.6753C168.304 28.0644 168.647 27.2359 168.647 26.3721V17.2518C170.312 17.8398 171.785 18.8689 172.908 20.2289C173.459 20.895 174.253 21.3151 175.114 21.397C175.976 21.4788 176.834 21.2157 177.501 20.6654C178.168 20.1151 178.589 19.3228 178.671 18.4627C178.753 17.6026 178.49 16.7452 177.939 16.0792H177.952Z" fill="white"/>
<path d="M176.841 29.6298C178.647 29.6298 180.112 28.1653 180.112 26.3586C180.112 24.552 178.647 23.0875 176.841 23.0875C175.034 23.0875 173.569 24.552 173.569 26.3586C173.569 28.1653 175.034 29.6298 176.841 29.6298Z" fill="white"/>
</svg>
