<svg width="803" height="768" viewBox="0 0 803 768" fill="none" xmlns="http://www.w3.org/2000/svg">
<g opacity="0.1">
<path d="M419.61 803.443C348.945 803.508 279.41 785.71 217.466 751.702C155.523 717.693 103.181 668.578 65.305 608.921C27.429 549.264 5.24797 481 0.822859 410.474C-3.60226 339.947 9.87221 269.446 39.9942 205.523C70.1163 141.599 115.908 86.3268 173.115 44.8424C230.322 3.35793 297.087 -22.9926 367.206 -31.7604C437.325 -40.5283 508.523 -31.429 574.183 -5.30821C639.844 20.8126 697.836 63.1074 742.771 117.646C749.885 126.144 755.248 135.965 758.552 146.544C761.856 157.123 763.035 168.251 762.021 179.288C761.008 190.324 757.821 201.052 752.646 210.852C747.47 220.652 740.408 229.332 731.865 236.392C723.321 243.453 713.466 248.753 702.866 251.99C692.266 255.227 681.131 256.335 670.101 255.251C659.072 254.167 648.365 250.913 638.598 245.675C628.83 240.438 620.195 233.32 613.189 224.732C580.166 184.622 535.516 155.741 485.392 142.069C435.267 128.397 382.137 130.607 333.321 148.394C284.505 166.181 242.407 198.67 212.829 241.384C183.25 284.098 167.647 334.934 168.169 386.887C168.691 438.84 185.312 489.352 215.743 531.463C246.174 573.574 288.916 605.211 338.079 622.013C387.243 638.816 440.407 639.958 490.247 625.282C540.086 610.605 584.147 580.833 616.358 540.067C630.201 522.59 650.421 511.327 672.568 508.757C694.715 506.188 716.976 512.521 734.454 526.365C751.932 540.208 763.194 560.427 765.764 582.575C768.334 604.722 762 626.983 748.156 644.461C709.024 694.147 659.104 734.283 602.174 761.831C545.243 789.38 482.792 803.62 419.547 803.475L419.61 803.443Z" fill="#2B5250"/>
<path d="M744.388 117.615C705.056 69.9265 655.665 31.5263 599.753 5.16489C543.84 -21.1966 482.79 -34.8668 420.974 -34.8668C359.159 -34.8668 298.108 -21.1966 242.195 5.16489C186.282 31.5263 136.891 69.9265 97.5598 117.615C83.3635 134.803 76.5765 156.926 78.6917 179.118C80.8069 201.31 91.6512 221.752 108.839 235.949C126.027 250.145 148.15 256.932 170.342 254.817C192.533 252.702 212.976 241.857 227.173 224.67C256.017 189.628 293.842 163.082 336.604 147.872V383.208C336.387 394.382 338.4 405.486 342.526 415.872C346.652 426.258 352.807 435.717 360.632 443.695C368.458 451.674 377.795 458.012 388.099 462.338C398.403 466.665 409.466 468.894 420.641 468.894C431.816 468.894 442.88 466.665 453.184 462.338C463.487 458.012 472.825 451.674 480.65 443.695C488.475 435.717 494.631 426.258 498.756 415.872C502.882 405.486 504.896 394.382 504.679 383.208V147.903C547.553 163.069 585.491 189.617 614.427 224.701C621.458 233.212 630.097 240.254 639.85 245.426C649.603 250.598 660.279 253.798 671.269 254.844C682.259 255.89 693.347 254.761 703.9 251.522C714.454 248.282 724.266 242.996 732.776 235.965C741.287 228.933 748.329 220.294 753.501 210.541C758.673 200.788 761.873 190.112 762.919 179.122C763.965 168.133 762.836 157.044 759.596 146.491C756.357 135.937 751.071 126.125 744.039 117.615H744.388Z" fill="#2B5250"/>
<path d="M718.122 469.289C734.909 469.289 751.32 464.311 765.278 454.984C779.236 445.658 790.114 432.402 796.538 416.893C802.963 401.383 804.643 384.317 801.368 367.853C798.093 351.388 790.01 336.265 778.14 324.394C766.269 312.524 751.146 304.44 734.681 301.165C718.217 297.89 701.15 299.571 685.641 305.995C670.132 312.419 656.876 323.298 647.549 337.256C638.223 351.214 633.245 367.624 633.245 384.411C633.245 406.922 642.187 428.511 658.105 444.429C674.022 460.346 695.611 469.289 718.122 469.289Z" fill="#2B5250"/>
</g>
</svg>
