<svg width="810" height="182" viewBox="0 0 810 182" fill="none" xmlns="http://www.w3.org/2000/svg">
<path d="M708.27 59.2628C708.28 59.3359 708.314 59.4036 708.367 59.455C708.399 59.4888 708.438 59.5157 708.481 59.534C708.524 59.5524 708.57 59.5617 708.617 59.5617C708.663 59.5617 708.71 59.5524 708.752 59.534C708.795 59.5157 708.834 59.4888 708.867 59.455L709.097 59.205L709.386 58.8974C709.855 58.3453 710.457 57.9218 711.136 57.6667H711.366H711.597H711.809H712.02H712.232H712.328H712.52H712.655H712.847H712.982H713.174H713.328C713.295 57.7629 713.291 57.8663 713.315 57.9649C713.338 58.0636 713.39 58.1535 713.462 58.2243C713.712 58.4935 714.232 58.4936 714.539 58.6474C715.232 58.9743 715.462 59.4743 716.328 59.3397C716.683 59.2166 717.069 59.2166 717.424 59.3397C717.708 59.541 718.019 59.7027 718.347 59.8204C718.671 59.8827 719.003 59.8827 719.327 59.8204C719.827 59.7242 719.904 59.8204 720.366 59.9935C721.116 60.205 721.404 59.6089 721.693 59.0897H721.827C722.243 59.1159 722.661 59.1159 723.077 59.0897L721.327 61.2434L722.154 61.0895C722.389 61.0464 722.615 60.9686 722.827 60.8587C723.015 60.7603 723.19 60.6374 723.346 60.4934L723.442 60.3973V60.3011V60.1665L723.558 59.9358L723.942 59.0897C724.338 58.9801 724.724 58.8387 725.096 58.6667L725.519 58.4551L725.885 58.2436C726.394 57.9357 726.843 57.5383 727.211 57.0706C726.78 56.0364 726.094 55.1285 725.216 54.4323C724.338 53.7361 723.298 53.2742 722.193 53.0901C722.193 52.244 721.75 51.1672 720.885 51.0518C720.02 50.9364 720.116 51.5325 719.673 51.744C719.231 51.9555 718.654 51.6095 718.116 51.571C717.854 51.5086 717.581 51.502 717.316 51.5517C717.051 51.6013 716.799 51.7061 716.578 51.8594C716.231 52.1671 716.174 52.7055 715.731 52.9747C714.982 53.417 713.27 52.7056 712.828 53.6093C712.693 53.8978 712.828 54.2054 712.597 54.4746C712.366 54.7438 712.039 54.84 711.789 54.9938C711.604 55.0993 711.466 55.2709 711.402 55.4741C711.338 55.6773 711.352 55.8972 711.443 56.0899L710.597 56.4745C709.675 56.0432 708.88 55.3808 708.29 54.5516C708.239 54.4971 708.173 54.4602 708.1 54.4464C708.027 54.4326 707.952 54.4426 707.885 54.4749C707.818 54.5072 707.763 54.5602 707.729 54.626C707.695 54.6917 707.682 54.7666 707.694 54.8399C707.826 55.5887 707.884 56.3489 707.867 57.1091C707.867 57.2629 707.867 57.4168 707.867 57.5706C707.867 57.7116 707.867 57.8526 707.867 57.9936V58.3782V58.6858C707.867 58.8396 707.867 58.9936 707.867 59.1282C707.909 59.1924 707.972 59.2405 708.045 59.2649C708.119 59.2893 708.198 59.2885 708.27 59.2628Z" fill="#65A4C5"/>
<path d="M778.284 8.82419C778.294 8.8973 778.327 8.96513 778.38 9.01656C778.413 9.05029 778.451 9.07708 778.494 9.09543C778.537 9.11377 778.584 9.12324 778.63 9.12324C778.677 9.12324 778.723 9.11377 778.766 9.09543C778.809 9.07708 778.848 9.05029 778.88 9.01656L779.111 8.76656L779.399 8.45883C779.869 7.90673 780.471 7.48329 781.149 7.22823H781.38H781.611H781.822H782.034H782.245H782.342H782.534H782.668H782.861H782.995H783.188H783.341C783.309 7.32442 783.305 7.4278 783.328 7.52646C783.352 7.62513 783.403 7.71503 783.476 7.78585C783.726 8.05506 784.245 8.055 784.553 8.20884C785.245 8.53574 785.476 9.03579 786.341 8.90118C786.696 8.7781 787.082 8.7781 787.437 8.90118C787.722 9.10251 788.032 9.26423 788.36 9.38192C788.684 9.44423 789.017 9.44423 789.341 9.38192C789.841 9.28577 789.937 9.38185 790.379 9.55492C791.129 9.76644 791.418 9.17039 791.706 8.65119H791.841C792.257 8.67741 792.675 8.67741 793.091 8.65119L791.341 10.8049L792.168 10.651C792.402 10.6079 792.629 10.5301 792.841 10.4203C793.029 10.322 793.204 10.1991 793.36 10.0549L793.456 9.95878V9.86265V9.72803L793.572 9.49729L793.956 8.65119C794.352 8.54165 794.737 8.40011 795.11 8.22808L795.533 8.01659L795.898 7.80509C796.408 7.49718 796.857 7.09983 797.225 6.63213C796.794 5.5979 796.108 4.69007 795.23 3.99383C794.352 3.2976 793.311 2.83576 792.206 2.65163C792.206 1.80553 791.764 0.728689 790.899 0.613313C790.033 0.497936 790.129 1.09402 789.687 1.30554C789.245 1.51707 788.668 1.17089 788.13 1.13243C787.867 1.06996 787.595 1.06337 787.33 1.11306C787.065 1.16275 786.813 1.26767 786.591 1.42092C786.245 1.72859 786.187 2.26704 785.745 2.53625C784.995 2.97853 783.284 2.26696 782.842 3.17074C782.707 3.43995 782.842 3.76687 782.611 4.03609C782.38 4.3053 782.053 4.40148 781.803 4.55532C781.618 4.66086 781.48 4.83239 781.415 5.03558C781.351 5.23878 781.366 5.4587 781.457 5.65141L780.611 6.03602C779.689 5.60472 778.894 4.94229 778.303 4.11308C778.253 4.05861 778.186 4.02171 778.114 4.00792C778.041 3.99413 777.965 4.00412 777.898 4.03644C777.832 4.06875 777.777 4.12165 777.743 4.18737C777.708 4.25309 777.696 4.32815 777.707 4.40145C777.84 5.15026 777.898 5.91029 777.88 6.67051C777.88 6.82434 777.88 6.97816 777.88 7.13199C777.88 7.27301 777.88 7.41409 777.88 7.5551V7.68972V7.99734C777.88 8.15118 777.88 8.30509 777.88 8.4397C777.873 8.49354 777.879 8.54817 777.898 8.59932C777.916 8.65046 777.946 8.69662 777.985 8.73405C778.024 8.77149 778.072 8.79914 778.124 8.8148C778.176 8.83046 778.231 8.83367 778.284 8.82419Z" fill="#65A4C5"/>
<path d="M397.946 176.408C397.976 176.585 398.064 176.747 398.196 176.869C398.275 176.95 398.369 177.014 398.473 177.058C398.577 177.102 398.689 177.124 398.802 177.124C398.915 177.124 399.026 177.102 399.13 177.058C399.235 177.014 399.329 176.95 399.408 176.869L399.984 176.273L400.677 175.542C401.82 174.212 403.282 173.193 404.926 172.581L405.465 172.735L406.003 172.869L406.542 173.004H406.695L407.215 173.139H407.407L407.926 173.273H408.176L408.657 173.389H408.965L409.426 173.504H409.772L410.253 173.619H410.618C410.539 173.85 410.526 174.098 410.58 174.336C410.634 174.574 410.754 174.792 410.926 174.965C411.522 175.619 412.849 175.638 413.541 175.984C415.233 176.773 415.81 177.907 417.887 177.677C418.76 177.418 419.694 177.458 420.541 177.792C421.229 178.279 421.979 178.674 422.771 178.965C423.567 179.039 424.37 178.961 425.136 178.734C426.367 178.484 426.559 178.734 427.656 179.138C429.463 179.677 430.155 178.196 430.886 176.946H431.194C432.21 176.946 433.224 176.882 434.232 176.754L430.002 181.984L432.021 181.6C432.584 181.495 433.128 181.307 433.636 181.042C434.09 180.804 434.51 180.506 434.886 180.157H434.982L435.232 179.907L435.443 179.677L435.616 179.446L435.847 179.119L435.963 178.927C436.076 178.74 436.179 178.548 436.27 178.35L437.193 176.292C438.149 176.028 439.081 175.687 439.982 175.273L441.001 174.754L441.905 174.215C443.144 173.469 444.239 172.505 445.135 171.369C445.135 171.369 441.731 162.697 432.963 161.755C432.963 159.678 431.867 157.024 429.79 156.832C428.367 156.697 427.867 157.986 426.829 158.524C425.79 159.063 424.367 158.197 422.983 158.101C422.328 157.94 421.646 157.92 420.983 158.043C420.32 158.165 419.691 158.428 419.137 158.813C418.291 159.563 418.137 160.889 417.099 161.505C415.176 162.601 411.137 160.87 410.022 163.062C409.676 163.735 409.888 164.505 409.445 165.139C409.003 165.774 408.08 166.004 407.522 166.389C407.074 166.645 406.74 167.061 406.586 167.553C406.433 168.046 406.472 168.578 406.695 169.043L404.638 169.966C402.387 168.885 400.458 167.235 399.042 165.178C398.919 165.042 398.755 164.949 398.575 164.914C398.395 164.879 398.209 164.904 398.044 164.984C397.879 165.064 397.745 165.196 397.661 165.359C397.578 165.522 397.549 165.708 397.581 165.889C397.897 167.704 398.032 169.547 397.985 171.389C397.985 171.773 397.985 172.139 397.985 172.523C397.985 172.869 397.985 173.216 397.985 173.562V173.889C397.985 174.139 397.985 174.389 397.985 174.639C397.985 174.888 397.869 175.369 397.811 175.715C397.784 175.834 397.782 175.957 397.805 176.076C397.828 176.195 397.876 176.308 397.946 176.408Z" fill="#65A4C5"/>
<path d="M482.69 65.3779C482.72 65.5553 482.808 65.7176 482.94 65.8394C483.019 65.9202 483.113 65.9844 483.217 66.0282C483.321 66.0721 483.433 66.0948 483.546 66.0948C483.659 66.0948 483.77 66.0721 483.874 66.0282C483.978 65.9844 484.073 65.9202 484.151 65.8394L484.728 65.2433L485.421 64.5125C486.564 63.1823 488.026 62.1635 489.67 61.5512L490.209 61.705L490.747 61.8396L491.286 61.9742H491.439L491.959 62.1089H492.151L492.67 62.2435H492.92L493.401 62.3588H493.708L494.17 62.4742H494.516L494.997 62.5896H495.362C495.283 62.8203 495.269 63.0687 495.324 63.3066C495.378 63.5445 495.498 63.7624 495.67 63.9357C496.266 64.5895 497.593 64.6086 498.285 64.9548C499.977 65.7432 500.554 66.8777 502.631 66.647C503.503 66.3881 504.438 66.4287 505.285 66.7623C505.973 67.2495 506.723 67.6439 507.515 67.9353C508.311 68.0094 509.114 67.9311 509.88 67.7046C511.111 67.4546 511.303 67.7046 512.399 68.1084C514.207 68.6468 514.899 67.1661 515.63 65.9162H515.938C516.953 65.9161 517.968 65.852 518.976 65.724L514.745 70.9543L516.764 70.5698C517.328 70.4652 517.872 70.2772 518.38 70.0121C518.834 69.7741 519.254 69.4767 519.63 69.1276H519.726L519.976 68.8776L520.187 68.6469L520.36 68.416L520.591 68.0892L520.706 67.8969C520.82 67.7106 520.923 67.518 521.014 67.3201L521.937 65.2625C522.893 64.9985 523.825 64.6576 524.725 64.2433L525.745 63.7242L526.648 63.1857C527.942 62.566 529.115 61.7194 530.11 60.6859C530.11 60.6859 526.706 52.0134 517.938 51.0712C517.938 48.9944 516.841 46.3408 514.765 46.1485C513.342 46.0139 512.842 47.3022 511.803 47.8407C510.765 48.3791 509.342 47.5137 507.957 47.4176C507.303 47.2563 506.621 47.2364 505.958 47.3591C505.295 47.4818 504.665 47.7442 504.112 48.129C503.265 48.879 503.112 50.2059 502.073 50.8212C500.15 51.9173 496.112 50.1866 494.997 52.3788C494.651 53.0518 494.862 53.821 494.42 54.4556C493.978 55.0902 493.055 55.3208 492.497 55.7054C492.049 55.961 491.715 56.377 491.561 56.8695C491.408 57.3619 491.447 57.8942 491.67 58.3591L489.613 59.2821C487.361 58.2017 485.432 56.551 484.017 54.494C483.894 54.3579 483.73 54.2656 483.55 54.2307C483.37 54.1958 483.184 54.2203 483.019 54.3005C482.854 54.3808 482.72 54.5124 482.636 54.6756C482.552 54.8388 482.524 55.0248 482.555 55.2054C482.872 57.0207 483.007 58.8631 482.959 60.7051C482.959 61.0897 482.959 61.455 482.959 61.8396C482.959 62.1857 482.959 62.5319 482.959 62.8781V63.2049C482.959 63.4549 482.959 63.7049 482.959 63.9549C482.959 64.2049 482.844 64.6856 482.786 65.0318C482.73 65.1391 482.697 65.257 482.69 65.3779Z" fill="#65A4C5"/>
<path d="M0.743942 89.3763C0.773565 89.5537 0.861542 89.7161 0.993926 89.8378C1.07275 89.9186 1.16695 89.9829 1.27098 90.0268C1.37501 90.0706 1.48676 90.0932 1.59965 90.0932C1.71254 90.0932 1.8243 90.0706 1.92833 90.0268C2.03236 89.9829 2.12656 89.9186 2.20538 89.8378L2.78226 89.2417L3.47452 88.511C4.6182 87.1807 6.08025 86.162 7.72422 85.5497L8.26264 85.7036L8.80107 85.8382L9.33949 85.9727H9.49332L10.0125 86.1073H10.2048L10.724 86.2419H10.974L11.4547 86.3573H11.7624L12.2239 86.4727H12.57L13.0508 86.588H13.4161C13.3367 86.8188 13.3234 87.0672 13.3778 87.305C13.4322 87.5429 13.552 87.7608 13.7238 87.9341C14.3199 88.5879 15.6467 88.6072 16.339 88.9533C18.0312 89.7417 18.6081 90.8763 20.6848 90.6455C21.5575 90.3867 22.4916 90.4273 23.3385 90.7609C24.0273 91.2481 24.7773 91.6424 25.5691 91.9339C26.365 92.008 27.1678 91.9297 27.9343 91.7031C29.165 91.4532 29.3573 91.7031 30.4534 92.1069C32.2609 92.6453 32.9532 91.1647 33.6839 89.9148H33.9916C35.0074 89.9148 36.0222 89.8505 37.0298 89.7224L32.7994 94.9529L34.8185 94.5683C35.3816 94.4636 35.926 94.2757 36.4337 94.0107C36.8878 93.7727 37.3082 93.4752 37.6836 93.1261H37.7798L38.0298 92.8761L38.2413 92.6454L38.4144 92.4146L38.6451 92.0877L38.7605 91.8954C38.8739 91.7091 38.9766 91.5165 39.0682 91.3185L39.9912 89.261C40.9465 88.9969 41.879 88.6561 42.7794 88.2419L43.7986 87.7226L44.7024 87.1842C45.942 86.438 47.0365 85.4739 47.9329 84.3382C47.9329 84.3382 44.5293 75.6658 35.7607 74.7235C35.7607 72.6468 34.6646 69.9931 32.5878 69.8008C31.1649 69.6662 30.6649 70.9546 29.6265 71.493C28.5881 72.0314 27.1652 71.166 25.7806 71.0699C25.1258 70.9087 24.4442 70.8888 23.7811 71.0114C23.1179 71.1341 22.4885 71.3966 21.9348 71.7814C21.0887 72.5313 20.9348 73.8582 19.8964 74.4735C17.9735 75.5696 13.9353 73.839 12.82 76.0311C12.4739 76.7041 12.6854 77.4734 12.2431 78.1079C11.8009 78.7425 10.8778 78.9732 10.3202 79.3578C9.87218 79.6134 9.53775 80.0294 9.3843 80.5218C9.23086 81.0143 9.26981 81.5466 9.49332 82.0114L7.43578 82.9345C5.18464 81.8542 3.25547 80.2034 1.84002 78.1464C1.71708 78.0104 1.55328 77.9179 1.37327 77.8831C1.19327 77.8482 1.00681 77.8727 0.841951 77.953C0.677096 78.0333 0.542771 78.1649 0.459202 78.3281C0.375633 78.4913 0.347343 78.6772 0.378586 78.8579C0.695088 80.6732 0.830357 82.5154 0.782402 84.3575C0.782402 84.7421 0.782402 85.1074 0.782402 85.492C0.782402 85.8381 0.782402 86.1843 0.782402 86.5304V86.8573C0.782402 87.1073 0.782402 87.3573 0.782402 87.6073C0.782402 87.8572 0.667025 88.338 0.609337 88.6841C0.581913 88.8025 0.579726 88.9253 0.602918 89.0445C0.62611 89.1638 0.67416 89.2769 0.743942 89.3763Z" fill="#65A4C5"/>
<path d="M762.228 148.218C762.258 148.396 762.346 148.558 762.478 148.68C762.557 148.761 762.651 148.825 762.755 148.869C762.859 148.912 762.971 148.935 763.084 148.935C763.197 148.935 763.309 148.912 763.413 148.869C763.517 148.825 763.611 148.761 763.69 148.68L764.267 148.084L764.959 147.353C766.103 146.023 767.565 145.004 769.209 144.391L769.747 144.545L770.285 144.68L770.824 144.815H770.978L771.497 144.949H771.689L772.208 145.084H772.458L772.939 145.199H773.247L773.708 145.315H774.054L774.535 145.43H774.9C774.821 145.661 774.808 145.909 774.862 146.147C774.917 146.385 775.036 146.603 775.208 146.776C775.804 147.43 777.131 147.449 777.823 147.795C779.516 148.584 780.092 149.718 782.169 149.487C783.042 149.228 783.976 149.269 784.823 149.603C785.512 150.09 786.262 150.484 787.053 150.776C787.849 150.85 788.652 150.771 789.419 150.545C790.649 150.295 790.842 150.545 791.938 150.949C793.745 151.487 794.438 150.007 795.168 148.757H795.476C796.492 148.757 797.507 148.692 798.514 148.564L794.284 153.795L796.303 153.41C796.866 153.305 797.41 153.118 797.918 152.852C798.372 152.614 798.793 152.317 799.168 151.968H799.264L799.514 151.718L799.726 151.487L799.899 151.256L800.13 150.93L800.245 150.737C800.358 150.551 800.461 150.358 800.553 150.16L801.476 148.103C802.431 147.839 803.363 147.498 804.264 147.084L805.283 146.564L806.187 146.026C807.426 145.28 808.521 144.316 809.417 143.18C809.417 143.18 806.014 134.508 797.245 133.565C797.245 131.489 796.149 128.835 794.072 128.643C792.649 128.508 792.149 129.796 791.111 130.335C790.073 130.873 788.65 130.008 787.265 129.912C786.61 129.751 785.929 129.731 785.265 129.853C784.602 129.976 783.973 130.238 783.419 130.623C782.573 131.373 782.419 132.7 781.381 133.315C779.458 134.411 775.42 132.681 774.304 134.873C773.958 135.546 774.17 136.315 773.728 136.95C773.285 137.584 772.362 137.815 771.805 138.2C771.357 138.455 771.022 138.871 770.869 139.364C770.715 139.856 770.754 140.388 770.978 140.853L768.92 141.776C766.669 140.696 764.74 139.045 763.324 136.988C763.201 136.852 763.038 136.76 762.858 136.725C762.678 136.69 762.491 136.715 762.326 136.795C762.161 136.875 762.027 137.007 761.944 137.17C761.86 137.333 761.832 137.519 761.863 137.7C762.179 139.515 762.315 141.357 762.267 143.199C762.267 143.584 762.267 143.949 762.267 144.334C762.267 144.68 762.267 145.026 762.267 145.372V145.699C762.267 145.949 762.267 146.199 762.267 146.449C762.267 146.699 762.151 147.18 762.094 147.526C762.066 147.644 762.064 147.767 762.087 147.886C762.11 148.006 762.159 148.119 762.228 148.218Z" fill="#65A4C5"/>
</svg>
