<svg width="32" height="32" viewBox="0 0 32 32" fill="none" xmlns="http://www.w3.org/2000/svg">
<path fill-rule="evenodd" clip-rule="evenodd" d="M16 0C7.164 0 0 7.164 0 16C0 24.836 7.164 32 16 32C24.836 32 32 24.836 32 16C32 7.164 24.836 0 16 0ZM16 2.66667C23.352 2.66667 29.3333 8.648 29.3333 16C29.3333 23.352 23.352 29.3333 16 29.3333C8.648 29.3333 2.66667 23.352 2.66667 16C2.66667 8.648 8.648 2.66667 16 2.66667ZM22.7813 12.2213C23.4453 12.1413 24.0787 11.9653 24.6667 11.704C24.2267 12.3627 23.6707 12.9413 23.028 13.4027C23.236 18.02 19.7933 23.168 13.6973 23.168C11.844 23.168 10.12 22.6253 8.66667 21.6933C10.4093 21.8987 12.1467 21.4147 13.5293 20.332C12.0947 20.3053 10.88 19.3573 10.4627 18.0533C10.9773 18.152 11.484 18.1227 11.9453 17.9973C10.3667 17.68 9.276 16.2573 9.312 14.7373C9.75467 14.9827 10.26 15.1307 10.7973 15.148C9.336 14.1707 8.92133 12.24 9.78133 10.7653C11.4 12.7507 13.82 14.0573 16.5467 14.1947C16.068 12.1413 17.6253 10.164 19.7453 10.164C20.688 10.164 21.5427 10.5627 22.14 11.2013C22.888 11.0547 23.5907 10.7813 24.2253 10.4053C23.9787 11.172 23.46 11.8147 22.7813 12.2213Z" fill="#2B5250"/>
</svg>
