<svg width="82" height="72" viewBox="0 0 82 72" fill="none" xmlns="http://www.w3.org/2000/svg">
<g opacity="0.2">
<path d="M65.7568 14.8892C65.7568 15.0671 65.833 15.2322 65.9473 15.3465C66.0616 15.4609 66.2267 15.5371 66.4045 15.5371H80.4235C80.779 15.5371 81.0838 15.2449 81.0838 14.8765C81.0838 14.6987 81.0076 14.5336 80.8933 14.4193C80.779 14.3049 80.6139 14.2287 80.4362 14.2287H79.7759C79.5092 13.619 78.9124 13.1998 78.2012 13.1998C77.7314 13.1998 77.2997 13.3904 76.9949 13.7079C76.5759 13.0093 75.8267 12.5393 74.9505 12.5393C74.7092 12.5393 74.4806 12.5774 74.2648 12.6409C73.7822 11.7772 72.8806 11.1929 71.8521 11.1929C70.6076 11.1929 69.5537 12.0312 69.2362 13.1871C69.0076 13.0728 68.741 13.0093 68.4743 13.0093C67.6997 13.0093 67.0394 13.5301 66.8362 14.2414H66.4172C66.0489 14.2287 65.7568 14.5336 65.7568 14.8892Z" fill="#65A4C5"/>
</g>
<g opacity="0.2">
<path d="M4.55078 8.35102C4.55078 8.53022 4.62244 8.6915 4.74784 8.81695C4.87324 8.94239 5.03447 9.01407 5.21362 9.01407H19.0974C19.4557 9.01407 19.7423 8.72734 19.7423 8.36894C19.7423 8.18974 19.6707 8.02846 19.5453 7.90302C19.4199 7.77758 19.2586 7.7059 19.0795 7.7059H18.4167C18.1659 7.09661 17.5568 6.68445 16.8581 6.68445C16.3923 6.68445 15.9624 6.88157 15.6578 7.18621C15.2458 6.48733 14.4934 6.0214 13.6335 6.0214C13.4006 6.0214 13.1677 6.05724 12.9527 6.12892C12.5049 5.28668 11.6091 4.69531 10.5701 4.69531C9.33397 4.69531 8.29493 5.53756 7.97247 6.66653C7.73958 6.55901 7.48877 6.48733 7.22005 6.48733C6.44973 6.48733 5.8048 7.00701 5.58983 7.7059H5.19571C4.83741 7.68798 4.55078 7.99262 4.55078 8.35102Z" fill="#65A4C5"/>
</g>
<g opacity="0.2">
<path d="M55.2646 2.20417C55.2646 2.31169 55.3005 2.40129 55.3721 2.47297C55.4438 2.54465 55.5334 2.58049 55.6409 2.58049H63.989C64.204 2.58049 64.3832 2.40129 64.3832 2.18625C64.3832 2.07873 64.3473 1.98913 64.2757 1.91745C64.204 1.84577 64.1144 1.80993 64.007 1.80993H63.6128C63.4516 1.45153 63.0933 1.20065 62.6813 1.20065C62.3946 1.20065 62.1438 1.30817 61.9647 1.50529C61.7139 1.09313 61.266 0.806405 60.7465 0.806405C60.6032 0.806405 60.4599 0.824324 60.3345 0.860164C60.0658 0.340481 59.5283 0 58.9013 0C58.1489 0 57.5398 0.501763 57.3427 1.18273C57.1994 1.11105 57.0561 1.07521 56.877 1.07521C56.4112 1.07521 56.0171 1.37985 55.8917 1.80993H55.6588C55.4438 1.80993 55.2646 1.98913 55.2646 2.20417Z" fill="#65A4C5"/>
</g>
<g opacity="0.2">
<path d="M34.7734 5.10774C34.7734 5.21526 34.8093 5.30486 34.8809 5.37654C34.9526 5.44822 35.0422 5.48407 35.1496 5.48407H43.4978C43.7128 5.48407 43.892 5.30486 43.892 5.08982C43.892 4.9823 43.8561 4.8927 43.7845 4.82102C43.7128 4.74934 43.6232 4.7135 43.5158 4.7135H43.1216C42.9604 4.3551 42.6021 4.10421 42.1901 4.10421C41.9034 4.10421 41.6526 4.21173 41.4735 4.40886C41.2227 3.99669 40.7748 3.70997 40.2553 3.70997C40.112 3.70997 39.9687 3.72789 39.8433 3.76373C39.5745 3.24405 39.0371 2.90356 38.4101 2.90356C37.6577 2.90356 37.0486 3.40533 36.8515 4.08629C36.7082 4.01461 36.5649 3.97877 36.4037 3.97877C35.9379 3.97877 35.5438 4.28342 35.4184 4.7135H35.1676C34.9526 4.7135 34.7734 4.8927 34.7734 5.10774Z" fill="#65A4C5"/>
</g>
<path opacity="0.1" d="M42.6724 72C58.1264 72 70.6544 59.3251 70.6544 43.6898C70.6544 28.0545 58.1264 15.3796 42.6724 15.3796C27.2184 15.3796 14.6904 28.0545 14.6904 43.6898C14.6904 59.3251 27.2184 72 42.6724 72Z" fill="#138175"/>
<path opacity="0.15" d="M42.7128 67.3299C55.5948 67.3299 66.0378 56.7644 66.0378 43.7312C66.0378 30.6981 55.5948 20.1326 42.7128 20.1326C29.8307 20.1326 19.3877 30.6981 19.3877 43.7312C19.3877 56.7644 29.8307 67.3299 42.7128 67.3299Z" fill="#138175"/>
<path opacity="0.2" d="M42.773 62.2681C52.8594 62.2681 61.0362 53.9955 61.0362 43.7907C61.0362 33.5859 52.8594 25.3132 42.773 25.3132C32.6865 25.3132 24.5098 33.5859 24.5098 43.7907C24.5098 53.9955 32.6865 62.2681 42.773 62.2681Z" fill="white"/>
<path d="M62.6121 58.0185C62.6121 58.0185 62.6121 58.0365 62.63 58.0365C62.7016 58.1619 62.845 58.2157 62.9704 58.144C67.5386 55.671 71.2469 53.2876 73.9699 51.0834C77.1408 48.5029 78.986 46.1196 79.4339 44.0408C79.4697 43.8975 79.3801 43.772 79.2368 43.7362C79.0935 43.7003 78.9681 43.7899 78.9323 43.9333C78.1261 47.6428 72.5368 52.4095 62.7196 57.696C62.5942 57.7497 62.5583 57.8931 62.6121 58.0185Z" fill="#138175"/>
<path d="M76.6035 48.5391C76.6035 48.5391 77.768 50.3311 80.8493 48.1449C80.8493 48.1449 78.2696 45.9048 76.6035 48.5391Z" fill="#138175"/>
<path d="M75.0624 49.7578C75.0624 49.7578 76.9255 48.6826 74.9191 45.4928C74.9191 45.4749 72.5365 47.9299 75.0624 49.7578Z" fill="#138175"/>
<path d="M78.6092 45.4923C78.6092 45.4923 80.7231 45.0981 79.899 41.4245C79.899 41.4066 76.8356 42.9298 78.6092 45.4923Z" fill="#138175"/>
<path d="M72.0713 52.2842C72.0713 52.2842 72.5729 54.3809 76.2096 53.3594C76.1916 53.3594 74.5256 50.3668 72.0713 52.2842Z" fill="#138175"/>
<path d="M70.3152 53.2694C70.3152 53.2694 72.3396 52.5347 70.9064 49.0403C70.9064 49.0403 68.1297 51.0473 70.3152 53.2694Z" fill="#138175"/>
<path d="M68.0586 54.8646C68.0586 54.8646 68.5065 56.9613 72.1789 56.0115C72.1789 56.0295 70.5666 53.0189 68.0586 54.8646Z" fill="#138175"/>
<path d="M33.5173 33.8077C33.5173 33.8077 33.4994 33.8077 33.5173 33.8077C33.3919 33.8973 33.2307 33.8794 33.1411 33.754C30.1673 29.489 27.928 25.6899 26.4948 22.5001C24.8288 18.7548 24.2555 15.8159 24.7929 13.7372C24.8288 13.5938 24.9721 13.5221 25.0975 13.558C25.2408 13.5938 25.3125 13.7372 25.2766 13.8626C24.3272 17.5362 27.1756 24.31 33.5532 33.4493C33.6427 33.5748 33.6248 33.7181 33.5173 33.8077Z" fill="#138175"/>
<path d="M25.2946 19.0411C25.2946 19.0411 23.4315 20.1163 21.6759 16.7832C21.6579 16.7653 24.9721 15.923 25.2946 19.0411Z" fill="#138175"/>
<path d="M26.1185 20.7973C26.1185 20.7973 24.9361 19.0053 28.1787 17.052C28.1608 17.052 29.1998 20.3135 26.1185 20.7973Z" fill="#138175"/>
<path d="M24.8636 15.4037C24.8636 15.4037 23.1617 14.1135 25.5622 11.1925C25.5622 11.1746 27.6045 13.9163 24.8636 15.4037Z" fill="#138175"/>
<path d="M27.6594 24.4177C27.6594 24.4177 26.28 26.0664 23.4854 23.5217C23.4854 23.5038 26.3159 21.6043 27.6594 24.4177Z" fill="#138175"/>
<path d="M28.7693 26.0844C28.7693 26.0844 27.3003 24.5253 30.1488 22.0344C30.1488 22.0523 31.7252 25.0808 28.7693 26.0844Z" fill="#138175"/>
<path d="M30.0582 28.539C30.0582 28.539 28.7146 30.2055 25.8662 27.7146C25.8662 27.7146 28.6609 25.7434 30.0582 28.539Z" fill="#138175"/>
<path d="M64.8313 30.9046C64.5984 38.001 59.009 41.0295 57.97 41.6925C56.6264 42.5348 55.0857 42.714 54.1542 42.714C53.9571 42.714 53.778 42.714 53.6526 42.6961C53.4197 42.6781 53.2764 42.6602 53.2764 42.6602C53.2764 42.6602 53.5988 38.7178 54.0646 34.4349C54.4766 30.6179 56.2681 24.2383 62.0366 18.1992C62.0187 18.2171 65.0821 23.3781 64.8313 30.9046Z" fill="#138175"/>
<path d="M61.6618 23.3427C61.6618 23.3785 61.3393 25.4931 60.5511 28.4678C60.5511 28.4858 60.5511 28.4858 60.5511 28.5037C60.4436 28.8979 60.3361 29.2922 60.2286 29.7043C60.1928 29.8656 60.139 30.009 60.0853 30.1703C59.942 30.6541 59.7807 31.1559 59.6195 31.6755C59.4583 32.1773 59.2791 32.7149 59.0642 33.2704C59.0642 33.2884 59.0642 33.2884 59.0462 33.3063C58.8313 33.8976 58.5984 34.5069 58.3476 35.1162C58.2759 35.2775 58.2043 35.4388 58.1505 35.618C57.8101 36.4065 57.4518 37.2129 57.0398 38.0193C57.0219 38.0551 57.004 38.073 57.004 38.1089C56.7173 38.6823 56.4128 39.2558 56.0903 39.8113C55.9829 39.9905 55.8933 40.1697 55.7858 40.331C55.2842 41.1553 54.7467 41.9617 54.1735 42.7323C53.9764 42.7323 53.7973 42.7323 53.6719 42.7144C54.8184 41.2449 55.7858 39.6142 56.6278 37.9655C56.6994 37.8222 56.7711 37.6609 56.8428 37.5175C57.5593 36.0481 58.1505 34.5965 58.6521 33.2167C58.7059 33.0375 58.7775 32.8762 58.8313 32.7149C58.9746 32.3207 59.1 31.9264 59.2254 31.5501C59.5837 30.457 59.8882 29.4176 60.139 28.4678C60.1928 28.2886 60.2286 28.1274 60.2644 27.9661C60.9631 25.2243 61.2677 23.3248 61.2677 23.2889C61.2856 23.1814 61.393 23.0918 61.5005 23.1097C61.5901 23.1276 61.6797 23.2352 61.6618 23.3427Z" fill="#2B5250"/>
<path d="M60.3901 28.6106C60.3184 28.6285 60.2467 28.5927 60.193 28.5389C60.1393 28.4672 58.9032 26.8723 58.6165 26.0122C58.5807 25.9047 58.6344 25.7971 58.7419 25.7613C58.8494 25.7255 58.9569 25.7792 58.9927 25.8867C59.2435 26.6752 60.4796 28.2701 60.4975 28.288C60.5692 28.3776 60.5513 28.5031 60.4617 28.5748C60.4438 28.5927 60.408 28.6106 60.3901 28.6106Z" fill="#2B5250"/>
<path d="M59.9434 30.1878C59.8359 30.2058 59.7284 30.1341 59.7105 30.0445C59.6747 29.937 59.7463 29.8294 59.8538 29.7936C59.8717 29.7936 61.8244 29.256 62.7022 28.6109C62.7918 28.5392 62.9172 28.5571 62.9889 28.6467C63.0605 28.7363 63.0426 28.8618 62.953 28.9334C62.0036 29.6323 60.0509 30.152 59.9434 30.1878C59.9613 30.1878 59.9434 30.1878 59.9434 30.1878Z" fill="#2B5250"/>
<path d="M58.9031 33.3955C58.8135 33.4134 58.7419 33.3776 58.6882 33.3059C58.6165 33.1984 57.1117 30.7075 56.7713 28.808C56.7534 28.7005 56.825 28.5929 56.9325 28.575C57.04 28.5571 57.1475 28.6288 57.1654 28.7363C57.5058 30.5641 59.0106 33.073 59.0285 33.1088C59.0823 33.1984 59.0644 33.3238 58.9569 33.3955C58.939 33.3776 58.921 33.3955 58.9031 33.3955Z" fill="#2B5250"/>
<path d="M58.0254 35.6176C57.9179 35.6355 57.8104 35.5638 57.7925 35.4742C57.7567 35.3667 57.8284 35.2592 57.9358 35.2234C57.9538 35.2234 60.3185 34.5962 61.9129 33.0909C62.0024 33.0192 62.1278 33.0192 62.1995 33.0909C62.2712 33.1805 62.2712 33.3059 62.1995 33.3776C60.5334 34.9546 58.1508 35.5818 58.0254 35.6176C58.0433 35.6176 58.0433 35.6176 58.0254 35.6176Z" fill="#2B5250"/>
<path d="M56.8789 38.1443C56.7893 38.1622 56.7176 38.1263 56.6639 38.0547C56.6101 37.9651 55.4278 36.0118 55.0516 33.8793C55.0337 33.7717 55.1053 33.6642 55.2128 33.6463C55.3203 33.6284 55.4278 33.7001 55.4457 33.8076C55.804 35.8505 57.0043 37.8217 57.0043 37.8396C57.058 37.9292 57.0401 38.0547 56.9326 38.1263C56.9147 38.1443 56.8968 38.1443 56.8789 38.1443Z" fill="#2B5250"/>
<path d="M55.6787 40.3304C55.5712 40.3484 55.4638 40.2767 55.4458 40.1692C55.41 40.0616 55.4817 39.9541 55.5892 39.9183C55.6071 39.9183 57.936 39.3269 59.9961 37.5707C60.0857 37.4991 60.2111 37.4991 60.2828 37.5887C60.3544 37.6783 60.3544 37.8037 60.2649 37.8754C58.1151 39.7212 55.7862 40.3125 55.6787 40.3304Z" fill="#2B5250"/>
<path d="M31.3152 48.9682C30.8136 49.3087 30.2762 49.5954 29.7387 49.8283C29.5954 49.9 29.4342 49.9538 29.2909 50.0255C24.7406 51.8354 19.4916 50.796 19.4916 50.796C19.4916 50.796 9.99689 49.8463 10.5164 45.2587C11.0359 40.6711 15.2459 43.5205 16.8044 42.732C18.363 41.9435 14.1352 39.0583 10.803 35.9582C7.47093 32.858 8.63538 30.1341 10.4448 30.2416C12.2541 30.3671 12.2004 27.9837 10.1939 26.0842C8.06211 24.0592 4.74792 18.8803 7.90088 17.805C11.4838 16.5686 13.6156 24.0771 16.5894 23.9696C19.5633 23.8621 16.8761 20.8515 19.1333 20.5648C21.3906 20.278 23.8986 25.1523 23.1104 29.4352C22.3221 33.7181 24.9735 37.2305 25.7796 35.9761C26.5858 34.7217 25.8513 30.5821 27.7681 29.937C31.4406 28.7005 36.1342 45.7784 31.3152 48.9682Z" fill="#138175"/>
<path d="M29.7378 49.8286C29.5945 49.9002 29.4333 49.954 29.29 50.0257C23.7364 41.1731 10.9275 22.805 10.7842 22.6079C10.7125 22.5003 10.7305 22.3391 10.8379 22.2674C10.9454 22.1957 11.1067 22.2136 11.1783 22.3211C11.3037 22.5362 24.2022 40.9939 29.7378 49.8286Z" fill="#2B5250"/>
<path d="M17.9505 32.7688C17.9147 32.7688 17.8609 32.7688 17.8251 32.7509C17.6997 32.6971 17.646 32.5537 17.6818 32.4283C17.6997 32.3925 19.0612 28.9518 19.1866 26.658C19.1866 26.5326 19.312 26.425 19.4374 26.425C19.5628 26.425 19.6703 26.5505 19.6703 26.6759C19.5449 29.0593 18.1834 32.4641 18.1297 32.6075C18.1117 32.6971 18.0401 32.7688 17.9505 32.7688Z" fill="#2B5250"/>
<path d="M19.3833 35.1157C19.2221 35.1336 15.6571 35.3666 13.0415 34.596C12.9161 34.5602 12.8445 34.4168 12.8803 34.2914C12.9161 34.1659 13.0595 34.0942 13.1849 34.1301C15.7108 34.8648 19.3116 34.6318 19.3475 34.6318C19.4729 34.6139 19.5983 34.7214 19.5983 34.8648C19.5983 34.9902 19.5087 35.0978 19.3833 35.1157Z" fill="#2B5250"/>
<path d="M25.6001 44.0945C25.5464 44.0945 25.4747 44.0945 25.421 44.0408C25.3135 43.9512 25.2956 43.8078 25.3672 43.7003C25.3851 43.6644 27.8753 40.3313 28.0007 38.0196C28.0007 37.8941 28.1261 37.7866 28.2515 37.7866C28.3769 37.7866 28.4844 37.9121 28.4844 38.0375C28.3589 40.4926 25.8688 43.8436 25.7613 43.987C25.7255 44.0587 25.6718 44.0945 25.6001 44.0945Z" fill="#2B5250"/>
<path d="M23.0919 46.8003C21.7125 46.9795 20.1718 47.0511 18.8282 46.8003C18.7028 46.7823 18.6133 46.6569 18.6312 46.5135C18.6491 46.3881 18.7745 46.2985 18.9178 46.3164C22.1245 46.9078 26.7286 45.5638 26.7823 45.5458C26.9077 45.51 27.051 45.5817 27.0869 45.7071C27.1227 45.8326 27.051 45.9759 26.9256 46.0118C26.8002 46.0476 25.1163 46.5315 23.0919 46.8003Z" fill="#2B5250"/>
<path d="M50.6984 57.6415C51.1642 58.0179 51.6837 58.3404 52.2032 58.6271C52.3465 58.6988 52.4898 58.7884 52.6332 58.8601C57.0043 61.0464 62.3429 60.4729 62.3429 60.4729C62.3429 60.4729 71.8913 60.3475 71.7659 55.7241C71.6405 51.1186 67.1977 53.5737 65.7108 52.6597C64.2239 51.7458 68.6846 49.237 72.2854 46.4414C75.8684 43.6459 74.9368 40.8145 73.1274 40.7787C71.3181 40.7428 71.5689 38.3774 73.7365 36.657C76.0296 34.8292 79.7737 29.9549 76.7283 28.6109C73.2528 27.0698 70.494 34.3633 67.5381 34.0049C64.5822 33.6465 67.5202 30.8688 65.2988 30.385C63.0774 29.9012 60.1573 34.5425 60.5693 38.8791C60.9813 43.2158 58.0434 46.4952 57.3447 45.1691C56.646 43.8609 57.7388 39.7931 55.8936 38.9867C52.3286 37.4276 46.166 54.0396 50.6984 57.6415Z" fill="#20B58D"/>
<path d="M52.2012 58.6271C52.3445 58.6988 52.4878 58.7884 52.6311 58.8601C58.9191 50.5093 73.2687 33.3239 73.4299 33.1447C73.5195 33.0372 73.5016 32.8938 73.3941 32.8042C73.2866 32.7146 73.1433 32.7325 73.0537 32.84C72.9104 33.0192 58.4713 50.2943 52.2012 58.6271Z" fill="#138175"/>
<path d="M65.4049 42.6421C65.4408 42.6421 65.4945 42.6421 65.5303 42.6421C65.6557 42.6062 65.7274 42.4629 65.6916 42.3374C65.6737 42.3016 64.6167 38.7534 64.6884 36.4596C64.6884 36.3163 64.5809 36.2087 64.4555 36.2087C64.3121 36.2087 64.2047 36.3163 64.2047 36.4417C64.133 38.8251 65.19 42.3374 65.2258 42.4808C65.2437 42.5525 65.3154 42.6241 65.4049 42.6421Z" fill="#138175"/>
<path d="M63.7755 44.8465C63.7755 44.8465 63.7934 44.8465 63.7755 44.8465C63.9367 44.8644 67.4659 45.402 70.1352 44.8823C70.2606 44.8644 70.3502 44.721 70.3323 44.5956C70.3143 44.4702 70.171 44.3806 70.0456 44.3985C67.4659 44.9182 63.9009 44.3806 63.8651 44.3626C63.7397 44.3447 63.6143 44.4343 63.5785 44.5598C63.5605 44.7031 63.6501 44.8286 63.7755 44.8465Z" fill="#138175"/>
<path d="M56.8049 53.2684C56.8586 53.2864 56.9303 53.2684 56.984 53.2326C57.0915 53.1609 57.1273 53.0176 57.0557 52.8921C57.0378 52.8563 54.8522 49.326 54.9239 47.0143C54.9239 46.871 54.8164 46.7634 54.691 46.7634C54.5476 46.7634 54.4402 46.871 54.4402 46.9964C54.3506 49.4515 56.5541 52.9996 56.6437 53.1609C56.6974 53.2147 56.7511 53.2505 56.8049 53.2684Z" fill="#18C5D2"/>
<path d="M59.0813 56.1721C60.4428 56.4588 61.9835 56.6739 63.3271 56.5305C63.4525 56.5126 63.5599 56.405 63.542 56.2617C63.5241 56.1362 63.4166 56.0287 63.2733 56.0466C60.0308 56.3692 55.5521 54.631 55.5163 54.613C55.3909 54.5593 55.2476 54.6309 55.1938 54.7564C55.1401 54.8818 55.2117 55.0252 55.3371 55.079C55.4626 55.0969 57.0749 55.742 59.0813 56.1721Z" fill="#138175"/>
<path d="M9.08269 55.366C15.4961 60.3478 22.2141 57.6418 23.5577 57.2118C25.2954 56.6383 26.5494 55.4198 27.2481 54.6133C27.3914 54.4341 27.5168 54.2908 27.6063 54.1653C27.7676 53.9503 27.8572 53.8069 27.8572 53.8069C27.8572 53.8069 24.1668 51.2085 20.0643 48.5026C16.4097 46.0834 9.49472 42.9832 0 43.6641C0 43.6283 2.29306 50.0975 9.08269 55.366Z" fill="#20B58D"/>
<path d="M4.74709 47.0518C4.78292 47.0697 6.86101 48.3241 10.0498 49.8115C10.0677 49.8115 10.0677 49.8294 10.0856 49.8294C10.4977 50.0265 10.9276 50.2237 11.3755 50.4208C11.5367 50.4925 11.7159 50.5641 11.895 50.6358C12.4324 50.8688 12.9878 51.1018 13.5611 51.3168C14.1343 51.5498 14.7255 51.7648 15.3525 51.9978C15.3704 51.9978 15.3704 52.0157 15.3883 52.0157C16.0691 52.2666 16.7678 52.4995 17.5023 52.7325C17.6993 52.7862 17.8964 52.8579 18.0755 52.9117C19.025 53.1984 19.9924 53.4672 20.9956 53.7002C21.0314 53.7002 21.0673 53.7181 21.1031 53.7181C21.8197 53.8794 22.5363 54.0407 23.2708 54.1661C23.5036 54.2019 23.7365 54.2378 23.9515 54.2736C25.0443 54.4349 26.1371 54.5603 27.2478 54.6141C27.3911 54.4349 27.5165 54.2915 27.6061 54.1661C25.4922 54.0944 23.3245 53.7539 21.2822 53.288C21.1031 53.2522 20.906 53.1984 20.7269 53.1626C18.9175 52.7146 17.1977 52.177 15.6391 51.6214C15.4421 51.5498 15.245 51.4781 15.0659 51.4064C14.618 51.2451 14.1702 51.0659 13.7581 50.9046C12.5399 50.4208 11.4113 49.9369 10.3902 49.4531C10.211 49.3635 10.0319 49.2918 9.85274 49.2022C6.93267 47.8224 5.05164 46.6934 5.01581 46.6755C4.90832 46.6038 4.765 46.6396 4.69335 46.7472C4.60377 46.8368 4.6396 46.9801 4.74709 47.0518Z" fill="#138175"/>
<path d="M10.3184 49.7751C10.3901 49.7213 10.408 49.6317 10.3901 49.5421C10.3721 49.4525 9.87054 47.1946 9.31519 46.3165C9.24353 46.209 9.10022 46.1731 8.99273 46.2448C8.88524 46.3165 8.84941 46.4599 8.92107 46.5674C9.42268 47.3738 9.92428 49.6138 9.92428 49.6496C9.96011 49.7751 10.0855 49.8647 10.2109 49.8288C10.2467 49.8109 10.2826 49.8109 10.3184 49.7751Z" fill="#138175"/>
<path d="M12.0192 50.5455C12.1088 50.4739 12.1267 50.3305 12.0551 50.223C11.9834 50.1155 11.8401 50.0975 11.7326 50.1692C11.7147 50.1871 9.83365 51.5132 8.61546 51.8C8.49006 51.8358 8.4184 51.9612 8.43632 52.0867C8.47215 52.2121 8.59755 52.2838 8.72295 52.2659C10.0128 51.9433 11.9117 50.5993 12.0192 50.5455C12.0013 50.5455 12.0013 50.5455 12.0192 50.5455Z" fill="#138175"/>
<path d="M15.5859 51.9615C15.6575 51.9078 15.6933 51.8003 15.6575 51.7107C15.6038 51.5852 14.511 48.4313 13.0957 46.7289C13.0062 46.6213 12.8628 46.6213 12.7733 46.693C12.6658 46.7826 12.6658 46.926 12.7374 47.0156C14.0989 48.6463 15.1917 51.8003 15.2097 51.8361C15.2455 51.9615 15.3888 52.0153 15.5142 51.9795C15.55 51.9974 15.5679 51.9795 15.5859 51.9615Z" fill="#138175"/>
<path d="M18.1647 52.8212C18.2542 52.7495 18.2722 52.6061 18.2005 52.4986C18.1288 52.3911 17.9855 52.3732 17.878 52.4449C17.8601 52.4628 15.585 54.0935 13.0949 54.3802C12.9694 54.3982 12.8799 54.5057 12.8978 54.649C12.9157 54.7745 13.0232 54.8641 13.1665 54.8462C15.7641 54.5415 18.0572 52.8929 18.1647 52.8212Z" fill="#138175"/>
<path d="M21.2463 53.6461C21.3179 53.5923 21.3538 53.4848 21.3179 53.3952C21.2821 53.2877 20.4222 50.7968 18.8457 48.9331C18.7562 48.8435 18.6128 48.8256 18.5233 48.8973C18.4158 48.9869 18.4158 49.1302 18.4874 49.2198C20.0102 51.0298 20.8701 53.5027 20.888 53.5386C20.9238 53.664 21.0671 53.7178 21.1925 53.6819C21.1925 53.6819 21.2284 53.664 21.2463 53.6461Z" fill="#138175"/>
<path d="M24.0403 54.2018C24.1299 54.1301 24.1478 53.9868 24.0761 53.8792C24.0045 53.7717 23.8612 53.7538 23.7537 53.8255C23.7358 53.8434 21.5323 55.4383 18.4689 55.9759C18.3435 55.9938 18.2539 56.1193 18.2718 56.2447C18.2897 56.3701 18.4151 56.4597 18.5405 56.4418C21.7114 55.8863 23.9328 54.2735 24.0403 54.2018C24.0224 54.2018 24.0403 54.2018 24.0403 54.2018Z" fill="#138175"/>
<path d="M38.9842 25.9636L38.9877 25.9628L39.4489 25.859C40.0509 25.7911 40.6573 25.7697 41.2626 25.7949C42.1858 25.8423 43.0514 25.9066 43.9361 26.0385L44.0206 26.0511L44.1058 26.0564C44.4356 26.0771 44.8189 26.1421 45.3059 26.2319L45.3222 26.2349L45.3386 26.2377L45.6724 26.2935C45.753 26.3084 45.8311 26.3226 45.9068 26.3364C46.4166 26.4293 46.8203 26.5029 47.2135 26.6118L47.2211 26.6139L47.2287 26.616C47.9386 26.8065 48.6386 27.0327 49.3259 27.2937C49.9242 27.5238 50.4926 27.826 51.0185 28.1939C51.019 28.1943 51.0195 28.1946 51.0199 28.1949L51.3084 28.3976L51.327 28.4107L51.3459 28.4233C51.6097 28.5999 51.8748 28.786 52.141 28.9819C52.5887 29.3166 52.9972 29.6268 53.4282 29.9784C53.781 30.2661 54.1137 30.5718 54.5003 30.9271C54.5624 30.9841 54.6259 31.0425 54.6911 31.1022L54.7141 31.1233L54.7378 31.1437L54.7836 31.1831C55.1927 31.5567 55.5867 31.9261 55.9562 32.2971L55.9589 32.2997C56.621 32.9619 57.2475 33.6589 57.8359 34.3878C58.0706 34.7015 58.2473 35.0555 58.3573 35.4329L58.3703 35.4775L58.3853 35.5214C58.4931 35.8363 58.615 36.1835 58.7493 36.5374L58.9507 37.1071C59.0041 37.2645 59.0532 37.4093 59.1021 37.5536C59.2039 37.8535 59.3048 38.151 59.4411 38.555C59.6412 39.1478 59.829 39.7231 60.0061 40.3034L60.0219 40.3549L60.0404 40.4056C60.1138 40.6066 60.1918 40.8741 60.2729 41.1907L60.2788 41.2137L60.2852 41.2365L60.409 41.6763L60.4188 41.7123C60.5362 42.144 60.6223 42.4611 60.6795 42.7767L60.6835 42.7988L60.688 42.8208C60.8167 43.4505 60.9074 44.0874 60.9595 44.728C60.9614 44.9925 60.934 45.2564 60.8778 45.5148L60.832 45.725V45.906C60.7169 46.5313 60.5864 47.1541 60.4404 47.7744C60.3162 48.2813 60.1729 48.7947 60.0181 49.3073L59.9542 49.5089L59.9502 49.5214L59.9464 49.5339C59.7975 50.0261 59.6424 50.5184 59.4811 51.0108C59.1815 51.8622 58.8261 52.6926 58.4171 53.4967L58.4029 53.5246L58.3896 53.5529C58.1535 54.0553 57.825 54.5079 57.4218 54.8868L56.9929 55.28C56.9913 55.2814 56.9897 55.2829 56.9881 55.2843C56.7276 55.5201 56.468 55.7588 56.2178 55.9889C55.7518 56.4176 55.3184 56.8162 54.9722 57.1097C54.8009 57.255 54.6285 57.4021 54.4578 57.5478C54.0436 57.9011 53.6389 58.2465 53.2803 58.5398C52.8771 58.8696 52.4643 59.185 52.0243 59.5213C51.9266 59.5959 51.8277 59.6716 51.7271 59.7486L51.7201 59.754L51.7131 59.7595L51.5382 59.896L51.5325 59.9005L51.5268 59.905L51.3423 60.0512L51.2917 60.0913L51.2437 60.1346C51.0338 60.3243 50.7908 60.5111 50.5335 60.6762L50.5288 60.6792L50.3928 60.7669L50.3332 60.8054L50.2764 60.848C50.157 60.9377 50.0257 61.0095 49.8867 61.0616L49.5573 61.1584C49.4373 61.1921 49.3346 61.2283 49.2725 61.2505L49.2554 61.2567H49.2471L49.0419 61.3002C48.3695 61.4428 47.7085 61.5735 47.0545 61.6845C45.9736 61.8653 44.8885 62.0278 43.7965 62.1817C43.7641 62.186 43.7325 62.1901 43.7016 62.1942C43.2594 62.2523 42.9702 62.2903 42.6963 62.2903H42.6589L42.6216 62.2917L40.8329 62.3585H40.3631C40.0005 62.3515 39.6407 62.2916 39.2949 62.1809L39.268 62.1723L39.2409 62.1644C38.1302 61.8428 37.0493 61.4249 36.0106 60.9152L35.9906 60.9054L35.9704 60.896C35.1231 60.5035 34.232 60.056 33.4608 59.632L32.4973 61.3847L33.4608 59.632C32.6826 59.2042 31.9086 58.7458 31.1379 58.2646L31.1289 58.259C30.8612 58.0938 30.6079 57.9059 30.372 57.6973C30.1973 57.5311 30.0332 57.3539 29.8806 57.1668L29.8749 57.1597L29.8691 57.1527L29.7309 56.9863L29.7233 56.9772L29.5949 56.8206L29.5949 56.8205C29.4977 56.7021 29.4119 56.5992 29.3341 56.5058C29.1532 56.2887 29.0149 56.1227 28.8753 55.9322L28.868 55.9222L28.8606 55.9123C28.3399 55.2197 27.8351 54.5177 27.346 53.8065L27.3146 53.7608L27.2807 53.717C26.9834 53.3321 26.7297 52.9336 26.4388 52.4531C26.0189 51.7552 25.6539 51.0254 25.3472 50.2702C25.187 49.8725 25.063 49.461 24.9768 49.0406C24.7868 48.1052 24.6389 47.109 24.5041 46.1427C24.4324 45.5833 24.3857 45.0566 24.3857 44.5653V44.5631V44.5609V44.5586V44.5564V44.5542V44.5519V44.5497V44.5475V44.5453V44.543V44.5408V44.5386V44.5363V44.5341V44.5319V44.5296V44.5274V44.5252V44.5229V44.5207V44.5185V44.5162V44.514V44.5118V44.5095V44.5073V44.5051V44.5028V44.5006V44.4984V44.4961V44.4939V44.4917V44.4894V44.4872V44.485V44.4827V44.4805V44.4783V44.476V44.4738V44.4716V44.4693V44.4671V44.4648V44.4626V44.4604V44.4581V44.4559V44.4537V44.4514V44.4492V44.4469V44.4447V44.4425V44.4402V44.438V44.4357V44.4335V44.4313V44.429V44.4268V44.4245V44.4223V44.4201V44.4178V44.4156V44.4133V44.4111V44.4089V44.4066V44.4044V44.4021V44.3999V44.3976V44.3954V44.3932V44.3909V44.3887V44.3864V44.3842V44.3819V44.3797V44.3775V44.3752V44.373V44.3707V44.3685V44.3662V44.364V44.3617V44.3595V44.3573V44.355V44.3528V44.3505V44.3483V44.346V44.3438V44.3415V44.3393V44.337V44.3348V44.3326V44.3303V44.3281V44.3258V44.3236V44.3213V44.3191V44.3168V44.3146V44.3123V44.3101V44.3078V44.3056V44.3033V44.3011V44.2988V44.2966V44.2943V44.2921V44.2898V44.2876V44.2853V44.2831V44.2808V44.2786V44.2763V44.2741V44.2718V44.2696V44.2673V44.2651V44.2628V44.2606V44.2583V44.2561V44.2538V44.2516V44.2493V44.2471V44.2448V44.2426V44.2403V44.2381V44.2358V44.2336V44.2313V44.2291V44.2268V44.2246V44.2223V44.2201V44.2178V44.2156V44.2133V44.2111V44.2088V44.2066V44.2043V44.2021V44.1998V44.1975V44.1953V44.193V44.1908V44.1885V44.1863V44.184V44.1818V44.1795V44.1773V44.175V44.1728V44.1705V44.1683V44.166V44.1637V44.1615V44.1592V44.157V44.1547V44.1525V44.1502V44.148V44.1457V44.1435V44.1412V44.1389V44.1367V44.1344V44.1322V44.1299V44.1277V44.1254V44.1232V44.1209V44.1187V44.1164V44.1141V44.1119V44.1096V44.1074V44.1051V44.1029V44.1006V44.0984V44.0961V44.0938V44.0916V44.0893V44.0871V44.0848V44.0826V44.0803V44.0781V44.0758V44.0735V44.0713V44.069V44.0668V44.0645V44.0623V44.06V44.0577V44.0555V44.0532V44.051V44.0487V44.0465V44.0442V44.042V44.0397V44.0374V44.0352V44.0329V44.0307V44.0284V44.0262V44.0239V44.0216V44.0194V44.0171V44.0149V44.0126V44.0104V44.0081V44.0058V44.0036V44.0013V43.9991V43.9968V43.9946V43.9923V43.99V43.9878V43.9855V43.9833V43.981V43.9788V43.9765V43.9743V43.972V43.9697V43.9675V43.9652V43.963V43.9607V43.9585V43.9562V43.9539V43.9517V43.9494V43.9472V43.9449V43.9427V43.9404V43.9381V43.9359V43.9336V43.9314V43.9291V43.9269V43.9246V43.9224V43.9201V43.9178V43.9156V43.9133V43.9111V43.9088V43.9066V43.9043V43.902V43.8998V43.8975V43.8953V43.893V43.8908V43.8885V43.8863V43.884V43.8817V43.8795V43.8772V43.875V43.8727V43.8705V43.8682V43.866V43.8637V43.8614V43.8592V43.8569V43.8547V43.8524V43.8502V43.8479V43.8457V43.8434V43.8412V43.8389V43.8366V43.8344V43.8321V43.8299V43.8276V43.8254V43.8231V43.8209V43.8186V43.8164V43.8141V43.8118V43.8096V43.8073V43.8051V43.8028V43.8006V43.7983V43.7961V43.7938V43.7916V43.7893V43.7871V43.7848V43.7825V43.7803V43.778V43.7758V43.7735V43.7713V43.769V43.7668V43.7645V43.7623V43.76V43.7578V43.7555V43.7533V43.751V43.7488V43.7465V43.7443V43.742V43.7398V43.7375V43.7353V43.733V43.7308V43.7285V43.7262V43.724V43.7218V43.7195V43.7172V43.715V43.7127V43.7105V43.7082V43.706V43.7037V43.7015V43.6992V43.697V43.6948V43.6925V43.6903V43.688V43.6858V43.6835V43.6813V43.679V43.6768V43.6745V43.6723V43.67V43.6678V43.6655V43.6633V43.661V43.6588V43.6565V43.6543V43.652V43.6498V43.6475V43.6453V43.6431V43.6408V43.6386V43.6363V43.6341V43.6318V43.6296V43.6273V43.6251V43.6228V43.6206V43.6184V43.6161V43.6139V43.6116V43.6094V43.6071V43.6049V43.6026V43.6004V43.5982V43.5959V43.5937V43.5914V43.5892V43.5869V43.5847V43.5825V43.5802V43.578V43.5757V43.5735V43.5712V43.569V43.5668V43.5645V43.5623V43.56V43.5578V43.5556V43.5533V43.5511V43.5488V43.5466V43.5444V43.5421V43.5399V43.5376V43.5354V43.5332V43.5309V43.5287V43.5264V43.5242V43.522V43.5197V43.5175V43.5153V43.513V43.5108V43.5085V43.5063V43.5041V43.5018V43.4996V43.4974V43.4951V43.4929V43.4907V43.4884V43.4862V43.484V43.4817V43.4795V43.4772V43.475V43.4728V43.4705V43.4683V43.4661V43.4638V43.4616V43.4594V43.4572V43.4549V43.4527V43.4505V43.4482V43.446V43.4438V43.4415V43.4393V43.4371V43.4348V43.4326V43.4304V43.4282V43.4259V43.4237V43.4215V43.4192V43.417V43.4148V43.1125V43.1101V43.1076V43.1051V43.1027V43.1002V43.0977V43.0953V43.0928V43.0903V43.0879V43.0854V43.0829V43.0804V43.0779V43.0754V43.073V43.0705V43.068V43.0655V43.063V43.0605V43.058V43.0555V43.053V43.0505V43.048V43.0455V43.043V43.0405V43.0379V43.0354V43.0329V43.0304V43.0279V43.0253V43.0228V43.0203V43.0178V43.0152V43.0127V43.0102V43.0076V43.0051V43.0026V43V42.9975V42.9949V42.9924V42.9898V42.9873V42.9847V42.9822V42.9796V42.9771V42.9745V42.972V42.9694V42.9668V42.9643V42.9617V42.9591V42.9566V42.954V42.9514V42.9489V42.9463V42.9437V42.9411V42.9385V42.936V42.9334V42.9308V42.9282V42.9256V42.923V42.9204V42.9178V42.9152V42.9126V42.91V42.9074V42.9048V42.9022V42.8996V42.897V42.8944V42.8918V42.8892V42.8866V42.884V42.8814V42.8787V42.8761V42.8735V42.8709V42.8683V42.8656V42.863V42.8604V42.8578V42.8551V42.8525V42.8499V42.8472V42.8446V42.842V42.8393V42.8367V42.834V42.8314V42.8288V42.8261V42.8235V42.8208V42.8182V42.8155V42.8129V42.8102V42.8076V42.8049V42.8022V42.7996V42.7969V42.7943V42.7916V42.7889V42.7863V42.7836V42.7809V42.7783V42.7756V42.7729V42.7702V42.7676V42.7649V42.7622V42.7595V42.7569V42.7542V42.7515V42.7488V42.7461V42.7434V42.7408V42.7381V42.7354V42.7327V42.73V42.7273V42.7246V42.7219V42.7192V42.7165V42.7138V42.7111V42.7084V42.7057V42.703V42.7003V42.6976V42.6949V42.6922V42.6895V42.6868V42.6841V42.6814V42.6787V42.6759V42.6732V42.6705V42.6678V42.6651V42.6624V42.6596V42.6569V42.6542V42.6515V42.6487V42.646V42.6433V42.6406V42.6378V42.6351V42.6324V42.6297V42.6269V42.6242V42.6215V42.6187V42.616V42.6132V42.6105V42.6078V42.605V42.6023V42.5996V42.5968V42.5941V42.5913V42.5886V42.5858V42.5831V42.5803V42.5776V42.5748V42.5721V42.5693V42.5666V42.5638V42.5611V42.5583V42.5556V42.5528V42.5501V42.5473V42.5445V42.5418V42.539V42.5363V42.5335V42.5307V42.528V42.5252V42.5225V42.5197V42.5169V42.5142V42.5114V42.5086V42.5059V42.5031V42.5003V42.4976V42.4948V42.492V42.4892V42.4865V42.4837V42.4809V42.4781V42.4754V42.4726V42.4698V42.467V42.4643V42.4615V42.4587V42.4559V42.4531V42.4504V42.4476V42.4448V42.442V42.4392V42.4364V42.4337V42.4309V42.4281V42.4253V42.4225V42.4197V42.4169V42.4141V42.4114V42.4086V42.4058V42.403V42.4002V42.3974V42.3946V42.3918V42.389V42.3862V42.3834V42.3806V42.3778V42.375V42.3723V42.3695V42.3667V42.3639V42.3611V42.3583V42.3555V42.3527V42.3499V42.3471V42.3443V42.3415V42.3387V42.3359V42.3331V42.3303V42.3275V42.3247V42.3219V42.3191V42.3163V42.3134V42.3106V42.3078V42.305V42.3022V42.2994V42.2966V42.2938V42.291V42.2882V42.2854V42.2826V42.2798V42.277V42.2742V42.2714V42.2686V42.2657V42.2629V42.2601V42.2573V42.2545V42.2517V42.2489V42.2461V42.2433V42.2405V42.2376V42.2348V42.232V42.2292V42.2264V42.2236V42.2208V42.218V42.2152V42.2124V42.2095V42.2067V42.2039V42.2011V42.1983V42.1955V42.1927V42.1899V42.187V42.1842V42.1814V42.1786V42.1758V42.173V42.1702V42.1674V42.1645V42.1617V42.1589V42.1561V42.1533V42.1505V42.1477V42.1449V42.142V42.1392V42.1364V42.1336V42.1308V42.128V42.1252V42.1224V42.1195V42.1167V42.1139V42.1111V42.1083V42.1055V42.1027V42.0999V42.097V42.0942V42.0914V42.0886V42.0858V42.083V42.0802V42.0774V42.0746V42.0718V42.0689V42.0661V42.0633V42.0605V42.0577V42.0549V42.0521V42.0493V42.0465V42.0437V42.0409V42.038V42.0352V42.0324V42.0296V42.0268V42.024V42.0212V42.0184V42.0156V42.0128V42.01V42.0072V42.0044V42.0016V41.9988V41.996V41.9932V41.9904V41.9876V41.9848V41.982V41.9792V41.9764V41.9736V41.9708V41.968V41.9652V41.9624V41.9596V41.9568V41.954V41.9512V41.9484V41.9456V41.9428V41.94V41.9372V41.9344V41.9316V41.9288V41.926V41.9232V41.9204V41.9176V41.9148V41.912V41.9093V41.9065V41.9037V41.9009V41.8981V41.8953V41.8925V41.8897V41.8869V41.8842V41.8814V41.8786V41.8758V41.873V41.8702V41.8675V41.8647V41.8619V41.8591V41.8563V41.8536V41.8508V41.848V41.8452V41.8424V41.8397V41.8369V41.8341V41.8313V41.8286V41.8258V41.823V41.8202V41.8175V41.8147V41.8119V41.8092V41.8064V41.8036V41.8009V41.7981V41.7953V41.7926V41.7898V41.7882C24.4435 40.9852 24.5533 40.1869 24.7144 39.3982L24.7192 39.3744L24.7235 39.3505C24.8838 38.4557 25.1668 37.5876 25.5643 36.771C25.9496 36.0167 26.3634 35.2692 26.7969 34.5379L26.8305 34.4812L26.8603 34.4223C27.0399 34.0679 27.247 33.7689 27.5558 33.3228C27.5998 33.2593 27.6458 33.1929 27.6941 33.1229L27.6941 33.1228L27.7789 32.9998C27.7794 32.9992 27.7798 32.9985 27.7803 32.9979C27.8068 32.9597 27.8327 32.9222 27.8583 32.8853C28.1518 32.4612 28.3859 32.123 28.6423 31.8156L28.654 31.8016L28.6654 31.7875C29.097 31.2504 29.5544 30.7349 30.0361 30.2428C30.1839 30.1117 30.3444 29.9959 30.5152 29.8973L30.5657 29.8682L30.6144 29.8362L30.8893 29.6553C31.2448 29.4257 31.6028 29.2053 31.9635 28.9941L31.9702 28.9902L31.9768 28.9862C32.5767 28.6287 33.2899 28.2238 33.7863 27.9561C34.0207 27.8298 34.2954 27.6906 34.5813 27.5465C34.6037 27.5352 34.6262 27.5239 34.6489 27.5125C34.9003 27.3858 35.1684 27.2507 35.3787 27.1375L34.4303 25.3766L35.3787 27.1374C35.5833 27.0272 35.8423 26.9305 36.2456 26.7798C36.3259 26.7498 36.412 26.7177 36.5045 26.6829C36.9781 26.5046 37.4256 26.3436 37.7546 26.2556C38.1444 26.1512 38.5405 26.0626 38.9842 25.9636Z" fill="#FFD064" stroke="#FFC250" stroke-width="4"/>
<path d="M37.9586 51.4601C35.8664 51.4601 34.2207 50.8369 33.0215 49.5906C31.8223 48.3442 31.2227 46.5582 31.2227 44.2326C31.2227 41.9455 31.8031 40.1723 32.9641 38.9131C34.125 37.6411 35.7452 37.0051 37.8246 37.0051C38.8197 37.0051 39.6872 37.0757 40.4272 37.2171C40.7334 37.2685 40.9821 37.4227 41.1735 37.6796C41.3649 37.9366 41.4605 38.2257 41.4605 38.5469V39.1637C41.4605 39.4335 41.3521 39.6455 41.1352 39.7997C40.9183 39.9539 40.6823 39.9989 40.4272 39.9346C39.7 39.7419 38.9601 39.6455 38.2074 39.6455C37.0592 39.6455 36.1598 40.0374 35.5092 40.8212C34.8713 41.605 34.5524 42.7421 34.5524 44.2326C34.5524 45.6974 34.8968 46.8345 35.5857 47.644C36.2746 48.4535 37.1932 48.8582 38.3413 48.8582C39.1068 48.8582 39.8531 48.7618 40.5803 48.5691C40.8354 48.5048 41.0714 48.5498 41.2883 48.704C41.5179 48.8582 41.6328 49.0702 41.6328 49.34V49.9182C41.6328 50.2395 41.5307 50.5285 41.3266 50.7855C41.1352 51.0425 40.8864 51.1967 40.5803 51.2481C39.8276 51.3894 38.9537 51.4601 37.9586 51.4601Z" fill="#E49542"/>
<path d="M48.8928 39.9154C47.6808 39.9667 47.0748 40.3908 47.0748 41.1874C47.0748 41.8941 47.6425 42.3952 48.7779 42.6907C48.7907 42.6907 48.8098 42.6971 48.8353 42.71C48.8736 42.71 48.8991 42.7164 48.9119 42.7293C49.014 42.755 49.065 42.71 49.065 42.5943V40.0888C49.065 39.9732 49.0076 39.9154 48.8928 39.9154ZM48.9693 48.5305C50.1175 48.4278 50.6916 47.9588 50.6916 47.1236C50.6916 46.7638 50.5576 46.4619 50.2897 46.2177C50.0346 45.9608 49.5944 45.7359 48.9693 45.5432C48.8545 45.5175 48.7971 45.556 48.7971 45.6588V48.3764C48.7971 48.4791 48.8545 48.5305 48.9693 48.5305ZM46.6155 44.7144C44.8805 43.8792 44.013 42.7036 44.013 41.1874C44.013 40.0695 44.4276 39.1765 45.2569 38.5084C46.0989 37.8403 47.3108 37.4998 48.8928 37.4869C49.0076 37.4869 49.065 37.4291 49.065 37.3134V36.6582C49.065 36.3626 49.167 36.1056 49.3712 35.8872C49.588 35.6688 49.8432 35.5596 50.1366 35.5596H50.1749C50.4683 35.5596 50.7235 35.6688 50.9403 35.8872C51.1572 36.1056 51.2656 36.3626 51.2656 36.6582V37.4676C51.2656 37.5704 51.3167 37.6347 51.4187 37.6604C51.8015 37.7118 52.0821 37.7567 52.2607 37.7953C52.5669 37.8595 52.8157 38.0266 53.007 38.2964C53.1984 38.5534 53.2941 38.8425 53.2941 39.1637V39.6263C53.2941 39.8832 53.1856 40.0888 52.9688 40.243C52.7646 40.3972 52.535 40.4422 52.2799 40.3779C51.8971 40.2751 51.6101 40.2045 51.4187 40.1659C51.3167 40.1402 51.2656 40.1788 51.2656 40.2815V43.134C51.2656 43.2239 51.2593 43.2882 51.2465 43.3267C51.221 43.4424 51.2465 43.5195 51.3231 43.558C52.2033 43.9692 52.8284 44.4574 53.1984 45.0228C53.5811 45.5753 53.7725 46.2563 53.7725 47.0658C53.7725 48.2736 53.3643 49.2115 52.5478 49.8797C51.7441 50.5478 50.5448 50.9076 48.9502 50.959C48.8481 50.959 48.7971 51.0168 48.7971 51.1324V51.807C48.7971 52.1025 48.6886 52.3595 48.4718 52.578C48.2676 52.7964 48.0189 52.9056 47.7254 52.9056H47.6872C47.3938 52.9056 47.1386 52.7964 46.9217 52.578C46.7048 52.3595 46.5964 52.1025 46.5964 51.807V50.9975C46.5964 50.8819 46.5518 50.8176 46.4625 50.8048C46.1308 50.7534 45.7991 50.6763 45.4674 50.5735C45.1612 50.4836 44.9124 50.3037 44.7211 50.0339C44.5297 49.7512 44.434 49.4428 44.434 49.1087V48.5498C44.434 48.3057 44.5361 48.1194 44.7402 47.9909C44.9571 47.8496 45.1803 47.8303 45.41 47.9331C45.7544 48.0744 46.0989 48.1901 46.4433 48.28C46.5454 48.3057 46.5964 48.2607 46.5964 48.1451V45.3312C46.5964 45.2155 46.6219 45.0806 46.673 44.9264C46.724 44.8236 46.7049 44.753 46.6155 44.7144Z" fill="#E49542"/>
</svg>
