<svg width="69" height="115" viewBox="0 0 69 115" fill="none" xmlns="http://www.w3.org/2000/svg">
<mask id="mask0" mask-type="alpha" maskUnits="userSpaceOnUse" x="0" y="0" width="69" height="115">
<rect width="69" height="115" rx="10" fill="#C4C4C4"/>
</mask>
<g mask="url(#mask0)">
<g opacity="0.2">
<path d="M8.40717 15.4262C8.40717 15.7573 8.53953 16.0552 8.77118 16.2869C9.00282 16.5186 9.30065 16.651 9.63158 16.651H35.278C35.9399 16.651 36.4693 16.1214 36.4693 15.4593C36.4693 15.1283 36.337 14.8304 36.1053 14.5987C35.8737 14.367 35.5758 14.2346 35.2449 14.2346H34.0205C33.5572 13.1091 32.4321 12.3477 31.1415 12.3477C30.2811 12.3477 29.4869 12.7118 28.9243 13.2746C28.1632 11.9836 26.7733 11.1229 25.1849 11.1229C24.7547 11.1229 24.3245 11.1891 23.9274 11.3215C23.1001 9.76572 21.4455 8.67334 19.5261 8.67334C17.2428 8.67334 15.3234 10.2292 14.7278 12.3146C14.2976 12.116 13.8343 11.9836 13.3379 11.9836C11.9149 11.9836 10.7236 12.9436 10.3265 14.2346H9.59848C8.93664 14.2015 8.40717 14.7642 8.40717 15.4262Z" fill="#65A4C5"/>
</g>
<g opacity="0.2">
<path d="M64.2338 9.43488C64.2338 9.6335 64.2999 9.79901 64.4323 9.93142C64.5647 10.0638 64.7301 10.13 64.9287 10.13H80.3497C80.7468 10.13 81.0777 9.79901 81.0777 9.40178C81.0777 9.20317 81.0115 9.03765 80.8791 8.90524C80.7468 8.77283 80.5813 8.70663 80.3828 8.70663H79.6547C79.3569 8.04458 78.6951 7.58115 77.9339 7.58115C77.4045 7.58115 76.9412 7.77976 76.6102 8.14389C76.147 7.38253 75.3196 6.85289 74.36 6.85289C74.0952 6.85289 73.8305 6.88599 73.5989 6.9522C73.1025 5.99223 72.1097 5.36328 70.9515 5.36328C69.5616 5.36328 68.4365 6.29015 68.0725 7.54804C67.8077 7.41563 67.543 7.34943 67.2452 7.34943C66.3848 7.34943 65.6567 7.91217 65.4251 8.70663H64.9618C64.5647 8.70663 64.2338 9.03765 64.2338 9.43488Z" fill="#65A4C5"/>
</g>
<path opacity="0.1" d="M78.8241 133.001C107.371 133.001 130.513 109.587 130.513 80.7054C130.513 51.8235 107.371 28.4102 78.8241 28.4102C50.2772 28.4102 27.1353 51.8235 27.1353 80.7054C27.1353 109.587 50.2772 133.001 78.8241 133.001Z" fill="#138175"/>
<path opacity="0.15" d="M78.899 124.374C102.695 124.374 121.986 104.857 121.986 80.7819C121.986 56.7067 102.695 37.1899 78.899 37.1899C55.1029 37.1899 35.8124 56.7067 35.8124 80.7819C35.8124 104.857 55.1029 124.374 78.899 124.374Z" fill="#138175"/>
<path opacity="0.2" d="M79.0122 115.024C97.6442 115.024 112.748 99.7422 112.748 80.8916C112.748 62.0411 97.6442 46.7598 79.0122 46.7598C60.3803 46.7598 45.2761 62.0411 45.2761 80.8916C45.2761 99.7422 60.3803 115.024 79.0122 115.024Z" fill="white"/>
<path d="M61.9166 62.4505C61.9166 62.4505 61.8835 62.4505 61.9166 62.4505C61.685 62.616 61.3872 62.5829 61.2217 62.3512C55.7284 54.4728 51.5919 47.4551 48.9445 41.5628C45.8669 34.6444 44.808 29.2156 45.8007 25.3757C45.8669 25.1109 46.1317 24.9785 46.3633 25.0447C46.6281 25.1109 46.7604 25.3757 46.6942 25.6074C44.9404 32.3934 50.202 44.9062 61.9828 61.7884C62.1483 62.0202 62.1152 62.285 61.9166 62.4505Z" fill="#138175"/>
<path d="M46.7247 35.1736C46.7247 35.1736 43.2831 37.1597 40.0401 31.0026C40.007 30.9695 46.129 29.4137 46.7247 35.1736Z" fill="#138175"/>
<path d="M48.2468 38.4179C48.2468 38.4179 46.0627 35.1077 52.0524 31.4995C52.0193 31.4995 53.9386 37.5242 48.2468 38.4179Z" fill="#138175"/>
<path d="M45.9267 28.4545C45.9267 28.4545 42.7829 26.0712 47.2173 20.6755C47.2173 20.6424 50.9898 25.707 45.9267 28.4545Z" fill="#138175"/>
<path d="M51.0942 45.1051C51.0942 45.1051 48.5461 48.1505 43.3837 43.45C43.3837 43.4169 48.6123 39.908 51.0942 45.1051Z" fill="#138175"/>
<path d="M53.142 48.1838C53.142 48.1838 50.4284 45.3039 55.6901 40.7026C55.6901 40.7357 58.6022 46.3301 53.142 48.1838Z" fill="#138175"/>
<path d="M55.5255 52.7185C55.5255 52.7185 53.0436 55.797 47.7819 51.1958C47.7819 51.1958 52.9443 47.5545 55.5255 52.7185Z" fill="#138175"/>
<path d="M57.8435 90.456C56.9169 91.085 55.9241 91.6146 54.9313 92.0449C54.6666 92.1773 54.3688 92.2767 54.104 92.4091C45.6986 95.7524 36.0026 93.8325 36.0026 93.8325C36.0026 93.8325 18.4638 92.078 19.4234 83.6038C20.3831 75.1296 28.1598 80.3929 31.0388 78.9364C33.9178 77.4799 26.1081 72.1504 19.9529 66.4236C13.7978 60.6969 15.9488 55.6653 19.2911 55.864C22.6334 56.0957 22.5341 51.693 18.8278 48.1842C14.8898 44.4436 8.76777 34.877 14.592 32.8908C21.2104 30.6068 25.1484 44.4767 30.6417 44.2781C36.135 44.0795 31.1712 38.5183 35.3408 37.9886C39.5104 37.459 44.1433 46.4629 42.6872 54.3743C41.2312 62.2858 46.1288 68.7739 47.618 66.4567C49.1071 64.1396 47.7503 56.4929 51.2912 55.3012C58.0751 53.0171 66.7453 84.5638 57.8435 90.456Z" fill="#138175"/>
<path d="M54.9302 92.0452C54.6654 92.1776 54.3676 92.277 54.1029 92.4094C43.8443 76.0567 20.1834 42.1267 19.9187 41.7626C19.7863 41.564 19.8194 41.2661 20.0179 41.1336C20.2165 41.0012 20.5143 41.0343 20.6467 41.2329C20.8783 41.6302 44.7047 75.7257 54.9302 92.0452Z" fill="#2B5250"/>
<path d="M33.1581 60.5318C33.0919 60.5318 32.9927 60.5318 32.9265 60.4987C32.6948 60.3993 32.5955 60.1345 32.6617 59.9028C32.6948 59.8366 35.2098 53.4809 35.4415 49.2438C35.4415 49.0121 35.6731 48.8135 35.9048 48.8135C36.1364 48.8135 36.335 49.0452 36.335 49.2769C36.1033 53.6795 33.5883 59.969 33.489 60.2338C33.4559 60.3993 33.3236 60.5318 33.1581 60.5318Z" fill="#2B5250"/>
<path d="M35.8009 64.8674C35.503 64.9005 28.9177 65.3309 24.0862 63.9075C23.8546 63.8413 23.7222 63.5765 23.7884 63.3447C23.8546 63.113 24.1193 62.9806 24.351 63.0468C29.017 64.404 35.6685 63.9737 35.7347 63.9737C35.9663 63.9406 36.198 64.1392 36.198 64.404C36.198 64.6357 36.0325 64.8343 35.8009 64.8674Z" fill="#2B5250"/>
<path d="M47.2855 81.4529C47.1862 81.4529 47.0539 81.4529 46.9546 81.3536C46.756 81.188 46.7229 80.9232 46.8553 80.7246C46.8884 80.6584 51.4882 74.5013 51.7198 70.2311C51.7198 69.9994 51.9515 69.8008 52.1831 69.8008C52.4148 69.8008 52.6133 70.0325 52.6133 70.2642C52.3817 74.7993 47.7819 80.9894 47.5833 81.2542C47.5171 81.3867 47.4179 81.4529 47.2855 81.4529Z" fill="#2B5250"/>
<path d="M42.6557 86.4514C40.1076 86.7824 37.2617 86.9148 34.7798 86.4514C34.5481 86.4183 34.3827 86.1866 34.4158 85.9218C34.4489 85.69 34.6805 85.5245 34.9453 85.5576C40.8688 86.65 49.3734 84.1673 49.4727 84.1342C49.7044 84.068 49.9691 84.2004 50.0353 84.4322C50.1015 84.6639 49.9691 84.9287 49.7375 84.9949C49.5058 85.0611 46.3952 85.9549 42.6557 86.4514Z" fill="#2B5250"/>
<path d="M16.7777 102.273C28.6247 111.476 41.0343 106.477 43.5162 105.683C46.7261 104.624 49.0426 102.373 50.3332 100.883C50.5979 100.552 50.8296 100.287 50.995 100.055C51.2929 99.6582 51.4583 99.3934 51.4583 99.3934C51.4583 99.3934 44.6413 94.5936 37.0632 89.5951C30.3124 85.1263 17.5388 79.3995 0 80.6574C0 80.5912 4.2358 92.5412 16.7777 102.273Z" fill="#20B58D"/>
<path d="M8.76788 86.9149C8.83407 86.948 12.6728 89.2652 18.5632 92.0127C18.5963 92.0127 18.5963 92.0458 18.6294 92.0458C19.3905 92.4099 20.1847 92.7741 21.012 93.1382C21.3098 93.2706 21.6407 93.403 21.9717 93.5354C22.9644 93.9657 23.9903 94.3961 25.0492 94.7933C26.1082 95.2236 27.2002 95.6209 28.3585 96.0512C28.3915 96.0512 28.3915 96.0843 28.4246 96.0843C29.6821 96.5477 30.9727 96.9781 32.3295 97.4084C32.6935 97.5077 33.0575 97.6401 33.3885 97.7394C35.1423 98.2691 36.9293 98.7656 38.7825 99.1959C38.8487 99.1959 38.9149 99.229 38.981 99.229C40.3047 99.527 41.6284 99.8249 42.9852 100.057C43.4154 100.123 43.8456 100.189 44.2427 100.255C46.2613 100.553 48.2799 100.785 50.3317 100.884C50.5964 100.553 50.828 100.288 50.9935 100.057C47.0886 99.9242 43.0845 99.2952 39.312 98.4346C38.981 98.3684 38.617 98.2691 38.2861 98.2029C34.9438 97.3753 31.7669 96.3822 28.8879 95.356C28.5239 95.2236 28.1599 95.0912 27.829 94.9588C27.0017 94.6609 26.1744 94.3299 25.4132 94.0319C23.163 93.1382 21.0782 92.2444 19.1919 91.3506C18.861 91.1851 18.5301 91.0527 18.1992 90.8872C12.8051 88.3383 9.33045 86.2529 9.26427 86.2198C9.06571 86.0874 8.80098 86.1536 8.66861 86.3522C8.50315 86.5177 8.56933 86.7825 8.76788 86.9149Z" fill="#138175"/>
<path d="M19.0611 91.946C19.1935 91.8467 19.2266 91.6812 19.1935 91.5157C19.1604 91.3502 18.2338 87.1793 17.208 85.5573C17.0756 85.3586 16.8109 85.2924 16.6123 85.4248C16.4138 85.5573 16.3476 85.8221 16.4799 86.0207C17.4065 87.5103 18.3331 91.6481 18.3331 91.7143C18.3993 91.946 18.6309 92.1115 18.8626 92.0453C18.9288 92.0122 18.9949 92.0122 19.0611 91.946Z" fill="#138175"/>
<path d="M22.2017 93.3688C22.3672 93.2364 22.4003 92.9716 22.2679 92.773C22.1355 92.5744 21.8708 92.5413 21.6722 92.6737C21.6391 92.7068 18.1645 95.1564 15.9142 95.686C15.6826 95.7522 15.5502 95.9839 15.5833 96.2156C15.6495 96.4473 15.8811 96.5798 16.1128 96.5467C18.4954 95.9508 22.0032 93.4681 22.2017 93.3688C22.1686 93.3688 22.1686 93.3688 22.2017 93.3688Z" fill="#138175"/>
<path d="M28.7913 95.9845C28.9237 95.8852 28.9899 95.6866 28.9237 95.5211C28.8244 95.2894 26.8058 89.4634 24.1915 86.3186C24.0261 86.12 23.7613 86.12 23.5959 86.2524C23.3973 86.4179 23.3973 86.6828 23.5297 86.8483C26.0447 89.8606 28.0633 95.6866 28.0964 95.7528C28.1626 95.9846 28.4273 96.0839 28.659 96.0177C28.7252 96.0508 28.7583 96.0177 28.7913 95.9845Z" fill="#138175"/>
<path d="M33.5528 97.572C33.7182 97.4396 33.7513 97.1747 33.619 96.9761C33.4866 96.7775 33.2218 96.7444 33.0233 96.8768C32.9902 96.9099 28.7875 99.9222 24.1877 100.452C23.956 100.485 23.7906 100.684 23.8237 100.948C23.8568 101.18 24.0553 101.346 24.3201 101.313C29.1184 100.75 33.3542 97.7044 33.5528 97.572Z" fill="#138175"/>
<path d="M39.2457 99.096C39.3781 98.9967 39.4442 98.7981 39.3781 98.6326C39.3119 98.434 37.7235 93.8327 34.8113 90.3901C34.6459 90.2246 34.3811 90.1915 34.2157 90.3239C34.0171 90.4894 34.0171 90.7542 34.1495 90.9197C36.9623 94.2631 38.5508 98.8312 38.5838 98.8974C38.65 99.1291 38.9148 99.2284 39.1464 99.1622C39.1464 99.1622 39.2126 99.1291 39.2457 99.096Z" fill="#138175"/>
<path d="M44.409 100.123C44.5744 99.9903 44.6075 99.7255 44.4752 99.5269C44.3428 99.3283 44.0781 99.2952 43.8795 99.4276C43.8464 99.4607 39.7761 102.407 34.1173 103.4C33.8857 103.433 33.7202 103.665 33.7533 103.896C33.7864 104.128 34.018 104.294 34.2497 104.261C40.107 103.234 44.2104 100.255 44.409 100.123C44.3759 100.123 44.409 100.123 44.409 100.123Z" fill="#138175"/>
<path d="M71.6457 46.3067L71.6492 46.3059L72.5895 46.0944C73.8215 45.9503 75.063 45.9041 76.3023 45.9563C78.0321 46.045 79.696 46.1671 81.4118 46.4229L81.4962 46.4355L81.5815 46.4408C82.3063 46.4863 83.1092 46.6257 83.9995 46.7898L84.0158 46.7929L84.0322 46.7956L84.6622 46.901C84.8104 46.9282 84.9557 46.9547 85.0986 46.9807C86.0346 47.1511 86.8627 47.3019 87.6682 47.5249L87.6758 47.527L87.6834 47.5291C89.0508 47.8961 90.3989 48.3319 91.7228 48.8347C92.9582 49.3093 94.1315 49.9332 95.2169 50.6927C95.2176 50.6932 95.2183 50.6936 95.219 50.6941L95.7543 51.0703L95.7729 51.0833L95.7918 51.096C96.3025 51.4378 96.8145 51.7974 97.3275 52.175C98.1622 52.7989 98.9409 53.3899 99.7668 54.0636C100.46 54.6292 101.115 55.2312 101.827 55.8853C101.941 55.99 102.056 56.0961 102.174 56.2035L102.197 56.2246L102.22 56.245L102.324 56.334C103.095 57.0383 103.851 57.7463 104.566 58.464L104.569 58.4667C105.841 59.7392 107.045 61.0791 108.175 62.4806C108.74 63.2294 109.165 64.0758 109.428 64.9785L109.441 65.023L109.456 65.067C109.654 65.6461 109.875 66.2744 110.116 66.9093L110.499 67.991C110.599 68.2868 110.691 68.5588 110.783 68.8303C110.971 69.3829 111.157 69.9333 111.409 70.6779C111.781 71.7829 112.134 72.8621 112.467 73.9545L112.483 74.0061L112.502 74.0567C112.666 74.5055 112.826 75.0621 112.981 75.6679L112.987 75.6908L112.993 75.7136L113.222 76.5245L113.227 76.5421L113.253 76.6413C113.462 77.4084 113.639 78.0592 113.758 78.716L113.762 78.7382L113.766 78.7602C114.022 80.0096 114.201 81.2736 114.302 82.545C114.311 83.1805 114.248 83.8152 114.113 84.4362L114.067 84.6464V84.8616V84.9525C113.842 86.1888 113.585 87.4199 113.297 88.6458C113.057 89.6234 112.782 90.6075 112.488 91.5826L112.366 91.9659L112.362 91.9784L112.358 91.9909C112.078 92.9182 111.785 93.8457 111.481 94.7732C110.902 96.4224 110.214 98.031 109.422 99.5884L109.408 99.6163L109.394 99.6446C108.866 100.769 108.13 101.782 107.225 102.63C107.223 102.633 107.221 102.635 107.218 102.637L106.418 103.371C106.416 103.372 106.414 103.374 106.413 103.375C105.958 103.787 105.492 104.215 105.034 104.636C104.154 105.445 103.308 106.223 102.644 106.787C102.337 107.047 102.025 107.313 101.712 107.58C100.941 108.238 100.172 108.894 99.4955 109.447C98.7268 110.076 97.9375 110.679 97.1233 111.302C96.9449 111.438 96.7653 111.575 96.5845 111.714L96.5774 111.719L96.5704 111.725L96.2475 111.977L96.2418 111.981L96.2361 111.986L95.8952 112.256L95.8446 112.296L95.7966 112.339C95.3398 112.752 94.8171 113.154 94.2634 113.509L94.2588 113.512L94.0076 113.674L93.9479 113.712L93.8911 113.755C93.523 114.031 93.116 114.25 92.6837 114.405L92.0132 114.602C91.8467 114.648 91.6978 114.7 91.591 114.738C91.5394 114.757 91.5001 114.771 91.467 114.783C91.413 114.803 91.3751 114.817 91.3266 114.833C91.3062 114.84 91.2898 114.845 91.2769 114.849H91.1501L90.9449 114.893C89.6888 115.159 88.444 115.405 87.2063 115.615C85.1867 115.953 83.163 116.256 81.1323 116.542C81.0591 116.552 80.987 116.561 80.9161 116.571C80.1382 116.673 79.4941 116.758 78.8717 116.758H78.8344L78.797 116.76L75.4612 116.884H74.5464C73.7062 116.87 72.8725 116.732 72.0716 116.475L72.0448 116.467L72.0177 116.459C69.8712 115.838 67.7826 115.03 65.7754 114.045L65.7554 114.035L65.7352 114.026C64.1391 113.286 62.4579 112.442 60.9954 111.638C59.5259 110.831 58.0689 109.967 56.6234 109.065L56.6144 109.059C56.0287 108.698 55.4753 108.286 54.9605 107.828C54.5776 107.466 54.2183 107.079 53.8849 106.67L53.8791 106.663L53.8733 106.656L53.6117 106.341L53.6041 106.332L53.3605 106.035L53.3605 106.035C53.204 105.844 53.0575 105.668 52.9188 105.502C52.5671 105.08 52.2651 104.717 51.9743 104.32L51.967 104.31L51.9596 104.301C50.9836 103.002 50.0371 101.686 49.1201 100.353L49.0887 100.307L49.0548 100.263C48.4448 99.4735 47.9362 98.6703 47.3901 97.7686C46.5678 96.4023 45.8533 94.9734 45.2531 93.4951C44.9184 92.6646 44.6595 91.8053 44.4796 90.9276C44.1168 89.1415 43.8373 87.2531 43.5872 85.4605C43.4497 84.3887 43.3536 83.3334 43.3536 82.322V82.3179V82.3138V82.3097V82.3055V82.3014V82.2973V82.2932V82.2891V82.2849V82.2808V82.2767V82.2726V82.2685V82.2643V82.2602V82.2561V82.252V82.2479V82.2437V82.2396V82.2355V82.2314V82.2272V82.2231V82.219V82.2149V82.2107V82.2066V82.2025V82.1983V82.1942V82.1901V82.186V82.1818V82.1777V82.1736V82.1694V82.1653V82.1612V82.1571V82.1529V82.1488V82.1447V82.1405V82.1364V82.1323V82.1281V82.124V82.1199V82.1157V82.1116V82.1075V82.1033V82.0992V82.0951V82.0909V82.0868V82.0826V82.0785V82.0744V82.0702V82.0661V82.062V82.0578V82.0537V82.0495V82.0454V82.0413V82.0371V82.033V82.0288V82.0247V82.0206V82.0164V82.0123V82.0081V82.004V81.9998V81.9957V81.9916V81.9874V81.9833V81.9791V81.975V81.9708V81.9667V81.9625V81.9584V81.9543V81.9501V81.946V81.9418V81.9377V81.9335V81.9294V81.9252V81.9211V81.9169V81.9128V81.9086V81.9045V81.9003V81.8962V81.892V81.8879V81.8837V81.8796V81.8754V81.8713V81.8671V81.863V81.8588V81.8547V81.8505V81.8464V81.8422V81.8381V81.8339V81.8298V81.8256V81.8214V81.8173V81.8131V81.809V81.8048V81.8007V81.7965V81.7924V81.7882V81.7841V81.7799V81.7757V81.7716V81.7674V81.7633V81.7591V81.755V81.7508V81.7466V81.7425V81.7383V81.7342V81.73V81.7259V81.7217V81.7175V81.7134V81.7092V81.7051V81.7009V81.6967V81.6926V81.6884V81.6843V81.6801V81.6759V81.6718V81.6676V81.6635V81.6593V81.6551V81.651V81.6468V81.6427V81.6385V81.6343V81.6302V81.626V81.6218V81.6177V81.6135V81.6094V81.6052V81.601V81.5969V81.5927V81.5885V81.5844V81.5802V81.576V81.5719V81.5677V81.5636V81.5594V81.5552V81.5511V81.5469V81.5427V81.5386V81.5344V81.5302V81.5261V81.5219V81.5177V81.5136V81.5094V81.5052V81.5011V81.4969V81.4927V81.4886V81.4844V81.4802V81.4761V81.4719V81.4677V81.4636V81.4594V81.4552V81.4511V81.4469V81.4427V81.4386V81.4344V81.4302V81.4261V81.4219V81.4177V81.4136V81.4094V81.4052V81.4011V81.3969V81.3927V81.3886V81.3844V81.3802V81.3761V81.3719V81.3677V81.3636V81.3594V81.3552V81.3511V81.3469V81.3427V81.3386V81.3344V81.3302V81.326V81.3219V81.3177V81.3135V81.3094V81.3052V81.301V81.2969V81.2927V81.2885V81.2844V81.2802V81.276V81.2719V81.2677V81.2635V81.2593V81.2552V81.251V81.2468V81.2427V81.2385V81.2343V81.2302V81.226V81.2218V81.2177V81.2135V81.2093V81.2052V81.201V81.1968V81.1927V81.1885V81.1843V81.1801V81.176V81.1718V81.1676V81.1635V81.1593V81.1551V81.151V81.1468V81.1426V81.1385V81.1343V81.1301V81.126V81.1218V81.1176V81.1135V81.1093V81.1051V81.101V81.0968V81.0926V81.0885V81.0843V81.0801V81.076V81.0718V81.0676V81.0635V81.0593V81.0551V81.051V81.0468V81.0426V81.0385V81.0343V81.0301V81.026V81.0218V81.0176V81.0135V81.0093V81.0051V81.001V80.9968V80.9926V80.9885V80.9843V80.9801V80.976V80.9718V80.9676V80.9635V80.9593V80.9551V80.951V80.9468V80.9427V80.9385V80.9343V80.9302V80.926V80.9218V80.9177V80.9135V80.9093V80.9052V80.901V80.8969V80.8927V80.8885V80.8844V80.8802V80.876V80.8719V80.8677V80.8636V80.8594V80.8552V80.8511V80.8469V80.8428V80.8386V80.8344V80.8303V80.8261V80.822V80.8178V80.8136V80.8095V80.8053V80.8012V80.797V80.7928V80.7887V80.7845V80.7804V80.7762V80.7721V80.7679V80.7637V80.7596V80.7554V80.7513V80.7471V80.743V80.7388V80.7346V80.7305V80.7263V80.7222V80.718V80.7139V80.7097V80.7056V80.7014V80.6973V80.6931V80.6889V80.6848V80.6806V80.6765V80.6723V80.6682V80.664V80.6599V80.6557V80.6516V80.6474V80.6433V80.6391V80.635V80.6308V80.6267V80.6225V80.6184V80.6142V80.6101V80.6059V80.6018V80.5976V80.5935V80.5893V80.5852V80.581V80.5769V80.5727V80.5686V80.5644V80.5603V80.5562V80.552V80.5479V80.5437V80.5396V80.5354V80.5313V80.5271V80.523V80.5189V80.5147V80.5106V80.5064V80.5023V80.4981V80.494V80.4899V80.4857V80.4816V80.4774V80.4733V80.4692V80.465V80.4609V80.4567V80.4526V80.4485V80.4443V80.4402V80.4361V80.4319V80.4278V80.4236V80.4195V80.4154V80.4112V80.4071V80.403V80.3988V80.3947V80.3906V80.3864V80.3823V80.3782V80.374V80.3699V80.3658V80.3616V80.3575V80.3534V80.3493V80.3451V80.341V80.3369V80.3327V80.3286V80.3245V80.3204V80.3162V80.3121V80.308V80.3038V80.2997V80.2956V80.2915V80.2873V80.2832V80.2791V80.275V80.2708V80.2667V80.2626V80.2585V80.2544V80.2502V80.2461V80.242V80.2379V80.2338V80.2296V80.2255V80.2214V80.2173V80.2132V80.209V80.2049V80.2008V80.1967V79.6384V79.6338V79.6293V79.6247V79.6202V79.6156V79.6111V79.6065V79.6019V79.5974V79.5928V79.5882V79.5836V79.5791V79.5745V79.5699V79.5653V79.5607V79.5561V79.5515V79.5469V79.5423V79.5376V79.533V79.5284V79.5238V79.5191V79.5145V79.5099V79.5052V79.5006V79.496V79.4913V79.4866V79.482V79.4773V79.4727V79.468V79.4633V79.4587V79.454V79.4493V79.4446V79.4399V79.4352V79.4306V79.4259V79.4212V79.4165V79.4118V79.407V79.4023V79.3976V79.3929V79.3882V79.3834V79.3787V79.374V79.3693V79.3645V79.3598V79.355V79.3503V79.3455V79.3408V79.336V79.3313V79.3265V79.3218V79.317V79.3122V79.3074V79.3027V79.2979V79.2931V79.2883V79.2835V79.2787V79.2739V79.2691V79.2643V79.2595V79.2547V79.2499V79.2451V79.2403V79.2355V79.2307V79.2258V79.221V79.2162V79.2114V79.2065V79.2017V79.1968V79.192V79.1872V79.1823V79.1775V79.1726V79.1678V79.1629V79.158V79.1532V79.1483V79.1434V79.1386V79.1337V79.1288V79.1239V79.1191V79.1142V79.1093V79.1044V79.0995V79.0946V79.0897V79.0848V79.0799V79.075V79.0701V79.0652V79.0603V79.0554V79.0505V79.0455V79.0406V79.0357V79.0308V79.0258V79.0209V79.016V79.011V79.0061V79.0012V78.9962V78.9913V78.9863V78.9814V78.9764V78.9715V78.9665V78.9616V78.9566V78.9516V78.9467V78.9417V78.9367V78.9318V78.9268V78.9218V78.9168V78.9119V78.9069V78.9019V78.8969V78.8919V78.8869V78.8819V78.8769V78.8719V78.8669V78.8619V78.8569V78.8519V78.8469V78.8419V78.8369V78.8319V78.8269V78.8219V78.8168V78.8118V78.8068V78.8018V78.7968V78.7917V78.7867V78.7817V78.7766V78.7716V78.7666V78.7615V78.7565V78.7514V78.7464V78.7413V78.7363V78.7313V78.7262V78.7211V78.7161V78.711V78.706V78.7009V78.6959V78.6908V78.6857V78.6807V78.6756V78.6705V78.6655V78.6604V78.6553V78.6502V78.6451V78.6401V78.635V78.6299V78.6248V78.6197V78.6147V78.6096V78.6045V78.5994V78.5943V78.5892V78.5841V78.579V78.5739V78.5688V78.5637V78.5586V78.5535V78.5484V78.5433V78.5382V78.5331V78.528V78.5228V78.5177V78.5126V78.5075V78.5024V78.4973V78.4921V78.487V78.4819V78.4768V78.4716V78.4665V78.4614V78.4563V78.4511V78.446V78.4409V78.4357V78.4306V78.4255V78.4203V78.4152V78.41V78.4049V78.3998V78.3946V78.3895V78.3843V78.3792V78.374V78.3689V78.3638V78.3586V78.3535V78.3483V78.3431V78.338V78.3328V78.3277V78.3225V78.3174V78.3122V78.3071V78.3019V78.2967V78.2916V78.2864V78.2812V78.2761V78.2709V78.2658V78.2606V78.2554V78.2503V78.2451V78.2399V78.2347V78.2296V78.2244V78.2192V78.2141V78.2089V78.2037V78.1985V78.1934V78.1882V78.183V78.1778V78.1727V78.1675V78.1623V78.1571V78.1519V78.1468V78.1416V78.1364V78.1312V78.126V78.1208V78.1157V78.1105V78.1053V78.1001V78.0949V78.0897V78.0845V78.0794V78.0742V78.069V78.0638V78.0586V78.0534V78.0482V78.043V78.0379V78.0327V78.0275V78.0223V78.0171V78.0119V78.0067V78.0015V77.9963V77.9911V77.9859V77.9807V77.9755V77.9704V77.9652V77.96V77.9548V77.9496V77.9444V77.9392V77.934V77.9288V77.9236V77.9184V77.9132V77.908V77.9028V77.8976V77.8924V77.8872V77.882V77.8768V77.8717V77.8665V77.8613V77.8561V77.8509V77.8457V77.8405V77.8353V77.8301V77.8249V77.8197V77.8145V77.8093V77.8041V77.7989V77.7937V77.7885V77.7833V77.7781V77.7729V77.7678V77.7626V77.7574V77.7522V77.747V77.7418V77.7366V77.7314V77.7262V77.721V77.7158V77.7106V77.7055V77.7003V77.6951V77.6899V77.6847V77.6795V77.6743V77.6691V77.6639V77.6588V77.6536V77.6484V77.6432V77.638V77.6328V77.6276V77.6225V77.6173V77.6121V77.6069V77.6017V77.5966V77.5914V77.5862V77.581V77.5758V77.5707V77.5655V77.5603V77.5551V77.55V77.5448V77.5396V77.5344V77.5293V77.5241V77.5189V77.5137V77.5086V77.5034V77.4982V77.4931V77.4879V77.4827V77.4776V77.4724V77.4672V77.4621V77.4569V77.4518V77.4466V77.4414V77.4363V77.4311V77.426V77.4208V77.4157V77.4105V77.4053V77.4002V77.395V77.3899V77.3847V77.3796V77.3745V77.3693V77.3642V77.359V77.3539V77.3487V77.3436V77.3385V77.3333V77.3282V77.323V77.3179V77.3128V77.3076V77.3025V77.2974V77.2922V77.2871V77.282V77.2769V77.2717V77.2666V77.2615V77.2564V77.2512V77.2461V77.241V77.2359V77.2308V77.2257V77.2206V77.2154V77.2103V77.2052V77.2001V77.195V77.1899V77.1848V77.1797V77.1746V77.1695V77.1644V77.1593V77.1542V77.1491V77.144V77.1389V77.1339V77.1319C43.4643 75.5549 43.6786 73.9868 43.995 72.438L43.9999 72.4142L44.0041 72.3903C44.3287 70.5784 44.9025 68.8207 45.7089 67.1677C46.4398 65.736 47.224 64.3192 48.0443 62.9352L48.0779 62.8785L48.1077 62.8197C48.4954 62.0547 48.9481 61.4017 49.5121 60.5879C49.5939 60.47 49.6779 60.3487 49.7645 60.2232L49.7645 60.2232L49.9234 59.9928C49.9238 59.9922 49.9243 59.9915 49.9247 59.9909C49.9764 59.9163 50.0274 59.8425 50.078 59.7695C50.6092 59.0017 51.0848 58.3145 51.6097 57.6851L51.6213 57.6712L51.6327 57.657C52.4763 56.6074 53.3712 55.6004 54.314 54.6398C54.6853 54.3044 55.0907 54.0094 55.5235 53.7595L55.574 53.7304L55.6226 53.6984L56.1363 53.3605C56.8154 52.9216 57.4999 52.5002 58.1897 52.0963L58.1964 52.0924L58.203 52.0884C59.3296 51.417 60.6682 50.6568 61.609 50.1497C62.0655 49.9036 62.5933 49.6363 63.1189 49.3714C63.1589 49.3513 63.1989 49.3311 63.2389 49.3109C63.7101 49.0735 64.1842 48.8347 64.551 48.6371C65.0399 48.3737 65.6475 48.1473 66.3925 47.8697C66.5356 47.8163 66.6837 47.7611 66.8371 47.7034C67.7058 47.3764 68.6058 47.0502 69.3051 46.863C70.0652 46.6596 70.8317 46.4883 71.6457 46.3067Z" fill="#FFD064" stroke="#FFC250" stroke-width="4"/>
</g>
</svg>
