<svg width="16" height="16" viewBox="0 0 16 16" fill="none" xmlns="http://www.w3.org/2000/svg">
<path fill-rule="evenodd" clip-rule="evenodd" d="M5.17409 3.76961C6.01112 3.21032 6.9952 2.91181 8.00188 2.91181C9.35131 2.91344 10.645 3.45023 11.5992 4.40441C12.5534 5.3586 13.0901 6.65229 13.0918 8.00172C13.0918 9.00841 12.7933 9.99249 12.234 10.8295C11.6747 11.6666 10.8798 12.3189 9.9497 12.7042C9.01964 13.0894 7.99624 13.1902 7.00889 12.9938C6.02155 12.7974 5.11462 12.3127 4.40279 11.6008C3.69095 10.889 3.20619 9.98206 3.00979 8.99471C2.8134 8.00737 2.91419 6.98396 3.29943 6.05389C3.68468 5.12383 4.33706 4.3289 5.17409 3.76961ZM15.1568 6.06603C15.2223 6.31228 15.3408 6.54124 15.504 6.73688L15.5022 6.73506C16.1755 7.79267 16.157 8.23622 15.5 9.26584C15.3375 9.46132 15.2195 9.68993 15.1544 9.9357C15.0893 10.1815 15.0786 10.4385 15.123 10.6888C15.1706 11.8777 14.9841 12.2569 13.8767 12.8339C13.6369 12.9213 13.4191 13.0601 13.2386 13.2406C13.0581 13.4211 12.9193 13.6389 12.8318 13.8788C12.2589 14.9796 11.8837 15.1738 10.6868 15.1251C10.4366 15.0805 10.1797 15.0912 9.93399 15.1563C9.68833 15.2215 9.45985 15.3395 9.26454 15.5021C8.20657 16.1754 7.76302 16.1565 6.7345 15.5021C6.53896 15.3396 6.31035 15.2217 6.0646 15.1566C5.81884 15.0915 5.56185 15.0807 5.31151 15.1251C4.10884 15.1741 3.73692 14.9734 3.16648 13.8788C3.07927 13.6387 2.94058 13.4206 2.76013 13.2399C2.57969 13.0591 2.36187 12.92 2.12197 12.8324C1.01237 12.2547 0.828405 11.8748 0.876032 10.6874C0.920508 10.437 0.909712 10.1799 0.844399 9.93405C0.779086 9.68825 0.660836 9.45969 0.497926 9.26438C-0.175394 8.20641 -0.156489 7.76286 0.497926 6.73433C0.660451 6.53881 0.778407 6.31022 0.843581 6.06446C0.908755 5.81871 0.919581 5.5617 0.875305 5.31134C0.827678 4.12248 1.01382 3.74364 2.12124 3.1663C2.36109 3.07896 2.57894 2.9402 2.7595 2.75976C2.94006 2.57932 3.07897 2.36157 3.16648 2.12178C3.74164 1.01654 4.11393 0.829668 5.31151 0.875841C5.56221 0.920422 5.81963 0.90975 6.06578 0.84457C6.31193 0.779389 6.54089 0.661271 6.73668 0.49846C7.79029 -0.172681 8.23384 -0.159593 9.26672 0.49846C9.46223 0.660871 9.69078 0.778733 9.93646 0.843843C10.1821 0.908953 10.4391 0.919748 10.6893 0.875477C11.8891 0.826396 12.2621 1.02454 12.8344 2.12178C12.9216 2.36155 13.0603 2.57931 13.2407 2.75976C13.4211 2.94021 13.6388 3.07897 13.8785 3.1663C14.9827 3.74001 15.1732 4.11557 15.1252 5.31134C15.0806 5.5622 15.0914 5.81978 15.1568 6.06603ZM4.77012 12.8384C5.72672 13.4776 6.85139 13.8188 8.00188 13.8188C9.54412 13.817 11.0227 13.2036 12.1132 12.1131C13.2038 11.0225 13.8172 9.54396 13.8189 8.00172C13.8189 6.85122 13.4777 5.72655 12.8386 4.76994C12.1994 3.81334 11.2909 3.06775 10.228 2.62747C9.16504 2.18719 7.99543 2.072 6.86704 2.29645C5.73865 2.5209 4.70215 3.07492 3.88863 3.88845C3.0751 4.70198 2.52109 5.73848 2.29663 6.86687C2.07218 7.99527 2.18738 9.16488 2.62766 10.2278C3.06793 11.2907 3.81352 12.1992 4.77012 12.8384ZM5.35498 6.06058C5.15972 5.86532 5.15972 5.54874 5.35498 5.35348C5.55025 5.15822 5.86683 5.15822 6.06209 5.35348L7.82963 7.12102L9.5971 5.35355C9.79236 5.15829 10.1089 5.15829 10.3042 5.35355C10.4995 5.54882 10.4995 5.8654 10.3042 6.06066L8.53674 7.82812L10.3047 9.59612C10.5 9.79138 10.5 10.108 10.3047 10.3032C10.1095 10.4985 9.79289 10.4985 9.59762 10.3032L7.82963 8.53523L6.06156 10.3033C5.8663 10.4986 5.54972 10.4986 5.35445 10.3033C5.15919 10.108 5.15919 9.79146 5.35445 9.59619L7.12252 7.82812L5.35498 6.06058Z" fill="#6F6571"/>
</svg>
