<svg width="16" height="16" viewBox="0 0 16 16" fill="none" xmlns="http://www.w3.org/2000/svg">
<path d="M8.00188 2.91181C6.9952 2.91181 6.01112 3.21032 5.17409 3.76961C4.33706 4.3289 3.68468 5.12383 3.29943 6.05389C2.91419 6.98395 2.8134 8.00737 3.00979 8.99471C3.20619 9.98206 3.69095 10.889 4.40279 11.6008C5.11462 12.3127 6.02155 12.7974 7.00889 12.9938C7.99624 13.1902 9.01964 13.0894 9.9497 12.7042C10.8798 12.3189 11.6747 11.6666 12.234 10.8295C12.7933 9.99249 13.0918 9.00841 13.0918 8.00172C13.0901 6.65229 12.5534 5.3586 11.5992 4.40441C10.645 3.45022 9.35131 2.91344 8.00188 2.91181ZM11.5557 6.41403L8.87116 9.69484C8.7664 9.82295 8.63386 9.92554 8.48357 9.99485C8.33329 10.0641 8.16921 10.0983 8.00375 10.0948C7.8383 10.0913 7.67581 10.0502 7.5286 9.97463C7.38138 9.89903 7.2533 9.79092 7.15405 9.65849L5.52965 7.49273C5.501 7.45453 5.48016 7.41107 5.46831 7.36482C5.45646 7.31857 5.45384 7.27044 5.46059 7.22317C5.46734 7.17591 5.48334 7.13044 5.50766 7.08935C5.53199 7.04827 5.56417 7.01238 5.60236 6.98374C5.64056 6.95509 5.68402 6.93425 5.73027 6.9224C5.77652 6.91055 5.82465 6.90793 5.87192 6.91468C5.91918 6.92143 5.96465 6.93743 6.00573 6.96175C6.04682 6.98608 6.08271 7.01826 6.11135 7.05645L7.73612 9.22257C7.76921 9.26669 7.81191 9.30269 7.86097 9.32787C7.91004 9.35304 7.96419 9.36673 8.01932 9.36788C8.07446 9.36904 8.12913 9.35764 8.17921 9.33454C8.22929 9.31144 8.27345 9.27726 8.30837 9.23457L10.9926 5.95339C11.0536 5.87871 11.1418 5.83134 11.2378 5.82169C11.3337 5.81204 11.4296 5.84091 11.5043 5.90195C11.579 5.96298 11.6263 6.05119 11.636 6.14715C11.6456 6.24312 11.6168 6.33899 11.5557 6.41367V6.41403ZM15.504 6.73688C15.3408 6.54124 15.2223 6.31228 15.1568 6.06603C15.0914 5.81978 15.0806 5.5622 15.1252 5.31134C15.1732 4.11557 14.9827 3.74001 13.8785 3.1663C13.6388 3.07897 13.4211 2.94021 13.2407 2.75976C13.0603 2.57931 12.9216 2.36155 12.8344 2.12178C12.2621 1.02454 11.8891 0.826396 10.6893 0.875477C10.4391 0.919748 10.1821 0.908953 9.93646 0.843843C9.69078 0.778733 9.46223 0.660871 9.26672 0.49846C8.23384 -0.159593 7.79029 -0.172681 6.73668 0.49846C6.54089 0.661271 6.31193 0.779389 6.06578 0.84457C5.81963 0.90975 5.56221 0.920422 5.31151 0.875841C4.11393 0.829668 3.74164 1.01654 3.16648 2.12178C3.07897 2.36157 2.94006 2.57932 2.7595 2.75976C2.57894 2.9402 2.36109 3.07896 2.12124 3.1663C1.01382 3.74364 0.827678 4.12248 0.875305 5.31134C0.919581 5.5617 0.908755 5.81871 0.843581 6.06446C0.778407 6.31022 0.660451 6.53881 0.497926 6.73433C-0.156489 7.76286 -0.175394 8.20641 0.497926 9.26438C0.660836 9.45969 0.779086 9.68825 0.844399 9.93405C0.909712 10.1799 0.920508 10.437 0.876032 10.6874C0.828405 11.8748 1.01237 12.2547 2.12197 12.8324C2.36187 12.92 2.57969 13.0591 2.76013 13.2399C2.94058 13.4206 3.07927 13.6387 3.16648 13.8788C3.73692 14.9734 4.10884 15.1741 5.31151 15.1251C5.56185 15.0807 5.81884 15.0915 6.0646 15.1566C6.31036 15.2217 6.53896 15.3396 6.7345 15.5021C7.76302 16.1565 8.20657 16.1754 9.26454 15.5021C9.45985 15.3395 9.68833 15.2215 9.93399 15.1563C10.1797 15.0912 10.4366 15.0805 10.6868 15.1251C11.8837 15.1738 12.2589 14.9796 12.8318 13.8788C12.9193 13.6389 13.0581 13.4211 13.2386 13.2406C13.4191 13.0601 13.6369 12.9213 13.8767 12.8339C14.9841 12.2569 15.1706 11.8777 15.123 10.6888C15.0786 10.4385 15.0893 10.1815 15.1544 9.9357C15.2195 9.68993 15.3375 9.46132 15.5 9.26584C16.157 8.23622 16.1755 7.79267 15.5022 6.73506L15.504 6.73688ZM8.00188 13.8188C6.85139 13.8188 5.72672 13.4776 4.77012 12.8384C3.81352 12.1992 3.06793 11.2907 2.62766 10.2278C2.18738 9.16488 2.07218 7.99527 2.29663 6.86687C2.52109 5.73847 3.0751 4.70198 3.88863 3.88845C4.70215 3.07492 5.73865 2.5209 6.86704 2.29645C7.99543 2.072 9.16504 2.18719 10.228 2.62747C11.2909 3.06775 12.1994 3.81334 12.8386 4.76994C13.4777 5.72655 13.8189 6.85122 13.8189 8.00172C13.8172 9.54396 13.2038 11.0225 12.1132 12.1131C11.0227 13.2036 9.54412 13.817 8.00188 13.8188Z" fill="#FFAB2F"/>
</svg>
