<svg width="250" height="183" viewBox="0 0 250 183" fill="none" xmlns="http://www.w3.org/2000/svg">
<path fill-rule="evenodd" clip-rule="evenodd" d="M313.415 0.381712C303.935 -0.775029 294.32 0.709298 285.63 4.67092C276.941 8.63254 269.514 14.9175 264.17 22.8324C257.376 20.518 249.961 20.8354 243.389 23.7219C236.817 26.6084 231.567 31.8541 228.674 38.4232C222.451 31.5329 214.053 26.9854 204.882 25.5398C195.71 24.0942 186.32 25.838 178.28 30.48C170.239 35.122 164.033 42.3815 160.699 51.0467C157.364 59.7119 157.103 69.2586 159.958 78.0934C158.272 77.8803 156.571 77.8116 154.873 77.888C149.152 78.1344 143.626 80.0385 138.967 83.3686C134.023 78.8299 127.949 75.7045 121.383 74.3197C114.816 72.935 107.997 73.3419 101.642 75.498C95.286 77.654 89.6272 81.4798 85.2583 86.5743C80.8894 91.6689 77.9712 97.8447 76.8093 104.455C68.4654 102.281 59.6272 103.049 51.7838 106.631C43.9404 110.212 37.5712 116.388 33.7494 124.117C29.9855 122.286 25.8005 121.494 21.6277 121.824C17.4549 122.154 13.4463 123.593 10.0168 125.993C6.58739 128.393 3.8619 131.666 2.12267 135.474C0.383444 139.281 -0.306287 143.484 0.124924 147.648C0.556136 151.811 2.09262 155.784 4.57521 159.154C7.05779 162.524 10.3962 165.169 14.2447 166.815C18.0931 168.461 22.3118 169.049 26.4635 168.516C30.6153 167.984 34.5494 166.351 37.8581 163.788C42.3126 169.492 48.3258 173.782 55.1692 176.138C62.0125 178.494 69.3923 178.815 76.4143 177.062C83.4363 175.308 89.7991 171.556 94.7317 166.26C99.6643 160.963 102.955 154.35 104.205 147.221C111.253 149.059 118.684 148.804 125.59 146.488C132.495 144.171 138.576 139.893 143.09 134.176C149.899 137.524 157.732 138.138 164.98 135.892C172.227 133.647 178.34 128.711 182.063 122.1L204.882 117.853L313.422 124.117L313.415 0.381712Z" fill="url(#paint0_linear)"/>
<path fill-rule="evenodd" clip-rule="evenodd" d="M41.0345 148.996C43.8103 149.282 46.4686 150.266 48.7622 151.855C51.0559 153.444 52.9102 155.588 54.1527 158.087C56.0156 156.448 58.3497 155.442 60.8198 155.213C63.29 154.984 65.7693 155.543 67.902 156.81V156.59C68.1886 153.829 69.0163 151.152 70.3378 148.712C71.6593 146.271 73.4487 144.115 75.6037 142.366C77.7588 140.617 80.2372 139.31 82.8975 138.519C85.5578 137.728 88.3479 137.469 91.1084 137.756C92.0297 137.854 92.9437 138.011 93.845 138.226C93.845 137.913 93.8719 137.597 93.9257 137.279C94.5946 130.855 97.3196 124.819 101.695 120.067C106.071 115.316 111.863 112.105 118.211 110.91C124.558 109.716 131.122 110.602 136.925 113.438C142.728 116.273 147.461 120.907 150.419 126.648C152.893 124.012 155.944 121.984 159.332 120.722C162.72 119.461 166.354 119.001 169.95 119.378C170.341 119.417 170.73 119.466 171.117 119.524C171.156 118.844 171.209 118.16 171.278 117.47C172.19 108.601 175.8 100.224 181.623 93.4723C187.446 86.7201 195.201 81.9172 203.84 79.7118C212.479 77.5065 221.587 78.0049 229.934 81.1398C238.28 84.2747 245.464 89.8951 250.516 97.2423C256.602 92.398 264.001 89.4904 271.757 88.8953C279.513 88.3002 287.269 90.045 294.023 93.904C298.687 85.6194 305.354 78.6369 313.414 73.5957V169.708C308.177 166.43 303.511 162.319 299.599 157.536C291.758 164.062 281.668 167.245 271.502 166.399C261.337 165.554 251.91 160.748 245.255 153.017C237.609 160.562 227.445 165.017 216.715 165.526C205.985 166.035 195.444 162.563 187.118 155.776C185.042 158.9 182.247 161.481 178.968 163.303C175.688 165.126 172.02 166.135 168.27 166.248C164.521 166.361 160.798 165.573 157.415 163.952C154.033 162.33 151.088 159.921 148.827 156.927C144.603 163.324 138.092 167.863 130.629 169.614C123.165 171.364 115.315 170.193 108.687 166.341C107.36 169.817 105.138 172.882 102.246 175.225C99.3545 177.567 95.8953 179.104 92.2186 179.68C88.542 180.257 84.7783 179.852 81.3084 178.506C77.8385 177.161 74.7854 174.923 72.4581 172.019C71.6136 173.754 70.3545 175.254 68.7922 176.386C67.2299 177.518 65.4127 178.248 63.5012 178.511C61.5897 178.773 59.6431 178.561 57.8333 177.892C56.0236 177.223 54.4066 176.118 53.1256 174.675C51.4962 177.116 49.248 179.079 46.6107 180.366C43.9735 181.652 41.0419 182.215 38.1158 181.997C35.1896 181.778 32.3739 180.787 29.9567 179.124C27.5394 177.46 25.6073 175.185 24.358 172.53C23.1086 169.875 22.5868 166.936 22.846 164.013C23.1052 161.09 24.1359 158.289 25.8329 155.895C27.53 153.501 29.8323 151.601 32.5045 150.389C35.1767 149.177 38.1229 148.696 41.0418 148.996H41.0345Z" fill="white"/>
<path fill-rule="evenodd" clip-rule="evenodd" d="M40.2597 149.815C43.0508 150.102 45.7238 151.091 48.03 152.689C50.3362 154.287 52.2007 156.443 53.4501 158.955C55.3232 157.308 57.67 156.296 60.1538 156.066C62.6375 155.835 65.1304 156.397 67.2748 157.671V157.45C67.5631 154.674 68.3953 151.983 69.7241 149.529C71.0528 147.075 72.8521 144.906 75.0189 143.148C77.1857 141.389 79.6778 140.075 82.3527 139.28C85.0277 138.484 87.8331 138.224 90.6087 138.513C91.5351 138.611 92.4542 138.769 93.3603 138.985C93.3603 138.67 93.3874 138.353 93.4415 138.034C94.1141 131.574 96.8541 125.504 101.254 120.727C105.653 115.95 111.477 112.721 117.86 111.52C124.242 110.318 130.842 111.21 136.677 114.061C142.512 116.912 147.271 121.571 150.245 127.344C152.733 124.693 155.8 122.654 159.207 121.386C162.614 120.117 166.268 119.654 169.883 120.033C170.277 120.073 170.668 120.122 171.056 120.181C171.096 119.497 171.15 118.809 171.219 118.115C172.135 109.197 175.766 100.775 181.621 93.9858C187.476 87.1965 195.273 82.3672 203.959 80.1497C212.646 77.9322 221.804 78.4334 230.196 81.5855C238.589 84.7376 245.813 90.3889 250.892 97.7765C257.011 92.9056 264.451 89.982 272.25 89.3836C280.048 88.7853 287.847 90.5396 294.638 94.4199C299.327 86.0897 306.031 79.0689 314.136 74V170.64C308.87 167.344 304.178 163.21 300.245 158.402C292.361 164.963 282.215 168.163 271.993 167.313C261.772 166.463 252.294 161.631 245.602 153.857C237.914 161.444 227.694 165.924 216.905 166.436C206.116 166.947 195.518 163.456 187.146 156.631C185.058 159.773 182.248 162.368 178.95 164.201C175.653 166.033 171.965 167.048 168.195 167.161C164.424 167.275 160.682 166.483 157.28 164.852C153.879 163.222 150.917 160.8 148.645 157.789C144.397 164.222 137.85 168.785 130.346 170.545C122.842 172.305 114.948 171.128 108.284 167.254C106.95 170.75 104.716 173.832 101.808 176.187C98.9002 178.542 95.4219 180.088 91.7251 180.668C88.0282 181.247 84.2439 180.84 80.7549 179.487C77.2659 178.134 74.1961 175.884 71.856 172.964C71.0068 174.709 69.7408 176.217 68.1699 177.355C66.5991 178.494 64.7718 179.227 62.8499 179.491C60.9279 179.755 58.9705 179.542 57.1509 178.869C55.3312 178.196 53.7054 177.085 52.4172 175.635C50.7789 178.088 48.5183 180.063 45.8666 181.356C43.2149 182.65 40.2672 183.216 37.325 182.996C34.3828 182.777 31.5516 181.78 29.1211 180.108C26.6906 178.435 24.7478 176.147 23.4916 173.478C22.2354 170.808 21.7108 167.853 21.9714 164.914C22.2319 161.975 23.2684 159.158 24.9747 156.751C26.681 154.344 28.996 152.434 31.6829 151.215C34.3698 149.996 37.3322 149.513 40.2671 149.815H40.2597Z" fill="white"/>
<defs>
<linearGradient id="paint0_linear" x1="190.141" y1="166.275" x2="152.709" y2="63.9627" gradientUnits="userSpaceOnUse">
<stop stop-color="#DAEBFF"/>
<stop offset="1" stop-color="white"/>
</linearGradient>
</defs>
</svg>
