<svg width="63" height="90" viewBox="0 0 63 90" fill="none" xmlns="http://www.w3.org/2000/svg">
<path fill-rule="evenodd" clip-rule="evenodd" d="M19.8693 50.418C17.68 67.7672 20.9267 77.9701 29.6096 81.0269L19.8693 50.418Z" fill="#95DC8F"/>
<path fill-rule="evenodd" clip-rule="evenodd" d="M28.7488 89.5901L52.1827 21.5131C52.2648 21.2666 52.2457 20.9976 52.1295 20.7652C52.0133 20.5328 51.8095 20.3561 51.5631 20.2739C51.3166 20.1917 51.0475 20.2109 50.8151 20.3271C50.5827 20.4433 50.406 20.647 50.3238 20.8935L26.6855 89.5901H28.7488Z" fill="#95DC8F"/>
<path fill-rule="evenodd" clip-rule="evenodd" d="M44.0335 42.1337L44.9443 39.4817C44.6386 29.035 44.6386 19.1212 44.9443 9.74023C38.3681 26.1972 38.0645 36.995 44.0335 42.1337Z" fill="#95DC8F"/>
<path fill-rule="evenodd" clip-rule="evenodd" d="M39.0459 56.694L39.6655 54.8786C35.6752 49.0046 33.2484 40.2144 32.385 28.5078C28.5848 46.3733 30.805 55.7687 39.0459 56.694Z" fill="#95DC8F"/>
<path fill-rule="evenodd" clip-rule="evenodd" d="M59.7287 0C56.9405 18.5512 53.1155 27.5583 48.2536 27.0213C47.4728 17.2686 51.2979 8.26152 59.7287 0Z" fill="#95DC8F"/>
<path fill-rule="evenodd" clip-rule="evenodd" d="M62.2195 30.6768C56.3208 48.9306 49.3687 55.356 41.3633 49.9529C50.8392 46.479 57.7913 40.0536 62.2195 30.6768Z" fill="#95DC8F"/>
<path fill-rule="evenodd" clip-rule="evenodd" d="M53.0002 59.1113C46.0647 68.0338 39.978 71.3962 34.7402 69.1986L53.0002 59.1113Z" fill="#95DC8F"/>
<path fill-rule="evenodd" clip-rule="evenodd" d="M14.2804 84.3461C13.4341 82.7248 12.497 81.1527 11.4736 79.637C11.3993 79.621 11.3268 79.5982 11.2567 79.5689C10.6371 79.321 10.0175 78.4287 9.54658 77.7596C9.39787 77.5489 9.2677 77.363 9.17475 77.2453C8.80918 76.793 8.3569 76.2477 7.89219 75.6839C3.26367 70.1074 -2.55452 63.0748 1.20653 54.5179C1.22582 54.4489 1.26079 54.3853 1.30872 54.3321C1.35664 54.2789 1.41625 54.2374 1.48283 54.211C1.54942 54.1846 1.62119 54.174 1.69257 54.1799C1.76395 54.1859 1.83298 54.2082 1.89429 54.2453C2.31563 54.4311 2.90434 55.5279 3.36285 56.3767C3.54254 56.7113 3.70361 56.9963 3.80275 57.1636C4.82647 58.657 5.96815 60.0659 7.21683 61.377C9.19959 63.5704 11.1762 65.7639 12.1737 68.6698C12.5886 70.4765 12.7965 72.3245 12.7934 74.1782C12.8491 76.1672 12.7561 78.0942 12.4339 78.8935C12.3752 79.0472 12.2938 79.1914 12.1923 79.321C13.1907 80.8107 14.107 82.3538 14.9372 83.9433C15.3275 84.6931 15.6746 85.4304 15.972 86.1368C16.0505 85.29 16.1764 84.408 16.3499 83.491C16.659 81.908 17.073 80.3472 17.5892 78.8191C18.3823 74.2774 18.5247 70.3242 17.9361 66.8854C17.8328 66.274 17.7048 65.6792 17.5519 65.1009C16.898 62.5212 15.6648 60.1246 13.9458 58.093C13.8885 58.0208 13.8573 57.9312 13.8573 57.839C13.8573 57.7468 13.8885 57.6572 13.9458 57.5849C12.5579 55.9368 9.39169 46.2956 11.108 38.4327C11.9383 34.6221 13.3076 31.1522 13.5865 28.6366C16.3314 29.3801 16.8456 45.6822 16.7465 48.8918C16.546 51.8719 15.7916 54.7884 14.522 57.492C14.552 57.5131 14.5791 57.5381 14.6026 57.5664C16.0601 59.2825 17.1844 61.2557 17.9176 63.3846C18.2212 62.0896 18.5868 60.7698 19.0019 59.4748C19.2725 56.2539 19.3263 53.0184 19.163 49.7902C19.0267 45.1803 18.8903 40.6943 20.1977 35.5391C19.6834 35.062 19.4976 33.6803 19.3612 32.6827C19.3241 32.3976 19.2869 32.1374 19.2497 31.9453C19.0948 31.1398 18.9399 30.4025 18.785 29.6466C17.1058 21.4429 14.9929 11.1201 22.1123 3.89544C22.1545 3.8402 22.209 3.79544 22.2713 3.76463C22.3336 3.73382 22.4022 3.71777 22.4717 3.71777C22.5412 3.71777 22.6098 3.73382 22.6722 3.76463C22.7345 3.79544 22.7888 3.8402 22.8311 3.89544C23.1657 4.23003 23.2153 5.75428 23.2524 6.90676C23.2524 7.35908 23.2524 7.75562 23.302 7.97868C23.5692 10.0828 23.9833 12.1657 24.5412 14.212C25.3467 17.5145 26.1522 20.8171 25.7804 24.3984C25.3635 26.5052 24.7409 28.566 23.9216 30.5512C23.0975 32.6889 22.1681 34.684 21.5299 35.3718C21.3861 35.5401 21.2061 35.6736 21.0032 35.7622C19.7206 40.8182 19.8507 45.2485 19.9871 49.7964C20.0552 52.0085 20.1233 54.2515 20.0304 56.6122C20.5757 55.1871 21.1643 53.8425 21.7715 52.6342C21.6814 52.4907 21.6145 52.3339 21.5732 52.1695C21.3192 51.2711 21.4059 48.9847 21.6538 46.593C21.8374 44.3381 22.2253 42.1046 22.8125 39.9198C24.126 36.2951 26.3505 33.3581 28.5749 30.4211C30.0057 28.6119 31.3238 26.7165 32.5218 24.7454C32.6458 24.5348 32.8378 24.1258 33.0609 23.7107C33.6371 22.5644 34.3869 21.0711 34.8392 20.9286C34.9021 20.8999 34.9709 20.8863 35.0401 20.8892C35.1092 20.892 35.1767 20.9111 35.237 20.9449C35.2974 20.9787 35.3489 21.0262 35.3875 21.0837C35.426 21.1412 35.4504 21.2069 35.4588 21.2756C38.4763 30.8982 31.8774 40.2296 26.6355 47.6402C26.177 48.2598 25.7309 48.9165 25.1732 49.722C25.0555 49.8893 24.9068 50.131 24.7333 50.4098C24.1137 51.3826 23.302 52.7148 22.6018 52.8883H22.5399C21.6175 54.7425 20.8226 56.6574 20.1606 58.6197C19.4436 60.7006 18.864 62.8263 18.4256 64.9831C18.5743 65.5573 18.7003 66.148 18.8036 66.7553C19.2463 69.6099 19.2984 72.5116 18.9585 75.3803C19.1774 74.8598 19.4087 74.3331 19.6524 73.8003C19.5719 72.939 20.1109 70.5535 20.9598 68.0007C21.6765 65.7608 22.619 63.5997 23.7729 61.5505C24.6899 60.0448 27.2489 57.2751 29.9009 54.6418C33.4079 51.1596 37.1751 47.9252 37.6398 48.0491C37.7022 48.0664 37.7595 48.0983 37.8072 48.142C37.8585 48.1894 37.8969 48.2491 37.9186 48.3156C38.2842 49.2574 37.2991 52.7706 35.781 56.513C34.2072 60.4228 32.1067 64.6609 30.5081 66.4268L30.2788 66.6685C29.6035 67.3439 26.1832 70.3862 23.5126 72.3937C22.2114 73.3789 21.0342 74.1225 20.3464 74.2526C19.6323 75.8141 18.9975 77.4105 18.4442 79.036V79.0732C17.93 80.5703 17.516 82.1 17.205 83.6521C16.836 85.4636 16.6903 87.3135 16.7712 89.1605H15.9534C15.9534 88.8796 15.9534 88.5925 15.9534 88.2992C15.5221 86.9315 14.9619 85.6079 14.2804 84.3461Z" fill="#2B5250"/>
</svg>
