<svg width="48" height="48" viewBox="0 0 48 48" fill="none" xmlns="http://www.w3.org/2000/svg">
<path opacity="0.1" d="M24 48C37.2548 48 48 37.2548 48 24C48 10.7452 37.2548 0 24 0C10.7452 0 0 10.7452 0 24C0 37.2548 10.7452 48 24 48Z" fill="#138175"/>
<path opacity="0.15" d="M24.0341 44.0406C35.083 44.0406 44.0399 35.0837 44.0399 24.0348C44.0399 12.986 35.083 4.02905 24.0341 4.02905C12.9852 4.02905 4.02832 12.986 4.02832 24.0348C4.02832 35.0837 12.9852 44.0406 24.0341 44.0406Z" fill="#138175"/>
<path opacity="0.2" d="M24.0861 39.7499C32.7373 39.7499 39.7504 32.7368 39.7504 24.0856C39.7504 15.4345 32.7373 8.42139 24.0861 8.42139C15.435 8.42139 8.42188 15.4345 8.42188 24.0856C8.42188 32.7368 15.435 39.7499 24.0861 39.7499Z" fill="white"/>
</svg>
