<?xml version="1.0" encoding="UTF-8"?>
<svg width="48px" height="50px" viewBox="0 0 48 50" version="1.1" xmlns="http://www.w3.org/2000/svg" xmlns:xlink="http://www.w3.org/1999/xlink">
    <!-- Generator: Sketch 63.1 (92452) - https://sketch.com -->
    <title>Logo</title>
    <desc>Created with Sketch.</desc>
    <g id="Page-1" stroke="none" stroke-width="1" fill="none" fill-rule="evenodd">
        <g id="Desktop" transform="translate(-19.000000, -12.000000)" fill-rule="nonzero">
            <g id="Logo" transform="translate(19.000000, 12.000000)">
                <path d="M24.9574,49.8800694 C20.7538,49.8829 16.6176,48.8233 12.9331,46.7995 C9.24869,44.7758 6.13556,41.8535 3.88299,38.3043 C1.63041,34.7552 0.311492,30.6942 0.0487636,26.4988 C-0.213964,22.3033 0.588027,18.1095 2.38022,14.3071 C4.17242,10.5046 6.89666,7.2168 10.2998,4.74918 C13.703,2.28157 17.6747,0.714193 21.8459,0.19268 C26.0171,-0.328832 30.2524,0.212441 34.1584,1.76621 C38.0644,3.31998 41.5142,5.83583 44.1874,9.08 C45.0322,10.1024 45.4361,11.4185 45.3105,12.7388 C45.1848,14.059 44.5399,15.2753 43.5174,16.12 C42.495,16.9647 41.1789,17.3687 39.8587,17.243 C38.5384,17.1174 37.3222,16.4724 36.4774,15.45 C34.5127,13.0643 31.8564,11.3467 28.8746,10.5338 C25.8928,9.72091 22.7323,9.85275 19.8286,10.9112 C16.9249,11.9696 14.4209,13.9025 12.6617,16.4435 C10.9024,18.9845 9.97451,22.0086 10.0058,25.0991 C10.0371,28.1895 11.0261,31.1942 12.8364,33.6991 C14.6468,36.2039 17.1894,38.0857 20.114,39.0851 C23.0385,40.0845 26.201,40.1523 29.1657,39.2792 C32.1304,38.4061 34.7514,36.635 36.6674,34.21 C37.0752,33.6952 37.5803,33.2658 38.1541,32.9462 C38.7278,32.6267 39.3588,32.4233 40.0112,32.3476 C40.6635,32.2719 41.3243,32.3254 41.956,32.5052 C42.5876,32.6849 43.1777,32.9872 43.6924,33.395 C44.2072,33.8028 44.6367,34.3079 44.9562,34.8816 C45.2758,35.4553 45.4792,36.0864 45.5549,36.7387 C45.6305,37.391 45.577,38.0519 45.3973,38.6835 C45.2176,39.3152 44.9152,39.9052 44.5074,40.42 C42.1795,43.3761 39.2096,45.7639 35.8226,47.4029 C32.4356,49.0418 28.7201,49.8889 24.9574,49.8800694 Z" id="Path" fill="#138175"></path>
                <path d="M44.2779,9.07976 C41.938,6.24283 38.9997,3.95844 35.6734,2.39023 C32.3472,0.822019 28.7153,0.00878906 25.0379,0.00878906 C21.3605,0.00878906 17.7286,0.822019 14.4023,2.39023 C11.0761,3.95844 8.13777,6.24283 5.79788,9.07976 C4.95317,10.1022 4.5492,11.4183 4.67485,12.7385 C4.8005,14.0588 5.44547,15.275 6.46788,16.1198 C7.49029,16.9645 8.80639,17.3684 10.1266,17.2428 C11.4469,17.1171 12.6632,16.4722 13.5079,15.4498 C15.224,13.365 17.4741,11.7855 20.0179,10.8798 L20.0179,24.8798 C20.0179,26.2058 20.5447,27.4776 21.4823,28.4153 C22.42,29.353 23.6918,29.8798 25.0179,29.8798 C26.344,29.8798 27.6157,29.353 28.5534,28.4153 C29.4911,27.4776 30.0179,26.2058 30.0179,24.8798 L30.0179,10.8798 C32.5689,11.7823 34.8262,13.3621 36.5479,15.4498 C37.3926,16.4722 38.6089,17.1171 39.9291,17.2428 C41.2494,17.3684 42.5655,16.9645 43.5879,16.1198 C44.6103,15.275 45.2553,14.0588 45.3809,12.7385 C45.5066,11.4183 45.1026,10.1022 44.2579,9.07976 L44.2779,9.07976 Z" id="Path" fill="#61C1B8"></path>
                <path d="M42.717,30.0004 C45.506,30.0004 47.767,27.7394 47.767,24.9504 C47.767,22.1614 45.506,19.9004 42.717,19.9004 C39.928,19.9004 37.667,22.1614 37.667,24.9504 C37.667,27.7394 39.928,30.0004 42.717,30.0004 Z" id="Path" fill="#F18182"></path>
            </g>
        </g>
    </g>
</svg>