<?xml version="1.0" encoding="UTF-8" standalone="no"?><!DOCTYPE svg PUBLIC "-//W3C//DTD SVG 1.1//EN" "http://www.w3.org/Graphics/SVG/1.1/DTD/svg11.dtd"><svg width="100%" height="100%" viewBox="0 0 783 164" version="1.1" xmlns="http://www.w3.org/2000/svg" xmlns:xlink="http://www.w3.org/1999/xlink" xml:space="preserve" xmlns:serif="http://www.serif.com/" style="fill-rule:evenodd;clip-rule:evenodd;stroke-linejoin:round;stroke-miterlimit:1.41421;"><path id="COIN" d="M558.99,55.253l-6.616,5.077c-3.651,-4.754 -8.033,-8.357 -13.148,-10.809c-5.114,-2.453 -10.733,-3.679 -16.855,-3.679c-6.692,0 -12.891,1.606 -18.595,4.82c-5.704,3.213 -10.124,7.529 -13.261,12.947c-3.137,5.419 -4.706,11.513 -4.706,18.281c0,10.23 3.508,18.766 10.524,25.611c7.016,6.845 15.866,10.267 26.551,10.267c11.751,0 21.58,-4.601 29.49,-13.803l6.616,5.019c-4.183,5.324 -9.402,9.44 -15.657,12.349c-6.255,2.909 -13.243,4.364 -20.962,4.364c-14.678,0 -26.257,-4.887 -34.737,-14.659c-7.111,-8.252 -10.666,-18.215 -10.666,-29.889c0,-12.282 4.306,-22.616 12.919,-31.001c8.613,-8.385 19.403,-12.577 32.37,-12.577c7.833,0 14.906,1.55 21.219,4.649c6.312,3.099 11.484,7.443 15.514,13.033Zm56.783,-17.682c12.708,0 23.343,4.24 31.905,12.72c8.561,8.48 12.842,18.918 12.842,31.314c0,12.283 -4.271,22.702 -12.814,31.258c-8.542,8.556 -18.959,12.834 -31.249,12.834c-12.442,0 -22.944,-4.259 -31.505,-12.777c-8.562,-8.518 -12.843,-18.823 -12.843,-30.915c0,-8.062 1.95,-15.534 5.85,-22.417c3.9,-6.883 9.218,-12.273 15.953,-16.17c6.735,-3.898 14.022,-5.847 21.861,-5.847Zm75.986,87.17l-9.93,0l0,-86.215l9.93,0l0,86.215Zm30.635,0l-9.324,0l0,-86.215l7.629,0l52.068,69.384l0,-69.384l9.445,0l0,86.215l-7.75,0l-52.068,-69.383l0,69.383Zm-106.25,-79.013c-6.209,0 -12.093,1.617 -17.654,4.852c-5.561,3.235 -9.903,7.592 -13.026,13.072c-3.123,5.48 -4.685,11.588 -4.685,18.324c0,9.971 3.457,18.391 10.369,25.26c6.913,6.869 15.245,10.304 24.996,10.304c6.512,0 12.539,-1.579 18.081,-4.738c5.542,-3.158 9.865,-7.478 12.969,-12.958c3.104,-5.48 4.656,-11.569 4.656,-18.267c0,-6.66 -1.552,-12.683 -4.656,-18.067c-3.104,-5.385 -7.475,-9.695 -13.112,-12.93c-5.636,-3.235 -11.616,-4.852 -17.938,-4.852Z" style="fill:#3d2d2d;fill-rule:nonzero;"/><path id="dot" d="M453.423,72.496c2.426,0 4.495,0.831 6.207,2.493c1.713,1.662 2.569,3.693 2.569,6.094c0,2.355 -0.856,4.375 -2.569,6.06c-1.712,1.685 -3.781,2.528 -6.207,2.528c-2.426,0 -4.495,-0.843 -6.208,-2.528c-1.712,-1.685 -2.569,-3.705 -2.569,-6.06c0,-2.401 0.857,-4.432 2.569,-6.094c1.713,-1.662 3.782,-2.493 6.208,-2.493Z" style="fill:#3193a1;fill-rule:nonzero;"/><path id="THE" d="M268.616,54.001l-27.003,0l-5.449,70.837l-19.132,0l5.692,-70.837l-27.245,0l1.211,-15.378l73.137,0l-1.211,15.378Zm163.954,-0.727l-40.807,0l-1.695,20.343l38.506,0l-1.332,14.773l-38.264,0l-1.816,21.796l40.928,0l-1.211,14.652l-59.334,0l6.781,-86.215l59.455,0l-1.211,14.651Zm-140.826,71.564l-18.526,0l6.78,-86.215l18.648,0l-2.785,34.873l39.838,0l2.785,-34.873l18.527,0l-6.781,86.215l-18.648,0l2.906,-36.206l-39.838,0l-2.906,36.206Z" style="fill:#415db0;fill-rule:nonzero;"/><circle id="circle" cx="81.73" cy="81.73" r="81.73" style="fill:#415db0;"/><path id="logo" d="M18.921,37.312c0.106,0.028 1.811,0.554 29.411,10.293c-8.915,10.346 -14.029,18.927 -14.349,34.125c-0.313,14.849 6.796,28.13 17.442,36.878l0.252,0.206l0.193,0.156c8.182,6.578 18.566,10.508 29.86,10.508c11.51,0 22.074,-4.082 30.334,-10.885c0.055,0.045 0.045,0.042 29.986,10.876c-14.092,17.805 -35.884,29.219 -60.32,29.219c-24.436,0 -46.227,-11.414 -60.317,-29.216l-0.243,-0.308c-10.275,-13.058 -16.397,-29.537 -16.397,-47.434c0,-18.038 3.72,-31.312 14.141,-44.419l0.007,0.001Zm45.959,-0.264c-4.82,1.822 -9.269,4.403 -13.203,7.599c-30.372,-10.747 -30.264,-10.659 -30.264,-10.659c14.09,-17.802 35.881,-29.215 60.317,-29.215c24.436,0 46.228,11.413 60.32,29.219c-29.905,10.871 0.082,-0.067 -29.986,10.875c-4.004,-3.297 -8.549,-5.955 -13.48,-7.819l0,84.862c-1.057,0.401 -2.132,0.766 -3.247,1.087c-2.273,0.686 -4.626,1.203 -7.047,1.539l-2.159,0.247c-0.724,0.067 -1.454,0.117 -2.187,0.15l-2.214,0.051c-2.563,0 -5.079,-0.203 -7.535,-0.606c-1.094,-0.17 -2.175,-0.379 -3.245,-0.622c-1.382,-0.32 -2.743,-0.702 -4.083,-1.143l-1.987,-0.704l0,-84.861Z" style="fill:#fff;"/></svg>