<svg width="174" height="50" viewBox="0 0 174 50" fill="none" xmlns="http://www.w3.org/2000/svg">
<path d="M24.9574 49.88C20.7538 49.8829 16.6176 48.8233 12.9331 46.7995C9.24869 44.7758 6.13556 41.8535 3.88299 38.3043C1.63041 34.7552 0.311492 30.6942 0.0487636 26.4988C-0.213964 22.3033 0.588027 18.1095 2.38022 14.3071C4.17242 10.5046 6.89666 7.2168 10.2998 4.74918C13.703 2.28157 17.6747 0.714193 21.8459 0.19268C26.0171 -0.328832 30.2524 0.212441 34.1584 1.76621C38.0644 3.31998 41.5142 5.83583 44.1874 9.08C45.0322 10.1024 45.4361 11.4185 45.3105 12.7388C45.1848 14.059 44.5399 15.2753 43.5174 16.12C42.495 16.9647 41.1789 17.3687 39.8587 17.243C38.5384 17.1174 37.3222 16.4724 36.4774 15.45C34.5127 13.0643 31.8564 11.3467 28.8746 10.5338C25.8928 9.72091 22.7323 9.85275 19.8286 10.9112C16.9249 11.9696 14.4209 13.9025 12.6617 16.4435C10.9024 18.9845 9.97451 22.0086 10.0058 25.0991C10.0371 28.1895 11.0261 31.1942 12.8364 33.6991C14.6468 36.2039 17.1894 38.0857 20.114 39.0851C23.0385 40.0845 26.201 40.1523 29.1657 39.2792C32.1304 38.4061 34.7514 36.635 36.6674 34.21C37.0752 33.6952 37.5803 33.2658 38.1541 32.9462C38.7278 32.6267 39.3588 32.4233 40.0112 32.3476C40.6635 32.2719 41.3243 32.3254 41.956 32.5052C42.5876 32.6849 43.1777 32.9872 43.6924 33.395C44.2072 33.8028 44.6367 34.3079 44.9562 34.8816C45.2758 35.4553 45.4792 36.0864 45.5549 36.7387C45.6305 37.391 45.577 38.0519 45.3973 38.6835C45.2176 39.3152 44.9152 39.9052 44.5074 40.42C42.1795 43.3761 39.2096 45.7639 35.8226 47.4029C32.4356 49.0418 28.7201 49.8889 24.9574 49.88Z" fill="#138175"/>
<path d="M44.2779 9.07976C41.938 6.24283 38.9997 3.95844 35.6734 2.39023C32.3472 0.822019 28.7153 0.00878906 25.0379 0.00878906C21.3605 0.00878906 17.7286 0.822019 14.4023 2.39023C11.0761 3.95844 8.13777 6.24283 5.79788 9.07976C4.95317 10.1022 4.5492 11.4183 4.67485 12.7385C4.8005 14.0588 5.44547 15.275 6.46788 16.1198C7.49029 16.9645 8.80639 17.3684 10.1266 17.2428C11.4469 17.1171 12.6632 16.4722 13.5079 15.4498C15.224 13.365 17.4741 11.7855 20.0179 10.8798V24.8798C20.0179 26.2058 20.5447 27.4776 21.4823 28.4153C22.42 29.353 23.6918 29.8798 25.0179 29.8798C26.344 29.8798 27.6157 29.353 28.5534 28.4153C29.4911 27.4776 30.0179 26.2058 30.0179 24.8798V10.8798C32.5689 11.7823 34.8262 13.3621 36.5479 15.4498C37.3926 16.4722 38.6089 17.1171 39.9291 17.2428C41.2494 17.3684 42.5655 16.9645 43.5879 16.1198C44.6103 15.275 45.2553 14.0588 45.3809 12.7385C45.5066 11.4183 45.1026 10.1022 44.2579 9.07976H44.2779Z" fill="#61C1B8"/>
<path d="M42.717 30.0004C45.506 30.0004 47.767 27.7394 47.767 24.9504C47.767 22.1614 45.506 19.9004 42.717 19.9004C39.928 19.9004 37.667 22.1614 37.667 24.9504C37.667 27.7394 39.928 30.0004 42.717 30.0004Z" fill="#F18182"/>
<path d="M63.0176 32.4197C62.9011 32.3072 62.809 32.1719 62.7471 32.0222C62.6851 31.8725 62.6547 31.7117 62.6576 31.5497V15.8897H57.0176C56.8655 15.8938 56.7141 15.8669 56.5727 15.8106C56.4313 15.7543 56.3029 15.6697 56.1952 15.5621C56.0876 15.4545 56.0031 15.326 55.9467 15.1846C55.8904 15.0432 55.8635 14.8919 55.8676 14.7397C55.865 14.5864 55.8929 14.4341 55.9495 14.2917C56.0062 14.1492 56.0905 14.0194 56.1976 13.9097C56.3028 13.7987 56.4301 13.711 56.5714 13.6525C56.7127 13.5939 56.8647 13.5657 57.0176 13.5697H70.6176C70.7716 13.5684 70.9244 13.5977 71.0669 13.6561C71.2095 13.7144 71.339 13.8005 71.4479 13.9094C71.5568 14.0183 71.6429 14.1478 71.7013 14.2904C71.7596 14.433 71.7889 14.5857 71.7876 14.7397C71.7916 14.8926 71.7634 15.0446 71.7049 15.1859C71.6463 15.3272 71.5586 15.4545 71.4476 15.5597C71.3379 15.6668 71.2081 15.7512 71.0656 15.8078C70.9232 15.8644 70.7709 15.8923 70.6176 15.8897H65.0976V31.5397C65.1005 31.7026 65.069 31.8642 65.0053 32.0141C64.9415 32.164 64.8469 32.2988 64.7276 32.4097C64.611 32.5263 64.4721 32.6183 64.3192 32.6801C64.1663 32.742 64.0025 32.7724 63.8376 32.7697C63.5292 32.7637 63.2353 32.6382 63.0176 32.4197Z" fill="#138175"/>
<path d="M75.1775 32.4199C75.0632 32.3061 74.9733 32.1703 74.9131 32.0208C74.853 31.8712 74.8238 31.711 74.8274 31.5499V14.6899C74.824 14.5257 74.8531 14.3625 74.9132 14.2098C74.9733 14.057 75.0631 13.9177 75.1775 13.7999C75.2888 13.6811 75.4236 13.5868 75.5734 13.5231C75.7232 13.4594 75.8847 13.4276 76.0475 13.4299C76.3816 13.4299 76.7021 13.5626 76.9384 13.7989C77.1747 14.0352 77.3075 14.3557 77.3075 14.6899V21.9599H87.6675V14.6899C87.6647 14.525 87.6952 14.3612 87.757 14.2083C87.8189 14.0554 87.9108 13.9165 88.0275 13.7999C88.1384 13.6806 88.2731 13.586 88.423 13.5222C88.5729 13.4585 88.7346 13.427 88.8974 13.4299C89.2316 13.4299 89.5521 13.5626 89.7884 13.7989C90.0247 14.0352 90.1575 14.3557 90.1575 14.6899V31.5399C90.1603 31.7027 90.1289 31.8644 90.0651 32.0143C90.0014 32.1642 89.9067 32.299 89.7874 32.4099C89.6708 32.5265 89.5319 32.6184 89.379 32.6803C89.2261 32.7421 89.0624 32.7726 88.8974 32.7699C88.7352 32.7726 88.574 32.7426 88.4236 32.6817C88.2731 32.6209 88.1364 32.5304 88.0217 32.4156C87.9069 32.3009 87.8164 32.1642 87.7556 32.0138C87.6947 31.8633 87.6647 31.7021 87.6675 31.5399V24.2799H77.3075V31.5499C77.3097 31.7126 77.2779 31.8741 77.2142 32.0239C77.1505 32.1737 77.0563 32.3086 76.9375 32.4199C76.8205 32.536 76.6815 32.6277 76.5287 32.6895C76.3759 32.7513 76.2123 32.782 76.0475 32.7799C75.8856 32.7822 75.7249 32.7515 75.5753 32.6896C75.4257 32.6277 75.2904 32.5359 75.1775 32.4199Z" fill="#138175"/>
<path d="M95.8073 32.2798C95.6931 32.166 95.6032 32.0302 95.543 31.8807C95.4829 31.7311 95.4537 31.5709 95.4573 31.4097V14.8198C95.4539 14.6556 95.483 14.4924 95.5431 14.3397C95.6032 14.1869 95.693 14.0475 95.8073 13.9297C95.9182 13.8105 96.053 13.7158 96.2029 13.6521C96.3528 13.5883 96.5145 13.5569 96.6773 13.5598H107.677C107.831 13.5584 107.984 13.5878 108.127 13.6461C108.269 13.7044 108.399 13.7906 108.508 13.8995C108.617 14.0084 108.703 14.1379 108.761 14.2804C108.819 14.423 108.849 14.5757 108.847 14.7298C108.851 14.8826 108.823 15.0347 108.765 15.1759C108.706 15.3172 108.618 15.4446 108.507 15.5497C108.398 15.6569 108.268 15.7412 108.125 15.7978C107.983 15.8545 107.831 15.8823 107.677 15.8797H97.9773V21.8798H106.687C106.998 21.8798 107.295 22.003 107.515 22.2224C107.734 22.4419 107.857 22.7394 107.857 23.0498C107.861 23.2026 107.833 23.3547 107.775 23.4959C107.716 23.6372 107.628 23.7646 107.517 23.8698C107.408 23.9769 107.278 24.0612 107.135 24.1178C106.993 24.1745 106.841 24.2023 106.687 24.1998H97.9373V30.3097H107.637C107.948 30.3097 108.245 30.433 108.465 30.6524C108.684 30.8719 108.807 31.1694 108.807 31.4797C108.811 31.6326 108.783 31.7847 108.725 31.9259C108.666 32.0672 108.578 32.1946 108.467 32.2998C108.358 32.4069 108.228 32.4912 108.085 32.5478C107.943 32.6045 107.791 32.6323 107.637 32.6297H96.6373C96.3255 32.6263 96.0274 32.5007 95.8073 32.2798Z" fill="#138175"/>
<path d="M122.698 31.7204C121.253 30.9329 120.065 29.7455 119.278 28.3004C118.423 26.703 117.996 24.9117 118.038 23.1004C117.996 21.2892 118.423 19.4979 119.278 17.9004C120.065 16.4554 121.253 15.268 122.698 14.4804C124.203 13.6717 125.89 13.262 127.598 13.2904C128.72 13.2757 129.838 13.424 130.918 13.7304C131.933 14.0464 132.909 14.4757 133.828 15.0104C134.012 15.1041 134.165 15.2476 134.271 15.4244C134.377 15.6012 134.432 15.8043 134.428 16.0104C134.429 16.1444 134.403 16.2772 134.351 16.4009C134.3 16.5246 134.224 16.6367 134.128 16.7304C134.027 16.8369 133.904 16.9198 133.767 16.9734C133.631 17.027 133.484 17.0499 133.338 17.0404C133.168 17.0428 133 17.0051 132.848 16.9304C132.101 16.518 131.313 16.1829 130.498 15.9304C129.634 15.6987 128.742 15.5876 127.848 15.6004C126.449 15.568 125.067 15.9134 123.848 16.6004C122.773 17.217 121.906 18.1395 121.358 19.2504C120.789 20.4386 120.505 21.7432 120.528 23.0604C120.505 24.3777 120.789 25.6823 121.358 26.8704C121.906 27.9814 122.773 28.9039 123.848 29.5204C125.067 30.2074 126.449 30.5529 127.848 30.5204C128.742 30.5335 129.634 30.4225 130.498 30.1904C131.314 29.9386 132.101 29.6035 132.848 29.1904C133 29.1161 133.168 29.0785 133.338 29.0804C133.483 29.0742 133.628 29.0976 133.764 29.1492C133.9 29.2007 134.024 29.2794 134.128 29.3804C134.226 29.4766 134.303 29.5919 134.355 29.7192C134.407 29.8465 134.431 29.9831 134.428 30.1204C134.432 30.3266 134.377 30.5297 134.271 30.7065C134.165 30.8833 134.012 31.0268 133.828 31.1204C132.908 31.6485 131.932 32.0711 130.918 32.3804C129.838 32.6872 128.72 32.8354 127.598 32.8204C125.898 32.8766 124.211 32.4979 122.698 31.7204Z" fill="#F18182"/>
<path d="M139.708 32.0099C138.658 31.419 137.806 30.5321 137.258 29.4599C136.669 28.2884 136.374 26.991 136.398 25.6799C136.374 24.3688 136.669 23.0715 137.258 21.8999C137.806 20.8277 138.658 19.9408 139.708 19.3499C140.842 18.7576 142.103 18.4482 143.383 18.4482C144.663 18.4482 145.923 18.7576 147.058 19.3499C148.108 19.943 148.963 20.8291 149.518 21.8999C150.114 23.0695 150.412 24.3676 150.388 25.6799C150.412 26.9922 150.114 28.2904 149.518 29.4599C148.952 30.5364 148.083 31.423 147.018 32.0099C145.883 32.6023 144.623 32.9116 143.343 32.9116C142.063 32.9116 140.802 32.6023 139.668 32.0099H139.708ZM145.538 30.1299C146.247 29.7565 146.833 29.1873 147.228 28.4899C147.704 27.6214 147.936 26.6398 147.898 25.6499C147.933 24.6698 147.702 23.6985 147.228 22.8399C146.836 22.1427 146.249 21.5759 145.538 21.2099C144.871 20.8747 144.134 20.7 143.388 20.6999C142.635 20.6991 141.892 20.8737 141.218 21.2099C140.508 21.5736 139.923 22.1412 139.538 22.8399C139.072 23.7011 138.844 24.6712 138.878 25.6499C138.841 26.6384 139.069 27.6188 139.538 28.4899C139.926 29.189 140.51 29.7592 141.218 30.1299C141.89 30.4735 142.633 30.6517 143.388 30.6499C144.137 30.6474 144.874 30.4657 145.538 30.1199V30.1299Z" fill="#F18182"/>
<path d="M154.018 15.4498C153.884 15.3207 153.778 15.1652 153.708 14.993C153.637 14.8208 153.603 14.6358 153.608 14.4498V14.3398C153.626 13.979 153.783 13.6392 154.045 13.3913C154.308 13.1435 154.657 13.0068 155.018 13.0098H155.178C155.546 13.0124 155.898 13.1597 156.158 13.4198C156.418 13.6799 156.565 14.032 156.568 14.3998V14.5098C156.565 14.8777 156.418 15.2297 156.158 15.4898C155.898 15.7499 155.546 15.8972 155.178 15.8998H155.018C154.829 15.8996 154.642 15.8593 154.47 15.7818C154.297 15.7042 154.143 15.5911 154.018 15.4498ZM154.178 32.4498C154.061 32.3373 153.969 32.202 153.907 32.0523C153.845 31.9026 153.815 31.7418 153.818 31.5798V19.8198C153.815 19.6549 153.846 19.4911 153.907 19.3382C153.969 19.1853 154.061 19.0465 154.178 18.9298C154.289 18.8105 154.424 18.7159 154.573 18.6522C154.723 18.5884 154.885 18.5569 155.048 18.5598C155.215 18.5542 155.381 18.583 155.537 18.6444C155.692 18.7057 155.833 18.7983 155.951 18.9165C156.069 19.0346 156.162 19.1757 156.223 19.3311C156.285 19.4865 156.313 19.6528 156.308 19.8198V31.5398C156.311 31.7027 156.279 31.8643 156.216 32.0142C156.152 32.1641 156.057 32.2989 155.938 32.4098C155.821 32.5264 155.682 32.6184 155.529 32.6802C155.377 32.7421 155.213 32.7725 155.048 32.7698C154.733 32.769 154.43 32.6432 154.208 32.4198L154.178 32.4498Z" fill="#F18182"/>
<path d="M161.018 32.4196C160.902 32.3071 160.81 32.1718 160.748 32.0221C160.686 31.8724 160.655 31.7116 160.658 31.5496V19.8196C160.656 19.6547 160.686 19.491 160.748 19.3381C160.81 19.1852 160.902 19.0463 161.018 18.9296C161.129 18.8103 161.264 18.7157 161.414 18.652C161.564 18.5882 161.726 18.5568 161.888 18.5596C162.223 18.5596 162.543 18.6924 162.779 18.9287C163.016 19.165 163.148 19.4855 163.148 19.8196V20.9396C163.792 20.2136 164.549 19.5957 165.388 19.1096C166.259 18.6385 167.239 18.404 168.228 18.4296C169.149 18.4072 170.056 18.654 170.838 19.1396C171.574 19.6132 172.16 20.286 172.528 21.0796C172.926 21.9237 173.128 22.8467 173.118 23.7796V31.5396C173.121 31.7025 173.09 31.8641 173.026 32.014C172.962 32.1639 172.868 32.2987 172.748 32.4096C172.632 32.5262 172.493 32.6182 172.34 32.6801C172.187 32.7419 172.023 32.7724 171.858 32.7696C171.696 32.7723 171.535 32.7424 171.385 32.6815C171.234 32.6207 171.097 32.5302 170.983 32.4154C170.868 32.3006 170.777 32.164 170.717 32.0135C170.656 31.8631 170.626 31.7019 170.628 31.5396V24.0096C170.628 21.7896 169.628 20.6796 167.628 20.6796C166.759 20.6662 165.906 20.9135 165.178 21.3896C164.416 21.9174 163.741 22.562 163.178 23.2996V31.4996C163.181 31.6625 163.15 31.8241 163.086 31.974C163.022 32.1239 162.928 32.2587 162.808 32.3696C162.692 32.4862 162.553 32.5782 162.4 32.6401C162.247 32.7019 162.083 32.7324 161.918 32.7296C161.755 32.7427 161.591 32.7219 161.436 32.6685C161.281 32.6152 161.139 32.5305 161.018 32.4196Z" fill="#F18182"/>
</svg>
