<svg width="1440" height="711" viewBox="0 0 1440 711" fill="none" xmlns="http://www.w3.org/2000/svg">
<path fill-rule="evenodd" clip-rule="evenodd" d="M1122.91 133.951C1124.22 133.73 1125.49 133.371 1126.72 132.88C1127.22 132.447 1126.07 131.377 1126.07 131.377C1126.07 131.377 1131.76 127.47 1135.51 127.47H1145.84C1147.78 127.47 1145.84 126.217 1144.87 125.637C1143.9 125.056 1143.32 124.885 1139.45 124.885H1132.53C1129.94 124.885 1126.39 126.821 1126.39 126.821H1125.15C1125.15 126.821 1124.5 124.407 1122.87 124.35C1121.24 124.293 1120.59 126.821 1120.59 126.821H1119.41C1119.41 126.821 1115.85 124.885 1113.27 124.885H1106.34C1102.47 124.885 1101.93 125.067 1100.92 125.637C1099.91 126.206 1098.02 127.47 1099.95 127.47H1110.29C1114.03 127.47 1119.74 131.377 1119.74 131.377C1119.74 131.377 1118.6 132.459 1119.1 132.88C1120.33 133.372 1121.61 133.731 1122.91 133.951V133.951Z" fill="#BFCFED"/>
<path fill-rule="evenodd" clip-rule="evenodd" d="M1166.43 204.03C1166.43 204.03 1171.41 203.062 1172.13 202.413C1172.85 201.764 1171.15 200.135 1171.15 200.135C1171.15 200.135 1179.75 194.235 1185.37 194.235H1200.94C1203.86 194.235 1200.94 192.344 1199.49 191.479C1198.03 190.613 1197.21 190.34 1191.32 190.34H1180.91C1177.01 190.34 1171.66 193.256 1171.66 193.256H1169.79C1169.79 193.256 1168.81 189.622 1166.38 189.531C1163.97 189.634 1162.96 193.256 1162.96 193.256H1161.09C1161.09 193.256 1155.74 190.34 1151.84 190.34H1141.5C1135.66 190.34 1134.85 190.613 1133.34 191.479C1131.82 192.344 1128.95 194.235 1131.88 194.235H1147.45C1153.07 194.235 1161.67 200.135 1161.67 200.135C1161.67 200.135 1159.94 201.752 1160.69 202.413C1161.44 203.073 1166.43 204.03 1166.43 204.03Z" fill="#BFCFED"/>
<path fill-rule="evenodd" clip-rule="evenodd" d="M1068.62 165.955C1068.62 165.955 1072.48 165.203 1073.06 164.702C1073.64 164.201 1072.31 162.937 1072.31 162.937C1072.31 162.937 1078.97 158.381 1083.34 158.381H1095.41C1097.69 158.381 1095.41 156.912 1094.27 156.24C1093.13 155.568 1092.47 155.363 1087.95 155.363H1079.86C1076.84 155.363 1072.7 157.641 1072.7 157.641H1071.24C1071.24 157.641 1070.49 154.827 1068.62 154.748C1066.75 154.668 1066 157.641 1066 157.641H1064.55C1064.55 157.641 1060.41 155.363 1057.39 155.363H1049.3C1044.75 155.363 1044.14 155.568 1042.97 156.24C1041.8 156.912 1039.55 158.381 1041.83 158.381H1053.9C1058.27 158.381 1064.93 162.937 1064.93 162.937C1064.93 162.937 1063.59 164.19 1064.18 164.702C1064.77 165.215 1068.62 165.955 1068.62 165.955Z" fill="#BFCFED"/>
<path fill-rule="evenodd" clip-rule="evenodd" d="M1239.08 184.509C1239.82 184.382 1240.55 184.176 1241.25 183.894C1241.54 183.644 1240.87 183.029 1240.87 183.029C1240.87 183.029 1244.14 180.751 1246.28 180.751H1252.21C1253.35 180.751 1252.21 180.033 1251.65 179.703C1251.09 179.373 1250.76 179.27 1248.54 179.27H1244.58C1243.34 179.413 1242.14 179.801 1241.06 180.409H1240.35C1240.35 180.409 1239.98 179.031 1239.06 178.985C1238.15 178.94 1237.78 180.409 1237.78 180.409H1237.07C1235.98 179.801 1234.79 179.414 1233.55 179.27H1229.59C1227.31 179.27 1227.06 179.373 1226.48 179.703C1225.9 180.033 1224.82 180.751 1225.92 180.751H1231.84C1233.98 180.751 1237.25 183.029 1237.25 183.029C1237.25 183.029 1236.59 183.644 1236.88 183.894C1237.59 184.178 1238.32 184.384 1239.08 184.509V184.509Z" fill="#BFCFED"/>
<path fill-rule="evenodd" clip-rule="evenodd" d="M998.678 150.716C999.422 150.589 1000.15 150.383 1000.85 150.101C1001.14 149.851 1000.48 149.236 1000.48 149.236C1000.48 149.236 1003.75 146.958 1005.89 146.958H1011.81C1012.95 146.958 1011.81 146.24 1011.25 145.91C1010.69 145.58 1010.36 145.477 1008.14 145.477H1004.14C1002.91 145.621 1001.71 146.008 1000.63 146.616H999.919C999.919 146.616 999.543 145.238 998.632 145.192C997.721 145.147 997.345 146.616 997.345 146.616H996.639C995.552 146.008 994.356 145.621 993.119 145.477H989.145C986.924 145.477 986.616 145.58 986.035 145.91C985.454 146.24 984.372 146.958 985.477 146.958H991.4C993.541 146.958 996.81 149.236 996.81 149.236C996.81 149.236 996.149 149.851 996.445 150.101C997.165 150.387 997.913 150.593 998.678 150.716V150.716Z" fill="#BFCFED"/>
<path fill-rule="evenodd" clip-rule="evenodd" d="M1145.1 159.828C1145.85 159.701 1146.58 159.495 1147.29 159.213C1147.57 158.962 1146.91 158.347 1146.91 158.347C1146.91 158.347 1150.18 156.069 1152.32 156.069H1158.24C1159.38 156.069 1158.24 155.352 1157.69 155.021C1157.13 154.691 1156.8 154.589 1154.58 154.589H1150.61C1149.38 154.732 1148.18 155.119 1147.09 155.727H1146.39C1146.39 155.727 1146.01 154.349 1145.1 154.304C1144.19 154.258 1143.81 155.727 1143.81 155.727H1143.11C1142.02 155.119 1140.82 154.732 1139.59 154.589H1135.62C1133.35 154.589 1133.1 154.691 1132.51 155.021C1131.93 155.352 1130.85 156.069 1131.96 156.069H1137.88C1140.02 156.069 1143.29 158.347 1143.29 158.347C1143.29 158.347 1142.63 158.962 1142.91 159.213C1143.62 159.495 1144.35 159.702 1145.1 159.828V159.828Z" fill="#BFCFED"/>
<path fill-rule="evenodd" clip-rule="evenodd" d="M1057.85 126.525C1058.59 126.397 1059.32 126.191 1060.02 125.91C1060.31 125.659 1059.65 125.044 1059.65 125.044C1059.65 125.044 1062.91 122.766 1065.06 122.766H1070.98C1072.12 122.766 1070.98 122.049 1070.42 121.719C1069.86 121.388 1069.53 121.286 1067.31 121.286H1063.35C1062.11 121.429 1060.91 121.816 1059.83 122.425H1059.12C1059.12 122.425 1058.76 121.047 1057.83 121.001C1056.91 120.955 1056.55 122.425 1056.55 122.425H1055.84C1054.75 121.816 1053.56 121.429 1052.32 121.286H1048.36C1046.08 121.286 1045.83 121.388 1045.25 121.719C1044.67 122.049 1043.59 122.766 1044.69 122.766H1050.61C1052.75 122.766 1056.02 125.044 1056.02 125.044C1056.02 125.044 1055.36 125.659 1055.65 125.91C1056.36 126.193 1057.09 126.399 1057.85 126.525V126.525Z" fill="#BFCFED"/>
</svg>
