<svg width="1440" height="711" viewBox="0 0 1440 711" fill="none" xmlns="http://www.w3.org/2000/svg">
<path opacity="0.37" d="M1179.45 68.1855C1179.42 68.1855 1179.4 68.1945 1179.38 68.2105C1179.37 68.2265 1179.36 68.2481 1179.36 68.2707C1179.36 68.2933 1179.37 68.3149 1179.38 68.3309C1179.4 68.3468 1179.42 68.3558 1179.45 68.3558C1179.47 68.3558 1179.49 68.3468 1179.51 68.3309C1179.53 68.3149 1179.54 68.2933 1179.54 68.2707C1179.54 68.2481 1179.53 68.2265 1179.51 68.2105C1179.49 68.1945 1179.47 68.1855 1179.45 68.1855Z" fill="white"/>
<path opacity="0.37" d="M337.583 157.81C337.149 157.572 336.769 157.317 336.371 157.061C335.852 155.733 334.853 154.618 333.548 153.913C332.495 153.354 331.37 152.925 330.2 152.637C328.41 151.32 326.445 150.227 324.355 149.387C319.704 147.352 314.778 145.926 309.714 145.15C298.451 143.816 287.016 144.655 276.109 147.617C269.196 149.438 266.445 160.192 273.937 163.289C284.383 167.723 295.624 170.264 307.072 170.776C316.428 171.168 331.014 171.474 336.027 162.694C336.757 161.388 337.023 159.898 336.787 158.44H337.312C337.388 158.436 337.461 158.412 337.523 158.371C337.585 158.33 337.633 158.273 337.662 158.206C337.69 158.14 337.698 158.068 337.684 157.997C337.67 157.927 337.635 157.862 337.583 157.81V157.81Z" fill="white"/>
<path opacity="0.37" d="M321.495 178.825C316.826 180.662 311.995 182.789 307.217 184.287C302.439 185.784 297.372 186.788 292.613 188.609C292.553 188.629 292.502 188.666 292.465 188.715C292.429 188.764 292.409 188.822 292.409 188.881C292.409 188.941 292.429 188.999 292.465 189.048C292.502 189.096 292.553 189.133 292.613 189.154C297.372 190.855 302.349 191.791 307.217 193.203C312.085 194.616 316.844 196.607 321.495 198.393C328.155 200.895 335.158 194.65 335.158 188.609C335.158 182.568 328.101 176.204 321.495 178.825Z" fill="white"/>
<path opacity="0.37" d="M374.574 152.177C371.166 151.51 367.648 151.51 364.24 152.177C362.791 152.44 361.359 152.781 359.951 153.198C357.472 154.083 356.115 156.363 353.328 156.602C353.302 156.602 353.276 156.611 353.258 156.629C353.239 156.647 353.229 156.67 353.229 156.695C353.229 156.72 353.239 156.744 353.258 156.761C353.276 156.779 353.302 156.789 353.328 156.789C356.115 157.061 357.49 159.307 359.951 160.192C361.35 160.639 362.784 160.981 364.24 161.213C367.65 161.864 371.164 161.864 374.574 161.213C379.387 160.294 379.387 153.198 374.574 152.177Z" fill="white"/>
<path opacity="0.37" d="M403.457 157.946C403.34 157.202 402.992 156.508 402.455 155.951C401.919 155.394 401.218 155 400.443 154.817C399.668 154.635 398.852 154.673 398.1 154.927C397.348 155.182 396.693 155.64 396.218 156.244C395.422 156.517 394.625 156.789 393.865 157.129C392.743 157.623 392.418 158.831 391.241 159.171C391.201 159.183 391.165 159.207 391.14 159.239C391.115 159.271 391.102 159.31 391.102 159.35C391.102 159.39 391.115 159.429 391.14 159.461C391.165 159.493 391.201 159.517 391.241 159.528C392.454 159.682 392.942 160.686 394.119 160.941C394.968 161.108 395.825 161.233 396.688 161.315C397.308 161.844 398.086 162.18 398.917 162.279C399.747 162.377 400.59 162.232 401.33 161.864C402.07 161.495 402.671 160.922 403.051 160.221C403.432 159.52 403.573 158.725 403.457 157.946V157.946Z" fill="white"/>
<path d="M1278.98 188.009C1270.27 190.933 1261.12 192.59 1251.85 192.922C1243.39 192.949 1235.31 188.057 1227.17 185.903C1219.03 183.75 1211.26 184.001 1205 188.03C1195.24 175.159 1179.24 167.171 1162.04 168.864C1152.78 169.844 1144.08 173.445 1137.1 179.192C1133.73 182.117 1130.72 185.385 1128.12 188.937C1126.83 190.572 1124.17 195.832 1122 198.834C1111.03 197.174 1099.82 198.795 1089.97 203.47C1084.78 206.184 1080.45 210.133 1077.4 214.927C1074.35 219.721 1072.7 225.196 1072.59 230.811C1065.12 233.038 1057.72 235.422 1050.52 238.02C1050.43 238.016 1050.51 238.156 1050.51 238.173C1087.79 251.552 1206.71 223.814 1258.45 195.556C1265.55 193.733 1272.49 191.432 1279.22 188.669C1279.28 188.621 1279.33 188.557 1279.35 188.485C1279.37 188.413 1279.37 188.336 1279.34 188.265C1279.31 188.194 1279.27 188.132 1279.2 188.086C1279.14 188.04 1279.06 188.014 1278.98 188.009V188.009Z" fill="white"/>
<path d="M1102.95 153.709C1082.3 156.669 1062.03 160.924 1041.42 164.361C1041.33 164.361 1041.42 164.531 1041.42 164.531C1062.18 162.574 1082.9 161.468 1103.6 159.018C1104 159.016 1104.4 158.935 1104.77 158.779C1105.13 158.623 1105.46 158.396 1105.73 158.114C1106 157.831 1106.2 157.498 1106.32 157.138C1106.44 156.777 1106.48 156.397 1106.43 156.021C1106.38 155.645 1106.25 155.283 1106.05 154.958C1105.84 154.633 1105.57 154.352 1105.24 154.134C1104.91 153.915 1104.54 153.765 1104.14 153.692C1103.75 153.618 1103.34 153.624 1102.95 153.709Z" fill="white"/>
<path d="M1093.99 152.11C1089.43 145.899 1081.83 142.138 1073.69 144.044C1062.38 146.682 1061.2 161.69 1050.05 163.596C1049.93 163.596 1050.05 163.766 1050.05 163.783C1055.65 164.379 1060.03 162.251 1064.35 159.138C1064.4 159.62 1064.55 160.088 1064.8 160.515C1065.04 160.941 1065.37 161.318 1065.77 161.622C1066.18 161.927 1066.64 162.152 1067.13 162.287C1067.63 162.421 1068.15 162.461 1068.66 162.405C1075.41 161.605 1082.18 161.06 1088.94 160.363C1092.94 159.954 1096.78 155.904 1093.99 152.11Z" fill="white"/>
<path d="M255.333 192.37C262.391 194.395 269.594 195.942 276.887 196.998C276.987 197.056 277.097 197.096 277.212 197.118C286.623 198.615 295.544 201.644 305.027 203.056C312.573 204.196 320.174 205.166 327.775 206C345.691 208.008 363.661 209.59 381.595 211.394C417.01 214.951 453.584 218.592 489.234 217.333C489.258 217.333 489.281 217.324 489.298 217.308C489.315 217.292 489.325 217.27 489.325 217.248C489.325 217.225 489.315 217.204 489.298 217.188C489.281 217.172 489.258 217.163 489.234 217.163C481.67 215.342 474.015 213.759 466.288 212.347C465.439 206.788 463.066 201.533 459.4 197.099C455.735 192.666 450.905 189.206 445.386 187.061C435.002 183.42 423.665 182.938 412.975 185.683C410.369 182.994 407.093 178.059 405.591 176.562C402.534 173.334 399.112 170.43 395.384 167.901C387.681 162.932 378.558 160.275 369.216 160.277C351.898 160.413 337.058 170.028 329.06 183.828C322.31 180.425 314.582 181.054 306.746 184.049C298.91 187.044 291.563 192.744 283.22 193.612C273.938 194.279 264.602 193.614 255.532 191.638C255.429 191.613 255.32 191.628 255.228 191.679C255.136 191.73 255.07 191.814 255.044 191.911C255.017 192.008 255.033 192.11 255.087 192.197C255.142 192.283 255.23 192.345 255.333 192.37V192.37Z" fill="white"/>
<path d="M377.27 129.239C381.939 118.621 395.548 112.035 406.225 120.288C413.463 125.904 413.101 133.714 423.779 136.164C433.298 138.359 443.432 139.772 453.114 141.354C453.222 141.354 453.114 141.524 453.114 141.524C441.206 141.014 429.117 141.729 417.3 139.823C416.015 139.619 414.839 139.38 413.681 139.091C413.482 139.114 413.282 139.114 413.083 139.091C403.275 138.819 393.593 137.236 383.748 137.236C379.785 137.338 375.46 133.169 377.27 129.239Z" fill="white"/>
<path d="M28.2915 71.1806C52.9393 78.1403 78.0939 83.3643 103.122 88.9626C126.991 94.3227 312.122 132.49 323.378 133.783C326.4 134.141 284.216 119.183 282.841 118.316C270.951 110.965 267.622 97.0793 257.325 88.299C252.187 84.0784 246.095 81.0131 239.511 79.3355C232.926 77.6579 226.022 77.4121 219.321 78.6167C220.533 73.6278 220.44 68.437 219.05 63.4893C215.43 51.2716 203.45 44.7714 190.819 42.9677C170.55 40.194 149.956 50.6761 140.528 66.9266C136.393 64.6772 131.696 63.5026 126.919 63.5233C108.406 63.4042 94.0733 79.1102 75.5965 76.1494C74.0764 75.9282 43.149 72.4228 28.5448 70.5C28.4581 70.4947 28.3719 70.5163 28.2994 70.5614C28.2269 70.6065 28.1722 70.6727 28.1434 70.7499C28.1147 70.827 28.1137 70.9109 28.1404 70.9887C28.1671 71.0665 28.2202 71.1339 28.2915 71.1806V71.1806Z" fill="white"/>
<path d="M269.612 73.6811C281.737 77.0843 294.133 79.6878 306.457 82.4444C318.22 85.0819 409.392 103.868 414.911 104.566C416.395 104.736 395.62 97.3677 395.005 96.9593C389.142 93.3348 387.513 86.5113 382.446 82.1722C379.912 80.0889 376.907 78.5768 373.658 77.7511C370.409 76.9255 367.002 76.808 363.698 77.4076C364.297 74.9502 364.254 72.3927 363.571 69.9545C361.761 63.9307 355.898 60.6977 349.673 59.8469C344.772 59.2761 339.802 60.0934 335.398 62.1941C330.994 64.2949 327.357 67.5835 324.952 71.6391C322.921 70.5228 320.61 69.9354 318.256 69.9375C309.208 69.9375 302.096 77.6118 292.921 76.1484C292.161 76.0463 276.942 74.3107 269.739 73.3748C269.704 73.3791 269.67 73.3923 269.642 73.413C269.614 73.4337 269.592 73.4612 269.579 73.4926C269.566 73.5239 269.562 73.558 269.568 73.5911C269.574 73.6243 269.589 73.6554 269.612 73.6811V73.6811Z" fill="white"/>
<path d="M762.316 90.2891H758.696C758.67 90.2891 758.645 90.2989 758.626 90.3165C758.607 90.334 758.597 90.3578 758.597 90.3827C758.597 90.4075 758.607 90.4313 758.626 90.4488C758.645 90.4664 758.67 90.4762 758.696 90.4762H762.316C762.342 90.4762 762.367 90.4664 762.386 90.4488C762.405 90.4313 762.415 90.4075 762.415 90.3827C762.415 90.3578 762.405 90.334 762.386 90.3165C762.367 90.2989 762.342 90.2891 762.316 90.2891V90.2891Z" fill="white"/>
<path d="M971.636 260.804C970.985 260.43 969.447 261.042 969.374 260.243C968.614 252.296 952.001 244.724 942.139 263.884C940.926 266.232 936.71 264.752 933.941 265.16L928.838 265.381C924.404 241.116 901.439 218.604 873.479 229.818C867.44 232.23 862.423 236.46 859.217 241.844C856.01 247.227 854.795 253.459 855.763 259.562C851.163 260.206 846.782 261.832 842.955 264.315C839.127 266.799 835.956 270.074 833.685 273.89C827.477 265.092 815.135 262.931 804.06 265.79C788.28 269.874 779.249 283.946 765.17 290.395C754.131 291.246 743.11 292.097 732.143 293.407C732.117 293.407 732.092 293.417 732.073 293.435C732.054 293.452 732.044 293.476 732.044 293.501C732.044 293.526 732.054 293.549 732.073 293.567C732.092 293.585 732.117 293.594 732.143 293.594C752.195 295.738 772.753 294.734 792.912 294.768C813.724 294.768 834.408 293.986 855.147 292.25C874.885 290.582 894.517 287.947 913.962 284.355C927.951 282.039 941.76 278.844 955.295 274.791C958.118 274.247 960.941 273.668 963.746 273.09C986.494 267.866 1008.84 261.468 1029.26 250.543C1032.22 248.91 990.421 257.129 971.636 260.804Z" fill="white"/>
<path d="M999.384 222.183C999.36 222.183 999.337 222.192 999.32 222.208C999.303 222.224 999.293 222.245 999.293 222.268C999.293 222.29 999.303 222.312 999.32 222.328C999.337 222.344 999.36 222.353 999.384 222.353C999.408 222.353 999.431 222.344 999.448 222.328C999.465 222.312 999.475 222.29 999.475 222.268C999.475 222.245 999.465 222.224 999.448 222.208C999.431 222.192 999.408 222.183 999.384 222.183V222.183Z" fill="white"/>
<path d="M811.104 192.693C796.438 197.889 781.293 201.802 765.862 204.384C766.069 203.489 766.051 202.561 765.812 201.674C765.572 200.786 765.118 199.963 764.483 199.269C763.848 198.575 763.05 198.028 762.153 197.673C761.256 197.317 760.283 197.162 759.311 197.22C757.502 197.22 755.602 197.22 753.738 197.22C752.262 194.693 750.235 192.489 747.789 190.752C745.343 189.015 742.534 187.784 739.545 187.141C736.557 186.498 733.458 186.457 730.452 187.021C727.446 187.585 724.601 188.741 722.104 190.413C720.543 187.477 718.663 184.7 716.494 182.126C708.532 172.699 694.615 166.999 683.033 174.503C675.668 179.285 673.116 186.414 672.863 194.106C658.042 188.899 638.352 201.099 627.096 212.075C619.857 212.33 612.619 212.67 605.543 213.147C605.127 213.147 604.964 213.811 605.434 213.879C611.334 214.809 617.258 215.637 623.205 216.363C623.194 216.452 623.206 216.542 623.24 216.626C623.274 216.71 623.328 216.785 623.399 216.845C623.47 216.905 623.555 216.948 623.647 216.971C623.74 216.994 623.836 216.995 623.929 216.976L626.028 216.703C688.933 224.02 753.575 219.392 811.43 193.221C811.593 193.068 811.412 192.574 811.104 192.693Z" fill="white"/>
<path d="M389.576 42.1338C366.412 39.8706 343.393 35.089 320.736 29.9842C310.18 27.5905 299.702 24.9247 289.302 21.9865C279.276 19.1448 269.395 15.2821 258.99 13.9889C256.565 13.6826 255.877 17.1369 257.795 18.1579C266.97 22.9905 277.611 24.9644 287.727 27.4317C299.364 30.2054 311.109 32.6898 322.926 34.7487C345.004 38.5774 367.263 40.4151 389.594 42.338C389.685 42.321 389.685 42.1508 389.576 42.1338Z" fill="white"/>
<path d="M1415.72 111.087C1413.51 101.167 1402.51 94.0707 1391.79 96.9635C1388.44 97.9168 1385.43 99.7145 1383.08 102.162C1380.74 104.61 1379.15 107.614 1378.49 110.849C1372.74 108.535 1366.39 108.041 1360.99 112.006C1357.84 114.282 1355.74 117.607 1355.11 121.297C1349.82 120.923 1344.56 122.386 1340.34 125.408C1336.11 128.431 1333.21 132.804 1332.18 137.7C1331.99 138.385 1331.97 139.101 1332.1 139.797C1332.23 140.494 1332.53 141.154 1332.96 141.733C1319.01 146.345 1304.84 150.36 1290.58 153.866C1290.2 153.951 1290.36 154.461 1290.74 154.41C1306.69 151.738 1322.45 148.186 1337.96 143.775C1338.63 143.71 1339.28 143.537 1339.89 143.265L1340.27 143.095C1365.4 135.706 1389.93 126.607 1413.65 115.869C1414.5 115.39 1415.16 114.665 1415.54 113.802C1415.91 112.94 1415.97 111.987 1415.72 111.087V111.087Z" fill="white"/>
<path d="M1082.01 178.773C1081.99 178.773 1081.96 178.783 1081.94 178.801C1081.92 178.818 1081.91 178.842 1081.91 178.867C1081.91 178.892 1081.92 178.916 1081.94 178.933C1081.96 178.951 1081.99 178.961 1082.01 178.961C1082.04 178.961 1082.07 178.951 1082.08 178.933C1082.1 178.916 1082.11 178.892 1082.11 178.867C1082.11 178.842 1082.1 178.818 1082.08 178.801C1082.07 178.783 1082.04 178.773 1082.01 178.773Z" fill="white"/>
<path d="M1348.36 194.574L1331.89 199.934C1324.99 199.934 1318.35 197.297 1310.17 196.531C1304.19 195.986 1298.17 197.174 1292.93 199.934C1280.46 196.208 1260.82 206.298 1267.94 218.227L1265.11 220.83C1264.42 221.477 1264.23 221.987 1264.33 222.413C1263.07 223.076 1262.13 223.944 1262.92 224.897C1264.33 226.599 1271.57 224.284 1273.02 223.825C1290.94 218.153 1308.83 212.435 1326.7 206.673L1328.67 206.451C1338.83 205.113 1348.56 201.698 1357.17 196.446C1363.83 192.294 1350.26 193.944 1348.36 194.574ZM1303.93 204.631H1304.15C1302.77 204.903 1301.49 205.226 1300.53 205.498C1300.32 205.136 1300.09 204.784 1299.84 204.443C1303.39 201.165 1304.75 201.227 1303.93 204.631V204.631Z" fill="white"/>
<path d="M975.08 226.88C963.462 217.963 945.745 221.536 938.181 233.448C937.692 234.214 938.995 234.299 940.171 234.248C937.728 234.826 935.991 236.8 939.791 235.949C950.649 233.68 961.507 231.355 972.365 228.973C972.655 228.921 976.274 227.764 975.08 226.88ZM961.381 225.399C957.357 225.522 953.369 226.157 949.527 227.288C951.693 225.862 954.267 225.085 956.911 225.059C958.41 225.002 959.911 225.117 961.381 225.399V225.399Z" fill="white"/>
<path d="M962.05 222.982C961.362 222.387 958.81 223.272 958.177 223.459C954.775 224.48 951.445 225.705 948.097 226.862C947.174 227.185 944.604 228.853 947.138 228.921H947.536C947.319 229.755 949.762 229.619 950.232 229.551L953.417 229.074H954.286C955.678 229.11 957.057 228.824 958.304 228.24C958.702 228.053 960.276 227.202 959.462 226.658C959.036 226.381 958.574 226.158 958.086 225.994C957.84 225.896 957.586 225.816 957.326 225.756C958.575 225.28 959.806 224.803 961.036 224.276C961.796 223.969 962.755 223.595 962.05 222.982Z" fill="white"/>
<path d="M997.049 217.162C997.028 216.678 996.866 216.208 996.583 215.804C996.299 215.399 995.904 215.075 995.439 214.865C992.688 213.487 988.508 214.525 986.028 215.971C983.549 217.418 982.536 220.378 982.21 223.203C982.21 223.731 984.906 223.662 986.825 223.016C989.829 223.249 992.821 222.444 995.24 220.753C996.059 220.107 996.647 219.24 996.923 218.268C997.357 217.928 997.592 217.503 997.049 217.162ZM989.575 217.996C989.665 217.819 989.767 217.649 989.883 217.486C990.217 217.733 990.447 218.082 990.534 218.473L989.177 219.034C989.284 218.68 989.417 218.333 989.575 217.996V217.996Z" fill="white"/>
<path d="M1015.11 205.83C1014.82 205.689 1014.49 205.624 1014.17 205.643C1013.6 205.633 1013.04 205.691 1012.49 205.813C1011.03 205.914 1009.61 206.34 1008.36 207.055L1008.14 207.191C1007.67 207.446 1007.27 207.787 1007.35 208.195C1007.51 209.267 1009.37 209.131 1010.15 209.046C1011.2 208.929 1012.22 208.66 1013.17 208.246C1013.79 208.046 1014.32 207.671 1014.69 207.174C1014.73 207.046 1014.73 206.912 1014.69 206.783C1015.18 206.511 1015.49 206.17 1015.11 205.83Z" fill="white"/>
<path d="M729.958 285.04C685.063 287.752 639.989 284.115 596.241 274.252C594.721 273.912 589.002 276.209 590.939 276.634C635.262 286.862 681.027 290.434 726.538 287.218C727.533 287.15 732.854 284.887 729.958 285.04Z" fill="white"/>
<path d="M683.975 285.381C678.292 286.266 675.089 272.177 670.674 268.859C666.65 265.948 661.617 264.552 656.558 264.945C653.755 265.125 651.018 265.834 648.512 267.03C646.007 268.226 643.782 269.884 641.972 271.905C640.746 270.921 639.418 270.054 638.009 269.318C634.819 267.78 631.333 266.86 627.758 266.615C624.182 266.369 620.591 266.803 617.198 267.889C613.578 268.995 604.53 272.738 608.149 277.571C610.122 280.26 615.714 280.14 618.573 280.549L637.394 283.22C637.394 283.339 637.394 283.442 637.394 283.561C637.394 285.705 641.013 285.262 643.076 284.071C643.637 284.956 646.026 284.599 647.835 283.867L648.921 284.037C649.288 284.298 649.716 284.472 650.17 284.546C650.623 284.62 651.088 284.591 651.527 284.463L668.267 287.151C670.147 286.988 671.959 286.404 673.551 285.45C676.066 287.968 679.288 288.529 683.703 287.423C686.164 286.726 687.884 284.769 683.975 285.381Z" fill="white"/>
<path d="M710.161 284.921C704.732 284.206 697.674 284.768 693.874 288.886C692.878 289.884 692.244 291.153 692.064 292.51C687.232 292.357 681.387 291.966 677.496 294.212C676.793 294.593 676.177 295.102 675.686 295.709C675.424 295.872 675.176 296.054 674.944 296.254C672.031 298.993 674.619 300.882 677.677 301.597C681.658 302.516 707.537 305.596 706.27 296.322C706.237 296.126 706.188 295.933 706.125 295.743C709.126 295.454 712.004 294.472 714.504 292.885C719.879 289.073 715.137 285.585 710.161 284.921Z" fill="white"/>
<path d="M739.423 289.976C734.284 289.976 728.203 289.04 723.136 290.18C721.955 290.507 720.854 291.051 719.897 291.779C718.087 292.596 716.476 293.907 718.087 295.421C719.698 296.935 725.507 296.272 727.696 296C732.006 295.448 736.182 294.199 740.038 292.307C742.101 291.371 741.486 289.993 739.423 289.976Z" fill="white"/>
<path d="M751.874 287.916C751.874 287.746 751.874 287.61 751.367 287.559L749.883 287.423C748.82 287.379 747.759 287.547 746.77 287.916C745.501 288.019 744.304 288.516 743.368 289.329C742.373 290.384 744.237 290.605 744.979 290.554C745.846 290.507 746.71 290.416 747.566 290.282C748.889 290.192 750.169 289.801 751.294 289.141C751.711 288.818 752.181 288.274 751.874 287.916Z" fill="white"/>
<path d="M758.533 290.725L757.954 290.419C756.914 290.104 755.784 290.184 754.805 290.64C754.606 290.64 752.561 291.661 753.375 292.001L754.009 292.257C755.042 292.509 756.137 292.413 757.103 291.984C757.302 291.916 759.257 291.134 758.533 290.725Z" fill="white"/>
<path d="M613.017 275.444C609.646 273.187 605.61 271.974 601.471 271.974C597.333 271.974 593.297 273.187 589.926 275.444C588.768 276.243 592.532 275.733 592.839 275.631C594.203 275.139 595.616 274.774 597.056 274.542C596.296 275.001 595.952 275.495 596.821 275.699C600.567 276.635 604.258 277.826 608.059 278.558C608.873 278.711 612.04 277.588 612.112 276.856C613.09 276.465 613.741 275.937 613.017 275.444Z" fill="white"/>
<path d="M615.406 259.499C614.338 256.317 608.619 256.624 605.959 256.76C603.453 256.901 600.974 257.324 598.576 258.019C595.318 253.033 587.319 252.54 582.089 255.926C572.408 262.188 590.305 266.748 594.486 267.837C596.571 268.068 598.684 267.725 600.566 266.85L601.019 266.646C603.784 266.546 606.523 266.1 609.162 265.319C611.605 264.604 616.473 262.664 615.406 259.499Z" fill="white"/>
</svg>
