<svg width="1440" height="711" viewBox="0 0 1440 711" fill="none" xmlns="http://www.w3.org/2000/svg">
<g clip-path="url(#clip0_2736_123606)">
<path fill-rule="evenodd" clip-rule="evenodd" d="M-158.279 234.382C-148.799 233.225 -139.184 234.709 -130.494 238.671C-121.805 242.633 -114.378 248.917 -109.034 256.832C-102.24 254.518 -94.8248 254.835 -88.2531 257.722C-81.6815 260.608 -76.431 265.854 -73.5386 272.423C-67.3154 265.533 -58.9173 260.985 -49.7459 259.54C-40.5745 258.094 -31.1847 259.838 -23.1438 264.48C-15.1029 269.122 -8.89741 276.381 -5.56298 285.047C-2.22855 293.712 -1.96692 303.259 -4.82185 312.093C-3.13598 311.88 -1.43504 311.812 0.262522 311.888C5.98377 312.134 11.5101 314.038 16.1688 317.369C21.1127 312.83 27.1863 309.704 33.7532 308.32C40.3201 306.935 47.1385 307.342 53.4941 309.498C59.8497 311.654 65.5085 315.48 69.8774 320.574C74.2463 325.669 77.1646 331.845 78.3264 338.455C86.6703 336.281 95.5086 337.049 103.352 340.631C111.195 344.212 117.565 350.388 121.386 358.117C125.15 356.286 129.335 355.494 133.508 355.824C137.681 356.154 141.689 357.594 145.119 359.993C148.548 362.393 151.274 365.666 153.013 369.474C154.752 373.281 155.442 377.484 155.011 381.648C154.58 385.811 153.043 389.784 150.561 393.154C148.078 396.524 144.74 399.169 140.891 400.815C137.043 402.461 132.824 403.049 128.672 402.516C124.52 401.984 120.586 400.351 117.278 397.788C112.823 403.492 106.81 407.782 99.9666 410.138C93.1232 412.494 85.7435 412.815 78.7215 411.062C71.6995 409.308 65.3366 405.556 60.404 400.26C55.4714 394.963 52.1808 388.35 50.9307 381.221C43.8826 383.059 36.4517 382.804 29.5461 380.488C22.6405 378.171 16.5593 373.893 12.0455 368.176C5.23634 371.524 -2.59624 372.138 -9.84399 369.892C-17.0917 367.647 -23.2046 362.711 -26.9277 356.1L-49.7459 351.853L-158.286 358.117L-158.279 234.382Z" fill="url(#paint0_linear_2736_123606)"/>
<path fill-rule="evenodd" clip-rule="evenodd" d="M114.101 382.996C111.325 383.282 108.667 384.266 106.373 385.855C104.08 387.444 102.226 389.588 100.983 392.087C99.1201 390.448 96.7861 389.442 94.3159 389.213C91.8457 388.984 89.3665 389.543 87.2338 390.81V390.59C86.9471 387.829 86.1194 385.152 84.7979 382.712C83.4764 380.271 81.687 378.115 79.532 376.366C77.377 374.617 74.8986 373.31 72.2382 372.519C69.5779 371.728 66.7879 371.469 64.0274 371.756C63.1061 371.854 62.192 372.011 61.2908 372.226C61.2908 371.913 61.2639 371.597 61.2101 371.279C60.5411 364.855 57.8161 358.819 53.4406 354.067C49.065 349.316 43.2727 346.105 36.9252 344.91C30.5776 343.716 24.014 344.602 18.2108 347.438C12.4076 350.273 7.67483 354.907 4.71647 360.648C2.24251 358.012 -0.807966 355.984 -4.19619 354.722C-7.58441 353.461 -11.2185 353.001 -14.8142 353.378C-15.2055 353.417 -15.5944 353.466 -15.9808 353.524C-16.0199 352.844 -16.0737 352.16 -16.1422 351.47C-17.0538 342.601 -20.6647 334.224 -26.4876 327.472C-32.3105 320.72 -40.065 315.917 -48.7041 313.712C-57.3432 311.506 -66.4509 312.005 -74.7978 315.14C-83.1446 318.275 -90.3286 323.895 -95.38 331.242C-101.466 326.398 -108.865 323.49 -116.621 322.895C-124.377 322.3 -132.133 324.045 -138.887 327.904C-143.551 319.619 -150.218 312.637 -158.279 307.596V403.708C-153.042 400.43 -148.375 396.319 -144.463 391.536C-136.623 398.062 -126.532 401.245 -116.366 400.399C-106.201 399.554 -96.7745 394.748 -90.1194 387.017C-82.4732 394.562 -72.3092 399.017 -61.579 399.526C-50.8488 400.035 -40.3087 396.563 -31.9824 389.776C-29.906 392.9 -27.1111 395.481 -23.8318 397.303C-20.5525 399.126 -16.8844 400.135 -13.1346 400.248C-9.38486 400.361 -5.66262 399.573 -2.27976 397.952C1.1031 396.33 4.04805 393.921 6.3085 390.927C10.5326 397.324 17.0438 401.863 24.5072 403.614C31.9706 405.364 39.8207 404.193 46.4484 400.341C47.7755 403.817 49.9975 406.882 52.8893 409.225C55.7812 411.567 59.2404 413.104 62.9171 413.68C66.5938 414.257 70.3574 413.852 73.8273 412.506C77.2972 411.161 80.3503 408.923 82.6776 406.019C83.5222 407.754 84.7813 409.254 86.3436 410.386C87.9058 411.518 89.7231 412.248 91.6345 412.511C93.546 412.773 95.4927 412.561 97.3024 411.892C99.1121 411.223 100.729 410.118 102.01 408.675C103.64 411.116 105.888 413.079 108.525 414.366C111.162 415.652 114.094 416.215 117.02 415.997C119.946 415.778 122.762 414.787 125.179 413.124C127.596 411.46 129.528 409.185 130.778 406.53C132.027 403.875 132.549 400.936 132.29 398.013C132.031 395.09 131 392.289 129.303 389.895C127.606 387.501 125.303 385.601 122.631 384.389C119.959 383.177 117.013 382.696 114.094 382.996H114.101Z" fill="white"/>
<path fill-rule="evenodd" clip-rule="evenodd" d="M114.876 383.858C112.085 384.145 109.412 385.134 107.106 386.732C104.8 388.33 102.935 390.486 101.686 392.998C99.8126 391.351 97.4657 390.339 94.982 390.109C92.4982 389.878 90.0053 390.44 87.8609 391.714V391.493C87.5727 388.717 86.7404 386.026 85.4117 383.572C84.0829 381.118 82.2837 378.949 80.1168 377.191C77.95 375.432 75.458 374.118 72.783 373.323C70.1081 372.527 67.3027 372.267 64.5271 372.556C63.6007 372.654 62.6816 372.812 61.7754 373.028C61.7754 372.713 61.7484 372.396 61.6943 372.076C61.0216 365.617 58.2817 359.547 53.8821 354.77C49.4825 349.993 43.6584 346.764 37.276 345.562C30.8936 344.361 24.2939 345.253 18.4588 348.104C12.6237 350.955 7.86494 355.614 4.89034 361.387C2.40279 358.736 -0.664447 356.697 -4.07128 355.428C-7.47811 354.16 -11.1321 353.697 -14.7476 354.076C-15.141 354.116 -15.5321 354.165 -15.9206 354.224C-15.96 353.54 -16.014 352.852 -16.0829 352.158C-16.9995 343.24 -20.6303 334.818 -26.4852 328.029C-32.3401 321.24 -40.1372 316.41 -48.8237 314.193C-57.5102 311.975 -66.668 312.476 -75.0607 315.628C-83.4534 318.781 -90.6768 324.432 -95.7559 331.819C-101.876 326.949 -109.315 324.025 -117.114 323.427C-124.913 322.828 -132.711 324.583 -139.502 328.463C-144.191 320.133 -150.895 313.112 -159 308.043V404.683C-153.734 401.387 -149.042 397.253 -145.109 392.445C-137.225 399.006 -127.079 402.206 -116.858 401.356C-106.636 400.506 -97.1581 395.674 -90.4665 387.9C-82.7783 395.487 -72.5585 399.967 -61.7693 400.478C-50.9802 400.99 -40.3822 397.499 -32.0101 390.674C-29.9223 393.816 -27.112 396.411 -23.8147 398.244C-20.5175 400.076 -16.8292 401.091 -13.0588 401.204C-9.28845 401.318 -5.54577 400.526 -2.14433 398.895C1.25712 397.265 4.21824 394.843 6.49112 391.832C10.7384 398.265 17.2854 402.828 24.7898 404.588C32.2941 406.348 40.1874 405.171 46.8515 401.297C48.1859 404.793 50.4201 407.875 53.3278 410.23C56.2356 412.585 59.7138 414.131 63.4107 414.71C67.1075 415.29 70.8919 414.883 74.3808 413.53C77.8698 412.177 80.9396 409.927 83.2798 407.007C84.1289 408.752 85.395 410.26 86.9658 411.398C88.5367 412.536 90.3639 413.27 92.2859 413.534C94.2078 413.798 96.1652 413.585 97.9849 412.912C99.8045 412.239 101.43 411.128 102.718 409.678C104.357 412.131 106.617 414.106 109.269 415.399C111.921 416.693 114.869 417.259 117.811 417.039C120.753 416.82 123.584 415.823 126.015 414.151C128.445 412.478 130.388 410.19 131.644 407.521C132.9 404.851 133.425 401.896 133.164 398.957C132.904 396.018 131.867 393.201 130.161 390.794C128.455 388.387 126.14 386.477 123.453 385.258C120.766 384.039 117.804 383.556 114.869 383.858H114.876Z" fill="white"/>
</g>
<defs>
<linearGradient id="paint0_linear_2736_123606" x1="-35.0056" y1="400.275" x2="2.4269" y2="297.963" gradientUnits="userSpaceOnUse">
<stop stop-color="#DAEBFF"/>
<stop offset="1" stop-color="white"/>
</linearGradient>
<clipPath id="clip0_2736_123606">
<rect width="1440" height="711" fill="white"/>
</clipPath>
</defs>
</svg>
