<svg width="1440" height="711" viewBox="0 0 1440 711" fill="none" xmlns="http://www.w3.org/2000/svg">
<g clip-path="url(#clip0_2736_123606)">
<path fill-rule="evenodd" clip-rule="evenodd" d="M1503.41 328.382C1493.93 327.225 1484.32 328.709 1475.63 332.671C1466.94 336.633 1459.51 342.917 1454.17 350.832C1447.38 348.518 1439.96 348.835 1433.39 351.722C1426.82 354.608 1421.57 359.854 1418.67 366.423C1412.45 359.533 1404.05 354.985 1394.88 353.54C1385.71 352.094 1376.32 353.838 1368.28 358.48C1360.24 363.122 1354.03 370.381 1350.7 379.047C1347.36 387.712 1347.1 397.259 1349.96 406.093C1348.27 405.88 1346.57 405.812 1344.87 405.888C1339.15 406.134 1333.63 408.038 1328.97 411.369C1324.02 406.83 1317.95 403.704 1311.38 402.32C1304.82 400.935 1298 401.342 1291.64 403.498C1285.29 405.654 1279.63 409.48 1275.26 414.574C1270.89 419.669 1267.97 425.845 1266.81 432.455C1258.47 430.281 1249.63 431.049 1241.78 434.631C1233.94 438.212 1227.57 444.388 1223.75 452.117C1219.99 450.286 1215.8 449.494 1211.63 449.824C1207.45 450.154 1203.45 451.594 1200.02 453.993C1196.59 456.393 1193.86 459.666 1192.12 463.474C1190.38 467.281 1189.69 471.484 1190.12 475.648C1190.56 479.811 1192.09 483.784 1194.58 487.154C1197.06 490.524 1200.4 493.169 1204.24 494.815C1208.09 496.461 1212.31 497.049 1216.46 496.516C1220.62 495.984 1224.55 494.351 1227.86 491.788C1232.31 497.492 1238.33 501.782 1245.17 504.138C1252.01 506.494 1259.39 506.815 1266.41 505.062C1273.44 503.308 1279.8 499.556 1284.73 494.26C1289.66 488.963 1292.95 482.35 1294.21 475.221C1301.25 477.059 1308.68 476.804 1315.59 474.488C1322.5 472.171 1328.58 467.893 1333.09 462.176C1339.9 465.524 1347.73 466.138 1354.98 463.892C1362.23 461.647 1368.34 456.711 1372.06 450.1L1394.88 445.853L1503.42 452.117L1503.41 328.382Z" fill="url(#paint0_linear_2736_123606)"/>
<path fill-rule="evenodd" clip-rule="evenodd" d="M1231.03 476.996C1233.81 477.282 1236.47 478.266 1238.76 479.855C1241.06 481.444 1242.91 483.588 1244.15 486.087C1246.02 484.448 1248.35 483.442 1250.82 483.213C1253.29 482.984 1255.77 483.543 1257.9 484.81V484.59C1258.19 481.829 1259.02 479.152 1260.34 476.712C1261.66 474.271 1263.45 472.115 1265.6 470.366C1267.76 468.617 1270.24 467.31 1272.9 466.519C1275.56 465.728 1278.35 465.469 1281.11 465.756C1282.03 465.854 1282.94 466.011 1283.84 466.226C1283.84 465.913 1283.87 465.597 1283.93 465.279C1284.59 458.855 1287.32 452.819 1291.7 448.067C1296.07 443.316 1301.86 440.105 1308.21 438.91C1314.56 437.716 1321.12 438.602 1326.92 441.438C1332.73 444.273 1337.46 448.907 1340.42 454.648C1342.89 452.012 1345.94 449.984 1349.33 448.722C1352.72 447.461 1356.35 447.001 1359.95 447.378C1360.34 447.417 1360.73 447.466 1361.12 447.524C1361.16 446.844 1361.21 446.16 1361.28 445.47C1362.19 436.601 1365.8 428.224 1371.62 421.472C1377.45 414.72 1385.2 409.917 1393.84 407.712C1402.48 405.506 1411.59 406.005 1419.93 409.14C1428.28 412.275 1435.46 417.895 1440.52 425.242C1446.6 420.398 1454 417.49 1461.76 416.895C1469.51 416.3 1477.27 418.045 1484.02 421.904C1488.69 413.619 1495.35 406.637 1503.41 401.596V497.708C1498.18 494.43 1493.51 490.319 1489.6 485.536C1481.76 492.062 1471.67 495.245 1461.5 494.399C1451.34 493.554 1441.91 488.748 1435.26 481.017C1427.61 488.562 1417.44 493.017 1406.71 493.526C1395.98 494.035 1385.44 490.563 1377.12 483.776C1375.04 486.9 1372.25 489.481 1368.97 491.303C1365.69 493.126 1362.02 494.135 1358.27 494.248C1354.52 494.361 1350.8 493.573 1347.42 491.952C1344.03 490.33 1341.09 487.921 1338.83 484.927C1334.6 491.324 1328.09 495.863 1320.63 497.614C1313.17 499.364 1305.32 498.193 1298.69 494.341C1297.36 497.817 1295.14 500.882 1292.25 503.225C1289.35 505.567 1285.9 507.104 1282.22 507.68C1278.54 508.257 1274.78 507.852 1271.31 506.506C1267.84 505.161 1264.79 502.923 1262.46 500.019C1261.61 501.754 1260.35 503.254 1258.79 504.386C1257.23 505.518 1255.41 506.248 1253.5 506.511C1251.59 506.773 1249.64 506.561 1247.83 505.892C1246.02 505.223 1244.41 504.118 1243.13 502.675C1241.5 505.116 1239.25 507.079 1236.61 508.366C1233.97 509.652 1231.04 510.215 1228.12 509.997C1225.19 509.778 1222.37 508.787 1219.96 507.124C1217.54 505.46 1215.61 503.185 1214.36 500.53C1213.11 497.875 1212.59 494.936 1212.85 492.013C1213.11 489.09 1214.14 486.289 1215.83 483.895C1217.53 481.501 1219.83 479.601 1222.5 478.389C1225.18 477.177 1228.12 476.696 1231.04 476.996H1231.03Z" fill="white"/>
<path fill-rule="evenodd" clip-rule="evenodd" d="M1230.26 477.815C1233.05 478.102 1235.72 479.091 1238.03 480.689C1240.34 482.287 1242.2 484.443 1243.45 486.955C1245.32 485.308 1247.67 484.296 1250.15 484.066C1252.64 483.835 1255.13 484.397 1257.27 485.671V485.45C1257.56 482.674 1258.4 479.983 1259.72 477.529C1261.05 475.075 1262.85 472.906 1265.02 471.148C1267.19 469.389 1269.68 468.075 1272.35 467.28C1275.03 466.484 1277.83 466.224 1280.61 466.513C1281.54 466.611 1282.45 466.769 1283.36 466.985C1283.36 466.67 1283.39 466.353 1283.44 466.034C1284.11 459.574 1286.85 453.504 1291.25 448.727C1295.65 443.95 1301.48 440.721 1307.86 439.52C1314.24 438.318 1320.84 439.21 1326.68 442.061C1332.51 444.912 1337.27 449.571 1340.25 455.344C1342.73 452.693 1345.8 450.654 1349.21 449.386C1352.61 448.117 1356.27 447.654 1359.88 448.033C1360.28 448.073 1360.67 448.122 1361.06 448.181C1361.1 447.497 1361.15 446.809 1361.22 446.115C1362.14 437.197 1365.77 428.775 1371.62 421.986C1377.48 415.197 1385.27 410.367 1393.96 408.15C1402.65 405.932 1411.8 406.433 1420.2 409.586C1428.59 412.738 1435.81 418.389 1440.89 425.776C1447.01 420.906 1454.45 417.982 1462.25 417.384C1470.05 416.785 1477.85 418.54 1484.64 422.42C1489.33 414.09 1496.03 407.069 1504.14 402V498.64C1498.87 495.344 1494.18 491.21 1490.24 486.402C1482.36 492.963 1472.21 496.163 1461.99 495.313C1451.77 494.463 1442.29 489.631 1435.6 481.857C1427.91 489.444 1417.69 493.924 1406.91 494.436C1396.12 494.947 1385.52 491.456 1377.15 484.631C1375.06 487.773 1372.25 490.368 1368.95 492.201C1365.65 494.033 1361.96 495.048 1358.19 495.161C1354.42 495.275 1350.68 494.483 1347.28 492.852C1343.88 491.222 1340.92 488.8 1338.64 485.79C1334.4 492.222 1327.85 496.785 1320.35 498.545C1312.84 500.305 1304.95 499.128 1298.28 495.254C1296.95 498.75 1294.72 501.832 1291.81 504.187C1288.9 506.542 1285.42 508.088 1281.73 508.668C1278.03 509.247 1274.24 508.84 1270.75 507.487C1267.27 506.134 1264.2 503.884 1261.86 500.964C1261.01 502.709 1259.74 504.217 1258.17 505.355C1256.6 506.494 1254.77 507.227 1252.85 507.491C1250.93 507.755 1248.97 507.542 1247.15 506.869C1245.33 506.196 1243.71 505.085 1242.42 503.635C1240.78 506.088 1238.52 508.063 1235.87 509.356C1233.21 510.65 1230.27 511.216 1227.33 510.996C1224.38 510.777 1221.55 509.78 1219.12 508.108C1216.69 506.435 1214.75 504.147 1213.49 501.478C1212.24 498.808 1211.71 495.853 1211.97 492.914C1212.23 489.975 1213.27 487.158 1214.97 484.751C1216.68 482.344 1219 480.434 1221.68 479.215C1224.37 477.996 1227.33 477.513 1230.27 477.815H1230.26Z" fill="white"/>
</g>
<defs>
<linearGradient id="paint0_linear_2736_123606" x1="1380.14" y1="494.275" x2="1342.71" y2="391.963" gradientUnits="userSpaceOnUse">
<stop stop-color="#DAEBFF"/>
<stop offset="1" stop-color="white"/>
</linearGradient>
<clipPath id="clip0_2736_123606">
<rect width="1440" height="711" fill="white"/>
</clipPath>
</defs>
</svg>
