<svg width="80" height="80" viewBox="0 0 80 80" fill="none" xmlns="http://www.w3.org/2000/svg">
<path opacity="0.2" d="M40 80C62.0914 80 80 62.0914 80 40C80 17.9086 62.0914 0 40 0C17.9086 0 0 17.9086 0 40C0 62.0914 17.9086 80 40 80Z" fill="#61C1B8"/>
<path opacity="0.15" d="M40.0581 73.4011C58.4729 73.4011 73.4011 58.4729 73.4011 40.0581C73.4011 21.6433 58.4729 6.71509 40.0581 6.71509C21.6433 6.71509 6.71509 21.6433 6.71509 40.0581C6.71509 58.4729 21.6433 73.4011 40.0581 73.4011Z" fill="#61C1B8"/>
<path opacity="0.3" d="M40.1422 66.2493C54.5608 66.2493 66.2493 54.5608 66.2493 40.1422C66.2493 25.7237 54.5608 14.0352 40.1422 14.0352C25.7237 14.0352 14.0352 25.7237 14.0352 40.1422C14.0352 54.5608 25.7237 66.2493 40.1422 66.2493Z" fill="white"/>
<path d="M38.7225 16.2665C33.8477 26.0498 33.3112 27.4023 33.3112 27.4023L32.0171 27.0735C31.7741 27.0058 31.5133 27.0529 31.31 27.2006C31.1067 27.3483 30.9837 27.5805 30.9765 27.8298C30.9217 29.7243 30.9998 30.0132 30.2602 32.6395C29.9837 33.6213 29.6979 34.6364 29.5969 35.8018C28.9643 35.5312 28.0116 34.7527 25.4535 33.8721C23.2821 33.1247 19.2514 33.0212 17.6192 33.0114C17.276 33.01 16.9334 33.054 16.6023 33.1439C16.0279 33.2999 15.8091 33.9919 16.1905 34.4435C16.4467 34.7469 17.1888 35.7017 17.5409 36.4649C18.9858 39.5968 19.2095 40.9657 19.4259 42.2897C19.7458 44.2468 19.9142 44.4736 20.1768 45.4173C20.1768 45.4173 18.9801 46.1929 18.5819 46.4643C18.4118 46.5802 18.0509 46.8801 18.0417 47.3538C18.0324 47.8274 18.3913 48.0832 18.545 48.1917C19.3626 48.7682 21.8242 50.4852 21.8242 50.4852L20.9547 52.6279C20.7661 53.0926 21.024 53.6264 21.5398 53.7646C22.6491 54.062 25.9651 54.9972 25.9651 54.9972C25.567 55.8884 25.6194 55.7829 25.4082 56.1945C25.1306 56.7355 25.5243 57.4747 26.4 57.3847L39.5628 55.1751L38.8961 55.287L43.4491 35.704L39.6433 15.8356C39.2723 15.7503 38.8908 15.9288 38.7225 16.2665Z" fill="#E39510"/>
<path d="M62.6848 33.144C62.3537 33.054 62.0111 33.01 61.6679 33.0116C60.0357 33.0214 56.005 33.1248 53.8337 33.8722C51.2754 34.7528 50.3227 35.5314 49.6902 35.8019C49.5893 34.6365 49.3035 33.6214 49.0269 32.6396C48.2873 30.0134 48.3654 29.7244 48.3107 27.8299C48.3035 27.5807 48.1805 27.3485 47.9771 27.2008C47.7738 27.053 47.513 27.006 47.27 27.0735L45.9758 27.4023C45.9758 27.4023 45.4393 26.0497 40.5647 16.2665C40.3964 15.9288 40.0148 15.7503 39.6439 15.8356V38.9825C38.8171 35.024 37.4077 32.0406 36.1552 30C35.9509 29.667 35.5121 29.5608 35.1751 29.7629C34.838 29.9649 34.7308 30.3987 34.9352 30.7317C36.7578 33.7012 38.9304 38.7799 38.9304 46.1114V47.3895C37.2021 42.7481 34.2723 39.2502 32.2545 37.232C31.9774 36.9548 31.5256 36.9522 31.2453 37.2261C30.965 37.4999 30.9624 37.9465 31.2393 38.2235C33.7556 40.7402 37.7655 45.6728 38.721 52.2658C34.9035 46.3905 30.2446 42.0372 26.8154 39.3048C22.5772 35.9279 19.3328 34.268 19.1968 34.199C18.8462 34.021 18.4164 34.1577 18.2364 34.5043C18.0564 34.8507 18.1945 35.2758 18.5449 35.4538C18.5772 35.4703 21.8204 37.1322 25.9502 40.4274C29.3653 43.1523 34.0337 47.5286 37.7879 53.4444L28.106 54.9524C28.0997 54.6605 28.0322 54.3695 27.9039 54.0989C27.641 53.5449 27.1485 53.1305 26.5531 52.9626C26.4567 52.9354 24.8176 52.4733 23.4758 52.1005L23.8115 51.2731C24.1808 50.3632 23.8693 49.3219 23.0589 48.7566C23.0416 48.7445 21.8215 47.8934 20.8219 47.194C20.3201 46.8428 19.7682 46.5673 19.1845 46.3762C18.9817 46.3118 18.7599 46.3436 18.5845 46.463C18.5837 46.4635 18.5831 46.4639 18.5823 46.4645C18.4121 46.5804 18.0513 46.8803 18.042 47.354C18.0328 47.8275 18.3916 48.0834 18.5454 48.1918C19.363 48.7683 21.8246 50.4853 21.8246 50.4853L20.955 52.6281C20.7665 53.0927 21.0244 53.6265 21.5402 53.7648C22.6496 54.0621 25.9656 54.9973 25.9656 54.9973C25.5675 55.8885 25.6199 55.783 25.4086 56.1946C25.1311 56.7357 25.5248 57.4749 26.4005 57.3848L38.8965 55.2871C38.9076 55.3066 38.9192 55.3257 38.9302 55.3453V62.5527C38.9302 62.9423 39.2497 63.2579 39.6439 63.2579C40.038 63.2579 40.3575 62.9422 40.3575 62.5527V55.2814L52.8873 57.3848C53.763 57.4749 54.1567 56.7356 53.8791 56.1946C53.6679 55.783 53.7202 55.8885 53.3222 54.9973C53.3222 54.9973 56.6382 54.0621 57.7476 53.7648C58.2635 53.6265 58.5213 53.0928 58.3327 52.6281L57.4632 50.4853C57.4632 50.4853 59.9249 48.7684 60.7424 48.1918C60.8962 48.0834 61.255 47.8274 61.2458 47.354C61.2365 46.8803 60.8755 46.5805 60.7055 46.4645C60.3072 46.1931 59.1106 45.4176 59.1106 45.4176C59.3732 44.4738 59.5417 44.2472 59.8615 42.29C60.0779 40.9661 60.3016 39.5971 61.7465 36.4652C62.0985 35.702 62.8406 34.7472 63.0969 34.4438C63.4779 33.992 63.2592 33.3 62.6848 33.144Z" fill="#D68005"/>
<path d="M35.099 52.1524C32.196 50.966 29.1417 50.1871 26.0208 49.8375C25.6294 49.7939 25.2758 50.0718 25.2314 50.4588C25.187 50.8459 25.4685 51.1951 25.86 51.239C28.8488 51.5739 31.7738 52.3197 34.5536 53.4558C34.6428 53.4923 34.7352 53.5095 34.8261 53.5095C35.1063 53.5095 35.3721 53.3454 35.4858 53.0735C35.6364 52.7138 35.4632 52.3013 35.099 52.1524Z" fill="#D68005"/>
<path d="M42.3325 45.4279C42.2214 45.4279 42.1085 45.4021 42.0031 45.3476C41.6537 45.1674 41.5182 44.7413 41.7007 44.3961C43.3945 41.1881 45.535 38.7292 47.0326 37.2315C47.3094 36.9546 47.7613 36.9517 48.0417 37.2256C48.322 37.4994 48.3247 37.946 48.0477 38.223C46.6191 39.652 44.5778 41.996 42.9659 45.0486C42.8384 45.29 42.59 45.4279 42.3325 45.4279Z" fill="#E39510"/>
<path d="M41.194 36.6376C41.1212 36.6376 41.0471 36.6265 40.9741 36.6032C40.5991 36.4833 40.3935 36.0856 40.5148 35.7151C41.1908 33.6504 42.0711 31.7277 43.1313 30.0003C43.3357 29.6672 43.7746 29.5609 44.1115 29.7632C44.4485 29.9652 44.5558 30.399 44.3514 30.732C43.3484 32.366 42.5145 34.1887 41.8726 36.1494C41.775 36.4476 41.4952 36.6376 41.194 36.6376Z" fill="#E39510"/>
<path d="M44.4598 53.509C44.1796 53.509 43.9139 53.3449 43.8001 53.073C43.6494 52.713 43.8227 52.3006 44.1867 52.1516C47.7319 50.7027 51.4721 49.8677 55.3037 49.67C55.6964 49.6516 56.033 49.9486 56.0534 50.3377C56.0739 50.7268 55.7716 51.0586 55.3779 51.0789C51.7088 51.2681 48.1269 52.0676 44.7321 53.4553C44.643 53.4917 44.5507 53.509 44.4598 53.509Z" fill="#E39510"/>
<path d="M61.0509 34.5037C60.8709 34.1572 60.4408 34.0205 60.0902 34.1983C59.9542 34.2673 56.7097 35.9272 52.4716 39.3042C49.1091 41.9834 44.5648 46.2218 40.7902 51.9246C40.6046 52.205 40.6415 52.5755 40.8811 52.8124C41.2018 53.1293 41.7352 53.0731 41.9835 52.698C45.6487 47.1594 50.0669 43.0357 53.3366 40.4268C57.4665 37.1316 60.7097 35.4696 60.7419 35.4532C61.0925 35.2752 61.2308 34.8503 61.0509 34.5037Z" fill="#E39510"/>
</svg>
