<svg width="80" height="80" viewBox="0 0 80 80" fill="none" xmlns="http://www.w3.org/2000/svg">
<path opacity="0.2" d="M40 80C62.0914 80 80 62.0914 80 40C80 17.9086 62.0914 0 40 0C17.9086 0 0 17.9086 0 40C0 62.0914 17.9086 80 40 80Z" fill="#61C1B8"/>
<path opacity="0.15" d="M40.0581 73.4011C58.4729 73.4011 73.4011 58.4729 73.4011 40.0581C73.4011 21.6433 58.4729 6.71509 40.0581 6.71509C21.6433 6.71509 6.71509 21.6433 6.71509 40.0581C6.71509 58.4729 21.6433 73.4011 40.0581 73.4011Z" fill="#61C1B8"/>
<path opacity="0.3" d="M40.1422 66.2493C54.5608 66.2493 66.2493 54.5608 66.2493 40.1422C66.2493 25.7237 54.5608 14.0352 40.1422 14.0352C25.7237 14.0352 14.0352 25.7237 14.0352 40.1422C14.0352 54.5608 25.7237 66.2493 40.1422 66.2493Z" fill="white"/>
<path d="M45.869 46.5189L35.7079 47.6349L38.5304 50.4247L34.5789 54.3304L38.5304 53.7724L35.7079 59.91L41.9175 57.1202L43.611 59.91L45.869 55.4464L48.1271 61.026L50.3851 57.6782L53.7722 63.2579L54.9012 58.7941L62.2398 61.5839L59.4173 54.3304L63.9333 53.2145L58.2883 49.8667L61.6753 47.6349L56.0303 45.403L60.5463 43.1711L57.7237 41.4972L59.9818 35.9176L54.3367 38.1494V34.8017L51.1599 38.1494L48.7649 34.0126L46.9981 45.403L45.869 46.5189Z" fill="#FFC25C"/>
<path d="M51.0275 49.3824L55.5212 48.9787L55.3766 47.407L49.5633 47.9293L43.7254 42.1356L42.5941 43.2494L48.4126 49.0237L47.8797 54.817L49.4697 54.9599L49.8816 50.4816L54.8832 55.4452L56.0145 54.3316L51.0275 49.3824Z" fill="#FFA754"/>
<path d="M34.0643 27.5317L44.2254 28.6477L41.4029 31.4375L46.3368 35.5908L41.4029 34.7852L42.6523 38.7471L38.0158 38.1331L36.3223 40.9229L34.0643 36.4592L31.8062 42.0389L29.5482 38.691L26.1611 44.2707L25.0321 39.8069L17.6935 42.5967L20.516 35.3432L16 34.2274L21.645 30.8796L18.258 28.6477L23.903 26.4159L19.387 24.1839L22.2096 22.5101L19.9515 16.9304L25.5966 19.1623V15.8145L28.9837 19.1623L31.8062 16.3724L32.9352 26.4159L34.0643 27.5317Z" fill="#FFA754"/>
<path d="M37.8027 21.6212L40.8518 18.6075L41.9806 19.7233L38.9316 22.737L37.8027 21.6212Z" fill="#FFC25C"/>
<path d="M37.3376 24.3125L36.2085 23.1965L30.3934 28.9442L24.5562 28.4198L24.4116 29.9914L28.9237 30.3969L23.9193 35.3431L25.0485 36.4591L30.0528 31.5128L30.4631 35.9725L32.0531 35.8297L31.5224 30.0603L37.3376 24.3125Z" fill="#FFC25C"/>
<path d="M26.024 52.2123L29.1173 49.9431L30.0689 51.2103L26.9757 53.4795L26.024 52.2123Z" fill="#FFC25C"/>
<path d="M24.997 56.3128C26.868 55.2451 27.8487 53.4617 27.1873 52.3295C26.5259 51.1973 24.473 51.145 22.6019 52.2128C20.7309 53.2805 19.7503 55.0639 20.4116 56.1961C21.073 57.3284 23.1259 57.3806 24.997 56.3128Z" fill="#FFD999"/>
<path d="M47.4348 19.6355L48.4663 18.4314L51.0596 20.6015L50.0281 21.8057L47.4348 19.6355Z" fill="#FFC25C"/>
<path d="M55.2872 25.9134C56.2223 24.989 55.7421 23.0158 54.2146 21.506C52.6871 19.9962 50.6907 19.5215 49.7555 20.4459C48.8204 21.3702 49.3006 23.3434 50.8281 24.8533C52.3556 26.3631 54.352 26.8377 55.2872 25.9134Z" fill="#FFD999"/>
</svg>
