<svg width="80" height="80" viewBox="0 0 80 80" fill="none" xmlns="http://www.w3.org/2000/svg">
<path opacity="0.2" d="M40 80C62.0914 80 80 62.0914 80 40C80 17.9086 62.0914 0 40 0C17.9086 0 0 17.9086 0 40C0 62.0914 17.9086 80 40 80Z" fill="#61C1B8"/>
<path opacity="0.15" d="M40.0581 73.4011C58.4729 73.4011 73.4011 58.4729 73.4011 40.0581C73.4011 21.6433 58.4729 6.71509 40.0581 6.71509C21.6433 6.71509 6.71509 21.6433 6.71509 40.0581C6.71509 58.4729 21.6433 73.4011 40.0581 73.4011Z" fill="#61C1B8"/>
<path opacity="0.3" d="M40.1422 66.2493C54.5608 66.2493 66.2493 54.5608 66.2493 40.1422C66.2493 25.7237 54.5608 14.0352 40.1422 14.0352C25.7237 14.0352 14.0352 25.7237 14.0352 40.1422C14.0352 54.5608 25.7237 66.2493 40.1422 66.2493Z" fill="white"/>
<path d="M32.8011 36.6185L30.7172 26.3203H33.9876L33.17 20.6633H36.4405L39.711 15.8145L42.9814 20.6633H46.2519L45.4343 26.3203H48.7048L46.6468 36.4899C46.5498 36.9693 46.6755 37.4669 46.9893 37.845C47.3031 38.2234 47.7718 38.4424 48.2664 38.4424C48.5535 38.442 48.8349 38.3678 49.0841 38.2273L56.0634 32.7854V35.2098H63.4219L59.3338 40.0587L60.1515 43.2912L56.0634 44.9075V48.1401L47.0695 52.9889H32.3524L23.3586 48.1401V44.9075L19.2705 43.2912L20.0881 40.0587L16 35.2098H23.3586V32.7854L30.284 38.0754C30.5639 38.3126 30.9208 38.4428 31.2896 38.4424C31.7516 38.442 32.1891 38.2372 32.4817 37.8836C32.7748 37.5305 32.8918 37.066 32.8011 36.6185Z" fill="#EF5822"/>
<path d="M34.8053 28.7447C34.8037 25.9703 35.3594 23.2235 36.4405 20.6633H33.17L33.9876 26.3203H30.7172L32.8011 36.6186C32.8918 37.066 32.7748 37.5305 32.4817 37.8837C32.1891 38.2372 31.7516 38.442 31.2896 38.4424C30.9212 38.4424 30.565 38.3122 30.2856 38.0754L23.3586 32.7854V35.2098H16L20.0881 40.0587L19.2705 43.2912L23.3586 44.9075V48.1401L32.3524 52.9889H47.0695L53.3841 49.5843C42.7667 48.251 34.8076 39.3235 34.8053 28.7447Z" fill="#CC1B24"/>
<path d="M36.2004 63.258L35.0442 62.1153C37.5166 59.6849 38.9023 56.3782 38.8927 52.9317V28.7448H40.528V52.9317C40.5388 56.8067 38.9802 60.5254 36.2004 63.258Z" fill="#A75B25"/>
<path d="M39.7104 49.7566C39.5647 49.7566 39.4214 49.7179 39.296 49.6449L25.3965 41.5635L26.2253 40.1705L39.7308 48.0223L53.2275 40.9609L53.9924 42.3894L40.0929 49.6627C39.9751 49.7242 39.8438 49.7562 39.7104 49.7566Z" fill="#A75B25"/>
</svg>
