<svg width="80" height="80" viewBox="0 0 80 80" fill="none" xmlns="http://www.w3.org/2000/svg">
<path opacity="0.2" d="M40 80C62.0914 80 80 62.0914 80 40C80 17.9086 62.0914 0 40 0C17.9086 0 0 17.9086 0 40C0 62.0914 17.9086 80 40 80Z" fill="#61C1B8"/>
<path opacity="0.15" d="M40.0581 73.4011C58.4729 73.4011 73.4011 58.4729 73.4011 40.0581C73.4011 21.6433 58.4729 6.71509 40.0581 6.71509C21.6433 6.71509 6.71509 21.6433 6.71509 40.0581C6.71509 58.4729 21.6433 73.4011 40.0581 73.4011Z" fill="#61C1B8"/>
<path opacity="0.3" d="M40.1422 66.2493C54.5608 66.2493 66.2493 54.5608 66.2493 40.1422C66.2493 25.7237 54.5608 14.0352 40.1422 14.0352C25.7237 14.0352 14.0352 25.7237 14.0352 40.1422C14.0352 54.5608 25.7237 66.2493 40.1422 66.2493Z" fill="white"/>
<path d="M58.1662 44.9472C62.7849 38.0677 63.9407 29.1366 63.9894 28.742C64.0351 28.3761 63.9315 28.0076 63.7019 27.7169C63.4723 27.4263 63.1354 27.2381 62.7651 27.1932C62.6875 27.1838 60.8337 26.963 58.0871 26.963C55.8199 26.963 52.527 27.1212 49.1597 27.831C46.1443 21.3554 41.214 16.4388 40.9942 16.2217C40.7309 15.961 40.3732 15.8145 40 15.8145C39.6268 15.8145 39.2694 15.961 39.0057 16.2217C38.786 16.4388 33.8553 21.3554 30.84 27.831C27.4726 27.1212 24.18 26.963 21.9125 26.963C19.1655 26.963 17.3125 27.1838 17.2348 27.1932C16.8646 27.2381 16.5277 27.4263 16.2981 27.7169C16.0685 28.0076 15.9648 28.3761 16.0106 28.742C16.0597 29.1366 17.2151 38.0677 21.8337 44.9472C18.3855 48.5462 16.2948 51.9588 16.201 52.113C16.0088 52.429 15.9516 52.8076 16.0417 53.1653C16.1322 53.5229 16.3622 53.8306 16.6819 54.0202C17.0613 54.2457 26.0723 59.5358 35.0539 59.5358C36.685 59.5358 38.2356 59.3578 39.6631 59.0059C39.7729 58.9788 39.8839 58.9491 40 58.9162C40.1161 58.9491 40.2274 58.9788 40.3373 59.0059C41.764 59.3574 43.3146 59.5358 44.946 59.5358H44.9471C53.9285 59.5358 62.9391 54.2457 63.3181 54.0202C63.6378 53.8306 63.8681 53.5229 63.9582 53.1653C64.0483 52.8073 63.9912 52.429 63.7989 52.113C63.7052 51.9588 61.6145 48.5462 58.1662 44.9472Z" fill="#FF641A"/>
<path d="M58.1663 44.9472C62.7849 38.0677 63.9407 29.1366 63.9894 28.742C64.0352 28.3761 63.9315 28.0076 63.7019 27.7169C63.4723 27.4263 63.1354 27.2381 62.7652 27.1932C62.6875 27.1838 60.8338 26.963 58.0872 26.963C55.82 26.963 52.527 27.1212 49.1597 27.831C46.1443 21.3554 41.214 16.4388 40.9943 16.2217C40.731 15.961 40.3732 15.8145 40 15.8145V58.9165C40.1161 58.9495 40.2274 58.9791 40.3373 59.0063C41.764 59.3578 43.3146 59.5358 44.946 59.5362H44.9471C53.9285 59.5362 62.9391 54.2457 63.3181 54.0206C63.6378 53.8306 63.8682 53.5232 63.9583 53.1653C64.0484 52.8076 63.9912 52.429 63.799 52.113C63.7052 51.9588 61.6145 48.5462 58.1663 44.9472Z" fill="#DD3400"/>
<path d="M47.8257 43.7109C47.2767 43.1683 46.3864 43.1683 45.8371 43.7109L41.406 48.0907V43.0891L46.3194 38.2326C46.8687 37.69 46.8687 36.8101 46.3194 36.2671C45.7705 35.7242 44.8799 35.7242 44.3309 36.2671L41.406 39.1581V32.0922C41.406 31.3245 40.7765 30.7023 39.9997 30.7023C39.223 30.7023 38.5935 31.3245 38.5935 32.0922V39.1581L35.6689 36.2671C35.1196 35.7245 34.2293 35.7245 33.68 36.2671C33.1311 36.8101 33.1311 37.69 33.68 38.233L38.5935 43.0894V48.0907L34.1623 43.7109C33.6134 43.1683 32.7227 43.1683 32.1734 43.7109C31.6245 44.2539 31.6245 45.1338 32.1734 45.6768L38.5935 52.022V61.8678C38.5935 62.6355 39.223 63.2578 39.9997 63.2578C40.7765 63.2578 41.406 62.6355 41.406 61.8678V52.022L47.8257 45.6768C48.375 45.1338 48.375 44.2539 47.8257 43.7109Z" fill="#B62900"/>
<path d="M47.8259 43.7109C47.277 43.1683 46.3867 43.1683 45.8374 43.7109L41.4062 48.0907V43.0891L46.3197 38.2326C46.869 37.69 46.869 36.8101 46.3197 36.2671C45.7708 35.7242 44.8801 35.7242 44.3312 36.2671L41.4062 39.1581V32.0922C41.4062 31.3245 40.7767 30.7023 40 30.7023V63.2578C40.7767 63.2578 41.4062 62.6355 41.4062 61.8678V52.022L47.8259 45.6768C48.3752 45.1338 48.3752 44.2539 47.8259 43.7109Z" fill="#552003"/>
</svg>
