<svg width="80" height="80" viewBox="0 0 80 80" fill="none" xmlns="http://www.w3.org/2000/svg">
<path opacity="0.2" d="M40 80C62.0914 80 80 62.0914 80 40C80 17.9086 62.0914 0 40 0C17.9086 0 0 17.9086 0 40C0 62.0914 17.9086 80 40 80Z" fill="#61C1B8"/>
<path opacity="0.15" d="M40.0581 73.4011C58.4729 73.4011 73.4011 58.4729 73.4011 40.0581C73.4011 21.6433 58.4729 6.71509 40.0581 6.71509C21.6433 6.71509 6.71509 21.6433 6.71509 40.0581C6.71509 58.4729 21.6433 73.4011 40.0581 73.4011Z" fill="#61C1B8"/>
<path opacity="0.3" d="M40.1422 66.2493C54.5608 66.2493 66.2493 54.5608 66.2493 40.1422C66.2493 25.7237 54.5608 14.0352 40.1422 14.0352C25.7237 14.0352 14.0352 25.7237 14.0352 40.1422C14.0352 54.5608 25.7237 66.2493 40.1422 66.2493Z" fill="white"/>
<path d="M60.5507 33.7334L63.4193 26.9286C63.6949 26.2747 63.0004 25.6339 62.3593 25.9507L55.5477 29.3171C55.1988 29.4895 54.7746 29.3782 54.5582 29.0574L53.9588 28.1686C53.6737 27.746 53.0587 27.7106 52.7259 28.0976L48.9375 32.5028C48.4133 33.1124 47.4137 32.6172 47.5942 31.8372L49.3395 24.2938C49.4388 23.8647 49.1519 23.4416 48.7126 23.3692L45.2339 22.7962C45.0104 22.7594 44.8144 22.6275 44.6979 22.4355L40.904 16.1856C40.6035 15.6907 39.8779 15.6907 39.5774 16.1856L35.7758 22.4482C35.6636 22.6329 35.4779 22.7623 35.2642 22.8045L32.463 23.3582C32.0551 23.4388 31.7847 23.8239 31.8511 24.2298L33.1507 32.181C33.2756 32.945 32.3048 33.3877 31.7978 32.7981L27.7555 28.0976C27.4226 27.7105 26.8076 27.746 26.5226 28.1686L25.9231 29.0574C25.7067 29.3782 25.2825 29.4895 24.9336 29.3171L18.122 25.9507C17.4809 25.6339 16.7864 26.2747 17.0621 26.9286L19.9306 33.7334C20.0512 34.0194 19.9852 34.349 19.7636 34.568L17.8653 36.4443C17.4727 36.8324 17.6094 37.4909 18.125 37.6947L20.2261 38.5254C20.6064 38.6757 20.8021 39.093 20.6726 39.4771L20.3373 40.4713C20.2176 40.8263 20.3755 41.2149 20.7103 41.3893L27.1001 44.7195C27.583 44.9711 27.6572 45.6247 27.2429 45.976L19.5985 52.458C19.1469 52.841 19.2836 53.5635 19.8446 53.7592L31.2965 57.7542C31.5649 57.8478 31.8636 57.7882 32.0742 57.599L39.7204 50.7286C40.0154 50.4635 40.466 50.4635 40.761 50.7286L48.4072 57.599C48.6177 57.7882 48.9165 57.8479 49.1849 57.7542L60.6368 53.7592C61.1979 53.5635 61.3346 52.8409 60.883 52.458L53.2383 45.976C52.8239 45.6247 52.8983 44.9711 53.3812 44.7195L59.7709 41.3893C60.1058 41.2148 60.2636 40.8263 60.1439 40.4713L59.8086 39.4771C59.6791 39.0931 59.8749 38.6758 60.2551 38.5254L62.3562 37.6947C62.8719 37.4908 63.0086 36.8324 62.6159 36.4443L60.7177 34.568C60.4962 34.349 60.4302 34.0194 60.5507 33.7334Z" fill="#E6646E"/>
<path d="M58.5591 30.9845C58.2471 30.6956 57.7576 30.7105 57.4653 31.0189L56.6918 31.8334C56.3995 32.1418 56.4153 32.6256 56.7265 32.9145C56.8761 33.0527 57.0665 33.1213 57.256 33.1213C57.4623 33.1213 57.6677 33.0407 57.8203 32.8802L58.5938 32.0657C58.8862 31.7572 58.8703 31.2735 58.5591 30.9845Z" fill="#DC4655"/>
<path d="M52.7185 51.1345L43.3264 49.8966C42.7023 49.8143 42.4338 49.0689 42.8649 48.6153L55.4997 35.3214C55.7927 35.0138 55.7769 34.53 55.4656 34.241C55.1536 33.9521 54.6649 33.9663 54.3726 34.2747L42.3506 46.9239C41.8708 47.4288 41.0133 47.0931 41.0133 46.4005V33.7404L50.0898 24.0216C50.3799 23.711 50.3602 23.2272 50.0468 22.9413C49.7333 22.6546 49.2431 22.674 48.9538 22.9838L41.0134 31.4861V25.7962C41.0134 25.3737 40.6675 25.0316 40.2399 25.0316C39.8123 25.0316 39.4664 25.3736 39.4664 25.7962V31.3544L32.3221 23.0092C32.0457 22.6866 31.5577 22.6463 31.2321 22.9188C30.9058 23.1921 30.865 23.6744 31.1407 23.9962L39.4663 33.7215V46.4005C39.4663 47.0931 38.6088 47.4288 38.129 46.9239L26.1071 34.2748C25.8155 33.9664 25.326 33.9522 25.014 34.2411C24.7028 34.5301 24.6869 35.0139 24.98 35.3215L37.6149 48.6153C38.0459 49.0689 37.7774 49.8143 37.1534 49.8966L27.7613 51.1345C27.3375 51.1905 27.0399 51.5751 27.0966 51.9932C27.1487 52.3776 27.4803 52.6569 27.8625 52.6569C27.8966 52.6569 27.9305 52.6547 27.9653 52.6501L38.5907 51.2496C39.0544 51.1885 39.4664 51.545 39.4664 52.0074V62.4934C39.4664 62.9159 39.8124 63.2579 40.24 63.2579C40.6676 63.2579 41.0135 62.916 41.0135 62.4934V52.0075C41.0135 51.5451 41.4255 51.1886 41.8892 51.2497L52.5147 52.6502C52.5494 52.6547 52.5834 52.657 52.6174 52.657C52.9996 52.657 53.3312 52.3778 53.3834 51.9932C53.4398 51.5751 53.1422 51.1906 52.7185 51.1345Z" fill="#DC4655"/>
<path d="M56.6207 51.6244L55.8178 51.5184C55.3895 51.4632 55.0049 51.7565 54.9483 52.1746C54.8917 52.5935 55.1893 52.978 55.6123 53.034L56.4152 53.14C56.45 53.1445 56.4847 53.1468 56.5187 53.1468C56.9009 53.1468 57.2325 52.8676 57.2847 52.4838C57.3414 52.0649 57.0437 51.6804 56.6207 51.6244Z" fill="#DC4655"/>
<path d="M23.7524 32.9146C24.0637 32.6256 24.0795 32.1418 23.7872 31.8335L23.0137 31.019C22.7214 30.7113 22.2327 30.6964 21.9199 30.9846C21.6087 31.2735 21.5928 31.7573 21.8851 32.0657L22.6587 32.8802C22.8113 33.0407 23.0167 33.1213 23.2229 33.1213C23.4125 33.1213 23.6028 33.0526 23.7524 32.9146Z" fill="#DC4655"/>
<path d="M24.6621 51.5187L23.8591 51.6247C23.4361 51.6806 23.1384 52.0652 23.1952 52.484C23.2473 52.8677 23.5789 53.147 23.9611 53.147C23.9951 53.147 24.0298 53.1448 24.0646 53.1403L24.8676 53.0343C25.2906 52.9783 25.5882 52.5937 25.5315 52.1749C25.4748 51.7568 25.0896 51.4633 24.6621 51.5187Z" fill="#DC4655"/>
<path d="M40.2401 23.5029C40.6676 23.5029 41.0136 23.161 41.0136 22.7384V21.9738C41.0136 21.5512 40.6677 21.2092 40.2401 21.2092C39.8125 21.2092 39.4666 21.5512 39.4666 21.9738V22.7384C39.4666 23.1609 39.8126 23.5029 40.2401 23.5029Z" fill="#DC4655"/>
<path d="M37.0275 38.0976L36.292 33.5083C36.2185 33.0499 36.0062 32.6244 35.6828 32.2878L32.6519 29.1329L33.1501 32.1813C33.275 32.9452 32.3043 33.3878 31.7972 32.7983L27.7549 28.0978L32.0991 37.1158C32.397 37.7343 32.959 38.1888 33.6314 38.3549L36.076 38.959C36.6138 39.0918 37.1142 38.6388 37.0275 38.0976Z" fill="#FF8282"/>
<path d="M21.9051 50.5012L32.7379 47.8582C33.2723 47.7279 33.5018 47.1031 33.1765 46.6643L31.7083 44.6828C31.4701 44.3613 31.1513 44.1067 30.7832 43.9441L20.6721 39.4767L20.3367 40.4708C20.2169 40.8258 20.3748 41.2144 20.7098 41.3889L27.0996 44.719C27.5825 44.9707 27.6567 45.6241 27.2424 45.9755L21.9051 50.5012Z" fill="#FF8282"/>
<path d="M58.5748 50.5012L47.742 47.8582C47.2076 47.7279 46.9781 47.1031 47.3033 46.6643L48.7716 44.6828C49.0098 44.3613 49.3286 44.1067 49.6967 43.9441L59.8078 39.4767L60.1431 40.4708C60.2629 40.8258 60.1051 41.2144 59.7701 41.3889L53.3803 44.719C52.8974 44.9707 52.8231 45.6241 53.2374 45.9755L58.5748 50.5012Z" fill="#FF8282"/>
<path d="M52.7254 28.0974L48.937 32.5026C48.4128 33.1123 47.4132 32.6171 47.5936 31.837L48.3273 28.6666L44.7975 32.2875C44.4741 32.624 44.2617 33.0496 44.1883 33.5079L43.4527 38.0973C43.3659 38.6384 43.8664 39.0915 44.4043 38.9586L46.8488 38.3545C47.5213 38.1884 48.0832 37.7338 48.3812 37.1154L52.7571 28.0745C52.7477 28.0845 52.7345 28.087 52.7254 28.0974Z" fill="#FF8282"/>
</svg>
