<svg width="86" height="120" viewBox="0 0 86 120" fill="none" xmlns="http://www.w3.org/2000/svg">
<path d="M37.9826 1.62582C35.9906 20.7394 36.9898 40.0467 40.944 58.8526C43.1169 68.4673 45.4629 77.8512 45.1167 87.6967C44.9136 92.5593 44.3868 97.4031 43.5399 102.196C42.7323 106.926 41.1748 111.81 41.0786 116.599C41.0811 116.728 41.1283 116.852 41.2121 116.95C41.2958 117.048 41.4111 117.114 41.5381 117.137C41.6651 117.159 41.7961 117.137 41.9086 117.074C42.0212 117.011 42.1084 116.911 42.1554 116.791C43.6992 112.526 44.757 108.101 45.309 103.599C46.2125 98.8088 46.8162 93.9664 47.1166 89.1005C47.3226 79.8153 46.1958 70.5485 43.7707 61.5832C41.4272 51.7686 39.9918 41.7591 39.4825 31.6814C39.021 21.6629 39.4826 11.6829 39.8671 1.68357C39.8671 0.606722 38.0788 0.433606 37.9442 1.51045L37.9826 1.62582Z" fill="#65A4C5"/>
<path d="M44.9047 101.524C49.3851 100.274 55.8463 96.5239 58.0384 92.255C58.2884 91.7742 57.8269 91.1012 57.2884 91.4281C55.154 92.6588 53.4425 94.5817 51.5196 96.0047C49.192 97.4766 46.7847 98.8184 44.3086 100.024C43.4625 100.485 44.097 101.774 45.0008 101.543L44.9047 101.524Z" fill="#65A4C5"/>
<path d="M46.693 91.9841C50.9043 88.6574 57.8846 82.5617 56.9424 76.4275C56.827 75.6199 55.7694 75.7545 55.5001 76.4275C54.6631 79.0888 53.5073 81.6392 52.058 84.0231C50.0875 86.4291 47.9477 88.691 45.6547 90.7918C45.0201 91.4264 45.9623 92.7148 46.693 92.061V91.9841Z" fill="#65A4C5"/>
<path d="M47.2307 82.985C50.2305 78.8699 53.6341 71.4475 51.442 66.3709C51.3925 66.2648 51.3138 66.1749 51.215 66.112C51.1162 66.0491 51.0015 66.0156 50.8844 66.0156C50.7672 66.0156 50.6525 66.0491 50.5537 66.112C50.455 66.1749 50.3763 66.2648 50.3268 66.3709C49.6922 68.8707 50.0575 71.5051 49.4422 74.0627C48.7294 76.8762 47.5322 79.544 45.904 81.9467C45.404 82.7158 46.6923 83.6388 47.25 82.8889L47.2307 82.985Z" fill="#65A4C5"/>
<path d="M44.9245 67.4477C45.3992 63.9835 46.1975 60.5714 47.3089 57.2561C48.4627 53.891 50.3087 50.9296 51.674 47.6414C51.7435 47.4773 51.7538 47.2941 51.7032 47.1232C51.6527 46.9523 51.5445 46.8044 51.3969 46.7045C51.2493 46.6046 51.0717 46.559 50.8942 46.5756C50.7168 46.5922 50.5506 46.6698 50.4241 46.7953C45.7705 52.1219 43.7899 60.3712 43.3477 67.2361C43.3482 67.4348 43.422 67.6264 43.5549 67.7742C43.6879 67.9219 43.8706 68.0156 44.0682 68.037C44.2658 68.0584 44.4644 68.0062 44.6259 67.8904C44.7874 67.7746 44.9006 67.6032 44.9437 67.4092L44.9245 67.4477Z" fill="#65A4C5"/>
<path d="M41.2705 51.2378C40.5783 47.9304 42.5397 43.546 43.6934 40.4693C45.0227 37.4905 46.5651 34.6115 48.3085 31.8546C48.4194 31.694 48.4667 31.4981 48.4415 31.3047C48.4163 31.1113 48.3203 30.934 48.172 30.8073C48.0238 30.6805 47.8337 30.6132 47.6387 30.6184C47.4437 30.6236 47.2575 30.7009 47.1162 30.8353C44.2895 33.1044 42.7705 37.0464 41.5783 40.45C40.386 43.8536 38.5207 48.1418 39.4629 51.8723C39.7706 53.0645 41.5205 52.4877 41.2705 51.3147V51.2378Z" fill="#65A4C5"/>
<path d="M39.4441 34.6038C40.9632 27.7774 49.0588 21.7585 48.1935 14.4898C48.1935 13.7206 47.0013 13.7976 46.7705 14.4898C45.5707 18.1429 43.9306 21.6364 41.8863 24.893C39.8756 27.7116 38.4442 30.9012 37.675 34.277C37.6568 34.4952 37.7183 34.7126 37.8483 34.8888C37.9782 35.065 38.1678 35.188 38.3817 35.235C38.5956 35.282 38.8191 35.2498 39.011 35.1443C39.2029 35.0388 39.3499 34.8673 39.4249 34.6616L39.4441 34.6038Z" fill="#65A4C5"/>
<path d="M39.0587 19.2199C41.3855 15.6624 44.5776 10.5667 44.366 6.12466C44.366 5.35548 43.3085 5.29778 42.9816 5.87467C42.0955 7.9699 41.3502 10.1219 40.7509 12.3165C39.9338 14.4072 38.9832 16.4434 37.905 18.4123C37.4819 19.1815 38.5587 19.989 39.0587 19.2006V19.2199Z" fill="#65A4C5"/>
<path d="M44.7508 99.5222C43.2971 97.7792 42.1878 95.7758 41.4817 93.6188C40.9818 91.9843 41.0395 90.2536 40.4242 88.6576C40.1742 87.9845 39.1357 88.1768 38.9435 88.7729C37.6359 92.6188 40.6934 97.9646 43.2509 100.734C43.9817 101.522 45.4238 100.368 44.7315 99.503L44.7508 99.5222Z" fill="#65A4C5"/>
<path d="M46.1538 87.5818C43.5485 84.1189 40.7494 80.8062 37.7698 77.6595C37.0583 76.9673 35.6546 77.6595 36.2315 78.6979C38.7831 82.365 41.6669 85.7895 44.8462 88.9279C45.6539 89.8509 46.9038 88.4856 46.1538 87.5818Z" fill="#65A4C5"/>
<path d="M45.4055 76.9084C43.1768 75.6981 41.3013 73.9287 39.9636 71.7741C39.0191 69.7644 38.2221 67.6884 37.5791 65.563C37.1945 64.6784 36.0599 65.1591 35.9446 65.9283C35.06 71.1587 40.2904 76.5238 44.4824 78.6967C44.5999 78.7573 44.7281 78.7942 44.8598 78.8052C44.9914 78.8163 45.124 78.8013 45.2499 78.7611C45.3758 78.7209 45.4925 78.6564 45.5934 78.5711C45.6944 78.4858 45.7775 78.3815 45.8381 78.2641C45.8987 78.1466 45.9356 78.0184 45.9467 77.8867C45.9578 77.755 45.9427 77.6225 45.9026 77.4966C45.8624 77.3707 45.7978 77.254 45.7126 77.1531C45.6273 77.0521 45.5229 76.969 45.4055 76.9084Z" fill="#65A4C5"/>
<path d="M42.6159 63.6981C40.8114 62.7333 39.1103 61.5863 37.5393 60.2752C35.9625 58.9484 34.8279 57.1217 33.1934 55.9102C32.4435 55.3526 31.6744 56.2756 31.9436 57.0063C33.3089 60.7368 38.27 63.8327 41.7313 65.3133C42.7889 65.7748 43.6543 64.2943 42.6159 63.7174V63.6981Z" fill="#65A4C5"/>
<path d="M40.5781 51.7175C39.0881 50.5607 37.8235 49.1397 36.8476 47.5254C36.283 46.1505 35.641 44.8088 34.9246 43.5065C34.4439 42.872 33.5786 43.3912 33.4824 44.0258C33.5276 45.9281 34.204 47.7612 35.4054 49.2369C36.4807 50.8353 37.8592 52.2073 39.4627 53.2751C40.3665 53.8905 41.3857 52.3713 40.5588 51.6983L40.5781 51.7175Z" fill="#65A4C5"/>
<path d="M38.5398 35.7965C36.6315 34.4477 35.1073 32.6252 34.1171 30.5085C33.4641 28.7311 32.6465 27.0187 31.6749 25.3935C31.5663 25.2787 31.4271 25.1974 31.2738 25.1592C31.1204 25.1211 30.9592 25.1277 30.8094 25.1782C30.6597 25.2288 30.5276 25.3213 30.4288 25.4447C30.33 25.568 30.2687 25.7171 30.252 25.8742C30.5396 28.2392 31.3431 30.5121 32.6057 32.5323C33.8684 34.5526 35.5593 36.2708 37.5591 37.5656C38.6744 38.2579 39.5974 36.5273 38.5398 35.7965Z" fill="#65A4C5"/>
<path d="M37.5979 20.8924C33.4059 19.1425 35.0404 13.8352 33.4828 10.6047C33.4152 10.4864 33.315 10.39 33.1943 10.327C33.0735 10.2639 32.9372 10.2368 32.8016 10.2489C32.6659 10.2611 32.5366 10.312 32.4289 10.3955C32.3213 10.479 32.2399 10.5916 32.1944 10.72C31.5932 13.3509 31.8423 16.1046 32.9059 18.5848C33.2024 19.553 33.7198 20.4392 34.4172 21.1733C35.1147 21.9075 35.973 22.4695 36.9248 22.8153C38.0016 23.1999 38.6746 21.3539 37.617 20.8924H37.5979Z" fill="#65A4C5"/>
<path d="M38.2891 9.25917C37.8085 8.46547 37.4519 7.60299 37.2315 6.70163C37.0393 5.8363 37.2316 4.89413 36.7701 4.12495C36.6867 3.99391 36.5716 3.88597 36.4354 3.81123C36.2993 3.73648 36.1465 3.69727 35.9912 3.69727C35.8359 3.69727 35.6831 3.73648 35.547 3.81123C35.4108 3.88597 35.2957 3.99391 35.2124 4.12495C34.9523 4.63725 34.8058 5.19955 34.7826 5.77361C34.7593 6.34766 34.8601 6.91996 35.0779 7.4516C35.372 8.62451 35.9386 9.71158 36.7316 10.6245C37.5007 11.5283 38.8468 10.2975 38.2891 9.33605V9.25917Z" fill="#65A4C5"/>
<path d="M43.9237 116.059C56.192 111.521 66.8259 100.964 72.7678 89.4647C79.5942 76.2157 79.0366 61.1012 76.8637 46.6984C76.8154 46.4518 76.6777 46.2318 76.4771 46.0805C76.2764 45.9292 76.0269 45.8573 75.7765 45.8787C75.5261 45.9002 75.2924 46.0134 75.1204 46.1967C74.9484 46.3799 74.8502 46.6203 74.8446 46.8715C74.8446 54.5633 76.4791 62.2551 75.9983 69.9468C75.5607 76.5002 73.7666 82.8912 70.7295 88.7147C64.5953 100.599 54.6921 108.175 43.1929 114.386C42.9999 114.499 42.8559 114.68 42.7887 114.894C42.7216 115.108 42.736 115.339 42.8293 115.542C42.9227 115.746 43.0884 115.907 43.2941 115.996C43.4998 116.084 43.731 116.093 43.9429 116.021L43.9237 116.059Z" fill="#65A4C5"/>
<path d="M44.9631 115.868C47.5975 118.272 52.5395 120.752 56.097 118.906C56.2313 118.831 56.3413 118.718 56.4138 118.582C56.4864 118.446 56.5185 118.292 56.5063 118.139C56.4942 117.985 56.4383 117.838 56.3453 117.715C56.2523 117.592 56.1261 117.498 55.9816 117.445C54.3086 117.06 52.5972 117.349 50.905 116.926C49.0863 116.467 47.3572 115.706 45.7899 114.676C45.0976 114.214 44.3669 115.33 44.9631 115.868Z" fill="#65A4C5"/>
<path d="M52.2314 111.829C53.0916 112.55 54.0958 113.079 55.1769 113.381C56.258 113.683 57.391 113.75 58.5002 113.579C58.6841 113.534 58.8486 113.431 58.9697 113.286C59.0908 113.141 59.1622 112.96 59.1732 112.771C59.1902 112.617 59.1564 112.462 59.0771 112.329C59.008 112.193 58.9037 112.079 58.7751 111.998C58.6465 111.917 58.4984 111.872 58.3464 111.867C56.5104 112.021 54.6774 111.539 53.1544 110.502C52.4045 109.983 51.5199 111.252 52.2314 111.81V111.829Z" fill="#65A4C5"/>
<path d="M61.2304 105.753C62.1343 106.365 63.1676 106.76 64.2494 106.907C64.7679 107.052 65.3115 107.082 65.8428 106.996C66.3741 106.909 66.8802 106.708 67.3261 106.407C67.4224 106.315 67.4937 106.199 67.5334 106.072C67.573 105.945 67.5797 105.809 67.5529 105.679C67.526 105.548 67.4663 105.426 67.3796 105.325C67.2929 105.224 67.1819 105.146 67.057 105.099C66.2586 105.004 65.4517 105.004 64.6533 105.099C63.7294 104.991 62.8453 104.661 62.0765 104.138C61.0573 103.484 60.2882 105.119 61.2304 105.772V105.753Z" fill="#65A4C5"/>
<path d="M68.9214 96.388C70.6346 96.4146 72.3271 96.0113 73.8441 95.215C75.0364 94.5805 76.9017 93.4651 76.9017 91.9653C76.9075 91.8607 76.8887 91.7563 76.8471 91.6602C76.8054 91.5642 76.7419 91.4791 76.6616 91.4119C76.5814 91.3447 76.4865 91.2971 76.3847 91.273C76.2828 91.2489 76.1766 91.2488 76.0747 91.2729C74.9209 91.5229 74.1518 92.7728 73.1327 93.369C71.827 94.1344 70.3388 94.533 68.8253 94.5227C67.6331 94.5227 67.7292 96.3495 68.8253 96.4456L68.9214 96.388Z" fill="#65A4C5"/>
<path d="M75.1529 83.9851C77.1188 83.1745 78.9479 82.0653 80.5756 80.6968C82.1825 79.5778 83.4366 78.0236 84.1907 76.2165C84.3446 75.6204 83.6907 74.8127 83.0562 75.255C81.7697 76.4159 80.55 77.6485 79.4026 78.947C77.8706 80.2467 76.1612 81.3215 74.326 82.139C73.2877 82.6198 74.0953 84.4081 75.1529 84.062V83.9851Z" fill="#65A4C5"/>
<path d="M77.0563 71.1399C79.1431 71.057 81.1243 70.2001 82.6136 68.7362C83.729 67.6401 85.575 65.2749 84.6712 63.6596C84.6238 63.5697 84.5566 63.4919 84.4747 63.4317C84.3929 63.3715 84.2985 63.3306 84.1986 63.3121C84.0987 63.2936 83.9959 63.2978 83.8979 63.3247C83.7999 63.3516 83.7093 63.4004 83.6329 63.4673C83.2212 63.8687 82.9397 64.3846 82.8251 64.948C82.5212 65.7641 82.0644 66.5145 81.4792 67.1594C80.3136 68.4353 78.7182 69.2364 76.9987 69.4092C76.7889 69.4403 76.5973 69.5459 76.4588 69.7064C76.3203 69.867 76.2441 70.0721 76.2441 70.2841C76.2441 70.4962 76.3203 70.7012 76.4588 70.8618C76.5973 71.0224 76.7889 71.1279 76.9987 71.1591L77.0563 71.1399Z" fill="#65A4C5"/>
<path d="M77.8059 63.0624C80.9403 61.024 84.5554 57.6397 85.4977 53.8515C85.5511 53.6397 85.5293 53.4157 85.4359 53.2182C85.3425 53.0207 85.1833 52.8617 84.9857 52.7686C84.788 52.6754 84.5642 52.6539 84.3524 52.7077C84.1406 52.7614 83.9541 52.8869 83.8247 53.063C82.8632 54.5245 82.2286 56.1205 81.1325 57.5243C79.9316 59.0627 78.5055 60.4111 76.9022 61.524C75.9407 62.1971 76.9022 63.7162 77.8636 63.0816L77.8059 63.0624Z" fill="#65A4C5"/>
<path d="M78.0947 53.833C79.1946 52.5056 80.1128 51.0377 80.8253 49.4679C81.6307 48.0992 81.9808 46.5102 81.8252 44.9298C81.7836 44.7806 81.7008 44.6462 81.5865 44.5417C81.4722 44.4372 81.3309 44.3669 81.1785 44.3389C81.0262 44.3108 80.8691 44.3261 80.725 44.383C80.581 44.4399 80.4558 44.536 80.3638 44.6606C79.7638 45.8904 79.2932 47.1793 78.9599 48.5065C78.3713 49.8926 77.5879 51.1876 76.6333 52.3523C75.8256 53.3523 77.2871 54.6984 78.0947 53.6984V53.833Z" fill="#65A4C5"/>
<path d="M47.7697 113.099C47.9018 111.456 48.1459 109.824 48.5005 108.214C48.98 106.931 49.3028 105.595 49.4619 104.234C49.4619 103.599 48.5773 102.984 48.0774 103.58C47.1986 104.85 46.6441 106.315 46.4622 107.849C46.0921 109.519 45.8669 111.217 45.7891 112.925C45.7891 114.041 47.712 114.233 47.712 113.099H47.7697Z" fill="#65A4C5"/>
<path d="M55.116 108.349C55.0138 106.95 55.1174 105.544 55.4237 104.176C55.6736 103.061 56.366 101.965 56.0968 100.83C56.0703 100.728 56.0216 100.633 55.954 100.552C55.8865 100.471 55.8018 100.406 55.7062 100.362C55.6105 100.318 55.5062 100.296 55.4008 100.297C55.2954 100.298 55.1916 100.322 55.0968 100.369C53.9238 101.042 53.6738 102.561 53.4238 103.791C53.1229 105.316 53.0259 106.875 53.1354 108.426C53.195 108.635 53.3213 108.818 53.4947 108.949C53.6682 109.08 53.8795 109.151 54.0968 109.151C54.3141 109.151 54.5256 109.08 54.699 108.949C54.8725 108.818 54.9986 108.635 55.0583 108.426L55.116 108.349Z" fill="#65A4C5"/>
<path d="M64.5386 99.5605C64.1802 97.8397 63.9935 96.0876 63.981 94.33C63.981 92.8686 64.1925 91.4072 63.981 89.9458C63.981 89.1189 62.7695 89.2727 62.5196 89.9458C61.2504 92.984 61.962 97.0798 62.7312 100.176C63.0196 101.329 64.6541 100.772 64.481 99.6373L64.5386 99.5605Z" fill="#65A4C5"/>
<path d="M70.8454 91.0043C70.424 89.3048 70.0902 87.5847 69.8454 85.8509C69.7355 84.0848 69.5301 82.3258 69.23 80.5819C69.0377 79.832 67.7687 79.6397 67.5956 80.5819C66.8649 84.0817 67.961 88.2737 68.9224 91.6581C69.2878 92.908 71.153 92.3119 70.8454 91.062V91.0043Z" fill="#65A4C5"/>
<path d="M74.9801 78.6974C73.8175 77.3672 72.9462 75.8082 72.4226 74.1208C71.9995 72.7363 72.0765 71.2942 71.5765 69.9673C71.288 69.2174 70.2496 69.4866 69.9997 70.102C68.7113 73.3902 71.4226 77.909 73.5571 80.2358C74.4801 81.2357 75.8262 79.6974 74.9801 78.6974Z" fill="#65A4C5"/>
<path d="M76.8836 66.371C75.8853 65.5288 75.0565 64.5042 74.4415 63.352C74.0727 62.3548 73.6091 61.3954 73.057 60.4868C72.9555 60.375 72.8265 60.2917 72.6828 60.2452C72.5392 60.1987 72.3858 60.1906 72.238 60.2217C72.0903 60.2528 71.9532 60.322 71.8405 60.4225C71.7278 60.523 71.6434 60.6512 71.5956 60.7944C71.0764 63.4289 73.6339 66.3133 75.4414 67.9093C76.4606 68.7939 77.8836 67.2363 76.8644 66.371H76.8836Z" fill="#65A4C5"/>
<path d="M76.7298 57.6796C75.808 56.8848 75.0165 55.9504 74.3839 54.9105C73.8647 54.0644 73.5954 52.9876 72.73 52.5069C72.6395 52.4485 72.5368 52.4115 72.4298 52.3987C72.3228 52.3858 72.2143 52.3974 72.1125 52.4326C72.0106 52.4678 71.9182 52.5255 71.8419 52.6017C71.7657 52.6779 71.7077 52.7704 71.6725 52.8722C71.5943 53.4674 71.6447 54.0724 71.8206 54.6463C71.9964 55.2203 72.2935 55.7497 72.6917 56.1989C73.4306 57.3133 74.3314 58.3114 75.3645 59.1603C76.3452 60.0064 77.7105 58.5257 76.7298 57.6796Z" fill="#65A4C5"/>
<path d="M75.6714 49.084C74.9663 48.2549 74.4071 47.312 74.0177 46.2957C73.805 45.3161 73.4138 44.384 72.8638 43.5459C72.7635 43.4429 72.6386 43.3671 72.5008 43.3257C72.363 43.2844 72.217 43.2789 72.0765 43.3097C71.936 43.3405 71.8056 43.4065 71.6978 43.5017C71.5899 43.5968 71.5082 43.718 71.4601 43.8535C71.2441 45.0385 71.4845 46.2614 72.1331 47.2764C72.6645 48.3726 73.3089 49.4102 74.056 50.3723C74.1355 50.4847 74.2373 50.5794 74.355 50.6506C74.4727 50.7218 74.6038 50.7681 74.7402 50.7863C74.8766 50.8045 75.0153 50.7944 75.1476 50.7566C75.2798 50.7188 75.4028 50.654 75.5089 50.5665C75.6151 50.4789 75.7021 50.3704 75.7643 50.2477C75.8266 50.125 75.8629 49.9908 75.8709 49.8535C75.8789 49.7161 75.8585 49.5786 75.8109 49.4495C75.7633 49.3204 75.6896 49.2024 75.5944 49.1031L75.6714 49.084Z" fill="#65A4C5"/>
<path d="M41.0014 112.675C33.2135 111.867 29.4638 105.214 25.6179 99.2143C22.0193 93.6813 18.9485 87.8228 16.4455 81.7155C14.1111 75.3642 12.3666 68.8114 11.2343 62.14C9.96517 55.3713 8.56145 48.2756 9.09988 41.3723C9.19602 40.1224 7.33077 40.0647 7.17694 41.3723C6.29238 48.6218 7.88842 56.2366 9.21525 63.3515C10.5295 70.8276 12.6507 78.139 15.5417 85.1576C18.6703 92.118 22.4361 98.7741 26.791 105.041C30.0984 109.983 34.4826 114.656 40.886 114.656C41.9436 114.656 42.136 112.886 41.0591 112.733L41.0014 112.675Z" fill="#65A4C5"/>
<path d="M41.6546 112.541C40.68 111.15 39.8182 109.684 39.0778 108.156C38.4048 106.58 38.2894 104.791 37.5395 103.272C37.2318 102.657 36.1165 102.657 35.9627 103.407C35.2896 106.772 37.7703 111.521 40.1355 113.791C40.3143 113.942 40.5402 114.025 40.7742 114.027C41.0082 114.028 41.2354 113.948 41.4161 113.799C41.5968 113.65 41.7196 113.443 41.7632 113.213C41.8067 112.983 41.7683 112.745 41.6546 112.541Z" fill="#65A4C5"/>
<path d="M33.4248 109.003C32.4691 107.393 31.7808 105.64 31.3865 103.811C31.2922 102.243 31.0672 100.687 30.7135 99.1571C30.6431 99.0417 30.5443 98.9464 30.4264 98.8802C30.3086 98.8141 30.1757 98.7793 30.0405 98.7793C29.9054 98.7793 29.7725 98.8141 29.6546 98.8802C29.5368 98.9464 29.4378 99.0417 29.3674 99.1571C27.6945 102.349 29.9059 107.387 31.675 110.137C31.8178 110.367 32.0459 110.53 32.3091 110.591C32.5724 110.653 32.8492 110.607 33.0787 110.464C33.3082 110.321 33.4716 110.093 33.5329 109.83C33.5942 109.566 33.5485 109.29 33.4057 109.06L33.4248 109.003Z" fill="#65A4C5"/>
<path d="M26.5212 100.176C26.2229 98.1708 26.152 96.1389 26.3097 94.1183C26.4635 92.1954 27.0404 90.4648 27.1558 88.6187C27.1782 88.4201 27.1312 88.2199 27.0227 88.052C26.9142 87.8841 26.7509 87.7589 26.5606 87.6978C26.3703 87.6366 26.1648 87.6432 25.9788 87.7164C25.7929 87.7897 25.638 87.925 25.5405 88.0995C23.6175 91.6185 23.9636 96.6758 24.6366 100.483C24.68 100.738 24.823 100.966 25.0339 101.115C25.2449 101.265 25.5066 101.325 25.7616 101.281C26.0166 101.238 26.244 101.095 26.3936 100.884C26.5433 100.673 26.6029 100.411 26.5596 100.156L26.5212 100.176Z" fill="#65A4C5"/>
<path d="M20.8492 90.3706C21.2146 88.563 21.6376 86.7555 22.0799 84.9671C22.6367 83.3548 22.9605 81.6713 23.0414 79.9675C23.0475 79.8211 23.0055 79.6766 22.922 79.5562C22.8385 79.4357 22.718 79.3459 22.5787 79.3002C22.4395 79.2545 22.2891 79.2554 22.1505 79.303C22.0118 79.3506 21.8926 79.4421 21.8107 79.5637C20.9749 81.1859 20.4345 82.944 20.2146 84.7556C19.83 86.5055 19.5417 88.2554 19.2148 90.0245C19.1663 90.2387 19.2048 90.4634 19.322 90.6491C19.4392 90.8348 19.6254 90.9664 19.8396 91.0148C20.0538 91.0633 20.2785 91.0246 20.4643 90.9074C20.65 90.7902 20.7815 90.604 20.83 90.3898L20.8492 90.3706Z" fill="#65A4C5"/>
<path d="M16.8877 81.4091C16.5526 79.5868 16.7668 77.706 17.503 76.0057C18.2829 74.6842 18.8354 73.2411 19.1375 71.7367C19.1375 71.2752 18.599 70.7944 18.1568 71.1021C16.7698 72.4165 15.8114 74.1188 15.407 75.9864C14.7431 77.9111 14.6365 79.9841 15.0994 81.9667C15.3878 83.159 17.1569 82.5821 16.9069 81.4091H16.8877Z" fill="#65A4C5"/>
<path d="M12.0602 67.4477C12.5076 65.7565 13.1061 64.109 13.8485 62.525C14.6786 61.1095 15.436 59.6525 16.1176 58.1599C16.1671 58.0035 16.164 57.8353 16.1088 57.6809C16.0535 57.5265 15.9492 57.3944 15.8117 57.305C15.6743 57.2155 15.5113 57.1736 15.3478 57.1856C15.1842 57.1976 15.029 57.263 14.9061 57.3715C12.3486 59.5829 11.0603 63.9095 10.2719 66.9862C9.98346 68.14 11.7525 68.5245 12.0602 67.39V67.4477Z" fill="#65A4C5"/>
<path d="M10.5613 57.4678C10.6695 56.053 11.0207 54.6674 11.5997 53.372C12.3388 52.2621 12.9821 51.0912 13.5226 49.8722C13.638 49.4299 13.2726 48.8723 12.7534 49.0261C11.3865 49.7016 10.3426 50.8906 9.84984 52.3335C9.07965 53.9629 8.67901 55.7425 8.67676 57.5447C8.67676 58.7562 10.4074 58.6023 10.5036 57.5447L10.5613 57.4678Z" fill="#65A4C5"/>
<path d="M9.00372 47.8528L10.6574 45.103C11.2968 44.3195 11.7445 43.3977 11.965 42.4108C11.9702 42.2703 11.9386 42.1307 11.8733 42.0061C11.8081 41.8815 11.7115 41.7762 11.593 41.7004C11.4745 41.6246 11.3383 41.5812 11.1978 41.5742C11.0573 41.5673 10.9174 41.5971 10.792 41.6608C10.0301 42.3188 9.4366 43.1496 9.06135 44.0838L7.36915 47.0451C6.77304 48.0642 8.38836 48.968 8.98447 47.8912L9.00372 47.8528Z" fill="#65A4C5"/>
<path d="M0.119141 41.4678C0.427219 43.5029 1.29251 45.4129 2.61906 46.9866C3.17113 47.7819 3.87806 48.4575 4.69751 48.973C5.51696 49.4884 6.43204 49.8331 7.38791 49.9864C7.54301 49.9895 7.69575 49.9479 7.82781 49.8665C7.95986 49.7851 8.06568 49.6674 8.13261 49.5274C8.19954 49.3875 8.22466 49.2312 8.20514 49.0773C8.18562 48.9234 8.12227 48.7784 8.02252 48.6596C6.98413 47.5443 5.465 46.9867 4.40738 45.8137C3.25216 44.5007 2.45709 42.9105 2.09983 41.1986C1.84984 40.141 0.0230499 40.4294 0.176885 41.5254L0.119141 41.4678Z" fill="#65A4C5"/>
<path d="M2.29251 54.14C3.18892 55.3968 4.23499 56.5397 5.40767 57.5436C6.33068 58.3128 7.81141 59.7359 9.08055 59.6397C9.21621 59.6436 9.35062 59.6124 9.47068 59.5491C9.59074 59.4858 9.69237 59.3925 9.76586 59.2784C9.83934 59.1643 9.8822 59.0332 9.89015 58.8977C9.8981 58.7622 9.87092 58.627 9.81128 58.5051C9.2344 57.4475 7.71522 56.9091 6.75375 56.1592C5.59942 55.2383 4.53692 54.2079 3.58097 53.0824C2.96563 52.3709 1.65794 53.3901 2.29251 54.1593V54.14Z" fill="#65A4C5"/>
<path d="M4.73475 64.6788C5.27523 66.5045 6.26727 68.1645 7.61916 69.5054C8.52294 70.3899 10.6574 72.409 11.9458 71.4283C12.0657 71.3566 12.1611 71.2501 12.2195 71.1231C12.2778 70.9962 12.2963 70.8546 12.2726 70.7168C12.0611 69.4669 10.2152 69.0631 9.33061 68.2747C8.0414 67.1409 7.09551 65.6687 6.60006 64.0249C6.52356 63.7699 6.3488 63.5557 6.1144 63.4295C5.88 63.3033 5.6051 63.2754 5.35011 63.3519C5.09511 63.4284 4.88092 63.6031 4.7547 63.8375C4.62849 64.0719 4.60062 64.3468 4.67712 64.6018L4.73475 64.6788Z" fill="#65A4C5"/>
<path d="M7.50404 79.0629C8.28177 80.2693 9.34083 81.2689 10.5902 81.9757C11.8396 82.6824 13.2419 83.0752 14.6766 83.1202C14.8774 83.1242 15.0745 83.065 15.2401 82.9512C15.4056 82.8374 15.5314 82.6747 15.5997 82.4858C15.6451 82.3287 15.6451 82.162 15.5997 82.005C15.566 81.8484 15.4913 81.7035 15.3831 81.5852C15.275 81.4669 15.1373 81.3795 14.9843 81.3319C13.8343 81.2074 12.7205 80.856 11.7072 80.2982C10.6939 79.7403 9.80121 78.9872 9.08087 78.0821C8.38861 77.0822 6.77331 78.0822 7.4848 79.0821L7.50404 79.0629Z" fill="#65A4C5"/>
<path d="M12.6757 90.4656C13.7198 91.4808 15.0737 92.1171 16.5216 92.2731C17.7907 92.4078 19.7521 92.2732 20.3675 91.0233C20.4449 90.9014 20.4891 90.7613 20.4957 90.6171C20.5022 90.4729 20.4708 90.3295 20.4047 90.2011C20.3386 90.0728 20.24 89.964 20.1188 89.8855C19.9976 89.8071 19.8578 89.7618 19.7136 89.7541C18.7329 89.7541 17.7907 90.2926 16.8677 90.2926C15.7381 90.288 14.6523 89.855 13.8294 89.0811C13.6385 88.9484 13.406 88.8894 13.1749 88.915C12.9438 88.9407 12.7298 89.0492 12.5726 89.2205C12.4153 89.3919 12.3254 89.6144 12.3196 89.8468C12.3139 90.0793 12.3926 90.3059 12.5411 90.4848L12.6757 90.4656Z" fill="#65A4C5"/>
<path d="M14.0221 98.2723C15.6203 99.5461 17.5476 100.34 19.5794 100.561C20.9831 100.695 23.4253 100.868 24.0214 99.3299C24.0645 99.2003 24.0633 99.0602 24.0181 98.9314C23.9728 98.8026 23.8861 98.6924 23.7714 98.6184C22.733 97.8877 21.1562 98.6184 19.9255 98.5223C18.1849 98.3699 16.5207 97.7375 15.1181 96.6954C14.2336 96.0801 13.1952 97.5992 14.0028 98.2723H14.0221Z" fill="#65A4C5"/>
<path d="M20.8483 106.002C21.9327 106.617 23.0888 107.094 24.2904 107.425C25.3958 107.891 26.6328 107.939 27.7709 107.56C27.8983 107.483 28.0036 107.374 28.0767 107.245C28.1499 107.115 28.1882 106.968 28.1882 106.82C28.1882 106.671 28.1499 106.524 28.0767 106.395C28.0036 106.265 27.8983 106.156 27.7709 106.079C26.8621 105.67 25.8825 105.442 24.8865 105.406C23.7776 105.159 22.7049 104.772 21.6944 104.252C21.4624 104.133 21.1922 104.11 20.9434 104.189C20.6946 104.268 20.4875 104.443 20.3676 104.675C20.2478 104.908 20.225 105.178 20.3044 105.427C20.3837 105.675 20.5586 105.882 20.7906 106.002H20.8483Z" fill="#65A4C5"/>
<path d="M27.2139 113.906C28.6383 114.273 30.11 114.422 31.579 114.348C32.1945 114.415 32.8172 114.348 33.4045 114.152C33.9919 113.957 34.5301 113.637 34.9825 113.214C35.0475 113.115 35.0888 113.003 35.1033 112.885C35.1177 112.768 35.1049 112.649 35.0659 112.537C35.0268 112.426 34.9626 112.325 34.8781 112.242C34.7936 112.159 34.6912 112.097 34.5788 112.06C33.5788 111.676 32.4828 112.06 31.4444 112.214C30.1552 112.308 28.8592 112.211 27.5985 111.926C27.362 111.911 27.1279 111.981 26.938 112.122C26.748 112.264 26.6147 112.469 26.5616 112.699C26.5084 112.93 26.5392 113.173 26.6481 113.383C26.757 113.594 26.9371 113.759 27.1563 113.849L27.2139 113.906Z" fill="#65A4C5"/>
<path d="M36.7124 119.214C38.2538 119.445 39.8289 119.182 41.2121 118.464C41.7936 118.214 42.2674 117.765 42.5491 117.198C42.8309 116.631 42.9022 115.983 42.7504 115.368C42.6882 115.252 42.6004 115.151 42.4935 115.074C42.3866 114.997 42.2636 114.946 42.1338 114.924C42.0039 114.901 41.8708 114.909 41.7444 114.946C41.6179 114.983 41.5016 115.048 41.4043 115.137C40.7698 115.676 40.6159 116.445 39.8083 116.849C38.7972 117.232 37.7129 117.383 36.6355 117.291C35.3663 117.291 35.5009 119.214 36.6355 119.214H36.7124Z" fill="#65A4C5"/>
</svg>
