<svg width="129" height="164" viewBox="0 0 129 164" fill="none" xmlns="http://www.w3.org/2000/svg">
<path d="M75.2635 3.76536C80.2124 7.97993 84.2551 13.1543 87.1473 18.9758C89.8427 24.8258 90.8357 31.317 90.0125 37.7053C89.1066 44.2042 87.4614 50.5784 85.109 56.704L81.7823 66.1456C81.2247 67.7224 80.7632 69.3569 80.244 70.9529C79.7248 72.549 79.2825 74.1835 78.8594 75.7988C77.1404 82.3084 75.8556 88.9251 75.0136 95.605C74.1366 102.287 73.6934 109.018 73.6867 115.757C73.6937 129.25 75.5308 142.679 79.1479 155.678C79.6671 157.601 80.7247 158.812 81.4939 158.581C82.2631 158.351 82.4938 156.658 81.9746 154.889C78.4073 142.157 76.5832 128.999 76.5519 115.777C76.5311 109.187 76.9357 102.604 77.7634 96.0665C78.6136 89.5146 79.8984 83.0264 81.6092 76.6449C82.0323 75.0488 82.4553 73.4527 82.9745 71.8951C83.4937 70.3376 83.936 68.7415 84.4744 67.1839L87.8011 57.7616C90.258 51.3967 91.9743 44.7702 92.9161 38.0129C93.3113 34.5728 93.266 31.0962 92.7815 27.6675C92.2799 24.2233 91.2689 20.8728 89.7817 17.7259C86.7464 11.5381 82.4878 6.03011 77.2634 1.5348C75.8212 0.24643 74.1675 -0.195879 73.6675 0.419462C73.1675 1.0348 73.8983 2.49622 75.2635 3.76536Z" fill="#65A4C5"/>
<path d="M125.605 3.76526C125.044 10.1415 123.351 16.3667 120.605 22.1486C117.952 27.9174 113.74 32.917 110.241 38.6858C109.358 40.1375 108.562 41.6401 107.856 43.1856C107.509 43.9708 107.201 44.7731 106.933 45.5892C106.639 46.3759 106.389 47.1784 106.183 47.9929C105.293 51.2653 104.757 54.6243 104.587 58.0115C104.203 64.7225 104.78 71.299 104.914 77.7985C104.987 81.007 104.878 84.2171 104.587 87.4132C104.247 90.5586 103.55 93.6551 102.511 96.6433C100.357 102.566 96.3379 107.739 92.7227 113.277C85.2101 124.553 81.541 137.955 82.2619 151.486C82.3581 153.409 83.2042 154.851 83.9926 154.755C84.781 154.658 85.281 153.12 85.1848 151.312C84.4948 138.407 87.9955 125.625 95.1649 114.873C98.6646 109.45 102.857 104.124 105.241 97.5664C106.361 94.3484 107.11 91.0128 107.472 87.6247C107.772 84.2942 107.881 80.9493 107.799 77.6062C107.645 70.9913 107.106 64.4532 107.472 58.0499C107.627 54.8778 108.123 51.7316 108.952 48.6659C109.152 47.9087 109.396 47.164 109.683 46.4353C109.927 45.6906 110.21 44.9589 110.529 44.2431C111.217 42.8871 111.981 41.571 112.817 40.3011C114.471 37.5706 116.375 34.917 118.24 32.1864C120.161 29.4355 121.858 26.5355 123.317 23.5139C126.214 17.4116 127.998 10.8409 128.586 4.11138C128.739 2.18844 128.105 0.630859 127.297 0.630859C126.49 0.630859 125.817 1.97693 125.605 3.76526Z" fill="#65A4C5"/>
<path d="M93.5697 22.5903C92.332 25.1957 91.7133 28.0519 91.7622 30.9359C91.7848 33.6523 91.9969 36.3638 92.3967 39.0507C92.7429 41.7044 93.089 44.2619 93.1659 46.7425C93.2508 49.3087 93.1737 51.8777 92.9352 54.4342C92.386 59.6487 91.5515 64.8292 90.4353 69.9524C89.3841 75.0802 88.3586 80.285 87.3586 85.5667C85.3716 95.989 83.5384 106.437 81.859 116.911C81.0129 122.16 80.2053 127.391 79.4553 132.66C79.0375 135.346 78.7998 138.057 78.7439 140.774C78.6698 143.599 79.0796 146.415 79.9553 149.101C80.4937 150.658 81.7436 151.504 82.4359 151.024C83.1282 150.543 83.1858 149.331 82.7436 148.043C81.1475 143.409 81.6475 138.159 82.359 133.006C83.0705 127.852 83.9166 122.545 84.7627 117.314C86.442 106.866 88.2688 96.4441 90.243 86.0474C91.2302 80.8426 92.2557 75.6507 93.3197 70.4716C94.4619 65.2408 95.3156 59.9511 95.8773 54.6266C96.1268 51.9229 96.2038 49.206 96.108 46.4925C96.108 43.7619 95.6465 41.0698 95.3004 38.4546C94.9243 35.9075 94.7252 33.3374 94.7043 30.7628C94.6482 28.3278 95.1549 25.9128 96.1849 23.7057C96.7618 22.5519 96.9926 21.3213 96.358 20.7636C96.1647 20.6338 95.9371 20.5645 95.7042 20.5645C95.4713 20.5645 95.2437 20.6338 95.0504 20.7636C94.3661 21.1894 93.8446 21.8327 93.5697 22.5903Z" fill="#65A4C5"/>
<path d="M16.8244 49.3969C17.5215 54.616 18.8118 59.7385 20.6703 64.6651C22.7775 69.4894 25.4498 74.0466 28.6312 78.2411C30.0881 80.3036 31.436 82.441 32.6694 84.6445C33.8622 86.8302 34.8658 89.114 35.6692 91.4709C37.2775 96.2008 38.0835 101.166 38.0537 106.162C37.9496 111.184 37.1206 116.165 35.5923 120.95C33.9871 125.89 32.6329 130.909 31.5349 135.987C30.9946 138.643 30.8135 141.359 30.9965 144.063C31.2348 146.858 32.1096 149.562 33.554 151.967C34.99 154.289 36.7808 156.371 38.8613 158.139C40.8662 159.859 42.9864 161.439 45.207 162.87C46.4377 163.677 47.803 163.754 48.2452 163.081C48.6875 162.408 48.0337 161.158 46.8415 160.428C42.5706 157.937 38.9006 154.536 36.0923 150.467C34.8731 148.444 34.1362 146.167 33.9386 143.813C33.779 141.373 33.9471 138.921 34.4385 136.525C35.518 131.546 36.8465 126.623 38.419 121.776C39.1944 119.248 39.8363 116.681 40.342 114.085C40.8083 111.469 41.0527 108.819 41.0727 106.162C41.105 100.84 40.247 95.5491 38.5344 90.5094C37.642 87.9963 36.5354 85.5646 35.2269 83.2408C33.9467 80.9513 32.5474 78.7305 31.0349 76.5874C27.9655 72.5741 25.3835 68.2105 23.3432 63.5883C21.5747 58.8712 20.3489 53.9683 19.6896 48.974C19.478 47.551 18.6704 46.4742 17.7666 46.5895C16.8628 46.7049 16.5936 47.9932 16.8244 49.3969Z" fill="#65A4C5"/>
<path d="M51.4955 59.5306L50.0149 71.8374C49.5534 75.9333 48.9573 80.0291 48.688 84.2403C48.562 86.3601 48.562 88.4855 48.688 90.6052C48.7842 92.7589 49.1303 94.8742 49.4188 96.8933C50.1879 100.798 50.1879 104.815 49.4188 108.719C48.5399 112.647 47.2106 116.461 45.4575 120.084C43.7653 123.795 41.8231 127.449 40.0925 131.275C38.2919 135.123 36.9309 139.161 36.0351 143.313C35.0963 147.602 35.2019 152.053 36.3428 156.293C36.7081 157.504 37.708 158.216 38.4388 157.889C38.8331 157.642 39.1245 157.26 39.2589 156.815C39.3932 156.369 39.3615 155.89 39.1695 155.466C38.1742 151.694 38.0951 147.738 38.9387 143.928C39.7891 139.995 41.0792 136.17 42.7846 132.525C46.1305 125.141 50.4764 117.853 52.3993 109.354C52.8461 107.23 53.0589 105.063 53.0339 102.893C52.9849 100.759 52.7792 98.6316 52.4185 96.5279C52.1109 94.4704 51.8032 92.4897 51.7071 90.5091C51.5879 88.5046 51.5879 86.4948 51.7071 84.4903C51.9763 80.4521 52.5532 76.3563 53.0147 72.2412L54.4953 59.9344C54.6299 58.7807 54.0915 57.7423 53.2839 57.6461C52.4762 57.55 51.6301 58.396 51.4955 59.5306Z" fill="#65A4C5"/>
<path d="M1.34545 62.4144C2.85384 63.387 4.12317 64.6876 5.05878 66.2192C5.99439 67.7508 6.57213 69.4738 6.74892 71.2599C6.96044 73.1828 6.88352 75.1058 7.03736 77.2211C7.13893 78.2943 7.30589 79.3602 7.53732 80.4131C7.79031 81.448 8.09842 82.4686 8.46033 83.4706C11.5563 91.4124 17.4597 97.2966 20.6902 104.258C22.3462 107.616 22.9302 111.402 22.3632 115.103C21.7479 118.834 20.1134 122.545 19.4019 126.756C18.7588 130.96 19.1339 135.256 20.4958 139.285C21.8576 143.314 24.1664 146.957 27.2282 149.908C28.1128 150.754 29.305 150.831 29.7858 150.197C29.9967 149.794 30.0583 149.33 29.9598 148.887C29.8612 148.443 29.6088 148.049 29.2473 147.774C26.5253 145.144 24.4741 141.899 23.2662 138.312C22.0583 134.725 21.7288 130.901 22.3055 127.16C22.9209 123.429 24.5554 119.718 25.2668 115.507C25.6339 113.369 25.6339 111.184 25.2668 109.046L24.9784 107.45L24.5169 105.911C24.1891 104.903 23.8039 103.914 23.3631 102.95C19.7672 95.3544 13.9215 89.4894 11.2101 82.3553C10.8948 81.4724 10.6252 80.5738 10.4025 79.6631C10.2011 78.756 10.0534 77.8378 9.96023 76.9133C9.80639 74.9904 9.96023 73.0675 9.65256 70.8561C9.42236 68.6371 8.69626 66.4982 7.52796 64.5977C6.35966 62.6971 4.77905 61.0834 2.90304 59.8761C1.82619 59.1838 0.595507 59.3954 0.287836 60.1453C0.164187 60.5875 0.202847 61.0594 0.396825 61.4756C0.590804 61.8918 0.927296 62.2247 1.34545 62.4144Z" fill="#65A4C5"/>
</svg>
