<svg width="82" height="82" viewBox="0 0 82 82" fill="none" xmlns="http://www.w3.org/2000/svg">
<g opacity="0.6">
<path opacity="0.202381" d="M41 82C63.6437 82 82 63.6437 82 41C82 18.3563 63.6437 0 41 0C18.3563 0 0 18.3563 0 41C0 63.6437 18.3563 82 41 82Z" fill="#61C1B8"/>
<path opacity="0.202381" d="M41.0608 75.2359C59.936 75.2359 75.2374 59.9346 75.2374 41.0594C75.2374 22.1842 59.936 6.88281 41.0608 6.88281C22.1856 6.88281 6.88428 22.1842 6.88428 41.0594C6.88428 59.9346 22.1856 75.2359 41.0608 75.2359Z" fill="#61C1B8"/>
<path opacity="0.1" d="M41.0005 67.76C55.7795 67.76 67.7603 55.7793 67.7603 41.0002C67.7603 26.2212 55.7795 14.2405 41.0005 14.2405C26.2215 14.2405 14.2407 26.2212 14.2407 41.0002C14.2407 55.7793 26.2215 67.76 41.0005 67.76Z" fill="#61C1B8"/>
</g>
<path d="M61.9963 34.8357V57.0643C61.9963 58.2044 61.5111 59.2311 60.7363 59.9499C60.0334 60.6015 59.0931 60.9997 58.0599 60.9997H24.9364C23.9032 60.9997 22.9629 60.6015 22.261 59.9505C21.4861 59.2311 21.001 58.2044 21.001 57.0643V34.8357H61.9963Z" fill="#FEC970"/>
<path d="M61.9953 34.8358L46.2377 21.7152C43.4913 19.4283 39.504 19.4283 36.7576 21.7152L21 34.8358H21.0003L25.6445 38.7027L36.7576 47.9558C39.5043 50.2433 43.4916 50.2433 46.2374 47.9558L57.3514 38.7027L61.9956 34.8358" fill="#FBA028"/>
<path d="M54.672 40.9331L51.8736 43.2632L50.3668 44.5182L48.3571 46.1914L46.8497 47.4463L46.2378 47.9559C43.492 50.2431 39.5047 50.2431 36.7579 47.9559L36.1464 47.4463L34.6387 46.1914L32.6292 44.5182L31.1224 43.2632L28.3247 40.934C28.462 40.9522 28.6025 40.9622 28.7454 40.9622H54.2503C54.3936 40.9622 54.534 40.9522 54.672 40.9331Z" fill="#20B58D"/>
<path d="M25.8 38.8318C25.6996 38.5262 25.6455 38.2009 25.6455 37.8621V26.1032C25.6455 24.3906 27.0334 23.0017 28.746 23.0017H54.2509C55.9635 23.0017 57.3524 24.3906 57.3524 26.1032V37.8621C57.3524 38.2009 57.2979 38.5262 57.1975 38.8318L54.6726 40.9333C54.5346 40.9527 54.3939 40.9627 54.2509 40.9627H28.746C28.6028 40.9627 28.4623 40.9527 28.325 40.9342" fill="#20B58D"/>
<path d="M25.6455 36.0676L31.5244 40.9627H28.746C28.6028 40.9627 28.4623 40.9527 28.325 40.9342L25.8 38.8319C25.6996 38.5263 25.6455 38.201 25.6455 37.8622V36.0676Z" fill="#20B58D"/>
<path d="M57.352 36.0676V37.8622C57.352 38.201 57.2975 38.5263 57.1971 38.8319L54.6722 40.9333C54.5342 40.9527 54.3935 40.9627 54.2505 40.9627H51.4722L57.352 36.0676Z" fill="#20B58D"/>
<path d="M51.8733 43.2632L50.3665 44.5182H32.6289L31.1221 43.2632H51.8733Z" fill="#138175"/>
<path d="M48.3571 46.1912L46.8496 47.4461H36.1464L34.6387 46.1912H48.3571Z" fill="#138175"/>
<path d="M54.2355 28.1829C53.0784 28.1829 52.1369 27.2417 52.1369 26.0843C52.1369 25.7377 51.856 25.4568 51.5094 25.4568H31.4874C31.1408 25.4568 30.8599 25.7377 30.8599 26.0843C30.8599 27.2417 29.9187 28.1829 28.7613 28.1829C28.4147 28.1829 28.1338 28.4641 28.1338 28.8104V35.1544C28.1338 35.501 28.4147 35.7819 28.7613 35.7819C29.9187 35.7819 30.8599 36.7231 30.8599 37.8805C30.8599 38.2271 31.1408 38.508 31.4874 38.508H51.5097C51.856 38.508 52.1372 38.2271 52.1372 37.8805C52.1372 36.7231 53.0784 35.7819 54.2358 35.7819C54.5821 35.7819 54.8633 35.501 54.8633 35.1544V28.8104C54.863 28.4641 54.5821 28.1829 54.2355 28.1829ZM46.7688 31.9822C46.7688 34.8885 44.4047 37.253 41.4984 37.253C38.5921 37.253 36.2279 34.8885 36.2279 31.9822C36.2279 29.0763 38.5921 26.7118 41.4984 26.7118C44.4047 26.7118 46.7688 29.0763 46.7688 31.9822ZM32.0561 37.253C31.7999 35.906 30.7357 34.8419 29.3888 34.5857V29.3791C30.7357 29.1232 31.7999 28.0587 32.0561 26.7121H37.6571C36.0318 27.8998 34.973 29.8195 34.973 31.9825C34.973 34.1456 36.0315 36.0649 37.6571 37.253H32.0561ZM53.608 34.5857C52.2611 34.8416 51.1969 35.906 50.941 37.253H45.3396C46.9653 36.0649 48.0238 34.1453 48.0238 31.9822C48.0238 29.8192 46.9653 27.8998 45.3396 26.7118H50.941C51.1969 28.0587 52.2614 29.1229 53.608 29.3791V34.5857Z" fill="#138175"/>
<path d="M41.4978 35.4632C43.4175 35.4632 44.979 33.9014 44.979 31.9817C44.979 30.0623 43.4175 28.5005 41.4978 28.5005C39.5784 28.5005 38.0166 30.0623 38.0166 31.9817C38.0166 33.9014 39.5784 35.4632 41.4978 35.4632ZM41.4978 29.7555C42.7256 29.7555 43.724 30.7542 43.724 31.9817C43.724 33.2095 42.7253 34.2082 41.4978 34.2082C40.2704 34.2082 39.2716 33.2095 39.2716 31.9817C39.2716 30.7542 40.2704 29.7555 41.4978 29.7555Z" fill="#138175"/>
<path d="M49.4668 31.9822C49.4668 32.3288 49.7477 32.6097 50.0943 32.6097H51.9764C52.323 32.6097 52.6039 32.3288 52.6039 31.9822C52.6039 31.6359 52.323 31.3547 51.9764 31.3547H50.0943C49.7477 31.3547 49.4668 31.6359 49.4668 31.9822Z" fill="#138175"/>
<path d="M32.902 31.3547H31.0196C30.673 31.3547 30.3921 31.6359 30.3921 31.9822C30.3921 32.3288 30.673 32.6097 31.0196 32.6097H32.902C33.2486 32.6097 33.5295 32.3288 33.5295 31.9822C33.5295 31.6359 33.2486 31.3547 32.902 31.3547Z" fill="#138175"/>
<path d="M58.175 58.4455C58.0336 58.4455 57.8913 58.398 57.774 58.3004L47.7683 49.9697C47.5021 49.748 47.4661 49.3523 47.6876 49.0861C47.9094 48.8199 48.3051 48.7836 48.5713 49.0054L58.5767 57.3357C58.8432 57.5575 58.8795 57.9528 58.6577 58.2194C58.5335 58.3686 58.3549 58.4455 58.175 58.4455Z" fill="#FBA028"/>
<path d="M35.2089 49.9864L26.9862 57.0098C25.8535 57.9776 26.36 59.8273 27.8279 60.0825C30.189 60.4929 32.9486 60.9534 33.6902 61H24.9367C23.9032 61 22.9629 60.6018 22.261 59.9508C21.4861 59.2314 21.001 58.2047 21.001 57.0646V34.8357H23.972V49.9883C24.0005 53.0513 27.5912 54.6951 29.9456 52.7357L34.4256 49.0051C34.6968 48.7802 35.1025 48.8212 35.3218 49.1015C35.5336 49.3714 35.4723 49.7671 35.2089 49.9864Z" fill="#FBA028"/>
</svg>
