<svg width="82" height="82" viewBox="0 0 82 82" fill="none" xmlns="http://www.w3.org/2000/svg">
<g opacity="0.6">
<path opacity="0.202381" d="M41 82C63.6437 82 82 63.6437 82 41C82 18.3563 63.6437 0 41 0C18.3563 0 0 18.3563 0 41C0 63.6437 18.3563 82 41 82Z" fill="#61C1B8"/>
<path opacity="0.202381" d="M41.0608 75.2359C59.936 75.2359 75.2374 59.9346 75.2374 41.0594C75.2374 22.1842 59.936 6.88281 41.0608 6.88281C22.1856 6.88281 6.88428 22.1842 6.88428 41.0594C6.88428 59.9346 22.1856 75.2359 41.0608 75.2359Z" fill="#61C1B8"/>
<path opacity="0.1" d="M41.0005 67.76C55.7795 67.76 67.7603 55.7793 67.7603 41.0002C67.7603 26.2212 55.7795 14.2405 41.0005 14.2405C26.2215 14.2405 14.2407 26.2212 14.2407 41.0002C14.2407 55.7793 26.2215 67.76 41.0005 67.76Z" fill="#61C1B8"/>
</g>
<path fill-rule="evenodd" clip-rule="evenodd" d="M28.8755 48.2586V55.3908H30.6767C30.9424 55.3908 31.1617 55.5536 31.1617 55.7531V58.0372H37.5601V55.7531C37.5601 55.5536 37.7794 55.3908 38.0483 55.3908H39.8495V48.2586H38.0483C37.7794 48.2586 37.5601 48.0958 37.5601 47.8985V45.6121H31.1617V47.8985C31.1617 48.0957 30.9424 48.2586 30.6767 48.2586H28.8755Z" fill="#B6B1B7"/>
<path fill-rule="evenodd" clip-rule="evenodd" d="M42.104 48.2586V55.3908H43.9888C44.2701 55.3908 44.4995 55.5536 44.4995 55.7531V58.0372H51.1949V55.7531C51.1949 55.5536 51.4245 55.3908 51.7057 55.3908H53.5905V48.2586H51.7057C51.4244 48.2586 51.1949 48.0958 51.1949 47.8985V45.6121H44.4995V47.8985C44.4995 48.0957 44.27 48.2586 43.9888 48.2586H42.104Z" fill="#B6B1B7"/>
<path fill-rule="evenodd" clip-rule="evenodd" d="M23.728 32.8032V43.1338H58.4822V32.8032L41.1039 22.77L23.728 32.8032Z" fill="#ECEAEC"/>
<path fill-rule="evenodd" clip-rule="evenodd" d="M21.2119 34.0351C21.6498 34.7942 22.6268 35.0557 23.3859 34.6176L23.7276 34.4204L41.1035 24.3872L58.4816 34.4204L58.8233 34.6176C59.5801 35.0557 60.5593 34.7942 60.9951 34.0351C61.433 33.2783 61.1717 32.2991 60.4126 31.8611L41.9772 21.2178C41.725 21.0711 41.4154 21 41.1035 21C40.7939 21 40.482 21.0711 40.2297 21.2178L21.7943 31.8611C21.0376 32.2991 20.7739 33.2783 21.2119 34.0351Z" fill="#20B58D"/>
<path fill-rule="evenodd" clip-rule="evenodd" d="M51.9204 47.0312H57.2591V56.6173H51.9204V47.0312Z" fill="#FFE07D"/>
<path fill-rule="evenodd" clip-rule="evenodd" d="M38.4346 47.0312H43.7733V56.6173H38.4346V47.0312Z" fill="#FFE07D"/>
<path fill-rule="evenodd" clip-rule="evenodd" d="M24.9482 47.0312H30.2892V56.6173H24.9482V47.0312Z" fill="#FFE07D"/>
<path fill-rule="evenodd" clip-rule="evenodd" d="M23.25 58.0368L27.1614 59.5183L31.985 58.0368V55.7527C31.985 55.5532 31.8222 55.3904 31.6249 55.3904H30.288H24.947H23.6101C23.4129 55.3904 23.25 55.5532 23.25 55.7527V58.0368Z" fill="#ECEAEC"/>
<path fill-rule="evenodd" clip-rule="evenodd" d="M50.2212 58.0368L54.9382 59.5183L58.9584 58.0368V55.7527C58.9584 55.5532 58.7956 55.3904 58.5961 55.3904H57.2591H51.9205H50.5835C50.3841 55.3904 50.2212 55.5532 50.2212 55.7527V58.0368Z" fill="#ECEAEC"/>
<path fill-rule="evenodd" clip-rule="evenodd" d="M36.7344 58.0368L41.1041 59.095L45.4716 58.0368V55.7527C45.4716 55.5532 45.3088 55.3904 45.1093 55.3904H43.7723H38.4337H37.0967C36.8972 55.3904 36.7344 55.5532 36.7344 55.7527V58.0368Z" fill="#ECEAEC"/>
<path fill-rule="evenodd" clip-rule="evenodd" d="M21.3725 60.9999H60.837C61.0411 60.9999 61.2085 60.8324 61.2085 60.6283V58.4084C61.2085 58.2043 61.0411 58.0369 60.837 58.0369H58.9588H50.2215H45.4722H36.7349H31.9856H23.2507H21.3725C21.1684 58.0369 21.001 58.2043 21.001 58.4084V60.6283C21.001 60.8325 21.1684 60.9999 21.3725 60.9999Z" fill="#138175"/>
<path fill-rule="evenodd" clip-rule="evenodd" d="M39.2495 29.9165C39.2495 30.9898 40.1186 31.8589 41.1919 31.8589C42.2629 31.8589 43.1343 30.9897 43.1343 29.9165C43.1343 28.8433 42.2629 27.9741 41.1919 27.9741C40.1187 27.974 39.2495 28.8432 39.2495 29.9165Z" fill="#FFE07D"/>
<path fill-rule="evenodd" clip-rule="evenodd" d="M41.1039 24.3875L23.728 34.4207V36.6773L41.1039 26.6441L58.4822 36.6773V34.4207L41.1039 24.3875Z" fill="#DAD8DB"/>
<path fill-rule="evenodd" clip-rule="evenodd" d="M41.1919 27.9741C40.1187 27.9741 39.2495 28.8433 39.2495 29.9165C39.2495 30.139 39.2862 30.35 39.355 30.5495C39.6416 29.8363 40.3411 29.3341 41.1552 29.3341C42.006 29.3341 42.7306 29.8821 42.992 30.6435C43.0838 30.4187 43.1343 30.1734 43.1343 29.9165C43.1343 28.8433 42.2629 27.9741 41.1919 27.9741Z" fill="#FFC269"/>
<path fill-rule="evenodd" clip-rule="evenodd" d="M24.9482 48.2585H30.2892V50.1987H24.9482V48.2585Z" fill="#FFC269"/>
<path fill-rule="evenodd" clip-rule="evenodd" d="M38.4346 48.2585H43.7733V50.1987H38.4346V48.2585Z" fill="#FFC269"/>
<path fill-rule="evenodd" clip-rule="evenodd" d="M51.9204 48.2585H57.2591V50.1987H51.9204V48.2585Z" fill="#FFC269"/>
<path fill-rule="evenodd" clip-rule="evenodd" d="M24.947 48.2582H30.288H31.6249C31.8221 48.2582 31.985 48.0954 31.985 47.8981V45.1262H23.25V47.8981C23.25 48.0953 23.4128 48.2582 23.6101 48.2582H24.947Z" fill="#ECEAEC"/>
<path fill-rule="evenodd" clip-rule="evenodd" d="M38.4337 48.2582H43.7724H45.1093C45.3089 48.2582 45.4717 48.0954 45.4717 47.8981V45.1262H36.7344V47.8981C36.7344 48.0953 36.8972 48.2582 37.0967 48.2582H38.4337Z" fill="#ECEAEC"/>
<path fill-rule="evenodd" clip-rule="evenodd" d="M50.5835 48.2582H51.9205H57.2591H58.5961C58.7955 48.2582 58.9584 48.0954 58.9584 47.8981V45.1262H50.2212V47.8981C50.2212 48.0954 50.384 48.2582 50.5835 48.2582Z" fill="#ECEAEC"/>
<path fill-rule="evenodd" clip-rule="evenodd" d="M23.25 45.6121H31.985V47.0316H23.25V45.6121Z" fill="#DAD8DB"/>
<path fill-rule="evenodd" clip-rule="evenodd" d="M36.7344 45.6121H45.4716V47.0316H36.7344V45.6121Z" fill="#DAD8DB"/>
<path fill-rule="evenodd" clip-rule="evenodd" d="M50.2212 45.6121H58.9584V47.0316H50.2212V45.6121Z" fill="#DAD8DB"/>
<path fill-rule="evenodd" clip-rule="evenodd" d="M23.2507 45.6122H31.9856H36.7349H45.4722H50.2215H58.9588H60.837C61.0411 45.6122 61.2085 45.4448 61.2085 45.2406V43.0207C61.2085 42.8166 61.0411 42.6492 60.837 42.6492H58.4818H23.7277H21.3725C21.1684 42.6492 21.001 42.8166 21.001 43.0207V45.2406C21.001 45.4448 21.1684 45.6122 21.3725 45.6122H23.2507Z" fill="#138175"/>
<path d="M33.7855 36.8936C33.952 36.6318 34.0498 36.3222 34.0498 35.9896C34.0498 35.0572 33.2912 34.2986 32.3588 34.2986H30.99C30.6549 34.2986 30.3833 34.5702 30.3833 34.9053V37.0751V37.0786V39.6174C30.3833 39.7788 30.4476 39.9336 30.562 40.0474C30.6758 40.1606 30.8296 40.2241 30.9901 40.2241H30.9928C30.9928 40.2241 32.251 40.2186 32.5979 40.2186C33.6318 40.2186 34.4729 39.3774 34.4729 38.3435C34.4729 37.7599 34.2048 37.2378 33.7855 36.8936ZM32.3588 35.5121C32.6221 35.5121 32.8362 35.7263 32.8362 35.9896C32.8362 36.2529 32.6221 36.4671 32.3588 36.4671C32.2586 36.4671 31.5969 36.4683 31.5969 36.4683V35.5121H32.3588ZM32.5978 39.005C32.4132 39.005 31.9711 39.0066 31.5969 39.0081V37.6828C31.6863 37.6825 32.5978 37.6818 32.5978 37.6818C32.9626 37.6818 33.2594 37.9786 33.2594 38.3435C33.2594 38.7082 32.9626 39.005 32.5978 39.005Z" fill="#6F6571"/>
<path d="M38.6834 34.7573C38.6813 34.7519 38.6792 34.7465 38.6771 34.741C38.5667 34.4722 38.3077 34.2986 38.0171 34.2986C38.0169 34.2986 38.0168 34.2986 38.0167 34.2986C37.7259 34.2987 37.4668 34.4728 37.3566 34.7419C37.3548 34.7465 37.3529 34.7511 37.3512 34.7558L35.5819 39.4014C35.4626 39.7146 35.6198 40.0652 35.933 40.1844C36.2458 40.3037 36.5967 40.1465 36.716 39.8334L37.0078 39.0671H39.013L39.3016 39.8316C39.3932 40.0746 39.6242 40.2244 39.8693 40.2244C39.9404 40.2244 40.0129 40.2118 40.0834 40.1852C40.3969 40.0668 40.5552 39.7167 40.4368 39.4032L38.6834 34.7573ZM37.4698 37.8536L38.0148 36.4226L38.5549 37.8536H37.4698Z" fill="#6F6571"/>
<path d="M45.6036 34.2986C45.6016 34.2986 45.5996 34.2986 45.5976 34.2987C45.2624 34.3019 44.9934 34.5762 44.9967 34.9112L45.0239 37.7248L42.8449 34.5694C42.694 34.3508 42.4189 34.256 42.165 34.3349C41.9115 34.4139 41.7388 34.6486 41.7388 34.9141V39.6173C41.7388 39.9524 42.0104 40.2241 42.3455 40.2241C42.6806 40.2241 42.9522 39.9524 42.9522 39.6173V36.8605L45.0264 39.8639C45.2038 40.1205 45.5005 40.2296 45.7818 40.1418C46.0687 40.0522 46.2541 39.784 46.2541 39.4526L46.2101 34.8994C46.2069 34.5664 45.9359 34.2986 45.6036 34.2986Z" fill="#6F6571"/>
<path d="M51.7799 39.1811L49.6605 37.1363L51.5998 35.3537C51.8466 35.1269 51.8628 34.7431 51.636 34.4963C51.4093 34.2496 51.0253 34.2334 50.7786 34.4603L49.2296 35.8841V34.8467C49.2296 34.5116 48.9579 34.24 48.6229 34.24C48.2878 34.24 48.0161 34.5116 48.0161 34.8467V39.6177C48.0161 39.9528 48.2878 40.2244 48.6229 40.2244C48.9579 40.2244 49.2296 39.9528 49.2296 39.6177V38.4067L50.9373 40.0544C51.0551 40.1681 51.2069 40.2245 51.3585 40.2245C51.5175 40.2245 51.6762 40.1625 51.7952 40.039C52.028 39.7979 52.0211 39.4137 51.7799 39.1811Z" fill="#6F6571"/>
</svg>
