<svg width="82" height="82" viewBox="0 0 82 82" fill="none" xmlns="http://www.w3.org/2000/svg">
<g opacity="0.6">
<path opacity="0.202381" d="M41 82C63.6437 82 82 63.6437 82 41C82 18.3563 63.6437 0 41 0C18.3563 0 0 18.3563 0 41C0 63.6437 18.3563 82 41 82Z" fill="white"/>
<path opacity="0.202381" d="M41.0608 75.2359C59.936 75.2359 75.2374 59.9346 75.2374 41.0594C75.2374 22.1842 59.936 6.88281 41.0608 6.88281C22.1856 6.88281 6.88428 22.1842 6.88428 41.0594C6.88428 59.9346 22.1856 75.2359 41.0608 75.2359Z" fill="white"/>
<path opacity="0.1" d="M41.0005 67.76C55.7795 67.76 67.7603 55.7793 67.7603 41.0002C67.7603 26.2212 55.7795 14.2405 41.0005 14.2405C26.2215 14.2405 14.2407 26.2212 14.2407 41.0002C14.2407 55.7793 26.2215 67.76 41.0005 67.76Z" fill="white"/>
</g>
<path d="M56.668 42.4922H25.332C24.7938 42.4922 24.3181 42.1424 24.1576 41.6287L20.056 28.5037C19.9393 28.1302 20.0072 27.7233 20.2391 27.4079C20.471 27.0925 20.839 26.9062 21.2305 26.9062H60.7695C61.1609 26.9062 61.529 27.0925 61.7609 27.4079C61.9928 27.7233 62.0607 28.1302 61.944 28.5036L57.8424 41.6286C57.6819 42.1425 57.2062 42.4922 56.668 42.4922Z" fill="#2B5250"/>
<path d="M61.7609 27.4079C61.5291 27.0925 61.161 26.9062 60.7696 26.9062H41V42.4922H56.668C57.2062 42.4922 57.6819 42.1424 57.8424 41.6287L61.944 28.5037C62.0608 28.1302 61.9928 27.7233 61.7609 27.4079Z" fill="#2E2654"/>
<path d="M26.2368 40.0312L22.9043 29.3672H59.096L55.7636 40.0312H26.2368Z" fill="#FFE196"/>
<path d="M41 40.0312H55.7634L59.0958 29.3672H41V40.0312Z" fill="#FFB454"/>
<path d="M53.3867 63H28.6133L20 54.3867V41.2617C20 40.5822 20.5509 40.0312 21.2305 40.0312H34.8477L41 41.6719L47.1523 40.0312H60.7695C61.4491 40.0312 62 40.5822 62 41.2617V54.3867L53.3867 63Z" fill="#138175"/>
<path d="M60.7695 40.0312H47.1523L41 41.6719V63H53.3867L62 54.3867V41.2617C62 40.5822 61.4492 40.0312 60.7695 40.0312Z" fill="#2B5250"/>
<path d="M60.7695 63H53.3867C52.7072 63 52.1562 62.4491 52.1562 61.7695C52.1562 57.0202 56.0202 53.1562 60.7695 53.1562C61.4491 53.1562 62 53.7072 62 54.3867V61.7695C62 62.4491 61.4492 63 60.7695 63Z" fill="#FF8659"/>
<path d="M28.6133 63H21.2305C20.5509 63 20 62.4491 20 61.7695V54.3867C20 53.7072 20.5509 53.1562 21.2305 53.1562C25.9798 53.1562 29.8438 57.0202 29.8438 61.7695C29.8438 62.4491 29.2929 63 28.6133 63Z" fill="#FFB454"/>
<path d="M45.9219 52.3359H36.0781C35.3986 52.3359 34.8477 51.785 34.8477 51.1055V40.0312H47.1523V51.1055C47.1523 51.785 46.6015 52.3359 45.9219 52.3359Z" fill="#FFB454"/>
<path d="M45.9219 52.3359H41V40.0312H47.1523V51.1055C47.1523 51.785 46.6015 52.3359 45.9219 52.3359Z" fill="#FF8659"/>
<path d="M37.3086 42.4922H44.6914V49.875H37.3086V42.4922Z" fill="#FFE196"/>
<path d="M41 42.4922H44.6914V49.875H41V42.4922Z" fill="#FFB454"/>
<path d="M41 44.9531C40.3205 44.9531 39.7695 45.504 39.7695 46.1836C39.7695 46.8631 40.3205 47.4141 41 47.4141C41.6795 47.4141 42.2305 46.8631 42.2305 46.1836C42.2305 45.504 41.6796 44.9531 41 44.9531Z" fill="#FFB454"/>
<path d="M41 44.9531V47.4141C41.6795 47.4141 42.2305 46.8631 42.2305 46.1836C42.2305 45.504 41.6796 44.9531 41 44.9531Z" fill="#FF8659"/>
<path d="M60.7695 29.3672H21.2305C20.5509 29.3672 20 28.8163 20 28.1367V24.6914C20 22.656 21.656 21 23.6914 21H58.3086C60.344 21 62 22.656 62 24.6914V28.1367C62 28.8163 61.4492 29.3672 60.7695 29.3672Z" fill="#138175"/>
<path d="M58.3086 21H41V29.3672H60.7695C61.4491 29.3672 62 28.8163 62 28.1367V24.6914C62 22.656 60.3441 21 58.3086 21Z" fill="#2B5250"/>
<path d="M61.3792 53.1043L61.381 53.1039L61.6497 53.0437C62.0006 53.0039 62.3541 52.9912 62.7071 53.0059C63.2324 53.0328 63.7284 53.0694 64.2365 53.1448L64.2785 53.1511L64.321 53.1538C64.5173 53.166 64.7423 53.2043 65.0176 53.2549L65.0257 53.2564L65.0339 53.2577L65.2242 53.2895C65.2699 53.2978 65.3142 53.3059 65.3574 53.3137C65.6459 53.3661 65.8814 53.4089 66.1106 53.4721L66.1106 53.4722L66.1182 53.4742C66.5252 53.583 66.9263 53.7122 67.3203 53.8613C67.67 53.9952 68.002 54.1711 68.3092 54.3852C68.3094 54.3854 68.3096 54.3856 68.3099 54.3857L68.4736 54.5003L68.4829 54.5069L68.4923 54.5132C68.6437 54.6141 68.7957 54.7204 68.9482 54.8322C69.2027 55.0218 69.4362 55.1984 69.6829 55.3989C69.8861 55.5641 70.0779 55.7397 70.2969 55.9401C70.332 55.9723 70.3678 56.0051 70.4045 56.0386L70.4161 56.0492L70.4279 56.0593L70.4554 56.0828C70.6885 56.295 70.914 56.5056 71.1261 56.7177L71.1274 56.719C71.5065 57.0968 71.8653 57.4945 72.2022 57.9105C72.3453 58.1006 72.4529 58.3151 72.5198 58.5436L72.5263 58.566L72.5339 58.588C72.5949 58.7657 72.6637 58.9608 72.7393 59.1593L72.8543 59.4832C72.8848 59.5731 72.913 59.6557 72.941 59.7381C72.9985 59.9068 73.0556 60.0746 73.1326 60.3019C73.2462 60.6375 73.3531 60.9637 73.454 61.2929L73.4619 61.3188L73.4712 61.3442C73.515 61.4635 73.5604 61.6193 73.6068 61.7997L73.6097 61.8112L73.613 61.8226L73.6833 62.0717L73.6898 62.0954C73.7556 62.3366 73.8058 62.5205 73.8392 62.7043L73.8412 62.7154L73.8435 62.7264C73.9178 63.0885 73.97 63.4548 73.9999 63.8232C74.0014 63.9835 73.9849 64.1434 73.9507 64.3L73.9277 64.4055V64.5057C73.8615 64.8648 73.7863 65.2225 73.7022 65.5788C73.6311 65.8681 73.5491 66.1608 73.4607 66.4524L73.4241 66.5672L73.4241 66.5672L73.4202 66.5798C73.3354 66.8591 73.247 67.1386 73.1551 67.4181C72.9833 67.9046 72.7795 68.3793 72.5449 68.8388L72.5377 68.8528L72.531 68.867C72.3903 69.1655 72.1942 69.4347 71.9532 69.6602L71.7087 69.8835C71.7079 69.8843 71.707 69.885 71.7062 69.8858C71.5606 70.017 71.4146 70.1509 71.2732 70.2804C71.0074 70.524 70.7582 70.7523 70.5601 70.9197C70.4637 71.0012 70.3664 71.0839 70.2698 71.166C70.0346 71.3659 69.8035 71.5624 69.5992 71.7289C69.3687 71.9168 69.1326 72.0965 68.883 72.2866C68.8278 72.3286 68.772 72.3711 68.7154 72.4143L68.7154 72.4143L68.7084 72.4197L68.6093 72.4968L68.6093 72.4968L68.6036 72.5013L68.499 72.5839L68.4736 72.6039L68.4497 72.6255C68.3252 72.7375 68.1817 72.8474 68.0296 72.9446L68.0273 72.9461L67.9502 72.9956L67.9204 73.0148L67.892 73.0361C67.8127 73.0953 67.7254 73.1427 67.6326 73.1768L67.4407 73.233C67.377 73.2508 67.322 73.2701 67.2874 73.2824L67.2556 73.2939H67.2412L67.139 73.3155C66.7566 73.3963 66.38 73.4705 66.0069 73.5335C65.3923 73.636 64.7757 73.728 64.1556 73.8151C64.1358 73.8177 64.1165 73.8202 64.0976 73.8227C63.8508 73.855 63.678 73.8776 63.5134 73.8776H63.4948L63.4762 73.8783L62.4596 73.9162H62.1895C61.9701 73.9121 61.7525 73.8761 61.5434 73.8093L61.53 73.8051L61.5165 73.8012C60.8793 73.6173 60.2592 73.3784 59.6633 73.0871L59.6533 73.0822L59.6432 73.0776C59.1605 72.8547 58.6525 72.6006 58.2123 72.3595C57.7686 72.1165 57.3277 71.8562 56.8891 71.5834L56.8846 71.5806C56.7256 71.4829 56.5753 71.3717 56.4354 71.2482C56.3317 71.15 56.2343 71.0454 56.1438 70.9348L56.1439 70.9347L56.138 70.9277L56.0592 70.8332L56.0554 70.8286L55.9821 70.7396L55.9821 70.7395C55.9288 70.6749 55.8812 70.6179 55.8374 70.5655C55.7334 70.4411 55.6514 70.3432 55.5698 70.2321L55.5699 70.2321L55.5624 70.2222C55.2662 69.8296 54.9789 69.4316 54.7006 69.0284L54.6849 69.0056L54.6679 68.9836C54.4947 68.7603 54.3478 68.5301 54.1823 68.2577C53.9406 67.8576 53.7307 67.4392 53.5542 67.0063C53.4605 66.7745 53.388 66.5347 53.3376 66.2898C53.229 65.7571 53.1447 65.1909 53.0682 64.6446C53.0272 64.3257 53 64.0221 53 63.7369V63.7357V63.7344V63.7332V63.7319V63.7307V63.7294V63.7281V63.7269V63.7256V63.7244V63.7231V63.7218V63.7206V63.7193V63.7181V63.7168V63.7155V63.7143V63.713V63.7118V63.7105V63.7092V63.708V63.7067V63.7054V63.7042V63.7029V63.7017V63.7004V63.6991V63.6979V63.6966V63.6954V63.6941V63.6928V63.6916V63.6903V63.689V63.6878V63.6865V63.6853V63.684V63.6827V63.6815V63.6802V63.6789V63.6777V63.6764V63.6751V63.6739V63.6726V63.6714V63.6701V63.6688V63.6676V63.6663V63.665V63.6638V63.6625V63.6612V63.66V63.6587V63.6574V63.6562V63.6549V63.6536V63.6524V63.6511V63.6498V63.6486V63.6473V63.646V63.6448V63.6435V63.6422V63.641V63.6397V63.6384V63.6372V63.6359V63.6346V63.6334V63.6321V63.6308V63.6296V63.6283V63.627V63.6258V63.6245V63.6232V63.622V63.6207V63.6194V63.6182V63.6169V63.6156V63.6144V63.6131V63.6118V63.6106V63.6093V63.608V63.6068V63.6055V63.6042V63.6029V63.6017V63.6004V63.5991V63.5979V63.5966V63.5953V63.5941V63.5928V63.5915V63.5902V63.589V63.5877V63.5864V63.5852V63.5839V63.5826V63.5814V63.5801V63.5788V63.5775V63.5763V63.575V63.5737V63.5725V63.5712V63.5699V63.5687V63.5674V63.5661V63.5648V63.5636V63.5623V63.561V63.5598V63.5585V63.5572V63.5559V63.5547V63.5534V63.5521V63.5509V63.5496V63.5483V63.547V63.5458V63.5445V63.5432V63.542V63.5407V63.5394V63.5381V63.5369V63.5356V63.5343V63.533V63.5318V63.5305V63.5292V63.528V63.5267V63.5254V63.5241V63.5229V63.5216V63.5203V63.519V63.5178V63.5165V63.5152V63.514V63.5127V63.5114V63.5101V63.5089V63.5076V63.5063V63.505V63.5038V63.5025V63.5012V63.5V63.4987V63.4974V63.4961V63.4949V63.4936V63.4923V63.491V63.4898V63.4885V63.4872V63.4859V63.4847V63.4834V63.4821V63.4808V63.4796V63.4783V63.477V63.4758V63.4745V63.4732V63.4719V63.4707V63.4694V63.4681V63.4668V63.4656V63.4643V63.463V63.4617V63.4605V63.4592V63.4579V63.4566V63.4554V63.4541V63.4528V63.4515V63.4503V63.449V63.4477V63.4464V63.4452V63.4439V63.4426V63.4413V63.4401V63.4388V63.4375V63.4363V63.435V63.4337V63.4324V63.4312V63.4299V63.4286V63.4273V63.4261V63.4248V63.4235V63.4222V63.421V63.4197V63.4184V63.4171V63.4159V63.4146V63.4133V63.412V63.4108V63.4095V63.4082V63.4069V63.4057V63.4044V63.4031V63.4018V63.4006V63.3993V63.398V63.3967V63.3955V63.3942V63.3929V63.3916V63.3904V63.3891V63.3878V63.3865V63.3853V63.384V63.3827V63.3814V63.3802V63.3789V63.3776V63.3763V63.3751V63.3738V63.3725V63.3713V63.37V63.3687V63.3674V63.3662V63.3649V63.3636V63.3623V63.3611V63.3598V63.3585V63.3572V63.356V63.3547V63.3534V63.3521V63.3509V63.3496V63.3483V63.347V63.3458V63.3445V63.3432V63.3419V63.3407V63.3394V63.3381V63.3369V63.3356V63.3343V63.333V63.3318V63.3305V63.3292V63.3279V63.3267V63.3254V63.3241V63.3228V63.3216V63.3203V63.319V63.3177V63.3165V63.3152V63.3139V63.3127V63.3114V63.3101V63.3088V63.3076V63.3063V63.305V63.3037V63.3025V63.3012V63.2999V63.2987V63.2974V63.2961V63.2948V63.2936V63.2923V63.291V63.2897V63.2885V63.2872V63.2859V63.2847V63.2834V63.2821V63.2808V63.2796V63.2783V63.277V63.2758V63.2745V63.2732V63.2719V63.2707V63.2694V63.2681V63.2669V63.2656V63.2643V63.263V63.2618V63.2605V63.2592V63.258V63.2567V63.2554V63.2541V63.2529V63.2516V63.2503V63.2491V63.2478V63.2465V63.2452V63.244V63.2427V63.2414V63.2402V63.2389V63.2376V63.2364V63.2351V63.2338V63.2325V63.2313V63.23V63.2287V63.2275V63.2262V63.2249V63.2237V63.2224V63.2211V63.2199V63.2186V63.2173V63.2161V63.2148V63.2135V63.2122V63.211V63.2097V63.2084V63.2072V63.2059V63.2046V63.2034V63.2021V63.2008V63.1996V63.1983V63.197V63.1958V63.1945V63.1932V63.192V63.1907V63.1894V63.1882V63.1869V63.1856V63.1844V63.1831V63.1818V63.1806V63.1793V63.178V63.1768V63.1755V63.1742V63.173V63.1717V63.1704V63.1692V63.1679V63.1666V63.1654V63.1641V63.1628V63.1616V63.1603V63.159V63.1578V63.1565V63.1552V63.154V63.1527V63.1515V63.1502V63.1489V63.1477V63.1464V63.1451V63.1439V63.1426V63.1413V63.1401V63.1388V63.1376V63.1363V63.135V63.1338V63.1325V63.1312V63.13V63.1287V63.1275V63.1262V63.1249V63.1237V63.1224V63.1211V63.1199V63.1186V63.1174V63.1161V63.1148V63.1136V63.1123V63.1111V63.1098V63.1085V63.1073V63.106V63.1048V63.1035V63.1022V63.101V63.0997V63.0985V63.0972V63.0959V63.0947V63.0934V63.0922V63.0909V63.0896V63.0884V63.0871V62.9164V62.915V62.9136V62.9122V62.9108V62.9095V62.9081V62.9067V62.9053V62.9039V62.9025V62.9011V62.8997V62.8983V62.8969V62.8955V62.8941V62.8927V62.8912V62.8898V62.8884V62.887V62.8856V62.8842V62.8828V62.8814V62.88V62.8785V62.8771V62.8757V62.8743V62.8729V62.8714V62.87V62.8686V62.8672V62.8657V62.8643V62.8629V62.8615V62.86V62.8586V62.8572V62.8557V62.8543V62.8529V62.8514V62.85V62.8486V62.8471V62.8457V62.8442V62.8428V62.8414V62.8399V62.8385V62.837V62.8356V62.8341V62.8327V62.8312V62.8298V62.8283V62.8269V62.8254V62.824V62.8225V62.8211V62.8196V62.8181V62.8167V62.8152V62.8138V62.8123V62.8108V62.8094V62.8079V62.8064V62.805V62.8035V62.802V62.8006V62.7991V62.7976V62.7962V62.7947V62.7932V62.7917V62.7903V62.7888V62.7873V62.7858V62.7844V62.7829V62.7814V62.7799V62.7784V62.777V62.7755V62.774V62.7725V62.771V62.7695V62.7681V62.7666V62.7651V62.7636V62.7621V62.7606V62.7591V62.7576V62.7561V62.7546V62.7531V62.7516V62.7502V62.7487V62.7472V62.7457V62.7442V62.7427V62.7412V62.7397V62.7382V62.7366V62.7351V62.7336V62.7321V62.7306V62.7291V62.7276V62.7261V62.7246V62.7231V62.7216V62.7201V62.7186V62.717V62.7155V62.714V62.7125V62.711V62.7095V62.708V62.7064V62.7049V62.7034V62.7019V62.7004V62.6988V62.6973V62.6958V62.6943V62.6927V62.6912V62.6897V62.6882V62.6866V62.6851V62.6836V62.6821V62.6805V62.679V62.6775V62.676V62.6744V62.6729V62.6714V62.6698V62.6683V62.6668V62.6652V62.6637V62.6622V62.6606V62.6591V62.6575V62.656V62.6545V62.6529V62.6514V62.6498V62.6483V62.6468V62.6452V62.6437V62.6421V62.6406V62.639V62.6375V62.636V62.6344V62.6329V62.6313V62.6298V62.6282V62.6267V62.6251V62.6236V62.622V62.6205V62.6189V62.6174V62.6158V62.6143V62.6127V62.6112V62.6096V62.6081V62.6065V62.605V62.6034V62.6018V62.6003V62.5987V62.5972V62.5956V62.5941V62.5925V62.5909V62.5894V62.5878V62.5863V62.5847V62.5831V62.5816V62.58V62.5785V62.5769V62.5753V62.5738V62.5722V62.5706V62.5691V62.5675V62.5659V62.5644V62.5628V62.5612V62.5597V62.5581V62.5565V62.555V62.5534V62.5518V62.5503V62.5487V62.5471V62.5456V62.544V62.5424V62.5408V62.5393V62.5377V62.5361V62.5346V62.533V62.5314V62.5298V62.5283V62.5267V62.5251V62.5235V62.522V62.5204V62.5188V62.5172V62.5157V62.5141V62.5125V62.5109V62.5093V62.5078V62.5062V62.5046V62.503V62.5015V62.4999V62.4983V62.4967V62.4951V62.4936V62.492V62.4904V62.4888V62.4872V62.4857V62.4841V62.4825V62.4809V62.4793V62.4778V62.4762V62.4746V62.473V62.4714V62.4698V62.4683V62.4667V62.4651V62.4635V62.4619V62.4603V62.4588V62.4572V62.4556V62.454V62.4524V62.4508V62.4492V62.4477V62.4461V62.4445V62.4429V62.4413V62.4397V62.4381V62.4366V62.435V62.4334V62.4318V62.4302V62.4286V62.427V62.4255V62.4239V62.4223V62.4207V62.4191V62.4175V62.4159V62.4143V62.4128V62.4112V62.4096V62.408V62.4064V62.4048V62.4032V62.4016V62.4V62.3985V62.3969V62.3953V62.3937V62.3921V62.3905V62.3889V62.3873V62.3858V62.3842V62.3826V62.381V62.3794V62.3778V62.3762V62.3746V62.373V62.3715V62.3699V62.3683V62.3667V62.3651V62.3635V62.3619V62.3603V62.3587V62.3572V62.3556V62.354V62.3524V62.3508V62.3492V62.3476V62.346V62.3445V62.3429V62.3413V62.3397V62.3381V62.3365V62.3349V62.3333V62.3318V62.3302V62.3286V62.327V62.3254V62.3238V62.3222V62.3206V62.3191V62.3175V62.3159V62.3143V62.3127V62.3111V62.3095V62.308V62.3064V62.3048V62.3032V62.3016V62.3V62.2984V62.2969V62.2953V62.2937V62.2921V62.2905V62.2889V62.2874V62.2858V62.2842V62.2826V62.281V62.2794V62.2779V62.2763V62.2747V62.2731V62.2715V62.27V62.2684V62.2668V62.2652V62.2636V62.262V62.2605V62.2589V62.2573V62.2557V62.2541V62.2526V62.251V62.2494V62.2478V62.2463V62.2447V62.2431V62.2415V62.2399V62.2384V62.2368V62.2352V62.2336V62.2321V62.2305V62.2289V62.2273V62.2258V62.2242V62.2226V62.2211V62.2195V62.2179V62.2163V62.2148V62.2132V62.2116V62.21V62.2085V62.2069V62.2053V62.2038V62.2022V62.2006V62.1991V62.1975V62.1959V62.1944V62.1928V62.1912V62.1897V62.1881V62.1865V62.185V62.1834V62.1818V62.1803V62.1787V62.1771V62.1756V62.174V62.1725V62.1709V62.1693V62.1678V62.1662V62.1647V62.1639C53.033 61.7034 53.0961 61.2456 53.1889 60.7933L53.1913 60.7814L53.1935 60.7694C53.2864 60.2521 53.4507 59.7503 53.6815 59.2782C53.9014 58.8492 54.1375 58.4243 54.3847 58.0087L54.4015 57.9803L54.4165 57.9509C54.5226 57.7424 54.6453 57.5659 54.8198 57.3148C54.8448 57.2788 54.8709 57.2414 54.8981 57.202L54.8981 57.202L54.9463 57.1323C54.9466 57.132 54.9468 57.1317 54.947 57.1314C54.9623 57.1094 54.9773 57.0878 54.992 57.0666C55.1575 56.8284 55.2935 56.6326 55.4428 56.4542L55.4486 56.4473L55.4543 56.4402C55.7026 56.1324 55.9659 55.837 56.2431 55.555C56.3345 55.4737 56.4341 55.402 56.5401 55.341L56.5653 55.3265L56.5897 55.3106L56.746 55.2081C56.9493 55.0772 57.1541 54.9516 57.3604 54.8313L57.3604 54.8313L57.367 54.8273C57.7086 54.6245 58.1145 54.3949 58.3978 54.2427C58.5325 54.1703 58.6899 54.0909 58.8518 54.0096C58.8644 54.0033 58.877 53.997 58.8897 53.9906C59.0327 53.9188 59.183 53.8433 59.3005 53.7803C59.4253 53.7133 59.5824 53.6549 59.8111 53.5698C59.8563 53.553 59.9042 53.5352 59.9552 53.516C60.2232 53.4155 60.4828 53.3223 60.6766 53.2706L60.4189 52.3044L60.6766 53.2706C60.9008 53.2108 61.1282 53.1601 61.3792 53.1043Z" fill="#FFD064" stroke="#FFC250" stroke-width="2"/>
<path d="M62.4855 60.7503C62.4119 60.7135 62.2279 60.6628 61.9335 60.5982C61.6483 60.5337 61.3631 60.5014 61.0779 60.5014C60.2776 60.5014 59.6612 60.7596 59.2288 61.2758C58.7964 61.7921 58.5802 62.5297 58.5802 63.4885C58.5802 64.4565 58.7964 65.2032 59.2288 65.7287C59.6704 66.2542 60.2868 66.517 61.0779 66.517C61.4643 66.517 61.7863 66.4663 62.0439 66.3649C62.3107 66.2542 62.4579 66.1943 62.4855 66.1851L62.7753 64.982L64.1138 65.2862L63.6998 67.2499C63.6998 67.2591 63.571 67.319 63.3134 67.4297C63.0651 67.5311 62.7431 67.6279 62.3475 67.7201C61.9611 67.8123 61.5379 67.8584 61.0779 67.8584C59.7992 67.8584 58.7872 67.485 58.0421 66.7382C57.2969 65.9915 56.9243 64.899 56.9243 63.4608C56.9243 62.5758 57.0945 61.8106 57.4349 61.1652C57.7845 60.5106 58.2675 60.0128 58.8838 59.6717C59.5094 59.3306 60.2362 59.16 61.0641 59.16C61.5793 59.16 62.0347 59.2154 62.4303 59.326C62.8259 59.4274 63.1433 59.538 63.3824 59.6579C63.6216 59.7777 63.7412 59.8469 63.7412 59.8653L64.1276 61.8152L62.7753 62.1194L62.4855 60.7503Z" fill="#E49542"/>
<path d="M66.4517 66.1436C66.8013 66.2727 67.1279 66.351 67.4315 66.3787V64.0554C66.6587 63.9356 66.07 63.6728 65.6652 63.2672C65.2604 62.8616 65.058 62.3407 65.058 61.7045C65.058 61.0592 65.2742 60.5429 65.7066 60.1557C66.1482 59.7593 66.7231 59.5519 67.4315 59.5334V58.2888H68.5768V59.5334C69.2392 59.5426 69.8832 59.7501 70.5088 60.1557L70.7434 62.0226L69.4876 62.1471L69.3082 61.0131C69.1058 60.8748 68.862 60.8011 68.5768 60.7918V62.9906L68.8114 63.0321C69.5382 63.1612 70.0856 63.4009 70.4536 63.7512C70.8308 64.1015 71.0193 64.5994 71.0193 65.2447C71.0193 65.9362 70.8078 66.4893 70.3846 66.9042C69.9614 67.319 69.3542 67.5541 68.5631 67.6094V68.7296H67.4315V67.6094C67.0267 67.5818 66.6403 67.5219 66.2723 67.4297C65.9136 67.3375 65.61 67.2361 65.3616 67.1254L65.127 65.4245L66.3275 65.2862L66.4517 66.1436ZM67.4315 60.7227C67.0635 60.7319 66.7829 60.8195 66.5897 60.9854C66.3965 61.1514 66.2999 61.3773 66.2999 61.6631C66.2999 61.9581 66.3919 62.1978 66.5759 62.3822C66.7691 62.5665 67.0543 62.7048 67.4315 62.797V60.7227ZM68.5631 66.3649C68.9402 66.2911 69.23 66.162 69.4324 65.9776C69.6348 65.784 69.736 65.5397 69.736 65.2447C69.736 64.922 69.6394 64.6823 69.4462 64.5256C69.2622 64.3689 68.9678 64.2721 68.5631 64.2352V66.3649Z" fill="#E49542"/>
</svg>
