<svg width="82" height="82" viewBox="0 0 82 82" fill="none" xmlns="http://www.w3.org/2000/svg">
<g opacity="0.6">
<path opacity="0.202381" d="M41 82C63.6437 82 82 63.6437 82 41C82 18.3563 63.6437 0 41 0C18.3563 0 0 18.3563 0 41C0 63.6437 18.3563 82 41 82Z" fill="#61C1B8"/>
<path opacity="0.202381" d="M41.0608 75.2359C59.936 75.2359 75.2374 59.9346 75.2374 41.0594C75.2374 22.1842 59.936 6.88281 41.0608 6.88281C22.1856 6.88281 6.88428 22.1842 6.88428 41.0594C6.88428 59.9346 22.1856 75.2359 41.0608 75.2359Z" fill="#61C1B8"/>
<path opacity="0.1" d="M41.0005 67.76C55.7795 67.76 67.7603 55.7793 67.7603 41.0002C67.7603 26.2212 55.7795 14.2405 41.0005 14.2405C26.2215 14.2405 14.2407 26.2212 14.2407 41.0002C14.2407 55.7793 26.2215 67.76 41.0005 67.76Z" fill="#61C1B8"/>
</g>
<path d="M59.5301 23H27.9006C27.0429 23 26.3477 23.6954 26.3477 24.5532V31.7353H54.3652C55.2229 31.7353 55.9181 32.4308 55.9181 33.2884V50.3703H65.8181C66.6758 50.3703 67.3711 49.6751 67.3711 48.8173V24.5532C67.3711 23.6954 66.6758 23 65.8181 23H62.4864" fill="#CED6D8"/>
<path d="M65.8175 23H40.8085C39.2548 34.7019 45.6878 45.7775 56.2723 50.3702H65.8176C66.6754 50.3702 67.3706 49.675 67.3706 48.8172V24.553C67.3705 23.6954 66.6753 23 65.8175 23Z" fill="#E3E7E8"/>
<path d="M67.3709 38.6094H55.918V45.0803H67.3709V38.6094Z" fill="#636362"/>
<path d="M67.3709 38.6094H55.918V41.8449H67.3709V38.6094Z" fill="#767574"/>
<path d="M19.9339 59.0001H16.553C15.6952 59.0001 15 58.3048 15 57.4471V33.1826C15 32.3251 15.6952 31.6296 16.553 31.6296H54.4704C55.3281 31.6296 56.0233 32.3251 56.0233 33.1826V57.447C56.0233 58.3047 55.3281 59 54.4704 59H22.9963" fill="#138175"/>
<path d="M54.47 31.6296H29.4609C27.9082 43.3162 34.3273 54.4015 44.9246 58.9999H54.4701C55.3278 58.9999 56.023 58.3046 56.023 57.4469V33.1825C56.023 32.325 55.3277 31.6296 54.47 31.6296Z" fill="#20B58D"/>
<path d="M26.485 40.229C26.485 41.0868 25.7895 41.782 24.9318 41.782H21.3083C20.4506 41.782 19.7554 41.0868 19.7554 40.229V37.6409C19.7554 36.7831 20.4506 36.0876 21.3083 36.0876H24.9319C25.7896 36.0876 26.4851 36.7831 26.4851 37.6409L26.485 40.229Z" fill="#FEC970"/>
<path d="M24.931 38.9345H21.3075C20.4936 38.9345 19.827 38.308 19.7613 37.511C19.7522 37.6195 19.7547 37.3932 19.7547 40.2287C19.7547 41.0865 20.45 41.7817 21.3076 41.7817H24.9312C25.789 41.7817 26.4844 41.0865 26.4844 40.2287C26.4844 37.3941 26.4869 37.6196 26.4779 37.511C26.4117 38.308 25.7451 38.9345 24.931 38.9345Z" fill="#E49542"/>
<path d="M51.554 49.3902H19.4697C19.0323 49.3902 18.6777 49.0357 18.6777 48.5983C18.6777 48.1609 19.0323 47.8064 19.4697 47.8064H51.5541C51.9915 47.8064 52.346 48.1609 52.346 48.5983C52.346 49.0357 51.9915 49.3902 51.554 49.3902Z" fill="#E1E4E5"/>
<path d="M51.554 52.9922H19.4697C19.0323 52.9922 18.6777 52.6377 18.6777 52.2003C18.6777 51.7629 19.0323 51.4084 19.4697 51.4084H51.5541C51.9915 51.4084 52.346 51.763 52.346 52.2003C52.346 52.6377 51.9915 52.9922 51.554 52.9922Z" fill="#E1E4E5"/>
</svg>
