<svg width="82" height="82" viewBox="0 0 82 82" fill="none" xmlns="http://www.w3.org/2000/svg">
<g opacity="0.6">
<path opacity="0.202381" d="M41 82C63.6437 82 82 63.6437 82 41C82 18.3563 63.6437 0 41 0C18.3563 0 0 18.3563 0 41C0 63.6437 18.3563 82 41 82Z" fill="#61C1B8"/>
<path opacity="0.202381" d="M41.0608 75.2359C59.936 75.2359 75.2374 59.9346 75.2374 41.0594C75.2374 22.1842 59.936 6.88281 41.0608 6.88281C22.1856 6.88281 6.88428 22.1842 6.88428 41.0594C6.88428 59.9346 22.1856 75.2359 41.0608 75.2359Z" fill="#61C1B8"/>
<path opacity="0.1" d="M41.0005 67.76C55.7795 67.76 67.7603 55.7793 67.7603 41.0002C67.7603 26.2212 55.7795 14.2405 41.0005 14.2405C26.2215 14.2405 14.2407 26.2212 14.2407 41.0002C14.2407 55.7793 26.2215 67.76 41.0005 67.76Z" fill="#61C1B8"/>
</g>
<path d="M20.9946 42.4974C20.9946 54.3729 30.6215 63.9998 42.497 63.9998C54.3724 63.9998 63.9993 54.3729 63.9993 42.4974C63.9993 30.622 54.3724 20.9951 42.497 20.9951V42.4974H20.9946Z" fill="#ECEAEC"/>
<path d="M42.497 42.4978L50.6974 62.3805C48.1707 63.4245 45.4005 64.0002 42.497 64.0002C30.6222 64.0002 20.9946 54.3735 20.9946 42.4978H42.497Z" fill="#20B58D"/>
<path d="M58.3133 27.9312L42.4966 42.4975V20.9951C48.7533 20.9951 54.3853 23.6672 58.3133 27.9312Z" fill="#61C1B8"/>
<path d="M18 39.5023H39.5023V18C27.6269 18 18 27.6269 18 39.5023Z" fill="#FEC970"/>
<path d="M29.5165 30.7317C29.5141 30.7253 29.5115 30.7189 29.5089 30.7125C29.3807 30.4009 29.0803 30.1997 28.7434 30.1997C28.7431 30.1997 28.7428 30.1997 28.7425 30.1997C28.4052 30.2001 28.1048 30.4019 27.9771 30.7141C27.9749 30.7193 27.9729 30.7246 27.9709 30.7299L25.7556 36.5464C25.6191 36.9047 25.7989 37.3057 26.1572 37.4421C26.5158 37.5788 26.9166 37.3987 27.053 37.0405L27.4344 36.039H30.0354L30.4126 37.0385C30.5175 37.3165 30.7817 37.4878 31.0622 37.4878C31.1436 37.4878 31.2264 37.4735 31.3071 37.443C31.6657 37.3076 31.8469 36.9072 31.7115 36.5484L29.5165 30.7317ZM27.9632 34.6507L28.7409 32.6087L29.5115 34.6507H27.9632Z" fill="white"/>
<path d="M38.0329 36.3941L36.0916 33.6345L37.7406 31.2937C37.9614 30.9802 37.8863 30.5472 37.5728 30.3264C37.2594 30.1056 36.8263 30.1808 36.6056 30.4942L35.243 32.4283L33.8827 30.4946C33.6621 30.1811 33.2291 30.1058 32.9155 30.3263C32.6019 30.5468 32.5266 30.9799 32.7471 31.2934L34.3937 33.634L32.4495 36.3939C32.2287 36.7072 32.3037 37.1403 32.6172 37.3611C32.7388 37.4467 32.8782 37.4878 33.0164 37.4878C33.2345 37.4878 33.4493 37.3853 33.5845 37.1934L35.2423 34.8402L36.8974 37.193C37.0326 37.3851 37.2474 37.4878 37.4657 37.4878C37.6037 37.4878 37.7432 37.4467 37.8645 37.3614C38.1782 37.1407 38.2536 36.7077 38.0329 36.3941Z" fill="white"/>
<path d="M26.2523 30.8938C26.2523 30.5105 25.9416 30.1997 25.5582 30.1997H22.3001C21.9167 30.1997 21.606 30.5105 21.606 30.8938C21.606 31.2772 21.9167 31.5881 22.3001 31.5881H23.2284V36.7934C23.2284 37.1768 23.5391 37.4876 23.9225 37.4876C24.3059 37.4876 24.6166 37.1768 24.6166 36.7934V31.5881H25.5581C25.9416 31.588 26.2523 31.2772 26.2523 30.8938Z" fill="white"/>
<path d="M51.9158 52.2986C51.8262 52.2986 51.7352 52.2811 51.6474 52.2443C51.2939 52.096 51.1276 51.689 51.276 51.3356L56.3688 39.2006C56.5171 38.847 56.924 38.6808 57.2775 38.8292C57.631 38.9775 57.7973 39.3844 57.6489 39.7378L52.5561 51.8729C52.4446 52.1385 52.187 52.2986 51.9158 52.2986Z" fill="#6F6571"/>
<path d="M50.9415 44.8275C49.318 44.8275 47.9971 43.343 47.9971 41.5184C47.9971 39.6937 49.318 38.2092 50.9415 38.2092C52.5651 38.2092 53.886 39.6937 53.886 41.5184C53.886 43.343 52.5651 44.8275 50.9415 44.8275ZM50.9415 39.5976C50.0835 39.5976 49.3854 40.4593 49.3854 41.5184C49.3854 42.5774 50.0835 43.4391 50.9415 43.4391C51.7995 43.4391 52.4976 42.5774 52.4976 41.5184C52.4976 40.4592 51.7995 39.5976 50.9415 39.5976Z" fill="#6F6571"/>
<path d="M57.8195 53.1244C56.1959 53.1244 54.875 51.6399 54.875 49.8152C54.875 47.9906 56.1959 46.5061 57.8195 46.5061C59.443 46.5061 60.7639 47.9906 60.7639 49.8152C60.764 51.64 59.4431 53.1244 57.8195 53.1244ZM57.8195 47.8945C56.9614 47.8945 56.2634 48.7562 56.2634 49.8152C56.2634 50.8744 56.9614 51.736 57.8195 51.736C58.6775 51.736 59.3756 50.8743 59.3756 49.8152C59.3756 48.7562 58.6776 47.8945 57.8195 47.8945Z" fill="#6F6571"/>
<path d="M38.4183 51.719C38.2168 51.6477 38.0106 51.573 37.805 51.4953V48.2128C38.3222 48.3367 38.6303 48.5983 38.657 48.6216C38.9391 48.877 39.3747 48.8579 39.6332 48.5777C39.8931 48.2958 39.8754 47.8567 39.5936 47.5968C39.5541 47.5604 38.8908 46.9628 37.805 46.7999V46.1294C37.805 45.7461 37.4943 45.4353 37.1109 45.4353C36.7275 45.4353 36.4168 45.7461 36.4168 46.1294V46.8531C36.3137 46.8759 36.2092 46.9019 36.1024 46.9341C35.1094 47.2332 34.3674 48.083 34.166 49.152C33.9824 50.1266 34.2946 51.0663 34.9808 51.6045C35.3445 51.8898 35.797 52.151 36.4168 52.4269V56.5893C35.8806 56.5498 35.5092 56.4187 34.9005 56.0205C34.5796 55.8106 34.1494 55.9006 33.9395 56.2214C33.7296 56.5423 33.8196 56.9725 34.1404 57.1824C35.0279 57.763 35.6341 57.936 36.4168 57.9801V58.7308C36.4168 59.1141 36.7275 59.4249 37.1109 59.4249C37.4943 59.4249 37.805 59.1141 37.805 58.7308V57.9249C39.3625 57.6193 40.2722 56.3351 40.4738 55.1355C40.7331 53.593 39.9263 52.252 38.4183 51.719ZM35.8374 50.512C35.5606 50.2949 35.4428 49.8722 35.5301 49.4089C35.6084 48.9938 35.8824 48.495 36.4166 48.2932V50.8822C36.1986 50.7639 36.0014 50.6407 35.8374 50.512ZM39.1046 54.9052C38.9978 55.5407 38.5552 56.2143 37.805 56.4827V52.974C37.855 52.992 37.9041 53.0098 37.9556 53.028C39.2383 53.4815 39.1593 54.5794 39.1046 54.9052Z" fill="white"/>
<path d="M47.6466 32.9263C47.2532 32.9263 46.9331 33.2463 46.9331 33.6397C46.9331 34.0331 47.2531 34.3532 47.6466 34.3532C48.04 34.3532 48.36 34.0331 48.36 33.6397C48.36 33.2463 48.04 32.9263 47.6466 32.9263Z" fill="white"/>
<path d="M47.657 31.4852C48.0404 31.4852 48.3512 31.1744 48.3512 30.791V24.4258C48.3512 24.0425 48.0404 23.7317 47.657 23.7317C47.2737 23.7317 46.9629 24.0425 46.9629 24.4258V30.791C46.9629 31.1744 47.2737 31.4852 47.657 31.4852Z" fill="white"/>
</svg>
