<svg width="24" height="23" viewBox="0 0 24 23" fill="none" xmlns="http://www.w3.org/2000/svg">
<path fill-rule="evenodd" clip-rule="evenodd" d="M23.4129 0.646263L16.955 1.53438C16.8712 1.54347 16.7941 1.58433 16.7395 1.64856L1.02004 20.5778C0.974774 20.6358 0.950195 20.7072 0.950195 20.7808C0.950195 20.8544 0.974774 20.9258 1.02004 20.9838L1.99698 22.2525C2.02793 22.2876 2.06599 22.3157 2.10864 22.335C2.1513 22.3542 2.19751 22.3642 2.24431 22.3642C2.29111 22.3642 2.33732 22.3542 2.37998 22.335C2.42263 22.3157 2.46084 22.2876 2.4918 22.2525L23.895 1.34408C23.9503 1.28335 23.9808 1.20415 23.9808 1.12203C23.9808 1.03991 23.9503 0.960757 23.895 0.900022L23.7047 0.671662C23.6617 0.644289 23.6127 0.627681 23.5619 0.623264C23.5111 0.618847 23.46 0.626726 23.4129 0.646263Z" fill="#2B5250"/>
</svg>
