<svg width="84" height="87" viewBox="0 0 84 87" fill="none" xmlns="http://www.w3.org/2000/svg">
<path opacity="0.202381" d="M42 86.7078C65.196 86.7078 84 67.2976 84 43.3539C84 19.4102 65.196 0 42 0C18.804 0 0 19.4102 0 43.3539C0 67.2976 18.804 86.7078 42 86.7078Z" fill="#FECCA1"/>
<path opacity="0.202381" d="M42.0101 79.5555C61.3457 79.5555 77.0203 63.3757 77.0203 43.4168C77.0203 23.4579 61.3457 7.27808 42.0101 7.27808C22.6746 7.27808 7 23.4579 7 43.4168C7 63.3757 22.6746 79.5555 42.0101 79.5555Z" fill="#FECCA1"/>
<path opacity="0.1" d="M42.4124 71.6498C57.5519 71.6498 69.8249 58.9812 69.8249 43.3537C69.8249 27.7262 57.5519 15.0576 42.4124 15.0576C27.273 15.0576 15 27.7262 15 43.3537C15 58.9812 27.273 71.6498 42.4124 71.6498Z" fill="#FECCA1"/>
<path d="M67 43C67 29.2153 55.7847 18 42 18C28.2153 18 17 29.2153 17 43C17 56.7847 28.2153 68 42 68C55.7847 68 67 56.7848 67 43ZM39.6 57.3566C37.7392 55.4935 37.7392 52.2479 39.6 50.3849L41.55 48.4349L28.9565 48.4349C25.9609 48.4349 23.5217 45.9979 23.5217 43.0001C23.5217 40.0023 25.9608 37.5652 28.9565 37.5652L41.55 37.5652L39.6021 35.6174C37.7413 33.7543 37.7413 30.5087 39.6021 28.6456C40.5326 27.713 41.7717 27.2022 43.0891 27.2022C44.4065 27.2022 45.6435 27.713 46.5761 28.6456L58.6261 40.6957C59.8978 41.9653 59.8978 44.037 58.6261 45.3066L46.576 57.3566C45.6456 58.2892 44.4064 58.8001 43.089 58.8001C41.7717 58.8001 40.5326 58.287 39.6 57.3566Z" fill="#FECCA1"/>
</svg>
