<svg width="857" height="537" viewBox="0 0 857 537" fill="none" xmlns="http://www.w3.org/2000/svg">
<path opacity="0.2" d="M481 872.418C696.943 872.418 872 697.361 872 481.418C872 265.475 696.943 90.418 481 90.418C265.057 90.418 90 265.475 90 481.418C90 697.361 265.057 872.418 481 872.418Z" fill="white"/>
<path opacity="0.11" d="M480.5 961.418C745.873 961.418 961 746.291 961 480.918C961 215.545 745.873 0.417969 480.5 0.417969C215.127 0.417969 0 215.545 0 480.918C0 746.291 215.127 961.418 480.5 961.418Z" fill="white"/>
<path opacity="0.2" d="M481 685.418C593.666 685.418 685 594.084 685 481.418C685 368.752 593.666 277.418 481 277.418C368.334 277.418 277 368.752 277 481.418C277 594.084 368.334 685.418 481 685.418Z" fill="white"/>
<path style="mix-blend-mode:screen" opacity="0.5" d="M559.745 873.937L480.369 481.008L635.232 856.177L559.745 873.937ZM441.38 878.608H519.473L480.369 481.008L441.38 878.608ZM401.056 873.948L480.42 481.019L325.569 856.177L401.056 873.948ZM288.083 842.502L480.369 481.008L220.363 808.223L288.083 842.502ZM188.101 786.367L480.369 481.008L132.886 737.849L188.101 786.367ZM108.134 709.528L480.433 481.008L69.0812 650.088L108.134 709.528ZM53.5217 617.118L480.369 481.008L33.3149 550.772L53.5217 617.118ZM28 515.331L480.369 481.019L28 446.74V515.331ZM33.3149 411.254L480.381 481.008L53.5217 344.954L33.3149 411.254ZM69.0941 311.961L480.369 481.008L108.07 252.487L69.0941 311.961ZM132.898 224.166L480.369 481.008L188.101 175.603L132.898 224.166ZM220.389 153.871L480.394 481.087L288.006 119.525L220.389 153.871ZM325.595 105.872L480.369 481.008L401.005 88.0893L325.595 105.872ZM441.38 83.418L480.42 481.008L519.421 83.418H441.38ZM559.745 88.078L480.369 481.008L635.232 105.849L559.745 88.078ZM672.719 119.525L480.369 481.008L740.374 153.792L672.719 119.525ZM772.597 175.603L480.369 481.008L827.8 224.132L772.597 175.603ZM852.577 252.498L480.279 481.019L891.656 311.939L852.577 252.498ZM907.19 344.965L480.369 481.008L927.435 411.254L907.19 344.965ZM932.75 446.74L480.369 481.008L932.737 515.32L932.75 446.74ZM927.448 550.817L480.369 481.008L907.228 617.118L927.448 550.817ZM891.669 650.11L480.369 481.008L852.667 709.528L891.669 650.11ZM827.8 737.849L480.369 481.008L772.597 786.367L827.8 737.849ZM740.31 808.144L480.304 480.929L672.744 842.491L740.31 808.144Z" fill="url(#paint0_radial)"/>
<defs>
<radialGradient id="paint0_radial" cx="0" cy="0" r="1" gradientUnits="userSpaceOnUse" gradientTransform="translate(478.25 485.961) scale(415.511 365.195)">
<stop stop-color="white"/>
<stop offset="0.18" stop-color="#D6D6D6"/>
<stop offset="0.59" stop-color="#6E6E6E"/>
<stop offset="1"/>
</radialGradient>
</defs>
</svg>
