<svg width="174" height="177" viewBox="0 0 174 177" fill="none" xmlns="http://www.w3.org/2000/svg">
<mask id="mask0" mask-type="alpha" maskUnits="userSpaceOnUse" x="0" y="0" width="171" height="174">
<rect width="171" height="174" rx="10" fill="white"/>
</mask>
<g mask="url(#mask0)">
<g style="mix-blend-mode:multiply" opacity="0.5">
<path opacity="0.202381" d="M117.485 264.97C178.504 264.97 227.97 215.504 227.97 154.485C227.97 93.4659 178.504 44 117.485 44C56.4659 44 7 93.4659 7 154.485C7 215.504 56.4659 264.97 117.485 264.97Z" fill="#2B5250"/>
<path opacity="0.202381" d="M117.645 246.742C168.509 246.742 209.742 205.509 209.742 154.645C209.742 103.781 168.509 62.5474 117.645 62.5474C66.7808 62.5474 25.5474 103.781 25.5474 154.645C25.5474 205.509 66.7808 246.742 117.645 246.742Z" fill="#2B5250"/>
<path opacity="0.1" d="M117.485 226.596C157.311 226.596 189.596 194.311 189.596 154.485C189.596 114.659 157.311 82.3738 117.485 82.3738C77.659 82.3738 45.3738 114.659 45.3738 154.485C45.3738 194.311 77.659 226.596 117.485 226.596Z" fill="#2B5250"/>
</g>
<path d="M40.8147 93.249C44.0747 92.5942 37.5357 87.1259 36.6036 86.2129C34.2136 83.8755 29.6343 79.865 30.1936 76.0267C30.7528 72.1883 34.8015 75.0085 37.0577 74.4206C36.6179 71.7581 32.9086 69.1626 31.2691 67.1837C30.0072 65.6589 28.7596 64.0145 28.3437 62.0022C27.469 57.7862 30.2127 57.0118 33.401 58.876C33.879 58.2021 33.7117 57.2222 33.6304 56.3809C33.4153 54.1821 31.6467 46.6392 35.3799 46.0178C37.354 45.6976 39.0079 49.7797 39.6293 51.1133C40.3224 52.6238 41.2067 56.5816 42.5929 57.4898C44.0747 58.4889 44.0986 55.9555 45.719 56.1419C47.4685 56.3426 47.8892 59.9659 48.109 61.3234C48.5153 63.7564 48.219 66.2611 47.9561 68.675C47.8079 70.0421 47.2199 71.8633 48.0325 73.1061C48.936 72.4034 49.8585 71.2562 50.8575 70.6301C53.2953 69.1005 53.7972 71.7677 54.2896 73.8566C55.1261 77.3794 54.5572 81.2082 54.5429 84.8076C54.5429 86.1125 54.0028 89.4203 54.911 90.295C57.0381 88.6841 60.4032 85.3668 61.4978 89.9891C62.2148 93.0196 61.9424 96.6237 61.3305 99.6447C60.3056 104.306 59.0129 108.904 57.4587 113.416L56.5601 112.775C53.9884 110.906 51.1921 109.515 48.5488 107.728C44.9064 105.266 40.853 101.992 38.6064 98.1677C38.0423 97.2117 36.4602 94.1381 37.115 93.077C37.9802 91.6238 39.8301 93.4498 40.8147 93.249Z" fill="#95DC8F"/>
<path d="M37.0942 93.0673C37.9785 91.6333 39.8284 93.4544 40.8131 93.2537C40.938 93.2287 41.0598 93.1903 41.1764 93.139C46.6447 97.5509 51.7545 102.422 55.7888 108.158C56.5887 109.295 57.3455 110.449 58.0593 111.618C57.8538 112.235 57.6482 112.833 57.4379 113.401L56.5393 112.761C53.9676 110.892 51.1713 109.501 48.528 107.713C44.8856 105.251 40.8322 101.977 38.5856 98.1532C38.0215 97.1924 36.425 94.1236 37.0942 93.0673Z" fill="#138175"/>
<path d="M24.8956 115.352C22.1124 105.734 21.019 95.707 21.6644 85.7158C21.9457 81.7545 21.8079 77.7746 21.2533 73.8423C22.5678 75.1616 24.0591 76.39 24.8431 77.2313C27.539 80.128 30.4404 82.8956 33.0886 85.8927C40.3016 94.0617 47.5003 102.79 51.6302 113.005C54.3404 119.697 55.8748 126.561 55.5259 133.693C55.3446 137.005 54.7898 140.285 53.872 143.473C53.5756 144.524 53.2219 145.996 52.7678 147.493C38.815 141.288 29.1307 130.007 24.8956 115.352Z" fill="#60CA8E"/>
<path d="M50.3419 110.07C50.8199 111.026 51.2357 112.011 51.6373 113.005C54.3475 119.697 55.8819 126.561 55.533 133.693C55.3516 137.005 54.7968 140.285 53.8791 143.473C53.5827 144.524 53.229 145.997 52.7749 147.493C48.6375 145.669 44.7605 143.305 41.2455 140.461C41.6026 129.715 44.7364 119.245 50.3419 110.07Z" fill="#138175"/>
<path d="M26.5225 120.108C35.3559 122.145 43.0374 126.203 50.2217 131.542C52.0162 132.878 53.7334 134.314 55.365 135.844C55.0865 138.423 54.5892 140.974 53.8784 143.468C53.5821 144.52 53.2283 145.992 52.7742 147.488C40.3558 141.982 31.3455 132.455 26.5225 120.108Z" fill="#60CA8E"/>
<path d="M50.2171 135.882C42.7651 130.347 34.7872 126.174 25.5332 124.223C22.8372 123.655 17.5936 123.745 13 123.033C22.2397 132.378 26.5657 147.187 34.2232 157.344C43.984 170.284 57.0286 179.232 72.6831 181.693C70.9862 163.744 66.8515 148.252 50.2171 135.882Z" fill="#95DC8F"/>
<path d="M72.6831 181.703C63.7671 180.282 55.3331 176.705 48.1139 171.283C41.7089 158.789 39.6759 144.509 42.3396 130.724C45.0673 132.283 47.6979 134.005 50.2171 135.882C66.8515 148.253 70.9862 163.745 72.6831 181.703Z" fill="#138175"/>
<path d="M59.7061 127.316L60.1411 127.225C59.7492 125.347 59.5436 123.473 59.3429 121.661C59.1342 119.052 58.6764 116.469 57.9758 113.946C57.5504 112.575 57.1632 111.337 56.6852 110.008C56.1307 108.478 55.6145 106.891 55.1126 105.352C54.3382 102.991 53.5399 100.548 52.5744 98.182C51.6996 96.0166 50.605 93.8131 49.5486 91.6764C48.4301 89.4155 47.2734 87.0828 46.3747 84.7932C45.5526 82.6996 44.9407 80.4912 44.3145 78.388C43.5717 75.5104 42.5949 72.6984 41.394 69.98C39.9026 66.8395 39.2334 63.8186 38.526 60.6255C38.2296 59.2919 37.9237 57.9153 37.57 56.5291L37.1397 56.6438C37.5078 58.0252 37.8137 59.3971 38.0957 60.7259C38.8127 63.9476 39.4867 66.9877 40.9972 70.176C42.188 72.8729 43.1568 75.6625 43.8939 78.5171C44.5057 80.6489 45.1367 82.8525 45.9684 84.9653C46.8766 87.274 48.0382 89.6162 49.1567 91.8867C50.2083 94.0138 51.2981 96.1887 52.1681 98.3588C53.1241 100.749 53.9223 103.168 54.6919 105.529C55.1938 107.068 55.7148 108.66 56.2693 110.194C56.7473 111.513 57.1345 112.747 57.5551 114.114C58.3343 116.638 58.6115 119.118 58.9031 121.762C59.0991 123.535 59.3094 125.418 59.7061 127.316Z" fill="#138175"/>
<path d="M59.3708 153.329L59.6528 152.985C58.3001 151.861 57.5018 150.222 56.737 148.63C56.2261 147.473 55.5982 146.371 54.8633 145.341C54.4665 144.83 54.0841 144.385 53.7113 143.936C52.8065 142.943 52.0264 141.844 51.3882 140.662C49.9976 137.788 48.9346 134.767 48.2191 131.656C47.9705 130.7 47.7411 129.687 47.483 128.693C46.527 124.835 45.571 120.849 44.0461 117.374L43.42 115.94C41.3263 111.126 39.161 106.145 35.9201 102.02C32.9658 98.2656 30.4809 94.1643 28.5207 89.8074L28.1192 89.9986C30.0934 94.3847 32.5959 98.5133 35.5712 102.293C38.7738 106.375 40.9296 111.327 43.0136 116.116L43.6398 117.55C45.1503 120.992 46.1159 124.96 47.0528 128.798C47.2965 129.797 47.5307 130.791 47.7889 131.766C48.5131 134.904 49.5874 137.95 50.9915 140.848C51.6468 142.067 52.4495 143.2 53.3815 144.223C53.7495 144.658 54.1272 145.107 54.5191 145.614C55.2348 146.62 55.8466 147.696 56.3451 148.826C57.129 150.456 57.9368 152.134 59.3708 153.329Z" fill="#138175"/>
<path d="M79.5995 190.775L79.8337 190.393C79.1213 189.925 78.5417 189.281 78.1512 188.524C77.9342 188.16 77.6981 187.807 77.4437 187.468C75.1015 184.427 72.8358 181.32 70.6466 178.314C67.3484 173.787 63.9546 169.108 60.2166 164.6C58.1947 162.153 55.733 160.179 53.3477 158.267C50.9625 156.355 48.5678 154.443 46.6175 152.053L45.5707 150.776C41.1062 145.318 36.8854 140.165 32.0481 135.165L31.7278 135.475C36.5508 140.461 40.7668 145.609 45.2265 151.058L46.2734 152.335C48.2475 154.725 50.6996 156.708 53.0705 158.611C55.4414 160.513 57.884 162.468 59.8724 164.877C63.5865 169.37 66.9899 174.045 70.2881 178.567C72.4773 181.574 74.7478 184.686 77.0948 187.73C77.3404 188.058 77.5685 188.397 77.7783 188.749C78.201 189.57 78.8283 190.268 79.5995 190.775Z" fill="#138175"/>
<path d="M123.392 219.818C163.803 219.818 196.563 187.059 196.563 146.648C196.563 106.237 163.803 73.4775 123.392 73.4775C82.9812 73.4775 50.2217 106.237 50.2217 146.648C50.2217 187.059 82.9812 219.818 123.392 219.818Z" fill="#61C1B8"/>
<g style="mix-blend-mode:multiply">
<path d="M176.244 96.0483C182.362 111.826 182.823 129.237 177.549 145.317C172.275 161.397 161.591 175.152 147.317 184.242C133.042 193.332 116.059 197.193 99.2578 195.17C82.4563 193.147 66.8752 185.364 55.1663 173.146C59.0804 183.24 65.1852 192.34 73.0407 199.79C80.8962 207.24 90.3067 212.855 100.594 216.229C110.881 219.603 121.789 220.653 132.531 219.302C143.272 217.952 153.581 214.236 162.713 208.421C171.845 202.606 179.574 194.837 185.341 185.675C191.108 176.512 194.771 166.185 196.065 155.436C197.36 144.687 196.253 133.785 192.825 123.516C189.398 113.246 183.734 103.865 176.244 96.0483Z" fill="#61C1B8"/>
</g>
<path d="M182.321 183.682C182.321 183.682 180.483 183.989 180.176 184.089C179.869 184.19 179.059 184.296 178.746 184.598C178.433 184.9 178.338 184.497 177.316 184.805C176.293 185.112 175.986 184.905 176.601 183.782C177.215 182.659 176.807 182.352 176.701 181.547C176.595 180.743 177.818 180.218 175.785 180.117C173.751 180.017 173.64 179.609 172.215 180.424C170.79 181.24 169.662 182.056 169.662 182.056L168.231 181.24C167.634 180.578 166.985 179.964 166.293 179.402C165.786 179.327 165.274 179.293 164.762 179.302C164.586 178.671 164.551 178.009 164.662 177.363C164.868 176.447 164.561 176.139 163.946 176.447C163.332 176.754 162.209 177.363 162.209 177.363C161.185 177.478 160.186 177.753 159.248 178.179C158.131 178.793 158.024 179.201 156.186 178.994C154.348 178.788 154.248 180.424 152.834 179.503C151.421 178.581 150.689 178.279 150.08 177.564C149.471 176.849 149.058 177.257 149.264 178.329C149.471 179.402 150.795 179.195 149.415 179.659C148.035 180.123 147.32 179.452 147.577 181.039C147.834 182.626 147.884 183.693 147.426 183.693C147.209 183.626 147.012 183.508 146.849 183.35C146.687 183.191 146.565 182.996 146.493 182.781C146.422 182.565 146.403 182.336 146.438 182.112C146.473 181.888 146.561 181.675 146.694 181.492C147.51 180.469 146.745 179.91 146.745 179.91C146.745 179.91 147.102 179.145 147.611 179.045C148.119 178.944 148.527 177.821 147.56 177.972C146.594 178.123 146.644 177.665 146.387 178.531C146.13 179.397 145.929 179.603 144.957 179.86C143.985 180.117 143.884 179.86 143.169 180.369C142.454 180.877 143.169 181.084 142.096 181.084C141.024 181.084 140.716 181.391 140.716 182.201C140.716 183.011 140.359 183.067 139.901 183.581C139.443 184.095 139.342 184.196 138.985 184.603C138.772 184.824 138.645 185.113 138.627 185.419C138.577 185.626 138.169 185.726 137.912 185.626C137.655 185.525 137.297 185.067 136.381 184.453C135.638 183.874 134.719 183.568 133.778 183.587C132.705 183.587 131.789 185.782 130.308 185.067C128.828 184.352 128.979 184.201 128.113 183.637C127.247 183.073 127.498 182.972 127.347 182.207C127.196 181.441 126.889 181.341 127.297 180.726C127.705 180.112 127.755 179.704 127.705 178.43C127.654 177.156 128.621 175.419 127.705 174.91C126.789 174.402 128.777 174.296 125.867 174.195C122.956 174.095 123.52 173.48 121.582 173.787C119.643 174.095 118.57 174.346 118.006 174.296C117.442 174.245 116.576 174.039 117.598 173.123C118.621 172.206 118.978 172.815 118.928 171.642C118.878 170.469 118.47 169.547 119.079 169.905C119.688 170.262 120.101 169.698 120.509 169.189C120.917 168.681 119.844 167.608 120.917 166.742C121.989 165.876 122.906 165.362 121.274 165.362C119.643 165.362 120.967 164.597 118.822 164.804C116.676 165.01 116.727 164.904 116.626 165.569C116.526 166.234 114.995 164.955 115.71 166.592C116.425 168.228 116.475 169.039 115.81 169.145C115.226 169.19 114.645 169.276 114.073 169.402C112.492 169.709 111.52 170.832 111.112 170.067C110.704 169.301 111.369 169.094 110.196 169.094C109.022 169.094 108.866 169.553 108.458 167.977C108.05 166.402 106.313 164.966 107.078 164.966C107.844 164.966 107.743 164.15 107.386 163.29C107.028 162.429 107.129 161.251 107.129 160.329C107.129 159.407 107.078 157.826 107.743 158.39C108.408 158.954 108.458 158.597 108.458 157.625C108.458 156.653 107.643 155.993 108.251 155.122C108.86 154.25 108.201 154.306 109.525 153.792C110.849 153.278 110.442 153.233 111.76 153.178C113.078 153.122 113.034 153.384 113.548 152.82C114.062 152.256 113.598 151.189 114.263 151.747C114.928 152.306 114.57 152.155 115.939 152.055C117.308 151.954 118.084 152.513 118.235 151.496C118.386 150.479 117.827 150.345 119.459 150.245C120.492 150.138 121.531 150.087 122.57 150.094C123.286 150.144 123.336 149.636 123.487 150.502C123.638 151.367 124.459 151.01 125.068 150.909C125.677 150.809 125.733 149.993 126.291 150.502C126.85 151.01 128.079 151.574 128.33 152.178C128.582 152.781 128.839 153.044 128.587 154.016C128.336 154.988 127.822 155.345 128.437 155.854C129.051 156.362 129.353 156.111 129.409 156.876C129.465 157.641 130.074 158.306 130.124 158.664C130.174 159.021 130.99 159.278 131.241 159.172C131.493 159.066 132.571 158.2 131.8 155.496C131.029 152.792 131.493 152.703 131.135 151.211C130.778 149.719 130.521 149.58 131.442 148.25C132.364 146.92 132.56 146.462 133.638 145.954C134.716 145.445 135.068 145.138 135.873 143.915C136.489 142.951 137.403 142.215 138.476 141.82C139.499 141.362 138.627 141.233 138.655 140.702C138.683 140.172 139.342 140.445 139.772 140.144C140.202 139.842 140.538 139.786 140.331 139.378C140.124 138.97 139.515 139.479 139.593 139.149C139.672 138.82 140.744 138.233 140.459 137.926C140.314 137.756 140.11 137.646 139.888 137.618C139.666 137.59 139.441 137.646 139.258 137.775C138.7 138.054 138.141 137.875 138.392 137.546C138.644 137.216 138.979 137.724 138.878 136.702C138.778 135.68 138.085 134.406 138.42 133.87C138.755 133.333 138.856 132.825 138.906 134.378C138.957 135.931 138.755 137.518 139.465 137.06C140.175 136.602 140.795 136.216 140.409 135.3C140.024 134.384 139.437 133.898 140.152 134.182C140.867 134.467 140.711 135.512 141.27 134.898C141.828 134.283 142.543 133.624 142.085 133.11C141.627 132.596 141.985 131.992 142.007 131.68C142.029 131.367 141.448 130.886 142.314 130.864C143.18 130.842 143.923 131.322 144.303 130.607C144.683 129.892 145.018 129.691 144.454 129.763C143.89 129.836 143.253 130.322 142.895 130.221C142.538 130.121 143.532 129.585 144.376 129.428C145.219 129.272 144.426 129.043 145.242 129.02C146.057 128.998 147.03 129.227 147.052 128.691C147.074 128.154 146.314 127.573 146.007 127.746C145.7 127.92 145.499 127.746 145.521 127.26C145.543 126.774 146.136 126.495 146.365 125.908C146.746 125.251 147.259 124.68 147.873 124.232C148.152 124.059 149.158 124.657 149.359 123.914C149.56 123.171 149.599 122.886 149.734 122.797C149.868 122.707 150.242 122.986 150.482 122.523C150.722 122.059 151.041 121.031 151.114 121.752C151.186 122.472 150.94 122.595 151.577 122.053C152.214 121.512 152.454 120.83 152.488 121.271C152.521 121.713 152.739 122.02 153.007 121.713C153.276 121.405 153.236 122.165 152.862 122.227C152.488 122.288 151.784 121.45 151.845 122.277C151.907 123.104 151.56 122.528 151.477 123.243C151.393 123.959 151.398 125.478 152.281 124.741C153.164 124.003 153.019 123.439 153.639 122.981C154.15 122.631 154.686 122.319 155.242 122.048L156.186 120.897C156.186 120.897 156.89 120.456 156.08 120.456C155.27 120.456 155.521 120.322 154.901 120.528C154.281 120.735 153.974 120.679 153.639 120.383C153.304 120.087 153.371 119.981 152.655 120.014C151.94 120.048 151.817 120.176 151.477 119.081C151.136 117.986 152.253 118.059 151.136 117.964C150.571 117.851 149.985 117.917 149.46 118.154C148.795 118.372 148.544 118.193 148.974 117.835C149.404 117.478 149.946 117.657 150.532 117.377C151.119 117.098 152.063 117.199 151.488 116.511C151.078 116.072 150.537 115.776 149.946 115.668L147.711 116.612L146.309 117.863C146.309 117.863 145.577 118.919 145.136 119.478C144.694 120.037 143.985 120.545 144.398 119.83C144.829 118.952 145.352 118.123 145.957 117.355C146.442 116.887 146.953 116.446 147.488 116.036C148.046 115.567 147.974 114.394 148.739 114.265C149.505 114.137 150.231 114.215 151.588 114.059C152.946 113.902 154.505 113.802 154.991 113.55C155.477 113.299 155.549 112.869 155.728 112.394C155.907 111.919 155.929 112.003 156.689 111.835C157.449 111.668 157.449 110.774 157.449 110.327C157.449 109.88 156.628 109.712 156.494 109.137C156.36 108.561 156.544 108.081 156.108 108.388C155.672 108.695 155.812 109.444 155.549 109.137C155.287 108.83 155.924 107.98 155.075 108.181C154.225 108.383 154.633 108.081 153.818 109.031C153.002 109.98 152.505 109.813 153.007 109.031C153.508 108.406 154.162 107.922 154.907 107.628C155.248 107.461 154.259 107.26 153.231 107.07C152.494 106.961 151.801 106.654 151.225 106.181C150.988 106.013 150.701 105.928 150.41 105.941C150.309 105.941 150.136 105.567 149.08 104.578C148.024 103.589 146.666 102.299 145.985 101.55C145.303 100.801 145.169 99.6783 144.996 100.734C144.823 101.79 145.404 102.299 144.722 102.673C144.041 103.047 144.303 103.232 143.644 103.455C142.985 103.678 143.214 103.522 142.655 103.321C142.096 103.12 141.538 103.561 141.487 103.114C141.437 102.667 142.605 103.282 141.588 102.299C140.571 101.315 141.147 101.857 141.18 101.109C141.214 100.36 139.75 100.259 138.901 100.053C138.052 99.8459 138.493 99.4046 137.336 99.3375C136.599 99.2999 135.866 99.1971 135.146 99.0302C134.85 98.9632 132.878 98.5889 132.878 98.5889C132.878 98.5889 132.13 97.6335 132.096 98.7956C132.062 99.9576 132.062 100.053 132.062 100.533C132.147 100.968 132.339 101.375 132.621 101.717C132.621 101.717 133.342 101.209 133.498 101.617C133.655 102.025 132.275 102.254 131.917 102.511C131.56 102.768 131.359 102.589 132.146 103.198C132.934 103.807 133.576 103.963 133.755 104.349C133.934 104.734 134.241 105.422 134.241 105.422C134.241 105.422 135.035 105.98 134.627 106.036C134.219 106.092 134.297 106.215 133.733 106.98C133.253 107.633 132.599 108.137 131.845 108.433C131.286 108.64 131.208 108.69 131.409 109.405C131.61 110.12 132.224 110.019 132.353 110.679C132.481 111.338 132.118 110.936 132.61 111.796L133.102 112.668C133.102 112.668 132.588 112.17 132.895 112.886C133.202 113.601 133.152 114.159 132.744 113.5C132.336 112.841 132.537 112.634 132.185 112.992C131.833 113.349 131.778 113.4 132.085 113.886C132.392 114.372 132.75 115.215 132.392 114.729C132.035 114.243 132.007 113.684 131.448 113.936C130.889 114.187 130.504 114.657 130.247 114.601C129.99 114.545 130.247 113.886 130.247 113.886L130.733 112.891L129.934 112.277C129.934 112.277 128.755 112.606 129.18 112.098C129.604 111.589 128.889 111.433 128.66 111.433C128.431 111.433 127.688 110.874 128.275 110.874C128.861 110.874 128.934 110.925 129.18 110.517C129.425 110.109 128.99 109.573 128.811 109.243C128.632 108.913 128.99 108.126 128.224 108.126C127.459 108.126 126.157 108.332 125.9 108.126C125.539 107.788 125.114 107.528 124.649 107.36C124.103 107.293 123.55 107.327 123.017 107.461C122.738 107.461 122.917 107.036 122.71 106.774C122.377 106.507 121.98 106.33 121.559 106.26L121.001 106.181C120.843 106.106 120.71 105.986 120.62 105.836C120.529 105.686 120.485 105.513 120.492 105.338C120.492 104.701 120.056 104.114 119.677 104.472C119.423 104.712 119.184 104.968 118.961 105.237C118.961 105.237 118.168 104.165 118.274 103.706C118.38 103.248 118.833 103.477 118.833 102.941C118.833 102.405 118.883 102.891 119.319 102.204C119.755 101.516 119.805 100.874 120.542 100.98C121.28 101.086 121.766 101.209 121.816 100.215C121.867 99.2202 121.967 98.0972 122.582 97.6894C123.196 97.2816 122.682 97.7397 123.476 97.181C124.269 96.6223 124.805 96.3374 124.291 96.1865C123.777 96.0357 123.448 96.3653 123.068 96.0078C122.688 95.6502 122.023 95.3709 122.889 95.4491C123.755 95.5273 124.163 96.0636 124.565 95.9351C125 95.7343 125.371 95.4172 125.638 95.0189C125.738 94.8122 125.867 95.1195 126.096 94.8401C126.325 94.5608 126.146 94.2814 126.733 94.5831C127.319 94.8848 127.548 94.9407 127.576 94.4546C127.604 93.9686 128.191 93.8177 128.191 93.4099C128.191 93.0021 127.705 93.2814 127.526 92.5942C127.449 92.0582 127.209 91.5589 126.839 91.164C126.559 90.9852 126.174 90.5774 125.766 90.8847C125.358 91.1919 125.129 91.2143 125.207 91.6221C125.242 91.9098 125.198 92.2015 125.079 92.4657C124.832 92.6491 124.602 92.8548 124.392 93.0803C123.906 93.5663 123.984 94.5608 123.576 93.4378C123.168 92.3149 123.269 91.9071 122.861 91.8065C122.623 91.7184 122.361 91.7184 122.124 91.8065C121.822 91.8713 121.509 91.8713 121.207 91.8065C120.649 91.7562 120.47 91.4489 120.414 91.8065C120.358 92.164 120.414 92.5719 120.593 92.6222C120.772 92.6724 120.542 92.7786 119.928 93.0803C119.624 93.2223 119.334 93.3925 119.062 93.5887C119.062 93.5887 119.777 93.9965 119.341 94.2256C118.906 94.4546 118.984 94.5831 118.755 94.4546C118.526 94.3261 118.068 94.0971 118.269 93.6892C118.349 93.4718 118.46 93.2668 118.598 93.0803C118.906 92.6222 119.285 92.4155 119.313 92.287C119.341 92.1585 119.034 91.8009 118.548 91.5216C118.062 91.2422 117.732 90.7562 117.347 91.0858C117.058 91.3181 116.784 91.5681 116.526 91.8344C116.425 91.9853 117.084 91.935 117.291 92.0132C117.498 92.0914 117.699 92.5998 117.699 92.5998C117.688 92.686 117.653 92.7676 117.599 92.8356C117.545 92.9035 117.473 92.9553 117.392 92.9853C117.112 93.0859 116.676 93.2926 116.676 93.2926C116.676 93.2926 117.246 93.7786 115.967 93.22C114.996 92.7717 114.05 92.27 113.134 91.7171C112.017 91.1584 111.983 90.5997 111.682 91.1584C111.38 91.7171 111.961 91.7953 111.095 91.9238C110.229 92.0523 110.123 91.9741 109.922 92.3093C109.781 92.5804 109.687 92.873 109.643 93.1753L109.592 93.6334C109.592 93.6334 109.285 94.0915 109.184 94.1194C109.004 94.1167 108.829 94.0645 108.676 93.9686C108.576 93.8904 108.855 93.3038 108.855 93.1753C108.753 92.9078 108.623 92.6513 108.469 92.4099C108.469 92.4099 108.112 91.773 107.654 91.8512C107.249 91.9253 106.841 91.9757 106.43 92.002C106.43 92.002 105.179 91.5942 105.257 91.4154C105.335 91.2366 106.022 91.2366 105.972 91.1081C105.922 90.9796 106.179 90.8344 105.358 90.745C104.536 90.6556 103.29 90.3204 103.29 89.7058C103.29 89.0913 102.804 89.0187 102.089 89.041C101.374 89.0634 102.089 88.4041 101.223 88.6835C101.026 88.778 100.808 88.8214 100.589 88.8097C100.37 88.798 100.158 88.7315 99.9718 88.6164C99.9718 88.6164 100.279 88.2756 99.0276 88.3036C97.7762 88.3315 98.184 88.3818 97.6254 88.5829C97.0667 88.784 97.0387 88.6332 96.9885 88.3036C96.9382 87.9739 96.3739 87.8734 95.994 87.9237C95.7395 87.9699 95.5022 88.0837 95.3068 88.2533C95.2713 87.8858 95.159 87.5299 94.9772 87.2085C94.6476 86.5437 95.0778 86.7225 94.3403 86.4934C93.6029 86.2644 92.8095 85.9068 93.3179 85.6275C93.8263 85.3481 94.7202 84.7839 94.1113 84.3537C93.5023 83.9235 93.6252 83.8453 92.6084 84.0743C91.5916 84.3034 91.2564 83.8676 90.8988 84.3537C90.5413 84.8397 90.9491 84.7895 89.8541 85.1973C88.7591 85.6051 89.0105 85.3761 88.5021 86.0912C87.9937 86.8063 87.9434 87.0354 87.8149 86.756C87.6864 86.4767 87.9155 85.6833 88.4015 85.1247C88.6867 84.7417 88.9373 84.3341 89.1502 83.9067C88.2041 84.3835 87.273 84.8807 86.3568 85.3984C86.1229 85.5782 85.9653 85.8395 85.9154 86.1303C85.7813 87.1192 86.4238 87.5717 85.6752 87.7169C84.9265 87.8622 84.6863 88.4097 84.2785 88.4432C83.8706 88.4767 84.1444 88.136 83.1611 88.0689C82.6695 88.0354 82.4236 87.9348 82.1443 87.9348C80.6284 88.9181 79.1516 89.9554 77.714 91.0467C78.1527 91.4958 78.4044 92.095 78.4179 92.7227L76.5351 93.9853L74.0378 94.6949C74.3846 94.9333 74.7808 95.0904 75.1968 95.1542C75.6128 95.2181 76.0378 95.1871 76.4402 95.0636C77.971 94.6893 78.8928 92.9015 78.8425 93.6166C78.7922 94.3317 77.9263 94.6725 77.4626 95.1642C76.9989 95.6558 79.0436 94.991 79.4515 94.4826C79.8593 93.9742 80.3174 92.0858 80.8817 92.4937C81.2263 92.7585 81.4627 93.1399 81.5465 93.5663L80.6806 94.4323L81.9544 95.058L83.8427 96.0636C83.8427 96.0636 83.9433 96.0636 83.8427 96.6223C83.7421 97.181 83.4013 97.3039 83.5689 97.5218C83.7366 97.7397 83.7198 97.7285 83.4069 98.2369C83.1165 98.663 82.8534 99.1071 82.6192 99.5666C82.5521 99.79 82.9767 99.9241 83.1108 99.5666C83.2449 99.209 83.4851 98.7006 83.4851 98.7006C83.4851 98.7006 84.1332 97.5274 84.2841 97.6615C84.4062 97.8061 84.4992 97.9731 84.5578 98.1531L83.9991 99.3654C83.9991 99.3654 83.9488 99.6895 83.8818 99.9968C83.8148 100.304 83.9153 100.371 83.7477 100.505C83.5801 100.639 83.189 100.03 83.5801 100.639C83.9712 101.248 83.8204 101.254 83.5801 101.522C83.3399 101.79 83.0829 101.863 83.3846 102.137C83.6863 102.41 84.0941 101.729 84.2617 101.93C84.4293 102.131 84.636 101.963 84.5355 102.371C84.4349 102.779 84.9656 103.019 84.5355 103.254C84.1053 103.489 83.5689 102.913 83.3566 102.98C83.1443 103.047 83.0438 103.03 82.9767 103.31C82.9097 103.589 82.6695 103.729 82.9767 103.93C83.284 104.131 82.9097 104.405 82.8762 104.611C82.8427 104.818 84.6807 104.053 83.9935 104.611C83.3064 105.17 83.1779 105.226 82.9712 105.768C82.7644 106.31 82.4125 106.79 82.8371 106.79C83.2617 106.79 83.6192 106.176 83.893 106.176C84.1667 106.176 83.9824 106.483 83.6472 106.79C83.312 107.098 82.7365 106.757 82.5298 107.198C82.4031 107.503 82.1893 107.763 81.9152 107.947C81.608 108.221 81.6415 108.288 82.0493 108.628C82.4572 108.969 83.4907 108.494 83.3511 108.628C83.2114 108.762 83.027 108.762 82.8427 108.986C82.6583 109.209 82.4348 109.545 82.798 109.461C83.0825 109.44 83.3563 109.343 83.5913 109.181C83.7589 109.036 84.2952 108.723 84.0103 109.064C83.7254 109.405 83.5075 109.304 83.5522 109.584C83.5969 109.863 83.703 109.668 83.6695 109.941C83.636 110.215 83.636 110.383 83.7701 110.45C83.8696 110.463 83.9709 110.449 84.0633 110.41C84.1558 110.371 84.2359 110.307 84.2952 110.226C84.3623 110.092 84.7031 110.019 84.5355 110.293C84.3679 110.567 84.0271 110.768 84.1779 111.042C84.3288 111.316 84.4852 111.534 84.4852 111.534L84.2617 112.092L84.1947 113.025C84.0749 113.421 83.9274 113.807 83.7533 114.182C83.5131 114.657 83.1388 115.539 83.1388 115.539H82.6639L82.7644 113.958C82.7093 113.596 82.6176 113.24 82.4907 112.897C82.3901 112.796 82.1499 112.74 81.9823 113.081C81.8639 113.337 81.7722 113.605 81.7085 113.88C81.7289 114.113 81.6824 114.348 81.5745 114.556C81.4376 114.83 81.3452 115.124 81.3007 115.428C80.7813 115.726 80.3927 116.209 80.2113 116.78C79.8034 117.835 79.5353 117.83 79.3286 118.713C79.1218 119.595 79.4626 120.104 78.647 120.618C77.8313 121.132 77.6916 120.819 77.457 121.774C77.2223 122.729 77.5911 122.797 77.1497 123.646C76.7083 124.495 76.4346 124.495 76.3675 125.21C76.3005 125.925 76.0212 126.623 76.0267 127.21C76.0323 127.797 75.5798 128.272 76.0267 128.679C76.4737 129.087 76.2335 129.054 76.4737 129.087C76.7139 129.121 76.6413 128.814 77.1218 129.087C77.6022 129.361 77.971 128.987 77.5966 129.361C77.2223 129.735 77.0882 129.92 77.0882 129.92C77.0882 129.92 76.848 129.646 76.7474 130.126C76.6469 130.607 76.1888 130.562 76.2726 130.802C76.3927 131.044 76.5533 131.263 76.7474 131.45C76.7474 131.45 75.9318 131.518 76.3396 132.333C76.7474 133.149 76.6804 132.981 76.6804 133.624C76.6752 133.994 76.7318 134.362 76.848 134.713L77.4067 135.691L77.9151 136.35C77.9151 136.35 77.4737 136.384 78.2559 136.909C79.038 137.434 78.971 136.4 79.1721 137.624C79.2923 138.195 79.3392 138.779 79.3118 139.361L79.8705 140.077C80.0147 140.489 80.0699 140.927 80.0325 141.362C79.999 142.216 80.0325 141.674 80.0325 142.73C80.0325 143.786 80.0325 144.021 80.4403 144.736C80.8482 145.451 81.77 145.792 81.9376 146.2C82.0529 146.609 82.1094 147.032 82.1052 147.457C82.1052 147.457 82.1387 147.764 82.2393 148.272C82.3398 148.781 82.1722 148.647 81.7309 148.138C81.6823 148.072 81.6176 148.02 81.5429 147.986C81.4682 147.952 81.3861 147.937 81.3043 147.944C81.2225 147.951 81.1438 147.978 81.0757 148.024C81.0076 148.07 80.9523 148.132 80.9152 148.205C80.8972 148.369 80.9187 148.535 80.978 148.688C81.0373 148.842 81.1327 148.979 81.256 149.088C81.6974 149.563 82.446 150.345 82.446 150.345C82.446 150.345 82.7197 150.138 82.9209 151.027C83.122 151.915 83.3455 151.675 83.3343 152.39C83.3231 153.105 83.055 154.021 84.2114 154.977C85.3679 155.932 84.7701 155.535 85.2338 156.608C85.5485 157.418 86.0637 158.135 86.7311 158.692C87.206 159.061 88.6362 160.569 87.7535 158.692C86.8708 156.815 86.407 156.921 86.0271 156.289C85.6472 155.658 86.0271 154.977 85.5076 153.278C84.988 151.58 84.0773 149.881 83.8762 148.686C83.6751 147.49 83.7421 146.278 82.8538 144.267C81.9655 142.255 81.4236 141.093 82.2393 141.641C83.055 142.188 84.122 141.267 84.1891 142.384C84.2561 143.501 84.3232 145.278 84.3232 145.278C84.4867 145.999 84.7381 146.697 85.0718 147.356C85.8204 149.127 86.2953 149.194 86.6361 149.535C86.9256 149.971 87.1338 150.455 87.2507 150.965C87.2507 150.965 88.7479 151.58 88.7479 152.122C88.7479 152.664 88.1334 152.395 88.7479 153.552C89.3625 154.708 88.5412 153.759 89.3625 154.708C89.8795 155.32 90.336 155.981 90.7257 156.681L92.8375 159.334C92.8671 159.814 93.0066 160.28 93.2453 160.697C93.6531 161.446 94.3627 161.385 93.899 161.949C93.4353 162.513 92.8263 162.664 93.1336 162.843C93.4408 163.022 93.5191 163.122 93.2844 163.329C93.0498 163.536 93.8431 164.374 94.1951 165.396C94.547 166.418 95.0107 166.513 95.6588 167.133C96.0952 167.494 96.4447 167.949 96.6812 168.463C97.089 169.178 96.5806 168.631 97.9047 169.111C98.714 169.417 99.4546 169.88 100.084 170.474C100.391 170.681 101.017 170.815 103.212 171.938C105.408 173.061 106.006 173.614 107.089 173.977C108.173 174.34 108.313 174.793 109.129 174.592C109.944 174.391 110.352 173.927 110.866 174.184C111.38 174.441 111.073 175.05 111.782 174.642C112.492 174.234 112.598 174.301 112.805 174.776C113.011 175.251 114.336 176.123 114.336 176.123C114.336 176.123 113.313 176.581 115 177.603C116.537 178.536 118.034 179.279 118.593 179.145C118.593 179.24 118.766 179.38 119.151 179.592C120.092 180.086 120.926 180.762 121.604 181.581C121.998 182.078 122.23 182.685 122.269 183.318C122.252 183.532 122.309 183.745 122.43 183.922C122.551 184.099 122.729 184.229 122.934 184.291C123.492 184.548 124.263 184.391 124.872 184.799C125.481 185.207 124.721 185.358 125.844 185.872C126.391 186.146 126.977 186.334 127.582 186.43L128.196 186.173L129.828 186.43C129.828 186.43 130.543 186.838 130.593 187.145C130.643 187.453 130.236 187.704 130.85 187.961C131.009 188.039 131.184 188.08 131.361 188.08C131.539 188.08 131.714 188.039 131.873 187.961C131.873 187.961 133.454 187.704 133.146 187.145C132.839 186.587 131.716 186.687 132.532 186.173C133.347 185.659 133.705 185.458 134.063 185.257C134.42 185.056 134.571 184.9 135.18 185.514C135.789 186.129 136.152 185.414 135.794 186.129C135.437 186.844 135.415 187.045 135.934 187.101C136.254 187.136 136.558 187.26 136.811 187.458C136.811 187.458 137.476 187.738 137.476 188.084C137.476 188.43 136.968 188.33 137.018 188.788C137.068 189.246 136.303 189.095 136.66 189.553C137.018 190.011 136.353 190.218 136.61 190.727C136.867 191.235 136.102 191.285 136.66 192C137.219 192.715 136.867 193.33 135.845 193.632C134.822 193.933 135.23 193.123 134.672 194.19C134.113 195.257 134.264 195.308 133.789 195.447C133.155 195.682 132.54 195.966 131.951 196.297C131.135 196.704 131.236 195.889 130.833 197.079C130.431 198.269 130.833 198.269 130.018 198.95C129.79 199.117 129.608 199.339 129.489 199.595C129.37 199.851 129.317 200.132 129.336 200.414C129.336 200.414 132.431 200.04 131.208 200.822C130.608 201.133 130.076 201.56 129.643 202.079C129.44 202.303 129.253 202.542 129.085 202.794L128.526 203.783L128.392 204.939C128.392 204.939 128.666 204.699 129.582 205.314C130.498 205.928 130.699 205.962 130.839 206.163C131.285 206.986 131.85 207.739 132.515 208.398C133.101 209.022 133.732 209.603 134.403 210.135C134.861 210.493 135.32 210.342 135.269 210.951C135.219 211.56 135.169 211.308 136.342 211.666C137.515 212.023 138.281 212.381 139.096 212.381C139.912 212.381 141.8 212.688 142.365 212.688C142.929 212.688 143.281 212.638 142.923 213.046C142.566 213.454 141.901 214.985 141.035 215.839C140.169 216.694 139.918 217.219 138.688 217.627C137.459 218.035 136.75 218.392 135.984 218.649C135.219 218.906 134.711 220.018 134.711 220.024C145.6 217.996 155.88 213.501 164.763 206.885C173.646 200.269 180.897 191.707 185.958 181.855L184.472 182.05L182.321 183.682ZM146.203 106.919C146.46 106.785 146.8 107.086 147.052 107.293C147.195 107.442 147.386 107.534 147.592 107.552C147.797 107.571 148.002 107.514 148.169 107.394C148.694 107.086 149.002 107.276 149.516 107.494C150.03 107.712 149.449 107.952 148.784 108.209C148.119 108.466 148.666 108.45 148.069 108.45C147.471 108.45 147.884 108.774 147.694 109.008C147.504 109.243 147.03 108.483 146.331 107.919C145.633 107.355 145.655 107.187 146.203 106.919ZM120.615 118.456C122.604 117.791 122.146 117.31 123.319 118.215C124.492 119.12 125.057 118.567 125.207 119.484C125.358 120.4 126.688 121.16 126.688 121.16L128.526 121.506L131.28 122.065C131.28 122.065 132.113 122.355 132.303 122.998C132.493 123.64 133.068 123.908 131.945 123.897C131.094 123.85 130.253 123.692 129.442 123.428C129.442 123.428 129.157 123.685 129.196 124.808C129.236 125.931 129.755 125.724 128.984 126.389C128.213 127.054 126.431 127.612 127.811 127.562C129.191 127.512 130.264 126.797 130.872 127.205C131.481 127.612 131.889 126.696 132.504 126.646C133.118 126.596 132.403 126.182 133.169 125.623C133.934 125.065 134.012 124.657 135.146 124.757C136.281 124.858 136.079 124.501 137.146 124.501C138.214 124.501 139.085 125.411 137.655 125.618C136.225 125.825 136.024 125.568 134.901 126.031C133.778 126.495 133.783 125.774 133.521 126.797C133.258 127.819 134.236 127.663 132.856 128.177C131.476 128.691 132.241 128.305 130.66 128.545C129.079 128.786 129.437 128.892 128.157 128.786C126.878 128.679 125.811 128.685 126.42 127.713C127.029 126.741 128.615 127.098 128.258 125.975C127.9 124.852 127.392 125.003 126.677 125.26C125.962 125.517 127.006 124.311 127.023 123.892C127.04 123.473 126.627 122.947 125.861 122.774C125.096 122.601 125.096 121.919 124.431 122.964C123.766 124.009 123.766 123.26 123.515 123.864C123.263 124.467 123.107 123.797 123.107 125.584C123.107 127.372 123.464 128.473 121.934 128.791C120.403 129.11 120.258 126.601 120.911 125.584C121.565 124.568 122.185 123.819 121.369 123.864C120.554 123.908 121.42 122.411 122.341 122.238C123.263 122.065 123.671 122.148 124.436 122.031C125.202 121.914 125.816 122.031 125.917 121.813C126.018 121.595 125.101 120.539 124.179 120.696C123.258 120.852 123.973 120.947 122.8 121.087C121.626 121.227 120.503 121.026 120.811 120.696C121.118 120.366 121.369 120.366 120.542 120.059C119.716 119.752 120.615 118.456 120.615 118.456ZM113.453 110.634C114.011 110.545 113.52 110.176 113.62 109.6C113.721 109.025 114.268 109.293 115.458 109.327C115.458 109.327 115.665 109.735 115.118 109.885C114.57 110.036 114.844 110.126 114.71 110.444C114.569 110.777 114.512 111.14 114.542 111.5C114.482 111.751 114.484 112.013 114.55 112.262C114.615 112.512 114.741 112.741 114.917 112.93C115.358 113.489 115.157 113.489 115.324 114.651C115.492 115.813 114.816 115.243 114.101 115.411C113.386 115.578 114.101 115.411 114.062 114.852C114.023 114.293 114.268 113.897 113.861 113.103C113.453 112.31 113.213 112.813 113.146 112.232C113.078 111.651 113.352 111.673 112.861 111.176C112.369 110.679 112.872 110.695 113.447 110.606L113.453 110.634ZM111.648 110.634C111.648 110.634 112.207 111.483 111.816 111.835C111.425 112.187 111.509 112.539 112.056 112.813C112.604 113.087 112.704 112.981 112.497 113.494C112.291 114.008 112.665 114.176 112.838 115.059C113.011 115.942 112.056 115.433 112.056 114.634C112.056 113.835 111.749 114.036 111.24 113.629C110.732 113.221 110.766 113.014 110.877 112.606C110.989 112.198 111.073 111.992 110.391 111.316C109.71 110.64 110.285 110.539 111.648 110.628V110.634ZM109.263 104.824C109.341 103.88 109.134 104.064 110.084 104.209C110.419 104.259 110.721 104.516 110.414 105.461C110.106 106.405 109.955 105.818 109.112 106.304C108.268 106.79 109.207 105.768 109.263 104.824ZM91.4966 127.791C91.0609 128.786 91.0106 128.249 90.0161 128.35C89.0217 128.45 90.0161 127.841 90.0161 126.489C90.0161 125.137 89.8876 125.579 91.2899 125.517C91.8765 125.473 91.9436 126.797 91.4966 127.791ZM98.4131 93.6222C98.4131 93.6222 98.8209 93.4937 99.8657 93.2646C100.91 93.0356 100.044 93.1138 99.4243 92.8289C98.8042 92.5439 98.9494 92.7507 97.6198 92.5719C96.2901 92.3931 98.5919 92.3428 99.916 92.2925C101.24 92.2423 100.279 92.2367 101.626 92.4434C102.156 92.5272 101.575 93.0021 102.313 93.2367C103.05 93.4714 102.313 93.4155 102.313 93.8233C102.313 94.2312 102.033 94.3094 101.396 93.9015C100.76 93.4937 100.888 93.9015 100.681 94.0803C100.475 94.2591 99.6366 94.896 99.6366 94.896C99.0715 94.7004 98.5254 94.4536 98.0053 94.1585C97.3404 93.7507 98.4131 93.6222 98.4131 93.6222ZM105.402 97.6894C105.017 97.6894 104.816 97.9967 104.33 98.5051C104.172 98.6985 103.966 98.8473 103.732 98.9365C103.499 99.0257 103.247 99.0522 103 99.0135C102.441 99.0135 102.335 99.114 101.033 99.4716C99.7316 99.8292 100.139 99.6224 99.4523 99.1643C98.7651 98.7062 98.6366 98.6783 98.5584 98.4492C98.4801 98.2201 99.6031 98.4995 99.9607 98.2704C100.263 98.0393 100.537 97.773 100.776 97.4771C100.776 97.4771 100.525 96.7117 101.234 96.505C101.558 96.41 101.464 96.8346 101.693 97.371C101.922 97.9073 102.151 98.1643 102.994 98.0749C103.838 97.9855 103.966 97.5497 105.14 97.4212C106.313 97.2927 105.788 97.6894 105.402 97.6894ZM118.855 178.978C119.263 178.637 119.799 178.268 119.85 178.681C119.878 178.922 119.235 178.91 118.855 178.978Z" fill="#20B58D"/>
<path d="M155.069 147.141C152.209 131.571 141.102 138.565 141.102 138.565C125.543 123.9 122.861 142.856 122.861 142.856C115.71 140.174 113.744 147.147 113.744 147.147C103.872 144.756 100.821 149.94 100 154.655H165.991C164.165 143.348 155.069 147.141 155.069 147.141Z" fill="white"/>
<path d="M65.9165 131.396C64.1175 121.608 57.1508 126.005 57.1508 126.005C47.3739 116.786 45.6867 128.703 45.6867 128.703C41.2172 127.027 39.9546 131.401 39.9546 131.401C33.7476 129.899 31.8314 133.145 31.3174 136.122H72.7939C71.6374 129.016 65.9165 131.396 65.9165 131.396Z" fill="white"/>
<path d="M90.2084 89.6065C87.9178 77.1479 79.0348 82.7459 79.0348 82.7459C66.5874 71.0136 64.4365 86.1818 64.4365 86.1818C58.71 84.0364 57.1345 89.6177 57.1345 89.6177C49.2347 87.707 46.7933 91.8524 46.1396 95.6291H98.9406C97.4713 86.5505 90.2084 89.6065 90.2084 89.6065Z" fill="white"/>
<path opacity="0.5" d="M96.6652 125.211C106.701 112.343 109.624 97.8451 103.193 92.83C96.7626 87.8149 83.4139 94.1813 73.3779 107.05C63.342 119.918 60.4193 134.416 66.8499 139.431C73.2806 144.446 86.6293 138.08 96.6652 125.211Z" fill="white"/>
</g>
</svg>
