<svg width="40" height="40" viewBox="0 0 40 40" fill="none" xmlns="http://www.w3.org/2000/svg">
<g filter="url(#filter0_d)">
<path fill-rule="evenodd" clip-rule="evenodd" d="M20 34C28.8366 34 36 26.8366 36 18C36 9.16344 28.8366 2 20 2C11.1634 2 4 9.16344 4 18C4 26.8366 11.1634 34 20 34Z" fill="#FDE9C2"/>
</g>
<path d="M26.9728 11.0327H14.9171C14.5902 11.0327 14.3252 11.2978 14.3252 11.6247V14.3622H25.0042C25.3311 14.3622 25.5961 14.6273 25.5961 14.9542V21.465H29.3695C29.6964 21.465 29.9614 21.2 29.9614 20.8731V11.6247C29.9614 11.2978 29.6964 11.0327 29.3695 11.0327H28.0996" fill="#CED6D8"/>
<path d="M29.3691 11.0327H19.8368C19.2446 15.493 21.6966 19.7144 25.7309 21.465H29.3691C29.6961 21.465 29.9611 21.2 29.9611 20.873V11.6247C29.961 11.2978 29.6961 11.0327 29.3691 11.0327Z" fill="#E3E7E8"/>
<path d="M29.9615 16.9822H25.5962V19.4486H29.9615V16.9822Z" fill="#636362"/>
<path d="M29.9615 16.9822H25.5962V18.2154H29.9615V16.9822Z" fill="#767574"/>
<path d="M11.8806 24.7544H10.5919C10.265 24.7544 10 24.4894 10 24.1624V14.914C10 14.5871 10.265 14.322 10.5919 14.322H25.0443C25.3712 14.322 25.6362 14.5871 25.6362 14.914V24.1624C25.6362 24.4893 25.3712 24.7543 25.0443 24.7543H13.0478" fill="#138175"/>
<path d="M25.044 14.322H15.5117C14.9198 18.7764 17.3665 23.0016 21.4057 24.7543H25.044C25.3709 24.7543 25.6359 24.4893 25.6359 24.1624V14.9139C25.6359 14.5871 25.3709 14.322 25.044 14.322Z" fill="#20B58D"/>
<path d="M14.3775 17.5995C14.3775 17.9264 14.1124 18.1914 13.7855 18.1914H12.4044C12.0775 18.1914 11.8125 17.9264 11.8125 17.5995V16.613C11.8125 16.2861 12.0775 16.021 12.4044 16.021H13.7855C14.1125 16.021 14.3776 16.2861 14.3776 16.613L14.3775 17.5995Z" fill="#FEC970"/>
<path d="M13.7851 17.1063H12.404C12.0938 17.1063 11.8397 16.8675 11.8146 16.5637C11.8112 16.6051 11.8121 16.5188 11.8121 17.5996C11.8121 17.9265 12.0771 18.1915 12.404 18.1915H13.7852C14.1121 18.1915 14.3772 17.9265 14.3772 17.5996C14.3772 16.5192 14.3781 16.6051 14.3747 16.5637C14.3495 16.8675 14.0954 17.1063 13.7851 17.1063Z" fill="#E49542"/>
<path d="M23.9328 21.0915H11.7037C11.537 21.0915 11.4019 20.9563 11.4019 20.7896C11.4019 20.6229 11.537 20.4878 11.7037 20.4878H23.9328C24.0995 20.4878 24.2347 20.6229 24.2347 20.7896C24.2347 20.9563 24.0995 21.0915 23.9328 21.0915Z" fill="#E1E4E5"/>
<path d="M23.9333 22.4645H11.7042C11.5375 22.4645 11.4023 22.3294 11.4023 22.1627C11.4023 21.9959 11.5375 21.8608 11.7042 21.8608H23.9333C24.1 21.8608 24.2351 21.996 24.2351 22.1627C24.2351 22.3294 24.1 22.4645 23.9333 22.4645Z" fill="#E1E4E5"/>
<defs>
<filter id="filter0_d" x="0" y="0" width="40" height="40" filterUnits="userSpaceOnUse" color-interpolation-filters="sRGB">
<feFlood flood-opacity="0" result="BackgroundImageFix"/>
<feColorMatrix in="SourceAlpha" type="matrix" values="0 0 0 0 0 0 0 0 0 0 0 0 0 0 0 0 0 0 127 0"/>
<feOffset dy="2"/>
<feGaussianBlur stdDeviation="2"/>
<feColorMatrix type="matrix" values="0 0 0 0 0.188536 0 0 0 0 0.188536 0 0 0 0 0.188536 0 0 0 0.200889 0"/>
<feBlend mode="normal" in2="BackgroundImageFix" result="effect1_dropShadow"/>
<feBlend mode="normal" in="SourceGraphic" in2="effect1_dropShadow" result="shape"/>
</filter>
</defs>
</svg>
