<svg width="40" height="40" viewBox="0 0 40 40" fill="none" xmlns="http://www.w3.org/2000/svg">
<g filter="url(#filter0_d)">
<path fill-rule="evenodd" clip-rule="evenodd" d="M20 34C28.8366 34 36 26.8366 36 18C36 9.16344 28.8366 2 20 2C11.1634 2 4 9.16344 4 18C4 26.8366 11.1634 34 20 34Z" fill="#138175"/>
</g>
<path d="M11.356 18.1493C11.356 23.0693 15.3443 27.0577 20.2643 27.0577C25.1843 27.0577 29.1727 23.0693 29.1727 18.1493C29.1727 13.2293 25.1843 9.24097 20.2643 9.24097V18.1493H11.356Z" fill="#ECEAEC"/>
<path d="M20.2644 18.1494L23.6618 26.3868C22.6149 26.8193 21.4673 27.0578 20.2644 27.0578C15.3446 27.0578 11.356 23.0695 11.356 18.1494H20.2644Z" fill="#20B58D"/>
<path d="M26.817 12.1146L20.2642 18.1494V9.24097C22.8563 9.24097 25.1896 10.348 26.817 12.1146Z" fill="#61C1B8"/>
<path d="M10.1152 16.9084H19.0236V8C14.1036 8 10.1152 11.9884 10.1152 16.9084Z" fill="#FEC970"/>
<path d="M14.8866 13.2746C14.8856 13.2719 14.8846 13.2693 14.8835 13.2667C14.8304 13.1375 14.7059 13.0542 14.5663 13.0542C14.5662 13.0542 14.566 13.0542 14.5659 13.0542C14.4262 13.0543 14.3017 13.138 14.2488 13.2673C14.2479 13.2695 14.2471 13.2717 14.2463 13.2738L13.3285 15.6836C13.2719 15.832 13.3464 15.9982 13.4949 16.0547C13.6434 16.1113 13.8095 16.0367 13.866 15.8883L14.024 15.4734H15.1016L15.2579 15.8875C15.3013 16.0027 15.4108 16.0737 15.527 16.0737C15.5607 16.0737 15.595 16.0677 15.6284 16.0551C15.777 15.999 15.8521 15.8331 15.796 15.6845L14.8866 13.2746ZM14.2431 14.8982L14.5653 14.0522L14.8845 14.8982H14.2431Z" fill="white"/>
<path d="M18.415 15.6205L17.6107 14.4772L18.2939 13.5074C18.3854 13.3776 18.3543 13.1982 18.2244 13.1067C18.0946 13.0152 17.9151 13.0464 17.8237 13.1762L17.2592 13.9775L16.6956 13.1764C16.6042 13.0465 16.4248 13.0153 16.2949 13.1066C16.165 13.198 16.1338 13.3774 16.2251 13.5073L16.9073 14.477L16.1018 15.6204C16.0104 15.7503 16.0414 15.9297 16.1713 16.0212C16.2217 16.0566 16.2794 16.0736 16.3367 16.0736C16.4271 16.0736 16.516 16.0312 16.572 15.9517L17.2589 14.9767L17.9446 15.9515C18.0006 16.0311 18.0896 16.0736 18.18 16.0736C18.2372 16.0736 18.295 16.0566 18.3453 16.0213C18.4752 15.9299 18.5064 15.7504 18.415 15.6205Z" fill="white"/>
<path d="M13.5339 13.3418C13.5339 13.183 13.4051 13.0542 13.2463 13.0542H11.8965C11.7376 13.0542 11.6089 13.183 11.6089 13.3418C11.6089 13.5006 11.7376 13.6294 11.8965 13.6294H12.281V15.786C12.281 15.9448 12.4098 16.0735 12.5686 16.0735C12.7274 16.0735 12.8562 15.9448 12.8562 15.786V13.6294H13.2462C13.4051 13.6294 13.5339 13.5006 13.5339 13.3418Z" fill="white"/>
<path d="M24.1665 22.2097C24.1294 22.2097 24.0916 22.2025 24.0553 22.1873C23.9088 22.1258 23.8399 21.9572 23.9014 21.8108L26.0113 16.7833C26.0728 16.6368 26.2414 16.568 26.3878 16.6294C26.5343 16.6909 26.6032 16.8594 26.5417 17.0059L24.4317 22.0334C24.3856 22.1435 24.2788 22.2097 24.1665 22.2097Z" fill="#6F6571"/>
<path d="M23.7628 19.1145C23.0902 19.1145 22.543 18.4995 22.543 17.7435C22.543 16.9876 23.0902 16.3726 23.7628 16.3726C24.4355 16.3726 24.9827 16.9876 24.9827 17.7435C24.9827 18.4995 24.4355 19.1145 23.7628 19.1145ZM23.7628 16.9478C23.4074 16.9478 23.1182 17.3047 23.1182 17.7435C23.1182 18.1823 23.4074 18.5393 23.7628 18.5393C24.1183 18.5393 24.4075 18.1823 24.4075 17.7435C24.4075 17.3047 24.1183 16.9478 23.7628 16.9478Z" fill="#6F6571"/>
<path d="M26.6125 22.552C25.9398 22.552 25.3926 21.937 25.3926 21.181C25.3926 20.4251 25.9398 19.8101 26.6125 19.8101C27.2851 19.8101 27.8323 20.4251 27.8323 21.181C27.8324 21.937 27.2851 22.552 26.6125 22.552ZM26.6125 20.3853C26.257 20.3853 25.9678 20.7422 25.9678 21.181C25.9678 21.6198 26.257 21.9768 26.6125 21.9768C26.9679 21.9768 27.2571 21.6198 27.2571 21.181C27.2572 20.7422 26.968 20.3853 26.6125 20.3853Z" fill="#6F6571"/>
<path d="M18.5744 21.9698C18.4909 21.9403 18.4055 21.9093 18.3203 21.8771V20.5172C18.5346 20.5685 18.6622 20.6769 18.6733 20.6865C18.7901 20.7924 18.9706 20.7844 19.0777 20.6683C19.1854 20.5516 19.1781 20.3696 19.0613 20.2619C19.045 20.2469 18.7701 19.9993 18.3203 19.9318V19.654C18.3203 19.4952 18.1916 19.3665 18.0327 19.3665C17.8739 19.3665 17.7452 19.4952 17.7452 19.654V19.9539C17.7025 19.9633 17.6592 19.9741 17.6149 19.9874C17.2035 20.1113 16.8961 20.4634 16.8127 20.9063C16.7366 21.31 16.8659 21.6993 17.1502 21.9223C17.3009 22.0405 17.4884 22.1487 17.7452 22.263V23.9875C17.523 23.9712 17.3691 23.9169 17.117 23.7519C16.984 23.6649 16.8058 23.7022 16.7188 23.8351C16.6319 23.968 16.6691 24.1463 16.8021 24.2332C17.1697 24.4738 17.4209 24.5455 17.7452 24.5637V24.8747C17.7452 25.0336 17.8739 25.1623 18.0327 25.1623C18.1916 25.1623 18.3203 25.0336 18.3203 24.8747V24.5408C18.9656 24.4143 19.3424 23.8822 19.426 23.3852C19.5334 22.7462 19.1991 22.1906 18.5744 21.9698ZM17.5051 21.4697C17.3904 21.3798 17.3416 21.2047 17.3778 21.0127C17.4102 20.8407 17.5238 20.6341 17.7451 20.5505V21.6231C17.6548 21.5741 17.5731 21.523 17.5051 21.4697ZM18.8587 23.2898C18.8145 23.5531 18.6311 23.8322 18.3203 23.9434V22.4897C18.341 22.4972 18.3613 22.5045 18.3827 22.5121C18.9141 22.7 18.8814 23.1548 18.8587 23.2898Z" fill="white"/>
<path d="M22.3976 14.1838C22.2347 14.1838 22.1021 14.3164 22.1021 14.4794C22.1021 14.6424 22.2346 14.775 22.3976 14.775C22.5606 14.775 22.6932 14.6424 22.6932 14.4794C22.6932 14.3164 22.5606 14.1838 22.3976 14.1838Z" fill="white"/>
<path d="M22.4018 13.587C22.5607 13.587 22.6894 13.4582 22.6894 13.2994V10.6623C22.6894 10.5035 22.5607 10.3748 22.4018 10.3748C22.243 10.3748 22.1143 10.5035 22.1143 10.6623V13.2994C22.1143 13.4582 22.243 13.587 22.4018 13.587Z" fill="white"/>
<defs>
<filter id="filter0_d" x="0" y="0" width="40" height="40" filterUnits="userSpaceOnUse" color-interpolation-filters="sRGB">
<feFlood flood-opacity="0" result="BackgroundImageFix"/>
<feColorMatrix in="SourceAlpha" type="matrix" values="0 0 0 0 0 0 0 0 0 0 0 0 0 0 0 0 0 0 127 0"/>
<feOffset dy="2"/>
<feGaussianBlur stdDeviation="2"/>
<feColorMatrix type="matrix" values="0 0 0 0 0.188536 0 0 0 0 0.188536 0 0 0 0 0.188536 0 0 0 0.200889 0"/>
<feBlend mode="normal" in2="BackgroundImageFix" result="effect1_dropShadow"/>
<feBlend mode="normal" in="SourceGraphic" in2="effect1_dropShadow" result="shape"/>
</filter>
</defs>
</svg>
