<svg width="40" height="40" viewBox="0 0 40 40" fill="none" xmlns="http://www.w3.org/2000/svg">
<g filter="url(#filter0_d)">
<path fill-rule="evenodd" clip-rule="evenodd" d="M20 34C28.8366 34 36 26.8366 36 18C36 9.16344 28.8366 2 20 2C11.1634 2 4 9.16344 4 18C4 26.8366 11.1634 34 20 34Z" fill="#65A4C5"/>
</g>
<path fill-rule="evenodd" clip-rule="evenodd" d="M14.6704 20.7036V24.0276H15.5099C15.6337 24.0276 15.7359 24.1034 15.7359 24.1964V25.2609H18.7178V24.1964C18.7178 24.1034 18.8201 24.0276 18.9453 24.0276H19.7848V20.7036H18.9453C18.8201 20.7036 18.7178 20.6277 18.7178 20.5358V19.4702H15.7359V20.5358C15.7359 20.6277 15.6337 20.7036 15.5099 20.7036H14.6704Z" fill="#B6B1B7"/>
<path fill-rule="evenodd" clip-rule="evenodd" d="M20.8354 20.7036V24.0276H21.7138C21.8449 24.0276 21.9519 24.1034 21.9519 24.1964V25.2609H25.0722V24.1964C25.0722 24.1034 25.1792 24.0276 25.3103 24.0276H26.1887V20.7036H25.3103C25.1792 20.7036 25.0722 20.6277 25.0722 20.5358V19.4702H21.9519V20.5358C21.9519 20.6277 21.8449 20.7036 21.7138 20.7036H20.8354Z" fill="#B6B1B7"/>
<path fill-rule="evenodd" clip-rule="evenodd" d="M12.2715 13.5009V18.3154H28.4685V13.5009L20.3695 8.82495L12.2715 13.5009Z" fill="#ECEAEC"/>
<path fill-rule="evenodd" clip-rule="evenodd" d="M11.0987 14.075C11.3029 14.4287 11.7582 14.5506 12.1119 14.3464L12.2712 14.2545L20.3691 9.57857L28.4682 14.2545L28.6274 14.3464C28.9801 14.5506 29.4365 14.4287 29.6396 14.075C29.8437 13.7223 29.7219 13.2659 29.3681 13.0618L20.7764 8.10153C20.6588 8.03312 20.5145 8 20.3691 8C20.2249 8 20.0795 8.03312 19.9619 8.10153L11.3702 13.0618C11.0175 13.2659 10.8946 13.7223 11.0987 14.075Z" fill="#138175"/>
<path fill-rule="evenodd" clip-rule="evenodd" d="M25.4102 20.1318H27.8982V24.5994H25.4102V20.1318Z" fill="#FFE07D"/>
<path fill-rule="evenodd" clip-rule="evenodd" d="M19.125 20.1318H21.6131V24.5994H19.125V20.1318Z" fill="#FFE07D"/>
<path fill-rule="evenodd" clip-rule="evenodd" d="M12.8403 20.1318H15.3295V24.5994H12.8403V20.1318Z" fill="#FFE07D"/>
<path fill-rule="evenodd" clip-rule="evenodd" d="M12.0483 25.261L13.8713 25.9514L16.1192 25.261V24.1965C16.1192 24.1035 16.0434 24.0276 15.9514 24.0276H15.3284H12.8392H12.2161C12.1242 24.0276 12.0483 24.1035 12.0483 24.1965V25.261Z" fill="#ECEAEC"/>
<path fill-rule="evenodd" clip-rule="evenodd" d="M24.6187 25.261L26.817 25.9514L28.6906 25.261V24.1965C28.6906 24.1035 28.6147 24.0276 28.5217 24.0276H27.8987H25.4106H24.7875C24.6946 24.0276 24.6187 24.1035 24.6187 24.1965V25.261Z" fill="#ECEAEC"/>
<path fill-rule="evenodd" clip-rule="evenodd" d="M18.333 25.261L20.3695 25.7541L22.405 25.261V24.1965C22.405 24.1035 22.3291 24.0276 22.2361 24.0276H21.613H19.1249H18.5019C18.4089 24.0276 18.333 24.1035 18.333 24.1965V25.261Z" fill="#ECEAEC"/>
<path fill-rule="evenodd" clip-rule="evenodd" d="M11.1741 26.6419H29.5664C29.6615 26.6419 29.7395 26.5639 29.7395 26.4687V25.4341C29.7395 25.339 29.6615 25.261 29.5664 25.261H28.6911H24.6191H22.4057H18.3337H16.1203H12.0494H11.1741C11.079 25.261 11.001 25.339 11.001 25.4341V26.4687C11.001 26.5639 11.079 26.6419 11.1741 26.6419Z" fill="#138175"/>
<path fill-rule="evenodd" clip-rule="evenodd" d="M19.5054 12.1555C19.5054 12.6557 19.9104 13.0608 20.4106 13.0608C20.9097 13.0608 21.3159 12.6557 21.3159 12.1555C21.3159 11.6553 20.9097 11.2502 20.4106 11.2502C19.9105 11.2502 19.5054 11.6553 19.5054 12.1555Z" fill="#FFE07D"/>
<path fill-rule="evenodd" clip-rule="evenodd" d="M20.3695 9.57886L12.2715 14.2548V15.3065L20.3695 10.6305L28.4685 15.3065V14.2548L20.3695 9.57886Z" fill="#DAD8DB"/>
<path fill-rule="evenodd" clip-rule="evenodd" d="M20.4106 11.2502C19.9105 11.2502 19.5054 11.6553 19.5054 12.1555C19.5054 12.2592 19.5225 12.3575 19.5545 12.4505C19.6881 12.1181 20.0141 11.884 20.3935 11.884C20.79 11.884 21.1277 12.1395 21.2496 12.4943C21.2923 12.3896 21.3158 12.2752 21.3158 12.1555C21.3159 11.6553 20.9097 11.2502 20.4106 11.2502Z" fill="#FFC269"/>
<path fill-rule="evenodd" clip-rule="evenodd" d="M12.8403 20.7036H15.3295V21.6078H12.8403V20.7036Z" fill="#FFC269"/>
<path fill-rule="evenodd" clip-rule="evenodd" d="M19.125 20.7036H21.6131V21.6078H19.125V20.7036Z" fill="#FFC269"/>
<path fill-rule="evenodd" clip-rule="evenodd" d="M25.4102 20.7036H27.8982V21.6078H25.4102V20.7036Z" fill="#FFC269"/>
<path fill-rule="evenodd" clip-rule="evenodd" d="M12.8392 20.7035H15.3284H15.9514C16.0433 20.7035 16.1192 20.6277 16.1192 20.5357V19.2439H12.0483V20.5357C12.0483 20.6276 12.1242 20.7035 12.2161 20.7035H12.8392Z" fill="#ECEAEC"/>
<path fill-rule="evenodd" clip-rule="evenodd" d="M19.125 20.7035H21.6131H22.2361C22.3291 20.7035 22.405 20.6277 22.405 20.5357V19.2439H18.333V20.5357C18.333 20.6276 18.4089 20.7035 18.5019 20.7035H19.125Z" fill="#ECEAEC"/>
<path fill-rule="evenodd" clip-rule="evenodd" d="M24.7875 20.7035H25.4106H27.8987H28.5217C28.6147 20.7035 28.6906 20.6277 28.6906 20.5357V19.2439H24.6187V20.5357C24.6187 20.6277 24.6945 20.7035 24.7875 20.7035Z" fill="#ECEAEC"/>
<path fill-rule="evenodd" clip-rule="evenodd" d="M12.0483 19.4702H16.1192V20.1318H12.0483V19.4702Z" fill="#DAD8DB"/>
<path fill-rule="evenodd" clip-rule="evenodd" d="M18.333 19.4702H22.405V20.1318H18.333V19.4702Z" fill="#DAD8DB"/>
<path fill-rule="evenodd" clip-rule="evenodd" d="M24.6187 19.4702H28.6906V20.1318H24.6187V19.4702Z" fill="#DAD8DB"/>
<path fill-rule="evenodd" clip-rule="evenodd" d="M12.0494 19.4705H16.1203H18.3337H22.4057H24.6191H28.6911H29.5664C29.6615 19.4705 29.7395 19.3925 29.7395 19.2973V18.2628C29.7395 18.1676 29.6615 18.0896 29.5664 18.0896H28.4688H12.2717H11.1741C11.079 18.0896 11.001 18.1676 11.001 18.2628V19.2973C11.001 19.3925 11.079 19.4705 11.1741 19.4705H12.0494Z" fill="#138175"/>
<path d="M16.9581 15.4069C17.0357 15.2849 17.0813 15.1406 17.0813 14.9856C17.0813 14.5511 16.7278 14.1975 16.2932 14.1975H15.6553C15.4991 14.1975 15.3726 14.3241 15.3726 14.4803V15.4915V15.4931V16.6763C15.3726 16.7515 15.4025 16.8237 15.4559 16.8767C15.5089 16.9295 15.5806 16.9591 15.6554 16.9591H15.6566C15.6566 16.9591 16.243 16.9565 16.4047 16.9565C16.8865 16.9565 17.2785 16.5645 17.2785 16.0826C17.2785 15.8106 17.1536 15.5673 16.9581 15.4069ZM16.2932 14.7631C16.4159 14.7631 16.5157 14.8629 16.5157 14.9856C16.5157 15.1083 16.4159 15.2081 16.2932 15.2081C16.2466 15.2081 15.9381 15.2087 15.9381 15.2087V14.7631H16.2932ZM16.4046 16.3909C16.3186 16.3909 16.1126 16.3917 15.9381 16.3923V15.7747C15.9798 15.7746 16.4046 15.7743 16.4046 15.7743C16.5746 15.7743 16.7129 15.9126 16.7129 16.0826C16.7129 16.2526 16.5746 16.3909 16.4046 16.3909Z" fill="#6F6571"/>
<path d="M19.2404 14.4113C19.2394 14.4088 19.2384 14.4062 19.2375 14.4037C19.186 14.2784 19.0653 14.1975 18.9299 14.1975C18.9298 14.1975 18.9297 14.1975 18.9297 14.1975C18.7942 14.1976 18.6734 14.2787 18.6221 14.4041C18.6212 14.4062 18.6204 14.4084 18.6196 14.4106L17.795 16.5757C17.7394 16.7216 17.8126 16.885 17.9586 16.9406C18.1044 16.9962 18.2679 16.9229 18.3235 16.777L18.4595 16.4199H19.394L19.5285 16.7762C19.5712 16.8894 19.6789 16.9592 19.7931 16.9592C19.8262 16.9592 19.86 16.9533 19.8929 16.9409C20.039 16.8858 20.1127 16.7226 20.0576 16.5765L19.2404 14.4113ZM18.6748 15.8543L18.9288 15.1874L19.1805 15.8543H18.6748Z" fill="#6F6571"/>
<path d="M22.4657 14.1975C22.4648 14.1975 22.4639 14.1975 22.4629 14.1975C22.3067 14.199 22.1814 14.3269 22.1829 14.483L22.1956 15.7943L21.1801 14.3237C21.1097 14.2218 20.9815 14.1777 20.8632 14.2144C20.7451 14.2513 20.6646 14.3606 20.6646 14.4844V16.6763C20.6646 16.8325 20.7911 16.9591 20.9473 16.9591C21.1035 16.9591 21.2301 16.8325 21.2301 16.6763V15.3915L22.1967 16.7912C22.2794 16.9108 22.4177 16.9617 22.5488 16.9207C22.6825 16.8789 22.7689 16.754 22.7689 16.5995L22.7484 14.4775C22.7469 14.3223 22.6206 14.1975 22.4657 14.1975Z" fill="#6F6571"/>
<path d="M25.344 16.4729L24.3562 15.52L25.26 14.6892C25.375 14.5835 25.3826 14.4046 25.2769 14.2896C25.1712 14.1747 24.9923 14.1671 24.8773 14.2728L24.1554 14.9364V14.4529C24.1554 14.2968 24.0288 14.1702 23.8726 14.1702C23.7164 14.1702 23.5898 14.2968 23.5898 14.4529V16.6764C23.5898 16.8326 23.7164 16.9592 23.8726 16.9592C24.0288 16.9592 24.1554 16.8326 24.1554 16.6764V16.1121L24.9513 16.88C25.0061 16.9329 25.0769 16.9592 25.1476 16.9592C25.2216 16.9592 25.2956 16.9303 25.3511 16.8728C25.4596 16.7604 25.4563 16.5813 25.344 16.4729Z" fill="#6F6571"/>
<defs>
<filter id="filter0_d" x="0" y="0" width="40" height="40" filterUnits="userSpaceOnUse" color-interpolation-filters="sRGB">
<feFlood flood-opacity="0" result="BackgroundImageFix"/>
<feColorMatrix in="SourceAlpha" type="matrix" values="0 0 0 0 0 0 0 0 0 0 0 0 0 0 0 0 0 0 127 0"/>
<feOffset dy="2"/>
<feGaussianBlur stdDeviation="2"/>
<feColorMatrix type="matrix" values="0 0 0 0 0.188536 0 0 0 0 0.188536 0 0 0 0 0.188536 0 0 0 0.200889 0"/>
<feBlend mode="normal" in2="BackgroundImageFix" result="effect1_dropShadow"/>
<feBlend mode="normal" in="SourceGraphic" in2="effect1_dropShadow" result="shape"/>
</filter>
</defs>
</svg>
