<svg width="73" height="16" viewBox="0 0 73 16" fill="none" xmlns="http://www.w3.org/2000/svg">
<path fill-rule="evenodd" clip-rule="evenodd" d="M36.433 15.03C36.433 15.03 41.4102 14.0619 42.1277 13.4127C42.8452 12.7635 41.1482 11.1348 41.1482 11.1348C41.1482 11.1348 49.7473 5.2351 55.3737 5.2351H70.9431C73.8588 5.2351 70.9431 3.34445 69.4852 2.47885C68.0274 1.61325 67.2073 1.3399 61.319 1.3399H50.909C47.0138 1.3399 41.6607 4.2556 41.6607 4.2556H39.7929C39.7929 4.2556 38.8134 0.622366 36.376 0.53125C33.9729 0.633755 32.9592 4.2556 32.9592 4.2556H31.0913C31.0913 4.2556 25.7382 1.3399 21.843 1.3399H11.5014C5.6586 1.3399 4.84995 1.61325 3.33515 2.47885C1.82035 3.34445 -1.04979 5.2351 1.8773 5.2351H17.4467C23.0731 5.2351 31.6722 11.1348 31.6722 11.1348C31.6722 11.1348 29.941 12.7522 30.6927 13.4127C31.4444 14.0733 36.433 15.03 36.433 15.03Z" fill="#BFCFED"/>
</svg>
