<svg width="268" height="84" viewBox="0 0 268 84" fill="none" xmlns="http://www.w3.org/2000/svg">
<path fill-rule="evenodd" clip-rule="evenodd" d="M137.914 12.9509C139.217 12.7304 140.492 12.3715 141.718 11.8803C142.219 11.4475 141.069 10.3769 141.069 10.3769C141.069 10.3769 146.764 6.4703 150.511 6.4703H160.841C162.777 6.4703 160.841 5.21746 159.873 4.63659C158.905 4.05573 158.324 3.88489 154.452 3.88489H147.527C144.941 3.88489 141.388 5.8211 141.388 5.8211H140.146C140.146 5.8211 139.497 3.40653 137.868 3.34958C136.24 3.29263 135.591 5.8211 135.591 5.8211H134.406C134.406 5.8211 130.853 3.88489 128.267 3.88489H121.342C117.47 3.88489 116.935 4.06712 115.921 4.63659C114.907 5.20607 113.017 6.4703 114.953 6.4703H125.294C129.03 6.4703 134.736 10.3769 134.736 10.3769C134.736 10.3769 133.597 11.4589 134.099 11.8803C135.329 12.3722 136.608 12.7311 137.914 12.9509Z" fill="#BFCFED"/>
<path fill-rule="evenodd" clip-rule="evenodd" d="M181.433 83.03C181.433 83.03 186.41 82.0619 187.128 81.4127C187.845 80.7635 186.148 79.1348 186.148 79.1348C186.148 79.1348 194.747 73.2351 200.374 73.2351H215.943C218.859 73.2351 215.943 71.3444 214.485 70.4788C213.027 69.6132 212.207 69.3399 206.319 69.3399H195.909C192.014 69.3399 186.661 72.2556 186.661 72.2556H184.793C184.793 72.2556 183.813 68.6224 181.376 68.5312C178.973 68.6338 177.959 72.2556 177.959 72.2556H176.091C176.091 72.2556 170.738 69.3399 166.843 69.3399H156.501C150.659 69.3399 149.85 69.6132 148.335 70.4788C146.82 71.3444 143.95 73.2351 146.877 73.2351H162.447C168.073 73.2351 176.672 79.1348 176.672 79.1348C176.672 79.1348 174.941 80.7522 175.693 81.4127C176.444 82.0733 181.433 83.03 181.433 83.03Z" fill="#BFCFED"/>
<path fill-rule="evenodd" clip-rule="evenodd" d="M83.6201 44.9549C83.6201 44.9549 87.4812 44.2032 88.062 43.7021C88.6429 43.2009 87.3103 41.9367 87.3103 41.9367C87.3103 41.9367 93.9732 37.3809 98.3353 37.3809H110.408C112.686 37.3809 110.408 35.9117 109.269 35.2397C108.13 34.5677 107.47 34.3627 102.948 34.3627H94.8615C91.8433 34.3627 87.6976 36.6406 87.6976 36.6406H86.2397C86.2397 36.6406 85.488 33.8274 83.6201 33.7477C81.7523 33.6679 81.0005 36.6406 81.0005 36.6406H79.5541C79.5541 36.6406 75.4083 34.3627 72.3901 34.3627H64.3036C59.7478 34.3627 59.1441 34.5677 57.971 35.2397C56.7979 35.9117 54.5542 37.3809 56.8321 37.3809H68.9049C73.2671 37.3809 79.9299 41.9367 79.9299 41.9367C79.9299 41.9367 78.586 43.1895 79.1782 43.7021C79.7705 44.2146 83.6201 44.9549 83.6201 44.9549Z" fill="#BFCFED"/>
<path fill-rule="evenodd" clip-rule="evenodd" d="M254.075 63.5093C254.82 63.3823 255.55 63.1761 256.251 62.8943C256.535 62.6437 255.875 62.0287 255.875 62.0287C255.875 62.0287 259.144 59.7508 261.285 59.7508H267.207C268.346 59.7508 267.207 59.0332 266.649 58.7029C266.091 58.3727 265.761 58.2701 263.54 58.2701H259.576C258.34 58.4135 257.143 58.8006 256.057 59.4091H255.351C255.351 59.4091 254.975 58.031 254.064 57.9854C253.153 57.9399 252.777 59.4091 252.777 59.4091H252.071C250.984 58.8008 249.788 58.4137 248.551 58.2701H244.588C242.31 58.2701 242.059 58.3727 241.479 58.7029C240.898 59.0332 239.816 59.7508 240.92 59.7508H246.843C248.984 59.7508 252.253 62.0287 252.253 62.0287C252.253 62.0287 251.592 62.6437 251.877 62.8943C252.586 63.1776 253.323 63.3838 254.075 63.5093Z" fill="#BFCFED"/>
<path fill-rule="evenodd" clip-rule="evenodd" d="M13.6775 29.7163C14.4223 29.5888 15.1515 29.3826 15.8529 29.1013C16.1376 28.8507 15.477 28.2357 15.477 28.2357C15.477 28.2357 18.7458 25.9578 20.887 25.9578H26.8096C27.9485 25.9578 26.8096 25.2403 26.2515 24.91C25.6934 24.5797 25.3631 24.4772 23.1422 24.4772H19.1444C17.9076 24.6208 16.7115 25.0079 15.6251 25.6161H14.919C14.919 25.6161 14.5431 24.238 13.6319 24.1924C12.7208 24.1469 12.3449 25.6161 12.3449 25.6161H11.6388C10.5524 25.0079 9.35624 24.6208 8.11944 24.4772H4.14451C1.92356 24.4772 1.61605 24.5797 1.03519 24.91C0.454322 25.2403 -0.627678 25.9578 0.477101 25.9578H6.39963C8.54085 25.9578 11.8096 28.2357 11.8096 28.2357C11.8096 28.2357 11.149 28.8507 11.4452 29.1013C12.1648 29.3865 12.9133 29.5927 13.6775 29.7163Z" fill="#BFCFED"/>
<path fill-rule="evenodd" clip-rule="evenodd" d="M160.1 38.8277C160.849 38.7013 161.582 38.4951 162.287 38.2126C162.572 37.9621 161.911 37.347 161.911 37.347C161.911 37.347 165.18 35.0691 167.321 35.0691H173.244C174.382 35.0691 173.243 34.3516 172.685 34.0213C172.127 33.691 171.797 33.5885 169.576 33.5885H165.613C164.376 33.7315 163.179 34.1186 162.093 34.7275H161.387C161.387 34.7275 161.011 33.3493 160.1 33.3038C159.189 33.2582 158.813 34.7275 158.813 34.7275H158.107C157.021 34.1186 155.824 33.7315 154.588 33.5885H150.624C148.346 33.5885 148.096 33.691 147.515 34.0213C146.934 34.3516 145.852 35.0691 146.957 35.0691H152.879C155.02 35.0691 158.289 37.347 158.289 37.347C158.289 37.347 157.629 37.9621 157.913 38.2126C158.618 38.4954 159.351 38.7016 160.1 38.8277Z" fill="#BFCFED"/>
<path fill-rule="evenodd" clip-rule="evenodd" d="M72.8458 5.52493C73.5906 5.39735 74.3198 5.19119 75.0212 4.9099C75.3059 4.65933 74.6453 4.0443 74.6453 4.0443C74.6453 4.0443 77.9141 1.76641 80.0553 1.76641H85.9779C87.1168 1.76641 85.9779 1.04887 85.4198 0.718576C84.8617 0.388281 84.5314 0.285775 82.3105 0.285775H78.3469C77.1101 0.429371 75.914 0.816466 74.8276 1.42472H74.1214C74.1214 1.42472 73.757 0.0465959 72.8344 0.001038C71.9119 -0.0445199 71.5474 1.42472 71.5474 1.42472H70.8413C69.755 0.816188 68.5588 0.429076 67.3219 0.285775H63.3584C61.0805 0.285775 60.8299 0.388281 60.2491 0.718576C59.6682 1.04887 58.5862 1.76641 59.691 1.76641H65.6135C67.7547 1.76641 71.0235 4.0443 71.0235 4.0443C71.0235 4.0443 70.3629 4.65933 70.6476 4.9099C71.3563 5.19274 72.0932 5.39892 72.8458 5.52493Z" fill="#BFCFED"/>
</svg>
