<svg width="175" height="177" viewBox="0 0 175 177" fill="none" xmlns="http://www.w3.org/2000/svg">
<mask id="mask0" mask-type="alpha" maskUnits="userSpaceOnUse" x="1" y="0" width="171" height="174">
<rect x="1" width="171" height="174" rx="10" fill="white"/>
</mask>
<g mask="url(#mask0)">
<g style="mix-blend-mode:multiply" opacity="0.5">
<path opacity="0.202381" d="M100.485 283.97C161.504 283.97 210.97 234.504 210.97 173.485C210.97 112.466 161.504 63 100.485 63C39.4659 63 -10 112.466 -10 173.485C-10 234.504 39.4659 283.97 100.485 283.97Z" fill="#F18182"/>
<path opacity="0.202381" d="M100.645 265.742C151.509 265.742 192.742 224.509 192.742 173.645C192.742 122.781 151.509 81.5474 100.645 81.5474C49.7808 81.5474 8.54736 122.781 8.54736 173.645C8.54736 224.509 49.7808 265.742 100.645 265.742Z" fill="#F18182"/>
<path opacity="0.1" d="M100.485 245.596C140.311 245.596 172.596 213.311 172.596 173.485C172.596 133.659 140.311 101.374 100.485 101.374C60.659 101.374 28.3738 133.659 28.3738 173.485C28.3738 213.311 60.659 245.596 100.485 245.596Z" fill="#F18182"/>
</g>
<path d="M170.973 139.261C170.973 139.261 170.633 139.033 170.112 138.713C169.595 138.386 168.888 137.984 168.184 137.576C167.47 137.189 166.756 136.802 166.221 136.511C166.139 136.504 165.975 136.671 165.93 136.608C165.889 136.302 165.722 136.048 165.475 135.887C165.473 135.884 165.467 135.882 165.467 135.879C165.427 135.81 165.653 135.736 165.684 135.66C165.658 135.051 165.625 134.239 165.591 133.428C165.535 132.616 165.485 131.805 165.42 131.196C165.362 130.588 165.307 130.182 165.307 130.182C165.275 129.946 165.057 129.781 164.821 129.813C164.623 129.84 164.474 129.999 164.451 130.189C164.451 130.189 164.403 130.595 164.354 131.204C164.298 131.814 164.261 132.626 164.217 133.438C164.196 134.251 164.175 135.062 164.16 135.672C164.19 135.746 164.399 135.815 164.375 135.883C164.125 136.043 163.954 136.3 163.914 136.608C163.868 136.671 163.704 136.505 163.622 136.511C163.087 136.802 162.373 137.189 161.659 137.577C160.955 137.985 160.249 138.387 159.731 138.713C159.211 139.033 158.871 139.261 158.871 139.261C158.712 139.368 158.638 139.573 158.704 139.762C158.782 139.986 159.028 140.105 159.253 140.026C159.253 140.026 159.64 139.891 160.208 139.667C160.78 139.449 161.525 139.125 162.274 138.806C163.012 138.468 163.751 138.129 164.304 137.875C164.353 137.819 164.337 137.641 164.391 137.606C164.41 137.618 164.427 137.633 164.447 137.644L164.231 148.286H163.865L163.622 155.992H166.223L165.979 148.286H165.614L165.397 137.644C165.418 137.633 165.434 137.618 165.454 137.606C165.507 137.641 165.491 137.819 165.54 137.875C166.094 138.129 166.832 138.468 167.57 138.806C168.319 139.125 169.065 139.449 169.636 139.667C170.205 139.891 170.591 140.026 170.591 140.026C170.816 140.105 171.062 139.987 171.14 139.762C171.206 139.572 171.132 139.368 170.973 139.261Z" fill="white"/>
<path d="M144.939 146.682C144.939 146.682 144.666 146.499 144.248 146.242C143.832 145.98 143.265 145.657 142.699 145.33C142.126 145.018 141.552 144.707 141.122 144.474C141.056 144.469 140.924 144.602 140.888 144.552C140.855 144.306 140.721 144.102 140.522 143.972C140.522 143.972 140.516 143.968 140.516 143.967C140.484 143.911 140.666 143.851 140.69 143.79C140.67 143.301 140.643 142.649 140.616 141.997C140.571 141.345 140.531 140.693 140.478 140.204C140.432 139.716 140.387 139.39 140.387 139.39C140.361 139.2 140.187 139.067 139.997 139.093C139.837 139.115 139.718 139.242 139.7 139.395C139.7 139.395 139.661 139.722 139.621 140.211C139.576 140.701 139.547 141.353 139.512 142.006C139.495 142.658 139.478 143.311 139.465 143.8C139.49 143.859 139.658 143.915 139.638 143.97C139.437 144.099 139.3 144.305 139.268 144.552C139.231 144.603 139.099 144.469 139.033 144.474C138.603 144.707 138.03 145.019 137.456 145.33C136.891 145.657 136.323 145.981 135.907 146.243C135.489 146.5 135.216 146.683 135.216 146.683C135.088 146.768 135.029 146.933 135.082 147.085C135.145 147.265 135.343 147.36 135.523 147.297C135.523 147.297 135.834 147.189 136.29 147.009C136.749 146.833 137.348 146.573 137.95 146.317C138.543 146.045 139.136 145.773 139.581 145.569C139.62 145.524 139.607 145.381 139.65 145.353C139.666 145.362 139.679 145.375 139.696 145.383L139.522 153.932H139.229L139.033 160.122H141.122L140.926 153.932H140.633L140.459 145.383C140.476 145.375 140.489 145.362 140.505 145.353C140.547 145.381 140.535 145.524 140.574 145.569C141.019 145.773 141.612 146.045 142.205 146.317C142.806 146.573 143.406 146.833 143.865 147.009C144.321 147.189 144.632 147.297 144.632 147.297C144.812 147.36 145.01 147.265 145.073 147.085C145.127 146.933 145.067 146.768 144.939 146.682Z" fill="white"/>
<path d="M119.582 152.636C119.582 152.636 119.387 152.505 119.088 152.322C118.791 152.134 118.386 151.904 117.983 151.67C117.573 151.448 117.164 151.226 116.857 151.059C116.81 151.055 116.716 151.151 116.689 151.115C116.666 150.939 116.57 150.794 116.429 150.702C116.428 150.7 116.425 150.699 116.424 150.697C116.402 150.658 116.531 150.615 116.548 150.571C116.534 150.223 116.515 149.757 116.495 149.291C116.463 148.826 116.435 148.361 116.397 148.012C116.364 147.663 116.332 147.431 116.332 147.431C116.314 147.295 116.189 147.201 116.054 147.219C115.94 147.234 115.855 147.326 115.842 147.434C115.842 147.434 115.814 147.667 115.786 148.017C115.753 148.366 115.733 148.832 115.707 149.297C115.696 149.763 115.684 150.229 115.675 150.578C115.692 150.62 115.812 150.66 115.798 150.699C115.654 150.791 115.557 150.938 115.533 151.115C115.507 151.151 115.413 151.056 115.366 151.059C115.059 151.226 114.65 151.448 114.24 151.67C113.837 151.904 113.431 152.135 113.134 152.322C112.836 152.505 112.641 152.636 112.641 152.636C112.55 152.697 112.507 152.814 112.545 152.922C112.59 153.051 112.731 153.119 112.86 153.074C112.86 153.074 113.081 152.997 113.407 152.868C113.735 152.743 114.163 152.557 114.592 152.375C115.015 152.181 115.439 151.986 115.756 151.841C115.785 151.809 115.775 151.706 115.806 151.686C115.817 151.693 115.826 151.702 115.838 151.708L115.714 157.81H115.505L115.366 162.228H116.857L116.717 157.81H116.508L116.384 151.708C116.396 151.702 116.406 151.693 116.416 151.686C116.447 151.706 116.438 151.808 116.466 151.841C116.783 151.986 117.207 152.181 117.63 152.375C118.06 152.557 118.487 152.743 118.815 152.868C119.141 152.997 119.362 153.074 119.362 153.074C119.491 153.119 119.632 153.051 119.677 152.922C119.715 152.814 119.673 152.697 119.582 152.636Z" fill="white"/>
<path d="M55.4003 147.519C55.4003 147.519 55.2054 147.388 54.9067 147.205C54.6097 147.018 54.2044 146.787 53.8009 146.554C53.3914 146.331 52.9823 146.109 52.675 145.943C52.6282 145.939 52.534 146.035 52.5078 145.998C52.4846 145.823 52.3885 145.677 52.2472 145.585C52.2461 145.584 52.2431 145.582 52.2431 145.582C52.2199 145.541 52.3493 145.498 52.3668 145.455C52.3523 145.106 52.3332 144.64 52.3137 144.175C52.2812 143.709 52.2532 143.244 52.2154 142.895C52.1821 142.546 52.1503 142.314 52.1503 142.314C52.132 142.178 52.0075 142.084 51.8721 142.102C51.7581 142.117 51.6732 142.209 51.6601 142.318C51.6601 142.318 51.632 142.55 51.604 142.9C51.5718 143.249 51.5509 143.715 51.5258 144.18C51.5139 144.646 51.5019 145.112 51.4929 145.461C51.5105 145.503 51.6302 145.543 51.6163 145.582C51.4727 145.674 51.3751 145.821 51.3516 145.998C51.3254 146.034 51.2312 145.939 51.1844 145.942C50.8774 146.109 50.468 146.331 50.0585 146.553C49.655 146.787 49.2497 147.018 48.9527 147.205C48.6543 147.388 48.4591 147.519 48.4591 147.519C48.3679 147.58 48.3256 147.697 48.3634 147.805C48.4087 147.935 48.5496 148.002 48.6783 147.957C48.6783 147.957 48.8996 147.88 49.2257 147.751C49.5537 147.626 49.9811 147.44 50.4104 147.258C50.8337 147.064 51.257 146.869 51.5748 146.724C51.6029 146.692 51.5935 146.589 51.6242 146.569C51.6354 146.576 51.6448 146.585 51.6564 146.591L51.5326 152.693H51.3232L51.1833 157.111H52.6746L52.5347 152.693H52.3253L52.2016 146.591C52.2131 146.585 52.2229 146.576 52.2337 146.569C52.264 146.589 52.2554 146.692 52.2831 146.724C52.6006 146.869 53.0239 147.064 53.4475 147.258C53.8768 147.44 54.3042 147.626 54.6322 147.751C54.9583 147.88 55.1796 147.957 55.1796 147.957C55.3086 148.002 55.4496 147.935 55.4945 147.805C55.5338 147.697 55.4911 147.58 55.4003 147.519Z" fill="#FFAB2F"/>
<path d="M71.0555 152.189C71.0555 152.189 70.8607 152.058 70.5619 151.875C70.265 151.688 69.86 151.458 69.4562 151.224C69.0467 151.002 68.6376 150.78 68.3302 150.613C68.2835 150.609 68.1893 150.705 68.1631 150.669C68.1399 150.493 68.0438 150.348 67.9025 150.255C67.9013 150.254 67.8983 150.252 67.898 150.251C67.8752 150.212 68.0045 150.169 68.0221 150.125C68.0075 149.776 67.9885 149.311 67.969 148.845C67.9365 148.38 67.9084 147.915 67.8707 147.566C67.8374 147.217 67.8056 146.984 67.8056 146.984C67.7873 146.849 67.6628 146.754 67.5274 146.773C67.4133 146.788 67.3285 146.879 67.3154 146.988C67.3154 146.988 67.2873 147.221 67.2593 147.57C67.2271 147.92 67.2062 148.386 67.1811 148.851C67.1692 149.317 67.1572 149.782 67.1482 150.132C67.1658 150.174 67.2854 150.214 67.2716 150.253C67.128 150.345 67.0304 150.492 67.0069 150.669C66.9807 150.705 66.8865 150.609 66.8397 150.613C66.5327 150.78 66.1232 151.002 65.7138 151.224C65.3103 151.458 64.9049 151.688 64.608 151.875C64.3096 152.059 64.1144 152.189 64.1144 152.189C64.0232 152.251 63.9809 152.368 64.0187 152.476C64.0639 152.605 64.2049 152.673 64.3336 152.628C64.3336 152.628 64.5549 152.551 64.881 152.422C65.2089 152.297 65.6364 152.111 66.0657 151.928C66.489 151.734 66.9123 151.54 67.2301 151.394C67.2582 151.363 67.2488 151.26 67.2795 151.24C67.2907 151.247 67.3 151.256 67.3116 151.262L67.1879 157.364H66.9784L66.8386 161.782H68.3299L68.19 157.364H67.9806L67.8568 151.262C67.8684 151.255 67.8781 151.247 67.889 151.24C67.9193 151.26 67.9107 151.362 67.9384 151.394C68.2558 151.54 68.6791 151.734 69.1028 151.928C69.5321 152.111 69.9595 152.297 70.2875 152.422C70.6135 152.551 70.8349 152.628 70.8349 152.628C70.9639 152.673 71.1049 152.605 71.1498 152.476C71.189 152.368 71.1468 152.251 71.0555 152.189Z" fill="#74FF9E"/>
<path d="M71.0555 152.636C71.0555 152.636 70.8607 152.505 70.5619 152.322C70.265 152.134 69.8597 151.904 69.4562 151.67C69.0467 151.448 68.6376 151.226 68.3303 151.059C68.2835 151.055 68.1893 151.151 68.1631 151.115C68.1399 150.939 68.0438 150.794 67.9025 150.702C67.9013 150.7 67.8983 150.699 67.898 150.697C67.8752 150.658 68.0045 150.615 68.0221 150.571C68.0075 150.223 67.9885 149.757 67.969 149.291C67.9365 148.826 67.9084 148.361 67.8707 148.012C67.8374 147.663 67.8056 147.431 67.8056 147.431C67.7873 147.295 67.6628 147.201 67.5274 147.219C67.4133 147.234 67.3285 147.326 67.3154 147.434C67.3154 147.434 67.2873 147.667 67.2593 148.017C67.2271 148.366 67.2062 148.832 67.1811 149.297C67.1692 149.763 67.1572 150.229 67.1482 150.578C67.1658 150.62 67.2855 150.66 67.2716 150.699C67.128 150.791 67.0304 150.938 67.0069 151.115C66.9807 151.151 66.8865 151.056 66.8397 151.059C66.5327 151.226 66.1232 151.448 65.7138 151.67C65.3103 151.904 64.9049 152.135 64.608 152.322C64.3096 152.505 64.1144 152.636 64.1144 152.636C64.0232 152.697 63.9809 152.814 64.0187 152.922C64.0639 153.051 64.2049 153.119 64.3336 153.074C64.3336 153.074 64.5549 152.997 64.881 152.868C65.2089 152.743 65.6364 152.557 66.0657 152.375C66.489 152.181 66.9123 151.986 67.2301 151.841C67.2582 151.809 67.2488 151.706 67.2795 151.686C67.2907 151.693 67.3 151.702 67.3116 151.708L67.1879 157.81H66.9784L66.8397 162.228H68.331L68.1911 157.81H67.9817L67.858 151.708C67.8696 151.702 67.8793 151.693 67.8901 151.686C67.9204 151.706 67.9118 151.808 67.9395 151.841C68.257 151.986 68.6803 152.181 69.1039 152.375C69.5332 152.557 69.9606 152.743 70.2886 152.868C70.6147 152.997 70.836 153.074 70.836 153.074C70.965 153.119 71.106 153.051 71.1509 152.922C71.189 152.814 71.1468 152.697 71.0555 152.636Z" fill="#FFAB2F"/>
<path d="M16.5115 136.522C16.5115 136.522 16.2546 136.349 15.8612 136.108C15.4701 135.861 14.9361 135.557 14.4044 135.249C13.8651 134.957 13.3255 134.664 12.9209 134.444C12.8592 134.439 12.7355 134.565 12.7007 134.517C12.67 134.286 12.5436 134.095 12.357 133.973C12.3555 133.971 12.3514 133.969 12.3511 133.967C12.3211 133.915 12.4917 133.859 12.5148 133.801C12.4958 133.341 12.4703 132.728 12.4449 132.115C12.4023 131.502 12.3649 130.888 12.3155 130.429C12.2714 129.969 12.2299 129.663 12.2299 129.663C12.2056 129.484 12.0414 129.359 11.8631 129.384C11.7131 129.404 11.6009 129.524 11.5837 129.668C11.5837 129.668 11.5471 129.975 11.5101 130.435C11.4678 130.895 11.4401 131.509 11.4068 132.123C11.3911 132.736 11.3751 133.35 11.3631 133.81C11.3863 133.866 11.5441 133.918 11.5258 133.97C11.3365 134.091 11.2079 134.285 11.1769 134.518C11.1421 134.566 11.0183 134.44 10.9566 134.445C10.552 134.664 10.0128 134.957 9.47319 135.25C8.94145 135.558 8.40746 135.861 8.01631 136.108C7.62293 136.35 7.36603 136.522 7.36603 136.522C7.24599 136.603 7.1899 136.757 7.24001 136.9C7.29947 137.07 7.48532 137.159 7.65509 137.1C7.65509 137.1 7.94713 136.998 8.37642 136.829C8.80832 136.664 9.37148 136.419 9.93726 136.179C10.4952 135.923 11.0531 135.667 11.4715 135.475C11.5082 135.433 11.4962 135.298 11.5366 135.271C11.5512 135.28 11.5639 135.292 11.5792 135.3L11.4162 143.34H11.1402L10.9559 149.162H12.9209L12.7366 143.34H12.4606L12.2976 135.3C12.3129 135.292 12.3256 135.28 12.3402 135.271C12.3802 135.298 12.3686 135.433 12.4053 135.475C12.8237 135.667 13.3816 135.922 13.9396 136.179C14.505 136.419 15.0685 136.664 15.5004 136.829C15.9301 136.998 16.2217 137.1 16.2217 137.1C16.3915 137.16 16.5773 137.07 16.6368 136.9C16.6873 136.757 16.6316 136.603 16.5115 136.522Z" fill="#FFAB2F"/>
<path d="M37.0924 143.39C37.0924 143.39 36.8804 143.248 36.5554 143.048C36.2324 142.844 35.7915 142.594 35.3525 142.339C34.9071 142.098 34.4617 141.856 34.1274 141.674C34.0766 141.671 33.9741 141.775 33.9457 141.735C33.9203 141.544 33.8159 141.386 33.6619 141.285C33.6604 141.284 33.6574 141.282 33.6574 141.282C33.6323 141.238 33.7733 141.191 33.792 141.143C33.7763 140.763 33.7554 140.257 33.7344 139.75C33.6993 139.244 33.6682 138.738 33.6275 138.358C33.5912 137.979 33.5568 137.726 33.5568 137.726C33.537 137.578 33.4012 137.475 33.2539 137.495C33.1301 137.512 33.0374 137.611 33.0232 137.73C33.0232 137.73 32.9929 137.983 32.9622 138.363C32.9275 138.744 32.9043 139.25 32.877 139.757C32.8639 140.264 32.8508 140.771 32.8411 141.15C32.8601 141.196 32.9907 141.24 32.9757 141.282C32.8194 141.382 32.7132 141.542 32.6878 141.735C32.6593 141.774 32.5569 141.67 32.506 141.674C32.1717 141.855 31.7264 142.097 31.281 142.339C30.842 142.594 30.4007 142.844 30.078 143.048C29.7531 143.248 29.541 143.39 29.541 143.39C29.4419 143.457 29.3956 143.584 29.4371 143.702C29.4861 143.842 29.6398 143.916 29.7796 143.867C29.7796 143.867 30.0208 143.783 30.3753 143.643C30.732 143.507 31.1972 143.304 31.6643 143.106C32.125 142.895 32.5857 142.683 32.9312 142.525C32.9615 142.49 32.9518 142.379 32.985 142.357C32.997 142.364 33.0075 142.374 33.0202 142.38L32.8856 149.02H32.6575L32.5053 153.829H34.1282L33.976 149.02H33.7479L33.6133 142.38C33.626 142.374 33.6364 142.364 33.6484 142.357C33.6817 142.379 33.672 142.49 33.7023 142.525C34.0478 142.683 34.5085 142.895 34.9692 143.106C35.4362 143.304 35.9014 143.507 36.2582 143.643C36.613 143.783 36.8538 143.867 36.8538 143.867C36.9941 143.916 37.1474 143.842 37.1964 143.702C37.2375 143.584 37.1915 143.457 37.0924 143.39Z" fill="#FFAB2F"/>
<path d="M72.4169 200.638L109.661 162.61C69.5764 162.61 46.5763 145.156 -9.92484 144.684C-9.95513 145.672 -10 146.657 -10 147.653C-10 166.095 -4.77229 183.311 4.26402 197.923C24.0183 198.807 72.4169 200.638 72.4169 200.638Z" fill="#FECCA1"/>
<path d="M-9.9252 144.302C-9.92707 144.359 -9.92782 144.418 -9.92969 144.476C41.2536 147.846 53.6005 163.921 76.7542 167.226C76.7542 167.226 93.2077 169.333 103.678 168.337L109.661 162.228C69.576 162.228 46.576 144.774 -9.9252 144.302Z" fill="#FFAB2F"/>
<path d="M11.6885 176.508C24.9111 181.554 119.623 165.51 179.812 164.694C180.501 160.949 181.013 157.143 181.253 153.259C131.725 153.313 65.087 173.065 13.3379 175.107L11.6885 176.508Z" fill="#FFAB2F"/>
<path d="M43.0049 126.71C42.9338 124.994 42.8389 122.705 42.7439 120.417C42.585 118.129 42.4451 115.841 42.2607 114.125C42.0966 112.41 41.941 111.266 41.941 111.266C41.8509 110.601 41.2384 110.135 40.5728 110.225C40.0126 110.301 39.5938 110.748 39.5295 111.285C39.5295 111.285 39.3919 112.431 39.2542 114.149C39.0968 115.867 38.9925 118.157 38.8691 120.447C38.8096 122.737 38.7506 125.026 38.7061 126.743C38.7954 126.957 39.4352 127.158 39.326 127.355C39.3234 127.369 39.292 127.384 39.2808 127.398C40.3439 127.292 41.4183 127.283 42.484 127.416C42.4485 127.387 42.3991 127.359 42.3935 127.331C42.2824 127.136 42.9189 126.925 43.0049 126.71Z" fill="white"/>
<path d="M42.8157 162.859H38.8945L39.5482 130.681H42.162L42.8157 162.859Z" fill="#FFFCE5"/>
<path d="M44.523 184.036H37.1892L37.8765 162.309H43.8357L44.523 184.036Z" fill="#E9DCB8"/>
<path d="M38.0357 129.325C38.0275 129.342 38.029 129.376 38.017 129.385C37.8914 129.572 37.4221 129.093 37.191 129.111C35.6814 129.93 33.6681 131.023 31.6552 132.115C29.671 133.265 27.6779 134.398 26.2188 135.319C24.7507 136.221 23.7926 136.864 23.7926 136.864C23.3439 137.165 23.1356 137.742 23.3222 138.275C23.544 138.909 24.2373 139.243 24.8711 139.021C24.8711 139.021 25.9604 138.64 27.5635 138.007C29.1755 137.393 31.2775 136.478 33.388 135.581C35.4701 134.625 37.5519 133.671 39.1134 132.955C39.266 132.78 39.1647 132.117 39.389 132.129C39.4174 132.121 39.4649 132.152 39.5061 132.171C38.9044 131.282 38.4235 130.321 38.0357 129.325Z" fill="white"/>
<path d="M43.6757 129.325C43.6839 129.341 43.6824 129.376 43.6944 129.385C43.82 129.572 44.2893 129.093 44.5204 129.11C46.03 129.93 48.0433 131.022 50.0562 132.115C52.0404 133.265 54.0335 134.398 55.4926 135.319C56.9607 136.221 57.9187 136.864 57.9187 136.864C58.3675 137.165 58.5758 137.741 58.3892 138.275C58.1674 138.909 57.4741 139.243 56.8403 139.021C56.8403 139.021 55.751 138.64 54.1479 138.007C52.5359 137.392 50.4339 136.478 48.3234 135.58C46.2413 134.625 44.1595 133.671 42.598 132.954C42.4454 132.78 42.5467 132.117 42.3224 132.129C42.2939 132.121 42.2465 132.152 42.2053 132.171C42.807 131.282 43.2879 130.32 43.6757 129.325Z" fill="white"/>
<path d="M40.8558 132.67C42.4669 132.67 43.773 131.364 43.773 129.753C43.773 128.142 42.4669 126.836 40.8558 126.836C39.2448 126.836 37.9387 128.142 37.9387 129.753C37.9387 131.364 39.2448 132.67 40.8558 132.67Z" fill="#E9DCB8"/>
<path d="M88.6512 113.827C88.5544 111.493 88.4253 108.381 88.2967 105.27C88.0806 102.159 87.8906 99.0481 87.6401 96.7155C87.4168 94.3828 87.2055 92.8283 87.2055 92.8283C87.0829 91.9238 86.2501 91.2899 85.3452 91.413C84.5835 91.5162 84.0143 92.1246 83.9265 92.8538C83.9265 92.8538 83.7395 94.4116 83.5525 96.7473C83.3382 99.0833 83.1965 102.197 83.029 105.311C82.9482 108.424 82.8678 111.537 82.8076 113.872C82.9288 114.162 83.7989 114.435 83.6505 114.702C83.6467 114.723 83.6041 114.742 83.5892 114.762C85.0348 114.618 86.4954 114.606 87.9445 114.786C87.8962 114.748 87.8289 114.71 87.8211 114.67C87.6689 114.406 88.5342 114.119 88.6512 113.827Z" fill="white"/>
<path d="M88.3951 162.977H83.0635L83.9523 119.225H87.5063L88.3951 162.977Z" fill="#FFFCE5"/>
<path d="M90.7147 191.77H80.7432L81.678 162.229H89.7798L90.7147 191.77Z" fill="#E9DCB8"/>
<path d="M81.895 117.382C81.8842 117.405 81.886 117.452 81.87 117.464C81.6991 117.718 81.0611 117.067 80.7466 117.09C78.6941 118.205 75.9568 119.69 73.2199 121.176C70.5219 122.74 67.8123 124.28 65.8282 125.531C63.8321 126.759 62.5293 127.633 62.5293 127.633C61.9194 128.042 61.6359 128.826 61.8899 129.551C62.1912 130.413 63.134 130.867 63.9959 130.566C63.9959 130.566 65.4767 130.048 67.6564 129.188C69.8481 128.351 72.7061 127.108 75.5758 125.888C78.4065 124.59 81.2372 123.292 83.3601 122.318C83.5676 122.081 83.4297 121.18 83.7348 121.195C83.7733 121.184 83.838 121.227 83.8941 121.252C83.0763 120.042 82.4226 118.735 81.895 117.382Z" fill="white"/>
<path d="M89.5643 117.382C89.5751 117.405 89.5733 117.452 89.5893 117.464C89.7602 117.718 90.3982 117.067 90.7127 117.09C92.7652 118.205 95.5025 119.69 98.2394 121.176C100.937 122.74 103.647 124.28 105.631 125.531C107.627 126.759 108.93 127.633 108.93 127.633C109.54 128.042 109.823 128.826 109.569 129.551C109.268 130.413 108.325 130.867 107.463 130.566C107.463 130.566 105.983 130.048 103.803 129.188C101.611 128.351 98.7532 127.108 95.8835 125.888C93.0528 124.59 90.222 123.292 88.0992 122.318C87.8916 122.081 88.0296 121.18 87.7245 121.195C87.686 121.184 87.6213 121.227 87.5652 121.252C88.383 120.042 89.0367 118.735 89.5643 117.382Z" fill="white"/>
<path d="M85.7296 121.93C87.9202 121.93 89.696 120.155 89.696 117.964C89.696 115.773 87.9202 113.998 85.7296 113.998C83.539 113.998 81.7632 115.773 81.7632 117.964C81.7632 120.155 83.539 121.93 85.7296 121.93Z" fill="#E9DCB8"/>
<path d="M132.751 126.71C132.68 124.994 132.585 122.705 132.49 120.417C132.331 118.129 132.191 115.841 132.007 114.125C131.843 112.41 131.687 111.266 131.687 111.266C131.597 110.601 130.984 110.135 130.319 110.225C129.759 110.301 129.34 110.748 129.276 111.285C129.276 111.285 129.138 112.431 129 114.149C128.843 115.867 128.739 118.157 128.615 120.447C128.556 122.737 128.497 125.026 128.452 126.743C128.542 126.957 129.181 127.158 129.072 127.355C129.07 127.369 129.038 127.384 129.027 127.398C130.09 127.292 131.164 127.283 132.23 127.416C132.195 127.387 132.145 127.359 132.14 127.331C132.029 127.136 132.665 126.925 132.751 126.71Z" fill="white"/>
<path d="M132.562 162.859H128.641L129.294 130.681H131.908L132.562 162.859Z" fill="#FFFCE5"/>
<path d="M134.269 184.036H126.935L127.623 162.309H133.582L134.269 184.036Z" fill="#E9DCB8"/>
<path d="M127.782 129.325C127.774 129.342 127.775 129.376 127.763 129.385C127.637 129.572 127.168 129.093 126.937 129.111C125.427 129.93 123.414 131.023 121.401 132.115C119.417 133.265 117.424 134.398 115.965 135.319C114.497 136.221 113.539 136.864 113.539 136.864C113.09 137.165 112.882 137.742 113.068 138.275C113.29 138.909 113.983 139.243 114.617 139.021C114.617 139.021 115.706 138.64 117.31 138.007C118.922 137.393 121.024 136.478 123.134 135.581C125.216 134.625 127.298 133.671 128.86 132.955C129.012 132.78 128.911 132.117 129.135 132.129C129.164 132.121 129.211 132.152 129.252 132.171C128.65 131.282 128.17 130.321 127.782 129.325Z" fill="white"/>
<path d="M133.422 129.325C133.43 129.341 133.428 129.376 133.44 129.385C133.566 129.572 134.035 129.093 134.266 129.11C135.776 129.93 137.789 131.022 139.802 132.115C141.786 133.265 143.78 134.398 145.239 135.319C146.707 136.221 147.665 136.864 147.665 136.864C148.114 137.165 148.322 137.741 148.135 138.275C147.914 138.909 147.22 139.243 146.586 139.021C146.586 139.021 145.497 138.64 143.894 138.007C142.282 137.392 140.18 136.478 138.069 135.58C135.987 134.625 133.906 133.671 132.344 132.954C132.191 132.78 132.293 132.117 132.068 132.129C132.04 132.121 131.993 132.152 131.951 132.171C132.553 131.282 133.034 130.32 133.422 129.325Z" fill="white"/>
<path d="M130.602 132.67C132.213 132.67 133.519 131.364 133.519 129.753C133.519 128.142 132.213 126.836 130.602 126.836C128.991 126.836 127.685 128.142 127.685 129.753C127.685 131.364 128.991 132.67 130.602 132.67Z" fill="#E9DCB8"/>
<g opacity="0.6">
<path opacity="0.6" d="M98.1421 76.9648C97.3605 76.9648 96.6224 77.1185 95.9145 77.3418C93.6723 74.1188 89.9535 72 85.7298 72C81.5061 72 77.7873 74.1191 75.5451 77.3418C74.8372 77.1185 74.0987 76.9648 73.3175 76.9648C69.2046 76.9648 65.8701 80.2993 65.8701 84.4123H105.589C105.589 80.2989 102.255 76.9648 98.1421 76.9648Z" fill="white"/>
</g>
<g opacity="0.6">
<path opacity="0.6" d="M36.2414 107.929C35.7571 107.929 35.2998 108.025 34.8612 108.163C33.472 106.166 31.1681 104.854 28.5513 104.854C25.9348 104.854 23.6306 106.166 22.2414 108.163C21.8027 108.025 21.3454 107.929 20.8611 107.929C18.3131 107.929 16.2471 109.995 16.2471 112.543H40.8555C40.8555 109.995 38.7898 107.929 36.2414 107.929Z" fill="white"/>
</g>
<path d="M116.151 108.649C115.743 108.649 115.357 108.73 114.987 108.846C113.814 107.161 111.87 106.053 109.661 106.053C107.453 106.053 105.508 107.161 104.336 108.846C103.966 108.73 103.58 108.649 103.171 108.649C101.021 108.649 99.2773 110.393 99.2773 112.543H120.045C120.045 110.393 118.302 108.649 116.151 108.649Z" fill="white"/>
<g opacity="0.6">
<path opacity="0.6" d="M51.9297 117.791C51.9297 115.468 53.8129 113.585 56.1358 113.585C56.4865 113.585 56.8216 113.64 57.1473 113.721C58.2448 112.535 59.8008 111.782 61.5437 111.782C64.8621 111.782 67.5522 114.472 67.5522 117.79H51.9297V117.791Z" fill="white"/>
</g>
<g opacity="0.6">
<path opacity="0.6" d="M136.725 96.8914C133.3 96.8914 130.524 99.6676 130.524 103.092H153.556C153.556 98.1998 149.59 94.2338 144.697 94.2338C143.625 94.2338 142.617 94.466 141.67 94.8186C141.077 93.5502 139.809 92.6584 138.316 92.6584C137.926 92.6584 137.556 92.7354 137.202 92.8469C136.081 91.2352 134.221 90.1758 132.11 90.1758C129.998 90.1758 128.138 91.2352 127.017 92.8469C126.664 92.7354 126.294 92.6584 125.903 92.6584C123.847 92.6584 122.18 94.3254 122.18 96.3821H139.016C138.745 96.6139 138.459 96.8301 138.216 97.0922C137.736 96.9729 137.242 96.8914 136.725 96.8914Z" fill="white"/>
</g>
</g>
</svg>
