<svg width="48" height="48" viewBox="0 0 48 48" fill="none" xmlns="http://www.w3.org/2000/svg">
<path fill-rule="evenodd" clip-rule="evenodd" d="M0.136719 24.6179C0.136719 24.5438 0.166147 24.4728 0.218492 24.4205C0.270836 24.3681 0.341773 24.3388 0.415799 24.3388C0.489826 24.3388 0.560917 24.3681 0.613262 24.4205C0.665607 24.4728 0.695035 24.5438 0.695035 24.6179C0.695035 24.694 0.695035 24.7955 0.695035 24.897V25.1761C0.696739 25.2128 0.691092 25.2494 0.678618 25.2839C0.666145 25.3185 0.646992 25.3501 0.622245 25.3773C0.597497 25.4044 0.567676 25.4263 0.534432 25.4419C0.501188 25.4574 0.465165 25.4663 0.428499 25.4679C0.356619 25.468 0.287522 25.4403 0.235528 25.3907C0.183533 25.3411 0.152686 25.2733 0.149418 25.2015V24.9224C0.149418 24.8335 0.149418 24.7447 0.149418 24.6432L0.136719 24.6179ZM0.212916 26.1149C0.209349 26.043 0.233763 25.9724 0.28106 25.918C0.328357 25.8636 0.394808 25.8296 0.466598 25.8231C0.502614 25.8197 0.538998 25.8236 0.57346 25.8346C0.607922 25.8456 0.639698 25.8635 0.667003 25.8873C0.694307 25.911 0.716497 25.9401 0.732204 25.9727C0.747911 26.0053 0.756822 26.0407 0.758378 26.0769C0.916478 27.9485 1.30428 29.7935 1.91295 31.5704C1.93267 31.6061 1.94426 31.6457 1.94703 31.6864C1.94979 31.7271 1.9436 31.7679 1.92891 31.8059C1.91421 31.844 1.8914 31.8783 1.862 31.9066C1.8326 31.9349 1.79745 31.9563 1.75886 31.9695C1.72026 31.9827 1.67922 31.9873 1.63867 31.9829C1.59813 31.9785 1.55896 31.9653 1.52407 31.9442C1.48918 31.9231 1.45941 31.8946 1.43672 31.8607C1.41403 31.8268 1.39897 31.7884 1.39274 31.7481C0.771808 29.9253 0.375665 28.0336 0.212916 26.1149ZM25.7395 47.6831C25.6772 47.6696 25.6214 47.6352 25.5814 47.5856C25.5414 47.5359 25.5196 47.4741 25.5196 47.4104C25.5196 47.3466 25.5414 47.2848 25.5814 47.2352C25.6214 47.1855 25.6772 47.1511 25.7395 47.1376C27.2597 47.0161 28.7641 46.7441 30.2306 46.3256C30.958 46.1141 31.6813 45.8689 32.4003 45.5898C32.4003 45.5898 32.7935 45.5263 32.8443 45.7166C32.895 45.9069 32.6158 46.0972 32.6031 46.0972C31.8673 46.3848 31.1272 46.6386 30.3829 46.8585C28.8837 47.29 27.3451 47.5705 25.7901 47.6958L25.7395 47.6831ZM47.4218 21.4207C47.4307 21.4614 47.4302 21.5036 47.4206 21.5442C47.411 21.5847 47.3925 21.6226 47.3664 21.6551C47.3402 21.6875 47.307 21.7137 47.2694 21.7317C47.2318 21.7496 47.1908 21.759 47.1491 21.759C47.1074 21.759 47.0662 21.7496 47.0286 21.7317C46.991 21.7137 46.958 21.6875 46.9318 21.6551C46.9056 21.6226 46.8871 21.5847 46.8774 21.5442C46.8678 21.5036 46.8674 21.4614 46.8762 21.4207C46.6933 19.7709 46.3318 18.1459 45.7978 16.5742C45.7878 16.5094 45.8009 16.4431 45.8348 16.387C45.8688 16.3309 45.9215 16.2886 45.9835 16.2674C46.0456 16.2462 46.1132 16.2475 46.1743 16.2711C46.2355 16.2948 46.2863 16.3392 46.318 16.3966C46.8664 18.0055 47.2407 19.6686 47.4345 21.3573L47.4218 21.4207ZM18.5458 0.96897C18.6104 0.966404 18.6739 0.986381 18.7255 1.02546C18.777 1.06454 18.8135 1.12031 18.8285 1.18324C18.8434 1.24616 18.8361 1.31232 18.8077 1.37044C18.7793 1.42855 18.7315 1.47501 18.6727 1.50185L17.5562 1.79367L16.4524 2.13621C16.4167 2.15592 16.3771 2.16755 16.3364 2.17032C16.2957 2.17309 16.255 2.16693 16.217 2.15224C16.179 2.13754 16.1446 2.11469 16.1163 2.08529C16.0881 2.05589 16.0666 2.02066 16.0534 1.98207C16.0403 1.94348 16.0356 1.90247 16.04 1.86193C16.0443 1.82138 16.0576 1.78229 16.0787 1.7474C16.0998 1.71251 16.1283 1.68263 16.1622 1.65993C16.1961 1.63724 16.2345 1.62227 16.2748 1.61603L17.4166 1.26079L18.5458 0.96897Z" fill="#2B5250"/>
</svg>
