<svg width="31" height="11" viewBox="0 0 31 11" fill="none" xmlns="http://www.w3.org/2000/svg">
<path fill-rule="evenodd" clip-rule="evenodd" d="M1.00057 1.00105L4.99706 6.15204C5.04556 6.21922 5.11846 6.26476 5.2001 6.27891L29.458 10.4276C29.5318 10.4427 29.6086 10.432 29.6756 10.3974C29.7425 10.3628 29.7956 10.3063 29.8259 10.2373L30.4855 8.74023C30.5059 8.69653 30.5165 8.64891 30.5165 8.60069C30.5165 8.55246 30.5059 8.50481 30.4855 8.46111C30.4648 8.41752 30.4348 8.37901 30.3976 8.34832C30.3603 8.31763 30.3167 8.29553 30.27 8.28351L1.46999 0.201749C1.3892 0.177189 1.30206 0.184582 1.22653 0.222347C1.151 0.260112 1.0929 0.325377 1.06407 0.404749L0.962629 0.683868C0.940344 0.735377 0.932092 0.791884 0.938778 0.847607C0.945465 0.90333 0.966734 0.956273 1.00057 1.00105Z" fill="#2B5250"/>
</svg>
