<svg width="12" height="30" viewBox="0 0 12 30" fill="none" xmlns="http://www.w3.org/2000/svg">
<path fill-rule="evenodd" clip-rule="evenodd" d="M9.01521 29.5895L11.4764 23.5504C11.5082 23.4732 11.5082 23.3866 11.4764 23.3094L2.938 0.218736C2.91251 0.147496 2.86329 0.0871799 2.79862 0.0479115C2.73394 0.00864302 2.65769 -0.00720783 2.58272 0.00303711L0.958729 0.180676C0.910579 0.184062 0.863906 0.198384 0.822132 0.222569C0.780358 0.246754 0.74466 0.280145 0.717748 0.320216C0.698425 0.361969 0.688477 0.407439 0.688477 0.453446C0.688477 0.499452 0.698425 0.544922 0.717748 0.586675L8.11431 29.5768C8.13525 29.6552 8.18443 29.7232 8.2523 29.7676C8.32018 29.8121 8.40205 29.83 8.48229 29.8179H8.78677C8.8418 29.8038 8.89202 29.7751 8.93219 29.735C8.97237 29.6948 9.00108 29.6446 9.01521 29.5895Z" fill="#2B5250"/>
</svg>
