<svg width="891" height="200" viewBox="0 0 891 200" fill="none" xmlns="http://www.w3.org/2000/svg">
<path d="M46.2756 38.8243C46.1474 38.2346 46.0192 37.6385 45.891 37.036C45.891 36.613 45.7371 36.1898 45.641 35.7476L45.5256 35.1322C45.4295 34.5746 45.3333 34.0169 45.2564 33.4593V33.2478C44.783 30.1669 44.5196 27.0574 44.468 23.9408C44.3813 18.8682 45.0289 13.8097 46.3909 8.92263C42.325 12.3802 39.0466 16.6683 36.7762 21.4986C33.7472 19.071 31.516 15.7906 30.371 12.0814C29.2261 8.37231 29.22 4.40499 30.3536 0.692383C17.8953 4.31859 7.34114 12.6585 0.932617 23.9408C1.70179 25.2228 2.50943 26.3892 3.35553 27.4404C3.77857 28.0045 4.21444 28.5494 4.66313 29.075L5.06694 29.5365L4.79773 35.3053C4.76015 35.9567 4.87036 36.608 5.12011 37.2108C5.36986 37.8135 5.75268 38.352 6.23994 38.7858L6.9322 39.4012L9.35511 41.5549L7.79752 32.517C8.47695 33.1837 9.17563 33.8246 9.89353 34.44C9.96239 35.5418 10.302 36.6097 10.8823 37.5489C11.4626 38.4881 12.2656 39.2696 13.2202 39.8242C15.8501 41.4049 18.7634 42.4566 21.7965 42.9202C22.3238 42.9837 22.8551 42.8387 23.2772 42.5163C24.4117 42.9971 25.5847 43.4394 26.7769 43.8432C26.841 43.4073 26.918 42.9779 27.0077 42.5548L27.1038 42.1125C27.1038 41.824 27.2192 41.5549 27.2961 41.2856L27.45 40.7665L27.6615 40.0358L27.8538 39.4781L28.0845 38.8051L28.2961 38.2282L28.5461 37.6129L28.796 37.036L29.0653 36.459L29.3537 35.8822L29.6421 35.3438L29.969 34.7477L30.2767 34.2285L30.6421 33.6324L30.9497 33.1516L31.3728 32.5555L31.6997 32.1324L32.1612 31.5172L32.4689 31.1326L33.0073 30.498L33.2765 30.1903L33.9111 29.5365L34.0264 29.4211C34.9127 28.5037 35.85 27.637 36.8339 26.8252C38.4709 29.8671 40.4587 32.7067 42.7566 35.2861V35.3822L43.295 35.9976L43.4873 36.209L43.968 36.7475L44.2565 37.0551L44.6795 37.4975L45.0833 37.9205L45.4103 38.2475L46.141 38.9973L46.2756 38.8243Z" fill="#65A4C5"/>
<path d="M464.476 143.315C464.374 142.854 464.278 142.392 464.188 141.931C464.188 141.604 464.053 141.277 463.996 140.95V140.469C463.996 140.046 463.842 139.604 463.784 139.181V139.027C463.417 136.653 463.212 134.257 463.169 131.855C463.093 127.959 463.579 124.074 464.611 120.317C461.469 122.955 458.925 126.233 457.15 129.932C454.836 128.042 453.14 125.503 452.28 122.642C451.42 119.781 451.435 116.728 452.323 113.875C442.717 116.67 434.577 123.099 429.633 131.797C430.223 132.745 430.863 133.649 431.556 134.508C431.876 134.944 432.21 135.367 432.556 135.777L432.921 136.181L432.671 140.527C432.643 141.028 432.729 141.528 432.923 141.991C433.116 142.454 433.411 142.867 433.786 143.2L434.325 143.681L436.248 145.334L435.055 138.373C435.581 138.886 436.12 139.38 436.671 139.854C436.725 140.705 436.988 141.53 437.438 142.254C437.887 142.979 438.509 143.581 439.248 144.008C441.276 145.225 443.523 146.035 445.862 146.392C446.272 146.445 446.687 146.334 447.016 146.084C447.901 146.45 448.805 146.796 449.708 147.123C449.708 146.789 449.766 146.456 449.881 146.123V145.777C449.881 145.565 449.881 145.354 450.035 145.142L450.151 144.738L450.304 144.181L450.439 143.758L450.612 143.238L450.785 142.796L450.977 142.315L451.17 141.873L451.381 141.431L451.612 140.969L451.843 140.546L452.093 140.085L452.323 139.7L452.612 139.239L452.862 138.873L453.189 138.412L453.439 138.085L453.804 137.604L454.054 137.316L454.458 136.816L454.669 136.585L455.15 136.047C455.832 135.366 456.551 134.725 457.304 134.124C458.568 136.475 460.104 138.669 461.881 140.662L462.304 141.142L462.457 141.296L462.823 141.7L463.034 141.931L463.361 142.277L463.669 142.604L463.919 142.854L464.476 143.431V143.315Z" fill="#65A4C5"/>
<path d="M167.055 170.738L166.343 169.719L165.632 168.604L165.151 167.854L164.382 166.565L164.055 166.008L163.266 164.585L163.036 164.162C162.766 163.642 162.516 163.143 162.247 162.623L162.093 162.335C161.824 161.777 161.574 161.239 161.343 160.7V160.508C161.087 159.931 160.85 159.354 160.632 158.777V158.681C160.401 158.091 160.183 157.495 159.978 156.893C158.55 152.844 157.783 148.591 157.709 144.298C157.594 134.548 161.382 125.068 169.131 115.78C162.132 121.915 150.748 128.76 144.556 136.625C141.691 129.587 135.134 123.857 126.673 120.78C128.394 116.239 131.216 112.195 134.884 109.012C111.808 109.781 99.2709 117.53 93.0598 123.145C85.7718 127.164 80.6183 133.395 79.1954 140.567C78.206 140.567 77.2571 140.96 76.5575 141.66C75.8579 142.359 75.4648 143.308 75.4648 144.298V144.913C75.4648 145.902 75.8579 146.851 76.5575 147.551C77.2571 148.25 78.206 148.644 79.1954 148.644C80.0622 152.824 82.0572 156.688 84.9642 159.816L86.0026 168.738C86.1728 170.21 86.6576 171.627 87.4241 172.894C88.1905 174.162 89.2206 175.25 90.4446 176.084L91.8098 177.007L96.5403 180.237L90.7715 164.854C91.3868 165.258 92.0021 165.642 92.6944 166.008C97.8863 174.815 110.597 187.333 140.287 184.006C134.898 179.815 130.652 174.332 127.942 168.065L128.346 167.892L128.903 167.661L129.653 167.334L130.23 167.065L130.903 166.719L131.48 166.411L132.153 166.046L132.692 165.738L133.768 165.085L134.345 164.7L134.884 164.335L135.461 163.912L135.941 163.546L136.518 163.085L136.941 162.739L137.518 162.258L137.826 161.989C138.236 161.63 138.627 161.258 138.999 160.873L139.268 160.604L139.826 160.008L140.133 159.681L140.653 159.085L140.922 158.758L141.422 158.124L141.614 157.854C142.171 157.102 142.684 156.319 143.152 155.508L143.306 155.22L143.691 154.508L143.864 154.182L144.21 153.451L144.345 153.143L144.672 152.355C145.018 152.778 145.402 153.182 145.787 153.605L146.018 153.855L147.191 155.047L147.402 155.258L148.594 156.393L148.729 156.528L150.075 157.72L150.363 157.97L151.748 159.162L151.921 159.297L153.267 160.412L153.498 160.604L154.959 161.777L155.248 162.008L158.44 164.527L159.94 165.7L160.228 165.931L161.555 166.988L161.786 167.161L163.17 168.296L163.478 168.546L164.843 169.68L164.997 169.815L166.208 170.873L166.439 171.084L167.67 172.2L167.92 172.43L169.112 173.584C168.638 172.956 168.183 172.315 167.747 171.661L167.055 170.738Z" fill="#65A4C5"/>
<path d="M655.021 120.953C655.021 120.818 655.021 120.665 655.021 120.511V120.203V120.069C655.021 119.928 655.021 119.786 655.021 119.645C655.021 119.492 655.021 119.338 655.021 119.184C655.003 118.424 655.061 117.664 655.194 116.915C655.205 116.842 655.193 116.767 655.158 116.701C655.124 116.635 655.069 116.582 655.002 116.55C654.936 116.518 654.86 116.508 654.787 116.521C654.714 116.535 654.648 116.572 654.598 116.626C654.008 117.456 653.213 118.119 652.29 118.549L651.444 118.165C651.535 117.972 651.55 117.752 651.486 117.549C651.421 117.346 651.283 117.174 651.098 117.069C650.848 116.915 650.482 116.819 650.29 116.55C650.098 116.28 650.194 115.973 650.059 115.684C649.598 114.78 647.906 115.492 647.156 115.05C646.733 114.8 646.656 114.261 646.31 113.934C646.088 113.781 645.836 113.676 645.571 113.627C645.306 113.577 645.034 113.583 644.771 113.646C644.233 113.646 643.733 114.069 643.214 113.819C642.694 113.569 642.579 113.069 642.002 113.127C641.425 113.184 640.733 114.3 640.695 115.165C639.589 115.349 638.549 115.811 637.671 116.507C636.793 117.204 636.107 118.111 635.676 119.145C636.044 119.613 636.493 120.011 637.003 120.319L637.368 120.53L637.791 120.742C638.164 120.914 638.549 121.055 638.945 121.165L639.329 122.011L639.445 122.242V122.376V122.472L639.541 122.568C639.697 122.713 639.872 122.835 640.06 122.934C640.272 123.044 640.499 123.121 640.733 123.164L641.56 123.318L639.81 121.165C640.226 121.191 640.644 121.191 641.06 121.165H641.195C641.502 121.684 641.771 122.28 642.521 122.068C642.964 121.934 643.041 121.799 643.56 121.895C643.884 121.958 644.217 121.958 644.541 121.895C644.869 121.778 645.179 121.616 645.464 121.415C645.819 121.292 646.205 121.292 646.56 121.415C647.425 121.549 647.656 121.049 648.348 120.722C648.656 120.588 649.175 120.569 649.425 120.299C649.498 120.229 649.549 120.139 649.573 120.04C649.596 119.941 649.592 119.838 649.559 119.742H649.713H649.906H650.04H650.232H650.367H650.559H650.656H650.867H651.079H651.29H651.521H651.752C652.43 119.997 653.032 120.42 653.501 120.972L653.79 121.28L654.021 121.53C654.053 121.564 654.092 121.591 654.135 121.609C654.178 121.627 654.224 121.637 654.271 121.637C654.317 121.637 654.364 121.627 654.406 121.609C654.449 121.591 654.488 121.564 654.521 121.53C654.573 121.479 654.607 121.411 654.617 121.338C654.67 121.343 654.723 121.337 654.773 121.32C654.823 121.303 654.869 121.276 654.908 121.239C654.946 121.202 654.976 121.158 654.996 121.108C655.015 121.059 655.024 121.006 655.021 120.953Z" fill="#65A4C5"/>
<path d="M621.35 193.447C621.35 193.12 621.235 192.793 621.196 192.447C621.158 192.101 621.196 191.986 621.196 191.755V191.447C621.196 191.139 621.196 190.813 621.196 190.505C621.196 190.159 621.196 189.813 621.196 189.466C621.156 187.766 621.285 186.065 621.581 184.39C621.603 184.226 621.572 184.059 621.494 183.913C621.415 183.767 621.293 183.65 621.144 183.577C620.995 183.505 620.827 183.481 620.664 183.51C620.501 183.538 620.351 183.618 620.235 183.736C618.933 185.635 617.156 187.16 615.081 188.159L613.159 187.294C613.353 186.863 613.381 186.376 613.239 185.926C613.098 185.475 612.795 185.093 612.389 184.851C611.851 184.486 611.005 184.294 610.582 183.698C610.159 183.102 610.37 182.409 610.043 181.775C609.024 179.756 605.217 181.352 603.525 180.352C602.563 179.775 602.428 178.563 601.602 177.871C601.102 177.528 600.536 177.292 599.94 177.18C599.344 177.067 598.731 177.08 598.14 177.217C596.929 177.217 595.814 178.179 594.66 177.602C593.506 177.025 593.237 175.91 591.929 176.044C590.006 176.217 589.083 178.679 589.006 180.582C580.911 181.486 577.776 189.486 577.776 189.486C578.604 190.53 579.614 191.416 580.757 192.101L581.584 192.582L582.526 193.062C583.352 193.445 584.207 193.76 585.084 194.005L585.93 195.928C586.009 196.112 586.099 196.292 586.199 196.466L586.314 196.639L586.526 196.947L586.699 197.158L586.891 197.37L587.122 197.601C587.468 197.926 587.856 198.204 588.276 198.427C588.741 198.672 589.24 198.847 589.756 198.947L591.679 199.293L587.833 194.466C588.765 194.583 589.702 194.641 590.641 194.639H590.929C591.602 195.793 592.237 197.158 593.91 196.658C594.91 196.37 595.102 196.043 596.217 196.293C596.928 196.504 597.672 196.575 598.41 196.504C599.14 196.238 599.832 195.876 600.467 195.428C601.247 195.125 602.104 195.084 602.909 195.312C604.832 195.601 605.351 194.485 606.928 193.755C607.62 193.428 608.851 193.428 609.332 192.812C609.492 192.652 609.604 192.45 609.655 192.229C609.706 192.008 609.694 191.777 609.62 191.563H609.966L610.409 191.447H610.716L611.139 191.332H611.428L611.87 191.216H612.101L612.582 191.101H612.755L613.235 190.966H613.37L613.87 190.832L614.37 190.697L614.87 190.563C616.359 191.139 617.68 192.078 618.716 193.293L619.35 193.966L619.889 194.524C619.962 194.597 620.049 194.655 620.145 194.695C620.24 194.734 620.343 194.755 620.446 194.755C620.55 194.755 620.653 194.734 620.748 194.695C620.844 194.655 620.931 194.597 621.004 194.524C621.125 194.412 621.207 194.263 621.235 194.101C621.299 194.006 621.343 193.899 621.363 193.786C621.383 193.674 621.378 193.558 621.35 193.447Z" fill="#65A4C5"/>
<path d="M816.778 48.1317C816.778 47.9202 816.778 47.7087 816.682 47.478C816.586 47.2472 816.682 47.1703 816.682 47.0165V46.8434C816.682 46.6319 816.682 46.4396 816.682 46.228C816.682 45.9973 816.682 45.7666 816.682 45.5551C816.655 44.4406 816.739 43.3261 816.932 42.2283C816.949 42.1196 816.931 42.0083 816.88 41.9106C816.83 41.8128 816.75 41.7336 816.651 41.6844C816.553 41.6352 816.441 41.6185 816.333 41.6368C816.224 41.655 816.124 41.7073 816.048 41.786C815.192 43.033 814.026 44.0341 812.663 44.6897L811.413 44.1321C811.552 43.8499 811.578 43.5253 811.485 43.225C811.392 42.9246 811.187 42.6712 810.913 42.5168C810.567 42.286 810.01 42.1514 809.74 41.7668C809.471 41.3822 809.606 40.9208 809.394 40.517C808.721 39.1901 806.241 40.2476 805.125 39.5746C804.491 39.2093 804.395 38.4017 803.895 37.9402C803.566 37.7162 803.195 37.5629 802.804 37.4901C802.414 37.4172 802.012 37.4265 801.625 37.5172C800.818 37.5172 800.106 38.1518 799.337 37.7672C798.568 37.3826 798.414 36.671 797.549 36.748C796.28 36.8633 795.626 38.4786 795.626 39.7285C794.012 39.9865 792.491 40.6517 791.206 41.6611C789.92 42.6704 788.913 43.9907 788.28 45.4973C788.814 46.1779 789.465 46.7576 790.203 47.2088L790.742 47.5356L791.357 47.8434C791.897 48.0929 792.457 48.2987 793.03 48.4587L793.588 49.7086L793.761 50.0547V50.17L793.895 50.3624L794.011 50.497L794.126 50.6315L794.28 50.7854C794.505 50.9969 794.757 51.1779 795.03 51.3239C795.338 51.4869 795.668 51.6036 796.011 51.67L797.241 51.9007L794.722 48.7663C795.36 48.8471 796.002 48.8856 796.645 48.8817H796.837C797.28 49.6317 797.703 50.5354 798.76 50.2085C799.414 50.0162 799.53 49.8047 800.279 49.9585C800.741 50.0919 801.224 50.1376 801.702 50.0932C802.181 49.9165 802.633 49.6773 803.049 49.3817C803.566 49.2044 804.127 49.2044 804.645 49.3817C805.914 49.574 806.241 48.8432 807.279 48.3625C807.74 48.1509 808.49 48.1509 808.856 47.7471C808.96 47.6437 809.033 47.5134 809.067 47.3707C809.101 47.228 809.094 47.0787 809.048 46.9395H809.279H809.567H809.779H810.067H810.26H810.548H810.702H811.009H811.125H811.432H811.759H812.086H812.413C813.403 47.3105 814.283 47.9257 814.971 48.7278L815.394 49.1702L815.74 49.5356C815.837 49.6318 815.968 49.6858 816.105 49.6858C816.242 49.6858 816.373 49.6318 816.471 49.5356C816.554 49.4603 816.608 49.3582 816.624 49.2471C816.772 49.2675 816.922 49.2283 817.041 49.1382C817.16 49.048 817.239 48.9142 817.259 48.7663C817.279 48.6184 817.24 48.4685 817.15 48.3494C817.06 48.2304 816.926 48.1521 816.778 48.1317Z" fill="#65A4C5"/>
<path d="M890.351 84.3395C890.351 84.1279 890.351 83.9164 890.254 83.6856C890.158 83.4549 890.254 83.378 890.254 83.2241V83.0319C890.254 82.8268 890.254 82.6216 890.254 82.4165C890.254 82.1858 890.254 81.9551 890.254 81.7435C890.227 80.6291 890.311 79.5146 890.504 78.4168C890.521 78.308 890.503 78.1968 890.453 78.0991C890.402 78.0013 890.322 77.9221 890.224 77.8729C890.125 77.8237 890.014 77.807 889.905 77.8252C889.797 77.8435 889.697 77.8958 889.62 77.9745C888.765 79.2215 887.598 80.2226 886.235 80.8782L884.986 80.3205C885.124 80.0383 885.15 79.7138 885.057 79.4134C884.964 79.1131 884.76 78.8597 884.486 78.7053C884.139 78.4745 883.582 78.3399 883.313 77.9553C883.043 77.5707 883.178 77.1093 882.966 76.7054C882.293 75.3786 879.813 76.4361 878.698 75.7631C878.063 75.3977 877.967 74.5901 877.467 74.1286C877.139 73.9046 876.767 73.7514 876.377 73.6785C875.986 73.6057 875.585 73.6149 875.198 73.7055C874.39 73.7055 873.679 74.3401 872.909 73.9555C872.14 73.5709 871.986 72.8595 871.121 72.9364C869.852 73.0518 869.198 74.6671 869.198 75.917C867.584 76.175 866.063 76.8402 864.778 77.8495C863.493 78.8589 862.486 80.1792 861.853 81.6858C862.386 82.3664 863.038 82.946 863.775 83.3972L864.314 83.7241L864.929 84.0318C865.469 84.2814 866.029 84.4871 866.602 84.6471L867.16 85.897L867.333 86.2431V86.3585L867.467 86.5509L867.583 86.6854L867.698 86.82L867.852 86.9739C868.078 87.1853 868.33 87.3664 868.602 87.5124C868.91 87.6754 869.241 87.792 869.583 87.8585L870.813 88.0892L868.256 84.9356C868.894 85.0163 869.536 85.0549 870.179 85.0509H870.371C870.813 85.8009 871.236 86.7047 872.294 86.3778C872.948 86.1855 873.063 85.9739 873.813 86.1278C874.275 86.2612 874.758 86.3068 875.236 86.2624C875.714 86.0857 876.167 85.8465 876.582 85.5509C877.099 85.3736 877.661 85.3736 878.178 85.5509C879.447 85.7432 879.774 85.0124 880.813 84.5317C881.274 84.3202 882.024 84.3203 882.39 83.9165C882.494 83.8131 882.567 83.6826 882.601 83.54C882.635 83.3973 882.628 83.2479 882.582 83.1087H882.813H883.101H883.313H883.601H883.793H884.082H884.236H884.543H884.659H884.966H885.293H885.62H885.947C886.937 83.4797 887.816 84.0949 888.504 84.8971L888.928 85.3394L889.274 85.7048C889.371 85.8011 889.502 85.855 889.639 85.855C889.776 85.855 889.907 85.8011 890.004 85.7048C890.088 85.6296 890.142 85.5275 890.158 85.4163C890.301 85.4418 890.448 85.4096 890.567 85.3266C890.686 85.2437 890.767 85.1169 890.793 84.9741C890.818 84.8313 890.786 84.6842 890.703 84.5652C890.62 84.4461 890.493 84.365 890.351 84.3395Z" fill="#65A4C5"/>
<path d="M562.065 132.818C562.065 132.607 562.065 132.395 561.969 132.164C561.873 131.933 561.969 131.857 561.969 131.703V131.453C561.969 131.248 561.969 131.043 561.969 130.837C561.969 130.607 561.969 130.376 561.969 130.164C561.942 129.05 562.026 127.936 562.219 126.838C562.236 126.729 562.218 126.618 562.167 126.52C562.117 126.422 562.037 126.343 561.938 126.294C561.84 126.245 561.728 126.228 561.62 126.246C561.511 126.264 561.412 126.317 561.335 126.395C560.48 127.642 559.313 128.643 557.95 129.299L556.7 128.741C556.839 128.459 556.865 128.135 556.772 127.834C556.679 127.534 556.474 127.281 556.2 127.126C555.854 126.895 555.297 126.761 555.027 126.376C554.758 125.992 554.893 125.53 554.681 125.126C554.008 123.8 551.528 124.857 550.412 124.184C549.778 123.819 549.682 123.011 549.182 122.55C548.853 122.326 548.482 122.172 548.092 122.099C547.701 122.027 547.299 122.036 546.913 122.127C546.105 122.127 545.393 122.761 544.624 122.377C543.855 121.992 543.701 121.28 542.836 121.357C541.567 121.473 540.913 123.088 540.913 124.338C539.299 124.596 537.778 125.261 536.493 126.27C535.207 127.28 534.201 128.6 533.567 130.107C534.101 130.787 534.752 131.367 535.49 131.818L536.029 132.145L536.644 132.453C537.184 132.702 537.744 132.908 538.317 133.068L538.875 134.318L539.048 134.664V134.779L539.182 134.972L539.298 135.106L539.413 135.241L539.567 135.395C539.792 135.606 540.045 135.787 540.317 135.933C540.625 136.096 540.955 136.213 541.298 136.279L542.528 136.51L539.971 133.356C540.609 133.437 541.251 133.476 541.894 133.472H542.086C542.528 134.222 542.951 135.126 544.009 134.799C544.663 134.606 544.778 134.395 545.528 134.549C545.99 134.682 546.472 134.728 546.951 134.683C547.429 134.507 547.882 134.267 548.297 133.972C548.814 133.795 549.376 133.795 549.893 133.972C551.162 134.164 551.489 133.433 552.528 132.953C552.989 132.741 553.739 132.741 554.104 132.337C554.208 132.234 554.281 132.104 554.315 131.961C554.349 131.818 554.343 131.669 554.297 131.53H554.527H554.816H555.027H555.316H555.508H555.797H555.95H556.258H556.373H556.681H557.008H557.335H557.662C558.651 131.901 559.531 132.516 560.219 133.318L560.642 133.76L560.989 134.126C561.086 134.222 561.217 134.276 561.354 134.276C561.491 134.276 561.622 134.222 561.719 134.126C561.803 134.05 561.857 133.948 561.873 133.837C562.005 133.855 562.139 133.822 562.247 133.744C562.356 133.667 562.43 133.55 562.454 133.419C562.479 133.288 562.453 133.153 562.38 133.041C562.308 132.929 562.195 132.849 562.065 132.818Z" fill="#65A4C5"/>
</svg>
