<svg width="373" height="167" viewBox="0 0 373 167" fill="none" xmlns="http://www.w3.org/2000/svg">
<path d="M91.9979 91.9939L91.2864 90.9748L90.5749 89.8595L90.0942 89.1095L89.325 87.8212L88.9981 87.2636L88.2098 85.8406L87.979 85.4175C87.7098 84.8983 87.4598 84.3984 87.1905 83.8792L87.0367 83.5907C86.7675 83.033 86.5176 82.4947 86.2868 81.9562V81.764C86.0304 81.1871 85.7933 80.6102 85.5753 80.0333V79.9372C85.3446 79.3475 85.1266 78.7514 84.9215 78.1489C83.493 74.0997 82.7268 69.8466 82.6524 65.5535C82.5371 55.8042 86.3253 46.3242 94.0747 37.0364C87.0752 43.1706 75.6913 50.0162 69.4995 57.881C66.6343 50.843 60.0771 45.1127 51.6161 42.036C53.3377 37.4945 56.159 33.4509 59.8271 30.2676C36.7518 31.0368 24.2143 38.7862 18.0032 44.4011C10.7152 48.4201 5.56169 54.6504 4.13871 61.823C3.64882 61.823 3.16378 61.9195 2.71118 62.107C2.25857 62.2945 1.8473 62.5693 1.50089 62.9157C1.15448 63.2621 0.879707 63.6734 0.692231 64.126C0.504756 64.5786 0.408203 65.0636 0.408203 65.5535V66.2074C0.408203 66.6973 0.504756 67.1824 0.692231 67.635C0.879707 68.0876 1.15448 68.4988 1.50089 68.8452C1.8473 69.1916 2.25857 69.4664 2.71118 69.6538C3.16378 69.8413 3.64882 69.9379 4.13871 69.9379C5.00552 74.1188 7.0006 77.9826 9.90754 81.1101L10.9459 90.0326C11.1162 91.504 11.601 92.9214 12.3674 94.1888C13.1339 95.4563 14.1641 96.5441 15.388 97.3783L16.7532 98.3012L21.4837 101.532L15.7149 86.1482C16.3302 86.5521 16.9455 86.9366 17.6378 87.302C22.8297 96.109 35.5404 108.627 65.2306 105.301C59.8409 101.109 55.595 95.6265 52.8853 89.3595L53.2891 89.1865L53.8468 88.9558L54.5967 88.6288L55.1735 88.3597L55.8466 88.0136L56.4235 87.7058L57.0965 87.3405L57.6349 87.0328L58.7118 86.379L59.2887 85.9944L59.8271 85.629L60.404 85.206L60.8847 84.8407L61.4616 84.3792L61.8847 84.0331L62.4615 83.5523L62.7692 83.2831C63.1794 82.9241 63.5705 82.5523 63.9423 82.1677L64.2114 81.8985L64.7691 81.3024L65.0767 80.9755L65.596 80.3794L65.8652 80.0526L66.3651 79.4179L66.5574 79.1487C67.1143 78.3965 67.6278 77.6133 68.0958 76.8028L68.2496 76.5143L68.6341 75.8028L68.8072 75.4759L69.1534 74.7452L69.288 74.4376L69.6148 73.6491C69.961 74.0722 70.3456 74.476 70.7302 74.8991L70.9609 75.1491L72.1339 76.3413L72.3455 76.5528L73.5377 77.6873L73.6723 77.8219L75.0183 79.0141L75.3068 79.2641L76.6912 80.4563L76.8644 80.5909L78.2104 81.7063L78.4412 81.8985L79.9026 83.0716L80.191 83.3023L83.3832 85.8214L84.883 86.9943L85.1715 87.2251L86.4983 88.2827L86.7291 88.4558L88.1135 89.5903L88.4213 89.8403L89.7865 90.9748L89.9403 91.1095L91.1518 92.1671L91.3825 92.3786L92.6133 93.4939L92.8632 93.7246L94.0555 94.8783L92.6901 92.9554L91.9979 91.9939Z" fill="#65A4C5"/>
<path d="M370.15 62.2848L369.439 61.2656L368.727 60.1502L368.246 59.4004L367.477 58.1119L367.15 57.5543L366.362 56.1314L366.131 55.7082C365.862 55.1891 365.612 54.6891 365.343 54.1699L365.189 53.8815C364.92 53.3239 364.67 52.7854 364.439 52.247V52.0547C364.182 51.4778 363.945 50.9009 363.727 50.324V50.2279C363.497 49.6382 363.279 49.0421 363.074 48.4396C361.645 44.3904 360.879 40.1374 360.805 35.8443C360.689 26.095 364.477 16.6149 372.227 7.3271C365.227 13.4613 353.844 20.3069 347.652 28.1717C344.786 21.1338 338.229 15.4034 329.768 12.3267C331.465 7.78636 334.26 3.73669 337.902 0.539062C314.827 1.30824 302.289 9.05776 296.078 14.6727C288.79 18.6917 283.637 24.922 282.214 32.0946C281.724 32.0946 281.239 32.191 280.786 32.3785C280.334 32.566 279.922 32.8408 279.576 33.1872C279.23 33.5336 278.955 33.9448 278.767 34.3974C278.58 34.8501 278.483 35.3352 278.483 35.8251V36.4788C278.483 36.9687 278.58 37.4539 278.767 37.9065C278.955 38.3591 279.23 38.7704 279.576 39.1168C279.922 39.4632 280.334 39.738 280.786 39.9254C281.239 40.1129 281.724 40.2093 282.214 40.2093C283.081 44.3903 285.076 48.2541 287.983 51.3816L289.021 60.3041C289.191 61.7754 289.676 63.193 290.443 64.4604C291.209 65.7279 292.239 66.8156 293.463 67.6497L294.828 68.5727L299.559 71.8033L293.79 56.4197C294.405 56.8235 295.021 57.2082 295.713 57.5736C300.905 66.3806 313.616 78.8989 343.306 75.5723C337.916 71.3807 333.67 65.8981 330.961 59.6311L331.364 59.458L331.922 59.2273L332.672 58.9004L333.249 58.6312L333.922 58.285L334.499 57.9773L335.172 57.6121L335.71 57.3043L336.787 56.6506L337.364 56.266L337.902 55.9006L338.479 55.4775L338.96 55.1121L339.537 54.6507L339.96 54.3045L340.537 53.8238L340.844 53.5546C341.255 53.1956 341.646 52.8239 342.017 52.4393L342.287 52.1701L342.844 51.574L343.152 51.247L343.671 50.6509L343.94 50.324L344.44 49.6894L344.633 49.4203C345.189 48.6681 345.703 47.8848 346.171 47.0743L346.325 46.7859L346.709 46.0744L346.882 45.7474L347.229 45.0167L347.363 44.7091L347.69 43.9206C348.036 44.3437 348.421 44.7475 348.805 45.1706L349.036 45.4206L350.209 46.6128L350.421 46.8243L351.613 47.9589L351.748 48.0935L353.094 49.2857L353.382 49.5357L354.767 50.7279L354.94 50.8625L356.286 51.9777L356.516 52.1701L357.978 53.3431L358.266 53.5738L361.458 56.0929L362.958 57.2658L363.247 57.4966L364.574 58.5543L364.804 58.7273L366.189 59.8619L366.496 60.1119L367.862 61.2463L368.016 61.3809L369.227 62.4385L369.458 62.6502L370.688 63.7654L370.938 63.9961L372.131 65.15L370.765 63.227L370.15 62.2848Z" fill="#65A4C5"/>
<path d="M95.074 162.681C95.074 162.451 95.074 162.201 94.9586 161.951C94.8432 161.701 94.9586 161.605 94.9586 161.432V161.201C94.9586 160.97 94.9586 160.739 94.9586 160.489C94.9586 160.239 94.9586 159.97 94.9586 159.72C94.9238 158.432 95.0205 157.143 95.2471 155.874C95.2683 155.751 95.2487 155.623 95.1912 155.512C95.1337 155.401 95.0416 155.311 94.9285 155.256C94.8155 155.202 94.6879 155.186 94.5649 155.211C94.442 155.236 94.3304 155.3 94.2471 155.393C93.2743 156.802 91.9479 157.929 90.4012 158.662L88.9975 158.028C89.1466 157.711 89.172 157.35 89.0689 157.016C88.9657 156.682 88.7414 156.398 88.4399 156.22C88.0361 155.951 87.4207 155.816 87.1131 155.355C86.8054 154.893 86.9592 154.393 86.7092 153.932C85.9593 152.432 83.1518 153.624 81.8826 152.874C81.1711 152.451 81.075 151.548 80.4982 150.951C80.1285 150.698 79.7102 150.525 79.2699 150.442C78.8296 150.359 78.3769 150.369 77.9406 150.471C77.0368 150.471 76.2099 151.182 75.3638 150.759C74.5177 150.336 74.3254 149.509 73.4409 149.605C72.0179 149.74 71.3257 151.528 71.2681 152.971C69.4398 153.273 67.7183 154.036 66.2653 155.186C64.8123 156.336 63.6753 157.837 62.9609 159.547C63.5765 160.316 64.3255 160.967 65.1722 161.47L65.7876 161.835L66.4798 162.181C67.1009 162.464 67.744 162.696 68.4028 162.874L69.0181 164.277C69.0815 164.409 69.1522 164.538 69.2297 164.662V164.797L69.3835 165.027L69.4989 165.181L69.6335 165.335L69.8066 165.508C70.0615 165.743 70.3459 165.943 70.6527 166.104C70.9973 166.285 71.3666 166.415 71.7488 166.489L73.1333 166.739L70.2488 163.162C70.9376 163.251 71.6312 163.296 72.3257 163.297H72.5371C73.0371 164.162 73.4986 165.22 74.7293 164.797C75.4793 164.585 75.6139 164.354 76.4408 164.527C76.9645 164.681 77.5127 164.733 78.056 164.681C78.5959 164.481 79.1067 164.209 79.5751 163.874C80.1606 163.671 80.7971 163.671 81.3826 163.874C82.8056 164.085 83.1903 163.258 84.344 162.72C84.8632 162.489 85.7093 162.47 86.1324 162.028C86.2515 161.91 86.3346 161.76 86.372 161.597C86.4095 161.433 86.3997 161.263 86.3438 161.105H86.5938H86.9207H87.1515H87.4784H87.6899H88.0168H88.1899H88.536H88.6707H89.036H89.1321H89.4975L89.8629 161.008L90.2282 160.912C91.3514 161.329 92.3505 162.023 93.1319 162.931L93.6126 163.431L93.9971 163.835C94.0509 163.89 94.1152 163.934 94.1862 163.964C94.2572 163.994 94.3335 164.01 94.4106 164.01C94.4877 164.01 94.564 163.994 94.635 163.964C94.706 163.934 94.7703 163.89 94.8241 163.835C94.9136 163.754 94.9742 163.646 94.9971 163.527C95.0582 163.477 95.1088 163.416 95.1458 163.346C95.1828 163.276 95.2055 163.199 95.2127 163.121C95.2198 163.042 95.2113 162.962 95.1875 162.887C95.1636 162.812 95.125 162.742 95.074 162.681Z" fill="#65A4C5"/>
</svg>
