<?xml version="1.0" encoding="UTF-8"?>
<svg width="16px" height="9px" viewBox="0 0 16 9" version="1.1" xmlns="http://www.w3.org/2000/svg" xmlns:xlink="http://www.w3.org/1999/xlink">
    <!-- Generator: Sketch 61 (89581) - https://sketch.com -->
    <title>Group 4</title>
    <desc>Created with Sketch.</desc>
    <g id="UserPath" stroke="none" stroke-width="1" fill="none" fill-rule="evenodd">
        <g id="Desktop-HD" transform="translate(-986.000000, -482.000000)">
            <g id="FormCreateAccount" transform="translate(468.000000, 359.000000)">
                <g id="Group-4" transform="translate(518.000000, 123.000000)">
                    <path d="M1,5 C4.07655356,3 6.40988689,2 8,2 C9.59011311,2 11.9234464,3 15,5" id="Line-3" stroke="#000000" stroke-linecap="square"></path>
                    <g id="Group-8" transform="translate(0.000000, 5.000000)" stroke="#000000" stroke-linecap="square">
                        <path d="M1,3 C4.07655356,1 6.40988689,0 8,0 C9.59011311,0 11.9234464,1 15,3" id="Line-3" transform="translate(8.000000, 1.500000) scale(1, -1) translate(-8.000000, -1.500000) "></path>
                    </g>
                    <g id="Group-8" transform="translate(8.000000, 2.500000) scale(1, -1) translate(-8.000000, -2.500000) ">
                        <path d="M1,3 C4.07655356,1 6.40988689,0 8,0 C9.59011311,0 11.9234464,1 15,3" id="Line-3" stroke="#000000" stroke-linecap="square" transform="translate(8.000000, 1.500000) scale(1, -1) translate(-8.000000, -1.500000) "></path>
                        <rect id="Rectangle" fill="#000000" transform="translate(1.500000, 1.500000) scale(-1, -1) rotate(30.000000) translate(-1.500000, -1.500000) " x="1" y="0.999999811" width="1" height="1"></rect>
                        <rect id="Rectangle" fill="#000000" transform="translate(14.500000, 1.500000) scale(-1, -1) rotate(-30.000000) translate(-14.500000, -1.500000) " x="14" y="0.999999811" width="1" height="1"></rect>
                        <rect id="Rectangle" fill="#000000" transform="translate(11.500000, 3.000000) scale(-1, -1) rotate(-25.000000) translate(-11.500000, -3.000000) " x="11" y="1.99999981" width="1" height="2"></rect>
                        <rect id="Rectangle" fill="#000000" transform="translate(8.000000, 4.000000) scale(-1, -1) translate(-8.000000, -4.000000) " x="7.5" y="3" width="1" height="2"></rect>
                        <rect id="Rectangle" fill="#000000" transform="translate(4.500000, 3.000000) scale(-1, -1) rotate(25.000000) translate(-4.500000, -3.000000) " x="4" y="1.99999981" width="1" height="2"></rect>
                    </g>
                    <circle id="Oval-2" stroke="#000000" stroke-width="2" cx="8" cy="5" r="2"></circle>
                </g>
            </g>
        </g>
    </g>
</svg>