<svg width="1059" height="143" viewBox="0 0 1059 143" fill="none" xmlns="http://www.w3.org/2000/svg">
<path d="M146.245 90.8771C146.373 90.2874 146.502 89.6913 146.63 89.0887C146.63 88.6657 146.784 88.2427 146.88 87.8004L146.995 87.1851C147.091 86.6274 147.187 86.0698 147.264 85.5121V85.3005C147.738 82.2196 148.001 79.1101 148.053 75.9935C148.14 70.9209 147.492 65.8625 146.13 60.9754C150.196 64.4329 153.474 68.721 155.745 73.5514C158.747 71.1049 160.948 67.8161 162.065 64.1081C163.182 60.4002 163.164 56.4428 162.013 52.7451C174.472 56.3713 185.026 64.7112 191.434 75.9935C190.665 77.2755 189.858 78.4421 189.011 79.4933C188.588 80.0574 188.153 80.6021 187.704 81.1277L187.242 81.6662L187.569 87.3197C187.607 87.971 187.497 88.6224 187.247 89.2251C186.997 89.8279 186.614 90.3663 186.127 90.8002L185.435 91.4154L183.012 93.5692L184.569 84.5314C183.89 85.198 183.191 85.839 182.473 86.4543C182.405 87.5562 182.065 88.6241 181.485 89.5633C180.904 90.5025 180.101 91.2839 179.147 91.8385C176.517 93.4197 173.604 94.4714 170.57 94.9344C170.043 94.9979 169.512 94.8531 169.09 94.5307C167.955 95.0114 166.782 95.4537 165.59 95.8575C165.526 95.4217 165.449 94.9921 165.359 94.5691L165.263 94.1268C165.263 93.8384 165.148 93.5692 165.071 93.3L164.917 92.7808L164.706 92.05L164.513 91.4924L164.282 90.8386L164.071 90.2617L163.821 89.6464L163.571 89.0695L163.302 88.4926L163.013 87.9158L162.725 87.3773L162.398 86.7812L162.09 86.262L161.725 85.6659L161.417 85.1851L160.994 84.589L160.667 84.166L160.206 83.5507L159.898 83.1661L159.36 82.5315L159.09 82.2238L158.456 81.5316L158.341 81.4162C157.454 80.4989 156.517 79.6321 155.533 78.8202C153.896 81.8621 151.908 84.7018 149.61 87.2812V87.3773L149.072 87.9927L148.88 88.2042L148.399 88.7426L148.111 89.0503L147.687 89.4925L147.284 89.9156L146.957 90.2425L146.226 90.9924L146.245 90.8771Z" fill="#65A4C5"/>
<path d="M1.06243 8.53653C1.07188 8.60964 1.10577 8.67736 1.15858 8.72878C1.19089 8.76252 1.22968 8.78943 1.27264 8.80777C1.31561 8.82611 1.36184 8.83558 1.40855 8.83558C1.45527 8.83558 1.5015 8.82611 1.54447 8.80777C1.58743 8.78943 1.62622 8.76252 1.65853 8.72878L1.88929 8.47891L2.17773 8.17117C2.64712 7.61907 3.24931 7.19551 3.9276 6.94046H4.15836H4.38912H4.60063H4.81215H5.02368H5.11983H5.31212H5.44673H5.63902H5.77362H5.96593H6.11975C6.08735 7.03665 6.08279 7.14014 6.10661 7.23881C6.13043 7.33747 6.18164 7.42737 6.25436 7.49819C6.50434 7.7674 7.02355 7.76734 7.33122 7.92118C8.02348 8.24808 8.25423 8.74801 9.11955 8.61341C9.47455 8.49033 9.86063 8.49033 10.2156 8.61341C10.5001 8.81473 10.8106 8.97646 11.1386 9.09414C11.4626 9.15645 11.7954 9.15645 12.1193 9.09414C12.6193 8.998 12.6962 9.0942 13.1577 9.26726C13.9077 9.47878 14.1961 8.88273 14.4846 8.36353H14.6192C15.0354 8.38975 15.4528 8.38975 15.8691 8.36353L14.1192 10.5172L14.9461 10.3634C15.1806 10.3202 15.4074 10.2425 15.6191 10.1326C15.887 10.2125 16.1668 10.245 16.446 10.2287L16.5421 10.1326V10.0365V9.90186L16.6575 9.67112L17.0421 8.82502C17.4375 8.71548 17.8233 8.57394 18.1958 8.40191L18.6189 8.19042L18.9842 7.97892C19.4935 7.67101 19.943 7.27354 20.3111 6.80584C19.8801 5.77161 19.1934 4.8639 18.3156 4.16766C17.4377 3.47143 16.3974 3.00958 15.2922 2.82545C15.2922 1.97936 14.8499 0.902517 13.9846 0.787141C13.1193 0.671764 13.2154 1.26785 12.7731 1.47937C12.3309 1.6909 11.754 1.34471 11.2156 1.30626C10.9532 1.24379 10.6807 1.2372 10.4157 1.28689C10.1507 1.33658 9.89907 1.44149 9.67721 1.59474C9.33108 1.90241 9.27339 2.44087 8.83111 2.71008C8.08116 3.15236 6.36974 2.44079 5.92746 3.34457C5.79286 3.63301 5.92747 3.9407 5.69672 4.20992C5.46597 4.47913 5.13906 4.57531 4.88907 4.72915C4.70396 4.83469 4.56549 5.00622 4.50132 5.20941C4.43715 5.41261 4.45201 5.63252 4.54294 5.82524L3.69686 6.20973C2.77475 5.77843 1.97984 5.11601 1.38932 4.28679C1.33895 4.23232 1.27241 4.19553 1.19951 4.18175C1.12661 4.16796 1.05122 4.17795 0.984435 4.21027C0.91765 4.24258 0.863014 4.29548 0.828586 4.3612C0.794158 4.42692 0.781758 4.50198 0.793214 4.57528C0.925535 5.32408 0.983498 6.08412 0.966272 6.84434C0.966272 6.99817 0.966272 7.15199 0.966272 7.30582C0.966272 7.44684 0.966272 7.58791 0.966272 7.72893V7.86355V8.17117C0.966272 8.325 0.966272 8.4788 0.966272 8.61341C1.00266 8.59372 1.03523 8.56771 1.06243 8.53653Z" fill="#65A4C5"/>
<path d="M307.561 138.894C307.583 139.013 307.644 139.121 307.734 139.201C307.788 139.257 307.852 139.301 307.923 139.331C307.994 139.361 308.07 139.376 308.148 139.376C308.225 139.376 308.301 139.361 308.372 139.331C308.443 139.301 308.507 139.257 308.561 139.201L308.946 138.798L309.426 138.298C310.208 137.39 311.207 136.695 312.33 136.279L312.695 136.375L313.061 136.471H313.426H313.522H313.888H314.022H314.368H314.541H314.868H315.08H315.407H315.637H315.964H316.214C316.158 136.629 316.149 136.8 316.186 136.963C316.224 137.126 316.307 137.276 316.426 137.394C316.83 137.836 317.695 137.855 318.214 138.086C319.368 138.625 319.752 139.452 321.175 139.24C321.761 139.038 322.397 139.038 322.983 139.24C323.451 139.575 323.962 139.847 324.502 140.048C325.045 140.1 325.594 140.047 326.117 139.894C326.964 139.721 327.079 139.894 327.829 140.163C329.06 140.528 329.54 139.528 330.021 138.663H330.233C330.927 138.662 331.621 138.617 332.309 138.528L329.425 142.105L330.809 141.855C331.192 141.781 331.561 141.652 331.905 141.471C332.212 141.31 332.497 141.109 332.752 140.874L332.925 140.701L333.059 140.548L333.175 140.394L333.328 140.163V140.028C333.406 139.904 333.477 139.776 333.54 139.644L334.155 138.24C334.814 138.062 335.457 137.83 336.078 137.548L336.77 137.202L337.386 136.836C338.233 136.333 338.982 135.682 339.597 134.913C338.883 133.203 337.746 131.703 336.293 130.552C334.84 129.402 333.118 128.64 331.29 128.337C331.29 126.914 330.54 125.106 329.117 124.972C328.137 124.972 327.848 125.76 327.194 126.126C326.54 126.491 325.521 125.914 324.618 125.837C324.181 125.735 323.729 125.726 323.288 125.809C322.848 125.891 322.43 126.065 322.06 126.318C321.483 126.837 321.387 127.741 320.675 128.241C319.426 128.991 316.618 127.798 315.849 129.298C315.618 129.76 315.849 130.279 315.445 130.721C315.041 131.164 314.522 131.317 314.118 131.587C313.817 131.764 313.592 132.048 313.489 132.382C313.386 132.717 313.412 133.078 313.561 133.394L312.157 134.029C310.61 133.296 309.284 132.168 308.311 130.76C308.228 130.666 308.116 130.602 307.993 130.577C307.87 130.553 307.743 130.569 307.63 130.623C307.517 130.677 307.424 130.767 307.367 130.878C307.309 130.99 307.29 131.117 307.311 131.24C307.538 132.509 307.634 133.798 307.6 135.086C307.6 135.336 307.6 135.606 307.6 135.856C307.6 136.086 307.6 136.336 307.6 136.567V136.798C307.6 136.971 307.6 137.144 307.6 137.317C307.6 137.49 307.6 137.817 307.484 138.048C307.433 138.108 307.394 138.178 307.371 138.253C307.347 138.329 307.338 138.408 307.345 138.487C307.353 138.566 307.375 138.642 307.412 138.712C307.449 138.782 307.5 138.844 307.561 138.894Z" fill="#65A4C5"/>
<path d="M145.476 17.4594C145.492 17.5705 145.547 17.6725 145.63 17.7477C145.727 17.844 145.858 17.8981 145.995 17.8981C146.132 17.8981 146.263 17.844 146.361 17.7477L146.707 17.3824L147.13 16.9401C147.818 16.138 148.698 15.5228 149.687 15.1518H150.014H150.341H150.668H150.976H151.091H151.399H151.553H151.841H152.033H152.322H152.533H152.822H153.052C153.006 15.291 153 15.4403 153.034 15.583C153.068 15.7257 153.141 15.856 153.245 15.9594C153.61 16.3632 154.36 16.3632 154.822 16.5748C155.841 17.0555 156.187 17.7863 157.456 17.594C157.973 17.4167 158.535 17.4167 159.052 17.594C159.467 17.8896 159.92 18.1288 160.398 18.3055C160.877 18.3499 161.359 18.3042 161.821 18.1708C162.571 18.017 162.686 18.1708 163.34 18.4208C164.436 18.7477 164.84 17.8632 165.263 17.094H165.455C166.098 17.098 166.741 17.0594 167.378 16.9786L164.821 20.1323L166.052 19.9015C166.394 19.8354 166.724 19.7186 167.032 19.5553C167.305 19.4094 167.557 19.2284 167.782 19.0169L167.936 18.8631L168.051 18.7285L168.167 18.5938L168.301 18.4016V18.2862L168.474 17.9401L169.032 16.6901C169.605 16.5302 170.165 16.3244 170.705 16.0748L171.32 15.7672L171.859 15.4403C172.597 14.9891 173.248 14.4095 173.782 13.7289C173.149 12.2223 172.142 10.9019 170.857 9.89248C169.571 8.8831 168.05 8.21806 166.436 7.96003C166.436 6.71012 165.782 5.09487 164.513 4.97949C163.648 4.97949 163.398 5.67169 162.725 5.99859C162.052 6.32549 161.244 5.80629 160.437 5.7486C160.05 5.65791 159.648 5.64877 159.258 5.7216C158.867 5.79443 158.496 5.9477 158.167 6.17171C157.668 6.63321 157.571 7.42157 156.937 7.80616C155.822 8.45996 153.341 7.42155 152.668 8.74838C152.456 9.1522 152.668 9.61375 152.322 9.99834C151.976 10.3829 151.495 10.5176 151.149 10.7483C150.875 10.9027 150.67 11.1561 150.577 11.4565C150.484 11.7569 150.51 12.0814 150.649 12.3635L149.399 12.9212C148.036 12.2664 146.869 11.2651 146.015 10.0176C145.938 9.93886 145.838 9.88657 145.729 9.8683C145.621 9.85002 145.509 9.86662 145.411 9.91583C145.312 9.96504 145.232 10.0443 145.182 10.1421C145.131 10.2399 145.113 10.3511 145.13 10.4598C145.323 11.5577 145.407 12.672 145.38 13.7865C145.38 14.0172 145.38 14.2481 145.38 14.4596C145.38 14.6647 145.38 14.8698 145.38 15.0749V15.2672C145.38 15.421 145.38 15.5748 145.38 15.7287C145.38 15.8825 145.38 16.171 145.284 16.3825C145.141 16.408 145.014 16.4892 144.931 16.6082C144.848 16.7272 144.816 16.8743 144.842 17.0171C144.867 17.1599 144.948 17.2866 145.067 17.3696C145.186 17.4525 145.333 17.4849 145.476 17.4594Z" fill="#65A4C5"/>
<path d="M1010.61 128.665C1010.64 128.842 1010.72 129.004 1010.86 129.126C1010.94 129.207 1011.03 129.271 1011.13 129.315C1011.24 129.359 1011.35 129.381 1011.46 129.381C1011.58 129.381 1011.69 129.359 1011.79 129.315C1011.89 129.271 1011.99 129.207 1012.07 129.126L1012.64 128.53L1013.34 127.799C1014.48 126.469 1015.94 125.45 1017.59 124.838L1018.13 124.992L1018.66 125.126L1019.2 125.261H1019.36L1019.88 125.396H1020.07L1020.59 125.53H1020.84L1021.32 125.646H1021.62L1022.09 125.761H1022.43L1022.91 125.876H1023.28C1023.2 126.107 1023.19 126.355 1023.24 126.593C1023.29 126.831 1023.41 127.049 1023.59 127.222C1024.18 127.876 1025.51 127.895 1026.2 128.241C1027.89 129.03 1028.47 130.164 1030.55 129.934C1031.42 129.675 1032.35 129.715 1033.2 130.049C1033.89 130.536 1034.64 130.931 1035.43 131.222C1036.23 131.296 1037.03 131.218 1037.8 130.991C1039.03 130.741 1039.22 130.991 1040.32 131.395C1042.12 131.934 1042.82 130.453 1043.55 129.203H1043.85C1044.94 129.361 1046.04 129.445 1047.14 129.453L1042.91 134.683L1044.93 134.299C1045.49 134.194 1046.04 134.006 1046.55 133.741C1047 133.503 1047.42 133.206 1047.8 132.857H1047.89L1048.14 132.607L1048.35 132.376L1048.53 132.145L1048.76 131.818L1048.89 131.626C1049.01 131.44 1049.11 131.247 1049.2 131.049L1050.12 128.991C1051.08 128.727 1052.01 128.387 1052.91 127.972L1053.93 127.453L1054.83 126.915C1056.07 126.168 1057.17 125.204 1058.06 124.069C1058.06 124.069 1054.66 115.396 1045.89 114.454C1045.89 112.377 1044.8 109.724 1042.72 109.531C1041.3 109.397 1040.8 110.685 1039.76 111.223C1038.72 111.762 1037.3 110.897 1035.91 110.8C1035.26 110.639 1034.58 110.619 1033.91 110.742C1033.25 110.865 1032.62 111.127 1032.07 111.512C1031.22 112.262 1031.07 113.589 1030.03 114.204C1028.11 115.3 1024.07 113.569 1022.95 115.762C1022.61 116.435 1022.82 117.204 1022.37 117.838C1021.93 118.473 1021.01 118.704 1020.45 119.088C1020 119.344 1019.67 119.76 1019.52 120.252C1019.36 120.745 1019.4 121.277 1019.63 121.742L1017.57 122.665C1015.32 121.585 1013.39 119.934 1011.97 117.877C1011.85 117.741 1011.69 117.648 1011.51 117.614C1011.33 117.579 1011.14 117.603 1010.97 117.683C1010.81 117.764 1010.67 117.895 1010.59 118.058C1010.51 118.222 1010.48 118.408 1010.51 118.588C1010.83 120.404 1010.96 122.246 1010.91 124.088C1010.91 124.473 1010.91 124.838 1010.91 125.222C1010.91 125.569 1010.91 125.915 1010.91 126.261V126.588C1010.91 126.838 1010.91 127.088 1010.91 127.338C1010.91 127.588 1010.8 128.068 1010.74 128.415C1010.68 128.49 1010.64 128.574 1010.61 128.665Z" fill="#65A4C5"/>
</svg>
