<svg width="175" height="177" viewBox="0 0 175 177" fill="none" xmlns="http://www.w3.org/2000/svg">
<mask id="mask0" mask-type="alpha" maskUnits="userSpaceOnUse" x="1" y="0" width="171" height="174">
<rect x="1" width="171" height="174" rx="10" fill="white"/>
</mask>
<g mask="url(#mask0)">
<g style="mix-blend-mode:multiply" opacity="0.5">
<path opacity="0.202381" d="M100.485 283.97C161.504 283.97 210.97 234.504 210.97 173.485C210.97 112.466 161.504 63 100.485 63C39.4659 63 -10 112.466 -10 173.485C-10 234.504 39.4659 283.97 100.485 283.97Z" fill="#2B5250"/>
<path opacity="0.202381" d="M100.645 265.742C151.509 265.742 192.743 224.509 192.743 173.645C192.743 122.781 151.509 81.5474 100.645 81.5474C49.781 81.5474 8.54749 122.781 8.54749 173.645C8.54749 224.509 49.781 265.742 100.645 265.742Z" fill="#2B5250"/>
<path opacity="0.1" d="M100.485 245.596C140.311 245.596 172.596 213.311 172.596 173.485C172.596 133.659 140.311 101.374 100.485 101.374C60.6591 101.374 28.3739 133.659 28.3739 173.485C28.3739 213.311 60.6591 245.596 100.485 245.596Z" fill="#2B5250"/>
</g>
<path d="M41.8149 93.249C45.0748 92.5942 38.5358 87.1259 37.6037 86.2129C35.2137 83.8755 30.6344 79.865 31.1937 76.0267C31.753 72.1883 35.8016 75.0085 38.0578 74.4206C37.618 71.7581 33.9087 69.1626 32.2692 67.1837C31.0073 65.6589 29.7597 64.0145 29.3438 62.0022C28.4691 57.7862 31.2128 57.0118 34.4011 58.876C34.8791 58.2021 34.7118 57.2222 34.6305 56.3809C34.4154 54.1821 32.6468 46.6392 36.38 46.0178C38.3541 45.6976 40.008 49.7797 40.6294 51.1133C41.3225 52.6238 42.2068 56.5816 43.593 57.4898C45.0748 58.4889 45.0987 55.9555 46.7192 56.1419C48.4686 56.3426 48.8893 59.9659 49.1092 61.3234C49.5155 63.7564 49.2191 66.2611 48.9562 68.675C48.808 70.0421 48.2201 71.8633 49.0327 73.1061C49.9361 72.4034 50.8586 71.2562 51.8577 70.6301C54.2955 69.1005 54.7974 71.7677 55.2897 73.8566C56.1262 77.3794 55.5574 81.2082 55.543 84.8076C55.543 86.1125 55.0029 89.4203 55.9111 90.295C58.0382 88.6841 61.4033 85.3668 62.4979 89.9891C63.2149 93.0196 62.9425 96.6237 62.3306 99.6447C61.3058 104.306 60.013 108.904 58.4588 113.416L57.5602 112.775C54.9886 110.906 52.1922 109.515 49.5489 107.728C45.9065 105.266 41.8531 101.992 39.6065 98.1677C39.0425 97.2117 37.4603 94.1381 38.1151 93.077C38.9803 91.6238 40.8302 93.4498 41.8149 93.249Z" fill="#95DC8F"/>
<path d="M38.0942 93.0673C38.9785 91.6333 40.8284 93.4544 41.8131 93.2537C41.938 93.2287 42.0598 93.1903 42.1764 93.139C47.6447 97.5509 52.7545 102.422 56.7888 108.158C57.5887 109.295 58.3455 110.449 59.0593 111.618C58.8538 112.235 58.6482 112.833 58.4379 113.401L57.5393 112.761C54.9676 110.892 52.1713 109.501 49.528 107.713C45.8856 105.251 41.8322 101.977 39.5856 98.1532C39.0215 97.1924 37.425 94.1236 38.0942 93.0673Z" fill="#138175"/>
<path d="M25.8956 115.352C23.1124 105.734 22.019 95.707 22.6644 85.7158C22.9457 81.7545 22.8079 77.7746 22.2533 73.8423C23.5678 75.1616 25.0591 76.39 25.8431 77.2313C28.539 80.128 31.4404 82.8956 34.0886 85.8927C41.3016 94.0617 48.5003 102.79 52.6302 113.005C55.3404 119.697 56.8748 126.561 56.5259 133.693C56.3446 137.005 55.7898 140.285 54.872 143.473C54.5756 144.524 54.2219 145.996 53.7678 147.493C39.815 141.288 30.1307 130.007 25.8956 115.352Z" fill="#60CA8E"/>
<path d="M51.3419 110.07C51.8199 111.026 52.2357 112.011 52.6373 113.005C55.3475 119.697 56.8819 126.561 56.533 133.693C56.3516 137.005 55.7968 140.285 54.8791 143.473C54.5827 144.524 54.229 145.997 53.7749 147.493C49.6375 145.669 45.7605 143.305 42.2455 140.461C42.6026 129.715 45.7364 119.245 51.3419 110.07Z" fill="#138175"/>
<path d="M27.5225 120.108C36.3559 122.145 44.0374 126.203 51.2217 131.542C53.0162 132.878 54.7334 134.314 56.365 135.844C56.0865 138.423 55.5892 140.974 54.8784 143.468C54.5821 144.52 54.2283 145.992 53.7742 147.488C41.3558 141.982 32.3455 132.455 27.5225 120.108Z" fill="#60CA8E"/>
<path d="M51.2171 135.882C43.7651 130.347 35.7872 126.174 26.5332 124.223C23.8372 123.655 18.5936 123.745 14 123.033C23.2397 132.378 27.5657 147.187 35.2232 157.344C44.984 170.284 58.0286 179.232 73.6831 181.693C71.9862 163.744 67.8515 148.252 51.2171 135.882Z" fill="#95DC8F"/>
<path d="M73.6831 181.703C64.7671 180.282 56.3331 176.705 49.1139 171.283C42.7089 158.789 40.6759 144.509 43.3396 130.724C46.0673 132.283 48.6979 134.005 51.2171 135.882C67.8515 148.253 71.9862 163.745 73.6831 181.703Z" fill="#138175"/>
<path d="M60.7061 127.316L61.1411 127.225C60.7492 125.347 60.5436 123.473 60.3429 121.661C60.1342 119.052 59.6764 116.469 58.9758 113.946C58.5504 112.575 58.1632 111.337 57.6852 110.008C57.1307 108.478 56.6145 106.891 56.1126 105.352C55.3382 102.991 54.5399 100.548 53.5744 98.182C52.6996 96.0166 51.605 93.8131 50.5486 91.6764C49.4301 89.4155 48.2734 87.0828 47.3747 84.7932C46.5526 82.6996 45.9407 80.4912 45.3145 78.388C44.5717 75.5104 43.5949 72.6984 42.394 69.98C40.9026 66.8395 40.2334 63.8186 39.526 60.6255C39.2296 59.2919 38.9237 57.9153 38.57 56.5291L38.1397 56.6438C38.5078 58.0252 38.8137 59.3971 39.0957 60.7259C39.8127 63.9476 40.4867 66.9877 41.9972 70.176C43.188 72.8729 44.1568 75.6625 44.8939 78.5171C45.5057 80.6489 46.1367 82.8525 46.9684 84.9653C47.8766 87.274 49.0382 89.6162 50.1567 91.8867C51.2083 94.0138 52.2981 96.1887 53.1681 98.3588C54.1241 100.749 54.9223 103.168 55.6919 105.529C56.1938 107.068 56.7148 108.66 57.2693 110.194C57.7473 111.513 58.1345 112.747 58.5551 114.114C59.3343 116.638 59.6115 119.118 59.9031 121.762C60.0991 123.535 60.3094 125.418 60.7061 127.316Z" fill="#138175"/>
<path d="M60.3708 153.329L60.6528 152.985C59.3001 151.861 58.5018 150.222 57.737 148.63C57.2261 147.473 56.5982 146.371 55.8633 145.341C55.4665 144.83 55.0841 144.385 54.7113 143.936C53.8065 142.943 53.0264 141.844 52.3882 140.662C50.9976 137.788 49.9346 134.767 49.2191 131.656C48.9705 130.7 48.7411 129.687 48.483 128.693C47.527 124.835 46.571 120.849 45.0461 117.374L44.42 115.94C42.3263 111.126 40.161 106.145 36.9201 102.02C33.9658 98.2656 31.4809 94.1643 29.5207 89.8074L29.1192 89.9986C31.0934 94.3847 33.5959 98.5133 36.5712 102.293C39.7738 106.375 41.9296 111.327 44.0136 116.116L44.6398 117.55C46.1503 120.992 47.1159 124.96 48.0528 128.798C48.2965 129.797 48.5307 130.791 48.7889 131.766C49.5131 134.904 50.5874 137.95 51.9915 140.848C52.6468 142.067 53.4495 143.2 54.3815 144.223C54.7495 144.658 55.1272 145.107 55.5191 145.614C56.2348 146.62 56.8466 147.696 57.3451 148.826C58.129 150.456 58.9368 152.134 60.3708 153.329Z" fill="#138175"/>
<path d="M80.5994 190.775L80.8336 190.393C80.1211 189.925 79.5416 189.281 79.1511 188.524C78.9341 188.16 78.6979 187.807 78.4436 187.468C76.1014 184.427 73.8357 181.32 71.6465 178.314C68.3483 173.787 64.9544 169.108 61.2165 164.6C59.1945 162.153 56.7328 160.179 54.3476 158.267C51.9624 156.355 49.5676 154.443 47.6174 152.053L46.5706 150.776C42.106 145.318 37.8853 140.165 33.0479 135.165L32.7277 135.475C37.5507 140.461 41.7667 145.609 46.2264 151.058L47.2732 152.335C49.2474 154.725 51.6995 156.708 54.0704 158.611C56.4413 160.513 58.8838 162.468 60.8723 164.877C64.5864 169.37 67.9898 174.045 71.288 178.567C73.4772 181.574 75.7477 184.686 78.0947 187.73C78.3402 188.058 78.5684 188.397 78.7782 188.749C79.2009 189.57 79.8281 190.268 80.5994 190.775Z" fill="#138175"/>
<path d="M124.392 219.818C164.803 219.818 197.563 187.059 197.563 146.648C197.563 106.237 164.803 73.4775 124.392 73.4775C83.9813 73.4775 51.2218 106.237 51.2218 146.648C51.2218 187.059 83.9813 219.818 124.392 219.818Z" fill="#61C1B8"/>
<g style="mix-blend-mode:multiply">
<path d="M177.244 96.0483C183.362 111.826 183.823 129.237 178.549 145.317C173.275 161.397 162.592 175.152 148.317 184.242C134.043 193.332 117.059 197.193 100.258 195.17C83.4565 193.147 67.8753 185.364 56.1664 173.146C60.0805 183.24 66.1853 192.34 74.0408 199.79C81.8963 207.24 91.3068 212.855 101.594 216.229C111.881 219.603 122.789 220.653 133.531 219.302C144.273 217.952 154.581 214.236 163.713 208.421C172.845 202.606 180.574 194.837 186.341 185.675C192.109 176.512 195.771 166.185 197.066 155.436C198.36 144.687 197.253 133.785 193.826 123.516C190.398 113.246 184.735 103.865 177.244 96.0483Z" fill="#61C1B8"/>
</g>
<path d="M183.321 183.682C183.321 183.682 181.483 183.989 181.176 184.089C180.869 184.19 180.059 184.296 179.746 184.598C179.433 184.9 179.338 184.497 178.316 184.805C177.293 185.112 176.986 184.905 177.601 183.782C178.215 182.659 177.807 182.352 177.701 181.547C177.595 180.743 178.818 180.218 176.785 180.117C174.751 180.017 174.64 179.609 173.215 180.424C171.79 181.24 170.662 182.056 170.662 182.056L169.231 181.24C168.634 180.578 167.985 179.964 167.293 179.402C166.786 179.327 166.274 179.293 165.762 179.302C165.586 178.671 165.551 178.009 165.662 177.363C165.868 176.447 165.561 176.139 164.946 176.447C164.332 176.754 163.209 177.363 163.209 177.363C162.185 177.478 161.186 177.753 160.248 178.179C159.131 178.793 159.024 179.201 157.186 178.994C155.348 178.788 155.248 180.424 153.834 179.503C152.421 178.581 151.689 178.279 151.08 177.564C150.471 176.849 150.058 177.257 150.264 178.329C150.471 179.402 151.795 179.195 150.415 179.659C149.035 180.123 148.32 179.452 148.577 181.039C148.834 182.626 148.884 183.693 148.426 183.693C148.209 183.626 148.012 183.508 147.849 183.35C147.687 183.191 147.565 182.996 147.493 182.781C147.422 182.565 147.403 182.336 147.438 182.112C147.473 181.888 147.561 181.675 147.694 181.492C148.51 180.469 147.745 179.91 147.745 179.91C147.745 179.91 148.102 179.145 148.611 179.045C149.119 178.944 149.527 177.821 148.56 177.972C147.594 178.123 147.644 177.665 147.387 178.531C147.13 179.397 146.929 179.603 145.957 179.86C144.985 180.117 144.884 179.86 144.169 180.369C143.454 180.877 144.169 181.084 143.096 181.084C142.024 181.084 141.716 181.391 141.716 182.201C141.716 183.011 141.359 183.067 140.901 183.581C140.443 184.095 140.342 184.196 139.985 184.603C139.772 184.824 139.645 185.113 139.627 185.419C139.577 185.626 139.169 185.726 138.912 185.626C138.655 185.525 138.297 185.067 137.381 184.453C136.638 183.874 135.719 183.568 134.778 183.587C133.705 183.587 132.789 185.782 131.308 185.067C129.828 184.352 129.979 184.201 129.113 183.637C128.247 183.073 128.498 182.972 128.347 182.207C128.196 181.441 127.889 181.341 128.297 180.726C128.705 180.112 128.755 179.704 128.705 178.43C128.654 177.156 129.621 175.419 128.705 174.91C127.789 174.402 129.777 174.296 126.867 174.195C123.956 174.095 124.52 173.48 122.582 173.787C120.643 174.095 119.57 174.346 119.006 174.296C118.442 174.245 117.576 174.039 118.598 173.123C119.621 172.206 119.978 172.815 119.928 171.642C119.878 170.469 119.47 169.547 120.079 169.905C120.688 170.262 121.101 169.698 121.509 169.189C121.917 168.681 120.844 167.608 121.917 166.742C122.989 165.876 123.906 165.362 122.274 165.362C120.643 165.362 121.967 164.597 119.822 164.804C117.676 165.01 117.727 164.904 117.626 165.569C117.526 166.234 115.995 164.955 116.71 166.592C117.425 168.228 117.475 169.039 116.81 169.145C116.226 169.19 115.645 169.276 115.073 169.402C113.492 169.709 112.52 170.832 112.112 170.067C111.704 169.301 112.369 169.094 111.196 169.094C110.022 169.094 109.866 169.553 109.458 167.977C109.05 166.402 107.313 164.966 108.078 164.966C108.844 164.966 108.743 164.15 108.386 163.29C108.028 162.429 108.129 161.251 108.129 160.329C108.129 159.407 108.078 157.826 108.743 158.39C109.408 158.954 109.458 158.597 109.458 157.625C109.458 156.653 108.643 155.993 109.251 155.122C109.86 154.25 109.201 154.306 110.525 153.792C111.849 153.278 111.442 153.233 112.76 153.178C114.078 153.122 114.034 153.384 114.548 152.82C115.062 152.256 114.598 151.189 115.263 151.747C115.928 152.306 115.57 152.155 116.939 152.055C118.308 151.954 119.084 152.513 119.235 151.496C119.386 150.479 118.827 150.345 120.459 150.245C121.492 150.138 122.531 150.087 123.57 150.094C124.286 150.144 124.336 149.636 124.487 150.502C124.638 151.367 125.459 151.01 126.068 150.909C126.677 150.809 126.733 149.993 127.291 150.502C127.85 151.01 129.079 151.574 129.33 152.178C129.582 152.781 129.839 153.044 129.587 154.016C129.336 154.988 128.822 155.345 129.437 155.854C130.051 156.362 130.353 156.111 130.409 156.876C130.465 157.641 131.074 158.306 131.124 158.664C131.174 159.021 131.99 159.278 132.241 159.172C132.493 159.066 133.571 158.2 132.8 155.496C132.029 152.792 132.493 152.703 132.135 151.211C131.778 149.719 131.521 149.58 132.442 148.25C133.364 146.92 133.56 146.462 134.638 145.954C135.716 145.445 136.068 145.138 136.873 143.915C137.489 142.951 138.403 142.215 139.476 141.82C140.499 141.362 139.627 141.233 139.655 140.702C139.683 140.172 140.342 140.445 140.772 140.144C141.202 139.842 141.538 139.786 141.331 139.378C141.124 138.97 140.515 139.479 140.593 139.149C140.672 138.82 141.744 138.233 141.459 137.926C141.314 137.756 141.11 137.646 140.888 137.618C140.666 137.59 140.441 137.646 140.258 137.775C139.7 138.054 139.141 137.875 139.392 137.546C139.644 137.216 139.979 137.724 139.878 136.702C139.778 135.68 139.085 134.406 139.42 133.87C139.755 133.333 139.856 132.825 139.906 134.378C139.957 135.931 139.755 137.518 140.465 137.06C141.175 136.602 141.795 136.216 141.409 135.3C141.024 134.384 140.437 133.898 141.152 134.182C141.867 134.467 141.711 135.512 142.27 134.898C142.828 134.283 143.543 133.624 143.085 133.11C142.627 132.596 142.985 131.992 143.007 131.68C143.029 131.367 142.448 130.886 143.314 130.864C144.18 130.842 144.923 131.322 145.303 130.607C145.683 129.892 146.018 129.691 145.454 129.763C144.89 129.836 144.253 130.322 143.895 130.221C143.538 130.121 144.532 129.585 145.376 129.428C146.219 129.272 145.426 129.043 146.242 129.02C147.057 128.998 148.03 129.227 148.052 128.691C148.074 128.154 147.314 127.573 147.007 127.746C146.7 127.92 146.499 127.746 146.521 127.26C146.543 126.774 147.136 126.495 147.365 125.908C147.746 125.251 148.259 124.68 148.873 124.232C149.152 124.059 150.158 124.657 150.359 123.914C150.56 123.171 150.599 122.886 150.734 122.797C150.868 122.707 151.242 122.986 151.482 122.523C151.722 122.059 152.041 121.031 152.114 121.752C152.186 122.472 151.94 122.595 152.577 122.053C153.214 121.512 153.454 120.83 153.488 121.271C153.521 121.713 153.739 122.02 154.007 121.713C154.276 121.405 154.236 122.165 153.862 122.227C153.488 122.288 152.784 121.45 152.845 122.277C152.907 123.104 152.56 122.528 152.477 123.243C152.393 123.959 152.398 125.478 153.281 124.741C154.164 124.003 154.019 123.439 154.639 122.981C155.15 122.631 155.686 122.319 156.242 122.048L157.186 120.897C157.186 120.897 157.89 120.456 157.08 120.456C156.27 120.456 156.521 120.322 155.901 120.528C155.281 120.735 154.974 120.679 154.639 120.383C154.304 120.087 154.371 119.981 153.655 120.014C152.94 120.048 152.817 120.176 152.477 119.081C152.136 117.986 153.253 118.059 152.136 117.964C151.571 117.851 150.985 117.917 150.46 118.154C149.795 118.372 149.544 118.193 149.974 117.835C150.404 117.478 150.946 117.657 151.532 117.377C152.119 117.098 153.063 117.199 152.488 116.511C152.078 116.072 151.537 115.776 150.946 115.668L148.711 116.612L147.309 117.863C147.309 117.863 146.577 118.919 146.136 119.478C145.694 120.037 144.985 120.545 145.398 119.83C145.829 118.952 146.352 118.123 146.957 117.355C147.442 116.887 147.953 116.446 148.488 116.036C149.046 115.567 148.974 114.394 149.739 114.265C150.505 114.137 151.231 114.215 152.588 114.059C153.946 113.902 155.505 113.802 155.991 113.55C156.477 113.299 156.549 112.869 156.728 112.394C156.907 111.919 156.929 112.003 157.689 111.835C158.449 111.668 158.449 110.774 158.449 110.327C158.449 109.88 157.628 109.712 157.494 109.137C157.36 108.561 157.544 108.081 157.108 108.388C156.672 108.695 156.812 109.444 156.549 109.137C156.287 108.83 156.924 107.98 156.075 108.181C155.225 108.383 155.633 108.081 154.818 109.031C154.002 109.98 153.505 109.813 154.007 109.031C154.508 108.406 155.162 107.922 155.907 107.628C156.248 107.461 155.259 107.26 154.231 107.07C153.494 106.961 152.801 106.654 152.225 106.181C151.988 106.013 151.701 105.928 151.41 105.941C151.309 105.941 151.136 105.567 150.08 104.578C149.024 103.589 147.666 102.299 146.985 101.55C146.303 100.801 146.169 99.6783 145.996 100.734C145.823 101.79 146.404 102.299 145.722 102.673C145.041 103.047 145.303 103.232 144.644 103.455C143.985 103.678 144.214 103.522 143.655 103.321C143.096 103.12 142.538 103.561 142.487 103.114C142.437 102.667 143.605 103.282 142.588 102.299C141.571 101.315 142.147 101.857 142.18 101.109C142.214 100.36 140.75 100.259 139.901 100.053C139.052 99.8459 139.493 99.4046 138.336 99.3375C137.599 99.2999 136.866 99.1971 136.146 99.0302C135.85 98.9632 133.878 98.5889 133.878 98.5889C133.878 98.5889 133.13 97.6335 133.096 98.7956C133.062 99.9576 133.062 100.053 133.062 100.533C133.147 100.968 133.339 101.375 133.621 101.717C133.621 101.717 134.342 101.209 134.498 101.617C134.655 102.025 133.275 102.254 132.917 102.511C132.56 102.768 132.359 102.589 133.146 103.198C133.934 103.807 134.576 103.963 134.755 104.349C134.934 104.734 135.241 105.422 135.241 105.422C135.241 105.422 136.035 105.98 135.627 106.036C135.219 106.092 135.297 106.215 134.733 106.98C134.253 107.633 133.599 108.137 132.845 108.433C132.286 108.64 132.208 108.69 132.409 109.405C132.61 110.12 133.224 110.019 133.353 110.679C133.481 111.338 133.118 110.936 133.61 111.796L134.102 112.668C134.102 112.668 133.588 112.17 133.895 112.886C134.202 113.601 134.152 114.159 133.744 113.5C133.336 112.841 133.537 112.634 133.185 112.992C132.833 113.349 132.778 113.4 133.085 113.886C133.392 114.372 133.75 115.215 133.392 114.729C133.035 114.243 133.007 113.684 132.448 113.936C131.889 114.187 131.504 114.657 131.247 114.601C130.99 114.545 131.247 113.886 131.247 113.886L131.733 112.891L130.934 112.277C130.934 112.277 129.755 112.606 130.18 112.098C130.604 111.589 129.889 111.433 129.66 111.433C129.431 111.433 128.688 110.874 129.275 110.874C129.861 110.874 129.934 110.925 130.18 110.517C130.425 110.109 129.99 109.573 129.811 109.243C129.632 108.913 129.99 108.126 129.224 108.126C128.459 108.126 127.157 108.332 126.9 108.126C126.539 107.788 126.114 107.528 125.649 107.36C125.103 107.293 124.55 107.327 124.017 107.461C123.738 107.461 123.917 107.036 123.71 106.774C123.377 106.507 122.98 106.33 122.559 106.26L122.001 106.181C121.843 106.106 121.71 105.986 121.62 105.836C121.529 105.686 121.485 105.513 121.492 105.338C121.492 104.701 121.056 104.114 120.677 104.472C120.423 104.712 120.184 104.968 119.961 105.237C119.961 105.237 119.168 104.165 119.274 103.706C119.38 103.248 119.833 103.477 119.833 102.941C119.833 102.405 119.883 102.891 120.319 102.204C120.755 101.516 120.805 100.874 121.542 100.98C122.28 101.086 122.766 101.209 122.816 100.215C122.867 99.2202 122.967 98.0972 123.582 97.6894C124.196 97.2816 123.682 97.7397 124.476 97.181C125.269 96.6223 125.805 96.3374 125.291 96.1865C124.777 96.0357 124.448 96.3653 124.068 96.0078C123.688 95.6502 123.023 95.3709 123.889 95.4491C124.755 95.5273 125.163 96.0636 125.565 95.9351C126 95.7343 126.371 95.4172 126.638 95.0189C126.738 94.8122 126.867 95.1195 127.096 94.8401C127.325 94.5608 127.146 94.2814 127.733 94.5831C128.319 94.8848 128.548 94.9407 128.576 94.4546C128.604 93.9686 129.191 93.8177 129.191 93.4099C129.191 93.0021 128.705 93.2814 128.526 92.5942C128.449 92.0582 128.209 91.5589 127.839 91.164C127.559 90.9852 127.174 90.5774 126.766 90.8847C126.358 91.1919 126.129 91.2143 126.207 91.6221C126.242 91.9098 126.198 92.2015 126.079 92.4657C125.832 92.6491 125.602 92.8548 125.392 93.0803C124.906 93.5663 124.984 94.5608 124.576 93.4378C124.168 92.3149 124.269 91.9071 123.861 91.8065C123.623 91.7184 123.361 91.7184 123.124 91.8065C122.822 91.8713 122.509 91.8713 122.207 91.8065C121.649 91.7562 121.47 91.4489 121.414 91.8065C121.358 92.164 121.414 92.5719 121.593 92.6222C121.772 92.6724 121.542 92.7786 120.928 93.0803C120.624 93.2223 120.334 93.3925 120.062 93.5887C120.062 93.5887 120.777 93.9965 120.341 94.2256C119.906 94.4546 119.984 94.5831 119.755 94.4546C119.526 94.3261 119.068 94.0971 119.269 93.6892C119.349 93.4718 119.46 93.2668 119.598 93.0803C119.906 92.6222 120.285 92.4155 120.313 92.287C120.341 92.1585 120.034 91.8009 119.548 91.5216C119.062 91.2422 118.732 90.7562 118.347 91.0858C118.058 91.3181 117.784 91.5681 117.526 91.8344C117.425 91.9853 118.084 91.935 118.291 92.0132C118.498 92.0914 118.699 92.5998 118.699 92.5998C118.688 92.686 118.653 92.7676 118.599 92.8356C118.545 92.9035 118.473 92.9553 118.392 92.9853C118.112 93.0859 117.676 93.2926 117.676 93.2926C117.676 93.2926 118.246 93.7786 116.967 93.22C115.996 92.7717 115.05 92.27 114.134 91.7171C113.017 91.1584 112.983 90.5997 112.682 91.1584C112.38 91.7171 112.961 91.7953 112.095 91.9238C111.229 92.0523 111.123 91.9741 110.922 92.3093C110.781 92.5804 110.687 92.873 110.643 93.1753L110.592 93.6334C110.592 93.6334 110.285 94.0915 110.184 94.1194C110.004 94.1167 109.829 94.0645 109.676 93.9686C109.576 93.8904 109.855 93.3038 109.855 93.1753C109.753 92.9078 109.623 92.6513 109.469 92.4099C109.469 92.4099 109.112 91.773 108.654 91.8512C108.249 91.9253 107.841 91.9757 107.43 92.002C107.43 92.002 106.179 91.5942 106.257 91.4154C106.335 91.2366 107.022 91.2366 106.972 91.1081C106.922 90.9796 107.179 90.8344 106.358 90.745C105.536 90.6556 104.29 90.3204 104.29 89.7058C104.29 89.0913 103.804 89.0187 103.089 89.041C102.374 89.0634 103.089 88.4041 102.223 88.6835C102.026 88.778 101.808 88.8214 101.589 88.8097C101.37 88.798 101.158 88.7315 100.972 88.6164C100.972 88.6164 101.279 88.2756 100.028 88.3036C98.7762 88.3315 99.184 88.3818 98.6254 88.5829C98.0667 88.784 98.0387 88.6332 97.9885 88.3036C97.9382 87.9739 97.3739 87.8734 96.994 87.9237C96.7395 87.9699 96.5022 88.0837 96.3068 88.2533C96.2713 87.8858 96.159 87.5299 95.9772 87.2085C95.6476 86.5437 96.0778 86.7225 95.3403 86.4934C94.6029 86.2644 93.8095 85.9068 94.3179 85.6275C94.8263 85.3481 95.7202 84.7839 95.1113 84.3537C94.5023 83.9235 94.6252 83.8453 93.6084 84.0743C92.5916 84.3034 92.2564 83.8676 91.8988 84.3537C91.5413 84.8397 91.9491 84.7895 90.8541 85.1973C89.7591 85.6051 90.0105 85.3761 89.5021 86.0912C88.9937 86.8063 88.9434 87.0354 88.8149 86.756C88.6864 86.4767 88.9155 85.6833 89.4015 85.1247C89.6867 84.7417 89.9373 84.3341 90.1502 83.9067C89.2041 84.3835 88.273 84.8807 87.3568 85.3984C87.1229 85.5782 86.9653 85.8395 86.9154 86.1303C86.7813 87.1192 87.4238 87.5717 86.6752 87.7169C85.9265 87.8622 85.6863 88.4097 85.2785 88.4432C84.8706 88.4767 85.1444 88.136 84.1611 88.0689C83.6695 88.0354 83.4236 87.9348 83.1443 87.9348C81.6284 88.9181 80.1516 89.9554 78.714 91.0467C79.1527 91.4958 79.4044 92.095 79.4179 92.7227L77.5351 93.9853L75.0378 94.6949C75.3846 94.9333 75.7808 95.0904 76.1968 95.1542C76.6128 95.2181 77.0378 95.1871 77.4402 95.0636C78.971 94.6893 79.8928 92.9015 79.8425 93.6166C79.7922 94.3317 78.9263 94.6725 78.4626 95.1642C77.9989 95.6558 80.0436 94.991 80.4515 94.4826C80.8593 93.9742 81.3174 92.0858 81.8817 92.4937C82.2263 92.7585 82.4627 93.1399 82.5465 93.5663L81.6806 94.4323L82.9544 95.058L84.8427 96.0636C84.8427 96.0636 84.9433 96.0636 84.8427 96.6223C84.7421 97.181 84.4013 97.3039 84.5689 97.5218C84.7366 97.7397 84.7198 97.7285 84.4069 98.2369C84.1165 98.663 83.8534 99.1071 83.6192 99.5666C83.5521 99.79 83.9767 99.9241 84.1108 99.5666C84.2449 99.209 84.4851 98.7006 84.4851 98.7006C84.4851 98.7006 85.1332 97.5274 85.2841 97.6615C85.4062 97.8061 85.4992 97.9731 85.5578 98.1531L84.9991 99.3654C84.9991 99.3654 84.9488 99.6895 84.8818 99.9968C84.8148 100.304 84.9153 100.371 84.7477 100.505C84.5801 100.639 84.189 100.03 84.5801 100.639C84.9712 101.248 84.8204 101.254 84.5801 101.522C84.3399 101.79 84.0829 101.863 84.3846 102.137C84.6863 102.41 85.0941 101.729 85.2617 101.93C85.4293 102.131 85.636 101.963 85.5355 102.371C85.4349 102.779 85.9656 103.019 85.5355 103.254C85.1053 103.489 84.5689 102.913 84.3566 102.98C84.1443 103.047 84.0438 103.03 83.9767 103.31C83.9097 103.589 83.6695 103.729 83.9767 103.93C84.284 104.131 83.9097 104.405 83.8762 104.611C83.8427 104.818 85.6807 104.053 84.9935 104.611C84.3064 105.17 84.1779 105.226 83.9712 105.768C83.7644 106.31 83.4125 106.79 83.8371 106.79C84.2617 106.79 84.6192 106.176 84.893 106.176C85.1667 106.176 84.9824 106.483 84.6472 106.79C84.312 107.098 83.7365 106.757 83.5298 107.198C83.4031 107.503 83.1893 107.763 82.9152 107.947C82.608 108.221 82.6415 108.288 83.0493 108.628C83.4572 108.969 84.4907 108.494 84.3511 108.628C84.2114 108.762 84.027 108.762 83.8427 108.986C83.6583 109.209 83.4348 109.545 83.798 109.461C84.0825 109.44 84.3563 109.343 84.5913 109.181C84.7589 109.036 85.2952 108.723 85.0103 109.064C84.7254 109.405 84.5075 109.304 84.5522 109.584C84.5969 109.863 84.703 109.668 84.6695 109.941C84.636 110.215 84.636 110.383 84.7701 110.45C84.8696 110.463 84.9709 110.449 85.0633 110.41C85.1558 110.371 85.2359 110.307 85.2952 110.226C85.3623 110.092 85.7031 110.019 85.5355 110.293C85.3679 110.567 85.0271 110.768 85.1779 111.042C85.3288 111.316 85.4852 111.534 85.4852 111.534L85.2617 112.092L85.1947 113.025C85.0749 113.421 84.9274 113.807 84.7533 114.182C84.5131 114.657 84.1388 115.539 84.1388 115.539H83.6639L83.7644 113.958C83.7093 113.596 83.6176 113.24 83.4907 112.897C83.3901 112.796 83.1499 112.74 82.9823 113.081C82.8639 113.337 82.7722 113.605 82.7085 113.88C82.7289 114.113 82.6824 114.348 82.5745 114.556C82.4376 114.83 82.3452 115.124 82.3007 115.428C81.7813 115.726 81.3927 116.209 81.2113 116.78C80.8034 117.835 80.5353 117.83 80.3286 118.713C80.1218 119.595 80.4626 120.104 79.647 120.618C78.8313 121.132 78.6916 120.819 78.457 121.774C78.2223 122.729 78.5911 122.797 78.1497 123.646C77.7083 124.495 77.4346 124.495 77.3675 125.21C77.3005 125.925 77.0212 126.623 77.0267 127.21C77.0323 127.797 76.5798 128.272 77.0267 128.679C77.4737 129.087 77.2335 129.054 77.4737 129.087C77.7139 129.121 77.6413 128.814 78.1218 129.087C78.6022 129.361 78.971 128.987 78.5966 129.361C78.2223 129.735 78.0882 129.92 78.0882 129.92C78.0882 129.92 77.848 129.646 77.7474 130.126C77.6469 130.607 77.1888 130.562 77.2726 130.802C77.3927 131.044 77.5533 131.263 77.7474 131.45C77.7474 131.45 76.9318 131.518 77.3396 132.333C77.7474 133.149 77.6804 132.981 77.6804 133.624C77.6752 133.994 77.7318 134.362 77.848 134.713L78.4067 135.691L78.9151 136.35C78.9151 136.35 78.4737 136.384 79.2559 136.909C80.038 137.434 79.971 136.4 80.1721 137.624C80.2923 138.195 80.3392 138.779 80.3118 139.361L80.8705 140.077C81.0147 140.489 81.0699 140.927 81.0325 141.362C80.999 142.216 81.0325 141.674 81.0325 142.73C81.0325 143.786 81.0325 144.021 81.4403 144.736C81.8482 145.451 82.77 145.792 82.9376 146.2C83.0529 146.609 83.1094 147.032 83.1052 147.457C83.1052 147.457 83.1387 147.764 83.2393 148.272C83.3398 148.781 83.1722 148.647 82.7309 148.138C82.6823 148.072 82.6176 148.02 82.5429 147.986C82.4682 147.952 82.3861 147.937 82.3043 147.944C82.2225 147.951 82.1438 147.978 82.0757 148.024C82.0076 148.07 81.9523 148.132 81.9152 148.205C81.8972 148.369 81.9187 148.535 81.978 148.688C82.0373 148.842 82.1327 148.979 82.256 149.088C82.6974 149.563 83.446 150.345 83.446 150.345C83.446 150.345 83.7197 150.138 83.9209 151.027C84.122 151.915 84.3455 151.675 84.3343 152.39C84.3231 153.105 84.055 154.021 85.2114 154.977C86.3679 155.932 85.7701 155.535 86.2338 156.608C86.5485 157.418 87.0637 158.135 87.7311 158.692C88.206 159.061 89.6362 160.569 88.7535 158.692C87.8708 156.815 87.407 156.921 87.0271 156.289C86.6472 155.658 87.0271 154.977 86.5076 153.278C85.988 151.58 85.0773 149.881 84.8762 148.686C84.6751 147.49 84.7421 146.278 83.8538 144.267C82.9655 142.255 82.4236 141.093 83.2393 141.641C84.055 142.188 85.122 141.267 85.1891 142.384C85.2561 143.501 85.3232 145.278 85.3232 145.278C85.4867 145.999 85.7381 146.697 86.0718 147.356C86.8204 149.127 87.2953 149.194 87.6361 149.535C87.9256 149.971 88.1338 150.455 88.2507 150.965C88.2507 150.965 89.7479 151.58 89.7479 152.122C89.7479 152.664 89.1334 152.395 89.7479 153.552C90.3625 154.708 89.5412 153.759 90.3625 154.708C90.8795 155.32 91.336 155.981 91.7257 156.681L93.8375 159.334C93.8671 159.814 94.0066 160.28 94.2453 160.697C94.6531 161.446 95.3627 161.385 94.899 161.949C94.4353 162.513 93.8263 162.664 94.1336 162.843C94.4408 163.022 94.5191 163.122 94.2844 163.329C94.0498 163.536 94.8431 164.374 95.1951 165.396C95.547 166.418 96.0107 166.513 96.6588 167.133C97.0952 167.494 97.4447 167.949 97.6812 168.463C98.089 169.178 97.5806 168.631 98.9047 169.111C99.714 169.417 100.455 169.88 101.084 170.474C101.391 170.681 102.017 170.815 104.212 171.938C106.408 173.061 107.006 173.614 108.089 173.977C109.173 174.34 109.313 174.793 110.129 174.592C110.944 174.391 111.352 173.927 111.866 174.184C112.38 174.441 112.073 175.05 112.782 174.642C113.492 174.234 113.598 174.301 113.805 174.776C114.011 175.251 115.336 176.123 115.336 176.123C115.336 176.123 114.313 176.581 116 177.603C117.537 178.536 119.034 179.279 119.593 179.145C119.593 179.24 119.766 179.38 120.151 179.592C121.092 180.086 121.926 180.762 122.604 181.581C122.998 182.078 123.23 182.685 123.269 183.318C123.252 183.532 123.309 183.745 123.43 183.922C123.551 184.099 123.729 184.229 123.934 184.291C124.492 184.548 125.263 184.391 125.872 184.799C126.481 185.207 125.721 185.358 126.844 185.872C127.391 186.146 127.977 186.334 128.582 186.43L129.196 186.173L130.828 186.43C130.828 186.43 131.543 186.838 131.593 187.145C131.643 187.453 131.236 187.704 131.85 187.961C132.009 188.039 132.184 188.08 132.361 188.08C132.539 188.08 132.714 188.039 132.873 187.961C132.873 187.961 134.454 187.704 134.146 187.145C133.839 186.587 132.716 186.687 133.532 186.173C134.347 185.659 134.705 185.458 135.063 185.257C135.42 185.056 135.571 184.9 136.18 185.514C136.789 186.129 137.152 185.414 136.794 186.129C136.437 186.844 136.415 187.045 136.934 187.101C137.254 187.136 137.558 187.26 137.811 187.458C137.811 187.458 138.476 187.738 138.476 188.084C138.476 188.43 137.968 188.33 138.018 188.788C138.068 189.246 137.303 189.095 137.66 189.553C138.018 190.011 137.353 190.218 137.61 190.727C137.867 191.235 137.102 191.285 137.66 192C138.219 192.715 137.867 193.33 136.845 193.632C135.822 193.933 136.23 193.123 135.672 194.19C135.113 195.257 135.264 195.308 134.789 195.447C134.155 195.682 133.54 195.966 132.951 196.297C132.135 196.704 132.236 195.889 131.833 197.079C131.431 198.269 131.833 198.269 131.018 198.95C130.79 199.117 130.608 199.339 130.489 199.595C130.37 199.851 130.317 200.132 130.336 200.414C130.336 200.414 133.431 200.04 132.208 200.822C131.608 201.133 131.076 201.56 130.643 202.079C130.44 202.303 130.253 202.542 130.085 202.794L129.526 203.783L129.392 204.939C129.392 204.939 129.666 204.699 130.582 205.314C131.498 205.928 131.699 205.962 131.839 206.163C132.285 206.986 132.85 207.739 133.515 208.398C134.101 209.022 134.732 209.603 135.403 210.135C135.861 210.493 136.32 210.342 136.269 210.951C136.219 211.56 136.169 211.308 137.342 211.666C138.515 212.023 139.281 212.381 140.096 212.381C140.912 212.381 142.8 212.688 143.365 212.688C143.929 212.688 144.281 212.638 143.923 213.046C143.566 213.454 142.901 214.985 142.035 215.839C141.169 216.694 140.918 217.219 139.688 217.627C138.459 218.035 137.75 218.392 136.984 218.649C136.219 218.906 135.711 220.018 135.711 220.024C146.6 217.996 156.88 213.501 165.763 206.885C174.646 200.269 181.897 191.707 186.958 181.855L185.472 182.05L183.321 183.682ZM147.203 106.919C147.46 106.785 147.8 107.086 148.052 107.293C148.195 107.442 148.386 107.534 148.592 107.552C148.797 107.571 149.002 107.514 149.169 107.394C149.694 107.086 150.002 107.276 150.516 107.494C151.03 107.712 150.449 107.952 149.784 108.209C149.119 108.466 149.666 108.45 149.069 108.45C148.471 108.45 148.884 108.774 148.694 109.008C148.504 109.243 148.03 108.483 147.331 107.919C146.633 107.355 146.655 107.187 147.203 106.919ZM121.615 118.456C123.604 117.791 123.146 117.31 124.319 118.215C125.492 119.12 126.057 118.567 126.207 119.484C126.358 120.4 127.688 121.16 127.688 121.16L129.526 121.506L132.28 122.065C132.28 122.065 133.113 122.355 133.303 122.998C133.493 123.64 134.068 123.908 132.945 123.897C132.094 123.85 131.253 123.692 130.442 123.428C130.442 123.428 130.157 123.685 130.196 124.808C130.236 125.931 130.755 125.724 129.984 126.389C129.213 127.054 127.431 127.612 128.811 127.562C130.191 127.512 131.264 126.797 131.872 127.205C132.481 127.612 132.889 126.696 133.504 126.646C134.118 126.596 133.403 126.182 134.169 125.623C134.934 125.065 135.012 124.657 136.146 124.757C137.281 124.858 137.079 124.501 138.146 124.501C139.214 124.501 140.085 125.411 138.655 125.618C137.225 125.825 137.024 125.568 135.901 126.031C134.778 126.495 134.783 125.774 134.521 126.797C134.258 127.819 135.236 127.663 133.856 128.177C132.476 128.691 133.241 128.305 131.66 128.545C130.079 128.786 130.437 128.892 129.157 128.786C127.878 128.679 126.811 128.685 127.42 127.713C128.029 126.741 129.615 127.098 129.258 125.975C128.9 124.852 128.392 125.003 127.677 125.26C126.962 125.517 128.006 124.311 128.023 123.892C128.04 123.473 127.627 122.947 126.861 122.774C126.096 122.601 126.096 121.919 125.431 122.964C124.766 124.009 124.766 123.26 124.515 123.864C124.263 124.467 124.107 123.797 124.107 125.584C124.107 127.372 124.464 128.473 122.934 128.791C121.403 129.11 121.258 126.601 121.911 125.584C122.565 124.568 123.185 123.819 122.369 123.864C121.554 123.908 122.42 122.411 123.341 122.238C124.263 122.065 124.671 122.148 125.436 122.031C126.202 121.914 126.816 122.031 126.917 121.813C127.018 121.595 126.101 120.539 125.179 120.696C124.258 120.852 124.973 120.947 123.8 121.087C122.626 121.227 121.503 121.026 121.811 120.696C122.118 120.366 122.369 120.366 121.542 120.059C120.716 119.752 121.615 118.456 121.615 118.456ZM114.453 110.634C115.011 110.545 114.52 110.176 114.62 109.6C114.721 109.025 115.268 109.293 116.458 109.327C116.458 109.327 116.665 109.735 116.118 109.885C115.57 110.036 115.844 110.126 115.71 110.444C115.569 110.777 115.512 111.14 115.542 111.5C115.482 111.751 115.484 112.013 115.55 112.262C115.615 112.512 115.741 112.741 115.917 112.93C116.358 113.489 116.157 113.489 116.324 114.651C116.492 115.813 115.816 115.243 115.101 115.411C114.386 115.578 115.101 115.411 115.062 114.852C115.023 114.293 115.268 113.897 114.861 113.103C114.453 112.31 114.213 112.813 114.146 112.232C114.078 111.651 114.352 111.673 113.861 111.176C113.369 110.679 113.872 110.695 114.447 110.606L114.453 110.634ZM112.648 110.634C112.648 110.634 113.207 111.483 112.816 111.835C112.425 112.187 112.509 112.539 113.056 112.813C113.604 113.087 113.704 112.981 113.497 113.494C113.291 114.008 113.665 114.176 113.838 115.059C114.011 115.942 113.056 115.433 113.056 114.634C113.056 113.835 112.749 114.036 112.24 113.629C111.732 113.221 111.766 113.014 111.877 112.606C111.989 112.198 112.073 111.992 111.391 111.316C110.71 110.64 111.285 110.539 112.648 110.628V110.634ZM110.263 104.824C110.341 103.88 110.134 104.064 111.084 104.209C111.419 104.259 111.721 104.516 111.414 105.461C111.106 106.405 110.955 105.818 110.112 106.304C109.268 106.79 110.207 105.768 110.263 104.824ZM92.4966 127.791C92.0609 128.786 92.0106 128.249 91.0161 128.35C90.0217 128.45 91.0161 127.841 91.0161 126.489C91.0161 125.137 90.8876 125.579 92.2899 125.517C92.8765 125.473 92.9436 126.797 92.4966 127.791ZM99.4131 93.6222C99.4131 93.6222 99.8209 93.4937 100.866 93.2646C101.91 93.0356 101.044 93.1138 100.424 92.8289C99.8042 92.5439 99.9494 92.7507 98.6198 92.5719C97.2901 92.3931 99.5919 92.3428 100.916 92.2925C102.24 92.2423 101.279 92.2367 102.626 92.4434C103.156 92.5272 102.575 93.0021 103.313 93.2367C104.05 93.4714 103.313 93.4155 103.313 93.8233C103.313 94.2312 103.033 94.3094 102.396 93.9015C101.76 93.4937 101.888 93.9015 101.681 94.0803C101.475 94.2591 100.637 94.896 100.637 94.896C100.071 94.7004 99.5254 94.4536 99.0053 94.1585C98.3404 93.7507 99.4131 93.6222 99.4131 93.6222ZM106.402 97.6894C106.017 97.6894 105.816 97.9967 105.33 98.5051C105.172 98.6985 104.966 98.8473 104.732 98.9365C104.499 99.0257 104.247 99.0522 104 99.0135C103.441 99.0135 103.335 99.114 102.033 99.4716C100.732 99.8292 101.139 99.6224 100.452 99.1643C99.7651 98.7062 99.6366 98.6783 99.5584 98.4492C99.4801 98.2201 100.603 98.4995 100.961 98.2704C101.263 98.0393 101.537 97.773 101.776 97.4771C101.776 97.4771 101.525 96.7117 102.234 96.505C102.558 96.41 102.464 96.8346 102.693 97.371C102.922 97.9073 103.151 98.1643 103.994 98.0749C104.838 97.9855 104.966 97.5497 106.14 97.4212C107.313 97.2927 106.788 97.6894 106.402 97.6894ZM119.855 178.978C120.263 178.637 120.799 178.268 120.85 178.681C120.878 178.922 120.235 178.91 119.855 178.978Z" fill="#20B58D"/>
<path d="M156.069 147.141C153.209 131.571 142.102 138.565 142.102 138.565C126.543 123.9 123.861 142.856 123.861 142.856C116.71 140.174 114.744 147.147 114.744 147.147C104.872 144.756 101.821 149.94 101 154.655H166.991C165.165 143.348 156.069 147.141 156.069 147.141Z" fill="white"/>
<path d="M66.9165 131.396C65.1175 121.608 58.1508 126.005 58.1508 126.005C48.3739 116.786 46.6867 128.703 46.6867 128.703C42.2172 127.027 40.9546 131.401 40.9546 131.401C34.7476 129.899 32.8314 133.145 32.3174 136.122H73.7939C72.6374 129.016 66.9165 131.396 66.9165 131.396Z" fill="white"/>
<path d="M91.2084 89.6065C88.9178 77.1479 80.0348 82.7459 80.0348 82.7459C67.5874 71.0136 65.4365 86.1818 65.4365 86.1818C59.71 84.0364 58.1345 89.6177 58.1345 89.6177C50.2347 87.707 47.7933 91.8524 47.1396 95.6291H99.9406C98.4713 86.5505 91.2084 89.6065 91.2084 89.6065Z" fill="white"/>
<path opacity="0.5" d="M97.6652 125.211C107.701 112.343 110.624 97.8451 104.193 92.83C97.7626 87.8149 84.4139 94.1813 74.3779 107.05C64.342 119.918 61.4193 134.416 67.8499 139.431C74.2806 144.446 87.6293 138.08 97.6652 125.211Z" fill="white"/>
</g>
</svg>
