<?xml version="1.0" encoding="UTF-8" standalone="no"?><!DOCTYPE svg PUBLIC "-//W3C//DTD SVG 1.1//EN" "http://www.w3.org/Graphics/SVG/1.1/DTD/svg11.dtd"><svg width="100%" height="100%" viewBox="0 0 286 240" version="1.1" xmlns="http://www.w3.org/2000/svg" xmlns:xlink="http://www.w3.org/1999/xlink" xml:space="preserve" xmlns:serif="http://www.serif.com/" style="fill-rule:evenodd;clip-rule:evenodd;stroke-linejoin:round;stroke-miterlimit:2;"><g id="sprout"><path id="stalk" d="M149.642,213.832c0,0 5.567,0.991 6.442,-0.086c0.875,-1.077 -1.192,-6.376 -1.192,-6.376c0,0 -0.594,-0.557 -1.587,-1.621c-8.506,-9.103 -46.326,-55.308 7.645,-107.011c3.06,-2.931 5.304,-5.19 6.92,-6.919c1.818,-1.944 10.44,-11.662 20.906,-18.106c12.293,-7.569 26.509,-11.845 26.052,-11.83c-0.457,0.016 -14.457,3.733 -26.664,10.698c-11.711,6.682 -21.641,16.609 -22.399,17.238c-5.792,4.802 -20.586,17.77 -30.687,32.802c-0.109,0.161 -1.828,-2.473 -2.956,-4.003c-0.257,-0.347 -5.357,-8.809 -6.888,-13.68c-1.805,-5.74 -2.789,-11.213 -3.943,-20.76c-1.243,-10.295 -2.209,-20.347 -2.122,-19.971c0.02,0.083 -0.056,10.033 0.95,20.11c0.972,9.737 3.014,19.583 3.74,21.278c2.238,5.221 5.271,12.078 6.506,14.133c1.424,2.367 3.148,6.03 3.034,6.302c-4.591,11.016 -7.364,19.721 -6.871,31.745c0.264,6.416 0.742,13.424 2.388,18.789c0.155,0.503 -3.516,-2.972 -6.987,-6.139c-2.219,-2.025 -14.776,-17.237 -25.864,-32.183c-11.575,-15.602 -21.649,-30.913 -21.54,-30.591c0.073,0.216 9.326,16.366 20.714,32.206c10.83,15.063 23.763,29.795 26.019,32.2c4.147,4.423 9.656,10.245 9.788,10.61c5.548,15.281 12.973,24.922 16.528,28.968c1.288,1.465 2.068,2.197 2.068,2.197Z" style="fill:#3dbcba;"/><path id="leaf-3" serif:id="leaf 3" d="M164.602,87.151c1.036,-3.46 7.787,-24.225 22.764,-32.607c16.364,-9.159 55.669,-5.894 55.669,-5.894c0,0 -8.371,29.038 -23.478,35.628c-27.525,12.006 -46.076,7.068 -52.551,4.524c2.509,-2.722 10.681,-11.606 20.464,-17.629c12.293,-7.569 26.509,-11.845 26.052,-11.83c-0.457,0.016 -14.457,3.733 -26.664,10.698c-11.219,6.401 -20.804,15.781 -22.256,17.11Z" style="fill:#3193a1;"/><path id="leaf-2" serif:id="leaf 2" d="M123.831,109.002c-0.068,0.059 -0.104,0.089 -0.104,0.089c0,0 -21.423,-16.307 -26.539,-31.973c-5.117,-15.667 22.405,-46.127 22.405,-46.127c0,0 23.083,20.042 26.077,38.554c2.585,15.98 -15.644,33.839 -20.679,38.426c-0.981,-1.968 -1.874,-3.966 -2.38,-5.573c-1.805,-5.74 -2.788,-11.213 -3.942,-20.761c-1.129,-9.344 -2.029,-18.489 -2.119,-19.816c-0.001,-0.096 -0.001,-0.149 -0.003,-0.155c-0.008,-0.034 -0.007,0.02 0.003,0.155c0.011,1.299 0.01,10.573 0.947,19.955c0.972,9.738 3.013,19.584 3.74,21.279c0.802,1.871 1.706,3.953 2.594,5.947Z" style="fill:#3193a1;"/><path id="leaf-1" serif:id="leaf 1" d="M97.486,145.382c-6.082,-1.101 -31.904,-6.284 -42.146,-16.538c-23.61,-23.637 -6.18,-65.367 -6.18,-65.367c0,0 32.898,13.525 44.996,27.853c10.878,12.883 5.829,47.054 4.797,53.293c-5.012,-6.133 -11.516,-14.387 -17.581,-22.562c-11.575,-15.602 -21.649,-30.913 -21.54,-30.59c0.073,0.215 9.326,16.365 20.714,32.205c5.683,7.905 11.945,15.718 16.94,21.706Z" style="fill:#3193a1;"/><path id="dirt" d="M107.184,230.991c0,0 -0.28,-4.83 7.753,-8.355c3.514,-1.542 2.527,-5.52 8.481,-7.973c8.312,-3.424 9.214,-1.005 13.696,-2.124c4.539,-1.134 8.77,-4.415 13.538,-4.678c4.898,-0.27 11.954,-0.656 15.85,3.055c2.035,1.939 9.281,1.857 13.729,3.666c3.349,1.362 4.386,5.771 7.018,6.545c4.563,1.341 9.888,0.425 13.375,2.069c3.27,1.542 7.544,7.795 7.544,7.795l-100.984,0Z" style="fill:#3d2d2d;"/></g></svg>