<svg width="445" height="343" viewBox="0 0 445 343" fill="none" xmlns="http://www.w3.org/2000/svg">
<path fill-rule="evenodd" clip-rule="evenodd" d="M358.24 296.036C363.783 289.85 368.989 283.291 373.99 276.527C380.973 267.084 389.236 258.351 397.41 249.711C419.641 226.215 441.222 203.405 434.672 168.843L434.672 168.859C433.946 165.914 431.201 156.421 422.077 150.218C412.463 143.683 398.468 142.644 388.281 149.772C381.14 154.771 378.44 161.988 377.51 164.993C378.277 150.35 374.553 144.421 370.928 141.735C370.557 141.461 370.232 141.155 369.886 140.831C368.473 139.504 366.718 137.857 360.129 136.68C340.549 133.18 342.943 116.682 345.749 97.3429C348.029 81.6329 350.582 64.0474 341.848 50.0303L341.857 50.0326C327.859 28.8116 311.2 16.0134 275.445 12.5606C222.567 7.45415 196.12 36.6843 167.969 77.8424C148.662 106.068 134.971 115.538 112.728 130.923C102.537 137.972 90.5514 146.263 75.4078 158.168C27.2122 196.057 32.1214 247.763 50.9913 286.199C57.7963 300.062 70.1079 306.587 84.9147 309.771C94.4194 311.818 104.964 312.485 115.736 312.831C118.99 312.936 122.265 313.011 125.54 313.087C141.344 313.452 157.128 313.817 170.418 317.463C185 321.463 193.864 325.851 201.843 329.802C211.903 334.782 220.557 339.067 237.492 340.999C241.623 341.472 246.243 341.803 251.499 341.971C253.724 342.043 256.068 342.083 258.532 342.093H258.793C262.013 342.101 265.157 342.013 268.225 341.83C308.851 339.412 336.189 320.661 358.24 296.036Z" fill="#FDE9C2"/>
<path d="M264.511 152.17C264.511 152.17 267.852 144.415 268.989 143.706C270.127 142.996 280.986 132.353 283.868 132.353C286.751 132.353 283.868 140.021 283.868 140.021L264.511 152.17Z" fill="url(#paint0_linear)"/>
<path d="M80.5621 260.075C80.5621 260.075 86.3879 246.077 87.5359 231.005C88.684 215.934 97.3479 211.252 94.9642 193.535C92.5804 175.818 105.568 169.266 96.5494 154.905C87.5305 140.544 104.171 118.435 94.4556 103.171C84.7399 87.9069 57.8391 92.4636 62.6261 111.487C67.4131 130.511 64.8572 130.54 63.8228 135.976C62.7884 141.412 70.3151 142.672 68.9972 149.105C67.6792 155.538 59.7846 161.646 67.2475 173.382C74.7104 185.118 60.0313 198.538 65.7045 214.964C71.3777 231.389 66.0464 256.027 66.0464 256.027L80.5621 260.075Z" fill="#60CA8E"/>
<path d="M75.0619 247.137C74.9908 247.138 74.9206 247.121 74.8576 247.088C74.7945 247.055 74.7405 247.007 74.7004 246.949C74.6603 246.89 74.6353 246.822 74.6276 246.752C74.6198 246.681 74.6297 246.61 74.6562 246.544C84.7517 220.702 83.8536 181.019 79.6509 152.499C74.8899 120.214 77.0421 100.706 77.0648 100.513C77.078 100.399 77.1363 100.294 77.2268 100.222C77.3173 100.15 77.4326 100.118 77.5474 100.131C77.6622 100.144 77.767 100.202 77.8389 100.292C77.9107 100.383 77.9437 100.498 77.9305 100.612C77.9077 100.805 75.7663 120.212 80.5133 152.372C83.0075 169.289 83.9651 186.769 83.2823 202.927C82.54 220.484 79.8381 235.676 75.4688 246.86C75.4371 246.942 75.3812 247.013 75.3086 247.062C75.2359 247.111 75.1499 247.138 75.0619 247.137Z" fill="white"/>
<path d="M71.101 257.434C71.101 257.434 80.8871 244.54 77.7275 228.739C74.5679 212.938 81.744 210.759 77.801 201.132C73.8581 191.504 81.1814 183.447 74.226 173.293C67.2705 163.138 66.7468 135.681 50.1449 125.515C33.543 115.349 12.1228 135.883 29.586 149.763C47.0492 163.642 48.4937 165.786 45.1729 174.803C41.8521 183.819 52.019 183.659 53.8077 193.635C55.5963 203.611 47.2017 206.47 53.1584 213.978C59.1151 221.485 60.7025 251.923 60.7025 251.923L71.101 257.434Z" fill="#138175"/>
<path d="M66.0418 256.022C66.0418 256.022 76.7249 234.853 61.6952 217.391C46.6655 199.929 54.4011 185.041 25.3383 177.862C-3.72446 170.683 -9.56645 200.789 17.1591 210.395C43.8847 220.001 43.3209 220.312 42.7929 227.268C42.2648 234.225 43.5676 234.233 50.8444 236.623C58.1212 239.012 56.0718 251.819 56.0718 251.819L66.0418 256.022Z" fill="#20B58D"/>
<path d="M62.2678 251.729C62.2406 251.729 62.2134 251.726 62.1867 251.721C62.1303 251.711 62.0766 251.69 62.0285 251.659C61.9805 251.627 61.9391 251.587 61.9068 251.54C61.8745 251.493 61.8519 251.44 61.8403 251.384C61.8287 251.328 61.8284 251.27 61.8393 251.214C61.8577 251.113 63.668 241.061 58.67 228.466C54.0551 216.84 42.5204 200.601 13.7801 189.289C13.6726 189.246 13.5866 189.163 13.5411 189.056C13.4955 188.95 13.4941 188.83 13.5372 188.723C13.5802 188.616 13.6642 188.53 13.7706 188.484C13.877 188.439 13.9972 188.437 14.1047 188.48C26.9259 193.529 37.4597 199.969 45.4127 207.621C51.7882 213.755 56.5286 220.677 59.5043 228.194C64.5769 241.009 62.719 251.272 62.7007 251.374C62.6824 251.474 62.6289 251.565 62.5496 251.631C62.4704 251.696 62.3705 251.731 62.2678 251.729Z" fill="white"/>
<path d="M71.5687 248.172C71.5503 248.173 71.5319 248.173 71.5135 248.172C71.4566 248.165 71.4016 248.147 71.3517 248.119C71.3018 248.09 71.258 248.053 71.2229 248.007C71.1878 247.962 71.162 247.91 71.1471 247.855C71.1321 247.8 71.1283 247.742 71.1359 247.686C76.306 207.038 67.3747 177.968 58.9726 160.742C49.8833 142.097 39.4545 132.95 39.3495 132.86C39.306 132.822 39.2703 132.777 39.2445 132.725C39.2188 132.674 39.2034 132.617 39.1993 132.56C39.1953 132.503 39.2026 132.445 39.2208 132.39C39.2391 132.336 39.2679 132.285 39.3057 132.242C39.3435 132.198 39.3895 132.163 39.4411 132.137C39.4927 132.111 39.5489 132.096 39.6064 132.092C39.6639 132.088 39.7217 132.095 39.7764 132.113C39.8311 132.132 39.8816 132.16 39.9252 132.198C40.0334 132.29 50.5899 141.553 59.7603 160.357C65.1413 171.391 69.0053 183.511 71.2452 196.378C74.0434 212.456 74.2987 229.751 72.0026 247.788C71.9906 247.894 71.9396 247.992 71.8594 248.063C71.7793 248.134 71.6757 248.172 71.5687 248.172Z" fill="white"/>
<path d="M274.819 184.365C274.819 184.365 280.151 182.449 281.852 177.979C282.58 176.073 287.07 154.616 284.838 149.667C281.835 143.009 271.71 152.789 271.71 152.789L268.842 175.315L274.819 184.365Z" fill="url(#paint1_linear)"/>
<path d="M336.037 117.149L319.785 183.982C319.647 184.552 319.302 185.05 318.818 185.382C318.334 185.713 317.744 185.855 317.162 185.778L275.72 180.332C275.249 180.271 274.808 180.071 274.453 179.757C274.097 179.443 273.845 179.03 273.727 178.571L271.921 173.597L274.033 171.344L275.125 171.634L289.969 110.584C290.108 110.015 290.453 109.517 290.938 109.186C291.422 108.855 292.012 108.714 292.594 108.791L331.484 113.9L332.397 111.277L334.044 110.509L335.938 115.732L335.975 115.84C336.12 116.262 336.141 116.716 336.037 117.149Z" fill="#3F1D34"/>
<path d="M315.222 180.425L273.786 174.981C273.455 174.937 273.136 174.825 272.851 174.65C272.567 174.476 272.322 174.244 272.133 173.969C271.944 173.694 271.815 173.382 271.755 173.054C271.695 172.726 271.704 172.389 271.783 172.065L288.04 105.233C288.178 104.664 288.523 104.165 289.007 103.834C289.492 103.503 290.081 103.362 290.664 103.438L332.1 108.883C332.431 108.926 332.749 109.039 333.034 109.213C333.319 109.388 333.564 109.62 333.753 109.895C333.941 110.17 334.07 110.482 334.131 110.81C334.191 111.138 334.181 111.475 334.103 111.799L317.85 178.63C317.711 179.201 317.366 179.7 316.881 180.031C316.396 180.363 315.805 180.503 315.222 180.425Z" fill="url(#paint2_linear)"/>
<path d="M313.9 172.193L278.765 167.577C278.485 167.54 278.215 167.445 277.973 167.297C277.732 167.149 277.524 166.952 277.364 166.719C277.204 166.486 277.095 166.221 277.044 165.943C276.993 165.665 277.001 165.38 277.068 165.105L290.852 108.438C290.969 107.956 291.262 107.533 291.672 107.252C292.083 106.971 292.583 106.852 293.077 106.917L328.211 111.533C328.492 111.57 328.762 111.665 329.003 111.813C329.244 111.961 329.452 112.158 329.612 112.391C329.772 112.624 329.881 112.888 329.932 113.166C329.983 113.445 329.975 113.73 329.909 114.005L316.124 170.67C316.007 171.153 315.715 171.576 315.304 171.857C314.894 172.138 314.393 172.258 313.9 172.193Z" fill="white"/>
<path d="M295.984 174.215C296.377 172.922 295.759 171.591 294.604 171.242C293.45 170.892 292.195 171.657 291.803 172.949C291.41 174.241 292.028 175.572 293.183 175.922C294.337 176.271 295.592 175.507 295.984 174.215Z" fill="white"/>
<path d="M358.239 296.048C342.69 313.413 324.51 327.858 300.891 335.713C291.02 338.996 280.196 341.129 268.221 341.842C265.153 342.026 262.009 342.113 258.789 342.105L260.11 290.912C260.11 290.912 261.272 290.696 263.333 290.343C273.352 288.609 304.614 283.474 326.642 282.807C335.214 282.547 342.387 282.966 346.368 284.523C353.009 287.122 356.47 291.622 358.239 296.048Z" fill="#65A4C5"/>
<path d="M291.24 306.767C278.931 323.574 292.883 332.318 300.895 335.713C291.024 338.996 280.2 341.129 268.225 341.842C265.157 342.025 262.013 342.113 258.793 342.105L260.114 290.911C260.114 290.911 261.276 290.695 263.337 290.342C273.356 288.609 304.618 283.473 326.646 282.807V283.81C326.646 283.81 307.824 284.122 291.24 306.767Z" fill="#2E6187"/>
<path d="M391.904 199.268C389.21 201.295 386.602 202.638 384.136 203.468C371.564 207.702 362.474 198.63 362.474 198.63C355.225 181.193 357.996 162.125 357.996 162.125C357.996 162.125 365.388 161.71 378.286 161.892C383.889 161.972 390.531 162.163 398.055 162.549C399.866 181.809 391.904 199.268 391.904 199.268Z" fill="url(#paint3_linear)"/>
<path d="M384.136 203.464C371.564 207.699 362.474 198.626 362.474 198.626C355.225 181.189 357.996 162.121 357.996 162.121C357.996 162.121 365.388 161.706 378.286 161.888L381.252 170.463C381.252 170.463 369.085 172.338 369.193 184.15C369.301 195.961 372.956 206.388 384.136 203.464Z" fill="#D33C32"/>
<path d="M348.503 191.818C348.503 191.818 346.264 174.149 361.939 175.213C361.939 175.213 362.206 171.275 358.152 170.583C352.393 170.423 347.939 171.426 345.074 176.859C342.21 182.292 343.809 191.818 343.809 191.818H348.503Z" fill="#E95A55"/>
<path d="M364.501 207.994C358.104 214.807 351.278 214.913 348.078 220.767C344.879 226.62 322.949 278.102 312.57 294.853C302.191 311.604 298.92 314.294 288.684 314.436C285.329 314.484 281.975 313.477 278.798 311.839C272.272 308.462 266.486 302.413 262.948 297.26C257.688 289.592 249.818 270.309 249.818 270.309C249.818 270.309 261.172 253.267 285.377 256.106C285.377 256.106 288.469 265.471 289.216 266.109C289.963 266.747 304.18 243.047 316.123 227.011C328.067 210.976 330.413 207.284 330.911 201.893C331.408 196.501 331.194 191.179 334.038 187.347C336.881 183.515 339.871 173.934 339.871 170.954C339.871 170.954 345.914 171.451 344.989 177.908C344.064 184.366 341.792 188.836 342.573 189.402C343.354 189.968 358 180.427 362.375 180.64C366.749 180.853 366.96 188.516 364.72 191.178C362.481 193.84 365.887 203.524 364.501 207.994Z" fill="#FFAD91"/>
<path d="M278.798 311.832C272.272 308.46 266.486 302.412 262.948 297.259C257.688 289.591 249.818 270.308 249.818 270.308C249.818 270.308 261.172 253.266 285.377 256.104C285.377 256.104 288.469 265.469 289.216 266.107C272.784 285.846 275.914 303.656 278.798 311.832Z" fill="#C95D55"/>
<path d="M239.33 190.4C239.33 190.4 252.639 176.913 256.157 171.06C259.675 165.206 263.84 150.943 267.354 147.856C270.868 144.769 281.853 139.553 281.853 139.553C281.853 139.553 288.252 143.988 278.227 150.73C273.098 154.18 273.034 154.633 272.895 155.556C272.757 156.478 275.526 159.938 275.241 166.262C274.956 172.586 272.682 175.53 272.682 175.53C272.682 175.53 276.521 182.023 274.815 184.365C273.108 186.706 270.656 187.984 268.843 194.37C267.029 200.756 264.47 207.355 264.47 207.355L239.33 190.4Z" fill="#FFAD91"/>
<path d="M222.708 77.8545C222.708 77.8545 222.611 82.908 222.434 90.29C222.141 102.733 221.628 121.779 221.004 134.338C220.554 143.411 216.971 147.993 213.191 150.29C208.64 153.054 203.803 152.503 203.803 152.503C203.803 152.503 201.651 158.214 202.335 166.252C202.335 166.275 202.335 166.294 202.335 166.317C202.631 169.752 203.411 173.128 204.652 176.345C186.887 173.308 176.01 171.294 169.354 169.973C159.233 167.961 158.869 167.546 158.869 167.546C158.869 167.546 161.609 152.511 160.238 140.5C160.077 139.104 159.862 137.75 159.581 136.467C162.915 126.011 171.308 113.008 176.486 105.562C179.042 101.89 180.814 99.5686 180.814 99.5686L222.708 77.8545Z" fill="#FFAD91"/>
<path d="M158.868 167.547C158.868 167.547 161.608 152.512 160.237 140.501L166.263 138.385L189.296 142.58C176.542 147.098 165.776 155.932 158.867 167.547H158.868Z" fill="#C95D55"/>
<path d="M215.372 95.301C217.397 98.2808 213.503 100.171 208.067 103.79C202.631 107.409 202.735 114.75 202.735 114.75L201.515 120.341C201.515 120.341 193.036 107.586 188.124 115.817C183.827 123.025 190.791 129.477 190.791 129.477L179.487 128.59L174.794 119.86L176.481 105.56C179.037 101.888 180.809 99.5672 180.809 99.5672L222.703 77.8584C222.703 77.8584 222.605 82.9119 222.429 90.294C219.32 91.2034 213.908 93.1474 215.372 95.301Z" fill="#C95D55"/>
<path d="M250.245 258.979C249.55 272.681 249.411 285.965 250.932 296.123C253.995 316.582 252.82 332.736 251.502 341.981C246.246 341.813 241.626 341.482 237.496 341.009C207.128 337.545 203.387 326.515 170.422 317.473C154.378 313.072 134.699 313.452 115.739 312.841C115.343 298.171 114.169 268.192 110.812 238.642C110.529 236.156 110.26 233.76 110.006 231.455C109.098 223.202 108.399 216.062 108.086 209.845C107.033 188.916 110.358 178.468 124.889 171.372C144.936 161.579 180.816 168.853 180.816 168.853C212.749 174.566 243.456 184.353 250.933 191.168C251.25 191.471 251.513 191.825 251.712 192.216C253.71 195.961 253.66 205.84 252.933 218.467C252.602 224.233 252.13 230.576 251.652 237.166C251.142 244.29 250.614 251.693 250.245 258.979Z" fill="#FFAB2F"/>
<path d="M252.935 218.479C245.048 228.638 234.973 241.202 234.973 241.202H211.478C211.478 241.202 216.864 229.675 224.754 208.813C232.572 188.143 250.561 191.101 250.927 191.174C250.951 191.209 251.237 191.594 251.706 192.222C253.712 195.973 253.657 205.857 252.935 218.479Z" fill="#F88F00"/>
<path d="M250.933 191.177C250.933 191.177 264.512 192.525 275.317 220.908C286.122 249.292 287.402 256.956 287.402 256.956C287.402 256.956 272.968 278.82 249.759 273.99C229.819 236.519 216.382 197.989 250.933 191.177Z" fill="#FFAB2F"/>
<path d="M378.028 170.566C389.091 170.566 398.06 167.051 398.06 162.715C398.06 158.379 389.091 154.864 378.028 154.864C366.965 154.864 357.996 158.379 357.996 162.715C357.996 167.051 366.965 170.566 378.028 170.566Z" fill="#E95A55"/>
<path d="M394.484 162.713C394.484 163.803 393.795 164.831 392.575 165.731C389.814 167.772 384.334 169.163 378.027 169.163C371.72 169.163 366.24 167.772 363.479 165.731C362.26 164.832 361.57 163.804 361.57 162.713C361.57 159.149 368.938 156.266 378.027 156.266C387.116 156.266 394.484 159.153 394.484 162.713Z" fill="black"/>
<path d="M394.484 162.713C394.484 163.803 393.795 164.831 392.575 165.731C389.814 163.69 384.334 162.299 378.027 162.299C371.72 162.299 366.24 163.69 363.479 165.731C362.26 164.832 361.57 163.804 361.57 162.713C361.57 159.149 368.938 156.266 378.027 156.266C387.116 156.266 394.484 159.153 394.484 162.713Z" fill="#D33C32"/>
<path d="M268.225 341.842C265.157 342.026 262.013 342.113 258.793 342.106H258.532C256.069 342.095 253.724 342.055 251.499 341.983C246.243 341.815 241.623 341.484 237.493 341.011C207.125 337.547 203.384 326.517 170.418 317.475C154.375 313.074 134.696 313.454 115.736 312.843C104.964 312.497 94.4196 311.83 84.9149 309.783L81.8851 283.258L77.2669 237.708C70.4716 239.585 60.1857 240.613 46.0303 237.352C46.0287 235.776 46.1627 234.202 46.4306 232.649C49.7774 213.455 73.2731 208.616 84.3803 207.396C87.8959 207.012 90.1704 206.989 90.1704 206.989L108.086 209.854L238.138 230.621C243.787 231.523 248.979 234.264 252.906 238.418C256.832 242.571 259.273 247.904 259.847 253.587L263.335 290.344L268.225 341.842Z" fill="url(#paint4_linear)"/>
<path d="M259.846 253.585L230.329 270.174H217.768L208.616 247.21L238.133 230.619L244.615 232.544C248.785 234.403 252.389 237.327 255.063 241.022C257.737 244.716 259.387 249.05 259.846 253.585Z" fill="url(#paint5_linear)"/>
<path d="M237.496 341.014C207.128 337.549 203.387 326.52 170.422 317.478C154.378 313.077 134.699 313.457 115.739 312.846C104.967 312.5 94.4227 311.833 84.918 309.786C70.1145 306.602 57.7996 300.077 50.9935 286.214L46.8742 245.594C46.8737 245.591 46.8737 245.589 46.8742 245.586L46.041 237.355C45.8771 235.776 46.0129 234.18 46.4413 232.652C48.1164 226.698 54.073 222.528 60.6638 223.579L110.005 231.464L208.617 247.211C214.266 248.113 219.459 250.854 223.385 255.008C227.311 259.162 229.752 264.495 230.326 270.177L235.919 325.466L237.496 341.014Z" fill="url(#paint6_linear)"/>
<path d="M237.497 341.012C207.129 337.547 203.388 326.518 170.422 317.476C154.379 313.075 134.7 313.455 115.74 312.844C104.968 312.498 94.4235 311.831 84.9188 309.784C70.1153 306.6 57.8005 300.075 50.9944 286.212L46.875 245.592C47.0341 246.374 58.4378 310.417 107.903 299.85C157.729 289.208 174.08 295.272 198.747 319.115C215.637 335.435 237.497 341.012 237.497 341.012Z" fill="#6A4036"/>
<path d="M221.925 81.5455C216.7 83.7812 209.664 87.6131 209.557 92.9356C209.449 98.258 205.396 99.3208 203.513 105.068C201.63 110.815 203.513 122.987 203.513 122.987C203.513 122.987 200.386 120.286 198.468 112.519C196.549 104.751 186.097 105.92 185.457 117.734C184.818 129.549 194.521 130.935 194.521 130.935C196.122 136.788 193.028 142.96 193.028 142.96C193.028 142.96 175.432 146.26 165.623 143.705C155.814 141.15 161.037 137.213 154.106 137.106C147.174 136.999 146.531 131.997 147.494 125.719C143.655 123.164 145.574 118.591 145.574 118.591C138.432 113.375 143.23 106.99 143.23 106.99C133.844 104.01 139.498 97.4112 139.602 93.7899C139.706 90.1685 132.569 89.7462 134.805 82.0823C137.042 74.4183 147.067 75.062 147.067 75.062C140.142 64.2044 150.695 55.9011 159.331 56.6463C167.967 57.3915 171.168 58.2437 180.339 50.368C189.51 42.4924 203.265 50.044 205.718 53.242C208.171 56.44 216.169 51.8585 222.141 56.3288C228.113 60.799 223.634 71.6545 223.634 71.6545C229.923 73.9852 227.152 79.3109 221.925 81.5455Z" fill="#2B5250"/>
<path d="M418.007 143.361C418.007 143.361 449.145 151.03 442.32 192.748C442.32 192.748 456.822 149.322 418.007 143.361Z" fill="#FDE9C2"/>
<path d="M359.973 100.059C359.973 100.059 371.467 -0.574697 273.411 0.75807C273.411 0.75807 376.386 -15.2686 359.973 100.059Z" fill="#FDE9C2"/>
<path d="M300.423 151.386C297.876 150.705 295.544 149.387 293.643 147.552C291.743 145.718 290.335 143.427 289.552 140.893C288.768 138.359 288.634 135.664 289.161 133.058C289.689 130.453 290.861 128.021 292.57 125.988C294.278 123.956 296.466 122.39 298.932 121.435C301.397 120.479 304.06 120.167 306.672 120.525C309.284 120.884 311.761 121.902 313.873 123.485C315.985 125.068 317.663 127.165 318.751 129.581C319.096 130.343 319.125 131.212 318.833 131.999C318.541 132.785 317.951 133.423 317.193 133.773C316.435 134.123 315.572 134.157 314.793 133.866C314.014 133.575 313.382 132.983 313.038 132.221C312.238 130.445 310.91 128.964 309.237 127.984C307.564 127.003 305.628 126.571 303.695 126.746C301.763 126.921 299.93 127.696 298.448 128.963C296.966 130.229 295.909 131.926 295.422 133.819C294.935 135.713 295.043 137.709 295.729 139.533C296.416 141.357 297.648 142.919 299.256 144.005C300.864 145.09 302.769 145.645 304.708 145.593C306.647 145.54 308.524 144.884 310.082 143.713C310.413 143.465 310.79 143.285 311.19 143.183C311.589 143.08 312.005 143.059 312.413 143.118C312.82 143.178 313.212 143.318 313.565 143.53C313.918 143.743 314.226 144.023 314.471 144.356C314.716 144.688 314.894 145.067 314.993 145.469C315.093 145.871 315.113 146.29 315.052 146.701C314.991 147.112 314.851 147.507 314.638 147.863C314.426 148.22 314.146 148.532 313.815 148.78C311.921 150.208 309.731 151.185 307.411 151.636C305.091 152.088 302.701 152.002 300.423 151.386Z" fill="#479E98"/>
<path d="M318.931 129.573C317.97 127.473 316.555 125.611 314.789 124.12C313.022 122.628 310.947 121.544 308.713 120.946C306.479 120.347 304.14 120.248 301.865 120.657C299.589 121.065 297.433 121.971 295.551 123.308C294.872 123.79 294.413 124.521 294.275 125.341C294.137 126.162 294.331 127.003 294.815 127.681C295.299 128.36 296.034 128.818 296.856 128.957C297.679 129.096 298.522 128.903 299.202 128.422C300.583 127.438 302.206 126.848 303.899 126.713L301.626 135.194C301.411 135.997 301.525 136.853 301.942 137.574C302.36 138.294 303.047 138.82 303.853 139.036C304.658 139.252 305.517 139.14 306.239 138.725C306.961 138.309 307.487 137.625 307.702 136.822L309.974 128.341C311.378 129.303 312.493 130.628 313.2 132.173C313.548 132.929 314.182 133.518 314.964 133.809C315.745 134.1 316.611 134.07 317.369 133.725C318.127 133.379 318.717 132.748 319.007 131.968C319.298 131.189 319.266 130.326 318.919 129.569L318.931 129.573Z" fill="#97DDD3"/>
<path d="M314.81 141.972C316.651 142.465 318.486 141.586 318.908 140.008C319.331 138.43 318.182 136.752 316.341 136.258C314.5 135.765 312.665 136.644 312.242 138.222C311.82 139.8 312.969 141.479 314.81 141.972Z" fill="#FF8A15"/>
<defs>
<linearGradient id="paint0_linear" x1="269.93" y1="137.603" x2="280.695" y2="148.753" gradientUnits="userSpaceOnUse">
<stop stop-color="#FCC3BB"/>
<stop offset="1" stop-color="#E27769"/>
</linearGradient>
<linearGradient id="paint1_linear" x1="44581.4" y1="55187" x2="42204" y2="55691.8" gradientUnits="userSpaceOnUse">
<stop stop-color="#FCC3BB"/>
<stop offset="1" stop-color="#E27769"/>
</linearGradient>
<linearGradient id="paint2_linear" x1="291.055" y1="116.747" x2="318.696" y2="175.539" gradientUnits="userSpaceOnUse">
<stop stop-color="#99587D"/>
<stop offset="1" stop-color="#5B2C47"/>
</linearGradient>
<linearGradient id="paint3_linear" x1="382.801" y1="159.17" x2="368.606" y2="198.531" gradientUnits="userSpaceOnUse">
<stop stop-color="#F18182"/>
<stop offset="1" stop-color="#E23126"/>
</linearGradient>
<linearGradient id="paint4_linear" x1="252879" y1="386458" x2="370132" y2="241844" gradientUnits="userSpaceOnUse">
<stop stop-color="#997F58"/>
<stop offset="1" stop-color="#5B2C2C"/>
</linearGradient>
<linearGradient id="paint5_linear" x1="98981" y1="91934.9" x2="123234" y2="91934.9" gradientUnits="userSpaceOnUse">
<stop stop-color="#8C5C51"/>
<stop offset="1" stop-color="#996F58"/>
</linearGradient>
<linearGradient id="paint6_linear" x1="281348" y1="248178" x2="263801" y2="347954" gradientUnits="userSpaceOnUse">
<stop stop-color="#996F58"/>
<stop offset="1" stop-color="#5B432C"/>
</linearGradient>
</defs>
</svg>
