<svg width="135" height="156" viewBox="0 0 135 156" fill="none" xmlns="http://www.w3.org/2000/svg">
<mask id="mask0" mask-type="alpha" maskUnits="userSpaceOnUse" x="0" y="0" width="135" height="156">
<rect width="135" height="156" fill="#C4C4C4"/>
</mask>
<g mask="url(#mask0)">
<path fill-rule="evenodd" clip-rule="evenodd" d="M189.329 28.8842C200.28 41.5055 189.223 69.0279 164.634 90.3562C140.044 111.684 111.231 118.742 100.279 106.123C98.7373 104.344 97.5408 102.482 95.8211 100.5C84.8692 87.8785 95.9262 60.356 120.516 39.0278C145.106 17.6995 173.918 10.6418 184.87 23.2606C185.174 23.6093 185.46 23.9705 185.729 24.3442L189.329 28.8842Z" fill="#61C1B8"/>
<path d="M52.5937 151.079C64.594 151.079 74.3221 141.353 74.3221 129.356C74.3221 117.358 64.594 107.632 52.5937 107.632C40.5934 107.632 30.8652 117.358 30.8652 129.356C30.8652 141.353 40.5934 151.079 52.5937 151.079Z" fill="#61C1B8"/>
<path fill-rule="evenodd" clip-rule="evenodd" d="M50.8266 149.17C55.1241 149.17 59.3251 147.896 62.8984 145.509C66.4716 143.122 69.2566 139.729 70.9012 135.76C72.5458 131.79 72.9761 127.422 72.1377 123.208C71.2993 118.994 69.2298 115.124 66.191 112.085C63.1522 109.047 59.2806 106.978 55.0657 106.14C50.8507 105.302 46.4819 105.732 42.5115 107.376C38.5411 109.021 35.1476 111.805 32.7601 115.377C30.3725 118.95 29.0981 123.15 29.0981 127.446C29.1114 133.204 31.4049 138.722 35.4769 142.793C39.5489 146.864 45.0679 149.157 50.8266 149.17Z" fill="url(#paint0_linear)"/>
<path fill-rule="evenodd" clip-rule="evenodd" d="M50.8264 105.726C56.3065 105.721 61.5846 107.794 65.5958 111.527L50.8264 127.449L48.3882 105.863C49.1977 105.772 50.0117 105.726 50.8264 105.726Z" fill="#1EABC1"/>
<path fill-rule="evenodd" clip-rule="evenodd" d="M50.8264 105.726C51.6401 105.725 52.4533 105.771 53.2621 105.861L50.8264 127.449L48.3882 105.863C49.1977 105.772 50.0117 105.726 50.8264 105.726Z" fill="#61C1B8"/>
<path opacity="0.5" d="M63.6167 87.9012C68.5164 87.9012 72.4883 83.9302 72.4883 79.0317C72.4883 74.1331 68.5164 70.1621 63.6167 70.1621C58.7171 70.1621 54.7451 74.1331 54.7451 79.0317C54.7451 83.9302 58.7171 87.9012 63.6167 87.9012Z" fill="#FF9E02"/>
<path opacity="0.5" d="M10.326 50.3331C16.0289 50.3331 20.6521 45.711 20.6521 40.0093C20.6521 34.3077 16.0289 29.6855 10.326 29.6855C4.62312 29.6855 0 34.3077 0 40.0093C0 45.711 4.62312 50.3331 10.326 50.3331Z" fill="#61C1B8"/>
<path opacity="0.5" d="M80.6743 18.8101H75.2096C73.7884 18.8101 72.6362 19.962 72.6362 21.3829V26.8463C72.6362 28.2672 73.7884 29.4191 75.2096 29.4191H80.6743C82.0955 29.4191 83.2476 28.2672 83.2476 26.8463V21.3829C83.2476 19.962 82.0955 18.8101 80.6743 18.8101Z" fill="#138175"/>
<path opacity="0.5" d="M19.6002 93.5156H17.112C16.4649 93.5156 15.9404 94.04 15.9404 94.6869V97.1746C15.9404 97.8215 16.4649 98.3459 17.112 98.3459H19.6002C20.2472 98.3459 20.7717 97.8215 20.7717 97.1746V94.6869C20.7717 94.04 20.2472 93.5156 19.6002 93.5156Z" fill="#450059"/>
<path opacity="0.5" d="M101.836 124.198H93.8054C92.7754 124.198 91.9404 125.033 91.9404 126.062V134.091C91.9404 135.121 92.7754 135.955 93.8054 135.955H101.836C102.866 135.955 103.701 135.121 103.701 134.091V126.062C103.701 125.033 102.866 124.198 101.836 124.198Z" fill="#138175"/>
<path opacity="0.8" fill-rule="evenodd" clip-rule="evenodd" d="M58.3723 51.1912L54.5623 48.2329L57.5212 44.4238C57.6465 44.2624 57.7027 44.058 57.6774 43.8552C57.652 43.6525 57.5472 43.4681 57.386 43.3426L57.1357 43.1524C56.9743 43.0271 56.7697 42.9708 56.567 42.9962C56.3642 43.0215 56.1798 43.1264 56.0542 43.2876L53.0954 47.0967L49.2854 44.1385C49.124 44.0131 48.9195 43.957 48.7167 43.9823C48.5139 44.0077 48.3295 44.1124 48.204 44.2736L48.0137 44.5239C47.8884 44.6853 47.8322 44.8897 47.8575 45.0925C47.8829 45.2952 47.9877 45.4796 48.1489 45.6051L51.9589 48.5633L49 52.3725C48.8747 52.5338 48.8184 52.7383 48.8438 52.941C48.8691 53.1438 48.9739 53.3282 49.1352 53.4537L49.3855 53.6439C49.5469 53.7693 49.7514 53.8254 49.9542 53.8001C50.157 53.7747 50.3414 53.67 50.4669 53.5087L53.4258 49.6996L57.2358 52.6578C57.3971 52.7832 57.6017 52.8394 57.8045 52.814C58.0073 52.7887 58.1917 52.6839 58.3172 52.5227L58.5075 52.2724C58.6328 52.1111 58.689 51.9066 58.6637 51.7038C58.6383 51.5011 58.5335 51.3167 58.3723 51.1912Z" fill="#FBFBFB"/>
<path opacity="0.8" fill-rule="evenodd" clip-rule="evenodd" d="M11.6244 108.504L8.84332 105.724L11.6244 102.943C11.6828 102.885 11.7291 102.815 11.7607 102.739C11.7922 102.663 11.8085 102.581 11.8085 102.499C11.8085 102.416 11.7922 102.335 11.7607 102.258C11.7291 102.182 11.6828 102.113 11.6244 102.055L11.4467 101.877C11.3884 101.819 11.3191 101.772 11.2428 101.741C11.1666 101.709 11.0849 101.693 11.0024 101.693C10.9199 101.693 10.8381 101.709 10.7619 101.741C10.6857 101.772 10.6164 101.819 10.558 101.877L7.77693 104.657L5.00584 101.884C4.94749 101.826 4.8782 101.78 4.80196 101.748C4.72572 101.717 4.64403 101.7 4.5615 101.7C4.47898 101.7 4.39726 101.717 4.32102 101.748C4.24478 101.78 4.17552 101.826 4.11717 101.884L3.93945 102.062C3.88109 102.12 3.83478 102.19 3.80319 102.266C3.77161 102.342 3.75537 102.424 3.75537 102.506C3.75537 102.589 3.77161 102.671 3.80319 102.747C3.83478 102.823 3.88109 102.892 3.93945 102.951L6.72056 105.731L3.93945 108.512C3.88109 108.57 3.83478 108.639 3.80319 108.715C3.77161 108.792 3.75537 108.873 3.75537 108.956C3.75537 109.038 3.77161 109.12 3.80319 109.196C3.83478 109.272 3.88109 109.342 3.93945 109.4L4.11717 109.578C4.17552 109.636 4.24478 109.682 4.32102 109.714C4.39726 109.746 4.47898 109.762 4.5615 109.762C4.64403 109.762 4.72572 109.746 4.80196 109.714C4.8782 109.682 4.94749 109.636 5.00584 109.578L7.78695 106.797L10.5681 109.578C10.6264 109.636 10.6957 109.682 10.7719 109.714C10.8482 109.746 10.9299 109.762 11.0124 109.762C11.0949 109.762 11.1766 109.746 11.2529 109.714C11.3291 109.682 11.3984 109.636 11.4567 109.578L11.6345 109.4C11.6933 109.341 11.7398 109.271 11.7712 109.193C11.8026 109.116 11.8182 109.033 11.8173 108.95C11.8164 108.867 11.7988 108.784 11.7657 108.708C11.7326 108.631 11.6846 108.562 11.6244 108.504Z" fill="#FBFBFB"/>
<path fill-rule="evenodd" clip-rule="evenodd" d="M188.815 32.1217C191.028 46.3147 180.001 67.5354 160.175 84.7292C135.586 106.058 106.773 113.115 95.821 100.496C84.8692 87.8776 95.9262 60.3526 120.516 39.0243C138.62 23.3221 159.009 15.3584 172.877 17.283L140.334 61.8792L188.815 32.1217Z" fill="url(#paint1_linear)"/>
<path opacity="0.8" fill-rule="evenodd" clip-rule="evenodd" d="M98.7325 46.2321L96.5972 44.0973L98.7325 41.9624C98.7774 41.9176 98.813 41.8643 98.8373 41.8057C98.8616 41.7471 98.8741 41.6842 98.8741 41.6208C98.8741 41.5573 98.8616 41.4945 98.8373 41.4359C98.813 41.3773 98.7774 41.324 98.7325 41.2792L98.5948 41.1415C98.55 41.0966 98.4967 41.0611 98.4381 41.0368C98.3794 41.0125 98.3166 41 98.2531 41C98.1897 41 98.1268 41.0125 98.0682 41.0368C98.0096 41.0611 97.9563 41.0966 97.9114 41.1415L95.7761 43.2764L93.6408 41.1415C93.596 41.0966 93.5427 41.0611 93.4841 41.0368C93.4255 41.0125 93.3626 41 93.2992 41C93.2357 41 93.1728 41.0125 93.1142 41.0368C93.0556 41.0611 93.0023 41.0966 92.9575 41.1415L92.8198 41.2767C92.7749 41.3215 92.7393 41.3748 92.715 41.4334C92.6907 41.492 92.6782 41.5548 92.6782 41.6183C92.6782 41.6817 92.6907 41.7446 92.715 41.8032C92.7393 41.8618 92.7749 41.9151 92.8198 41.9599L94.9551 44.0948L92.8198 46.2296C92.7749 46.2744 92.7393 46.3277 92.715 46.3863C92.6907 46.4449 92.6782 46.5078 92.6782 46.5712C92.6782 46.6347 92.6907 46.6975 92.715 46.7561C92.7393 46.8147 92.7749 46.868 92.8198 46.9128L92.9575 47.0505C93.0023 47.0954 93.0556 47.1309 93.1142 47.1552C93.1728 47.1795 93.2357 47.192 93.2992 47.192C93.3626 47.192 93.4255 47.1795 93.4841 47.1552C93.5427 47.1309 93.596 47.0954 93.6408 47.0505L95.7761 44.9157L97.9114 47.0505C97.9563 47.0954 98.0096 47.1309 98.0682 47.1552C98.1268 47.1795 98.1897 47.192 98.2531 47.192C98.3166 47.192 98.3794 47.1795 98.4381 47.1552C98.4967 47.1309 98.55 47.0954 98.5948 47.0505L98.7325 46.9128C98.8224 46.8223 98.8728 46.7 98.8728 46.5725C98.8728 46.445 98.8224 46.3226 98.7325 46.2321Z" fill="#FBFBFB"/>
</g>
<defs>
<linearGradient id="paint0_linear" x1="81.4892" y1="122.057" x2="73.7604" y2="144.458" gradientUnits="userSpaceOnUse">
<stop stop-color="#61C19E"/>
<stop offset="1" stop-color="#348880"/>
</linearGradient>
<linearGradient id="paint1_linear" x1="209.14" y1="50.7455" x2="194.197" y2="97.7845" gradientUnits="userSpaceOnUse">
<stop stop-color="#61C19E"/>
<stop offset="1" stop-color="#348880"/>
</linearGradient>
</defs>
</svg>
