<?xml version="1.0" encoding="UTF-8"?>
<svg width="14px" height="8px" viewBox="0 0 14 8" version="1.1" xmlns="http://www.w3.org/2000/svg" xmlns:xlink="http://www.w3.org/1999/xlink">
    <!-- Generator: Sketch 61 (89581) - https://sketch.com -->
    <title>Group 4</title>
    <desc>Created with Sketch.</desc>
    <g id="UserPath" stroke="none" stroke-width="1" fill="none" fill-rule="evenodd">
        <g id="Desktop-HD" transform="translate(-937.000000, -483.000000)" stroke="#000000">
            <g id="FormCreateAccount" transform="translate(468.000000, 359.000000)">
                <g id="Group-4" transform="translate(469.000000, 125.000000)">
                    <path d="M0,3 C3.07655356,1 5.40988689,0 7,0 C8.59011311,0 10.9234464,1 14,3" id="Line-3" stroke-linecap="square"></path>
                    <g id="Group-8" transform="translate(0.000000, 3.000000)" stroke-linecap="square">
                        <path d="M0,3 C3.07655356,1 5.40988689,0 7,0 C8.59011311,0 10.9234464,1 14,3" id="Line-3" transform="translate(7.000000, 1.500000) scale(1, -1) translate(-7.000000, -1.500000) "></path>
                    </g>
                    <g id="Group-8" transform="translate(7.000000, 1.500000) scale(1, -1) translate(-7.000000, -1.500000) " stroke-linecap="square">
                        <path d="M0,3 C3.07655356,1 5.40988689,0 7,0 C8.59011311,0 10.9234464,1 14,3" id="Line-3" transform="translate(7.000000, 1.500000) scale(1, -1) translate(-7.000000, -1.500000) "></path>
                    </g>
                    <circle id="Oval-2" stroke-width="2" cx="7" cy="3" r="2"></circle>
                </g>
            </g>
        </g>
    </g>
</svg>