<svg width="72" height="128" viewBox="0 0 72 128" fill="none" xmlns="http://www.w3.org/2000/svg">
<path d="M9.58864 8.02404C8.43047 17.1631 10.2012 26.434 14.646 34.503C19.9725 44.1177 28.7988 50.7325 31.4525 61.8471C34.1061 72.9617 32.8178 84.9225 34.1446 96.2678C35.3369 106.498 37.0098 118.112 41.8364 127.285C42.3941 128.323 43.7593 127.458 43.5285 126.496C41.5095 115.266 37.7597 104.71 36.7021 93.2296C35.7407 83.1149 36.5483 72.7695 34.5099 62.751C32.587 53.2324 27.0105 46.6944 21.2417 39.2142C14.4957 30.4416 11.2413 19.4796 12.1077 8.44715C12.1158 8.12492 12.0047 7.811 11.7956 7.56572C11.5864 7.32044 11.2941 7.161 10.9746 7.11808C10.6552 7.07517 10.3311 7.15182 10.0646 7.33322C9.79818 7.51462 9.60814 7.78808 9.53096 8.10103L9.58864 8.02404Z" fill="#65A4C5"/>
<path d="M38.7986 113.112C43.6637 112.458 50.7209 107.843 51.0093 102.439C51.0093 101.401 49.7017 101.112 49.0864 101.728C47.4711 103.285 46.625 105.439 44.9328 106.997C42.943 108.662 40.6515 109.928 38.1833 110.727C37.9153 110.849 37.6987 111.061 37.5717 111.326C37.4447 111.591 37.4153 111.893 37.4889 112.178C37.5624 112.463 37.7341 112.713 37.9736 112.883C38.2132 113.054 38.5053 113.135 38.7986 113.112Z" fill="#65A4C5"/>
<path d="M37.183 102.94C39.9966 101.81 42.4683 99.9679 44.3556 97.5946C45.7401 95.8639 48.4322 92.4411 47.4515 90.1528C47.4067 90.0161 47.3312 89.8915 47.2308 89.7885C47.1304 89.6855 47.0077 89.6068 46.8722 89.5586C46.7367 89.5103 46.592 89.4937 46.449 89.51C46.3061 89.5263 46.1688 89.5752 46.0477 89.6528C45.0478 90.2682 44.9132 91.0374 44.4324 92.0758C43.848 93.3517 43.112 94.5525 42.2403 95.6524C40.4723 97.7225 38.3332 99.4442 35.9331 100.729C34.6447 101.479 35.9331 103.459 37.183 102.94Z" fill="#65A4C5"/>
<path d="M35.587 90.7867C38.1159 89.7354 40.4151 88.2003 42.3557 86.2678C43.8941 84.7294 46.567 82.0373 46.2016 79.7106C46.1895 79.5345 46.1328 79.3644 46.0367 79.2163C45.9406 79.0683 45.8084 78.9471 45.6525 78.8644C45.4966 78.7816 45.3222 78.74 45.1458 78.7434C44.9693 78.7467 44.7966 78.7951 44.644 78.8837C42.7211 79.8452 41.8557 82.4796 40.4135 84.0179C38.6356 85.8792 36.6181 87.4959 34.414 88.8253C33.3179 89.4983 34.414 91.2867 35.5101 90.7482L35.587 90.7867Z" fill="#65A4C5"/>
<path d="M36.1836 77.8453C38.5474 76.0852 40.5844 73.9244 42.2024 71.4612C43.2215 69.769 44.8561 66.3655 43.3947 64.5771C43.2982 64.4153 43.1648 64.2785 43.0054 64.1782C42.8459 64.0779 42.6649 64.0168 42.4773 63.9999C42.2897 63.983 42.1007 64.0109 41.9259 64.0811C41.7511 64.1514 41.5955 64.262 41.4717 64.404C40.9749 65.1302 40.7009 65.9857 40.6833 66.8654C40.4716 67.9807 40.0612 69.0488 39.4718 70.019C37.9447 72.1572 36.1552 74.0953 34.1453 75.7878C33.0108 76.9223 34.876 78.7683 36.0683 77.7107L36.1836 77.8453Z" fill="#65A4C5"/>
<path d="M34.2989 65.6348C36.4342 63.961 38.0265 61.6929 38.8755 59.116C39.6446 57.02 40.9714 53.4433 39.6831 51.4242C39.6146 51.3205 39.5236 51.2335 39.4169 51.1698C39.3102 51.106 39.1905 51.0671 39.0667 51.056C38.9429 51.0449 38.8182 51.0619 38.7018 51.1057C38.5855 51.1494 38.4805 51.2189 38.3947 51.3088C36.8756 52.6741 37.0871 55.3663 36.4718 57.2315C35.6387 59.7054 34.2884 61.9734 32.5105 63.8848C31.6067 65.0001 33.1066 66.4617 34.2412 65.654L34.2989 65.6348Z" fill="#65A4C5"/>
<path d="M30.9136 53.8854C33.4644 49.1178 34.4531 43.6693 33.7403 38.3095C33.6613 38.0604 33.505 37.843 33.2941 37.6887C33.0832 37.5344 32.8287 37.4512 32.5674 37.4512C32.306 37.4512 32.0515 37.5344 31.8406 37.6887C31.6297 37.843 31.4734 38.0604 31.3943 38.3095C30.9136 40.5858 30.6687 42.9056 30.6636 45.2321C30.3176 47.728 29.6385 50.1661 28.6445 52.4815C28.0869 53.8276 30.0867 55.0967 30.9328 53.8084L30.9136 53.8854Z" fill="#65A4C5"/>
<path d="M25.8954 45.3481C27.3184 40.6754 29.2413 32.8874 26.6646 28.3493C26.5344 28.1571 26.3517 28.0064 26.1382 27.915C25.9248 27.8237 25.6897 27.7957 25.4608 27.8342C25.2319 27.8727 25.0188 27.9761 24.847 28.1322C24.6752 28.2883 24.5518 28.4905 24.4916 28.7147C24.1977 31.1072 24.1526 33.5238 24.357 35.9257C24.1764 38.8381 23.6996 41.7246 22.9341 44.5404C22.511 46.2134 25.3762 47.0019 25.8954 45.3289V45.3481Z" fill="#65A4C5"/>
<path d="M19.5878 36.464C20.3757 33.9609 20.9041 31.3834 21.1646 28.7722C21.3569 26.9646 22.0107 24.6186 20.4916 23.2725C20.316 23.1033 20.0816 23.0088 19.8378 23.0088C19.5939 23.0088 19.3595 23.1033 19.1839 23.2725C17.7609 24.484 18.2225 26.9069 18.0302 28.6183C17.7802 31.022 17.2803 33.3872 16.8187 35.7716C16.5111 37.3484 19.0493 38.0599 19.5493 36.5024L19.5878 36.464Z" fill="#65A4C5"/>
<path d="M14.2608 22.2918C15.2031 20.4842 16.1838 18.6575 17.0299 16.8499C17.876 15.0423 19.2413 13.504 19.1644 11.6964C19.1609 11.4747 19.0966 11.2581 18.9786 11.0704C18.8605 10.8827 18.6932 10.731 18.4948 10.6318C18.2965 10.5326 18.0747 10.4898 17.8537 10.508C17.6326 10.5262 17.4209 10.6047 17.2414 10.735C15.6838 11.658 15.0108 13.8309 14.2416 15.4077C13.2994 17.3306 12.4148 19.2536 11.5687 21.1765C10.7226 23.0995 13.3763 23.8494 14.2031 22.2534L14.2608 22.2918Z" fill="#65A4C5"/>
<path d="M2.41571 16.7921C2.95724 18.798 4.19488 20.5456 5.90715 21.7224C7.61941 22.8991 9.69453 23.4282 11.7612 23.2148C13.6841 23.0225 13.5687 20.042 11.6458 20.2343C10.2274 20.3681 8.8032 20.047 7.57939 19.3175C6.35558 18.5881 5.39563 17.4881 4.83858 16.1768C4.30016 14.9076 2.03112 15.3692 2.41571 16.8114V16.7921Z" fill="#65A4C5"/>
<path d="M1.18572 30.6752C4.45472 35.0403 11.9157 40.2899 17.5115 36.8094C17.7353 36.6595 17.9047 36.4412 17.9944 36.1872C18.0842 35.9332 18.0894 35.6571 18.0095 35.3998C17.9295 35.1426 17.7686 34.918 17.5506 34.7597C17.3327 34.6014 17.0694 34.5177 16.8 34.5211C14.1656 34.4249 11.935 34.9248 9.37747 33.8287C7.02557 32.7322 4.96397 31.0987 3.35866 29.0599C2.26258 27.7331 0.147354 29.2715 1.20497 30.6752H1.18572Z" fill="#65A4C5"/>
<path d="M10.0505 45.0595C12.8444 45.8601 15.7108 46.3818 18.6076 46.6171C20.9344 46.8094 23.8572 47.367 25.8186 45.8479C26.0418 45.7048 26.2119 45.4924 26.3027 45.2433C26.3936 44.9943 26.4003 44.7223 26.3217 44.469C26.2431 44.2158 26.0836 43.9955 25.8677 43.8416C25.6518 43.6877 25.3914 43.6089 25.1264 43.6173C20.2651 43.8227 15.3954 43.7007 10.5505 43.252C9.55055 43.252 9.01213 44.7518 10.0697 45.0403L10.0505 45.0595Z" fill="#65A4C5"/>
<path d="M14.8759 55.2129C17.31 56.3131 19.938 56.9202 22.608 56.9995C25.2781 57.0787 27.9374 56.6284 30.4325 55.6744C32.2208 55.0206 31.3555 52.1938 29.5287 52.8283C25.0964 54.3775 20.2697 54.3775 15.8374 52.8283C15.5237 52.7008 15.1723 52.7032 14.8604 52.8348C14.5484 52.9664 14.3015 53.2167 14.1741 53.5303C14.0466 53.844 14.0489 54.1953 14.1805 54.5073C14.3121 54.8192 14.5623 55.0661 14.8759 55.1936V55.2129Z" fill="#65A4C5"/>
<path d="M24.529 64.2889C26.0097 65.0196 26.8942 66.5772 28.3749 67.3848C29.2061 67.8616 30.1509 68.1044 31.1091 68.0875C32.0672 68.0706 33.0029 67.7945 33.8168 67.2887C34.0089 67.1585 34.1596 66.9758 34.251 66.7624C34.3423 66.549 34.3704 66.3138 34.3319 66.0849C34.2934 65.856 34.19 65.643 34.0339 65.4712C33.8778 65.2994 33.6756 65.176 33.4514 65.1158C32.6941 64.9863 31.9204 64.9863 31.1631 65.1158C30.7584 65.1259 30.3557 65.0546 29.9791 64.9059C29.6025 64.7573 29.2597 64.5343 28.971 64.2504C27.9713 63.2838 26.8219 62.4851 25.5673 61.8852C25.246 61.7527 24.8852 61.7531 24.5643 61.8865C24.2433 62.02 23.9886 62.2754 23.856 62.5967C23.7234 62.918 23.7238 63.2788 23.8572 63.5997C23.9907 63.9207 24.2461 64.1756 24.5674 64.3082L24.529 64.2889Z" fill="#65A4C5"/>
<path d="M24.5112 71.6542C25.2303 73.6951 26.4541 75.5209 28.0686 76.9616C29.4724 78.1923 31.7991 79.9228 33.8374 79.6536C34.0821 79.638 34.3171 79.5519 34.5139 79.4056C34.7107 79.2593 34.8608 79.0591 34.9463 78.8292C35.0317 78.5994 35.0487 78.3497 34.9953 78.1104C34.9418 77.8711 34.8201 77.6523 34.645 77.4807C33.3951 76.4038 31.6453 76.077 30.3377 74.9809C28.9293 73.812 27.8326 72.3122 27.1456 70.6158C27.0787 70.4491 26.9796 70.2973 26.854 70.169C26.7284 70.0406 26.5787 69.9382 26.4135 69.8677C26.0799 69.7252 25.7035 69.7212 25.3669 69.8563C25.0303 69.9914 24.7611 70.2547 24.6187 70.5883C24.4762 70.9219 24.4721 71.2984 24.6073 71.635L24.5112 71.6542Z" fill="#65A4C5"/>
<path d="M22.5111 83.0954C24.7994 86.249 28.7222 91.7101 33.2219 91.287C33.4983 91.2693 33.7615 91.163 33.9726 90.9839C34.1838 90.8047 34.3316 90.5623 34.3942 90.2926C34.4568 90.0228 34.4308 89.7401 34.3201 89.4863C34.2094 89.2325 34.0199 89.021 33.7796 88.8834C32.0656 88.0305 30.4198 87.0469 28.8569 85.9413C27.3517 84.5654 25.9565 83.0737 24.684 81.4801C24.4535 81.242 24.1442 81.0958 23.8138 81.0689C23.4835 81.0421 23.1547 81.1363 22.8887 81.3341C22.6227 81.5318 22.4377 81.8195 22.3682 82.1436C22.2987 82.4676 22.3495 82.806 22.5111 83.0954Z" fill="#65A4C5"/>
<path d="M27.1065 96.3628C28.316 97.7223 29.6628 98.9531 31.1255 100.036C32.3654 101.166 33.8978 101.925 35.5482 102.228C35.7704 102.225 35.9877 102.161 36.1768 102.045C36.366 101.928 36.52 101.762 36.6226 101.565C36.7251 101.368 36.7724 101.146 36.7592 100.925C36.7461 100.703 36.6732 100.489 36.5482 100.305C35.3973 99.2801 34.1014 98.4313 32.7023 97.7857C31.2861 96.8585 29.9483 95.8166 28.7025 94.6706C27.7411 93.786 26.145 95.3244 27.0296 96.3051L27.1065 96.3628Z" fill="#65A4C5"/>
<path d="M27.4535 107.362C30.4148 111.092 33.9338 115.207 39.1258 115.246C40.8179 115.246 41.0487 112.496 39.4142 112.246C35.1453 111.631 32.3954 108.823 29.7995 105.65C28.6265 104.266 26.3959 105.92 27.5304 107.343L27.4535 107.362Z" fill="#65A4C5"/>
<path d="M45.6823 126.554C59.5275 113.093 63.3348 94.6521 61.6811 75.9995C60.6812 64.558 62.3157 53.1549 61.4119 41.6942C60.5186 30.4726 58.2253 19.4067 54.5855 8.75422C54.4605 8.36407 54.1857 8.03954 53.8215 7.85202C53.4572 7.6645 53.0335 7.6293 52.6433 7.75425C52.2532 7.8792 51.9286 8.15408 51.7411 8.51831C51.5536 8.88254 51.5184 9.30629 51.6434 9.69644C55.0495 19.8007 57.2631 30.2685 58.2391 40.8866C59.1429 51.4051 57.6814 61.8659 58.2391 72.3459C58.8352 81.9606 59.8351 90.9408 57.2968 100.402C54.7489 109.447 50.1417 117.779 43.8362 124.746C42.894 125.823 44.5862 127.573 45.6245 126.554H45.6823Z" fill="#65A4C5"/>
<path d="M48.9319 122.862C50.4711 123.031 52.0271 122.966 53.547 122.67C55.1201 122.593 56.6254 122.006 57.8351 120.997C57.9885 120.816 58.0872 120.595 58.1195 120.359C58.1518 120.124 58.1165 119.885 58.0177 119.669C57.9188 119.453 57.7605 119.27 57.5613 119.141C57.3621 119.011 57.1303 118.942 56.8929 118.939C55.6369 119.048 54.4014 119.326 53.22 119.766C51.8078 119.991 50.3811 120.114 48.9511 120.132C47.3743 120.228 47.432 122.651 48.9511 122.843L48.9319 122.862Z" fill="#65A4C5"/>
<path d="M54.1622 114.458C56.1358 114.638 58.1226 114.307 59.931 113.496C61.4309 112.823 63.1808 112.016 63.6615 110.343C63.9307 109.439 63.0077 108.901 62.2386 109.035C60.9117 109.266 59.8733 110.458 58.6427 110.958C57.1855 111.572 55.6413 111.955 54.0661 112.093C53.7833 112.129 53.5234 112.267 53.3351 112.481C53.1468 112.695 53.043 112.971 53.043 113.256C53.043 113.541 53.1468 113.817 53.3351 114.031C53.5234 114.245 53.7833 114.383 54.0661 114.419L54.1622 114.458Z" fill="#65A4C5"/>
<path d="M58.8733 103.152C61.1184 102.939 63.274 102.165 65.1421 100.902C67.0836 99.8337 68.5727 98.0987 69.3341 96.0177C69.4007 95.7708 69.3886 95.5093 69.2997 95.2695C69.2108 95.0297 69.0493 94.8235 68.8378 94.6797C68.6264 94.5359 68.3754 94.4616 68.1197 94.4671C67.864 94.4725 67.6164 94.5575 67.4112 94.7101C65.9113 95.6716 64.9883 97.383 63.5653 98.4407C61.9595 99.5643 60.1793 100.415 58.2965 100.96C57.0273 101.344 57.6234 103.267 58.8733 103.152Z" fill="#65A4C5"/>
<path d="M61.6806 91.4993C64.0579 90.409 66.1361 88.7596 67.7378 86.692C68.9493 85.0767 70.7761 82.4614 70.1031 80.3654C70.0345 80.1678 69.9168 79.9909 69.7609 79.8515C69.605 79.712 69.4161 79.6147 69.2121 79.5685C69.0081 79.5223 68.7957 79.5288 68.595 79.5875C68.3942 79.6462 68.2117 79.7551 68.0648 79.9039C67.4915 80.5614 67.0829 81.3457 66.8725 82.1922C66.4499 83.1982 65.9144 84.1529 65.2765 85.0381C63.9864 86.7947 62.3254 88.2456 60.4114 89.2879C59.1423 90.0186 60.4114 92.1723 61.6806 91.5377V91.4993Z" fill="#65A4C5"/>
<path d="M60.7963 79.1526C62.9745 78.3829 64.8841 77.0007 66.2959 75.1721C67.4881 73.6722 69.3149 71.0763 68.6419 69.1149C68.5728 68.9082 68.4516 68.7227 68.2901 68.5764C68.1285 68.4301 67.932 68.3279 67.7195 68.2796C67.5069 68.2313 67.2856 68.2385 67.0767 68.3006C66.8677 68.3627 66.6783 68.4776 66.5267 68.6342C65.9888 69.2309 65.6058 69.9506 65.4113 70.7301C65.0114 71.6456 64.4944 72.5054 63.873 73.2877C62.6395 74.7348 61.1541 75.9465 59.4887 76.8643C58.1427 77.6912 59.4887 79.6141 60.777 79.1719L60.7963 79.1526Z" fill="#65A4C5"/>
<path d="M60.5464 67.9422C64.3923 66.0192 72.0841 62.3656 71.0842 56.9814C70.9111 56.0968 69.6804 55.9814 69.1612 56.5583C67.719 58.0774 67.2383 60.1158 65.5077 61.5772C63.659 63.081 61.6463 64.3711 59.508 65.4231C57.9697 66.2692 58.9119 68.7882 60.5464 67.9998V67.9422Z" fill="#65A4C5"/>
<path d="M60.1227 56.2321C62.3453 55.1115 64.3021 53.5276 65.8611 51.5872C67.42 49.6467 68.5451 47.3948 69.1605 44.9829C69.2156 44.6416 69.151 44.2916 68.9777 43.9924C68.8045 43.6931 68.5331 43.463 68.2096 43.3409C67.8861 43.2187 67.5304 43.2121 67.2026 43.3221C66.8747 43.4321 66.595 43.6519 66.4107 43.9445C65.5633 45.8568 64.5599 47.6963 63.4109 49.4442C62.0677 51.1132 60.5315 52.6171 58.8343 53.9245C57.719 54.8283 58.7189 56.9244 60.1227 56.2321Z" fill="#65A4C5"/>
<path d="M60.9692 46.9833C63.1712 45.7168 65.1257 44.0621 66.738 42.099C68.1033 40.5222 69.9878 38.5801 70.1416 36.4456C70.1416 35.4841 69.0071 35.0611 68.2186 35.4841C66.5072 36.5033 65.5458 38.8108 64.2382 40.3107C62.9306 41.8106 61.0461 43.4836 59.5077 45.1181C58.7001 45.9642 59.8731 47.5602 60.9307 47.041L60.9692 46.9833Z" fill="#65A4C5"/>
<path d="M60.3923 35.8303C62.5301 33.9259 64.1621 31.5209 65.142 28.8308C65.8919 26.7348 66.9303 23.0619 65.5073 21.139C65.401 20.9639 65.2514 20.8192 65.0729 20.7187C64.8944 20.6182 64.693 20.5654 64.4882 20.5654C64.2833 20.5654 64.0819 20.6182 63.9034 20.7187C63.7249 20.8192 63.5753 20.9639 63.469 21.139C62.5075 22.9466 62.9498 25.4079 62.3344 27.4078C61.5647 29.8165 60.2484 32.0146 58.4885 33.8304C57.4309 34.9457 59.2577 36.8109 60.4115 35.7533L60.3923 35.8303Z" fill="#65A4C5"/>
<path d="M58.1428 22.9843C60.2409 21.4203 61.7568 19.2005 62.4502 16.677C63.2001 14.2541 64.0078 10.639 62.854 8.29303C62.7459 8.13832 62.602 8.01197 62.4346 7.92473C62.2672 7.8375 62.0813 7.79199 61.8925 7.79199C61.7038 7.79199 61.5178 7.8375 61.3504 7.92473C61.183 8.01197 61.0392 8.13832 60.9311 8.29303C59.835 10.216 60.2773 12.7158 59.8542 14.7926C59.436 17.0674 58.3125 19.1529 56.6429 20.7537C56.3573 20.9679 56.1685 21.2867 56.118 21.6401C56.0675 21.9935 56.1595 22.3526 56.3737 22.6382C56.5879 22.9238 56.9068 23.1126 57.2602 23.1631C57.6136 23.2136 57.9726 23.1215 58.2582 22.9073L58.1428 22.9843Z" fill="#65A4C5"/>
<path d="M55.5274 12.735C56.7887 10.9353 57.6598 8.89172 58.0849 6.73548C58.736 4.8504 58.6467 2.78835 57.8349 0.966656C57.7209 0.783849 57.5623 0.633055 57.3739 0.528525C57.1855 0.423995 56.9735 0.369141 56.7581 0.369141C56.5426 0.369141 56.3307 0.423995 56.1423 0.528525C55.9539 0.633055 55.7953 0.783849 55.6813 0.966656C55.2463 2.55873 55.0201 4.20052 55.0082 5.85088C54.592 7.70582 53.946 9.50167 53.0853 11.1967C52.9402 11.5099 52.9173 11.8659 53.0211 12.195C53.1249 12.5242 53.3479 12.8027 53.6463 12.976C53.9448 13.1493 54.2972 13.2049 54.6345 13.1319C54.9718 13.0588 55.2697 12.8624 55.4698 12.5812L55.5274 12.735Z" fill="#65A4C5"/>
<path d="M44.2976 8.98551C45.1108 11.0979 46.6065 12.8779 48.5472 14.0429C50.0471 15.0043 53.3162 16.485 54.9314 15.2158C55.0917 15.1065 55.2256 14.9629 55.3234 14.7954C55.4213 14.6279 55.4807 14.4407 55.4972 14.2474C55.5138 14.0541 55.4871 13.8596 55.4192 13.6778C55.3513 13.4961 55.2438 13.3318 55.1045 13.1968C54.4659 12.7342 53.7006 12.4791 52.9123 12.466C52.0135 12.2956 51.1493 11.9772 50.3548 11.5238C48.8246 10.5918 47.5754 9.26277 46.7397 7.67793C45.8744 6.23572 43.7976 7.67799 44.2783 9.06251L44.2976 8.98551Z" fill="#65A4C5"/>
<path d="M48.7394 20.273C50.6083 22.3114 53.191 23.551 55.9504 23.7342C56.2248 23.7256 56.492 23.6446 56.725 23.4994C56.958 23.3542 57.1486 23.1499 57.2772 22.9074C57.4571 22.5995 57.5229 22.2381 57.4632 21.8865C57.4034 21.535 57.2218 21.2156 56.9503 20.9844C56.3542 20.446 55.4697 20.5229 54.7389 20.3691C53.2461 20.0205 51.8602 19.3145 50.7008 18.3116C49.5278 17.3117 47.6241 19.1 48.7778 20.2346L48.7394 20.273Z" fill="#65A4C5"/>
<path d="M48.0469 26.6366C50.7582 29.7325 53.6619 33.4245 57.4885 35.1552C57.8557 35.3515 58.2859 35.394 58.6844 35.2732C59.0829 35.1524 59.417 34.8783 59.6134 34.5111C59.8097 34.1439 59.8522 33.7137 59.7313 33.3152C59.6105 32.9167 59.3364 32.5825 58.9692 32.3861C55.7963 30.0697 52.8186 27.4972 50.066 24.6944C48.893 23.6175 46.9893 25.4635 48.1431 26.6173L48.0469 26.6366Z" fill="#65A4C5"/>
<path d="M51.0474 39.7125C52.0352 41.2436 53.2254 42.6344 54.5856 43.8468C55.7202 44.8468 57.5085 46.5774 59.1046 46.3274C59.7968 46.212 60.5275 45.5582 60.2006 44.7698C59.5853 43.3468 57.9701 42.8469 56.7971 41.8278C55.4517 40.709 54.2617 39.4157 53.2588 37.9819C52.2204 36.5397 50.1052 38.1549 51.0667 39.6164L51.0474 39.7125Z" fill="#65A4C5"/>
<path d="M50.3168 47.9252C51.7731 49.9835 53.3327 51.9667 54.9896 53.8672C56.2395 55.194 58.0279 56.5015 59.8547 55.5785C60.0165 55.482 60.1531 55.3487 60.2535 55.1893C60.3538 55.0298 60.4149 54.8489 60.4318 54.6613C60.4487 54.4736 60.4208 54.2847 60.3506 54.1099C60.2803 53.9351 60.1697 53.7793 60.0277 53.6555C59.4993 53.319 58.9389 53.0357 58.3548 52.8096C57.6073 52.3632 56.9541 51.7753 56.4318 51.0789C55.0858 49.4828 53.7589 47.8868 52.4513 46.2715C51.1437 44.6562 49.2208 46.5022 50.2976 47.8867L50.3168 47.9252Z" fill="#65A4C5"/>
<path d="M51.1819 57.6156C51.7259 59.5219 52.6643 61.2926 53.9364 62.8131C55.2084 64.3335 56.7856 65.5698 58.566 66.4418C59.8928 66.9418 61.4889 65.3073 60.1428 64.2113C57.3161 62.3131 55.0936 59.6434 53.7394 56.5195C53.1048 54.8465 50.6435 55.8849 51.1819 57.5578V57.6156Z" fill="#65A4C5"/>
<path d="M50.6622 69.0007C52.3543 72.8466 55.0657 78.2116 60.0269 78.077C60.3697 78.0403 60.6895 77.8867 60.9324 77.6419C61.1752 77.3971 61.3262 77.076 61.3601 76.7329C61.394 76.3897 61.3086 76.0454 61.1183 75.7578C60.928 75.4702 60.6444 75.2571 60.3153 75.1542C58.689 74.7491 57.2218 73.8648 56.104 72.6159C54.9855 71.1792 54.0489 69.6098 53.3158 67.9432C52.5274 66.3087 49.9314 67.3278 50.6813 69.0007H50.6622Z" fill="#65A4C5"/>
<path d="M52.1623 81.1141C53.0318 83.2821 54.3413 85.2463 56.0082 86.8829C57.4119 88.2674 59.7194 90.3633 61.777 90.1903C61.9987 90.1868 62.2152 90.1226 62.403 90.0045C62.5907 89.8864 62.7424 89.7192 62.8416 89.5208C62.9407 89.3225 62.9836 89.1007 62.9654 88.8796C62.9472 88.6586 62.8687 88.4468 62.7385 88.2673C61.6424 86.8444 59.7387 86.3444 58.4118 85.0561C56.8289 83.6353 55.5698 81.8909 54.7198 79.9411C54.5846 79.6045 54.3213 79.3353 53.9877 79.1929C53.6542 79.0504 53.2777 79.0463 52.9411 79.1815C52.6045 79.3166 52.3354 79.5799 52.1929 79.9135C52.0505 80.2471 52.0463 80.6236 52.1815 80.9602L52.1623 81.1141Z" fill="#65A4C5"/>
<path d="M50.662 89.2876C52.0496 92.7847 53.9981 96.0322 56.4308 98.9023C57.5077 100.229 59.719 98.9022 58.7383 97.4216C56.8154 94.2872 55.0655 90.9605 53.0849 87.8069C52.1811 86.3646 50.0082 87.8068 50.5658 89.2298L50.662 89.2876Z" fill="#65A4C5"/>
<path d="M50.5469 99.2487C50.5469 102.729 51.8545 107.69 54.9119 109.748C55.9311 110.421 57.1618 109.19 56.8349 108.152C56.3734 106.71 55.3734 105.479 54.7966 104.075C54.1845 102.522 53.7585 100.902 53.5274 99.2487C53.2774 97.6526 50.5661 97.4603 50.5469 99.2487Z" fill="#65A4C5"/>
</svg>
