<svg width="48" height="48" viewBox="0 0 48 48" fill="none" xmlns="http://www.w3.org/2000/svg">
<path d="M9.375 31.875C10.834 31.875 12.044 32.835 12.3173 34.2095C12.5193 35.2251 13.5061 35.8846 14.5221 35.6827C15.5377 35.4807 16.1973 34.4935 15.9953 33.4779C15.6943 31.9642 14.8663 30.596 13.664 29.6251C12.4658 28.6578 10.9427 28.125 9.375 28.125C5.65303 28.125 2.625 31.153 2.625 34.875V41.25C2.625 44.972 5.65303 48 9.375 48C12.5206 48 15.222 45.8642 15.9443 42.8061C16.1824 41.7982 15.5584 40.7883 14.5506 40.5503C13.5424 40.3122 12.5328 40.9363 12.2947 41.944C11.974 43.3017 10.7734 44.25 9.375 44.25C7.72078 44.25 6.375 42.9042 6.375 41.25V34.875C6.375 33.2208 7.72078 31.875 9.375 31.875Z" fill="#138175"/>
<path d="M43.3125 14.0293V12.7802C43.3125 5.73319 37.5793 0 30.5323 0C27.4636 0 24.4966 1.104 22.1778 3.10875C20.6437 4.43494 19.4566 6.09759 18.7003 7.94541C17.5375 7.35131 16.2391 7.03125 14.9062 7.03125C10.3055 7.03125 6.5625 10.7742 6.5625 15.375V17.0801C2.81044 17.9215 0 21.2512 0 25.2188C0 25.4872 0.0125625 25.7574 0.0373125 26.0221C0.1335 27.0532 1.04775 27.8107 2.07834 27.7147C3.10941 27.6186 3.86719 26.7047 3.771 25.6736C3.75703 25.5243 3.75 25.3713 3.75 25.2188C3.75 22.6857 5.84625 20.625 8.42306 20.625H8.4375C9.47306 20.625 10.3125 19.7856 10.3125 18.75V15.375C10.3125 12.842 12.3732 10.7812 14.9062 10.7812C16.222 10.7812 17.4775 11.3486 18.3508 12.3379C18.832 12.883 19.5852 13.101 20.2832 12.8965C20.9812 12.6923 21.498 12.1027 21.6094 11.3841C22.2837 7.03191 26.1198 3.75 30.5323 3.75C35.5116 3.75 39.5625 7.80094 39.5625 12.7802V15.0863C39.5625 15.7801 39.9457 16.4172 40.5585 16.7424C42.8355 17.951 44.25 20.3008 44.25 22.875C44.25 24.7986 43.4626 26.5869 42.0327 27.9106C41.2728 28.6141 41.227 29.8004 41.9305 30.5603C42.3002 30.9594 42.8028 31.1615 43.307 31.1615C43.7626 31.1615 44.2195 30.9964 44.5803 30.6623C46.7856 28.6208 48 25.8552 48 22.875C48 19.3001 46.2299 16.0066 43.3125 14.0293Z" fill="#138175"/>
<path d="M25.4062 28.125C21.6843 28.125 18.6562 31.153 18.6562 34.875V41.25C18.6562 44.972 21.6843 48 25.4062 48C29.1282 48 32.1562 44.972 32.1562 41.25V34.875C32.1562 31.153 29.1282 28.125 25.4062 28.125ZM28.4062 41.25C28.4062 42.9042 27.0605 44.25 25.4062 44.25C23.752 44.25 22.4062 42.9042 22.4062 41.25V34.875C22.4062 33.2208 23.752 31.875 25.4062 31.875C27.0605 31.875 28.4062 33.2208 28.4062 34.875V41.25Z" fill="#138175"/>
<path d="M42.6562 44.25H41.3133C44.0523 41.1453 44.4104 39.6148 44.4104 38.625C44.4104 36.0403 42.3076 33.9375 39.7229 33.9375C39.7116 33.9375 39.7008 33.939 39.6896 33.9392C39.6784 33.939 39.6675 33.9375 39.6562 33.9375C37.0715 33.9375 34.9687 36.0403 34.9687 38.625C34.9687 39.6606 35.8082 40.5 36.8437 40.5C37.8793 40.5 38.7187 39.6606 38.7187 38.625C38.7187 38.1169 39.148 37.6875 39.6562 37.6875C39.6675 37.6875 39.6784 37.686 39.6895 37.6858C39.7008 37.686 39.7115 37.6875 39.7228 37.6875C40.2244 37.6875 40.6491 38.1058 40.6601 38.6053C40.6418 38.7018 40.4108 39.6676 38.2047 42.1005C36.8978 43.5418 35.5974 44.724 35.5848 44.7354C35.0103 45.2559 34.8153 46.0763 35.0943 46.7996C35.3732 47.5229 36.0684 48 36.8437 48H42.6562C43.6918 48 44.5312 47.1606 44.5312 46.125C44.5312 45.0894 43.6918 44.25 42.6562 44.25Z" fill="#138175"/>
</svg>
