<svg width="48" height="48" viewBox="0 0 48 48" fill="none" xmlns="http://www.w3.org/2000/svg">
<g clip-path="url(#clip0_1530:136094)">
<path d="M25.0879 19.08V21.4933C25.0879 22.2598 25.2413 22.9028 25.5431 23.4038C25.9599 24.0952 26.6439 24.4915 27.4207 24.4915C28.1817 24.4915 28.9379 24.1208 29.6685 23.3906L37.6394 15.4197C39.3892 13.6696 39.3892 10.8219 37.639 9.07178L29.6685 1.10083C28.9379 0.370239 28.1817 0 27.4207 0C26.2598 0 25.0879 0.927246 25.0879 2.99817V5.18994C13.7713 5.85828 4.40284 14.543 3.01051 25.9135C2.93251 26.5485 3.29359 27.1564 3.88868 27.3918C4.05714 27.4585 4.23256 27.4907 4.40577 27.4907C4.84449 27.4907 5.27003 27.2853 5.54103 26.915C9.27565 21.8123 15.272 18.7657 21.5811 18.7657C22.7504 18.7657 23.9256 18.8712 25.0879 19.08ZM7.07655 21.2051C10.1373 13.3879 17.7553 7.96106 26.4942 7.96106C27.2709 7.96106 27.9004 7.33154 27.9004 6.55481V3.31055L35.6505 11.0603C36.3038 11.714 36.3038 12.7775 35.6505 13.4312L27.9004 21.1809V17.9363C27.9004 17.2844 27.4525 16.7179 26.8179 16.5677C25.0945 16.1602 23.3323 15.9532 21.5811 15.9532C17.9556 15.9532 14.3491 16.8307 11.1514 18.4911C9.70228 19.2433 8.33412 20.1566 7.07655 21.2051Z" fill="#138175"/>
<path d="M44.0867 20.6082C43.4916 20.3727 42.8123 20.569 42.4343 21.0854C38.6997 26.1878 32.7037 29.2343 26.3943 29.2343C25.2253 29.2343 24.0502 29.1288 22.8875 28.9201V26.5068C22.8875 24.4358 21.7159 23.5086 20.5547 23.5086C19.7937 23.5086 19.0375 23.8792 18.3073 24.6098L10.3363 32.5804C8.58618 34.3305 8.58618 37.1782 10.3363 38.9286L18.3073 46.8992C19.0375 47.6298 19.7937 48.0001 20.5547 48.0001C21.7156 48.0001 22.8875 47.0728 22.8875 45.0019V42.8101C34.2045 42.1418 43.5725 33.4571 44.9648 22.087C45.0428 21.4516 44.6818 20.8437 44.0867 20.6082ZM21.4812 40.039C20.7045 40.039 20.075 40.6685 20.075 41.4452V44.6895L12.3252 36.9401C11.6715 36.2861 11.6715 35.2226 12.3248 34.5693L20.075 26.8191V30.0638C20.075 30.716 20.5232 31.2825 21.1578 31.4327C22.8816 31.8399 24.6434 32.0468 26.3943 32.0468C30.0201 32.0468 33.6266 31.1694 36.824 29.5093C38.2731 28.7568 39.6412 27.8438 40.8988 26.7953C37.838 34.6121 30.2201 40.039 21.4812 40.039Z" fill="#138175"/>
</g>
<defs>
<clipPath id="clip0_1530:136094">
<rect width="48" height="48" fill="white"/>
</clipPath>
</defs>
</svg>
