<svg width="32" height="32" viewBox="0 0 32 32" fill="none" xmlns="http://www.w3.org/2000/svg">
<g clip-path="url(#clip0_1530:136104)">
<path d="M10.0005 26.4375H5.62549V12.3125H10.0005V26.4375ZM10.437 7.81226C10.437 6.39795 9.28955 5.25 7.87598 5.25C6.45703 5.25 5.3125 6.39795 5.3125 7.81226C5.3125 9.22705 6.45703 10.375 7.87598 10.375C9.28955 10.375 10.437 9.22705 10.437 7.81226ZM26.375 18.6665C26.375 14.8748 25.574 12.0625 21.1445 12.0625C19.0161 12.0625 17.5874 13.127 17.0042 14.2339H17V12.3125H12.75V26.4375H17V19.4243C17 17.5876 17.4675 15.8083 19.7441 15.8083C21.9897 15.8083 22.0625 17.9087 22.0625 19.541V26.4375H26.375V18.6665ZM32 28.25V3.75C32 1.68213 30.3179 0 28.25 0H3.75C1.68213 0 0 1.68213 0 3.75V28.25C0 30.3179 1.68213 32 3.75 32H28.25C30.3179 32 32 30.3179 32 28.25ZM28.25 2.5C28.9392 2.5 29.5 3.06079 29.5 3.75V28.25C29.5 28.9392 28.9392 29.5 28.25 29.5H3.75C3.06079 29.5 2.5 28.9392 2.5 28.25V3.75C2.5 3.06079 3.06079 2.5 3.75 2.5H28.25Z" fill="#2B5250"/>
</g>
<defs>
<clipPath id="clip0_1530:136104">
<rect width="32" height="32" fill="white"/>
</clipPath>
</defs>
</svg>
