<svg width="144" height="48" viewBox="0 0 144 48" fill="none" xmlns="http://www.w3.org/2000/svg">
<g clip-path="url(#clip0_2488:119954)">
<path d="M87.5606 15.8487V23.0092H96.3869V25.3145H87.5606V32.6882H96.2882V34.9934H84.7659V13.5474H96.2882V15.8526L87.5606 15.8487Z" fill="#252525"/>
<path d="M116.266 34.9936H113.475L102.237 17.9805V34.9936H99.4736V13.5989H102.237L113.455 30.5726V13.5989H116.246L116.266 34.9936Z" fill="#252525"/>
<path d="M73.7763 25.5L79.4171 22.7132C80.2673 22.2936 80.9832 21.6447 81.484 20.8398C81.9848 20.0349 82.2506 19.1059 82.2513 18.1579L79.6855 19.425L73.0619 22.6974V8.48684C73.0622 8.24684 73.1297 8.01171 73.2566 7.80803C73.3836 7.60434 73.565 7.44023 73.7803 7.33421L79.4211 4.54737C80.2693 4.12787 80.9836 3.47998 81.4836 2.67661C81.9836 1.87324 82.2495 0.946265 82.2513 0L70.2158 5.94474V46.0105C70.2121 46.3478 70.2949 46.6804 70.4563 46.9766C70.6177 47.2728 70.8523 47.5227 71.1377 47.7024C71.4231 47.8822 71.7499 47.9857 72.0867 48.0033C72.4236 48.0208 72.7593 47.9517 73.0619 47.8026V44.8105C73.0622 44.5705 73.1297 44.3354 73.2566 44.1317C73.3836 43.928 73.565 43.7639 73.7803 43.6579L79.4211 40.8711C80.2708 40.4513 80.9861 39.8023 81.4862 38.9973C81.9864 38.1923 82.2514 37.2635 82.2513 36.3158L73.0619 40.8553V26.6447C73.0633 26.4065 73.1309 26.1733 73.257 25.9712C73.3832 25.7691 73.5629 25.606 73.7763 25.5Z" fill="#25643F"/>
<path d="M129.079 28.7052H127.922L123.292 21.6512V28.7052H122.135V19.8354H123.292L127.942 26.8736V19.8354H129.079V28.7052Z" fill="#252525"/>
<path d="M136.074 19.8474V20.7869H132.237V23.7711H135.363V24.7106H132.237V28.7053H131.053V19.8474H136.074Z" fill="#252525"/>
<path d="M142.918 19.8474V20.7869H140.507V28.7053H139.342V20.7908H136.915V19.8474H142.918Z" fill="#252525"/>
<path d="M44.3804 19.8C43.8283 18.5984 42.931 17.5884 41.8027 16.8987C40.6093 16.1926 39.2416 15.8357 37.8554 15.8684C36.4418 15.8482 35.0483 16.2037 33.8172 16.8987C32.6127 17.5913 31.6319 18.6146 30.9909 19.8474C30.2831 21.2174 29.929 22.7425 29.9606 24.2842C29.9276 25.821 30.2819 27.3414 30.9909 28.7053C31.6351 29.9317 32.6155 30.949 33.8172 31.6381C35.0482 32.3333 36.4418 32.6889 37.8554 32.6684C39.7581 32.7402 41.6136 32.066 43.0264 30.7895C44.3764 29.5421 45.1659 27.8526 45.3948 25.721H36.8567V23.4553H48.3712V25.6066C48.2202 27.3293 47.6511 28.9892 46.7133 30.4421C45.7856 31.8918 44.5083 33.085 42.9988 33.9118C41.4265 34.7713 39.6589 35.2104 37.8672 35.1868C35.9652 35.2075 34.0915 34.7254 32.4356 33.7895C30.812 32.8717 29.4692 31.5289 28.5514 29.9053C27.5847 28.1916 27.0915 26.2515 27.1225 24.2842C27.0928 22.3121 27.5858 20.3672 28.5514 18.6474C29.4656 17.017 30.809 15.6682 32.4356 14.7474C34.0927 13.8107 35.9678 13.3286 37.8712 13.35C40.0049 13.3107 42.1034 13.8981 43.9067 15.0395C45.6626 16.1713 47.0046 17.8415 47.7317 19.8H44.3804Z" fill="#252525"/>
<path d="M63.3316 35.0054L58.2316 26.2501H54.8685V35.0054H52.0737V13.5988H58.9856C60.3983 13.5554 61.8019 13.8391 63.0869 14.4278C64.1249 14.9106 64.996 15.691 65.5895 16.6699C66.1523 17.6502 66.4387 18.7647 66.4185 19.8949C66.436 21.3019 65.9831 22.6745 65.1316 23.7949C64.2816 24.9212 63.0066 25.6686 61.3066 26.037L66.6829 35.0054H63.3316ZM54.8685 24.008H58.9856C60.5014 24.008 61.6382 23.6343 62.3961 22.887C62.781 22.4923 63.0805 22.0226 63.2761 21.5072C63.4717 20.9917 63.5591 20.4416 63.5329 19.8909C63.5329 18.6225 63.1593 17.6396 62.4119 16.9422C61.6645 16.2449 60.5224 15.8975 58.9856 15.9001H54.8685V24.008Z" fill="#252525"/>
<path d="M6.02763 19.8198V20.7632H3.6V28.7211H2.43947V20.7632H0V19.8198H6.02763Z" fill="#252525"/>
<path d="M14.3171 19.8198V28.7211H13.1526V24.6869H8.62102V28.7211H7.45654V19.8198H8.61707V23.7277H13.1526V19.8198H14.3171Z" fill="#252525"/>
<path d="M17.621 20.7673V23.7436H21.292V24.7028H17.621V27.7699H21.2486V28.7291H16.4604V19.812H21.2526V20.7712L17.621 20.7673Z" fill="#252525"/>
<path d="M73.0619 9.61182H70.2158V0.864452C70.5184 0.715342 70.8541 0.646261 71.191 0.663804C71.5278 0.681347 71.8545 0.784927 72.14 0.96466C72.4254 1.14439 72.66 1.39428 72.8214 1.69047C72.9828 1.98666 73.0656 2.31927 73.0619 2.65656V9.61182Z" fill="#25643F"/>
</g>
<defs>
<clipPath id="clip0_2488:119954">
<rect width="142.918" height="48" fill="white"/>
</clipPath>
</defs>
</svg>
