<svg width="217" height="32" viewBox="0 0 217 32" fill="none" xmlns="http://www.w3.org/2000/svg">
<path d="M51.7819 12.288V7.2H66.5419V12.288H65.0779L64.0939 9.048H61.1179V22.128L63.3259 22.656V24H54.9979V22.656L57.2059 22.128V9.048H54.2059L53.2219 12.288H51.7819ZM67.1998 24V22.728L69.2398 22.248V6.984H67.1998V5.712L71.0398 4.8H72.9358V13.176C73.9118 12.152 75.1198 11.64 76.5598 11.64C77.1838 11.64 77.7438 11.736 78.2398 11.928C78.7518 12.104 79.1758 12.36 79.5118 12.696C79.8638 13.032 80.1358 13.432 80.3278 13.896C80.5198 14.36 80.6158 14.864 80.6158 15.408V22.248L82.6558 22.728V24H75.3598V22.728L76.9198 22.248V16.08C76.9198 15.28 76.8238 14.696 76.6318 14.328C76.4558 13.944 76.0638 13.752 75.4558 13.752C75.1358 13.752 74.7598 13.832 74.3278 13.992C73.8958 14.152 73.4318 14.424 72.9358 14.808V22.248L74.4958 22.728V24H67.1998ZM83.6642 17.856C83.6642 15.968 84.1922 14.464 85.2482 13.344C86.3202 12.208 87.7682 11.64 89.5922 11.64C91.4482 11.64 92.8482 12.272 93.7922 13.536C94.7522 14.8 95.2322 16.36 95.2322 18.216H87.3602C87.4722 19.4 87.8962 20.424 88.6322 21.288C89.3682 22.136 90.3122 22.56 91.4642 22.56C92.3282 22.56 93.2562 22.376 94.2482 22.008L94.7522 23.376C93.2642 24.032 91.8082 24.36 90.3842 24.36C88.3202 24.36 86.6802 23.76 85.4642 22.56C84.2642 21.344 83.6642 19.776 83.6642 17.856ZM87.3602 16.728L91.4162 16.464C91.4162 16.08 91.3922 15.728 91.3442 15.408C91.2962 15.072 91.1602 14.672 90.9362 14.208C90.5362 13.536 90.0642 13.2 89.5202 13.2C88.8802 13.2 88.3522 13.528 87.9362 14.184C87.6962 14.584 87.5362 15.024 87.4562 15.504C87.3762 15.984 87.3442 16.392 87.3602 16.728ZM106.198 6.84C107.878 6.84 109.438 7.152 110.878 7.776V12.216H109.534L108.43 8.664C107.998 8.6 107.558 8.568 107.11 8.568C105.174 8.568 103.654 9.168 102.55 10.368C101.446 11.568 100.894 13.312 100.894 15.6C100.894 20.288 102.806 22.632 106.63 22.632C106.87 22.632 107.102 22.624 107.326 22.608V18.048L104.59 17.208V16.104H113.014V17.208L111.238 18.048V23.184C110.918 23.344 110.542 23.496 110.11 23.64C109.678 23.784 109.214 23.904 108.718 24C108.222 24.112 107.718 24.2 107.206 24.264C106.694 24.328 106.198 24.36 105.718 24.36C102.886 24.36 100.71 23.6 99.1903 22.08C97.6703 20.56 96.9103 18.4 96.9103 15.6C96.9103 12.8 97.7103 10.64 99.3103 9.12C100.91 7.6 103.206 6.84 106.198 6.84ZM114.107 24V22.728L116.147 22.248V14.184H114.107V12.912L117.947 12H119.843V13.44C121.043 12.24 122.467 11.64 124.115 11.64C124.211 11.944 124.259 12.28 124.259 12.648C124.259 13.384 124.179 14.072 124.019 14.712L120.995 14.208C120.611 14.384 120.227 14.64 119.843 14.976V22.248L122.363 22.728V24H114.107ZM125.313 17.856C125.313 15.968 125.841 14.464 126.897 13.344C127.969 12.208 129.417 11.64 131.241 11.64C133.097 11.64 134.497 12.272 135.441 13.536C136.401 14.8 136.881 16.36 136.881 18.216H129.009C129.121 19.4 129.545 20.424 130.281 21.288C131.017 22.136 131.961 22.56 133.113 22.56C133.977 22.56 134.905 22.376 135.897 22.008L136.401 23.376C134.913 24.032 133.457 24.36 132.033 24.36C129.969 24.36 128.329 23.76 127.113 22.56C125.913 21.344 125.313 19.776 125.313 17.856ZM129.009 16.728L133.065 16.464C133.065 16.08 133.041 15.728 132.993 15.408C132.945 15.072 132.809 14.672 132.585 14.208C132.185 13.536 131.713 13.2 131.169 13.2C130.529 13.2 130.001 13.528 129.585 14.184C129.345 14.584 129.185 15.024 129.105 15.504C129.025 15.984 128.993 16.392 129.009 16.728ZM138.391 17.856C138.391 15.968 138.919 14.464 139.975 13.344C141.047 12.208 142.495 11.64 144.319 11.64C146.175 11.64 147.575 12.272 148.519 13.536C149.479 14.8 149.959 16.36 149.959 18.216H142.087C142.199 19.4 142.623 20.424 143.359 21.288C144.095 22.136 145.039 22.56 146.191 22.56C147.055 22.56 147.983 22.376 148.975 22.008L149.479 23.376C147.991 24.032 146.535 24.36 145.111 24.36C143.047 24.36 141.407 23.76 140.191 22.56C138.991 21.344 138.391 19.776 138.391 17.856ZM142.087 16.728L146.143 16.464C146.143 16.08 146.119 15.728 146.071 15.408C146.023 15.072 145.887 14.672 145.663 14.208C145.263 13.536 144.791 13.2 144.247 13.2C143.607 13.2 143.079 13.528 142.663 14.184C142.423 14.584 142.263 15.024 142.183 15.504C142.103 15.984 142.071 16.392 142.087 16.728ZM151.349 24V22.728L153.389 22.248V14.184H151.349V12.912L155.189 12H157.085V13.176C158.061 12.152 159.269 11.64 160.709 11.64C161.333 11.64 161.893 11.736 162.389 11.928C162.901 12.104 163.325 12.36 163.661 12.696C164.013 13.032 164.285 13.432 164.477 13.896C164.669 14.36 164.765 14.864 164.765 15.408V22.248L166.805 22.728V24H159.509V22.728L161.069 22.248V16.08C161.069 15.584 161.037 15.184 160.973 14.88C160.925 14.576 160.837 14.344 160.709 14.184C160.581 14.008 160.405 13.896 160.181 13.848C159.973 13.784 159.709 13.752 159.389 13.752C158.781 13.752 158.013 14.104 157.085 14.808V22.248L158.645 22.728V24H151.349ZM167.757 24V22.656L169.965 22.128V9.072L167.757 8.544V7.2H171.885L182.181 18.48V9.072L179.973 8.544V7.2H186.381V8.544L184.173 9.072V24H181.845L171.885 13.104V22.128L174.093 22.656V24H167.757ZM187.749 24V22.656L189.957 22.128V9.072L187.749 8.544V7.2H200.373V12.12H199.029L198.069 9.048H193.869V14.568L198.333 14.208V16.584L193.869 16.248V22.128L196.557 22.656V24H187.749ZM201.454 12.288V7.2H216.214V12.288H214.75L213.766 9.048H210.79V22.128L212.998 22.656V24H204.67V22.656L206.878 22.128V9.048H203.878L202.894 12.288H201.454Z" fill="#2B5250"/>
<path d="M33.8437 6.18616V8.31038C33.8437 18.5353 25.1845 23.1799 14.5044 23.1799H11.4391C11.7808 19.9809 13.2925 18.0446 17.2377 15.7441C19.1781 14.613 19.0137 13.9598 18.058 14.3347C11.4762 16.9156 8.20787 20.4036 8.06283 25.9733L8.05799 26.3663H4.83478C4.83478 24.9186 5.02172 23.6048 5.39239 22.4025C5.02172 21.0281 4.83478 19.163 4.83478 16.8073C4.83478 10.9412 12.0499 6.18616 20.9508 6.18616C24.1741 6.18616 27.3973 7.24827 33.8437 6.18616Z" fill="#2B5250"/>
</svg>
