<svg width="48" height="48" viewBox="0 0 48 48" fill="none" xmlns="http://www.w3.org/2000/svg">
<path d="M33.6787 15.1208C31.1581 12.5999 27.2281 12.3265 24.4015 14.2998C21.5748 12.3266 17.6448 12.6002 15.1242 15.1207C13.7543 16.4905 13 18.3117 13 20.2489C13 22.186 13.7543 24.0073 15.1242 25.3771L23.4225 33.6754C23.6822 33.9351 24.0343 34.0809 24.4015 34.0809C24.7688 34.0809 25.1209 33.935 25.3805 33.6754L33.6787 25.3772C35.0486 24.0073 35.803 22.1861 35.803 20.249C35.803 18.3118 35.0485 16.4905 33.6787 15.1208ZM31.7207 23.419L24.4015 30.7382L17.0822 23.419C15.3342 21.671 15.3342 18.8268 17.0822 17.0789C17.9562 16.205 19.1042 15.768 20.2524 15.768C21.4005 15.768 22.5484 16.205 23.4225 17.0789C23.9631 17.6196 24.8399 17.6197 25.3806 17.0789C26.2274 16.2322 27.3531 15.7658 28.5508 15.7658C29.7483 15.7658 30.8741 16.2322 31.7208 17.0789C32.5676 17.9257 33.034 19.0514 33.034 20.249C33.0338 21.4463 32.5674 22.5722 31.7207 23.419Z" fill="#138175"/>
<path d="M43.8461 3.23089H4.15387C1.86337 3.23089 0 5.09427 0 7.38467V33.2308C0 35.5212 1.86337 37.3847 4.15387 37.3847H17.7693L22.8923 44.2155C23.1538 44.5641 23.5643 44.7694 24 44.7694C24.4358 44.7694 24.8462 44.5641 25.1077 44.2155L30.2307 37.3847H43.8461C46.1365 37.3847 48 35.5213 48 33.2308V7.38467C48 5.09427 46.1366 3.23089 43.8461 3.23089ZM45.2308 33.2309C45.2308 33.9944 44.6097 34.6155 43.8462 34.6155H29.5385C29.1026 34.6155 28.6923 34.8207 28.4308 35.1694L24 41.077L19.5692 35.1694C19.3077 34.8207 18.8973 34.6155 18.4615 34.6155H4.15387C3.39037 34.6155 2.76928 33.9944 2.76928 33.2309V7.38467C2.76919 6.62117 3.39037 6.00008 4.15387 6.00008H43.8462C44.6097 6.00008 45.2308 6.62117 45.2308 7.38467V33.2309Z" fill="#138175"/>
</svg>
