<svg xmlns="http://www.w3.org/2000/svg" data-name="Layer 1" viewBox="0 0 64 64" x="0px" y="0px">
  <title>Artboard 14</title>
  <path fill="#2B5250" d="M32.31,12.11A12.7,12.7,0,0,0,19.83,25,12.7,12.7,0,0,0,32.31,37.87,12.69,12.69,0,0,0,44.78,25,12.69,12.69,0,0,0,32.31,12.11Zm10.47,12H38.2c-.13-4-1.09-7.41-2.53-9.41A10.9,10.9,0,0,1,42.78,24.07ZM32.48,35.32c-1.68,0-3.54-3.93-3.75-9.32l7.5,0C36,31.4,34.16,35.32,32.48,35.32ZM28.73,24c.2-5.42,2.07-9.37,3.75-9.37s3.56,4,3.75,9.39Zm.68-9.53c-1.51,2-2.51,5.4-2.64,9.53H21.84A10.85,10.85,0,0,1,29.41,14.5ZM21.84,26h4.93c.14,4.11,1.14,7.52,2.64,9.48A10.85,10.85,0,0,1,21.84,26Zm13.83,9.34c1.43-2,2.38-5.31,2.52-9.3h4.58A10.87,10.87,0,0,1,35.67,35.32Z" />
  <path fill="#2B5250" d="M56.15,4.84H7.85A5.85,5.85,0,0,0,2,10.69v29a5.85,5.85,0,0,0,5.85,5.85h6.48V58.18a1,1,0,0,0,.58.9A1,1,0,0,0,16,58.91L30.65,45.57h25.5A5.86,5.86,0,0,0,62,39.72v-29A5.86,5.86,0,0,0,56.15,4.84ZM60,39.72a3.89,3.89,0,0,1-3.89,3.89H30.27a1,1,0,0,0-.66.25L16.29,56V44.59a1,1,0,0,0-1-1H7.85A3.89,3.89,0,0,1,4,39.72v-29A3.89,3.89,0,0,1,7.85,6.8h48.3A3.89,3.89,0,0,1,60,10.69Z" />
</svg>
