<?xml version="1.0" encoding="UTF-8" standalone="no"?>
<!-- Created with Inkscape (http://www.inkscape.org/) -->

<svg
   xmlns:dc="http://purl.org/dc/elements/1.1/"
   xmlns:cc="http://creativecommons.org/ns#"
   xmlns:rdf="http://www.w3.org/1999/02/22-rdf-syntax-ns#"
   xmlns:svg="http://www.w3.org/2000/svg"
   xmlns="http://www.w3.org/2000/svg"
   xmlns:sodipodi="http://sodipodi.sourceforge.net/DTD/sodipodi-0.dtd"
   xmlns:inkscape="http://www.inkscape.org/namespaces/inkscape"
   width="195.6346mm"
   height="161.60052mm"
   viewBox="0 0 195.6346 161.60052"
   version="1.1"
   id="svg8"
   inkscape:version="0.92.4 (f8dce91, 2019-08-02)"
   sodipodi:docname="purchasepower.svg">
  <defs
     id="defs2" />
  <sodipodi:namedview
     id="base"
     pagecolor="#ffffff"
     bordercolor="#666666"
     borderopacity="1.0"
     inkscape:pageopacity="0.0"
     inkscape:pageshadow="2"
     inkscape:zoom="0.98994949"
     inkscape:cx="214.3758"
     inkscape:cy="298.89147"
     inkscape:document-units="mm"
     inkscape:current-layer="layer1"
     showgrid="false"
     inkscape:object-paths="false"
     inkscape:window-width="1853"
     inkscape:window-height="1025"
     inkscape:window-x="67"
     inkscape:window-y="27"
     inkscape:window-maximized="1" />
  <metadata
     id="metadata5">
    <rdf:RDF>
      <cc:Work
         rdf:about="">
        <dc:format>image/svg+xml</dc:format>
        <dc:type
           rdf:resource="http://purl.org/dc/dcmitype/StillImage" />
        <dc:title></dc:title>
      </cc:Work>
    </rdf:RDF>
  </metadata>
  <g
     inkscape:label="Layer 1"
     inkscape:groupmode="layer"
     id="layer1"
     transform="translate(-1.8437396,-1.3800547)">
    <g
       id="g4562">
      <path
         inkscape:connector-curvature="0"
         id="path3724"
         d="m 3.0539306,80.031495 4.535714,-8.315479 2.267857,-3.023809 c 0,0 0.4323754,-0.575151 1.1339574,-0.541742 0.701583,0.03341 1.5368,0.400904 1.904296,0.701582 0.367495,0.300681 0.367495,0.868627 0.534539,1.202714 0.167043,0.334087 0.835217,-1.5368 1.26953,-2.104747 0.434313,-0.567947 1.169304,3.608139 1.169304,3.608139 0,0 0.935444,-1.035669 1.503391,-1.937705 0.567948,-0.902034 1.035671,-2.80633 1.670435,-3.340868 0.634765,-0.53454 0.835216,-1.202714 1.403165,-1.135896 0.567947,0.06682 0.668174,-0.334086 0.668174,-0.334086 l 0.467722,0.902033 c 0,0 0.46772,-0.868624 0.701583,-0.835216 0.233859,0.03341 0.701582,1.403165 0.701582,1.403165 0,0 0.601355,-0.935445 0.835215,-0.902036 0.233863,0.03341 1.035672,0.868627 1.035672,0.868627 0,0 1.269529,-1.937705 1.637025,-3.808592 0.367496,-1.870885 0.300678,0.634767 0.701582,1.102487 0.400905,0.467722 0.935443,-2.00452 0.935443,-2.00452 0,0 1.069078,0.200451 1.570209,1.436573 0.501131,1.23612 0.23386,2.605879 0.23386,2.605879 l 0.835218,-0.835218 0.300678,0.634764 c 0,0 0.835218,-2.706102 1.804069,-3.507912 0.968854,-0.801809 4.57699,-3.307461 4.57699,-3.307461 l 0.868627,0.100227 0.668174,-0.7684 0.467722,0.868627 c 0,0 0.467723,-1.369759 1.536801,-1.536801 1.069078,-0.167044 2.338607,2.973375 2.338607,2.973375 0,0 1.418357,-2.893523 2.835767,-3.53136 1.41741,-0.637833 1.559152,1.157552 1.559152,1.157552 0,0 1.700893,-2.598586 2.244233,-2.716701 0.543341,-0.118118 2.645834,1.157552 3.756139,2.952937 1.110305,1.795386 1.086681,3.165552 1.086681,3.165552 l 2.456846,-5.693267 0.803199,0.944941 0.354354,-0.401601 0.566962,1.086681 0.803201,-1.488281 2.504091,-2.078868 c 0,0 0.25986,-0.212612 0.661458,0.14174 0.4016,0.354353 0.803201,1.393788 0.803201,1.393788 l 1.228423,-0.354352 c 0,0 0.283483,1.488282 0.850445,2.173362 0.566965,0.685083 1.417413,1.322917 1.937128,4.842819 0.519719,3.519903 1.46466,-1.748139 1.46466,-1.748139 l 1.015809,-3.047433 0.803201,1.606399 c 0,0 0.968563,-1.984375 1.535528,-2.882069 0.566962,-0.897692 2.976562,0.377978 2.976562,0.377978 0,0 0.614212,0.14174 1.039434,-0.188989 0.425223,-0.330729 0.992188,1.27567 0.992188,1.27567 0,0 0.448847,0.826823 0.779576,0.921316 0.330729,0.09449 0.897692,-1.677268 0.897692,-1.677268 0,0 0.614211,-1.228423 0.968565,-1.063059 0.354351,0.165365 0.73233,1.252046 0.73233,1.252046 0,0 3.330914,-2.55134 3.685267,-2.929316 0.354351,-0.377976 0.448847,1.960753 0.448847,1.960753 0,0 0.944939,-3.472656 1.795386,-4.913691 0.850448,-1.441034 5.079058,3.921503 5.079058,3.921503 0,0 1.27567,-4.630208 2.85844,-7.06343 1.58278,-2.433222 3.35454,1.441035 3.35454,1.441035 l 3.354535,-3.82701 0.44885,0.448847 1.9135,-4.582962 1.2048,0.54334 2.69308,-5.457031 0.99219,5.291667 1.58277,-1.866257 2.33873,-1.748139 1.79539,-2.952941 1.32291,0.779577 0.94494,-0.992188 0.96857,2.196986 1.58277,-3.094677 8.40997,-3.543528 2.78758,0.377976 c 0,0 13.53627,-18.02474 16.22935,-19.513021 2.69308,-1.4882813 7.74851,8.787948 7.74851,8.787948 0,0 0.77958,-1.27567 0.8032,-1.13393 0.0236,0.141742 0.70871,1.08668 0.70871,1.08668 l 3.47265,-4.913688 1.15756,0.614209 9.68563,-5.386159 4.39398,11.528273 3.28367,-7.110677 0.66145,1.252046 2.76396,-3.449032 1.06305,1.913504 5.90588,-5.9767483 8.28274,-5.841531"
         style="opacity:1;fill:#008000;fill-opacity:0;stroke:#00d300;stroke-width:2.66499996;stroke-linecap:butt;stroke-linejoin:round;stroke-miterlimit:4;stroke-dasharray:none;stroke-opacity:1" />
      <path
         inkscape:connector-curvature="0"
         id="path4554"
         d="m 3.0539306,78.973161 c 0,0 2.2409942,5.61548 6.7229817,6.55139 4.4819877,0.9359 7.2832287,-2.33979 7.2832287,-2.33979 l 16.247203,5.14752 19.608697,1.40387 15.126708,6.55139 10.084476,6.551379 c 0,0 -1.385374,-4.027939 2.378106,2.09361 3.763474,6.12156 9.11157,7.61059 9.11157,7.61059 0,0 10.696199,8.43782 12.676979,14.06302 1.98078,5.62523 4.75387,5.62523 4.75387,5.62523 l 15.45006,5.29431 13.46929,7.11424 17.03469,5.62522 7.72502,1.48903 9.30965,2.31626 15.64815,4.13618 6.33849,3.14351 4.5558,0.33089"
         style="fill:none;stroke:#f10000;stroke-width:2.60599995;stroke-linecap:butt;stroke-linejoin:round;stroke-miterlimit:4;stroke-dasharray:none;stroke-opacity:1" />
    </g>
    <text
       xml:space="preserve"
       style="font-style:normal;font-weight:normal;font-size:10.58333302px;line-height:1.25;font-family:sans-serif;letter-spacing:0px;word-spacing:0px;fill:#000000;fill-opacity:1;stroke:none;stroke-width:0.26458332"
       x="-14.699824"
       y="75.433556"
       id="text4558"><tspan
         sodipodi:role="line"
         id="tspan4556"
         x="-14.699824"
         y="84.797325"
         style="stroke-width:0.26458332" /></text>
  </g>
</svg>
