<svg width="105" height="30" viewBox="0 0 105 30" fill="none" xmlns="http://www.w3.org/2000/svg">
<path d="M15.0105 30C12.4822 30.0017 9.99452 29.3644 7.77854 28.1472C5.56256 26.9301 3.69019 25.1725 2.33539 23.0379C0.9806 20.9032 0.187344 18.4608 0.0293285 15.9375C-0.128687 13.4142 0.353664 10.8918 1.43157 8.60487C2.50947 6.3179 4.14795 4.34049 6.19477 2.85636C8.24159 1.37223 10.6303 0.429546 13.1391 0.115886C15.6478 -0.197774 18.1951 0.127771 20.5443 1.06227C22.8935 1.99678 24.9684 3.50991 26.5762 5.4611C27.0843 6.07602 27.3272 6.86758 27.2516 7.66163C27.1761 8.45569 26.7882 9.18721 26.1732 9.69526C25.5583 10.2033 24.7668 10.4463 23.9727 10.3707C23.1787 10.2951 22.4471 9.90721 21.9391 9.29229C20.7574 7.85744 19.1598 6.82439 17.3664 6.33548C15.5731 5.84657 13.6722 5.92587 11.9258 6.56244C10.1794 7.19902 8.67336 8.36155 7.61527 9.88983C6.55718 11.4181 5.9991 13.2369 6.01792 15.0956C6.03675 16.9544 6.63155 18.7615 7.72038 20.268C8.8092 21.7746 10.3384 22.9064 12.0974 23.5074C13.8563 24.1085 15.7584 24.1493 17.5415 23.6242C19.3246 23.099 20.901 22.0338 22.0534 20.5754C22.2986 20.2657 22.6024 20.0075 22.9475 19.8153C23.2925 19.6231 23.6721 19.5007 24.0644 19.4552C24.4568 19.4097 24.8542 19.4419 25.2341 19.55C25.614 19.6581 25.9689 19.8399 26.2785 20.0852C26.5881 20.3304 26.8464 20.6342 27.0386 20.9793C27.2308 21.3244 27.3531 21.7039 27.3986 22.0962C27.4442 22.4886 27.412 22.886 27.3039 23.2659C27.1958 23.6458 27.0139 24.0007 26.7687 24.3103C25.3685 26.0882 23.5823 27.5244 21.5452 28.5101C19.5081 29.4958 17.2735 30.0053 15.0105 30Z" fill="#138175"/>
<path d="M26.6303 5.46104C25.223 3.75479 23.4558 2.38086 21.4553 1.43767C19.4547 0.494482 17.2703 0.00537109 15.0586 0.00537109C12.8468 0.00537109 10.6625 0.494482 8.66191 1.43767C6.66135 2.38086 4.89414 3.75479 3.48683 5.46104C2.97878 6.07596 2.73582 6.86752 2.81139 7.66158C2.88696 8.45564 3.27487 9.18715 3.88979 9.6952C4.50471 10.2032 5.29627 10.4462 6.09033 10.3706C6.88439 10.2951 7.6159 9.90715 8.12395 9.29223C9.15612 8.03839 10.5094 7.08839 12.0393 6.54364V14.9638C12.0393 15.7614 12.3562 16.5263 12.9201 17.0903C13.4841 17.6542 14.249 17.971 15.0466 17.971C15.8441 17.971 16.609 17.6542 17.173 17.0903C17.7369 16.5263 18.0538 15.7614 18.0538 14.9638V6.54364C19.5881 7.08647 20.9457 8.03662 21.9812 9.29223C22.4892 9.90715 23.2208 10.2951 24.0148 10.3706C24.8089 10.4462 25.6004 10.2032 26.2153 9.6952C26.8303 9.18715 27.2182 8.45564 27.2937 7.66158C27.3693 6.86752 27.1264 6.07596 26.6183 5.46104H26.6303Z" fill="#61C1B8"/>
<path d="M25.6926 18.0433C27.37 18.0433 28.7298 16.6835 28.7298 15.006C28.7298 13.3286 27.37 11.9688 25.6926 11.9688C24.0151 11.9688 22.6553 13.3286 22.6553 15.006C22.6553 16.6835 24.0151 18.0433 25.6926 18.0433Z" fill="#F18182"/>
<path d="M37.9011 19.4988C37.8311 19.4311 37.7757 19.3497 37.7384 19.2597C37.7012 19.1697 37.6829 19.073 37.6846 18.9755V9.55695H34.2925C34.201 9.55944 34.1099 9.54325 34.0249 9.50937C33.9399 9.47549 33.8626 9.42463 33.7979 9.3599C33.7332 9.29517 33.6823 9.21793 33.6484 9.13289C33.6145 9.04785 33.5983 8.9568 33.6008 8.86529C33.5993 8.7731 33.616 8.68151 33.6501 8.59582C33.6842 8.51014 33.7349 8.43206 33.7993 8.36609C33.8626 8.29932 33.9392 8.2466 34.0241 8.21137C34.1091 8.17614 34.2005 8.15918 34.2925 8.1616H42.4721C42.5647 8.1608 42.6566 8.17846 42.7423 8.21353C42.8281 8.24861 42.906 8.30042 42.9715 8.36592C43.037 8.43143 43.0888 8.50932 43.1239 8.59506C43.1589 8.68079 43.1766 8.77266 43.1758 8.86529C43.1782 8.95724 43.1613 9.04867 43.126 9.13364C43.0908 9.21861 43.0381 9.29522 42.9713 9.35847C42.9053 9.4229 42.8273 9.47362 42.7416 9.50769C42.6559 9.54175 42.5643 9.5585 42.4721 9.55695H39.1521V18.9695C39.1539 19.0675 39.1349 19.1647 39.0966 19.2549C39.0583 19.345 39.0014 19.4261 38.9296 19.4928C38.8595 19.5629 38.7759 19.6182 38.684 19.6554C38.592 19.6926 38.4935 19.7109 38.3943 19.7093C38.2089 19.7057 38.0321 19.6302 37.9011 19.4988Z" fill="#138175"/>
<path d="M45.2146 19.4989C45.1459 19.4305 45.0918 19.3488 45.0556 19.2589C45.0194 19.1689 45.0019 19.0726 45.0041 18.9756V8.83532C45.002 8.7366 45.0195 8.63845 45.0557 8.54657C45.0918 8.45468 45.1458 8.37088 45.2146 8.30003C45.2815 8.22858 45.3626 8.17188 45.4527 8.13356C45.5428 8.09524 45.6399 8.07615 45.7378 8.0775C45.9388 8.0775 46.1316 8.15734 46.2737 8.29946C46.4158 8.44158 46.4957 8.63433 46.4957 8.83532V13.2078H52.7266V8.83532C52.725 8.73614 52.7433 8.63764 52.7805 8.54568C52.8177 8.45372 52.873 8.37018 52.9431 8.30003C53.0098 8.22828 53.0909 8.17138 53.1811 8.13304C53.2712 8.0947 53.3684 8.07578 53.4664 8.0775C53.6674 8.0775 53.8601 8.15734 54.0022 8.29946C54.1444 8.44158 54.2242 8.63433 54.2242 8.83532V18.9696C54.2259 19.0676 54.207 19.1648 54.1687 19.255C54.1303 19.3451 54.0734 19.4262 54.0017 19.4929C53.9315 19.563 53.848 19.6183 53.756 19.6555C53.6641 19.6927 53.5656 19.711 53.4664 19.7094C53.3688 19.711 53.2719 19.693 53.1814 19.6564C53.0909 19.6198 53.0087 19.5654 52.9397 19.4963C52.8706 19.4273 52.8162 19.3451 52.7796 19.2546C52.743 19.1642 52.725 19.0672 52.7266 18.9696V14.6032H46.4957V18.9756C46.497 19.0735 46.4779 19.1706 46.4396 19.2607C46.4013 19.3508 46.3446 19.432 46.2731 19.4989C46.2028 19.5688 46.1192 19.6239 46.0273 19.6611C45.9354 19.6982 45.837 19.7167 45.7378 19.7154C45.6405 19.7168 45.5439 19.6983 45.4539 19.6611C45.3639 19.6239 45.2825 19.5687 45.2146 19.4989Z" fill="#138175"/>
<path d="M57.6228 19.4146C57.5541 19.3462 57.5 19.2646 57.4638 19.1746C57.4276 19.0847 57.4101 18.9883 57.4123 18.8914V8.91344C57.4102 8.81473 57.4277 8.71658 57.4639 8.62469C57.5 8.5328 57.554 8.44901 57.6228 8.37816C57.6895 8.30641 57.7706 8.24951 57.8607 8.21117C57.9509 8.17283 58.0481 8.1539 58.1461 8.15563H64.7619C64.8546 8.15482 64.9464 8.17248 65.0322 8.20756C65.1179 8.24264 65.1958 8.29444 65.2613 8.35994C65.3268 8.42545 65.3786 8.50334 65.4137 8.58908C65.4488 8.67482 65.4664 8.76668 65.4656 8.85931C65.468 8.95126 65.4511 9.0427 65.4158 9.12766C65.3806 9.21263 65.3279 9.28924 65.2611 9.3525C65.1952 9.41693 65.1171 9.46764 65.0314 9.50171C64.9457 9.53578 64.8541 9.55252 64.7619 9.55097H58.9279V13.1596H64.1665C64.3531 13.1596 64.5321 13.2338 64.6641 13.3657C64.796 13.4977 64.8702 13.6767 64.8702 13.8633C64.8726 13.9553 64.8556 14.0467 64.8204 14.1317C64.7852 14.2166 64.7325 14.2932 64.6657 14.3565C64.5997 14.4209 64.5216 14.4716 64.436 14.5057C64.3503 14.5398 64.2587 14.5565 64.1665 14.555H58.9039V18.2298H64.7379C64.9245 18.2298 65.1035 18.3039 65.2354 18.4359C65.3674 18.5679 65.4416 18.7468 65.4416 18.9335C65.444 19.0254 65.427 19.1169 65.3918 19.2018C65.3566 19.2868 65.3038 19.3634 65.2371 19.4267C65.1711 19.4911 65.093 19.5418 65.0073 19.5759C64.9216 19.6099 64.8301 19.6267 64.7379 19.6251H58.122C57.9344 19.6231 57.7552 19.5475 57.6228 19.4146Z" fill="#138175"/>
<path d="M73.7956 19.0778C72.9265 18.6042 72.2123 17.89 71.7387 17.0209C71.2247 16.0601 70.9678 14.9828 70.9929 13.8934C70.9678 12.8041 71.2247 11.7267 71.7387 10.7659C72.2123 9.89679 72.9265 9.18264 73.7956 8.70898C74.7007 8.22259 75.7153 7.97618 76.7427 7.99326C77.4176 7.98442 78.0902 8.07356 78.7395 8.2579C79.35 8.44791 79.9371 8.70615 80.4897 9.02774C80.6001 9.0841 80.6926 9.17036 80.7564 9.27671C80.8202 9.38305 80.8528 9.50519 80.8505 9.62919C80.851 9.70977 80.8353 9.78963 80.8043 9.86402C80.7733 9.93841 80.7277 10.0058 80.6701 10.0622C80.6094 10.1262 80.5354 10.1761 80.4533 10.2084C80.3712 10.2406 80.283 10.2543 80.195 10.2487C80.0929 10.2501 79.9919 10.2274 79.9003 10.1825C79.4508 9.93445 78.9772 9.73293 78.4869 9.58107C77.9673 9.44167 77.4309 9.37488 76.893 9.3826C76.0516 9.36307 75.2205 9.57084 74.4873 9.98404C73.8409 10.3549 73.3196 10.9097 72.9897 11.5779C72.6473 12.2925 72.4764 13.0771 72.4905 13.8694C72.4764 14.6616 72.6473 15.4462 72.9897 16.1609C73.3196 16.829 73.8409 17.3839 74.4873 17.7547C75.2205 18.1679 76.0516 18.3756 76.893 18.3561C77.4309 18.364 77.9673 18.2972 78.4869 18.1576C78.9774 18.0062 79.451 17.8046 79.9003 17.5562C79.992 17.5115 80.0929 17.4889 80.195 17.49C80.2823 17.4863 80.3694 17.5003 80.4511 17.5314C80.5328 17.5624 80.6073 17.6097 80.6701 17.6705C80.7291 17.7283 80.7756 17.7976 80.8067 17.8742C80.8377 17.9508 80.8527 18.0329 80.8505 18.1155C80.8528 18.2395 80.8202 18.3617 80.7564 18.468C80.6926 18.5744 80.6001 18.6606 80.4897 18.717C79.9366 19.0346 79.3495 19.2888 78.7395 19.4748C78.0902 19.6593 77.4176 19.7484 76.7427 19.7394C75.72 19.7732 74.7057 19.5455 73.7956 19.0778Z" fill="#F18182"/>
<path d="M84.0258 19.2523C83.3946 18.8969 82.8821 18.3635 82.5523 17.7186C82.1979 17.014 82.0204 16.2337 82.035 15.4451C82.0204 14.6566 82.1979 13.8763 82.5523 13.1717C82.8821 12.5268 83.3946 11.9934 84.0258 11.638C84.7081 11.2818 85.4664 11.0957 86.2361 11.0957C87.0058 11.0957 87.7641 11.2818 88.4464 11.638C89.078 11.9947 89.5922 12.5276 89.9259 13.1717C90.2842 13.8751 90.4639 14.6559 90.4492 15.4451C90.4639 16.2344 90.2842 17.0152 89.9259 17.7186C89.5857 18.366 89.0629 18.8993 88.4223 19.2523C87.74 19.6085 86.9817 19.7946 86.212 19.7946C85.4423 19.7946 84.684 19.6085 84.0017 19.2523H84.0258ZM87.5322 18.1216C87.9585 17.897 88.3114 17.5546 88.5486 17.1352C88.8351 16.6128 88.9744 16.0224 88.9516 15.4271C88.973 14.8376 88.8337 14.2535 88.5486 13.737C88.3132 13.3177 87.9598 12.9768 87.5322 12.7567C87.131 12.5551 86.6881 12.45 86.2391 12.45C85.7861 12.4495 85.3393 12.5545 84.934 12.7567C84.5069 12.9754 84.1551 13.3168 83.9235 13.737C83.6431 14.255 83.5061 14.8385 83.5266 15.4271C83.5046 16.0216 83.6416 16.6113 83.9235 17.1352C84.1567 17.5557 84.508 17.8986 84.934 18.1216C85.3379 18.3282 85.7854 18.4354 86.2391 18.4343C86.6894 18.4328 87.1328 18.3235 87.5322 18.1155V18.1216Z" fill="#F18182"/>
<path d="M92.6326 9.29226C92.552 9.21462 92.4884 9.12105 92.446 9.0175C92.4035 8.91395 92.3831 8.80269 92.386 8.69081V8.62466C92.3969 8.40767 92.4912 8.20328 92.6492 8.05421C92.8073 7.90513 93.0168 7.82291 93.234 7.82474H93.3303C93.5515 7.82631 93.7632 7.9149 93.9197 8.07134C94.0761 8.22778 94.1647 8.43951 94.1663 8.66074V8.7269C94.1647 8.94814 94.0761 9.15986 93.9197 9.31631C93.7632 9.47275 93.5515 9.56133 93.3303 9.56291H93.234C93.1204 9.56276 93.008 9.53857 92.9044 9.49192C92.8007 9.44528 92.7081 9.37723 92.6326 9.29226ZM92.7288 19.5168C92.6588 19.4491 92.6034 19.3677 92.5661 19.2777C92.5289 19.1877 92.5106 19.0909 92.5123 18.9935V11.9206C92.5107 11.8214 92.529 11.7229 92.5662 11.6309C92.6034 11.539 92.6587 11.4554 92.7288 11.3853C92.7955 11.3135 92.8766 11.2566 92.9668 11.2183C93.0569 11.1799 93.1541 11.161 93.2521 11.1627C93.3525 11.1594 93.4525 11.1767 93.546 11.2136C93.6395 11.2505 93.7243 11.3062 93.7954 11.3772C93.8664 11.4483 93.9221 11.5332 93.959 11.6266C93.9959 11.7201 94.0132 11.8201 94.0099 11.9206V18.9695C94.0116 19.0674 93.9927 19.1646 93.9544 19.2548C93.916 19.3449 93.8591 19.426 93.7874 19.4927C93.7172 19.5629 93.6337 19.6182 93.5417 19.6554C93.4498 19.6926 93.3513 19.7109 93.2521 19.7092C93.0624 19.7088 92.8807 19.6331 92.7469 19.4987L92.7288 19.5168Z" fill="#F18182"/>
<path d="M96.8426 19.4988C96.7725 19.4311 96.7171 19.3497 96.6799 19.2597C96.6426 19.1697 96.6243 19.073 96.6261 18.9756V11.9206C96.6245 11.8215 96.6428 11.723 96.68 11.631C96.7172 11.539 96.7725 11.4555 96.8426 11.3854C96.9093 11.3136 96.9904 11.2567 97.0805 11.2184C97.1707 11.18 97.2679 11.1611 97.3659 11.1628C97.5668 11.1628 97.7596 11.2427 97.9017 11.3848C98.0438 11.5269 98.1237 11.7197 98.1237 11.9206V12.5943C98.5109 12.1576 98.9658 11.786 99.4709 11.4936C99.9947 11.2102 100.584 11.0692 101.179 11.0846C101.733 11.0711 102.278 11.2196 102.749 11.5117C103.191 11.7965 103.544 12.2011 103.765 12.6785C104.004 13.1861 104.126 13.7412 104.12 14.3024V18.9696C104.122 19.0675 104.103 19.1647 104.065 19.2549C104.026 19.345 103.969 19.4261 103.898 19.4928C103.827 19.5629 103.744 19.6183 103.652 19.6554C103.56 19.6926 103.461 19.711 103.362 19.7093C103.265 19.711 103.168 19.6929 103.077 19.6563C102.987 19.6197 102.905 19.5653 102.836 19.4963C102.767 19.4273 102.712 19.3451 102.675 19.2546C102.639 19.1641 102.621 19.0671 102.622 18.9696V14.4407C102.622 13.1055 102.021 12.4379 100.818 12.4379C100.295 12.4298 99.7821 12.5785 99.3446 12.8649C98.8859 13.1823 98.4799 13.57 98.1417 14.0137V18.9455C98.1435 19.0434 98.1245 19.1407 98.0862 19.2308C98.0478 19.321 97.9909 19.402 97.9192 19.4688C97.849 19.5389 97.7655 19.5942 97.6736 19.6314C97.5816 19.6686 97.4831 19.6869 97.3839 19.6853C97.2857 19.6931 97.1869 19.6806 97.0938 19.6485C97.0007 19.6164 96.9151 19.5655 96.8426 19.4988Z" fill="#F18182"/>
</svg>
