<svg width="29" height="30" viewBox="0 0 29 30" fill="none" xmlns="http://www.w3.org/2000/svg">
<path d="M15.0105 30C12.4822 30.0017 9.99452 29.3644 7.77854 28.1472C5.56256 26.9301 3.69019 25.1725 2.33539 23.0379C0.9806 20.9032 0.187344 18.4608 0.0293285 15.9375C-0.128687 13.4142 0.353664 10.8918 1.43157 8.60487C2.50947 6.3179 4.14795 4.34049 6.19477 2.85636C8.24159 1.37223 10.6303 0.429546 13.1391 0.115886C15.6478 -0.197774 18.1951 0.127771 20.5443 1.06227C22.8935 1.99678 24.9684 3.50991 26.5762 5.4611C27.0843 6.07602 27.3272 6.86758 27.2516 7.66163C27.1761 8.45569 26.7882 9.18721 26.1732 9.69526C25.5583 10.2033 24.7668 10.4463 23.9727 10.3707C23.1787 10.2951 22.4471 9.90721 21.9391 9.29229C20.7574 7.85744 19.1598 6.82439 17.3664 6.33548C15.5731 5.84657 13.6722 5.92587 11.9258 6.56244C10.1794 7.19902 8.67336 8.36155 7.61527 9.88983C6.55718 11.4181 5.9991 13.2369 6.01792 15.0956C6.03675 16.9544 6.63155 18.7615 7.72038 20.268C8.8092 21.7746 10.3384 22.9064 12.0974 23.5074C13.8563 24.1085 15.7584 24.1493 17.5415 23.6242C19.3246 23.099 20.901 22.0338 22.0534 20.5754C22.2986 20.2657 22.6024 20.0075 22.9475 19.8153C23.2925 19.6231 23.6721 19.5007 24.0644 19.4552C24.4568 19.4097 24.8542 19.4419 25.2341 19.55C25.614 19.6581 25.9689 19.8399 26.2785 20.0852C26.5881 20.3304 26.8464 20.6342 27.0386 20.9793C27.2308 21.3244 27.3531 21.7039 27.3986 22.0962C27.4442 22.4886 27.412 22.886 27.3039 23.2659C27.1958 23.6458 27.0139 24.0007 26.7687 24.3103C25.3685 26.0882 23.5823 27.5244 21.5452 28.5101C19.5081 29.4958 17.2735 30.0053 15.0105 30Z" fill="#138175"/>
<path d="M26.6303 5.4611C25.223 3.75485 23.4558 2.38092 21.4553 1.43773C19.4547 0.494543 17.2703 0.00543213 15.0586 0.00543213C12.8468 0.00543213 10.6625 0.494543 8.66191 1.43773C6.66135 2.38092 4.89414 3.75485 3.48683 5.4611C2.97878 6.07602 2.73582 6.86758 2.81139 7.66164C2.88696 8.4557 3.27487 9.18721 3.88979 9.69526C4.50471 10.2033 5.29627 10.4463 6.09033 10.3707C6.88439 10.2951 7.6159 9.90721 8.12395 9.29229C9.15612 8.03846 10.5094 7.08845 12.0393 6.5437V14.9639C12.0393 15.7615 12.3562 16.5264 12.9201 17.0903C13.4841 17.6543 14.249 17.9711 15.0466 17.9711C15.8441 17.9711 16.609 17.6543 17.173 17.0903C17.7369 16.5264 18.0538 15.7615 18.0538 14.9639V6.5437C19.5881 7.08653 20.9457 8.03668 21.9812 9.29229C22.4892 9.90721 23.2208 10.2951 24.0148 10.3707C24.8089 10.4463 25.6004 10.2033 26.2153 9.69526C26.8303 9.18721 27.2182 8.4557 27.2937 7.66164C27.3693 6.86758 27.1264 6.07602 26.6183 5.4611H26.6303Z" fill="#61C1B8"/>
<path d="M25.6921 18.0433C27.3695 18.0433 28.7294 16.6835 28.7294 15.006C28.7294 13.3286 27.3695 11.9688 25.6921 11.9688C24.0146 11.9688 22.6548 13.3286 22.6548 15.006C22.6548 16.6835 24.0146 18.0433 25.6921 18.0433Z" fill="#F18182"/>
</svg>
