<svg width="12" height="13" viewBox="0 0 12 13" fill="none" xmlns="http://www.w3.org/2000/svg">
<path d="M4.02429 4.0229C4.02959 4.0282 4.03426 4.03385 4.03918 4.03936C5.17089 3.14799 6.77688 3.15101 7.90543 4.04836C7.91 4.04325 7.91431 4.03802 7.91921 4.03312L9.97461 1.97769C7.70509 -0.0285385 4.27584 -0.0174751 2.00977 2.00833L4.02429 4.0229Z" fill="#138175"/>
<path d="M10.502 2.50513L8.44662 4.56056C8.44095 4.56623 8.43488 4.57129 8.42895 4.57654C9.30838 5.70383 9.30531 7.29598 8.41992 8.42012C8.42545 8.42505 8.4311 8.42971 8.4364 8.43501L10.4714 10.47C12.4972 8.2039 12.5082 4.77465 10.502 2.50513Z" fill="#138175"/>
<path d="M3.49777 8.43503C3.50307 8.42973 3.50872 8.42505 3.51425 8.42015C2.62586 7.29223 2.62586 5.69316 3.51423 4.56524C3.50872 4.56035 3.50307 4.55566 3.49777 4.55036L1.48601 2.53857C-0.495258 4.80123 -0.495774 8.19169 1.48709 10.4457L3.49777 8.43503Z" fill="#138175"/>
<path d="M7.91032 8.96277C7.90502 8.95747 7.90033 8.95182 7.89543 8.94629C6.76749 9.83466 5.16847 9.83466 4.04053 8.94629C4.03563 8.95182 4.03094 8.95747 4.02565 8.96277L2.01367 10.9747C4.26754 12.9768 7.6726 12.9826 9.94252 10.995L7.91032 8.96277Z" fill="#138175"/>
</svg>
