<svg width="12" height="12" viewBox="0 0 12 12" fill="none" xmlns="http://www.w3.org/2000/svg">
<path d="M12 6C12 2.69166 9.30834 3.20978e-08 6 7.15493e-08C2.69166 1.11001e-07 3.20978e-08 2.69166 7.15493e-08 6C1.11001e-07 9.30834 2.69166 12 6 12C9.30834 12 12 9.30836 12 6ZM5.424 9.44559C4.9774 8.99845 4.9774 8.21951 5.424 7.77237L5.892 7.30437L2.86956 7.30437C2.15061 7.30437 1.56522 6.71949 1.56522 6.00002C1.56522 5.28056 2.15059 4.69566 2.86956 4.69566L5.892 4.69566L5.42451 4.22817C4.97791 3.78103 4.97791 3.00209 5.42451 2.55495C5.64783 2.33113 5.94522 2.20852 6.26139 2.20852C6.57757 2.20852 6.87444 2.33113 7.09827 2.55495L9.99026 5.44696C10.2955 5.75167 10.2955 6.24887 9.99026 6.55357L7.09825 9.44559C6.87493 9.66941 6.57754 9.79201 6.26137 9.79201C5.94522 9.79201 5.64783 9.66887 5.424 9.44559Z" fill="#6F6571"/>
</svg>
