<svg width="82" height="72" viewBox="0 0 82 72" fill="none" xmlns="http://www.w3.org/2000/svg">
<g opacity="0.2">
<path d="M65.7573 14.8892C65.7573 15.0671 65.8335 15.2322 65.9478 15.3465C66.0621 15.4609 66.2272 15.5371 66.4049 15.5371H80.424C80.7795 15.5371 81.0843 15.2449 81.0843 14.8765C81.0843 14.6987 81.0081 14.5336 80.8938 14.4193C80.7795 14.3049 80.6144 14.2287 80.4367 14.2287H79.7763C79.5097 13.619 78.9128 13.1998 78.2017 13.1998C77.7319 13.1998 77.3002 13.3904 76.9954 13.7079C76.5763 13.0093 75.8271 12.5393 74.951 12.5393C74.7097 12.5393 74.4811 12.5774 74.2652 12.6409C73.7827 11.7772 72.8811 11.1929 71.8525 11.1929C70.6081 11.1929 69.5541 12.0312 69.2367 13.1871C69.0081 13.0728 68.7414 13.0093 68.4748 13.0093C67.7002 13.0093 67.0399 13.5301 66.8367 14.2414H66.4176C66.0494 14.2287 65.7573 14.5336 65.7573 14.8892Z" fill="#65A4C5"/>
</g>
<g opacity="0.2">
<path d="M4.55127 8.35102C4.55127 8.53022 4.62293 8.6915 4.74833 8.81695C4.87373 8.94239 5.03496 9.01407 5.21411 9.01407H19.0979C19.4562 9.01407 19.7428 8.72734 19.7428 8.36894C19.7428 8.18974 19.6712 8.02846 19.5458 7.90302C19.4204 7.77758 19.2591 7.7059 19.08 7.7059H18.4171C18.1663 7.09661 17.5573 6.68445 16.8586 6.68445C16.3928 6.68445 15.9629 6.88157 15.6583 7.18621C15.2463 6.48733 14.4939 6.0214 13.634 6.0214C13.4011 6.0214 13.1682 6.05724 12.9532 6.12892C12.5053 5.28668 11.6096 4.69531 10.5706 4.69531C9.33446 4.69531 8.29542 5.53756 7.97295 6.66653C7.74006 6.55901 7.48926 6.48733 7.22054 6.48733C6.45021 6.48733 5.80529 7.00701 5.59031 7.7059H5.19619C4.8379 7.68798 4.55127 7.99262 4.55127 8.35102Z" fill="#65A4C5"/>
</g>
<g opacity="0.2">
<path d="M55.2651 2.20417C55.2651 2.31169 55.301 2.40129 55.3726 2.47297C55.4443 2.54465 55.5339 2.58049 55.6413 2.58049H63.9895C64.2045 2.58049 64.3837 2.40129 64.3837 2.18625C64.3837 2.07873 64.3478 1.98913 64.2762 1.91745C64.2045 1.84577 64.1149 1.80993 64.0074 1.80993H63.6133C63.4521 1.45153 63.0938 1.20065 62.6818 1.20065C62.3951 1.20065 62.1443 1.30817 61.9652 1.50529C61.7144 1.09313 61.2665 0.806405 60.747 0.806405C60.6037 0.806405 60.4604 0.824324 60.335 0.860164C60.0662 0.340481 59.5288 0 58.9018 0C58.1494 0 57.5403 0.501763 57.3432 1.18273C57.1999 1.11105 57.0566 1.07521 56.8774 1.07521C56.4117 1.07521 56.0175 1.37985 55.8921 1.80993H55.6593C55.4443 1.80993 55.2651 1.98913 55.2651 2.20417Z" fill="#65A4C5"/>
</g>
<g opacity="0.2">
<path d="M34.7742 5.10774C34.7742 5.21526 34.81 5.30486 34.8817 5.37654C34.9533 5.44822 35.0429 5.48407 35.1504 5.48407H43.4986C43.7135 5.48407 43.8927 5.30486 43.8927 5.08982C43.8927 4.9823 43.8569 4.8927 43.7852 4.82102C43.7135 4.74934 43.624 4.7135 43.5165 4.7135H43.1224C42.9611 4.3551 42.6028 4.10421 42.1908 4.10421C41.9042 4.10421 41.6534 4.21173 41.4742 4.40886C41.2234 3.99669 40.7756 3.70997 40.256 3.70997C40.1127 3.70997 39.9694 3.72789 39.844 3.76373C39.5753 3.24405 39.0378 2.90356 38.4108 2.90356C37.6584 2.90356 37.0493 3.40533 36.8523 4.08629C36.7089 4.01461 36.5656 3.97877 36.4044 3.97877C35.9386 3.97877 35.5445 4.28342 35.4191 4.7135H35.1683C34.9533 4.7135 34.7742 4.8927 34.7742 5.10774Z" fill="#65A4C5"/>
</g>
<path opacity="0.1" d="M42.6719 72C58.1259 72 70.6539 59.3251 70.6539 43.6898C70.6539 28.0545 58.1259 15.3796 42.6719 15.3796C27.2179 15.3796 14.6899 28.0545 14.6899 43.6898C14.6899 59.3251 27.2179 72 42.6719 72Z" fill="#138175"/>
<path opacity="0.15" d="M42.7123 67.3299C55.5943 67.3299 66.0373 56.7644 66.0373 43.7312C66.0373 30.6981 55.5943 20.1326 42.7123 20.1326C29.8302 20.1326 19.3872 30.6981 19.3872 43.7312C19.3872 56.7644 29.8302 67.3299 42.7123 67.3299Z" fill="#138175"/>
<path opacity="0.2" d="M42.7727 62.2681C52.8592 62.2681 61.0359 53.9955 61.0359 43.7907C61.0359 33.5859 52.8592 25.3132 42.7727 25.3132C32.6862 25.3132 24.5095 33.5859 24.5095 43.7907C24.5095 53.9955 32.6862 62.2681 42.7727 62.2681Z" fill="white"/>
<path d="M62.6121 58.0185C62.6121 58.0185 62.6121 58.0365 62.63 58.0365C62.7016 58.1619 62.845 58.2157 62.9704 58.144C67.5386 55.671 71.2469 53.2876 73.9699 51.0834C77.1408 48.5029 78.986 46.1196 79.4339 44.0408C79.4697 43.8975 79.3801 43.772 79.2368 43.7362C79.0935 43.7003 78.9681 43.7899 78.9323 43.9333C78.1261 47.6428 72.5368 52.4095 62.7196 57.696C62.5942 57.7497 62.5583 57.8931 62.6121 58.0185Z" fill="#138175"/>
<path d="M76.6038 48.5391C76.6038 48.5391 77.7682 50.3311 80.8495 48.1449C80.8495 48.1449 78.2698 45.9048 76.6038 48.5391Z" fill="#138175"/>
<path d="M75.0622 49.7578C75.0622 49.7578 76.9253 48.6826 74.9189 45.4928C74.9189 45.4749 72.5362 47.9299 75.0622 49.7578Z" fill="#138175"/>
<path d="M78.6092 45.4923C78.6092 45.4923 80.7231 45.0981 79.899 41.4245C79.899 41.4066 76.8356 42.9298 78.6092 45.4923Z" fill="#138175"/>
<path d="M72.0713 52.2842C72.0713 52.2842 72.5729 54.3809 76.2096 53.3594C76.1916 53.3594 74.5256 50.3668 72.0713 52.2842Z" fill="#138175"/>
<path d="M70.3155 53.2694C70.3155 53.2694 72.3398 52.5347 70.9067 49.0403C70.9067 49.0403 68.1299 51.0473 70.3155 53.2694Z" fill="#138175"/>
<path d="M68.0581 54.8646C68.0581 54.8646 68.506 56.9613 72.1785 56.0115C72.1785 56.0295 70.5661 53.0189 68.0581 54.8646Z" fill="#138175"/>
<path d="M33.5164 33.8077C33.5164 33.8077 33.4984 33.8077 33.5164 33.8077C33.391 33.8973 33.2297 33.8794 33.1402 33.754C30.1663 29.489 27.927 25.6899 26.4939 22.5001C24.8278 18.7548 24.2545 15.8159 24.792 13.7372C24.8278 13.5938 24.9711 13.5221 25.0965 13.558C25.2398 13.5938 25.3115 13.7372 25.2757 13.8626C24.3262 17.5362 27.1746 24.31 33.5522 33.4493C33.6418 33.5748 33.6238 33.7181 33.5164 33.8077Z" fill="#138175"/>
<path d="M25.2941 19.0411C25.2941 19.0411 23.431 20.1163 21.6754 16.7832C21.6575 16.7653 24.9716 15.923 25.2941 19.0411Z" fill="#138175"/>
<path d="M26.1175 20.7973C26.1175 20.7973 24.9351 19.0053 28.1777 17.052C28.1598 17.052 29.1988 20.3135 26.1175 20.7973Z" fill="#138175"/>
<path d="M24.8631 15.4037C24.8631 15.4037 23.1612 14.1135 25.5618 11.1925C25.5618 11.1746 27.604 13.9163 24.8631 15.4037Z" fill="#138175"/>
<path d="M27.659 24.4177C27.659 24.4177 26.2795 26.0664 23.4849 23.5217C23.4849 23.5038 26.3154 21.6043 27.659 24.4177Z" fill="#138175"/>
<path d="M28.7688 26.0844C28.7688 26.0844 27.2998 24.5253 30.1483 22.0344C30.1483 22.0523 31.7247 25.0808 28.7688 26.0844Z" fill="#138175"/>
<path d="M30.058 28.539C30.058 28.539 28.7144 30.2055 25.866 27.7146C25.866 27.7146 28.6606 25.7434 30.058 28.539Z" fill="#138175"/>
<path d="M64.8315 30.9046C64.5986 38.001 59.0093 41.0295 57.9702 41.6925C56.6266 42.5348 55.086 42.714 54.1544 42.714C53.9574 42.714 53.7782 42.714 53.6528 42.6961C53.4199 42.6781 53.2766 42.6602 53.2766 42.6602C53.2766 42.6602 53.5991 38.7178 54.0649 34.4349C54.4769 30.6179 56.2683 24.2383 62.0368 18.1992C62.0189 18.2171 65.0823 23.3781 64.8315 30.9046Z" fill="#138175"/>
<path d="M61.6623 23.3427C61.6623 23.3785 61.3398 25.4931 60.5516 28.4678C60.5516 28.4858 60.5516 28.4858 60.5516 28.5037C60.4441 28.8979 60.3366 29.2922 60.2291 29.7043C60.1933 29.8656 60.1395 30.009 60.0858 30.1703C59.9425 30.6541 59.7812 31.1559 59.62 31.6755C59.4588 32.1773 59.2796 32.7149 59.0646 33.2704C59.0646 33.2884 59.0646 33.2884 59.0467 33.3063C58.8318 33.8976 58.5989 34.5069 58.3481 35.1162C58.2764 35.2775 58.2047 35.4388 58.151 35.618C57.8106 36.4065 57.4523 37.2129 57.0403 38.0193C57.0224 38.0551 57.0045 38.073 57.0045 38.1089C56.7178 38.6823 56.4133 39.2558 56.0908 39.8113C55.9833 39.9905 55.8938 40.1697 55.7863 40.331C55.2847 41.1553 54.7472 41.9617 54.174 42.7323C53.9769 42.7323 53.7978 42.7323 53.6724 42.7144C54.8189 41.2449 55.7863 39.6142 56.6283 37.9655C56.6999 37.8222 56.7716 37.6609 56.8432 37.5175C57.5598 36.0481 58.151 34.5965 58.6526 33.2167C58.7064 33.0375 58.778 32.8762 58.8318 32.7149C58.9751 32.3207 59.1005 31.9264 59.2259 31.5501C59.5842 30.457 59.8887 29.4176 60.1395 28.4678C60.1933 28.2886 60.2291 28.1274 60.2649 27.9661C60.9636 25.2243 61.2681 23.3248 61.2681 23.2889C61.2861 23.1814 61.3935 23.0918 61.501 23.1097C61.5906 23.1276 61.6802 23.2352 61.6623 23.3427Z" fill="#2B5250"/>
<path d="M60.3903 28.6106C60.3186 28.6285 60.247 28.5927 60.1932 28.5389C60.1395 28.4672 58.9034 26.8723 58.6168 26.0122C58.5809 25.9047 58.6347 25.7971 58.7422 25.7613C58.8497 25.7255 58.9571 25.7792 58.993 25.8867C59.2438 26.6752 60.4799 28.2701 60.4978 28.288C60.5694 28.3776 60.5515 28.5031 60.462 28.5748C60.444 28.5927 60.4082 28.6106 60.3903 28.6106Z" fill="#2B5250"/>
<path d="M59.9439 30.1878C59.8364 30.2058 59.7289 30.1341 59.711 30.0445C59.6752 29.937 59.7468 29.8294 59.8543 29.7936C59.8722 29.7936 61.8249 29.256 62.7027 28.6109C62.7923 28.5392 62.9177 28.5571 62.9894 28.6467C63.061 28.7363 63.0431 28.8618 62.9535 28.9334C62.004 29.6323 60.0514 30.152 59.9439 30.1878C59.9439 30.1878 59.9618 30.1878 59.9439 30.1878Z" fill="#2B5250"/>
<path d="M58.9034 33.3955C58.8138 33.4134 58.7421 33.3776 58.6884 33.3059C58.6167 33.1984 57.1119 30.7075 56.7715 28.808C56.7536 28.7005 56.8253 28.5929 56.9328 28.575C57.0403 28.5571 57.1477 28.6288 57.1657 28.7363C57.506 30.5641 59.0109 33.073 59.0288 33.1088C59.0825 33.1984 59.0646 33.3238 58.9571 33.3955C58.9392 33.3776 58.9213 33.3955 58.9034 33.3955Z" fill="#2B5250"/>
<path d="M58.0261 35.6176C57.9187 35.6355 57.8112 35.5638 57.7933 35.4742C57.7574 35.3667 57.8291 35.2592 57.9366 35.2234C57.9545 35.2234 60.3192 34.5962 61.9136 33.0909C62.0032 33.0192 62.1286 33.0192 62.2002 33.0909C62.2719 33.1805 62.2719 33.3059 62.2002 33.3776C60.5342 34.9546 58.1515 35.5818 58.0261 35.6176C58.0441 35.6176 58.0441 35.6176 58.0261 35.6176Z" fill="#2B5250"/>
<path d="M56.8789 38.1443C56.7893 38.1622 56.7176 38.1263 56.6639 38.0547C56.6101 37.9651 55.4278 36.0118 55.0516 33.8793C55.0337 33.7717 55.1053 33.6642 55.2128 33.6463C55.3203 33.6284 55.4278 33.7001 55.4457 33.8076C55.804 35.8505 57.0043 37.8217 57.0043 37.8396C57.058 37.9292 57.0401 38.0547 56.9326 38.1263C56.9147 38.1443 56.8968 38.1443 56.8789 38.1443Z" fill="#2B5250"/>
<path d="M55.6785 40.3304C55.571 40.3484 55.4635 40.2767 55.4456 40.1692C55.4098 40.0616 55.4814 39.9541 55.5889 39.9183C55.6068 39.9183 57.9357 39.3269 59.9959 37.5707C60.0855 37.4991 60.2109 37.4991 60.2825 37.5887C60.3542 37.6783 60.3542 37.8037 60.2646 37.8754C58.1149 39.7212 55.786 40.3125 55.6785 40.3304Z" fill="#2B5250"/>
<path d="M31.315 48.9682C30.8134 49.3087 30.2759 49.5954 29.7385 49.8283C29.5952 49.9 29.434 49.9538 29.2906 50.0255C24.7403 51.8354 19.4914 50.796 19.4914 50.796C19.4914 50.796 9.99664 49.8463 10.5162 45.2587C11.0357 40.6711 15.2456 43.5205 16.8042 42.732C18.3627 41.9435 14.1349 39.0583 10.8028 35.9582C7.47069 32.858 8.63514 30.1341 10.4445 30.2416C12.2539 30.3671 12.2001 27.9837 10.1937 26.0842C8.06187 24.0592 4.74767 18.8803 7.90064 17.805C11.4836 16.5686 13.6154 24.0771 16.5892 23.9696C19.563 23.8621 16.8758 20.8515 19.1331 20.5648C21.3903 20.278 23.8983 25.1523 23.1101 29.4352C22.3219 33.7181 24.9732 37.2305 25.7794 35.9761C26.5855 34.7217 25.851 30.5821 27.7679 29.937C31.4404 28.7005 36.134 45.7784 31.315 48.9682Z" fill="#138175"/>
<path d="M29.7376 49.8286C29.5943 49.9002 29.433 49.954 29.2897 50.0257C23.7362 41.1731 10.9273 22.805 10.784 22.6079C10.7123 22.5003 10.7302 22.3391 10.8377 22.2674C10.9452 22.1957 11.1064 22.2136 11.1781 22.3211C11.3035 22.5362 24.202 40.9939 29.7376 49.8286Z" fill="#2B5250"/>
<path d="M17.9508 32.7688C17.9149 32.7688 17.8612 32.7688 17.8254 32.7509C17.7 32.6971 17.6462 32.5537 17.682 32.4283C17.7 32.3925 19.0615 28.9518 19.1869 26.658C19.1869 26.5326 19.3123 26.425 19.4377 26.425C19.5631 26.425 19.6706 26.5505 19.6706 26.6759C19.5452 29.0593 18.1836 32.4641 18.1299 32.6075C18.112 32.6971 18.0403 32.7688 17.9508 32.7688Z" fill="#2B5250"/>
<path d="M19.3826 35.1157C19.2213 35.1336 15.6563 35.3666 13.0408 34.596C12.9154 34.5602 12.8438 34.4168 12.8796 34.2914C12.9154 34.1659 13.0587 34.0942 13.1841 34.1301C15.7101 34.8648 19.3109 34.6318 19.3467 34.6318C19.4721 34.6139 19.5975 34.7214 19.5975 34.8648C19.5975 34.9902 19.508 35.0978 19.3826 35.1157Z" fill="#2B5250"/>
<path d="M25.5996 44.0945C25.5459 44.0945 25.4742 44.0945 25.4205 44.0408C25.313 43.9512 25.2951 43.8078 25.3667 43.7003C25.3846 43.6644 27.8748 40.3313 28.0002 38.0196C28.0002 37.8941 28.1256 37.7866 28.251 37.7866C28.3764 37.7866 28.4839 37.9121 28.4839 38.0375C28.3585 40.4926 25.8683 43.8436 25.7608 43.987C25.725 44.0587 25.6713 44.0945 25.5996 44.0945Z" fill="#2B5250"/>
<path d="M23.0922 46.8003C21.7127 46.9795 20.1721 47.0511 18.8285 46.8003C18.7031 46.7823 18.6135 46.6569 18.6314 46.5135C18.6493 46.3881 18.7747 46.2985 18.9181 46.3164C22.1248 46.9078 26.7288 45.5638 26.7826 45.5458C26.908 45.51 27.0513 45.5817 27.0871 45.7071C27.1229 45.8326 27.0513 45.9759 26.9259 46.0118C26.8005 46.0476 25.1165 46.5315 23.0922 46.8003Z" fill="#2B5250"/>
<path d="M50.6984 57.6415C51.1642 58.0179 51.6837 58.3404 52.2032 58.6271C52.3465 58.6988 52.4898 58.7884 52.6332 58.8601C57.0043 61.0464 62.3429 60.4729 62.3429 60.4729C62.3429 60.4729 71.8913 60.3475 71.7659 55.7241C71.6405 51.1186 67.1977 53.5737 65.7108 52.6597C64.2239 51.7458 68.6846 49.237 72.2854 46.4414C75.8684 43.6459 74.9368 40.8145 73.1274 40.7787C71.3181 40.7428 71.5689 38.3774 73.7365 36.657C76.0296 34.8292 79.7737 29.9549 76.7283 28.6109C73.2528 27.0698 70.494 34.3633 67.5381 34.0049C64.5822 33.6465 67.5202 30.8688 65.2988 30.385C63.0774 29.9012 60.1573 34.5425 60.5693 38.8791C60.9813 43.2158 58.0434 46.4952 57.3447 45.1691C56.646 43.8609 57.7388 39.7931 55.8936 38.9867C52.3286 37.4276 46.166 54.0396 50.6984 57.6415Z" fill="#20B58D"/>
<path d="M52.2009 58.6271C52.3442 58.6988 52.4876 58.7884 52.6309 58.8601C58.9189 50.5093 73.2685 33.3239 73.4297 33.1447C73.5193 33.0372 73.5014 32.8938 73.3939 32.8042C73.2864 32.7146 73.1431 32.7325 73.0535 32.84C72.9102 33.0192 58.471 50.2943 52.2009 58.6271Z" fill="#138175"/>
<path d="M65.4052 42.6421C65.441 42.6421 65.4948 42.6421 65.5306 42.6421C65.656 42.6062 65.7276 42.4629 65.6918 42.3374C65.6739 42.3016 64.6169 38.7534 64.6886 36.4596C64.6886 36.3163 64.5811 36.2087 64.4557 36.2087C64.3124 36.2087 64.2049 36.3163 64.2049 36.4417C64.1332 38.8251 65.1902 42.3374 65.226 42.4808C65.244 42.5525 65.3156 42.6241 65.4052 42.6421Z" fill="#138175"/>
<path d="M63.776 44.8465C63.776 44.8465 63.7939 44.8465 63.776 44.8465C63.9372 44.8644 67.4664 45.402 70.1357 44.8823C70.2611 44.8644 70.3507 44.721 70.3327 44.5956C70.3148 44.4702 70.1715 44.3806 70.0461 44.3985C67.4664 44.9182 63.9014 44.3806 63.8656 44.3626C63.7402 44.3447 63.6148 44.4343 63.5789 44.5598C63.561 44.7031 63.6506 44.8286 63.776 44.8465Z" fill="#138175"/>
<path d="M56.8051 53.2684C56.8589 53.2864 56.9305 53.2684 56.9843 53.2326C57.0918 53.1609 57.1276 53.0176 57.0559 52.8921C57.038 52.8563 54.8524 49.326 54.9241 47.0143C54.9241 46.871 54.8166 46.7634 54.6912 46.7634C54.5479 46.7634 54.4404 46.871 54.4404 46.9964C54.3508 49.4515 56.5543 52.9996 56.6439 53.1609C56.6976 53.2147 56.7514 53.2505 56.8051 53.2684Z" fill="#18C5D2"/>
<path d="M59.0815 56.1721C60.443 56.4588 61.9837 56.6739 63.3273 56.5305C63.4527 56.5126 63.5602 56.405 63.5423 56.2617C63.5244 56.1362 63.4169 56.0287 63.2736 56.0466C60.031 56.3692 55.5524 54.631 55.5165 54.613C55.3911 54.5593 55.2478 54.6309 55.1941 54.7564C55.1403 54.8818 55.212 55.0252 55.3374 55.079C55.4628 55.0969 57.0751 55.742 59.0815 56.1721Z" fill="#138175"/>
<path d="M9.08269 55.366C15.4961 60.3478 22.2141 57.6418 23.5577 57.2118C25.2954 56.6383 26.5494 55.4198 27.2481 54.6133C27.3914 54.4341 27.5168 54.2908 27.6063 54.1653C27.7676 53.9503 27.8572 53.8069 27.8572 53.8069C27.8572 53.8069 24.1668 51.2085 20.0643 48.5026C16.4097 46.0834 9.49472 42.9832 0 43.6641C0 43.6283 2.29306 50.0975 9.08269 55.366Z" fill="#20B58D"/>
<path d="M4.74685 47.0518C4.78267 47.0697 6.86076 48.3241 10.0496 49.8115C10.0675 49.8115 10.0675 49.8294 10.0854 49.8294C10.4974 50.0265 10.9274 50.2237 11.3752 50.4208C11.5365 50.4925 11.7156 50.5641 11.8948 50.6358C12.4322 50.8688 12.9875 51.1018 13.5608 51.3168C14.1341 51.5498 14.7253 51.7648 15.3523 51.9978C15.3702 51.9978 15.3702 52.0157 15.3881 52.0157C16.0689 52.2666 16.7675 52.4995 17.502 52.7325C17.6991 52.7862 17.8961 52.8579 18.0753 52.9117C19.0248 53.1984 19.9921 53.4672 20.9954 53.7002C21.0312 53.7002 21.067 53.7181 21.1028 53.7181C21.8194 53.8794 22.536 54.0407 23.2705 54.1661C23.5034 54.2019 23.7363 54.2378 23.9513 54.2736C25.0441 54.4349 26.1368 54.5603 27.2475 54.6141C27.3909 54.4349 27.5163 54.2915 27.6058 54.1661C25.4919 54.0944 23.3243 53.7539 21.282 53.288C21.1028 53.2522 20.9058 53.1984 20.7266 53.1626C18.9173 52.7146 17.1975 52.177 15.6389 51.6214C15.4418 51.5498 15.2448 51.4781 15.0656 51.4064C14.6178 51.2451 14.1699 51.0659 13.7579 50.9046C12.5397 50.4208 11.4111 49.9369 10.3899 49.4531C10.2108 49.3635 10.0316 49.2918 9.8525 49.2022C6.93242 47.8224 5.05139 46.6934 5.01556 46.6755C4.90808 46.6038 4.76476 46.6396 4.6931 46.7472C4.60353 46.8368 4.63936 46.9801 4.74685 47.0518Z" fill="#138175"/>
<path d="M10.3186 49.7751C10.3903 49.7213 10.4082 49.6317 10.3903 49.5421C10.3724 49.4525 9.87078 47.1946 9.31543 46.3165C9.24378 46.209 9.10046 46.1731 8.99297 46.2448C8.88548 46.3165 8.84966 46.4599 8.92131 46.5674C9.42292 47.3738 9.92453 49.6138 9.92453 49.6496C9.96036 49.7751 10.0858 49.8647 10.2112 49.8288C10.247 49.8109 10.2828 49.8109 10.3186 49.7751Z" fill="#138175"/>
<path d="M12.0197 50.5455C12.1093 50.4739 12.1272 50.3305 12.0556 50.223C11.9839 50.1155 11.8406 50.0975 11.7331 50.1692C11.7152 50.1871 9.83414 51.5132 8.61595 51.8C8.49055 51.8358 8.41889 51.9612 8.43681 52.0867C8.47264 52.2121 8.59804 52.2838 8.72344 52.2659C10.0133 51.9433 11.9122 50.5993 12.0197 50.5455C12.0018 50.5455 12.0018 50.5455 12.0197 50.5455Z" fill="#138175"/>
<path d="M15.5863 51.9615C15.658 51.9078 15.6938 51.8003 15.658 51.7107C15.6043 51.5852 14.5115 48.4313 13.0962 46.7289C13.0066 46.6213 12.8633 46.6213 12.7738 46.693C12.6663 46.7826 12.6663 46.926 12.7379 47.0156C14.0994 48.6463 15.1922 51.8003 15.2101 51.8361C15.246 51.9615 15.3893 52.0153 15.5147 51.9795C15.5505 51.9974 15.5684 51.9795 15.5863 51.9615Z" fill="#138175"/>
<path d="M18.1644 52.8212C18.254 52.7495 18.2719 52.6061 18.2003 52.4986C18.1286 52.3911 17.9853 52.3732 17.8778 52.4449C17.8599 52.4628 15.5847 54.0935 13.0946 54.3802C12.9692 54.3982 12.8796 54.5057 12.8975 54.649C12.9155 54.7745 13.0229 54.8641 13.1663 54.8462C15.7639 54.5415 18.0569 52.8929 18.1644 52.8212Z" fill="#138175"/>
<path d="M21.2465 53.6461C21.3182 53.5923 21.354 53.4848 21.3182 53.3952C21.2824 53.2877 20.4225 50.7968 18.846 48.9331C18.7564 48.8435 18.6131 48.8256 18.5235 48.8973C18.416 48.9869 18.416 49.1302 18.4877 49.2198C20.0104 51.0298 20.8703 53.5027 20.8882 53.5386C20.9241 53.664 21.0674 53.7178 21.1928 53.6819C21.1928 53.6819 21.2286 53.664 21.2465 53.6461Z" fill="#138175"/>
<path d="M24.0405 54.2018C24.1301 54.1301 24.148 53.9868 24.0764 53.8792C24.0047 53.7717 23.8614 53.7538 23.7539 53.8255C23.736 53.8434 21.5325 55.4383 18.4691 55.9759C18.3437 55.9938 18.2541 56.1193 18.2721 56.2447C18.29 56.3701 18.4154 56.4597 18.5408 56.4418C21.7117 55.8863 23.9331 54.2735 24.0405 54.2018C24.0405 54.2018 24.0226 54.2018 24.0405 54.2018Z" fill="#138175"/>
<path d="M38.9842 25.9636L38.9877 25.9628L39.4489 25.859C40.0509 25.7911 40.6573 25.7697 41.2626 25.7949C42.1858 25.8423 43.0514 25.9066 43.9361 26.0385L44.0206 26.0511L44.1058 26.0564C44.4356 26.0771 44.8189 26.1421 45.3059 26.2319L45.3222 26.2349L45.3386 26.2377L45.6724 26.2935C45.753 26.3084 45.8311 26.3226 45.9068 26.3364C46.4166 26.4293 46.8203 26.5029 47.2135 26.6118L47.2211 26.6139L47.2287 26.616C47.9386 26.8065 48.6386 27.0327 49.3259 27.2937C49.9242 27.5238 50.4926 27.826 51.0185 28.1939C51.019 28.1943 51.0195 28.1946 51.0199 28.1949L51.3084 28.3976L51.327 28.4107L51.3459 28.4233C51.6097 28.5999 51.8748 28.786 52.141 28.9819C52.5887 29.3166 52.9972 29.6268 53.4282 29.9784C53.781 30.2661 54.1137 30.5718 54.5003 30.9271C54.5624 30.9841 54.6259 31.0425 54.6911 31.1022L54.7141 31.1233L54.7378 31.1437L54.7836 31.1831C55.1927 31.5567 55.5867 31.9261 55.9562 32.2971L55.9589 32.2997C56.621 32.9619 57.2475 33.6589 57.8359 34.3878C58.0706 34.7015 58.2473 35.0555 58.3573 35.4329L58.3703 35.4775L58.3853 35.5214C58.4931 35.8363 58.615 36.1835 58.7493 36.5374L58.9507 37.1071C59.0041 37.2645 59.0532 37.4093 59.1021 37.5536C59.2039 37.8535 59.3048 38.151 59.4411 38.555C59.6412 39.1478 59.829 39.7231 60.0061 40.3034L60.0219 40.3549L60.0404 40.4056C60.1138 40.6066 60.1918 40.8741 60.2729 41.1907L60.2788 41.2137L60.2852 41.2365L60.409 41.6763L60.4188 41.7123C60.5362 42.144 60.6223 42.4611 60.6795 42.7767L60.6835 42.7988L60.688 42.8208C60.8167 43.4505 60.9074 44.0874 60.9595 44.728C60.9614 44.9925 60.934 45.2564 60.8778 45.5148L60.832 45.725V45.906C60.7169 46.5313 60.5864 47.1541 60.4404 47.7744C60.3162 48.2813 60.1729 48.7947 60.0181 49.3073L59.9542 49.5089L59.9502 49.5214L59.9464 49.5339C59.7975 50.0261 59.6424 50.5184 59.4811 51.0108C59.1815 51.8622 58.8261 52.6926 58.4171 53.4967L58.4029 53.5246L58.3896 53.5529C58.1535 54.0553 57.825 54.5079 57.4218 54.8868L56.9929 55.28C56.9913 55.2814 56.9897 55.2829 56.9881 55.2843C56.7276 55.5201 56.468 55.7588 56.2178 55.9889C55.7518 56.4176 55.3184 56.8162 54.9722 57.1097C54.8009 57.255 54.6285 57.4021 54.4578 57.5478C54.0436 57.9011 53.6389 58.2465 53.2803 58.5398C52.8771 58.8696 52.4643 59.185 52.0243 59.5213C51.9266 59.5959 51.8277 59.6716 51.7271 59.7486L51.7201 59.754L51.7131 59.7595L51.5382 59.896L51.5325 59.9005L51.5268 59.905L51.3423 60.0512L51.2917 60.0913L51.2437 60.1346C51.0338 60.3243 50.7908 60.5111 50.5335 60.6762L50.5288 60.6792L50.3928 60.7669L50.3332 60.8054L50.2764 60.848C50.157 60.9377 50.0257 61.0095 49.8867 61.0616L49.5573 61.1584C49.4373 61.1921 49.3346 61.2283 49.2725 61.2505L49.2554 61.2567H49.2471L49.0419 61.3002C48.3695 61.4428 47.7085 61.5735 47.0545 61.6845C45.9736 61.8653 44.8885 62.0278 43.7965 62.1817C43.7641 62.186 43.7325 62.1901 43.7016 62.1942C43.2594 62.2523 42.9702 62.2903 42.6963 62.2903H42.6589L42.6216 62.2917L40.8329 62.3585H40.3631C40.0005 62.3515 39.6407 62.2916 39.2949 62.1809L39.268 62.1723L39.2409 62.1644C38.1302 61.8428 37.0493 61.4249 36.0106 60.9152L35.9906 60.9054L35.9704 60.896C35.1231 60.5035 34.232 60.056 33.4608 59.632L32.4973 61.3847L33.4608 59.632C32.6826 59.2042 31.9086 58.7458 31.1379 58.2646L31.1289 58.259C30.8612 58.0938 30.6079 57.9059 30.372 57.6973C30.1973 57.5311 30.0332 57.3539 29.8806 57.1668L29.8749 57.1597L29.8691 57.1527L29.7309 56.9863L29.7233 56.9772L29.5949 56.8206L29.5949 56.8205C29.4977 56.7021 29.4119 56.5992 29.3341 56.5058C29.1532 56.2887 29.0149 56.1227 28.8753 55.9322L28.868 55.9222L28.8606 55.9123C28.3399 55.2197 27.8351 54.5177 27.346 53.8065L27.3146 53.7608L27.2807 53.717C26.9834 53.3321 26.7297 52.9336 26.4388 52.4531C26.0189 51.7552 25.6539 51.0254 25.3472 50.2702C25.187 49.8725 25.063 49.461 24.9768 49.0406C24.7868 48.1052 24.6389 47.109 24.5041 46.1427C24.4324 45.5833 24.3857 45.0566 24.3857 44.5653V44.5631V44.5609V44.5586V44.5564V44.5542V44.5519V44.5497V44.5475V44.5453V44.543V44.5408V44.5386V44.5363V44.5341V44.5319V44.5296V44.5274V44.5252V44.5229V44.5207V44.5185V44.5162V44.514V44.5118V44.5095V44.5073V44.5051V44.5028V44.5006V44.4984V44.4961V44.4939V44.4917V44.4894V44.4872V44.485V44.4827V44.4805V44.4783V44.476V44.4738V44.4716V44.4693V44.4671V44.4648V44.4626V44.4604V44.4581V44.4559V44.4537V44.4514V44.4492V44.4469V44.4447V44.4425V44.4402V44.438V44.4357V44.4335V44.4313V44.429V44.4268V44.4245V44.4223V44.4201V44.4178V44.4156V44.4133V44.4111V44.4089V44.4066V44.4044V44.4021V44.3999V44.3976V44.3954V44.3932V44.3909V44.3887V44.3864V44.3842V44.3819V44.3797V44.3775V44.3752V44.373V44.3707V44.3685V44.3662V44.364V44.3617V44.3595V44.3573V44.355V44.3528V44.3505V44.3483V44.346V44.3438V44.3415V44.3393V44.337V44.3348V44.3326V44.3303V44.3281V44.3258V44.3236V44.3213V44.3191V44.3168V44.3146V44.3123V44.3101V44.3078V44.3056V44.3033V44.3011V44.2988V44.2966V44.2943V44.2921V44.2898V44.2876V44.2853V44.2831V44.2808V44.2786V44.2763V44.2741V44.2718V44.2696V44.2673V44.2651V44.2628V44.2606V44.2583V44.2561V44.2538V44.2516V44.2493V44.2471V44.2448V44.2426V44.2403V44.2381V44.2358V44.2336V44.2313V44.2291V44.2268V44.2246V44.2223V44.2201V44.2178V44.2156V44.2133V44.2111V44.2088V44.2066V44.2043V44.2021V44.1998V44.1975V44.1953V44.193V44.1908V44.1885V44.1863V44.184V44.1818V44.1795V44.1773V44.175V44.1728V44.1705V44.1683V44.166V44.1637V44.1615V44.1592V44.157V44.1547V44.1525V44.1502V44.148V44.1457V44.1435V44.1412V44.1389V44.1367V44.1344V44.1322V44.1299V44.1277V44.1254V44.1232V44.1209V44.1187V44.1164V44.1141V44.1119V44.1096V44.1074V44.1051V44.1029V44.1006V44.0984V44.0961V44.0938V44.0916V44.0893V44.0871V44.0848V44.0826V44.0803V44.0781V44.0758V44.0735V44.0713V44.069V44.0668V44.0645V44.0623V44.06V44.0577V44.0555V44.0532V44.051V44.0487V44.0465V44.0442V44.042V44.0397V44.0374V44.0352V44.0329V44.0307V44.0284V44.0262V44.0239V44.0216V44.0194V44.0171V44.0149V44.0126V44.0104V44.0081V44.0058V44.0036V44.0013V43.9991V43.9968V43.9946V43.9923V43.99V43.9878V43.9855V43.9833V43.981V43.9788V43.9765V43.9743V43.972V43.9697V43.9675V43.9652V43.963V43.9607V43.9585V43.9562V43.9539V43.9517V43.9494V43.9472V43.9449V43.9427V43.9404V43.9381V43.9359V43.9336V43.9314V43.9291V43.9269V43.9246V43.9224V43.9201V43.9178V43.9156V43.9133V43.9111V43.9088V43.9066V43.9043V43.902V43.8998V43.8975V43.8953V43.893V43.8908V43.8885V43.8863V43.884V43.8817V43.8795V43.8772V43.875V43.8727V43.8705V43.8682V43.866V43.8637V43.8614V43.8592V43.8569V43.8547V43.8524V43.8502V43.8479V43.8457V43.8434V43.8412V43.8389V43.8366V43.8344V43.8321V43.8299V43.8276V43.8254V43.8231V43.8209V43.8186V43.8164V43.8141V43.8118V43.8096V43.8073V43.8051V43.8028V43.8006V43.7983V43.7961V43.7938V43.7916V43.7893V43.7871V43.7848V43.7825V43.7803V43.778V43.7758V43.7735V43.7713V43.769V43.7668V43.7645V43.7623V43.76V43.7578V43.7555V43.7533V43.751V43.7488V43.7465V43.7443V43.742V43.7398V43.7375V43.7353V43.733V43.7308V43.7285V43.7262V43.724V43.7218V43.7195V43.7172V43.715V43.7127V43.7105V43.7082V43.706V43.7037V43.7015V43.6992V43.697V43.6948V43.6925V43.6903V43.688V43.6858V43.6835V43.6813V43.679V43.6768V43.6745V43.6723V43.67V43.6678V43.6655V43.6633V43.661V43.6588V43.6565V43.6543V43.652V43.6498V43.6475V43.6453V43.6431V43.6408V43.6386V43.6363V43.6341V43.6318V43.6296V43.6273V43.6251V43.6228V43.6206V43.6184V43.6161V43.6139V43.6116V43.6094V43.6071V43.6049V43.6026V43.6004V43.5982V43.5959V43.5937V43.5914V43.5892V43.5869V43.5847V43.5825V43.5802V43.578V43.5757V43.5735V43.5712V43.569V43.5668V43.5645V43.5623V43.56V43.5578V43.5556V43.5533V43.5511V43.5488V43.5466V43.5444V43.5421V43.5399V43.5376V43.5354V43.5332V43.5309V43.5287V43.5264V43.5242V43.522V43.5197V43.5175V43.5153V43.513V43.5108V43.5085V43.5063V43.5041V43.5018V43.4996V43.4974V43.4951V43.4929V43.4907V43.4884V43.4862V43.484V43.4817V43.4795V43.4772V43.475V43.4728V43.4705V43.4683V43.4661V43.4638V43.4616V43.4594V43.4572V43.4549V43.4527V43.4505V43.4482V43.446V43.4438V43.4415V43.4393V43.4371V43.4348V43.4326V43.4304V43.4282V43.4259V43.4237V43.4215V43.4192V43.417V43.4148V43.1125V43.1101V43.1076V43.1051V43.1027V43.1002V43.0977V43.0953V43.0928V43.0903V43.0879V43.0854V43.0829V43.0804V43.0779V43.0754V43.073V43.0705V43.068V43.0655V43.063V43.0605V43.058V43.0555V43.053V43.0505V43.048V43.0455V43.043V43.0405V43.0379V43.0354V43.0329V43.0304V43.0279V43.0253V43.0228V43.0203V43.0178V43.0152V43.0127V43.0102V43.0076V43.0051V43.0026V43V42.9975V42.9949V42.9924V42.9898V42.9873V42.9847V42.9822V42.9796V42.9771V42.9745V42.972V42.9694V42.9668V42.9643V42.9617V42.9591V42.9566V42.954V42.9514V42.9489V42.9463V42.9437V42.9411V42.9385V42.936V42.9334V42.9308V42.9282V42.9256V42.923V42.9204V42.9178V42.9152V42.9126V42.91V42.9074V42.9048V42.9022V42.8996V42.897V42.8944V42.8918V42.8892V42.8866V42.884V42.8814V42.8787V42.8761V42.8735V42.8709V42.8683V42.8656V42.863V42.8604V42.8578V42.8551V42.8525V42.8499V42.8472V42.8446V42.842V42.8393V42.8367V42.834V42.8314V42.8288V42.8261V42.8235V42.8208V42.8182V42.8155V42.8129V42.8102V42.8076V42.8049V42.8022V42.7996V42.7969V42.7943V42.7916V42.7889V42.7863V42.7836V42.7809V42.7783V42.7756V42.7729V42.7702V42.7676V42.7649V42.7622V42.7595V42.7569V42.7542V42.7515V42.7488V42.7461V42.7434V42.7408V42.7381V42.7354V42.7327V42.73V42.7273V42.7246V42.7219V42.7192V42.7165V42.7138V42.7111V42.7084V42.7057V42.703V42.7003V42.6976V42.6949V42.6922V42.6895V42.6868V42.6841V42.6814V42.6787V42.6759V42.6732V42.6705V42.6678V42.6651V42.6624V42.6596V42.6569V42.6542V42.6515V42.6487V42.646V42.6433V42.6406V42.6378V42.6351V42.6324V42.6297V42.6269V42.6242V42.6215V42.6187V42.616V42.6132V42.6105V42.6078V42.605V42.6023V42.5996V42.5968V42.5941V42.5913V42.5886V42.5858V42.5831V42.5803V42.5776V42.5748V42.5721V42.5693V42.5666V42.5638V42.5611V42.5583V42.5556V42.5528V42.5501V42.5473V42.5445V42.5418V42.539V42.5363V42.5335V42.5307V42.528V42.5252V42.5225V42.5197V42.5169V42.5142V42.5114V42.5086V42.5059V42.5031V42.5003V42.4976V42.4948V42.492V42.4892V42.4865V42.4837V42.4809V42.4781V42.4754V42.4726V42.4698V42.467V42.4643V42.4615V42.4587V42.4559V42.4531V42.4504V42.4476V42.4448V42.442V42.4392V42.4364V42.4337V42.4309V42.4281V42.4253V42.4225V42.4197V42.4169V42.4141V42.4114V42.4086V42.4058V42.403V42.4002V42.3974V42.3946V42.3918V42.389V42.3862V42.3834V42.3806V42.3778V42.375V42.3723V42.3695V42.3667V42.3639V42.3611V42.3583V42.3555V42.3527V42.3499V42.3471V42.3443V42.3415V42.3387V42.3359V42.3331V42.3303V42.3275V42.3247V42.3219V42.3191V42.3163V42.3134V42.3106V42.3078V42.305V42.3022V42.2994V42.2966V42.2938V42.291V42.2882V42.2854V42.2826V42.2798V42.277V42.2742V42.2714V42.2686V42.2657V42.2629V42.2601V42.2573V42.2545V42.2517V42.2489V42.2461V42.2433V42.2405V42.2376V42.2348V42.232V42.2292V42.2264V42.2236V42.2208V42.218V42.2152V42.2124V42.2095V42.2067V42.2039V42.2011V42.1983V42.1955V42.1927V42.1899V42.187V42.1842V42.1814V42.1786V42.1758V42.173V42.1702V42.1674V42.1645V42.1617V42.1589V42.1561V42.1533V42.1505V42.1477V42.1449V42.142V42.1392V42.1364V42.1336V42.1308V42.128V42.1252V42.1224V42.1195V42.1167V42.1139V42.1111V42.1083V42.1055V42.1027V42.0999V42.097V42.0942V42.0914V42.0886V42.0858V42.083V42.0802V42.0774V42.0746V42.0718V42.0689V42.0661V42.0633V42.0605V42.0577V42.0549V42.0521V42.0493V42.0465V42.0437V42.0409V42.038V42.0352V42.0324V42.0296V42.0268V42.024V42.0212V42.0184V42.0156V42.0128V42.01V42.0072V42.0044V42.0016V41.9988V41.996V41.9932V41.9904V41.9876V41.9848V41.982V41.9792V41.9764V41.9736V41.9708V41.968V41.9652V41.9624V41.9596V41.9568V41.954V41.9512V41.9484V41.9456V41.9428V41.94V41.9372V41.9344V41.9316V41.9288V41.926V41.9232V41.9204V41.9176V41.9148V41.912V41.9093V41.9065V41.9037V41.9009V41.8981V41.8953V41.8925V41.8897V41.8869V41.8842V41.8814V41.8786V41.8758V41.873V41.8702V41.8675V41.8647V41.8619V41.8591V41.8563V41.8536V41.8508V41.848V41.8452V41.8424V41.8397V41.8369V41.8341V41.8313V41.8286V41.8258V41.823V41.8202V41.8175V41.8147V41.8119V41.8092V41.8064V41.8036V41.8009V41.7981V41.7953V41.7926V41.7898V41.7882C24.4435 40.9852 24.5533 40.1869 24.7144 39.3982L24.7192 39.3744L24.7235 39.3505C24.8838 38.4557 25.1668 37.5876 25.5643 36.771C25.9496 36.0167 26.3634 35.2692 26.7969 34.5379L26.8305 34.4812L26.8603 34.4223C27.0399 34.0679 27.247 33.7689 27.5558 33.3228C27.5998 33.2593 27.6458 33.1929 27.6941 33.1229L27.6941 33.1228L27.7789 32.9998C27.7794 32.9992 27.7798 32.9985 27.7803 32.9979C27.8068 32.9597 27.8327 32.9222 27.8583 32.8853C28.1518 32.4612 28.3859 32.123 28.6423 31.8156L28.654 31.8016L28.6654 31.7875C29.097 31.2504 29.5544 30.7349 30.0361 30.2428C30.1839 30.1117 30.3444 29.9959 30.5152 29.8973L30.5657 29.8682L30.6144 29.8362L30.8893 29.6553C31.2448 29.4257 31.6028 29.2053 31.9635 28.9941L31.9702 28.9902L31.9768 28.9862C32.5767 28.6287 33.2899 28.2238 33.7863 27.9561C34.0207 27.8298 34.2954 27.6906 34.5813 27.5465C34.6037 27.5352 34.6262 27.5239 34.6489 27.5125C34.9003 27.3858 35.1684 27.2507 35.3787 27.1375L34.4303 25.3766L35.3787 27.1374C35.5833 27.0272 35.8423 26.9305 36.2456 26.7798C36.3259 26.7498 36.412 26.7177 36.5045 26.6829C36.9781 26.5046 37.4256 26.3436 37.7546 26.2556C38.1444 26.1512 38.5405 26.0626 38.9842 25.9636Z" fill="#FFD064" stroke="#FFC250" stroke-width="4"/>
<path d="M31.0945 49.2386C30.8957 49.2386 30.7229 49.1676 30.576 49.0257C30.4292 48.8837 30.3557 48.7166 30.3557 48.5246V40.8075C30.3557 40.6154 30.4292 40.4484 30.576 40.3064C30.7229 40.1644 30.8957 40.0934 31.0945 40.0934H31.7295C32.222 40.0934 32.5806 40.3022 32.8052 40.7198L35.5269 45.6933C35.5269 45.7016 35.5312 45.7058 35.5398 45.7058C35.5485 45.7058 35.5528 45.7016 35.5528 45.6933V40.8075C35.5528 40.6154 35.6263 40.4484 35.7731 40.3064C35.92 40.1644 36.0928 40.0934 36.2915 40.0934H36.9266C37.1253 40.0934 37.2981 40.1644 37.445 40.3064C37.5919 40.4484 37.6653 40.6154 37.6653 40.8075V48.5246C37.6653 48.7166 37.5919 48.8837 37.445 49.0257C37.2981 49.1676 37.1253 49.2386 36.9266 49.2386H36.2915C35.7991 49.2386 35.4405 49.0298 35.2158 48.6122L32.4942 43.6388C32.4942 43.6304 32.4898 43.6262 32.4812 43.6262C32.4726 43.6262 32.4682 43.6304 32.4682 43.6388V48.5246C32.4682 48.7166 32.3948 48.8837 32.2479 49.0257C32.101 49.1676 31.9282 49.2386 31.7295 49.2386H31.0945Z" fill="#E49542"/>
<path d="M40.5532 49.2386C40.3544 49.2386 40.1816 49.1676 40.0348 49.0257C39.8965 48.8837 39.8274 48.7166 39.8274 48.5246V48.2364C39.8274 47.752 39.9613 47.3177 40.2292 46.9335L43.7933 41.8473V41.8348L43.8062 41.8222C43.8062 41.8139 43.8019 41.8097 43.7933 41.8097H40.5532C40.3544 41.8097 40.1816 41.7387 40.0348 41.5967C39.8965 41.4548 39.8274 41.2877 39.8274 41.0956V40.8075C39.8274 40.6154 39.8965 40.4484 40.0348 40.3064C40.1816 40.1644 40.3544 40.0934 40.5532 40.0934H45.6595C45.8583 40.0934 46.0268 40.1644 46.165 40.3064C46.3119 40.4484 46.3853 40.6154 46.3853 40.8075V41.0956C46.3853 41.58 46.2514 42.0143 45.9836 42.3985L42.4195 47.4848V47.4973L42.4065 47.5098C42.4065 47.5182 42.4108 47.5223 42.4195 47.5223H45.6595C45.8583 47.5223 46.0268 47.5933 46.165 47.7353C46.3119 47.8773 46.3853 48.0443 46.3853 48.2364V48.5246C46.3853 48.7166 46.3119 48.8837 46.165 49.0257C46.0268 49.1676 45.8583 49.2386 45.6595 49.2386H40.5532Z" fill="#E49542"/>
<path d="M51.3353 41.8598C50.5144 41.8932 50.104 42.1688 50.104 42.6866C50.104 43.146 50.4885 43.4717 51.2575 43.6638C51.2661 43.6638 51.2791 43.668 51.2964 43.6763C51.3223 43.6763 51.3396 43.6805 51.3482 43.6889C51.4173 43.7056 51.4519 43.6763 51.4519 43.6012V41.9726C51.4519 41.8974 51.413 41.8598 51.3353 41.8598ZM51.3871 47.4597C52.1647 47.3929 52.5535 47.088 52.5535 46.5452C52.5535 46.3113 52.4628 46.1151 52.2814 45.9564C52.1086 45.7893 51.8105 45.6432 51.3871 45.5179C51.3093 45.5012 51.2705 45.5263 51.2705 45.5931V47.3595C51.2705 47.4263 51.3093 47.4597 51.3871 47.4597ZM49.793 44.9792C48.6179 44.4363 48.0304 43.6722 48.0304 42.6866C48.0304 41.96 48.3112 41.3796 48.8728 40.9453C49.4431 40.511 50.2639 40.2897 51.3353 40.2813C51.413 40.2813 51.4519 40.2437 51.4519 40.1686V39.7426C51.4519 39.5506 51.521 39.3835 51.6593 39.2415C51.8062 39.0996 51.979 39.0286 52.1777 39.0286H52.2036C52.4023 39.0286 52.5751 39.0996 52.722 39.2415C52.8689 39.3835 52.9423 39.5506 52.9423 39.7426V40.2688C52.9423 40.3356 52.9769 40.3774 53.046 40.3941C53.3052 40.4275 53.4953 40.4567 53.6163 40.4818C53.8236 40.5235 53.9921 40.6321 54.1217 40.8075C54.2513 40.9745 54.3161 41.1624 54.3161 41.3712V41.6719C54.3161 41.8389 54.2427 41.9726 54.0958 42.0728C53.9576 42.173 53.802 42.2022 53.6292 42.1605C53.37 42.0937 53.1756 42.0477 53.046 42.0227C52.9769 42.006 52.9423 42.031 52.9423 42.0978V43.9519C52.9423 44.0104 52.938 44.0522 52.9294 44.0772C52.9121 44.1524 52.9294 44.2025 52.9812 44.2276C53.5774 44.4948 54.0008 44.8122 54.2513 45.1797C54.5105 45.5388 54.6402 45.9814 54.6402 46.5076C54.6402 47.2927 54.3637 47.9023 53.8107 48.3366C53.2664 48.7709 52.4542 49.0048 51.3741 49.0382C51.305 49.0382 51.2705 49.0758 51.2705 49.1509V49.5894C51.2705 49.7815 51.197 49.9485 51.0501 50.0905C50.9119 50.2325 50.7434 50.3035 50.5447 50.3035H50.5188C50.32 50.3035 50.1472 50.2325 50.0003 50.0905C49.8535 49.9485 49.78 49.7815 49.78 49.5894V49.0632C49.78 48.9881 49.7498 48.9463 49.6893 48.938C49.4647 48.9046 49.24 48.8544 49.0154 48.7876C48.808 48.7292 48.6395 48.6122 48.5099 48.4369C48.3803 48.2531 48.3155 48.0527 48.3155 47.8355V47.4722C48.3155 47.3135 48.3846 47.1924 48.5229 47.1089C48.6698 47.0171 48.821 47.0045 48.9765 47.0713C49.2098 47.1632 49.4431 47.2384 49.6763 47.2968C49.7455 47.3135 49.78 47.2843 49.78 47.2091V45.3801C49.78 45.3049 49.7973 45.2172 49.8319 45.117C49.8664 45.0502 49.8535 45.0043 49.793 44.9792Z" fill="#E49542"/>
</svg>
