<svg width="80" height="80" viewBox="0 0 80 80" fill="none" xmlns="http://www.w3.org/2000/svg">
<path opacity="0.2" d="M40 80C62.0914 80 80 62.0914 80 40C80 17.9086 62.0914 0 40 0C17.9086 0 0 17.9086 0 40C0 62.0914 17.9086 80 40 80Z" fill="#61C1B8"/>
<path opacity="0.15" d="M40.0581 73.4011C58.4729 73.4011 73.4011 58.4729 73.4011 40.0581C73.4011 21.6433 58.4729 6.71509 40.0581 6.71509C21.6433 6.71509 6.71509 21.6433 6.71509 40.0581C6.71509 58.4729 21.6433 73.4011 40.0581 73.4011Z" fill="#61C1B8"/>
<path opacity="0.3" d="M40.1422 66.2493C54.5608 66.2493 66.2493 54.5608 66.2493 40.1422C66.2493 25.7237 54.5608 14.0352 40.1422 14.0352C25.7237 14.0352 14.0352 25.7237 14.0352 40.1422C14.0352 54.5608 25.7237 66.2493 40.1422 66.2493Z" fill="white"/>
<path d="M57.9301 51.7879C58.1794 51.6338 58.32 51.3542 58.2937 51.0646C58.2826 50.9428 57.9987 48.0586 55.9122 45.9963C55.6504 45.7375 55.37 45.5018 55.0731 45.2908C55.7834 44.5313 56.7919 43.2532 57.1688 41.7971C57.2613 41.4396 57.0847 41.0674 56.7476 40.909C56.584 40.8323 53.8187 39.5566 50.5046 39.43C53.053 37.8694 56.2824 35.5376 58.2058 32.81C58.4679 32.438 58.3509 31.9225 57.9508 31.698C57.8861 31.6618 56.6147 30.9559 54.807 30.4779C55.8664 29.0395 57.4844 26.2038 57.118 22.6594C57.0804 22.2953 56.7893 22.0075 56.421 21.9704C52.8349 21.6083 49.9659 23.2076 48.5107 24.2546C48.0271 22.4679 47.3129 21.2111 47.2763 21.1472C47.05 20.7524 46.5279 20.6356 46.1512 20.8952C43.3915 22.7962 41.0326 25.9883 39.4536 28.5071C39.3254 25.2313 38.035 22.4981 37.9572 22.3365C37.7969 22.0032 37.4204 21.8288 37.0588 21.9202C35.5857 22.2927 34.2925 23.2895 33.524 23.9915C33.3106 23.698 33.0721 23.4209 32.8103 23.1622C30.7236 21.0998 27.8057 20.8193 27.6825 20.8083C27.3895 20.7823 27.1067 20.9214 26.9509 21.1678C25.5301 23.4145 25.6811 25.8906 25.9617 27.3506C24.1824 27.1166 22.6931 27.4248 22.6164 27.4411C22.1865 27.5325 21.9187 27.9564 22.0222 28.3776C22.8194 31.6168 24.9856 34.5786 27.4325 36.8683L24.1375 37.2477C23.5734 37.3126 23.2639 37.9356 23.5624 38.4171C26.8657 43.7439 23.3035 46.6962 23.1533 46.8168C22.6031 47.2494 22.8695 48.1272 23.5697 48.1889L30.0161 48.7581C30.6788 55.3619 30.4565 55.2499 30.8176 55.6068C31.16 55.9453 31.7221 55.8989 32.0042 55.5137C32.1429 55.3572 32.88 54.5752 34.1232 54.1097C36.034 53.3944 38.1724 53.7399 40.4785 55.137C40.7056 55.2746 40.9879 55.2882 41.2275 55.1732C41.4671 55.058 41.6307 54.8301 41.6616 54.5686L42.0455 51.3118C42.1862 51.4587 42.3385 51.6139 42.5019 51.7755C42.5021 51.7756 42.5021 51.7756 42.5021 51.7757C44.288 53.5409 47.1489 55.8212 50.6357 56.6594C51.0619 56.7618 51.4908 56.4968 51.5832 56.0721C51.5997 55.9964 51.9115 54.5244 51.6748 52.7657C53.1519 53.0428 55.657 53.1921 57.9301 51.7879Z" fill="#F6B138"/>
<path d="M30.6152 48.1673C27.3427 39.251 30.5168 29.2163 38.5245 23.7629C38.2385 22.9325 37.9899 22.4059 37.9572 22.3378C37.7969 22.0045 37.4204 21.8301 37.0588 21.9215C35.5857 22.294 34.2925 23.2908 33.524 23.9928C33.3106 23.6993 33.0721 23.4222 32.8103 23.1635C30.7236 21.1009 27.8057 20.8204 27.6825 20.8095C27.3895 20.7835 27.1067 20.9226 26.9509 21.169C25.5301 23.4157 25.6811 25.8917 25.9617 27.3517C24.1824 27.1178 22.6931 27.4259 22.6164 27.4422C22.1865 27.5337 21.9187 27.9576 22.0222 28.3788C22.8194 31.618 24.9856 34.5798 27.4325 36.8694L24.1375 37.2489C23.5734 37.3138 23.2639 37.9368 23.5624 38.4182C26.8657 43.7451 23.3035 46.6973 23.1533 46.818C22.6031 47.2505 22.8695 48.1284 23.5697 48.19L30.0161 48.7593V48.7595L30.6152 48.1673Z" fill="#F2902F"/>
<path d="M49.8984 46.7268C49.72 46.6336 47.2974 45.3816 44.0039 44.368L45.4609 43.1638C45.6998 42.9664 45.7315 42.615 45.5318 42.3789C45.3321 42.1429 44.9765 42.1116 44.7377 42.3088L42.6996 43.9932C40.6686 43.4529 38.4029 43.0542 36.1715 43.0701C37.3923 41.8732 39.0683 40.2988 40.2157 39.2371C40.2234 39.2299 40.6813 38.8095 40.6529 38.8356L40.653 38.8358C41.133 38.398 41.6045 37.9723 42.0641 37.5616C45.6424 37.7228 45.4871 37.7166 45.512 37.7166C45.8114 37.7166 46.0609 37.4835 46.0747 37.1847C46.0889 36.8773 45.8483 36.6167 45.5372 36.6027L43.2616 36.5001C47.1424 33.0884 49.9486 30.8934 49.9841 30.8657C50.2285 30.675 50.2703 30.3247 50.0774 30.0831C49.8845 29.8415 49.53 29.8002 49.2856 29.9909C49.2624 30.009 48.0616 30.9482 46.1528 32.5448L46.0371 31.0951C46.0126 30.7883 45.7411 30.5587 45.4307 30.5834C45.1204 30.6076 44.8887 30.8759 44.9131 31.1827C45.0965 33.3892 45.0652 33.2931 45.1118 33.4218C43.5043 34.786 41.8613 36.2269 40.3058 37.6369L40.1623 35.8386C40.1378 35.5318 39.8664 35.3023 39.556 35.3269C39.2456 35.3511 39.0139 35.6194 39.0383 35.9262L39.2517 38.5999C38.0637 39.6936 36.8724 40.8205 35.6842 41.9793C35.6301 39.9753 35.2521 37.9636 34.7563 36.1428L36.4607 34.128C36.6604 33.8919 36.6287 33.5405 36.3898 33.3431C36.151 33.1458 35.7955 33.1771 35.5957 33.4131L34.3772 34.8536C33.3518 31.5982 32.0854 29.2034 31.991 29.0271C31.8455 28.7551 31.5044 28.6511 31.2292 28.795C30.954 28.9389 30.8488 29.276 30.9944 29.548C31.0243 29.604 33.2317 33.7776 34.1595 38.5792L32.6741 37.7751C32.4011 37.6272 32.0585 37.7263 31.909 37.9961C31.7594 38.266 31.8595 38.6047 32.1326 38.7524C34.3631 39.9536 34.2669 39.9219 34.3859 39.9563C34.5257 41.0005 34.5917 42.0582 34.5511 43.0956C34.1194 43.5252 33.6843 43.9629 33.2469 44.4092C32.4786 44.0826 31.0153 43.5234 29.3065 43.1863C29.0014 43.1257 28.7042 43.3219 28.6433 43.6236C28.5824 43.9253 28.7804 44.2188 29.0858 44.279C30.4304 44.5443 31.6315 44.9646 32.408 45.273C28.781 49.0378 25.0979 53.29 22.3761 57.4447C22.2069 57.703 22.2816 58.048 22.5429 58.2153C22.6377 58.2758 22.7439 58.3048 22.8488 58.3048C23.0336 58.3048 23.2146 58.2151 23.3225 58.0504C26.0239 53.9269 29.6971 49.6954 33.3105 45.9522C33.6205 46.6698 34.1513 48.0331 34.4675 49.5984C34.521 49.8634 34.7564 50.0466 35.0197 50.0466C35.377 50.0466 35.6425 49.7238 35.5732 49.3803C35.1559 47.3141 34.4025 45.6108 34.1549 45.0846C34.4406 44.7936 34.7252 44.5066 35.0087 44.2227C35.2439 44.2533 36.4492 44.047 38.8405 44.3601C38.8729 44.4696 38.8424 44.381 40.059 46.5869C40.2083 46.8564 40.5509 46.956 40.8242 46.808C41.0973 46.6602 41.1974 46.3215 41.0479 46.0516L40.2349 44.5843C45.0903 45.5018 49.3149 47.6823 49.3715 47.7119C49.6462 47.8553 49.9875 47.7523 50.1333 47.4797C50.2787 47.2077 50.1736 46.8707 49.8984 46.7268Z" fill="#6B5445"/>
</svg>
