<svg width="80" height="80" viewBox="0 0 80 80" fill="none" xmlns="http://www.w3.org/2000/svg">
<path opacity="0.2" d="M40 80C62.0914 80 80 62.0914 80 40C80 17.9086 62.0914 0 40 0C17.9086 0 0 17.9086 0 40C0 62.0914 17.9086 80 40 80Z" fill="#61C1B8"/>
<path opacity="0.15" d="M40.0581 73.4011C58.4729 73.4011 73.4011 58.4729 73.4011 40.0581C73.4011 21.6433 58.4729 6.71509 40.0581 6.71509C21.6433 6.71509 6.71509 21.6433 6.71509 40.0581C6.71509 58.4729 21.6433 73.4011 40.0581 73.4011Z" fill="#61C1B8"/>
<path opacity="0.3" d="M40.1422 66.2493C54.5608 66.2493 66.2493 54.5608 66.2493 40.1422C66.2493 25.7237 54.5608 14.0352 40.1422 14.0352C25.7237 14.0352 14.0352 25.7237 14.0352 40.1422C14.0352 54.5608 25.7237 66.2493 40.1422 66.2493Z" fill="white"/>
<path d="M56.678 33.9297V32.7011L49.7627 34.6553C48.7414 34.9447 47.641 34.7232 46.8155 34.0616C45.9901 33.4 45.5436 32.3819 45.6194 31.3339L46.1017 24.6598H44.5195C43.0528 24.6583 41.7685 23.6877 41.3832 22.2891L39.5932 15.8145L37.8032 22.2891C37.4179 23.6877 36.1336 24.6583 34.667 24.6598H33.0847L33.567 31.3339C33.6429 32.3819 33.1964 33.4 32.3709 34.0616C31.5454 34.7232 30.445 34.9447 29.4237 34.6553L22.5085 32.7011V33.9297C22.5085 35.148 21.8121 36.262 20.7097 36.807L16 39.1341L20.7097 41.4613C21.8121 42.0063 22.5085 43.1202 22.5085 44.3386V45.5671L25.1931 45.3775C26.5485 45.2817 27.8212 46.0281 28.3853 47.2492C28.9498 48.4707 28.6872 49.9101 27.7267 50.8599C26.4356 52.136 25.485 53.7093 24.9607 55.4377L23.322 60.8456L24.6155 59.8227C26.3939 58.4163 28.6586 57.7543 30.9249 57.9789C33.8018 58.2635 36.6341 57.1186 38.4853 54.923L38.5739 54.8177C38.8245 54.5201 39.1968 54.3493 39.5889 54.3517C39.9805 54.3536 40.3508 54.5292 40.5979 54.8299L40.6793 54.9257C42.4864 57.1198 45.2869 58.2714 48.1356 57.9911L48.2381 57.9805C50.5211 57.7508 52.8036 58.4179 54.5928 59.838C55.2999 60.3991 55.8644 60.8456 55.8644 60.8456L54.2234 55.4377C53.699 53.7093 52.7484 52.136 51.4574 50.8599C50.4964 49.9101 50.2338 48.4699 50.7987 47.248C51.364 46.0265 52.6376 45.2805 53.9934 45.3775L56.678 45.5671V44.3386C56.678 43.1202 57.3743 42.0063 58.4767 41.4613L63.1864 39.1341L58.4767 36.807C57.3743 36.262 56.678 35.148 56.678 33.9297Z" fill="#138175"/>
<path d="M55.8637 38.33C52.9221 38.2601 50.0028 38.8456 47.3214 40.0427L47.7055 38.5256C47.8108 38.096 47.5462 37.6629 47.1124 37.5557C46.679 37.4481 46.2389 37.7069 46.1273 38.1345L45.3641 41.15C43.1988 42.6334 41.4842 44.6731 40.4061 47.049V41.8795L42.6084 39.7027C42.9167 39.387 42.9123 38.8856 42.5985 38.5754C42.2847 38.2652 41.7774 38.2609 41.458 38.5656L40.4061 39.6053V30.6217L42.6084 28.4449C42.9167 28.1292 42.9123 27.6278 42.5985 27.3176C42.2847 27.0075 41.7774 27.0031 41.458 27.3078L40.4061 28.3475V26.2681C40.4061 25.824 40.0418 25.464 39.5926 25.464C39.1433 25.464 38.779 25.824 38.779 26.2681V33.1723L37.7271 32.1326C37.4077 31.8279 36.9004 31.8322 36.5866 32.1424C36.2728 32.4526 36.2684 32.954 36.5767 33.2697L38.779 35.4465V47.049C37.7013 44.6735 35.9876 42.6337 33.823 41.15L33.0599 38.1345C32.9478 37.7069 32.5081 37.4481 32.0743 37.5557C31.6405 37.6629 31.3759 38.096 31.4812 38.5256L31.8637 40.0427C29.1823 38.8456 26.263 38.2601 23.3214 38.33C22.8721 38.33 22.5078 38.6901 22.5078 39.1341C22.5078 39.5782 22.8721 39.9383 23.3214 39.9383C24.8079 39.9296 26.2916 40.0741 27.7479 40.3694L26.7123 41.9042C26.4628 42.2737 26.5637 42.7731 26.9375 43.0197C27.3113 43.2663 27.8166 43.1666 28.0661 42.7971L29.4108 40.8029C31.5571 41.4523 33.4956 42.642 35.0365 44.255C34.2186 44.5966 33.5548 45.2212 33.1695 46.012C32.9685 46.4094 33.1318 46.8923 33.5342 47.091C33.9362 47.2897 34.4248 47.1283 34.6258 46.7306C34.9146 46.1341 35.4755 45.7105 36.1341 45.5919C37.4157 47.4475 38.2602 49.5634 38.605 51.7838C37.5118 51.1053 36.2517 50.7359 34.9611 50.7158C32.4394 50.7092 29.984 52.03 27.5941 54.6788C27.2954 55.0117 27.3264 55.5214 27.6633 55.8166C28.0001 56.1119 28.5158 56.0813 28.8145 55.7483C30.8575 53.4757 32.9057 52.3233 34.9039 52.3233H34.9293C36.3713 52.3669 37.7454 52.9402 38.7822 53.9316V62.4538C38.7822 62.8979 39.1465 63.2579 39.5957 63.2579C40.045 63.2579 40.4093 62.8979 40.4093 62.4538V53.9367C41.4378 52.9453 42.8055 52.3712 44.2411 52.3284C46.2254 52.3194 48.3181 53.462 50.377 55.7522C50.6757 56.0852 51.1913 56.1158 51.5282 55.8206C51.8655 55.5253 51.8961 55.0156 51.5973 54.6827C49.2309 52.0524 46.774 50.7194 44.2924 50.7194H44.2308C42.9378 50.7394 41.6753 51.1101 40.5809 51.7901C40.9198 49.5658 41.7615 47.4459 43.0438 45.5872C43.7052 45.7038 44.2685 46.1298 44.5553 46.7306C44.756 47.1283 45.245 47.2897 45.647 47.091C46.0494 46.8923 46.2123 46.4094 46.0117 46.012C45.6239 45.2169 44.955 44.5899 44.1315 44.2491C45.6752 42.6349 47.6177 41.4456 49.7676 40.7985L51.1151 42.7971C51.3645 43.1666 51.8694 43.2663 52.2432 43.0197C52.6171 42.7731 52.718 42.2737 52.4689 41.9042L51.4325 40.3678C52.8904 40.0733 54.3757 39.9292 55.8637 39.9383C56.313 39.9383 56.6773 39.5782 56.6773 39.1341C56.6773 38.6901 56.313 38.33 55.8637 38.33Z" fill="#24420E"/>
</svg>
