<svg width="80" height="80" viewBox="0 0 80 80" fill="none" xmlns="http://www.w3.org/2000/svg">
<path opacity="0.2" d="M40 80C62.0914 80 80 62.0914 80 40C80 17.9086 62.0914 0 40 0C17.9086 0 0 17.9086 0 40C0 62.0914 17.9086 80 40 80Z" fill="#61C1B8"/>
<path opacity="0.15" d="M40.0581 73.4011C58.4729 73.4011 73.4011 58.4729 73.4011 40.0581C73.4011 21.6433 58.4729 6.71509 40.0581 6.71509C21.6433 6.71509 6.71509 21.6433 6.71509 40.0581C6.71509 58.4729 21.6433 73.4011 40.0581 73.4011Z" fill="#61C1B8"/>
<path opacity="0.3" d="M40.1422 66.2493C54.5608 66.2493 66.2493 54.5608 66.2493 40.1422C66.2493 25.7237 54.5608 14.0352 40.1422 14.0352C25.7237 14.0352 14.0352 25.7237 14.0352 40.1422C14.0352 54.5608 25.7237 66.2493 40.1422 66.2493Z" fill="white"/>
<path d="M52.382 56.1869C55.7086 56.0957 59.0082 54.7943 61.547 52.285L64 49.8603L61.547 47.4358C59.9921 45.8989 58.1519 44.8182 56.1947 44.1882C56.6796 43.6324 57.1292 43.0437 57.5371 42.4264C59.2389 39.8534 60.2282 36.7776 60.2282 33.477L60.2272 29.8676H56.5767C54.1366 29.8676 51.8187 30.3894 49.7327 31.3249C49.2982 27.8238 47.7208 24.4342 45.0017 21.7465L40 16.803L34.9985 21.7465C32.2794 24.4341 30.7042 27.8238 30.2696 31.3249C28.1824 30.3884 25.8658 29.8676 23.4246 29.8666L19.773 29.8677V33.4759C19.773 37.572 21.2935 41.315 23.8055 44.1882C21.8505 44.8182 20.009 45.8979 18.4542 47.4347L16 49.8603L18.4541 52.286C23.726 57.4968 32.274 57.4968 37.547 52.285L40 49.8603L42.4541 52.286C43.2718 53.0942 44.1689 53.7771 45.1206 54.3361C47.3483 55.6407 49.8722 56.258 52.382 56.1869Z" fill="#F98357"/>
<path d="M18.7428 52.2807L21.1969 49.855C22.7519 48.3181 24.5932 47.2385 26.5483 46.6085C24.0362 43.7352 22.5156 39.9924 22.5156 35.8962V32.288L26.1673 32.2869C28.6084 32.288 30.9252 32.8087 33.0123 33.7452C33.4469 30.244 35.0221 26.8544 37.7412 24.1667L42.5957 19.3685L40 16.803L34.9985 21.7465C32.2794 24.4341 30.7042 27.8238 30.2696 31.3249C28.1824 30.3885 25.8658 29.8676 23.4246 29.8666L19.773 29.8677V33.4759C19.773 37.572 21.2935 41.3149 23.8055 44.1882C21.8505 44.8182 20.009 45.8979 18.4542 47.4347L16 49.8603L18.4541 52.286C19.0264 52.8517 19.6375 53.3559 20.2787 53.7987L18.7428 52.2807Z" fill="#F2603F"/>
<path d="M50.4191 40.3752C50.2123 40.023 49.7559 39.903 49.3994 40.1074L40.7463 45.0692L40.7457 38.42L46.496 35.1228C46.8523 34.9184 46.9736 34.4672 46.7669 34.1149C46.5602 33.7626 46.1037 33.6427 45.7472 33.8471L40.7456 36.715L40.7449 28.0638C40.7449 27.6566 40.4109 27.3264 39.9987 27.3264C39.5867 27.3264 39.2528 27.6567 39.2528 28.0639L39.2535 36.7142L34.2533 33.847C33.8969 33.6426 33.4403 33.7626 33.2335 34.1148C33.0268 34.467 33.148 34.9184 33.5045 35.1227L39.2536 38.4193L39.2542 45.0692L30.601 40.1074C30.2447 39.9031 29.788 40.0229 29.5813 40.3752C29.3746 40.7274 29.4958 41.1788 29.8523 41.3831L39.2544 46.7743L39.2558 61.9819C39.2558 62.3892 39.5899 62.7193 40.0019 62.7193C40.4139 62.7193 40.7479 62.3891 40.7479 61.9818L40.7465 46.7742L50.1483 41.3832C50.5046 41.1788 50.626 40.7275 50.4191 40.3752Z" fill="#964915"/>
</svg>
