<svg width="80" height="80" viewBox="0 0 80 80" fill="none" xmlns="http://www.w3.org/2000/svg">
<path opacity="0.2" d="M40 80C62.0914 80 80 62.0914 80 40C80 17.9086 62.0914 0 40 0C17.9086 0 0 17.9086 0 40C0 62.0914 17.9086 80 40 80Z" fill="#61C1B8"/>
<path opacity="0.15" d="M40.0581 73.4011C58.4729 73.4011 73.4011 58.4729 73.4011 40.0581C73.4011 21.6433 58.4729 6.71509 40.0581 6.71509C21.6433 6.71509 6.71509 21.6433 6.71509 40.0581C6.71509 58.4729 21.6433 73.4011 40.0581 73.4011Z" fill="#61C1B8"/>
<path opacity="0.3" d="M40.1422 66.2493C54.5608 66.2493 66.2493 54.5608 66.2493 40.1422C66.2493 25.7237 54.5608 14.0352 40.1422 14.0352C25.7237 14.0352 14.0352 25.7237 14.0352 40.1422C14.0352 54.5608 25.7237 66.2493 40.1422 66.2493Z" fill="white"/>
<path d="M22.1913 47.5849C21.7379 44.8021 23.7558 42.2191 26.5943 41.9487L26.8869 41.9208C31.6857 41.1571 33.9478 47.4828 34.8362 48.6939C37.997 53.0042 41.6437 54.1809 41.3548 54.5158C36.2824 60.3915 19.2587 60.1874 18.1813 53.5783L18.16 53.4863C17.5287 50.7376 19.3762 48.033 22.1913 47.5849Z" fill="#FDA800"/>
<path d="M40.429 55.4167C34.4843 60.3507 19.1998 59.8295 18.181 53.5783L18.1598 53.486C17.8631 52.1949 18.114 50.9132 18.7548 49.8707C18.7717 49.9638 18.79 50.0571 18.8112 50.1505L18.8376 50.2638C19.8304 56.3568 31.856 58.0178 40.429 55.4167Z" fill="#FD8F01"/>
<path d="M35.7535 54.6079C35.6938 54.992 35.4034 55.2844 35.0431 55.3688C34.9288 55.3955 34.8076 55.4013 34.6845 55.3825C30.6705 54.7719 27.0186 53.168 24.0809 50.8377C24.2065 51.3452 24.3508 51.8515 24.5167 52.3554C24.6767 52.8422 24.4076 53.3649 23.915 53.5235C23.5411 53.6436 23.1463 53.5188 22.9076 53.239C22.8321 53.1499 22.7721 53.0457 22.7336 52.9287C22.2736 51.5305 21.9576 50.1156 21.7785 48.7046C20.1789 46.9715 18.9096 44.9738 18.0622 42.78C17.8777 42.3018 18.1201 41.7665 18.6038 41.584C19.0876 41.4012 19.6292 41.6409 19.8142 42.119C20.8385 44.7715 22.5516 47.1076 24.7536 48.9815C26.4514 48.3332 28.0964 47.4497 29.6334 46.3356C30.0509 46.033 30.6379 46.122 30.9441 46.5346C31.1766 46.8481 31.1803 47.2578 30.9858 47.5695C30.9243 47.6683 30.843 47.757 30.7423 47.8297C29.3866 48.8125 27.9528 49.6312 26.4726 50.2821C28.9244 51.9308 31.8233 53.0724 34.9698 53.551C35.4814 53.6288 35.8322 54.1019 35.7535 54.6079Z" fill="#F57E00"/>
<path d="M45.9602 52.583C45.5362 51.8377 45.4076 51.054 45.5684 50.5089C45.2534 50.0832 45.0447 49.4389 45.0286 48.7136C44.9997 47.4116 45.6024 46.3423 46.3748 46.3257C46.7212 46.3181 47.0427 46.5244 47.2947 46.8708C47.6067 45.5609 48.3585 44.6346 49.2572 44.615C49.8212 44.6031 50.3434 44.9506 50.7455 45.5312C50.7993 45.3806 50.859 45.2293 50.9261 45.0784C51.7606 43.2048 53.3379 42.078 54.449 42.5616C55.0368 42.8172 55.3763 43.4723 55.4425 44.3099C55.5872 44.1517 55.7443 43.9993 55.9157 43.856C57.4952 42.5316 59.5902 42.4074 60.5948 43.5784C61.5996 44.749 61.1338 46.7716 59.5544 48.0957C58.8681 48.6709 58.0851 49.0194 57.3362 49.1342C58.032 49.8357 58.3418 50.6371 58.0752 51.2966C57.6252 52.411 55.7007 52.6992 53.7774 51.9401C53.7334 51.9228 53.6898 51.9043 53.6466 51.8862C53.9707 52.7241 53.9418 53.5082 53.4851 53.9972C52.6615 54.8789 50.7602 54.4681 49.2386 53.08C49.0778 52.933 48.9284 52.7813 48.7896 52.6261C48.8412 53.2208 48.6746 53.7148 48.2915 53.9277C47.6349 54.2929 46.5908 53.691 45.9602 52.583Z" fill="#ECB700"/>
<path d="M60.8167 43.8911C56.8359 47.8018 51.4757 50.3406 45.5208 50.7341C45.5318 50.6555 45.5475 50.5802 45.5684 50.5089C45.2534 50.0832 45.0447 49.4389 45.0286 48.7136C44.9997 47.4116 45.6024 46.3423 46.3748 46.3257C46.7212 46.3181 47.0427 46.5244 47.2947 46.8708C47.6067 45.5609 48.3585 44.6346 49.2572 44.615C49.8212 44.6031 50.3434 44.9506 50.7455 45.5312C50.7993 45.3806 50.859 45.2293 50.926 45.0784C51.7606 43.2048 53.3379 42.078 54.449 42.5616C55.0368 42.8172 55.3762 43.4723 55.4425 44.3099C55.5872 44.1517 55.7443 43.9993 55.9157 43.856C57.4951 42.5316 59.5902 42.4074 60.5947 43.5784C60.6793 43.6765 60.7526 43.7814 60.8167 43.8911Z" fill="#F5C02C"/>
<path d="M57.9337 46.1249C58.0315 46.4872 57.9 46.8742 57.5979 47.1011C53.1158 50.47 47.5996 51.9895 42.2836 51.1541C41.7878 51.0762 41.415 50.6372 41.4648 50.1431C41.519 49.607 42.0167 49.2346 42.5469 49.3189C47.3637 50.0855 52.3775 48.6978 56.4659 45.6221C56.994 45.2247 57.7623 45.4911 57.9337 46.1249Z" fill="#CD9E00"/>
<path d="M28.0166 29.2968C28.8135 32.9588 25.0635 34.5772 23.469 36.6498C23.3829 36.7613 23.2093 36.7457 23.1486 36.6194C22.5088 35.2888 22.4769 32.8998 23.4221 31.1146C24.241 29.5668 25.6022 28.8346 26.8788 28.5667C27.3973 28.4578 27.9053 28.7843 28.0166 29.2968ZM46.9241 59.4898C44.8755 59.3493 42.204 57.6264 40.1305 59.7066C39.8405 59.9976 39.8423 60.4645 40.136 60.7519C40.8589 61.4596 41.9242 62.0228 43.2949 61.8882C44.8762 61.7329 46.4377 60.6904 47.0409 59.7091C47.0984 59.6157 47.0343 59.4974 46.9241 59.4898ZM61.7585 34.179C61.7183 34.0954 61.6036 34.0853 61.5472 34.1587C60.4955 35.5255 58.0225 36.593 58.548 39.008C58.6216 39.3461 58.9563 39.5614 59.2983 39.4894C60.1403 39.3128 61.0378 38.8299 61.5784 37.8092C62.2013 36.632 62.1804 35.0564 61.7585 34.179Z" fill="#F5C02C"/>
<path d="M52.5333 40.7178C52.2488 41.0095 51.7456 40.822 51.7288 40.417C51.6178 37.7594 50.5239 35.0838 48.631 32.8356C48.5072 34.3783 48.1915 35.9167 47.647 37.3501C45.6193 42.6865 41.0112 45.0219 37.1477 45.7158C34.7011 42.6796 34.2063 37.2871 36.2336 31.9506C36.8731 30.2678 37.7051 28.7451 38.6653 27.4257C35.4954 27.0156 32.4016 27.6393 29.9681 29.166C29.6221 29.3832 29.1793 29.0813 29.2595 28.6839C30.2062 23.9896 33.6497 19.9384 38.5972 18.4073C45.7822 16.1838 53.4994 20.1741 55.749 27.2758C57.2981 32.166 55.8948 37.2719 52.5333 40.7178Z" fill="#E30048"/>
<path d="M35.2043 23.7799C34.9505 24.0774 35.093 24.5357 35.4727 24.6392C37.4452 25.1753 40.1635 26.4769 41.5273 27.1711C42.0913 27.4582 41.9928 28.0855 41.8009 28.3435C40.6466 29.8964 39.5029 32.054 38.7924 33.9236C37.1994 38.1159 37.1643 42.3422 38.4083 45.4341C37.9824 45.5474 37.5609 45.6415 37.1482 45.7157C34.7015 42.6795 34.2067 37.287 36.2341 31.9502C36.8643 30.2916 37.6821 28.7873 38.6251 27.481V27.4216C36.4857 27.1509 34.3822 27.35 32.494 27.9809C32.494 27.9812 32.494 27.9812 32.494 27.9812C31.5993 28.2806 30.7523 28.6744 29.9737 29.1627C29.6221 29.3827 29.179 29.0838 29.2607 28.6802C30.2085 23.9873 33.6512 19.9376 38.5976 18.4069C40.5213 17.8118 42.4831 17.6623 44.3684 17.8983C44.2431 17.9342 44.1179 17.9707 43.993 18.0094C40.4345 19.1105 37.4415 21.1567 35.2043 23.7799Z" fill="#D00041"/>
<path d="M50.4596 24.5006C51.2228 26.6319 51.6696 28.9231 51.7491 31.299C51.7535 31.4221 51.733 31.5405 51.6927 31.6494C51.5649 31.9929 51.2364 32.2431 50.8434 32.2557C50.326 32.2727 49.8924 31.872 49.8755 31.3606C49.8107 29.4393 49.4863 27.5795 48.9329 25.8294C46.6763 28.0193 44.9017 30.8202 43.8378 34.0203C43.6763 34.5064 43.1464 34.7714 42.6546 34.6114C42.2811 34.4901 42.0368 34.1589 42.0115 33.7937C42.0035 33.6779 42.0178 33.5588 42.0566 33.4419C43.1713 30.0883 45.0079 27.1354 47.3436 24.7837C45.8556 24.7189 44.3351 24.8112 42.8095 25.0707C42.2994 25.1576 41.8145 24.8191 41.7266 24.3149C41.6596 23.932 41.8412 23.5635 42.1558 23.3702C42.2554 23.309 42.3686 23.2652 42.4913 23.2446C44.7768 22.8555 47.0539 22.8135 49.2453 23.0864C50.7215 21.926 52.3431 20.9798 54.0683 20.2866C54.7051 20.6935 55.3215 21.1286 55.9151 21.5915C53.9471 22.2228 52.1061 23.2149 50.4596 24.5006Z" fill="#A90033"/>
</svg>
