<svg width="395" height="527" viewBox="0 0 395 527" fill="none" xmlns="http://www.w3.org/2000/svg">
<g style="mix-blend-mode:multiply" opacity="0.1">
<path d="M63.509 422.824C66.0713 423.941 68.7676 423.733 71.5086 423.733H474.781C477.76 423.733 481.529 424.373 484.255 422.884C485.462 422.228 483.421 420.753 482.512 421.245C479.786 422.735 475.064 421.915 472.085 421.915H70.8532C68.6485 421.915 66.2352 422.213 64.1496 421.319C62.6599 420.679 62.0492 422.183 63.509 422.809V422.824Z" fill="#65A4C5"/>
<path d="M475.975 429.885C473.174 431.136 469.778 430.645 466.784 430.645H81.5067C78.0208 430.645 73.2985 431.419 70.0361 430.138C70.349 430.258 71.064 431.628 71.7493 431.971C74.1775 432.924 77.1717 432.477 79.7191 432.477H467.067C470.508 432.477 474.619 433.148 477.822 431.717C477.822 431.717 476.452 429.677 475.975 429.885Z" fill="#65A4C5"/>
<path d="M77.2749 440.524C79.7478 441.611 82.5186 441.283 85.1702 441.283H461.554C464.073 441.515 466.612 441.205 469.002 440.375C469.553 440.136 471.296 438.528 469.807 439.183C466.827 440.494 462.656 439.809 459.379 439.809H89.2817C86.064 439.809 82.3398 440.36 79.3157 439.049C78.7348 438.796 76.9322 440.375 77.2749 440.539V440.524Z" fill="#65A4C5"/>
<path d="M85.8271 448.015C88.2255 449.058 90.7878 448.819 93.2755 448.819H454.226C457.205 448.819 460.453 449.251 463.253 448.03C463.641 447.866 462.3 445.721 461.615 446.019C458.784 447.24 455.313 446.749 452.304 446.749H95.5696C92.1583 446.749 87.9127 447.404 84.7396 446.033C84.0693 445.75 85.2461 447.791 85.8271 448.045V448.015Z" fill="#65A4C5"/>
<path d="M92.5137 455.838C96.7146 457.506 101.839 456.717 106.249 456.717H438.195C443.781 456.717 449.442 457.238 454.879 455.808C455.937 455.525 453.39 455.45 453.017 455.57C450.078 456.165 447.073 456.375 444.079 456.195H107.425C103.612 456.195 98.4873 456.97 95.0014 455.555C94.3162 455.287 92.6626 455.897 92.5137 455.838Z" fill="#65A4C5"/>
<path d="M103.732 465.402C107.962 467.264 113.489 466.325 118.003 466.325H437.302C439.648 466.543 442.015 466.258 444.243 465.491C445.733 464.865 443.663 463.554 442.754 464.001C440.206 465.118 437.153 464.686 434.426 464.686H114.562C111.582 464.686 107.605 465.327 104.76 464.076C103.523 463.539 102.153 464.746 103.747 465.431L103.732 465.402Z" fill="#65A4C5"/>
<path d="M115.023 474.264C119.387 475.679 124.154 475.172 128.683 475.172H417.875C422.91 475.172 428.616 475.932 433.472 474.353C434.455 474.04 432.266 472.863 431.551 473.057C426.62 474.651 420.557 473.772 415.417 473.772H125.182C121.979 473.772 118.493 474.144 115.41 473.146C113.92 472.67 113.548 473.772 115.023 474.249V474.264Z" fill="#65A4C5"/>
<path d="M269.339 0.17182V313.005C269.339 313.616 270.829 315.463 270.829 314.689V1.87006C270.829 1.25929 269.339 -0.587919 269.339 0.186717V0.17182Z" fill="#65A4C5"/>
<path d="M277.562 1.09544V313.393C277.562 314.57 280.14 314.882 280.14 313.735V1.48276C280.14 0.305909 277.562 -0.00692511 277.562 1.14013V1.09544Z" fill="#65A4C5"/>
<path d="M259.954 1.05166C259.954 41.8789 259.954 82.7112 259.954 123.548C259.954 164.554 259.954 205.56 259.954 246.566C259.954 257.987 259.954 269.408 259.954 280.829V306.258C259.954 308.552 259.611 310.936 260.565 313.081C260.967 313.99 263.321 314.57 262.695 313.081C261.727 310.891 262.308 307.465 262.308 305.111V282.274C262.308 272.065 262.308 261.856 262.308 251.646C262.308 231.575 262.308 211.504 262.308 191.433C262.308 151.122 262.308 110.812 262.308 70.5007C262.308 47.6589 262.308 24.8171 262.308 1.97526C262.308 0.977171 259.954 -0.0656071 259.954 1.02186V1.05166Z" fill="#65A4C5"/>
<path d="M286.546 1.48276C286.546 41.9724 286.546 82.457 286.546 122.937C286.546 163.416 286.546 203.901 286.546 244.391C286.546 255.811 286.546 267.232 286.546 278.653C286.546 284.185 286.546 289.722 286.546 295.263C286.546 298.243 286.546 301.182 286.546 304.082V308.238C286.546 309.728 286.903 311.352 286.143 312.707C285.637 313.542 288.125 314.197 288.542 313.527C289.495 311.948 289.108 310.1 289.108 308.298C289.108 305.527 289.108 302.761 289.108 300C289.108 294.985 289.108 289.97 289.108 284.955C289.108 274.745 289.108 264.536 289.108 254.327C289.108 233.908 289.108 213.495 289.108 193.086C289.108 152.427 289.108 111.769 289.108 71.1106C289.108 48.0999 289.108 25.0893 289.108 2.07864C289.108 1.15503 286.56 0.79751 286.56 1.57215L286.546 1.48276Z" fill="#65A4C5"/>
<path d="M293.576 1.48224C294.38 3.37414 293.755 6.66634 293.755 8.7072C293.755 11.2993 293.755 13.8913 293.755 16.4834C293.755 21.449 293.755 26.4593 293.755 31.5143C293.755 41.5349 293.755 51.5555 293.755 61.5761C293.755 81.6173 293.755 101.663 293.755 121.715C293.755 161.976 293.755 202.237 293.755 242.498C293.755 253.73 293.755 264.963 293.755 276.195C293.755 281.726 293.755 287.258 293.755 292.79C293.755 295.769 293.755 298.709 293.755 301.609V305.75C293.972 307.293 293.907 308.863 293.561 310.383C293.129 311.396 295.691 311.56 296.078 310.636C296.779 308.983 296.347 306.852 296.347 305.08C296.347 302.319 296.347 299.553 296.347 296.782C296.347 291.817 296.347 286.806 296.347 281.751C296.347 271.552 296.347 261.358 296.347 251.168C296.347 230.779 296.347 210.391 296.347 190.002C296.347 149.393 296.347 108.784 296.347 68.1754C296.347 56.7743 296.347 45.3534 296.347 33.9127C296.347 28.2121 296.347 22.5116 296.347 16.8111C296.347 14.0502 296.347 11.2844 296.347 8.51355C296.347 6.18964 296.972 3.04641 296.049 0.886365C295.676 -0.00744557 293.069 0.364975 293.576 1.43755V1.48224Z" fill="#65A4C5"/>
<path d="M251.33 2.27337C250.749 12.0308 251.211 21.9372 251.211 31.7095C251.211 41.899 251.211 52.0884 251.211 62.2778C251.211 82.3091 251.211 102.345 251.211 122.387C251.211 162.628 251.211 202.849 251.211 243.051C251.211 254.452 251.211 265.873 251.211 277.314C251.211 282.845 251.211 288.372 251.211 293.894C251.211 296.873 251.211 299.808 251.211 302.698C251.211 304.843 250.63 307.554 251.777 309.446C252.15 310.057 254.623 309.446 254.176 308.672C253.133 306.929 253.758 303.636 253.758 301.67C253.758 299.078 253.758 296.486 253.758 293.894C253.758 288.928 253.758 283.918 253.758 278.863C253.758 268.842 253.758 258.827 253.758 248.816C253.758 228.785 253.758 208.749 253.758 188.707C253.758 148.814 253.758 108.915 253.758 69.0112C253.758 57.7889 253.758 46.5617 253.758 35.3295C253.758 24.1866 253.222 12.8799 253.878 1.75198C253.878 1.14121 251.375 1.39446 251.33 2.25848V2.27337Z" fill="#65A4C5"/>
<path d="M303.245 1.48242C302.664 11.2399 303.126 21.1314 303.126 30.9037C303.126 40.676 303.126 50.5824 303.126 60.4292C303.126 80.2917 303.126 100.154 303.126 120.017C303.126 159.741 303.126 199.466 303.126 239.191C303.126 250.414 303.126 261.636 303.126 272.858C303.126 278.38 303.126 283.907 303.126 289.438C303.126 292.199 303.126 294.96 303.126 297.721C303.126 300.328 303.677 303.68 302.396 306.048C302.083 306.629 303.751 308.193 303.692 308.298C304.373 306.781 304.645 305.111 304.481 303.456C304.481 300.864 304.481 298.272 304.481 295.68C304.481 290.714 304.481 285.709 304.481 280.664C304.481 270.653 304.481 260.638 304.481 250.617C304.481 230.586 304.481 210.56 304.481 190.538C304.481 150.654 304.481 110.776 304.481 70.9017C304.481 59.6794 304.481 48.4571 304.481 37.2348C304.481 26.092 303.945 14.7853 304.6 3.65736C304.6 2.95721 303.245 1.69098 303.26 1.54201L303.245 1.48242Z" fill="#65A4C5"/>
<path d="M242.391 2.77843C242.391 42.4139 242.391 82.0544 242.391 121.7C242.391 161.167 242.391 200.633 242.391 240.1C242.391 251.183 242.391 262.261 242.391 273.335C242.391 278.876 242.391 284.418 242.391 289.96V298.272C242.152 300.501 242.365 302.756 243.016 304.901C243.523 306.123 245.891 305.78 245.266 304.276C244.342 302.026 244.908 298.555 244.908 296.142V288.872C244.908 284.026 244.908 279.179 244.908 274.333C244.908 264.461 244.908 254.595 244.908 244.733C244.908 225.168 244.908 205.609 244.908 186.054C244.908 147.104 244.908 108.159 244.908 69.2183C244.908 47.2306 244.908 25.2478 244.908 3.27003C244.908 1.974 242.391 1.37813 242.391 2.80823V2.77843Z" fill="#65A4C5"/>
<path d="M311.361 3.38946C311.927 12.8192 311.48 22.3829 311.48 31.8275C311.48 41.5105 311.48 51.1984 311.48 60.8912C311.48 80.0982 311.48 99.3003 311.48 118.497C311.48 157.08 311.48 195.658 311.48 234.231C311.48 245.155 311.48 256.055 311.48 266.929C311.48 272.292 311.48 277.655 311.48 283.018C311.48 285.61 311.48 288.207 311.48 290.809C311.738 293.808 311.491 296.829 310.75 299.747C310.333 300.969 312.806 301.758 313.223 300.522C314.638 296.425 314.028 291.733 314.028 287.472C314.028 282.626 314.028 277.784 314.028 272.948C314.028 263.265 314.028 253.577 314.028 243.884C314.028 224.339 314.028 204.79 314.028 185.235C314.028 146.503 314.028 107.772 314.028 69.0398C314.028 58.1155 314.028 47.2159 314.028 36.3413C314.028 25.5262 314.549 14.5472 313.908 3.74698C313.908 2.49565 311.287 2.10833 311.361 3.49373V3.38946Z" fill="#65A4C5"/>
<path d="M125.975 482.517C130.116 483.872 134.51 483.545 138.801 483.545H409.923C413.747 483.707 417.571 483.244 421.245 482.174C422.734 481.668 420.336 482.07 419.904 482.174C416.979 482.867 413.962 483.093 410.966 482.844H144.074C138.92 482.844 133.363 483.47 128.403 481.831C127.732 481.608 126.243 482.576 125.99 482.487L125.975 482.517Z" fill="#65A4C5"/>
<path d="M234.035 2.7202C233.469 4.34989 233.271 6.08462 233.454 7.80002V15.0697C233.454 19.9161 233.454 24.7625 233.454 29.609C233.454 39.3019 233.454 48.9947 233.454 58.6876C233.454 78.0734 233.454 97.4392 233.454 116.785C233.454 155.517 233.454 194.284 233.454 233.085C233.454 243.811 233.454 254.541 233.454 265.277C233.454 270.819 233.454 276.355 233.454 281.887C233.454 284.479 233.454 287.076 233.454 289.678C233.521 291.988 233.8 294.287 234.289 296.545C234.512 297.797 236.866 298.154 236.598 296.545C236.163 294.471 235.914 292.362 235.853 290.244C235.853 287.652 235.853 285.055 235.853 282.453C235.853 277.775 235.853 273.103 235.853 268.435C235.853 258.921 235.853 249.402 235.853 239.878C235.853 220.671 235.853 201.459 235.853 182.242C235.853 144.166 235.853 106.089 235.853 68.013C235.853 57.2873 235.853 46.5566 235.853 35.821C235.853 30.4581 235.853 25.0952 235.853 19.7324V11.4795C235.853 9.11094 235.302 5.9975 236.315 3.80767C236.836 2.6904 234.602 1.43907 234.006 2.7053L234.035 2.7202Z" fill="#65A4C5"/>
<path d="M320.287 4.83383C320.287 41.8078 320.287 78.7817 320.287 115.756C320.287 152.561 320.287 189.366 320.287 226.171C320.287 236.539 320.287 246.907 320.287 257.276C320.287 262.46 320.287 267.644 320.287 272.828C320.287 277.967 321.002 283.717 319.542 288.693C319.2 289.87 321.539 290.928 321.941 289.587C323.103 285.639 322.715 281.408 322.715 277.342C322.715 272.674 322.715 268.011 322.715 263.354C322.715 254.028 322.715 244.698 322.715 235.362C322.715 216.87 322.715 198.383 322.715 179.901C322.715 142.749 322.715 105.601 322.715 68.4582C322.715 47.3742 322.715 26.2952 322.715 5.22114C322.715 3.9996 320.302 3.34414 320.302 4.84872L320.287 4.83383Z" fill="#65A4C5"/>
<path d="M226.51 5.01214C225.973 13.9502 226.39 22.9926 226.39 31.9158C226.39 41.0923 226.39 50.2687 226.39 59.4452C226.39 77.7981 226.39 96.1709 226.39 114.563C226.39 151.309 226.39 188.02 226.39 224.696C226.39 235.084 226.39 245.472 226.39 255.86C226.39 260.885 226.39 265.905 226.39 270.921C226.39 275.673 226.227 280.276 227.448 284.909C227.686 285.803 229.876 286.89 229.489 285.43C228.602 281.166 228.277 276.804 228.521 272.455C228.521 267.777 228.521 263.1 228.521 258.422C228.521 249.415 228.521 240.412 228.521 231.414C228.521 213.061 228.521 194.689 228.521 176.296C228.521 139.928 228.521 103.565 228.521 67.2064C228.521 56.9872 228.521 46.768 228.521 36.5487C228.521 26.404 228.044 16.1252 228.64 5.99533C228.64 5.08662 226.584 3.70121 226.51 4.98234V5.01214Z" fill="#65A4C5"/>
<path d="M141.821 491.693C145.238 492.481 148.75 492.772 152.249 492.557H394.144C398.613 492.557 403.246 493.048 407.551 491.797C408.385 491.558 406.24 490.382 405.614 490.575C401.637 491.737 397.302 491.305 393.205 491.305H156.524C151.683 491.305 146.097 492.02 141.479 490.635C139.766 490.128 140.793 491.395 141.806 491.693H141.821Z" fill="#65A4C5"/>
<path d="M389.153 499.528C385.295 500.496 381.153 500.184 377.235 500.184H172.538C168.069 500.184 163.302 500.616 158.952 499.513C158.118 499.305 155.883 500.407 157.284 500.765C164.136 502.493 171.778 501.614 178.795 501.614H378.8C382.565 501.794 386.338 501.504 390.032 500.75C391.73 500.318 390.36 499.26 389.153 499.513V499.528Z" fill="#65A4C5"/>
<path d="M373.037 506.814C366.482 508.185 359.63 507.782 353.016 507.782H197.94C190.223 507.782 182.06 508.527 174.477 506.874C173.539 506.665 171.945 507.008 173.702 507.395C179.661 508.706 185.799 508.527 191.891 508.527H354.759C361.581 508.527 368.508 508.87 375.227 507.47C375.748 507.365 373.618 506.71 373.052 506.829L373.037 506.814Z" fill="#65A4C5"/>
<path d="M57.1345 414.468C58.809 415.172 60.6256 415.473 62.4378 415.347H208.74C215.175 415.347 221.655 414.959 228.016 416.077C229.506 416.33 229.089 413.842 227.897 413.634C222.995 412.922 218.039 412.663 213.089 412.859C207.444 412.859 201.813 412.859 196.167 412.859H67.5027C64.5233 412.859 60.3373 413.559 57.5367 412.204C56.047 411.503 56.047 413.917 57.1345 414.453V414.468Z" fill="#65A4C5"/>
<path d="M485.954 412.994C483.734 413.798 480.636 413.232 478.282 413.232H336.241C330.41 412.969 324.568 413.219 318.782 413.977C318.528 413.977 319.959 415.794 320.629 415.675C325.77 414.957 330.965 414.708 336.151 414.93C341.633 414.93 347.115 414.93 352.538 414.93H478.461C481.217 414.93 485.105 415.63 487.697 414.692C488.054 414.558 486.431 412.785 485.85 412.994H485.954Z" fill="#65A4C5"/>
<path d="M50.9831 405.068C54.5435 406.781 59.0423 406.051 62.9006 406.051H186.783C192.741 406.051 199.236 405.276 204.987 406.721C206.655 407.139 206.476 405.381 205.091 405.038C200.912 404.231 196.648 403.945 192.399 404.189H61.3066C58.4613 404.189 54.3796 404.904 51.7726 403.653C50.283 402.967 49.5828 404.368 51.0278 405.053L50.9831 405.068Z" fill="#65A4C5"/>
<path d="M348.159 515.187C338.685 516.766 328.689 515.932 319.11 515.932H231.219C220.508 515.932 209.38 516.796 198.774 515.187C197.105 514.934 198.193 516.87 199.34 517.049C208.799 518.539 218.706 517.794 228.165 517.794H317.069C322.7 517.794 328.331 517.794 333.977 517.794C339.099 517.984 344.228 517.73 349.306 517.034C350.796 516.781 349.202 515.008 348.159 515.187Z" fill="#65A4C5"/>
<path d="M489.484 403.696C487.369 404.634 484.449 404.173 482.185 404.173H357.647C352.463 404.173 346.966 403.651 341.901 404.932C341.529 405.022 342.929 407.018 343.495 406.869C347.964 405.752 352.627 406.109 357.171 406.109H484.3C486.55 406.109 489.172 406.511 491.272 405.588C491.466 405.498 490.11 403.428 489.499 403.696H489.484Z" fill="#65A4C5"/>
<path d="M45.7549 396.68C48.8684 398.349 53.2033 397.544 56.6594 397.544H179.543C182.539 397.33 185.549 397.551 188.482 398.2C189.971 398.632 191.237 396.576 189.629 396.099C185.8 394.967 181.808 395.235 177.845 395.235H54.9463C52.4287 395.235 49.211 395.802 46.9318 394.58C46.7939 394.505 46.6425 394.457 46.4862 394.44C46.33 394.424 46.172 394.438 46.0212 394.482C45.8704 394.526 45.7298 394.6 45.6074 394.698C45.4851 394.797 45.3833 394.919 45.308 395.057C45.2327 395.195 45.1853 395.346 45.1685 395.502C45.1517 395.658 45.1658 395.817 45.2101 395.967C45.2543 396.118 45.3279 396.259 45.4265 396.381C45.5251 396.503 45.6468 396.605 45.7847 396.68H45.7549Z" fill="#65A4C5"/>
<path d="M140.765 36.1026C139.126 39.082 139.96 43.6404 139.96 46.9922C139.96 51.64 139.96 56.2879 139.96 60.9357C139.96 69.8738 139.96 78.8119 139.96 87.75C139.96 105.835 139.96 123.919 139.96 142.004C139.96 147.168 139.96 152.338 139.96 157.512C139.96 159.925 139.96 162.338 139.96 164.752C139.96 166.837 140.661 170.845 139.514 172.751C139.141 173.362 140.482 175.448 140.795 174.911C141.674 173.422 141.331 171.932 141.331 170.204C141.331 167.969 141.331 165.735 141.331 163.485C141.331 158.838 141.331 154.19 141.331 149.542C141.331 140.604 141.331 131.666 141.331 122.728C141.331 104.643 141.331 86.5582 141.331 68.4735C141.331 63.3092 141.331 58.14 141.331 52.9659C141.331 50.5526 141.331 48.1393 141.331 45.726C141.331 43.3276 140.869 40.4525 142.046 38.2776C142.389 37.637 141.033 35.5961 140.765 36.1175V36.1026Z" fill="#65A4C5"/>
<path d="M148.616 31.9153C148.085 33.7217 147.918 35.6153 148.124 37.4867V44.6819C148.124 49.1807 148.124 53.6796 148.124 58.1784C148.124 67.1761 148.124 76.1738 148.124 85.1715C148.124 102.988 148.124 120.805 148.124 138.621C148.124 143.637 148.124 148.652 148.124 153.667C148.124 156.09 148.124 158.514 148.124 160.937C148.124 163.35 148.377 165.793 147.364 168.043C147.364 168.043 149.748 168.966 149.897 168.624C151.506 165.033 150.656 160.177 150.656 156.334C150.656 151.835 150.656 147.336 150.656 142.837C150.656 133.839 150.656 124.842 150.656 115.844C150.656 98.0274 150.656 80.2108 150.656 62.3942C150.656 57.3789 150.656 52.3637 150.656 47.3484V40.1234C150.656 37.6804 150.21 34.7755 151.148 32.4814C151.148 32.4814 148.75 31.5727 148.616 31.9004V31.9153Z" fill="#65A4C5"/>
<path d="M131.172 42.5665C130.683 44.0793 130.51 45.6766 130.666 47.259C130.666 49.6723 130.666 52.0856 130.666 54.4989C130.666 58.809 130.666 63.1241 130.666 67.4442C130.666 76.3823 130.666 85.3552 130.666 94.3628C130.666 111.961 130.666 129.559 130.666 147.157C130.666 157.337 130.666 167.516 130.666 177.696C130.666 178.515 133.258 178.441 133.258 177.577C133.258 142.728 133.258 107.879 133.258 73.0305C133.258 68.0649 133.258 63.0596 133.258 58.0145C133.258 55.6012 133.258 53.1879 133.258 50.7746C133.258 48.2869 132.751 45.1287 133.72 42.7899C134.062 41.9557 131.515 41.8216 131.202 42.5814L131.172 42.5665Z" fill="#65A4C5"/>
<path d="M176.665 387.311C173.239 385.821 168.799 386.491 165.12 386.491H50.4143C48.0904 386.491 44.679 387.117 42.4892 386.312C40.9995 385.761 41.0889 388.189 42.3104 388.621C43.8993 389.004 45.543 389.105 47.1668 388.919H169.172C171.615 388.919 174.237 388.592 176.516 389.62C178.006 390.275 177.857 387.832 176.695 387.311H176.665Z" fill="#65A4C5"/>
<path d="M490.693 395.204H370.699C366.349 395.204 361.895 394.861 357.709 396.246C356.219 396.738 357.381 398.958 358.632 398.54C363.697 396.872 369.417 397.542 374.676 397.542H491.035C492.674 397.542 492.063 395.204 490.693 395.204Z" fill="#65A4C5"/>
<path d="M157.584 27.5355C156.616 29.7253 157.093 32.5706 157.093 34.9839C157.093 37.7547 157.093 40.5206 157.093 43.2815C157.093 48.8132 157.093 54.3448 157.093 59.8765C157.093 70.9399 157.093 82.0083 157.093 93.0816C157.093 104.155 157.093 115.223 157.093 126.287C157.093 131.818 157.093 137.35 157.093 142.882C157.093 145.653 157.093 148.418 157.093 151.179C157.093 153.593 157.346 156.036 156.333 158.285C156.229 158.508 158.642 159.224 158.91 158.643C159.923 156.393 159.67 153.95 159.67 151.537C159.67 148.766 159.67 146 159.67 143.239C159.67 137.708 159.67 132.176 159.67 126.644C159.67 115.581 159.67 104.512 159.67 93.4391C159.67 82.3658 159.67 71.2974 159.67 60.2341C159.67 54.7024 159.67 49.1707 159.67 43.639C159.67 40.8682 159.67 38.1023 159.67 35.3414C159.67 32.9877 159.193 30.1425 160.161 27.893C160.266 27.6547 157.837 26.9545 157.584 27.5355Z" fill="#65A4C5"/>
<path d="M122.234 48.8998C121.863 50.2367 121.752 51.6324 121.907 53.0113C121.907 55.2458 121.907 57.4803 121.907 59.7149C121.907 64.0151 121.907 68.3153 121.907 72.6155C121.907 81.216 121.907 89.8164 121.907 98.4168C121.907 115.787 121.907 133.166 121.907 150.556C121.907 160.358 121.907 170.16 121.907 179.962C121.907 181.333 124.037 182.033 124.037 180.335C124.037 158.665 124.037 136.995 124.037 115.325C124.037 104.659 124.037 93.9974 124.037 83.3412C124.037 77.8393 124.037 72.3374 124.037 66.8355C124.037 64.0846 124.037 61.3336 124.037 58.5827C124.037 57.2023 124.037 55.8268 124.037 54.4563C123.869 53.1318 123.915 51.789 124.171 50.4788C124.588 49.3169 122.681 47.4994 122.249 48.9891L122.234 48.8998Z" fill="#65A4C5"/>
<path d="M388.827 26.5248C389.328 28.9386 389.498 31.4092 389.334 33.8689C389.334 36.6298 389.334 39.3857 389.334 42.1366C389.334 47.6485 389.334 53.1653 389.334 58.687C389.334 69.7206 389.334 80.7492 389.334 91.7729C389.334 102.797 389.334 113.825 389.334 124.859C389.334 130.371 389.334 135.887 389.334 141.409C389.334 146.325 388.425 152.105 390.347 156.738C390.719 157.647 393.207 156.932 392.864 156.112C390.958 151.479 391.851 145.685 391.851 140.783C391.851 135.272 391.851 129.755 391.851 124.233C391.851 113.2 391.851 102.171 391.851 91.1472C391.851 80.1236 391.851 69.0949 391.851 58.0614C391.851 52.5495 391.851 47.0327 391.851 41.511C391.851 38.7501 391.851 35.9942 391.851 33.2432C392.015 30.7835 391.845 28.313 391.345 25.8991C391.092 24.9904 388.574 25.616 388.827 26.5248Z" fill="#65A4C5"/>
<path d="M167.416 380.011C162.813 378.521 157.509 379.206 152.727 379.206H42.1185C40.6282 379.387 39.1185 379.321 37.6494 379.013C37.1429 378.834 38.4836 380.621 39.005 380.815C41.0459 381.56 43.6231 381.098 45.7831 381.098H152.31C157.554 381.098 163.736 380.189 168.771 381.813C169.293 381.977 167.952 380.175 167.416 380.011Z" fill="#65A4C5"/>
<path d="M113.698 55.1116C112.972 57.1951 112.698 59.4091 112.893 61.6066C112.893 64.3774 112.893 67.1483 112.893 69.9191C112.893 75.1131 112.893 80.3022 112.893 85.4863C112.893 96.0432 112.893 106.6 112.893 117.157C112.893 138.44 112.893 159.722 112.893 181.005C112.893 181.869 115.485 181.794 115.485 180.886C115.485 159.951 115.485 139.011 115.485 118.066C115.485 107.688 115.485 97.3044 115.485 86.9164C115.485 81.7223 115.485 76.5333 115.485 71.3492C115.485 68.7571 115.485 66.1601 115.485 63.5581C115.485 60.8618 115.098 57.8675 116.2 55.3351C116.573 54.4711 114.025 54.337 113.683 55.1116H113.698Z" fill="#65A4C5"/>
<path d="M166.417 23.6796C165.375 25.4226 165.926 27.955 165.911 29.9214C165.911 32.6823 165.911 35.4432 165.911 38.2041C165.911 43.3782 165.911 48.5524 165.911 53.7266C165.911 64.2437 165.911 74.7659 165.911 85.2929C165.911 95.82 165.911 106.342 165.911 116.859C165.911 122.034 165.911 127.208 165.911 132.382C165.911 135.143 165.911 137.904 165.911 140.664C165.911 143.391 166.268 146.355 165.166 148.902C164.883 149.558 167.252 150.63 167.535 149.975C168.247 147.904 168.511 145.705 168.309 143.525C168.309 140.764 168.309 138.003 168.309 135.242C168.309 130.068 168.309 124.894 168.309 119.72C168.309 109.202 168.309 98.6802 168.309 88.1531C168.309 77.626 168.309 67.1039 168.309 56.5868C168.309 51.4126 168.309 46.2384 168.309 41.0642C168.309 38.3034 168.309 35.5425 168.309 32.7816C168.309 30.5024 167.609 26.7186 168.786 24.7522C169.114 24.201 166.82 23.0242 166.417 23.6796Z" fill="#65A4C5"/>
<path d="M380.664 23.8274C380.664 44.8618 380.664 65.8911 380.664 86.9155C380.664 97.2539 380.664 107.597 380.664 117.946C380.664 123.12 380.664 128.289 380.664 133.453C380.664 136.214 380.664 138.97 380.664 141.721C380.481 143.853 380.771 146 381.513 148.007C382.005 149.095 384.269 147.814 383.748 146.697C382.661 144.283 383.063 141.378 383.063 138.801C383.063 136.224 383.063 133.975 383.063 131.561C383.063 126.387 383.063 121.218 383.063 116.054C383.063 105.715 383.063 95.372 383.063 85.0236C383.063 64.3369 383.063 43.6501 383.063 22.9634C383.063 21.7121 380.649 22.6506 380.649 23.8125L380.664 23.8274Z" fill="#65A4C5"/>
<path d="M158.477 371.148C156.646 370.465 154.691 370.18 152.742 370.313H66.6081C55.8675 370.313 44.963 370.835 34.2373 370.194C32.9562 370.12 34.0734 372.384 34.9821 372.429C44.8289 373.01 54.8098 372.548 64.6715 372.548H149.777C152.757 372.548 156.019 372.041 158.715 373.233C160.086 373.829 159.281 371.52 158.447 371.148H158.477Z" fill="#65A4C5"/>
<path d="M173.18 21.1459C173.18 41.2864 173.18 61.4269 173.18 81.5675C173.18 91.5483 173.18 101.534 173.18 111.525C173.18 116.491 173.18 121.481 173.18 126.496C173.18 128.91 173.18 131.318 173.18 133.721C173.18 136.403 173.732 139.68 172.525 142.183C172.019 143.24 174.134 144.715 174.611 143.672C176.368 140.052 175.489 135.136 175.489 131.219C175.489 126.054 175.489 120.89 175.489 115.726C175.489 105.229 175.489 94.7313 175.489 84.234C175.489 63.3784 175.489 42.5526 175.489 21.7567C175.489 20.699 173.18 19.7009 173.18 21.1161V21.1459Z" fill="#65A4C5"/>
<path d="M29.9034 363.31C31.9443 364.218 34.3725 363.876 36.5027 363.876H142.747C145.339 363.876 148.706 363.295 151.134 364.308C152.624 364.903 152.162 362.52 151.134 362.088C148.989 361.194 146.575 361.522 144.281 361.522H38.0371C35.5493 361.522 32.2124 362.118 29.9034 361.09C28.4137 360.449 28.8904 362.863 29.9034 363.31Z" fill="#65A4C5"/>
<path d="M371.369 19.5515C372.173 21.7562 371.607 24.8846 371.607 27.2383C371.607 29.592 371.607 32.0798 371.607 34.5079C371.607 39.702 371.607 44.896 371.607 50.09C371.607 60.1305 371.607 70.171 371.607 80.2114C371.607 90.2519 371.607 100.292 371.607 110.333C371.607 115.527 371.607 120.721 371.607 125.915C371.607 128.338 371.607 130.761 371.607 133.185C371.607 135.598 371.354 138.041 372.367 140.29C372.68 140.991 375.123 140.201 374.884 139.65C373.871 137.4 374.125 134.957 374.125 132.544C374.125 130.131 374.125 127.703 374.125 125.274C374.125 120.08 374.125 114.886 374.125 109.692C374.125 99.6518 374.125 89.6113 374.125 79.5709C374.125 69.5304 374.125 59.4899 374.125 49.4495C374.125 44.2554 374.125 39.0614 374.125 33.8674C374.125 31.4442 374.125 29.0209 374.125 26.5977C374.125 24.244 374.691 21.1157 373.886 18.911C373.633 18.2257 371.145 18.911 371.369 19.5515Z" fill="#65A4C5"/>
<path d="M106.831 60.0286C105.967 62.1141 106.309 64.4976 106.309 66.7023C106.309 68.9071 106.309 71.5289 106.309 73.9571C106.309 78.7936 106.309 83.6252 106.309 88.4517C106.309 98.6312 106.309 108.816 106.309 119.005C106.309 139.195 106.309 159.39 106.309 179.591C106.309 180.306 107.695 181.527 107.695 181.676C107.695 161.814 107.695 141.951 107.695 122.089C107.695 112.247 107.695 102.41 107.695 92.5782C107.695 87.7416 107.695 82.9101 107.695 78.0835C107.695 75.6702 107.695 73.252 107.695 70.8288C107.695 68.1622 107.129 64.736 108.171 62.2333C108.439 61.5778 106.756 60.1775 106.831 60.0137V60.0286Z" fill="#65A4C5"/>
<path d="M489.872 387.043H382.898C378.593 387.043 373.96 386.522 369.803 387.862C368.463 388.294 370.772 389.203 371.487 388.965C376.209 387.475 382.108 388.265 387.039 388.265H490.378C492.136 388.265 491.064 387.028 489.872 387.028V387.043Z" fill="#65A4C5"/>
<path d="M182.551 16.5427C181.657 18.5686 182.014 21.0117 182.014 23.1122C182.014 25.5155 182.014 27.9189 182.014 30.3222C182.014 35.4666 182.014 40.6159 182.014 45.7703C182.014 55.7015 182.014 65.6327 182.014 75.5639C182.014 85.4951 182.014 95.4264 182.014 105.358C182.014 110.502 182.014 115.651 182.014 120.806C182.014 123.209 182.014 125.612 182.014 128.016C182.014 130.518 182.416 133.319 181.284 135.643C180.748 136.745 183.31 137.043 183.802 136.045C184.524 134.147 184.8 132.108 184.606 130.086C184.606 127.683 184.606 125.28 184.606 122.876C184.606 117.732 184.606 112.583 184.606 107.428C184.606 97.497 184.606 87.5658 184.606 77.6346C184.606 67.7034 184.606 57.7721 184.606 47.8409C184.606 42.6965 184.606 37.5472 184.606 32.3929C184.606 29.9895 184.606 27.5862 184.606 25.1828C184.606 22.6653 184.025 19.3731 185.068 17.0194C185.575 15.8872 182.997 15.5297 182.551 16.6171V16.5427Z" fill="#65A4C5"/>
<path d="M25.9829 354.284C27.8722 354.933 29.8803 355.162 31.8672 354.954H135.907C138.484 354.954 141.865 354.388 144.219 355.535C145.709 356.265 146.394 354.046 145.068 353.405C141.404 351.632 136.458 352.467 132.51 352.467H35.6808C33.1483 352.467 29.2006 353.182 26.832 352.139C25.3424 351.454 24.6422 353.629 25.9829 354.269V354.284Z" fill="#65A4C5"/>
<path d="M362.164 15.4704C363.34 17.6454 362.879 20.5056 362.879 22.9189C362.879 25.3321 362.879 27.7454 362.879 30.1587C362.879 34.9853 362.879 39.8168 362.879 44.6533C362.879 54.6541 362.879 64.6598 362.879 74.6705C362.879 84.6811 362.879 94.6868 362.879 104.688C362.879 109.514 362.879 114.346 362.879 119.182C362.879 121.595 362.879 124.009 362.879 126.422C362.879 128.433 362.342 130.891 363.415 132.723C363.936 133.587 366.484 133.215 365.918 132.262C364.741 130.28 365.486 126.541 365.486 124.307C365.486 122.072 365.486 119.48 365.486 117.067C365.486 112.24 365.486 107.409 365.486 102.572C365.486 92.5715 365.486 82.5658 365.486 72.5551C365.486 62.5444 365.486 52.5387 365.486 42.538C365.486 37.7114 365.486 32.8799 365.486 28.0434C365.486 25.6301 365.486 23.2168 365.486 20.8035C365.711 18.8434 365.429 16.8582 364.666 15.0384C364.19 14.1446 361.687 14.5021 362.164 15.5002V15.4704Z" fill="#65A4C5"/>
<path d="M191.533 13.4005C190.52 15.0839 190.982 17.229 190.982 19.1209C190.982 21.703 190.982 24.2802 190.982 26.8524C190.982 31.669 190.982 36.4857 190.982 41.3023C190.982 51.1044 190.982 60.9066 190.982 70.7087C190.982 80.5108 190.982 90.3129 190.982 100.115C190.982 104.932 190.982 109.748 190.982 114.565C190.982 119.302 191.667 124.695 190.49 129.298C190.296 130.073 192.397 131.518 192.62 130.654C193.723 126.333 193.112 121.373 193.112 116.948C193.112 112.132 193.112 107.315 193.112 102.499C193.112 92.6964 193.112 82.8943 193.112 73.0922C193.112 63.4589 193.112 53.8306 193.112 44.2072C193.112 39.3906 193.112 34.5739 193.112 29.7573C193.112 27.3539 193.112 24.9456 193.112 22.5323C193.112 20.4169 192.412 16.9162 193.529 15.0839C193.976 14.3241 191.92 12.7749 191.533 13.4303V13.4005Z" fill="#65A4C5"/>
<path d="M24.1081 344.868C25.5781 345.411 27.1505 345.619 28.7112 345.478H130.501C132.885 345.478 136.281 344.853 138.546 345.672C138.814 345.776 137.294 344.465 136.773 344.272C134.89 343.859 132.951 343.768 131.038 344.004H30.2903C27.9962 344.004 24.8678 344.57 22.7227 343.616C21.7693 343.199 23.7506 344.689 24.1081 344.853V344.868Z" fill="#65A4C5"/>
<path d="M354.267 12.9823C354.267 32.2985 354.267 51.6197 354.267 70.9459C354.267 80.6089 354.267 90.2671 354.267 99.9202C354.267 104.747 354.267 109.578 354.267 114.415V121.148C354.031 123.149 354.208 125.177 354.788 127.107C355.116 127.852 357.499 128.731 357.052 127.718C356.129 125.617 356.576 122.817 356.576 120.537V113.372C356.576 108.545 356.576 103.714 356.576 98.8774C356.576 89.5619 356.576 80.2465 356.576 70.931C356.576 51.9524 356.576 32.9788 356.576 14.0102C356.576 13.1163 354.252 12.0587 354.252 12.9972L354.267 12.9823Z" fill="#65A4C5"/>
<path d="M199.785 11.9119C199.785 30.7316 199.785 49.5463 199.785 68.356C199.785 77.6814 199.785 87.0019 199.785 96.3174C199.785 100.975 199.785 105.638 199.785 110.305C199.785 112.719 199.785 115.137 199.785 117.56C199.785 119.676 200.113 122.029 199.085 123.921C198.519 124.979 200.843 126.141 201.409 125.068C202.092 123.578 202.374 121.934 202.228 120.301C202.228 117.888 202.228 115.475 202.228 113.047C202.228 108.21 202.228 103.378 202.228 98.5519C202.228 89.0576 202.228 79.5634 202.228 70.0691C202.228 50.9118 202.228 31.7495 202.228 12.5822C202.228 11.4352 199.77 10.6308 199.77 11.897L199.785 11.9119Z" fill="#65A4C5"/>
<path d="M346.58 10.4215C347.339 12.507 346.758 15.6949 346.758 17.8699C346.758 20.0448 346.758 22.7113 346.758 25.1246C346.758 29.6135 346.758 34.0826 346.758 38.5318C346.758 48.036 346.758 57.5352 346.758 67.0294C346.758 76.3549 346.758 85.6852 346.758 95.0206C346.758 99.6883 346.758 104.351 346.758 109.009C346.758 111.432 346.758 113.85 346.758 116.263C346.53 118.193 346.63 120.148 347.056 122.043C347.295 122.699 349.633 123.533 349.291 122.624C348.531 120.539 349.112 117.351 349.112 115.176C349.112 113.001 349.112 110.335 349.112 107.921C349.112 103.432 349.112 98.9633 349.112 94.5141C349.112 85.0099 349.112 75.5107 349.112 66.0164C349.112 56.691 349.112 47.3606 349.112 38.0253C349.112 33.3576 349.112 28.6949 349.112 24.0372C349.112 21.6139 349.112 19.1957 349.112 16.7824C349.34 14.8528 349.24 12.8984 348.814 11.0024C348.576 10.347 346.237 9.51274 346.58 10.4215Z" fill="#65A4C5"/>
<path d="M134 335.783C132.806 335.094 131.421 334.812 130.053 334.978C127.654 334.978 125.241 334.978 122.843 334.978H50.2206C40.6717 334.978 31.0037 335.425 21.4846 334.859C19.7864 334.755 20.2333 336.855 21.7379 336.945C30.7504 337.481 39.8971 337.064 48.9395 337.064H128.191C129.219 337.064 131.364 336.677 132.287 337.243C133.464 337.943 135.401 336.647 133.941 335.753L134 335.783Z" fill="#65A4C5"/>
<path d="M133.422 189.512C131.485 190.212 128.476 189.675 126.405 189.675H22.5892C21.3975 189.675 20.0716 191.493 21.755 191.493H128.684C130.431 191.7 132.201 191.599 133.913 191.195C135.403 190.659 134.941 188.975 133.422 189.526V189.512Z" fill="#65A4C5"/>
<path d="M97.5791 68.6529C95.9852 72.3026 96.7449 76.9802 96.7449 80.8683C96.7449 85.6948 96.7449 90.5264 96.7449 95.3629C96.7449 105.026 96.7449 114.684 96.7449 124.337C96.7449 133.99 96.7449 143.649 96.7449 153.312C96.7449 158.138 96.7449 162.97 96.7449 167.806V174.54C96.509 176.477 96.6867 178.441 97.2663 180.305C97.6685 181.198 100.097 180.305 99.7243 179.456C98.8156 177.444 99.2327 174.689 99.2327 172.514C99.2327 170.1 99.2327 167.687 99.2327 165.274C99.2327 160.785 99.2327 156.316 99.2327 151.867C99.2327 142.551 99.2327 133.236 99.2327 123.92C99.2327 114.605 99.2327 105.289 99.2327 95.9737C99.2327 91.4848 99.2327 87.0157 99.2327 82.5665C99.2327 80.1532 99.2327 77.7399 99.2327 75.3266C98.9713 73.0345 99.205 70.7129 99.9179 68.5188C100.41 67.4015 97.9218 67.8037 97.5642 68.5933L97.5791 68.6529Z" fill="#65A4C5"/>
<path d="M129.295 198.12C127.194 199.044 124.304 198.567 122.04 198.567H18.9388C18.4919 198.567 19.7283 200.563 20.4284 200.563H125.645C127.471 200.766 129.319 200.578 131.067 200.012C131.44 199.848 130.01 197.793 129.295 198.12Z" fill="#65A4C5"/>
<path d="M208.472 9.45138C208.472 27.7149 208.472 45.9784 208.472 64.2419C208.472 73.18 208.472 82.1181 208.472 91.0563C208.472 95.5352 208.472 100.004 208.472 104.463C208.472 106.877 208.472 109.29 208.472 111.703C208.472 113.953 209.038 116.962 208.263 119.077C207.772 120.418 210.274 121.118 210.766 119.762C211.187 117.805 211.277 115.791 211.034 113.804C211.034 111.39 211.034 108.977 211.034 106.564C211.034 102.085 211.034 97.6158 211.034 93.1567C211.034 83.8512 211.034 74.5456 211.034 65.24C211.034 46.6289 211.034 28.0228 211.034 9.42158C211.034 8.03618 208.472 7.81272 208.472 9.3173V9.45138Z" fill="#65A4C5"/>
<path d="M17.7026 327.722C19.2741 328.272 20.9472 328.471 22.6037 328.303H128.371C129.861 328.303 130.293 326.411 128.58 326.411H26.9685C24.5999 326.411 21.3524 326.962 19.1625 325.994C18.0751 325.517 16.1832 327.066 17.6729 327.722H17.7026Z" fill="#65A4C5"/>
<path d="M328.794 5.9535C329.718 8.03905 329.241 10.9141 329.241 13.1636V20.3885C329.241 24.8675 329.241 29.3366 329.241 33.7957C329.241 43.0913 329.241 52.3869 329.241 61.6826C329.241 70.9782 329.241 80.2738 329.241 89.5694C329.241 94.0484 329.241 98.5175 329.241 102.977V110.231C329.032 112.071 329.215 113.934 329.778 115.698C330.105 116.428 332.653 116.25 332.28 115.401C331.357 113.315 331.833 110.44 331.833 108.19V100.921C331.833 96.4418 331.833 91.9728 331.833 87.5137C331.833 78.218 331.833 68.9224 331.833 59.6268C331.833 50.3312 331.833 41.0355 331.833 31.7399C331.833 27.2609 331.833 22.7919 331.833 18.3328V11.078C332.042 9.2382 331.859 7.37501 331.297 5.61087C330.969 4.88092 328.422 5.05969 328.794 5.90881V5.9535Z" fill="#65A4C5"/>
<path d="M337.924 9.02092C337.924 27.5923 337.924 46.1637 337.924 64.7351C337.924 74.0208 337.924 83.3065 337.924 92.5922C337.924 97.0612 337.924 101.53 337.924 105.999C337.924 108.403 337.924 110.811 337.924 113.224C337.924 114.952 337.507 116.904 338.431 118.438C338.848 119.138 341.306 119.198 340.948 118.602C339.905 116.874 340.486 113.671 340.486 111.645C340.486 109.619 340.486 107.176 340.486 104.942C340.486 100.304 340.486 95.6609 340.486 91.0131C340.486 82.075 340.486 73.1369 340.486 64.1988C340.486 45.975 340.486 27.7512 340.486 9.52741C340.486 8.66339 337.924 8.35056 337.924 9.05071V9.02092Z" fill="#65A4C5"/>
<path d="M489.142 379.535C487.43 379.127 485.661 379.021 483.913 379.222H391.552C387.605 379.222 382.614 378.373 378.964 380.041C377.475 380.697 379.248 382.32 380.335 381.829C382.529 381.114 384.85 380.875 387.143 381.129H481.604C483.689 381.129 486.684 380.592 488.62 381.293C490.11 381.844 490.676 380.071 489.171 379.52L489.142 379.535Z" fill="#65A4C5"/>
<path d="M217.931 6.24893C217.082 8.17062 217.439 10.5392 217.439 12.595V19.3581C217.439 24.0258 217.439 28.6935 217.439 33.3612C217.439 42.2993 217.439 51.287 217.439 60.3244C217.439 78.6476 217.439 96.9657 217.439 115.279C217.439 115.621 220.032 115.636 220.032 115.279C220.032 96.9558 220.032 78.6376 220.032 60.3244C220.032 51.3863 220.032 42.3986 220.032 33.3612C220.032 28.8723 220.032 24.4032 220.032 19.954V12.6248C220.032 10.5392 219.674 8.15572 220.523 6.27872C220.523 6.27872 218.169 5.69774 217.931 6.27872V6.24893Z" fill="#65A4C5"/>
<path d="M127.688 205.57C125.632 206.478 122.072 205.897 119.852 205.897H19.2535C18.5385 205.897 17.2723 207.193 17.1084 207.193H115.621C119.152 207.193 123.412 207.983 126.704 206.523C127.166 206.314 129.133 204.899 127.673 205.555L127.688 205.57Z" fill="#65A4C5"/>
<path d="M126.359 319.514C124.656 319.084 122.889 318.968 121.145 319.172C118.732 319.172 116.318 319.172 113.905 319.172H17.7013C16.2116 319.172 16.0775 320.483 17.7013 320.483H118.002C120.028 320.483 123.111 319.917 125.018 320.602C125.927 320.93 127.997 320.095 126.374 319.514H126.359Z" fill="#65A4C5"/>
<path d="M122.621 214.3H15.8556C14.3659 214.3 15.1703 216.788 16.511 216.788H123.217C124.707 216.788 123.902 214.3 122.562 214.3H122.621Z" fill="#65A4C5"/>
<path d="M120.669 223.445C118.762 224.131 115.619 223.594 113.593 223.594H15.2742C14.3059 223.594 12.6374 225.412 14.142 225.412H115.589C117.318 225.61 119.067 225.504 120.759 225.099C121.995 224.652 122.323 222.864 120.759 223.46L120.669 223.445Z" fill="#65A4C5"/>
<path d="M122.053 310.189C113.338 309.668 104.49 310.07 95.7453 310.07H16.0323C14.5426 310.07 15.7791 312.081 16.8368 312.081H96.5348C105.264 312.081 114.113 311.679 122.843 312.2C124.332 312.29 123.081 310.249 122.038 310.189H122.053Z" fill="#65A4C5"/>
<path d="M119.624 301.162H14.3632C12.8735 301.162 13.7673 303.531 15.0187 303.531H120.235C121.725 303.531 120.831 301.162 119.58 301.162H119.624Z" fill="#65A4C5"/>
<path d="M118.599 293.208H20.2798C18.4922 293.208 15.9597 293.64 14.2466 293.014C13.5613 292.761 12.1014 293.387 11.7588 293.252C12.7198 293.561 13.7351 293.662 14.7382 293.55C17.0472 293.55 19.3413 293.55 21.6503 293.55H117.258C117.72 293.55 120.133 293.223 118.554 293.223L118.599 293.208Z" fill="#65A4C5"/>
<path d="M118.448 232.383C109.927 232.889 101.301 232.502 92.7655 232.502H13.9314C12.3673 232.502 12.3673 233.917 13.9314 233.917H92.259C100.959 233.917 109.763 234.304 118.463 233.798C119.952 233.709 120.042 232.308 118.463 232.383H118.448Z" fill="#65A4C5"/>
<path d="M116.468 240.89H12.1902C10.8793 240.89 12.1902 243.05 13.1734 243.05H117.451C118.762 243.05 117.451 240.89 116.468 240.89Z" fill="#65A4C5"/>
<path d="M115.769 258.915H11.4909C9.91184 258.915 9.88205 260.405 11.4909 260.405H115.769C117.348 260.405 117.378 258.915 115.769 258.915Z" fill="#65A4C5"/>
<path d="M115.515 266.08H11.2518C9.68767 266.08 9.5238 267.749 11.1327 267.749H115.411C116.975 267.749 117.139 266.08 115.53 266.08H115.515Z" fill="#65A4C5"/>
<path d="M116.706 275.42C114.995 274.982 113.219 274.856 111.463 275.048H12.0115C10.2983 275.048 10.9985 276.761 12.3839 276.761H108.722C110.673 276.761 113.876 276.195 115.723 276.865C117.004 277.327 118.33 276.001 116.706 275.376V275.42Z" fill="#65A4C5"/>
<path d="M116.544 250.468H12.7723C12.0871 250.468 9.97171 251.436 11.6253 251.436H115.382C116.067 251.436 118.182 250.468 116.529 250.468H116.544Z" fill="#65A4C5"/>
<path d="M115.767 283.568H12.4427C11.2659 283.568 12.6215 285.684 13.4408 285.684H116.706C117.883 285.684 116.527 283.568 115.708 283.568H115.767Z" fill="#65A4C5"/>
<path d="M88.7894 76.6821C87.2997 80.1233 88.0296 84.6222 88.0296 88.2868C88.0296 92.3983 88.0296 96.5148 88.0296 100.636C88.0296 109.376 88.0296 118.12 88.0296 126.87C88.0296 135.44 88.0296 144.011 88.0296 152.582C88.0296 156.872 88.0296 161.157 88.0296 165.437C88.0296 168.819 87.2103 173.229 88.8639 176.312C89.2214 176.983 91.7092 177.429 91.1878 176.461C90.509 174.755 90.2733 172.905 90.5025 171.083C90.5025 169.028 90.5025 166.972 90.5025 164.916C90.5025 160.805 90.5025 156.688 90.5025 152.567C90.4628 144.205 90.4429 135.803 90.4429 127.361C90.4429 119.128 90.4429 110.9 90.4429 102.677C90.4429 98.5656 90.4429 94.4491 90.4429 90.3277C90.4429 86.3502 89.5789 81.2108 91.1878 77.5015C91.5006 76.7715 89.0724 75.8777 88.7298 76.6673L88.7894 76.6821Z" fill="#65A4C5"/>
<path d="M487.416 371.461C483.9 370.493 480.071 370.88 476.451 370.88H397.498C394.206 370.88 390.914 370.582 387.83 371.923C386.341 372.593 388.605 372.742 389.32 372.444C391.405 371.536 394.206 371.968 396.441 371.968H472.236C476.407 371.968 481.293 371.297 485.33 372.415C485.956 372.593 488.205 371.685 487.416 371.461Z" fill="#65A4C5"/>
<path d="M480.844 362.523C478.088 361.51 475.004 361.897 472.114 361.897H404.616C401.384 361.897 398.092 361.51 395.038 362.746C394.338 363.029 396.319 364.489 397.123 364.236C400.475 362.88 404.87 363.565 408.445 363.565H474.915C476.909 363.361 478.923 363.492 480.873 363.953C482.527 364.563 481.916 362.999 480.784 362.582L480.844 362.523Z" fill="#65A4C5"/>
<path d="M80.4173 85.2621C79.2106 88.3457 79.5979 91.6826 79.5979 94.945C79.5979 98.7189 79.5979 102.498 79.5979 106.282C79.5979 114.008 79.5979 121.735 79.5979 129.461C79.5979 137.019 79.5979 144.571 79.5979 152.119C79.5979 155.893 79.5979 159.672 79.5979 163.456C79.5979 165.645 78.9127 168.655 80.2385 170.561C81.2366 172.051 82.041 170.338 81.2813 169.236C81.6686 169.802 81.3856 169.236 81.4451 168.684C81.5345 167.835 81.4451 166.956 81.4451 166.107C81.4451 164.389 81.4451 162.671 81.4451 160.953C81.4451 157.348 81.4451 153.743 81.4451 150.138C81.4451 143.097 81.4451 136.055 81.4451 129.014C81.4451 122.142 81.4451 115.274 81.4451 108.412C81.4451 104.807 81.4451 101.202 81.4451 97.5967C81.4451 94.1257 80.8642 90.1482 82.1602 86.8858C82.5177 85.9622 80.9089 84.0107 80.4173 85.2621Z" fill="#65A4C5"/>
<path d="M96.4033 181.987C90.5585 181.207 84.6565 180.943 78.7654 181.197C72.0916 181.197 65.3582 181.197 58.759 181.197H28.9653C26.8808 180.982 24.7747 181.232 22.798 181.927C22.1723 182.21 24.4813 182.568 25.0474 182.314C26.3276 181.965 27.6644 181.874 28.9802 182.046H76.7692C82.8918 182.046 89.0591 181.689 95.1221 182.746C95.8074 182.866 98.1015 182.27 96.4182 181.987H96.4033Z" fill="#65A4C5"/>
<path d="M71.0771 96.2561C69.3193 100.725 70.228 106.416 70.228 111.153C70.228 117.012 70.228 122.867 70.228 128.716C70.228 134.397 70.228 140.083 70.228 145.773C70.228 148.703 70.228 151.633 70.228 154.562C69.9934 157.195 70.282 159.848 71.0771 162.368C71.5389 163.515 74.0565 162.756 73.4606 161.445C72.388 158.808 72.7753 155.814 72.7902 153.043C72.8051 150.272 72.7902 147.531 72.7902 144.775C72.7902 139.611 72.7902 134.442 72.7902 129.267C72.7902 124.093 72.7902 118.924 72.7902 113.76C72.7902 111.009 72.7902 108.253 72.7902 105.492C72.7902 102.647 72.388 99.5334 73.4457 96.8519C73.9969 95.4516 71.524 95.0792 71.0771 96.2412V96.2561Z" fill="#65A4C5"/>
<path d="M306.031 524.124C284.997 525.182 264.007 524.943 242.973 524.124C241.885 524.124 240.336 525.986 241.885 526.046C263.128 526.88 284.297 527.118 305.54 526.046C306.761 526.046 307.729 524.035 306.031 524.124Z" fill="#65A4C5"/>
<path d="M79.4659 172.945C75.5033 171.455 71.3322 171.827 67.1611 171.842H37.71C34.0752 171.842 29.3082 170.963 25.9713 172.766C24.8541 173.362 26.8205 175.045 27.8483 174.494C29.6211 173.54 32.0046 173.898 33.9411 173.898H65.4629C69.9319 173.898 74.9075 173.213 79.1233 174.792C80.7172 175.388 80.8066 173.436 79.4659 172.93V172.945Z" fill="#65A4C5"/>
<path d="M70.213 163.693C67.1294 162.442 63.6137 162.904 60.3513 162.919H38.9296C36.1141 162.919 32.4495 162.248 29.8277 163.485C28.7551 163.991 29.8277 166.33 30.9747 165.824C32.4431 165.343 33.9993 165.19 35.5332 165.377H60.0236C63.3903 165.377 67.2485 164.826 70.4514 166.107C71.7176 166.628 71.2707 164.11 70.2577 163.693H70.213Z" fill="#65A4C5"/>
<path d="M62.6454 112.167C62.0628 117.575 61.7744 123.01 61.7814 128.45C61.603 134.083 61.9722 139.721 62.8838 145.283C63.0179 145.983 64.9545 147.532 64.7757 146.624C63.897 141.393 63.5129 136.091 63.6286 130.788C63.5827 125.141 63.8613 119.496 64.4629 113.88C64.5522 113.076 62.6752 111.512 62.6156 112.167H62.6454Z" fill="#65A4C5"/>
<path d="M64.7322 154.623C62.5953 153.955 60.3433 153.736 58.118 153.982H41.657C39.1543 153.982 36.2345 153.52 33.8808 154.533C32.3911 155.159 33.6276 157.364 34.9236 156.812C37.039 155.904 39.8098 156.351 42.1039 156.365H56.0771C58.4308 156.365 61.7379 155.785 63.9277 156.723C64.0693 156.797 64.2249 156.84 64.3843 156.85C64.5437 156.859 64.7033 156.835 64.8527 156.778C65.002 156.722 65.1377 156.634 65.2508 156.522C65.364 156.409 65.452 156.273 65.5091 156.124C65.5662 155.975 65.5911 155.816 65.5822 155.656C65.5733 155.497 65.5308 155.341 65.4574 155.199C65.384 155.057 65.2815 154.933 65.1565 154.833C65.0315 154.734 64.8869 154.662 64.7322 154.623Z" fill="#65A4C5"/>
<path d="M61.2762 146.147C60.2681 145.532 59.0804 145.28 57.9095 145.432C55.377 145.432 52.8446 145.432 50.3121 145.432C46.3048 145.432 41.523 144.642 37.7988 146.37C36.3091 147.086 37.6647 148.65 39.0054 148.039C41.9848 146.653 46.4538 147.488 49.6864 147.488H54.2449C55.5111 147.488 58.3117 147.026 59.4141 147.756C60.5164 148.486 62.5424 146.996 61.2762 146.147Z" fill="#65A4C5"/>
<path d="M59.8306 138.891C57.5812 137.803 54.7508 138.31 52.3822 138.265C49.1673 138.164 45.9492 138.248 42.744 138.518C41.0606 138.682 41.6565 140.544 43.1164 140.395C45.6467 140.162 48.188 140.067 50.7287 140.112C53.0377 140.112 56.8066 139.502 58.907 140.529C60.218 141.17 61.4246 139.636 59.9051 138.891H59.8306Z" fill="#65A4C5"/>
<path d="M139.158 180.245C137.49 180.99 135.672 180.528 133.899 180.647C132.127 180.766 129.996 181.273 128.015 181.392C126.377 181.496 126.734 183.522 128.343 183.418C130.726 183.269 133.02 182.643 135.419 182.688C137.024 182.859 138.647 182.65 140.156 182.077C141.646 181.377 140.543 179.604 139.158 180.23V180.245Z" fill="#65A4C5"/>
<path d="M57.4444 129.059C53.7946 129.059 49.5044 128.359 46.1228 129.953C44.6331 130.638 46.3164 132.605 47.6125 131.994C49.3121 131.395 51.1268 131.197 52.9157 131.413H57.6678C59.3512 131.413 58.9043 129.074 57.3848 129.074L57.4444 129.059Z" fill="#65A4C5"/>
<path d="M57.5074 120.748C55.3921 121.031 53.2618 120.644 51.2061 121.389C51.2061 121.389 52.1743 122.074 52.2786 122.133C52.3829 122.193 53.1724 122.729 53.4853 122.625C55.4814 121.895 57.5968 122.282 59.6675 122.014C59.8611 122.014 59.012 121.463 58.9524 121.433C58.6247 121.24 57.9096 120.703 57.4627 120.763L57.5074 120.748Z" fill="#65A4C5"/>
<path d="M65.863 101.842C65.5836 101.935 65.3301 102.093 65.123 102.303C64.916 102.513 64.7612 102.768 64.6712 103.048L64.5669 103.302C64.5632 103.341 64.5632 103.381 64.5669 103.421C64.5669 103.421 64.7159 103.197 64.5669 103.332L64.4925 103.436C64.4925 103.436 64.7308 103.257 64.4925 103.361C64.2541 103.466 64.7457 103.287 64.5818 103.361C64.418 103.436 64.8351 103.361 64.5818 103.361C64.4376 103.362 64.2954 103.396 64.1656 103.459C64.0358 103.522 63.9218 103.613 63.8319 103.726C63.7419 103.839 63.6783 103.97 63.6457 104.111C63.6131 104.251 63.6123 104.397 63.6433 104.538C63.7476 105.119 64.269 105.834 64.9394 105.819C65.301 105.829 65.6565 105.725 65.9558 105.522C66.2552 105.319 66.4832 105.027 66.6078 104.687C66.7034 104.523 66.7785 104.348 66.8313 104.166C66.8313 104.166 66.6674 104.419 66.8313 104.255L66.9057 104.151C67.01 104.002 66.7121 104.33 66.9057 104.151C67.0994 103.972 66.6525 104.24 66.9057 104.151C68.3061 103.749 67.2633 101.38 65.9821 101.752L65.863 101.842Z" fill="#65A4C5"/>
</g>
<path fill-rule="evenodd" clip-rule="evenodd" d="M227.749 261.984L238.103 260.305C238.967 260.167 239.851 260.378 240.561 260.89C241.272 261.402 241.75 262.174 241.893 263.038L246.231 289.789L229.354 292.525L225.016 265.773C224.878 264.909 225.089 264.025 225.601 263.315C226.113 262.605 226.885 262.127 227.749 261.984Z" fill="#61C1B8"/>
<path fill-rule="evenodd" clip-rule="evenodd" d="M225.014 265.772L229.077 290.822L245.954 288.086C240.054 287.351 247.434 278.513 237.748 278.225C228.063 277.938 234.592 264.025 225.014 265.772Z" fill="url(#paint0_linear)"/>
<path fill-rule="evenodd" clip-rule="evenodd" d="M189.329 163.884C200.28 176.505 189.223 204.028 164.634 225.356C140.044 246.684 111.231 253.742 100.279 241.123C98.7373 239.344 97.5408 237.482 95.8211 235.5C84.8692 222.878 95.9262 195.356 120.516 174.028C145.106 152.7 173.918 145.642 184.87 158.261C185.174 158.609 185.46 158.97 185.729 159.344L189.329 163.884Z" fill="#61C1B8"/>
<path fill-rule="evenodd" clip-rule="evenodd" d="M172.203 250.069L182.557 248.389C183.423 248.251 184.308 248.461 185.019 248.973C185.731 249.486 186.21 250.26 186.352 251.125L193.997 298.256L177.12 300.992L169.475 253.86C169.337 252.996 169.546 252.113 170.057 251.402C170.568 250.692 171.34 250.212 172.203 250.069Z" fill="#61C1B8"/>
<path fill-rule="evenodd" clip-rule="evenodd" d="M199.642 253.964L209.995 252.285C210.86 252.148 211.744 252.358 212.454 252.87C213.164 253.382 213.643 254.154 213.785 255.018L220.111 294.021L203.234 296.756L196.908 257.754C196.771 256.889 196.981 256.005 197.493 255.295C198.006 254.586 198.778 254.107 199.642 253.964Z" fill="#61C1B8"/>
<path fill-rule="evenodd" clip-rule="evenodd" d="M172.877 299.933L249.915 287.444C250.141 287.408 250.372 287.463 250.557 287.597C250.742 287.731 250.867 287.932 250.904 288.158C250.94 288.383 250.885 288.614 250.752 288.799C250.618 288.985 250.416 289.109 250.19 289.146L173.152 301.635C172.926 301.671 172.695 301.616 172.51 301.483C172.325 301.349 172.2 301.147 172.163 300.922C172.127 300.696 172.182 300.465 172.316 300.28C172.449 300.095 172.651 299.97 172.877 299.933Z" fill="#1EABC1"/>
<path d="M52.5937 286.079C64.594 286.079 74.3221 276.353 74.3221 264.356C74.3221 252.358 64.594 242.632 52.5937 242.632C40.5934 242.632 30.8652 252.358 30.8652 264.356C30.8652 276.353 40.5934 286.079 52.5937 286.079Z" fill="#61C1B8"/>
<path fill-rule="evenodd" clip-rule="evenodd" d="M50.8266 284.17C55.1241 284.17 59.3251 282.896 62.8984 280.509C66.4716 278.122 69.2566 274.729 70.9012 270.76C72.5458 266.79 72.9761 262.422 72.1377 258.208C71.2993 253.994 69.2298 250.124 66.191 247.085C63.1522 244.047 59.2806 241.978 55.0657 241.14C50.8507 240.302 46.4819 240.732 42.5115 242.376C38.5411 244.021 35.1476 246.805 32.7601 250.377C30.3725 253.95 29.0981 258.15 29.0981 262.446C29.1114 268.204 31.4049 273.722 35.4769 277.793C39.5489 281.864 45.0679 284.157 50.8266 284.17Z" fill="url(#paint1_linear)"/>
<path fill-rule="evenodd" clip-rule="evenodd" d="M50.8264 240.726C56.3065 240.721 61.5846 242.794 65.5958 246.527L50.8264 262.449L48.3882 240.863C49.1977 240.772 50.0117 240.726 50.8264 240.726Z" fill="#1EABC1"/>
<path fill-rule="evenodd" clip-rule="evenodd" d="M50.8264 240.726C51.6401 240.725 52.4533 240.771 53.2621 240.861L50.8264 262.449L48.3882 240.863C49.1977 240.772 50.0117 240.726 50.8264 240.726Z" fill="#61C1B8"/>
<path fill-rule="evenodd" clip-rule="evenodd" d="M192.191 287.173C182.977 286.039 193.536 269.381 180.944 268.527C168.245 267.666 179.082 250.885 169.502 252.632C169.414 253.035 169.403 253.451 169.469 253.859L176.839 299.291L193.716 296.555L192.191 287.173Z" fill="url(#paint2_linear)"/>
<path fill-rule="evenodd" clip-rule="evenodd" d="M196.909 257.757L202.276 290.856L202.957 295.058L219.834 292.323C210.461 291.467 220.485 275.404 209.32 273.755C209.015 273.71 208.692 273.675 208.354 273.652C195.652 272.791 206.489 256.01 196.909 257.757Z" fill="url(#paint3_linear)"/>
<path opacity="0.5" d="M63.6167 222.901C68.5164 222.901 72.4883 218.93 72.4883 214.032C72.4883 209.133 68.5164 205.162 63.6167 205.162C58.7171 205.162 54.7451 209.133 54.7451 214.032C54.7451 218.93 58.7171 222.901 63.6167 222.901Z" fill="#FF9E02"/>
<path opacity="0.5" d="M10.326 185.333C16.0289 185.333 20.6521 180.711 20.6521 175.009C20.6521 169.308 16.0289 164.686 10.326 164.686C4.62312 164.686 0 169.308 0 175.009C0 180.711 4.62312 185.333 10.326 185.333Z" fill="#61C1B8"/>
<path opacity="0.5" d="M207.895 228.427C213.598 228.427 218.221 223.805 218.221 218.103C218.221 212.401 213.598 207.779 207.895 207.779C202.192 207.779 197.569 212.401 197.569 218.103C197.569 223.805 202.192 228.427 207.895 228.427Z" fill="#FF9E02"/>
<path opacity="0.5" d="M80.6743 153.811H75.2096C73.7884 153.811 72.6362 154.962 72.6362 156.383V161.847C72.6362 163.268 73.7884 164.42 75.2096 164.42H80.6743C82.0955 164.42 83.2476 163.268 83.2476 161.847V156.383C83.2476 154.962 82.0955 153.811 80.6743 153.811Z" fill="#138175"/>
<path opacity="0.5" d="M19.6002 228.516H17.112C16.4649 228.516 15.9404 229.04 15.9404 229.687V232.175C15.9404 232.821 16.4649 233.346 17.112 233.346H19.6002C20.2472 233.346 20.7717 232.821 20.7717 232.175V229.687C20.7717 229.04 20.2472 228.516 19.6002 228.516Z" fill="#450059"/>
<path opacity="0.5" d="M149.149 252.047H146.331C145.599 252.047 145.006 252.64 145.006 253.371V256.189C145.006 256.92 145.599 257.513 146.331 257.513H149.149C149.881 257.513 150.473 256.92 150.473 256.189V253.371C150.473 252.64 149.881 252.047 149.149 252.047Z" fill="#138175"/>
<path opacity="0.5" d="M101.836 259.197H93.8054C92.7754 259.197 91.9404 260.032 91.9404 261.062V269.09C91.9404 270.12 92.7754 270.955 93.8054 270.955H101.836C102.866 270.955 103.701 270.12 103.701 269.09V261.062C103.701 260.032 102.866 259.197 101.836 259.197Z" fill="#138175"/>
<path fill-rule="evenodd" clip-rule="evenodd" d="M92.4062 305.951L107.266 319.268L111.241 310.298L100.196 296.248L92.4062 305.951Z" fill="white"/>
<path opacity="0.8" fill-rule="evenodd" clip-rule="evenodd" d="M58.3723 186.191L54.5623 183.233L57.5212 179.424C57.6465 179.262 57.7027 179.058 57.6774 178.855C57.652 178.652 57.5472 178.468 57.386 178.343L57.1357 178.152C56.9743 178.027 56.7697 177.971 56.567 177.996C56.3642 178.022 56.1798 178.126 56.0542 178.288L53.0954 182.097L49.2854 179.138C49.124 179.013 48.9195 178.957 48.7167 178.982C48.5139 179.008 48.3295 179.112 48.204 179.274L48.0137 179.524C47.8884 179.685 47.8322 179.89 47.8575 180.092C47.8829 180.295 47.9877 180.48 48.1489 180.605L51.9589 183.563L49 187.372C48.8747 187.534 48.8184 187.738 48.8438 187.941C48.8691 188.144 48.9739 188.328 49.1352 188.454L49.3855 188.644C49.5469 188.769 49.7514 188.825 49.9542 188.8C50.157 188.775 50.3414 188.67 50.4669 188.509L53.4258 184.7L57.2358 187.658C57.3971 187.783 57.6017 187.839 57.8045 187.814C58.0073 187.789 58.1917 187.684 58.3172 187.523L58.5075 187.272C58.6328 187.111 58.689 186.907 58.6637 186.704C58.6383 186.501 58.5335 186.317 58.3723 186.191Z" fill="#FBFBFB"/>
<path opacity="0.8" fill-rule="evenodd" clip-rule="evenodd" d="M11.6244 243.505L8.84332 240.724L11.6244 237.944C11.6828 237.885 11.7291 237.816 11.7607 237.74C11.7922 237.663 11.8085 237.582 11.8085 237.499C11.8085 237.417 11.7922 237.335 11.7607 237.259C11.7291 237.183 11.6828 237.113 11.6244 237.055L11.4467 236.877C11.3884 236.819 11.3191 236.773 11.2428 236.741C11.1666 236.71 11.0849 236.693 11.0024 236.693C10.9199 236.693 10.8381 236.71 10.7619 236.741C10.6857 236.773 10.6164 236.819 10.558 236.877L7.77693 239.658L5.00584 236.885C4.94749 236.827 4.8782 236.78 4.80196 236.749C4.72572 236.717 4.64403 236.701 4.5615 236.701C4.47898 236.701 4.39726 236.717 4.32102 236.749C4.24478 236.78 4.17552 236.827 4.11717 236.885L3.93945 237.063C3.88109 237.121 3.83478 237.19 3.80319 237.266C3.77161 237.343 3.75537 237.424 3.75537 237.507C3.75537 237.589 3.77161 237.671 3.80319 237.747C3.83478 237.823 3.88109 237.893 3.93945 237.951L6.72056 240.732L3.93945 243.512C3.88109 243.57 3.83478 243.64 3.80319 243.716C3.77161 243.792 3.75537 243.874 3.75537 243.956C3.75537 244.039 3.77161 244.121 3.80319 244.197C3.83478 244.273 3.88109 244.342 3.93945 244.401L4.11717 244.578C4.17552 244.637 4.24478 244.683 4.32102 244.714C4.39726 244.746 4.47898 244.762 4.5615 244.762C4.64403 244.762 4.72572 244.746 4.80196 244.714C4.8782 244.683 4.94749 244.637 5.00584 244.578L7.78695 241.798L10.5681 244.578C10.6264 244.637 10.6957 244.683 10.7719 244.714C10.8482 244.746 10.9299 244.762 11.0124 244.762C11.0949 244.762 11.1766 244.746 11.2529 244.714C11.3291 244.683 11.3984 244.637 11.4567 244.578L11.6345 244.401C11.6933 244.341 11.7398 244.271 11.7712 244.194C11.8026 244.117 11.8182 244.034 11.8173 243.95C11.8164 243.867 11.7988 243.785 11.7657 243.708C11.7326 243.632 11.6846 243.562 11.6244 243.505Z" fill="#FBFBFB"/>
<path opacity="0.8" fill-rule="evenodd" clip-rule="evenodd" d="M159.982 317.613L157.744 315.376L159.879 313.241C159.968 313.145 160.016 313.019 160.012 312.888C160.009 312.758 159.955 312.634 159.862 312.543L159.719 312.4C159.628 312.307 159.504 312.252 159.373 312.249C159.243 312.246 159.116 312.294 159.021 312.382L156.885 314.517L154.647 312.28C154.556 312.186 154.432 312.132 154.302 312.129C154.171 312.126 154.045 312.174 153.949 312.262L153.814 312.397C153.725 312.493 153.677 312.619 153.679 312.75C153.682 312.88 153.736 313.004 153.829 313.096L156.067 315.333L153.931 317.468C153.843 317.564 153.795 317.69 153.798 317.821C153.802 317.951 153.856 318.075 153.949 318.166L154.092 318.309C154.183 318.402 154.307 318.456 154.437 318.46C154.568 318.463 154.694 318.415 154.79 318.326L156.925 316.192L159.163 318.429C159.254 318.522 159.378 318.576 159.509 318.58C159.639 318.583 159.766 318.535 159.862 318.446L159.999 318.309C160.087 318.213 160.135 318.087 160.131 317.957C160.128 317.828 160.074 317.704 159.982 317.613Z" fill="#FBFBFB"/>
<path fill-rule="evenodd" clip-rule="evenodd" d="M170.136 152.042L138.094 197.884L146.157 200.555L178.199 153.654C175.618 152.677 172.894 152.133 170.136 152.042Z" fill="#1EABC1"/>
<path fill-rule="evenodd" clip-rule="evenodd" d="M188.815 167.122C191.028 181.315 180.001 202.535 160.175 219.729C135.586 241.058 106.773 248.115 95.821 235.496C84.8692 222.878 95.9262 195.353 120.516 174.024C138.62 158.322 159.009 150.358 172.877 152.283L140.334 196.879L188.815 167.122Z" fill="url(#paint4_linear)"/>
<path opacity="0.8" fill-rule="evenodd" clip-rule="evenodd" d="M98.7325 181.232L96.5972 179.097L98.7325 176.962C98.7774 176.918 98.813 176.864 98.8373 176.806C98.8616 176.747 98.8741 176.684 98.8741 176.621C98.8741 176.557 98.8616 176.495 98.8373 176.436C98.813 176.377 98.7774 176.324 98.7325 176.279L98.5948 176.142C98.55 176.097 98.4967 176.061 98.4381 176.037C98.3794 176.012 98.3166 176 98.2531 176C98.1897 176 98.1268 176.012 98.0682 176.037C98.0096 176.061 97.9563 176.097 97.9114 176.142L95.7761 178.276L93.6408 176.142C93.596 176.097 93.5427 176.061 93.4841 176.037C93.4255 176.012 93.3626 176 93.2992 176C93.2357 176 93.1728 176.012 93.1142 176.037C93.0556 176.061 93.0023 176.097 92.9575 176.142L92.8198 176.277C92.7749 176.322 92.7393 176.375 92.715 176.433C92.6907 176.492 92.6782 176.555 92.6782 176.618C92.6782 176.682 92.6907 176.745 92.715 176.803C92.7393 176.862 92.7749 176.915 92.8198 176.96L94.9551 179.095L92.8198 181.23C92.7749 181.274 92.7393 181.328 92.715 181.386C92.6907 181.445 92.6782 181.508 92.6782 181.571C92.6782 181.635 92.6907 181.697 92.715 181.756C92.7393 181.815 92.7749 181.868 92.8198 181.913L92.9575 182.05C93.0023 182.095 93.0556 182.131 93.1142 182.155C93.1728 182.18 93.2357 182.192 93.2992 182.192C93.3626 182.192 93.4255 182.18 93.4841 182.155C93.5427 182.131 93.596 182.095 93.6408 182.05L95.7761 179.916L97.9114 182.05C97.9563 182.095 98.0096 182.131 98.0682 182.155C98.1268 182.18 98.1897 182.192 98.2531 182.192C98.3166 182.192 98.3794 182.18 98.4381 182.155C98.4967 182.131 98.55 182.095 98.5948 182.05L98.7325 181.913C98.8224 181.822 98.8728 181.7 98.8728 181.572C98.8728 181.445 98.8224 181.323 98.7325 181.232Z" fill="#FBFBFB"/>
<defs>
<linearGradient id="paint0_linear" x1="250.259" y1="275.095" x2="245.108" y2="287.496" gradientUnits="userSpaceOnUse">
<stop stop-color="#61C19E"/>
<stop offset="1" stop-color="#348880"/>
</linearGradient>
<linearGradient id="paint1_linear" x1="81.4892" y1="257.057" x2="73.7604" y2="279.458" gradientUnits="userSpaceOnUse">
<stop stop-color="#61C19E"/>
<stop offset="1" stop-color="#348880"/>
</linearGradient>
<linearGradient id="paint2_linear" x1="198.709" y1="270.095" x2="186.265" y2="288.816" gradientUnits="userSpaceOnUse">
<stop stop-color="#61C19E"/>
<stop offset="1" stop-color="#348880"/>
</linearGradient>
<linearGradient id="paint3_linear" x1="224.547" y1="271.702" x2="215.312" y2="288.093" gradientUnits="userSpaceOnUse">
<stop stop-color="#61C19E"/>
<stop offset="1" stop-color="#348880"/>
</linearGradient>
<linearGradient id="paint4_linear" x1="209.14" y1="185.746" x2="194.197" y2="232.784" gradientUnits="userSpaceOnUse">
<stop stop-color="#61C19E"/>
<stop offset="1" stop-color="#348880"/>
</linearGradient>
</defs>
</svg>
