<svg width="1388" height="290" viewBox="0 0 1388 290" fill="none" xmlns="http://www.w3.org/2000/svg">
<path opacity="0.37" d="M1151.45 55.1855C1151.42 55.1855 1151.4 55.1945 1151.38 55.2105C1151.37 55.2265 1151.36 55.2481 1151.36 55.2707C1151.36 55.2933 1151.37 55.3149 1151.38 55.3309C1151.4 55.3468 1151.42 55.3558 1151.45 55.3558C1151.47 55.3558 1151.49 55.3468 1151.51 55.3309C1151.53 55.3149 1151.54 55.2933 1151.54 55.2707C1151.54 55.2481 1151.53 55.2265 1151.51 55.2105C1151.49 55.1945 1151.47 55.1855 1151.45 55.1855Z" fill="white"/>
<path opacity="0.37" d="M309.583 144.81C309.149 144.572 308.769 144.317 308.371 144.061C307.852 142.733 306.853 141.618 305.548 140.913C304.495 140.354 303.37 139.925 302.2 139.637C300.41 138.32 298.445 137.227 296.355 136.387C291.704 134.352 286.778 132.926 281.714 132.15C270.451 130.816 259.016 131.655 248.109 134.617C241.196 136.438 238.445 147.192 245.937 150.289C256.383 154.723 267.624 157.264 279.072 157.776C288.428 158.168 303.014 158.474 308.027 149.694C308.757 148.388 309.023 146.898 308.787 145.44H309.312C309.388 145.436 309.461 145.412 309.523 145.371C309.585 145.33 309.633 145.273 309.662 145.206C309.69 145.14 309.698 145.068 309.684 144.997C309.67 144.927 309.635 144.862 309.583 144.81Z" fill="white"/>
<path opacity="0.37" d="M293.495 165.825C288.826 167.662 283.995 169.789 279.217 171.287C274.439 172.784 269.372 173.788 264.613 175.609C264.553 175.629 264.502 175.666 264.465 175.715C264.429 175.764 264.409 175.822 264.409 175.881C264.409 175.941 264.429 175.999 264.465 176.048C264.502 176.096 264.553 176.133 264.613 176.154C269.372 177.855 274.349 178.791 279.217 180.203C284.085 181.616 288.844 183.607 293.495 185.393C300.155 187.895 307.158 181.65 307.158 175.609C307.158 169.568 300.101 163.204 293.495 165.825Z" fill="white"/>
<path opacity="0.37" d="M346.574 139.177C343.166 138.51 339.648 138.51 336.24 139.177C334.791 139.44 333.359 139.781 331.951 140.198C329.472 141.083 328.115 143.363 325.328 143.602C325.302 143.602 325.276 143.611 325.258 143.629C325.239 143.647 325.229 143.67 325.229 143.695C325.229 143.72 325.239 143.744 325.258 143.761C325.276 143.779 325.302 143.789 325.328 143.789C328.115 144.061 329.49 146.307 331.951 147.192C333.35 147.639 334.784 147.981 336.24 148.213C339.65 148.864 343.164 148.864 346.574 148.213C351.387 147.294 351.387 140.198 346.574 139.177Z" fill="white"/>
<path opacity="0.37" d="M375.457 144.946C375.34 144.202 374.992 143.508 374.455 142.951C373.919 142.394 373.218 142 372.443 141.817C371.668 141.635 370.852 141.673 370.1 141.927C369.348 142.182 368.693 142.64 368.218 143.244C367.422 143.517 366.625 143.789 365.865 144.129C364.743 144.623 364.418 145.831 363.241 146.171C363.201 146.183 363.165 146.207 363.14 146.239C363.115 146.271 363.102 146.31 363.102 146.35C363.102 146.39 363.115 146.429 363.14 146.461C363.165 146.493 363.201 146.517 363.241 146.528C364.454 146.682 364.942 147.686 366.119 147.941C366.968 148.108 367.825 148.233 368.688 148.315C369.308 148.844 370.086 149.18 370.917 149.279C371.747 149.377 372.59 149.232 373.33 148.864C374.07 148.495 374.671 147.922 375.051 147.221C375.432 146.52 375.573 145.725 375.457 144.946Z" fill="white"/>
<path d="M1250.98 175.009C1242.27 177.933 1233.12 179.59 1223.85 179.922C1215.39 179.949 1207.31 175.057 1199.17 172.903C1191.03 170.75 1183.26 171.001 1177 175.03C1167.24 162.159 1151.24 154.171 1134.04 155.864C1124.78 156.844 1116.08 160.445 1109.1 166.192C1105.73 169.117 1102.72 172.385 1100.12 175.937C1098.83 177.572 1096.17 182.832 1094 185.834C1083.03 184.174 1071.82 185.795 1061.97 190.47C1056.78 193.184 1052.45 197.133 1049.4 201.927C1046.35 206.721 1044.7 212.196 1044.59 217.811C1037.12 220.038 1029.72 222.422 1022.52 225.02C1022.43 225.016 1022.51 225.156 1022.51 225.173C1059.79 238.552 1178.71 210.814 1230.45 182.556C1237.55 180.733 1244.49 178.432 1251.22 175.669C1251.28 175.621 1251.33 175.557 1251.35 175.485C1251.37 175.413 1251.37 175.336 1251.34 175.265C1251.31 175.194 1251.27 175.132 1251.2 175.086C1251.14 175.04 1251.06 175.014 1250.98 175.009Z" fill="white"/>
<path d="M1074.95 140.709C1054.3 143.669 1034.03 147.924 1013.42 151.361C1013.33 151.361 1013.42 151.531 1013.42 151.531C1034.18 149.574 1054.9 148.468 1075.6 146.018C1076 146.016 1076.4 145.935 1076.77 145.779C1077.13 145.623 1077.46 145.396 1077.73 145.114C1078 144.831 1078.2 144.498 1078.32 144.138C1078.44 143.777 1078.48 143.397 1078.43 143.021C1078.38 142.645 1078.25 142.283 1078.05 141.958C1077.84 141.633 1077.57 141.352 1077.24 141.134C1076.91 140.915 1076.54 140.765 1076.14 140.692C1075.75 140.618 1075.34 140.624 1074.95 140.709Z" fill="white"/>
<path d="M1065.99 139.11C1061.43 132.899 1053.83 129.138 1045.69 131.044C1034.38 133.682 1033.2 148.69 1022.05 150.596C1021.93 150.596 1022.05 150.766 1022.05 150.783C1027.65 151.379 1032.03 149.251 1036.35 146.138C1036.4 146.62 1036.55 147.088 1036.8 147.515C1037.04 147.941 1037.37 148.318 1037.77 148.622C1038.18 148.927 1038.64 149.152 1039.13 149.287C1039.63 149.421 1040.15 149.461 1040.66 149.405C1047.41 148.605 1054.18 148.06 1060.94 147.363C1064.94 146.954 1068.78 142.904 1065.99 139.11Z" fill="white"/>
<path d="M227.333 179.37C234.391 181.395 241.594 182.942 248.887 183.998C248.987 184.056 249.097 184.096 249.212 184.118C258.623 185.615 267.544 188.644 277.027 190.056C284.574 191.196 292.174 192.166 299.775 193C317.691 195.008 335.661 196.59 353.595 198.394C389.01 201.951 425.584 205.592 461.234 204.333C461.258 204.333 461.281 204.324 461.298 204.308C461.315 204.292 461.325 204.27 461.325 204.248C461.325 204.225 461.315 204.204 461.298 204.188C461.281 204.172 461.258 204.163 461.234 204.163C453.67 202.342 446.015 200.759 438.288 199.347C437.439 193.788 435.066 188.533 431.4 184.099C427.735 179.666 422.905 176.206 417.386 174.061C407.002 170.42 395.665 169.938 384.975 172.683C382.369 169.994 379.093 165.059 377.591 163.562C374.534 160.334 371.112 157.43 367.384 154.901C359.681 149.932 350.558 147.275 341.216 147.277C323.898 147.413 309.058 157.028 301.06 170.828C294.31 167.425 286.582 168.054 278.746 171.049C270.91 174.044 263.563 179.744 255.22 180.612C245.938 181.279 236.602 180.614 227.532 178.638C227.429 178.613 227.32 178.628 227.228 178.679C227.136 178.73 227.07 178.814 227.044 178.911C227.017 179.008 227.033 179.11 227.087 179.197C227.142 179.283 227.23 179.345 227.333 179.37Z" fill="white"/>
<path d="M349.27 116.239C353.939 105.621 367.548 99.0353 378.225 107.288C385.463 112.904 385.101 120.714 395.779 123.164C405.298 125.359 415.432 126.772 425.114 128.354C425.222 128.354 425.114 128.524 425.114 128.524C413.206 128.014 401.117 128.729 389.3 126.823C388.015 126.619 386.839 126.38 385.681 126.091C385.482 126.114 385.282 126.114 385.083 126.091C375.275 125.819 365.593 124.236 355.748 124.236C351.785 124.338 347.46 120.169 349.27 116.239Z" fill="white"/>
<path d="M0.291494 58.1806C24.9393 65.1403 50.0939 70.3643 75.1217 75.9626C98.9914 81.3227 284.122 119.49 295.378 120.783C298.4 121.141 256.216 106.183 254.841 105.316C242.951 97.9646 239.622 84.0793 229.325 75.299C224.187 71.0784 218.095 68.0131 211.511 66.3355C204.926 64.6579 198.022 64.4121 191.321 65.6167C192.533 60.6278 192.44 55.437 191.05 50.4893C187.43 38.2716 175.45 31.7714 162.819 29.9677C142.55 27.194 121.956 37.6761 112.528 53.9266C108.393 51.6772 103.696 50.5026 98.919 50.5233C80.406 50.4042 66.0733 66.1102 47.5965 63.1494C46.0764 62.9282 15.149 59.4228 0.544849 57.5C0.458101 57.4947 0.371905 57.5163 0.299424 57.5614C0.226944 57.6065 0.172162 57.6727 0.143445 57.7499C0.114728 57.827 0.113654 57.9109 0.140387 57.9887C0.16712 58.0665 0.22019 58.1339 0.291494 58.1806Z" fill="white"/>
<path d="M241.612 60.6811C253.737 64.0843 266.133 66.6878 278.457 69.4444C290.22 72.0819 381.392 90.8679 386.911 91.5655C388.395 91.7357 367.62 84.3677 367.005 83.9593C361.142 80.3348 359.513 73.5113 354.446 69.1722C351.912 67.0889 348.907 65.5768 345.658 64.7511C342.409 63.9255 339.002 63.808 335.698 64.4076C336.297 61.9502 336.254 59.3927 335.571 56.9545C333.761 50.9307 327.898 47.6977 321.673 46.8469C316.772 46.2761 311.802 47.0934 307.398 49.1941C302.994 51.2949 299.357 54.5835 296.952 58.6391C294.921 57.5228 292.61 56.9354 290.256 56.9375C281.208 56.9375 274.096 64.6118 264.921 63.1484C264.161 63.0463 248.942 61.3107 241.739 60.3748C241.704 60.3791 241.67 60.3923 241.642 60.413C241.614 60.4337 241.592 60.4612 241.579 60.4926C241.566 60.5239 241.562 60.558 241.568 60.5911C241.574 60.6243 241.589 60.6554 241.612 60.6811Z" fill="white"/>
<path d="M734.316 77.2891H730.696C730.67 77.2891 730.645 77.2989 730.626 77.3165C730.607 77.334 730.597 77.3578 730.597 77.3827C730.597 77.4075 730.607 77.4313 730.626 77.4488C730.645 77.4664 730.67 77.4762 730.696 77.4762H734.316C734.342 77.4762 734.367 77.4664 734.386 77.4488C734.405 77.4313 734.415 77.4075 734.415 77.3827C734.415 77.3578 734.405 77.334 734.386 77.3165C734.367 77.2989 734.342 77.2891 734.316 77.2891Z" fill="white"/>
<path d="M943.636 247.804C942.985 247.43 941.447 248.042 941.374 247.243C940.614 239.296 924.001 231.724 914.139 250.884C912.926 253.232 908.71 251.752 905.941 252.16L900.838 252.381C896.404 228.116 873.439 205.604 845.479 216.818C839.44 219.23 834.423 223.46 831.217 228.844C828.01 234.227 826.795 240.459 827.763 246.562C823.163 247.206 818.782 248.832 814.955 251.315C811.127 253.799 807.956 257.074 805.685 260.89C799.477 252.092 787.135 249.931 776.06 252.79C760.28 256.874 751.249 270.946 737.17 277.395C726.131 278.246 715.11 279.097 704.143 280.407C704.117 280.407 704.092 280.417 704.073 280.435C704.054 280.452 704.044 280.476 704.044 280.501C704.044 280.526 704.054 280.549 704.073 280.567C704.092 280.585 704.117 280.594 704.143 280.594C724.195 282.738 744.753 281.734 764.912 281.769C785.724 281.769 806.408 280.986 827.147 279.25C846.885 277.582 866.517 274.947 885.962 271.355C899.951 269.039 913.76 265.844 927.295 261.791C930.118 261.247 932.941 260.668 935.746 260.09C958.494 254.866 980.844 248.468 1001.26 237.543C1004.22 235.91 962.421 244.129 943.636 247.804Z" fill="white"/>
<path d="M971.384 209.183C971.36 209.183 971.337 209.192 971.32 209.208C971.303 209.224 971.293 209.245 971.293 209.268C971.293 209.29 971.303 209.312 971.32 209.328C971.337 209.344 971.36 209.353 971.384 209.353C971.408 209.353 971.431 209.344 971.448 209.328C971.465 209.312 971.475 209.29 971.475 209.268C971.475 209.245 971.465 209.224 971.448 209.208C971.431 209.192 971.408 209.183 971.384 209.183Z" fill="white"/>
<path d="M783.104 179.693C768.438 184.889 753.293 188.802 737.862 191.384C738.069 190.489 738.051 189.561 737.812 188.674C737.572 187.786 737.118 186.963 736.483 186.269C735.848 185.575 735.05 185.028 734.153 184.673C733.256 184.317 732.283 184.162 731.311 184.22C729.502 184.22 727.602 184.22 725.738 184.22C724.262 181.693 722.235 179.489 719.789 177.752C717.343 176.015 714.534 174.784 711.545 174.141C708.557 173.498 705.458 173.457 702.452 174.021C699.446 174.585 696.601 175.741 694.104 177.413C692.543 174.477 690.663 171.7 688.494 169.126C680.532 159.699 666.615 153.999 655.033 161.503C647.668 166.285 645.116 173.414 644.863 181.106C630.042 175.899 610.352 188.099 599.096 199.075C591.857 199.33 584.619 199.67 577.543 200.147C577.127 200.147 576.964 200.811 577.434 200.879C583.334 201.809 589.258 202.637 595.205 203.363C595.194 203.452 595.206 203.542 595.24 203.626C595.274 203.71 595.328 203.785 595.399 203.845C595.47 203.905 595.555 203.948 595.647 203.971C595.74 203.994 595.836 203.995 595.929 203.976L598.028 203.703C660.933 211.02 725.575 206.392 783.43 180.221C783.593 180.068 783.412 179.574 783.104 179.693Z" fill="white"/>
<path d="M361.576 29.1338C338.412 26.8706 315.393 22.089 292.736 16.9842C282.18 14.5905 271.702 11.9247 261.302 8.98653C251.276 6.14481 241.395 2.28211 230.99 0.988878C228.565 0.682585 227.877 4.13689 229.795 5.15787C238.97 9.99049 249.611 11.9644 259.727 14.4317C271.364 17.2054 283.109 19.6898 294.926 21.7487C317.004 25.5774 339.263 27.4151 361.594 29.338C361.685 29.321 361.685 29.1508 361.576 29.1338Z" fill="white"/>
<path d="M1387.72 98.087C1385.51 88.1665 1374.51 81.0707 1363.79 83.9635C1360.44 84.9168 1357.43 86.7145 1355.08 89.162C1352.74 91.6096 1351.15 94.6136 1350.49 97.8488C1344.74 95.5345 1338.39 95.0411 1332.99 99.0058C1329.84 101.282 1327.74 104.607 1327.11 108.297C1321.82 107.923 1316.56 109.386 1312.34 112.408C1308.11 115.431 1305.21 119.804 1304.18 124.7C1303.99 125.385 1303.97 126.101 1304.1 126.797C1304.23 127.494 1304.53 128.154 1304.96 128.733C1291.01 133.345 1276.84 137.36 1262.58 140.866C1262.2 140.951 1262.36 141.461 1262.74 141.41C1278.69 138.738 1294.45 135.186 1309.96 130.775C1310.63 130.71 1311.28 130.537 1311.89 130.265L1312.27 130.095C1337.4 122.706 1361.93 113.607 1385.65 102.869C1386.5 102.39 1387.16 101.665 1387.54 100.802C1387.91 99.9396 1387.97 98.9865 1387.72 98.087Z" fill="white"/>
<path d="M1054.01 165.773C1053.99 165.773 1053.96 165.783 1053.94 165.801C1053.92 165.818 1053.91 165.842 1053.91 165.867C1053.91 165.892 1053.92 165.916 1053.94 165.933C1053.96 165.951 1053.99 165.961 1054.01 165.961C1054.04 165.961 1054.07 165.951 1054.08 165.933C1054.1 165.916 1054.11 165.892 1054.11 165.867C1054.11 165.842 1054.1 165.818 1054.08 165.801C1054.07 165.783 1054.04 165.773 1054.01 165.773Z" fill="white"/>
<path d="M1320.36 181.574L1303.89 186.934C1296.99 186.934 1290.35 184.297 1282.17 183.531C1276.19 182.986 1270.17 184.174 1264.93 186.934C1252.46 183.208 1232.82 193.298 1239.94 205.227L1237.11 207.83C1236.42 208.477 1236.23 208.987 1236.33 209.413C1235.07 210.076 1234.13 210.944 1234.92 211.897C1236.33 213.599 1243.57 211.284 1245.02 210.825C1262.94 205.153 1280.83 199.435 1298.7 193.673L1300.67 193.451C1310.83 192.113 1320.56 188.698 1329.17 183.446C1335.83 179.294 1322.26 180.944 1320.36 181.574ZM1275.93 191.631H1276.15C1274.77 191.903 1273.49 192.226 1272.53 192.498C1272.32 192.136 1272.09 191.784 1271.84 191.443C1275.39 188.165 1276.75 188.227 1275.93 191.631Z" fill="white"/>
<path d="M947.08 213.88C935.462 204.963 917.745 208.536 910.181 220.448C909.692 221.214 910.995 221.299 912.171 221.248C909.728 221.826 907.991 223.8 911.791 222.949C922.649 220.68 933.507 218.355 944.365 215.973C944.655 215.921 948.274 214.764 947.08 213.88ZM933.381 212.399C929.357 212.522 925.369 213.157 921.527 214.288C923.693 212.862 926.267 212.085 928.911 212.059C930.41 212.002 931.911 212.117 933.381 212.399Z" fill="white"/>
<path d="M934.05 209.982C933.362 209.387 930.81 210.272 930.177 210.459C926.775 211.48 923.445 212.705 920.097 213.862C919.174 214.185 916.604 215.853 919.138 215.921H919.536C919.319 216.755 921.762 216.619 922.232 216.551L925.417 216.074H926.286C927.678 216.11 929.057 215.824 930.304 215.24C930.702 215.053 932.276 214.202 931.462 213.658C931.036 213.381 930.574 213.158 930.086 212.994C929.84 212.896 929.586 212.816 929.326 212.756C930.575 212.28 931.806 211.803 933.036 211.276C933.796 210.969 934.755 210.595 934.05 209.982Z" fill="white"/>
<path d="M969.049 204.162C969.028 203.678 968.866 203.208 968.583 202.804C968.299 202.399 967.904 202.075 967.439 201.865C964.688 200.487 960.508 201.525 958.028 202.971C955.549 204.418 954.536 207.378 954.21 210.203C954.21 210.731 956.906 210.662 958.825 210.016C961.829 210.249 964.821 209.444 967.24 207.753C968.059 207.107 968.647 206.24 968.923 205.268C969.357 204.928 969.592 204.503 969.049 204.162ZM961.575 204.996C961.665 204.819 961.767 204.649 961.883 204.486C962.217 204.733 962.447 205.082 962.534 205.473L961.177 206.034C961.284 205.68 961.417 205.333 961.575 204.996Z" fill="white"/>
<path d="M987.11 192.83C986.82 192.689 986.495 192.624 986.169 192.643C985.603 192.633 985.037 192.691 984.486 192.813C983.025 192.914 981.611 193.34 980.36 194.055L980.143 194.191C979.672 194.446 979.274 194.787 979.346 195.195C979.509 196.267 981.373 196.131 982.151 196.046C983.197 195.929 984.217 195.66 985.174 195.246C985.786 195.046 986.317 194.671 986.694 194.174C986.726 194.046 986.726 193.912 986.694 193.783C987.182 193.511 987.49 193.17 987.11 192.83Z" fill="white"/>
<path d="M701.958 272.04C657.063 274.752 611.989 271.115 568.241 261.252C566.721 260.912 561.002 263.209 562.939 263.634C607.262 273.862 653.027 277.434 698.538 274.218C699.533 274.15 704.854 271.887 701.958 272.04Z" fill="white"/>
<path d="M655.975 272.381C650.292 273.266 647.089 259.177 642.674 255.859C638.65 252.948 633.617 251.552 628.558 251.945C625.755 252.125 623.018 252.834 620.512 254.03C618.007 255.226 615.782 256.884 613.972 258.905C612.746 257.921 611.418 257.054 610.009 256.318C606.819 254.78 603.333 253.86 599.758 253.615C596.182 253.369 592.591 253.803 589.198 254.889C585.578 255.995 576.53 259.738 580.149 264.571C582.122 267.26 587.714 267.14 590.573 267.549L609.394 270.22C609.394 270.339 609.394 270.442 609.394 270.561C609.394 272.705 613.013 272.262 615.076 271.071C615.637 271.956 618.026 271.599 619.835 270.867L620.921 271.037C621.288 271.298 621.716 271.472 622.17 271.546C622.623 271.62 623.088 271.591 623.527 271.463L640.267 274.151C642.147 273.988 643.959 273.404 645.551 272.45C648.066 274.968 651.288 275.529 655.703 274.423C658.164 273.726 659.884 271.769 655.975 272.381Z" fill="white"/>
<path d="M682.161 271.921C676.732 271.206 669.674 271.768 665.874 275.886C664.878 276.884 664.244 278.153 664.064 279.51C659.232 279.357 653.387 278.966 649.496 281.212C648.793 281.593 648.177 282.102 647.686 282.709C647.424 282.872 647.176 283.054 646.944 283.254C644.031 285.993 646.619 287.882 649.677 288.597C653.658 289.516 679.537 292.596 678.27 283.322C678.237 283.126 678.188 282.933 678.125 282.743C681.126 282.454 684.004 281.472 686.504 279.885C691.879 276.073 687.137 272.585 682.161 271.921Z" fill="white"/>
<path d="M711.423 276.976C706.284 276.976 700.203 276.04 695.136 277.18C693.955 277.507 692.854 278.051 691.897 278.779C690.087 279.596 688.476 280.907 690.087 282.421C691.698 283.935 697.507 283.272 699.696 283C704.006 282.448 708.182 281.199 712.038 279.307C714.101 278.371 713.486 276.993 711.423 276.976Z" fill="white"/>
<path d="M723.874 274.916C723.874 274.746 723.874 274.61 723.367 274.559L721.883 274.423C720.82 274.379 719.759 274.547 718.77 274.916C717.501 275.019 716.304 275.516 715.368 276.329C714.373 277.384 716.237 277.605 716.979 277.554C717.846 277.507 718.71 277.416 719.566 277.282C720.889 277.192 722.169 276.801 723.294 276.141C723.711 275.818 724.181 275.274 723.874 274.916Z" fill="white"/>
<path d="M730.533 277.725L729.954 277.419C728.914 277.104 727.784 277.184 726.805 277.64C726.606 277.64 724.561 278.661 725.375 279.001L726.009 279.257C727.042 279.509 728.137 279.413 729.103 278.984C729.302 278.916 731.257 278.134 730.533 277.725Z" fill="white"/>
<path d="M585.017 262.444C581.646 260.187 577.61 258.974 573.471 258.974C569.333 258.974 565.297 260.187 561.926 262.444C560.768 263.243 564.532 262.733 564.839 262.631C566.203 262.139 567.616 261.774 569.056 261.542C568.296 262.001 567.952 262.495 568.821 262.699C572.567 263.635 576.258 264.826 580.059 265.558C580.873 265.711 584.04 264.588 584.112 263.856C585.09 263.465 585.741 262.937 585.017 262.444Z" fill="white"/>
<path d="M587.406 246.499C586.338 243.317 580.619 243.624 577.959 243.76C575.453 243.901 572.974 244.324 570.576 245.019C567.318 240.033 559.319 239.54 554.089 242.926C544.408 249.188 562.305 253.748 566.486 254.837C568.571 255.068 570.684 254.725 572.566 253.85L573.019 253.646C575.784 253.546 578.523 253.1 581.162 252.319C583.605 251.604 588.473 249.664 587.406 246.499Z" fill="white"/>
</svg>
