<svg width="1440" height="711" viewBox="0 0 1440 711" fill="none" xmlns="http://www.w3.org/2000/svg">
<path d="M1076.88 316.096C1071.76 315.146 1066.58 314.613 1061.38 314.504C1060.06 314.617 1058.74 314.719 1057.42 314.821C1054.32 315.06 1051.23 315.298 1048.15 315.689C1044.7 316.131 1041.26 316.877 1037.84 317.621C1034.51 318.349 1031.16 319.106 1027.89 320.098C1023.92 321.299 1020.02 322.687 1016.13 324.125C1011.44 325.863 1006.79 327.701 1002.15 329.569C999.251 330.734 996.386 331.976 993.559 333.295C992.854 333.624 992.137 333.94 991.42 334.255C989.144 335.258 986.86 336.264 984.902 337.702C980.599 340.869 976.572 344.45 972.6 348.042C969.789 350.583 967.2 353.372 964.62 356.152C964.379 356.411 964.138 356.67 963.897 356.93C961.027 360.017 958.15 363.111 955.513 366.39C951.628 371.208 947.862 376.156 944.288 381.218C939.884 387.454 936.732 394.333 934.205 401.534C932.1 407.522 930.272 413.571 928.987 419.772C928.334 422.916 927.816 426.088 927.298 429.258L927.221 429.728C927.151 430.156 927.08 430.585 927.009 431.014C926.578 433.619 926.146 436.229 925.893 438.853L925.872 439.072C925.458 443.322 925.045 447.571 925.016 451.82C924.961 458.891 925.038 465.975 925.445 473.032C925.665 476.811 926.478 480.617 927.392 484.318C928.937 490.495 930.964 496.542 933.455 502.405C935.007 506.07 936.598 509.723 938.373 513.268C941.123 518.785 943.976 524.245 946.932 529.648C948.295 532.142 949.854 534.534 951.409 536.922C951.678 537.335 951.947 537.747 952.215 538.161C952.501 538.604 952.785 539.049 953.068 539.494C954.322 541.465 955.578 543.437 957.069 545.213C959.036 547.553 961.205 549.716 963.553 551.676C968.525 555.842 973.558 559.937 978.761 563.804C984.231 567.866 989.818 571.751 995.522 575.459C1002.9 580.257 1010.41 584.862 1018.56 588.333L1018.82 588.448C1022.41 589.975 1025.99 591.502 1029.91 591.946C1031.1 592.079 1032.3 592.214 1033.5 592.35C1037.7 592.825 1041.9 593.3 1046.11 593.684C1049.28 593.982 1052.47 594.139 1055.65 594.139C1063.41 594.151 1071.16 594.11 1078.93 593.957C1083.78 593.871 1088.63 593.607 1093.47 593.275C1095.02 593.169 1096.56 592.934 1098.1 592.698C1099.06 592.552 1100.01 592.405 1100.97 592.29C1103.63 591.969 1106.02 590.855 1108.38 589.751C1108.73 589.587 1109.08 589.424 1109.43 589.264C1112.05 588.061 1114.58 586.645 1117.1 585.23C1117.58 584.965 1118.05 584.7 1118.52 584.436C1118.97 584.184 1119.43 583.933 1119.88 583.681C1123.97 581.405 1128.06 579.128 1132.08 576.735C1136.55 574.09 1140.96 571.343 1145.3 568.493C1150.67 564.964 1155.99 561.358 1161.31 557.752C1162.47 556.967 1163.63 556.182 1164.79 555.398C1169.55 552.175 1173.25 547.936 1176.44 543.211C1180.16 537.699 1183.52 531.954 1186.5 526.012C1188.17 522.691 1189.79 519.34 1191.34 515.961C1191.55 515.49 1191.77 515.02 1191.98 514.549C1193.63 510.959 1195.28 507.373 1196.73 503.708C1198.59 498.997 1200.31 494.24 1201.89 489.437C1201.99 489.119 1202.1 488.8 1202.21 488.48C1203.16 485.593 1204.14 482.647 1204.38 479.673C1204.79 474.568 1204.64 469.397 1204.41 464.269C1204.27 461.259 1203.89 458.257 1203.51 455.256C1203.37 454.189 1203.24 453.122 1203.11 452.054C1202.82 449.632 1202.52 447.209 1202.13 444.802C1201.43 440.507 1200.68 436.223 1199.92 431.939C1199.3 428.432 1198.64 424.935 1197.95 421.447C1197.67 419.999 1197.36 418.554 1197.05 417.11C1196.54 414.711 1196.02 412.313 1195.62 409.899C1194.87 405.46 1193.67 401.249 1191.37 397.305C1187.81 391.212 1183.8 385.445 1179.63 379.787C1177.25 376.564 1174.71 373.46 1172.17 370.359L1171.66 369.739C1169.03 366.518 1166.39 363.295 1163.6 360.208C1160.94 357.267 1158.11 354.469 1155.29 351.684C1153.53 349.952 1151.71 348.279 1149.89 346.606C1149.28 346.048 1148.68 345.491 1148.07 344.932C1144 341.117 1139.47 337.811 1134.59 335.09C1129.71 332.406 1124.7 329.969 1119.57 327.788C1115.83 326.196 1111.96 324.915 1108.09 323.636C1107.31 323.38 1106.54 323.123 1105.76 322.865C1102.58 321.809 1099.4 320.753 1096.14 320.023C1089.75 318.599 1083.32 317.318 1076.88 316.096Z" fill="#FDE9C2"/>
<path d="M1060.85 313C1066.1 313.111 1071.34 313.649 1076.51 314.61C1083.02 315.844 1089.52 317.139 1095.98 318.578C1099.27 319.317 1102.49 320.384 1105.71 321.45C1110.39 323.016 1115.13 324.495 1119.66 326.427C1124.84 328.631 1129.91 331.095 1134.85 333.808C1139.78 336.558 1144.35 339.899 1148.47 343.755C1150.91 346.018 1153.39 348.246 1155.76 350.58C1158.62 353.395 1161.48 356.223 1164.16 359.196C1167.02 362.358 1169.72 365.662 1172.42 368.962C1175.12 372.262 1177.84 375.557 1180.37 378.985C1184.59 384.704 1188.64 390.533 1192.23 396.691C1194.56 400.678 1195.77 404.934 1196.53 409.421C1197.18 413.33 1198.12 417.197 1198.89 421.093C1199.58 424.619 1200.25 428.154 1200.88 431.698C1201.65 436.028 1202.41 440.358 1203.11 444.699C1203.51 447.132 1203.81 449.581 1204.1 452.03C1204.58 456.141 1205.23 460.25 1205.41 464.375C1205.65 469.558 1205.8 474.785 1205.38 479.945C1205.12 483.284 1203.93 486.588 1202.87 489.814C1201.27 494.669 1199.53 499.477 1197.65 504.239C1195.99 508.428 1194.08 512.517 1192.2 516.624C1190.63 520.039 1189 523.425 1187.31 526.783C1184.3 532.788 1180.91 538.595 1177.15 544.166C1173.91 548.942 1170.18 553.226 1165.37 556.485C1158.81 560.918 1152.28 565.377 1145.66 569.72C1141.28 572.601 1136.83 575.378 1132.3 578.051C1127.79 580.737 1123.19 583.278 1118.6 585.835C1115.57 587.523 1112.56 589.27 1109.41 590.714C1106.67 591.972 1103.95 593.4 1100.87 593.773C1098.33 594.078 1095.82 594.596 1093.29 594.768C1088.39 595.104 1083.49 595.371 1078.59 595.458C1070.73 595.612 1062.9 595.654 1055.06 595.642C1051.84 595.642 1048.61 595.483 1045.41 595.182C1039.94 594.683 1034.49 594.032 1029.04 593.425C1024.97 592.965 1021.27 591.356 1017.56 589.774C1009.33 586.265 1001.74 581.611 994.28 576.761C988.515 573.013 982.868 569.086 977.339 564.981C972.08 561.072 966.993 556.933 961.967 552.723C959.594 550.741 957.401 548.555 955.414 546.19C953.566 543.989 952.076 541.49 950.508 539.062C948.672 536.229 946.784 533.414 945.167 530.457C942.18 524.997 939.297 519.478 936.517 513.901C934.722 510.318 933.115 506.626 931.546 502.921C929.028 496.996 926.979 490.884 925.418 484.64C924.494 480.899 923.672 477.052 923.45 473.233C923.039 466.1 922.96 458.939 923.016 451.793C923.046 447.424 923.478 443.055 923.903 438.686C924.201 435.598 924.744 432.528 925.245 429.463C925.795 426.101 926.337 422.735 927.03 419.4C928.328 413.132 930.176 407.018 932.304 400.966C934.858 393.688 938.044 386.734 942.495 380.431C946.108 375.315 949.914 370.314 953.841 365.444C956.731 361.852 959.904 358.479 963.046 355.096C965.654 352.286 968.271 349.467 971.112 346.899C975.127 343.268 979.197 339.648 983.546 336.448C986.149 334.537 989.321 333.38 992.296 331.993C995.154 330.66 998.049 329.404 1000.98 328.227C1005.67 326.339 1010.37 324.481 1015.11 322.724C1019.04 321.271 1022.99 319.868 1026.99 318.654C1030.3 317.652 1033.69 316.886 1037.06 316.15C1040.51 315.398 1043.99 314.644 1047.48 314.198C1051.91 313.635 1056.39 313.384 1060.85 313ZM1077.97 585.934V585.833C1079.46 585.741 1080.95 585.642 1082.43 585.557C1083.88 585.472 1085.34 585.416 1086.79 585.327C1091.13 585.03 1095.48 584.812 1099.8 584.366C1101.73 584.162 1103.61 583.703 1105.41 583C1107.36 582.236 1109.18 581.119 1111.01 580.079C1115.99 577.249 1121.05 574.526 1125.91 571.484C1131.24 568.141 1136.41 564.524 1141.62 560.959C1145.18 558.513 1148.73 556.041 1152.17 553.419C1155.4 550.948 1158.41 548.165 1161.64 545.702C1165.01 543.143 1167.63 539.954 1169.93 536.489C1173.82 530.657 1177.01 524.435 1179.84 518.031C1182.84 511.215 1185.84 504.4 1188.69 497.52C1189.97 494.422 1190.85 491.159 1191.95 487.986C1193.3 484.107 1194.68 480.239 1196.05 476.367C1196.96 473.794 1197.59 471.175 1197.39 468.416C1197.25 466.512 1197.14 464.605 1196.99 462.701C1196.74 459.507 1196.6 456.297 1196.2 453.124C1195.29 446.09 1194.29 439.068 1193.25 432.052C1192.55 427.415 1191.78 422.79 1190.92 418.177C1190.41 415.48 1189.64 412.833 1189.07 410.147C1188.07 405.299 1186.3 400.641 1183.83 396.351C1180.61 390.82 1177.08 385.49 1172.89 380.645C1167.1 373.945 1161.32 367.217 1155.21 360.81C1149.1 354.404 1142.55 348.281 1136.12 342.113C1134.57 340.616 1132.87 339.149 1130.98 338.142C1128.62 336.887 1126.04 336.004 1123.49 335.169C1116.24 332.791 1109 330.34 1101.66 328.245C1090.99 325.208 1080.25 322.412 1069.51 319.629C1066.93 318.96 1064.2 318.344 1061.58 318.434C1058 318.555 1054.41 319.165 1050.9 319.951C1045.32 321.204 1039.77 322.628 1034.29 324.254C1026.87 326.454 1019.51 328.892 1012.15 331.274C1008.09 332.587 1004.06 333.973 1000.03 335.367C997.056 336.395 994.063 337.381 991.152 338.57C987.457 340.076 984.518 342.709 981.571 345.287C974.376 351.564 968.005 358.64 962.043 366.053C956.731 372.65 951.813 379.551 946.637 386.251C941.158 393.345 937.748 401.306 936.219 410.094C935.532 414.043 934.859 417.995 934.2 421.948C933.738 424.802 933.251 427.658 932.872 430.525C932.486 433.622 932.174 436.736 931.83 439.854C931.158 445.961 930.463 452.066 929.835 458.178C929.604 460.533 929.64 462.922 929.312 465.261C928.851 468.48 928.77 471.582 930.005 474.688C932.207 480.207 934.263 485.767 936.418 491.295C937.739 494.689 939.058 498.085 940.511 501.424C942.737 506.55 945.003 511.664 947.39 516.718C950.18 522.63 953.021 528.523 956.033 534.325C957.447 537.05 959.133 539.666 961.616 541.649C963.907 543.488 966.157 545.362 968.402 547.252C972.56 550.759 976.616 554.422 980.908 557.77C985.544 561.387 990.328 564.832 995.197 568.136C998.74 570.539 1002.48 572.67 1006.21 574.779C1011.24 577.619 1016.44 580.107 1022.08 581.562C1024.53 582.197 1026.95 582.993 1029.44 583.457C1033.76 584.262 1038.1 585.097 1042.47 585.497C1047.76 585.98 1053.09 586.187 1058.41 586.221C1064.93 586.272 1071.45 586.04 1077.97 585.931V585.934Z" fill="#FDCFB0"/>
<path d="M1065.26 570.351C1045.68 570.365 1026.41 565.429 1009.25 556.002C992.082 546.575 977.581 532.962 967.088 516.43C956.595 499.897 950.451 480.98 949.227 461.437C948.003 441.893 951.739 422.358 960.088 404.645C968.436 386.933 981.126 371.617 996.979 360.123C1012.83 348.628 1031.33 341.327 1050.76 338.898C1070.19 336.468 1089.92 338.99 1108.12 346.227C1126.31 353.465 1142.38 365.184 1154.83 380.297C1158.77 385.059 1160.65 391.19 1160.07 397.34C1159.48 403.49 1156.48 409.155 1151.71 413.09C1146.95 417.025 1140.82 418.907 1134.67 418.322C1128.52 417.736 1122.85 414.732 1118.92 409.969C1109.77 398.856 1097.39 390.855 1083.5 387.069C1069.61 383.282 1054.89 383.896 1041.37 388.827C1027.84 393.757 1016.18 402.761 1007.98 414.597C999.786 426.434 995.463 440.521 995.609 454.917C995.755 469.313 1000.36 483.309 1008.79 494.977C1017.23 506.645 1029.07 515.411 1042.7 520.067C1056.32 524.722 1071.05 525.038 1084.86 520.971C1098.67 516.903 1110.88 508.653 1119.8 497.357C1121.7 494.959 1124.06 492.959 1126.73 491.47C1129.4 489.982 1132.34 489.034 1135.38 488.682C1138.42 488.329 1141.5 488.579 1144.44 489.416C1147.38 490.253 1150.13 491.661 1152.53 493.561C1154.93 495.46 1156.93 497.813 1158.42 500.486C1159.9 503.158 1160.85 506.098 1161.2 509.137C1161.56 512.175 1161.31 515.254 1160.47 518.196C1159.63 521.138 1158.22 523.887 1156.32 526.285C1145.48 540.055 1131.65 551.178 1115.87 558.812C1100.09 566.447 1082.78 570.393 1065.26 570.351Z" fill="#FECCA1"/>
<path d="M1155.26 380.293C1144.36 367.078 1130.67 356.436 1115.18 349.131C1099.68 341.826 1082.77 338.038 1065.64 338.038C1048.51 338.038 1031.59 341.826 1016.09 349.131C1000.6 356.436 986.912 367.078 976.012 380.293C972.077 385.055 970.195 391.186 970.781 397.336C971.366 403.486 974.37 409.152 979.133 413.086C983.896 417.021 990.026 418.903 996.176 418.318C1002.33 417.732 1007.99 414.728 1011.93 409.965C1019.92 400.254 1030.4 392.896 1042.25 388.677V453.892C1042.25 460.069 1044.71 465.994 1049.07 470.362C1053.44 474.729 1059.37 477.183 1065.54 477.183C1071.72 477.183 1077.64 474.729 1082.01 470.362C1086.38 465.994 1088.83 460.069 1088.83 453.892V388.677C1100.72 392.882 1111.23 400.241 1119.25 409.965C1123.19 414.728 1128.85 417.732 1135 418.318C1141.15 418.903 1147.28 417.021 1152.05 413.086C1156.81 409.152 1159.81 403.486 1160.4 397.336C1160.98 391.186 1159.1 385.055 1155.17 380.293H1155.26Z" fill="#FECCA1"/>
<path d="M1147.98 477.747C1160.97 477.747 1171.51 467.215 1171.51 454.223C1171.51 441.231 1160.97 430.699 1147.98 430.699C1134.99 430.699 1124.46 441.231 1124.46 454.223C1124.46 467.215 1134.99 477.747 1147.98 477.747Z" fill="#FECCA1"/>
</svg>
