<svg width="283" height="198" viewBox="0 0 283 198" fill="none" xmlns="http://www.w3.org/2000/svg">
<path d="M153.878 3.0964C148.764 2.146 143.581 1.6134 138.38 1.50391C137.061 1.61739 135.742 1.7191 134.422 1.8208C131.324 2.05958 128.226 2.29829 125.152 2.68918C121.699 3.13053 118.26 3.87672 114.843 4.62065C111.514 5.34864 108.156 6.10622 104.886 7.09811C100.923 8.29931 97.0179 9.68705 93.1329 11.1248C88.4434 12.8629 83.7906 14.7011 79.1514 16.5689C76.2506 17.7337 73.3863 18.9758 70.5586 20.2953C69.8535 20.624 69.1373 20.9395 68.4203 21.2554C66.1442 22.2582 63.8605 23.2644 61.9019 24.702C57.5987 27.8688 53.572 31.4496 49.6001 35.0418C46.7892 37.583 44.2 40.3722 41.6199 43.1522C41.3792 43.4113 41.1383 43.6704 40.8974 43.9296C38.0272 47.0169 35.1505 50.1113 32.5129 53.3897C28.6279 58.2081 24.8618 63.1562 21.2875 68.2181C16.8838 74.4538 13.7323 81.3334 11.2048 88.5337C9.10003 94.5215 7.27178 100.571 5.98745 106.772C5.33414 109.916 4.81573 113.088 4.29773 116.258L4.22091 116.728C4.1508 117.156 4.07986 117.585 4.00891 118.014C3.57798 120.619 3.14627 123.229 2.89315 125.853L2.87177 126.072C2.45828 130.322 2.0448 134.571 2.01559 138.82C1.96074 145.891 2.03844 152.975 2.44523 160.032C2.66462 163.811 3.47818 167.617 4.3923 171.318C5.93698 177.495 7.96412 183.542 10.4552 189.405C12.0069 193.07 13.5975 196.723 15.3732 200.268C18.1232 205.785 20.976 211.245 23.9316 216.648C25.2955 219.142 26.8536 221.534 28.4093 223.922C28.6784 224.335 28.9474 224.747 29.2153 225.161C29.5013 225.604 29.7847 226.049 30.0681 226.494C31.3224 228.465 32.578 230.437 34.0692 232.213C36.0355 234.553 38.205 236.716 40.5526 238.676C45.5255 242.842 50.5577 246.937 55.7613 250.804C61.2308 254.866 66.8176 258.751 72.5217 262.459C79.901 267.257 87.4128 271.862 95.5553 275.333L95.8233 275.448C99.4061 276.975 102.987 278.502 106.909 278.946C108.104 279.079 109.3 279.214 110.496 279.35C114.696 279.825 118.899 280.3 123.109 280.684C126.277 280.982 129.469 281.139 132.65 281.139C140.411 281.151 148.163 281.11 155.933 280.957C160.785 280.871 165.634 280.607 170.474 280.275C172.024 280.169 173.56 279.934 175.1 279.698C176.055 279.552 177.012 279.405 177.975 279.29C180.631 278.969 183.016 277.855 185.381 276.751C185.731 276.587 186.081 276.424 186.43 276.264C189.053 275.061 191.579 273.645 194.102 272.23C194.575 271.965 195.048 271.7 195.521 271.436C195.973 271.184 196.425 270.933 196.877 270.681C200.967 268.405 205.057 266.128 209.078 263.735C213.551 261.09 217.957 258.343 222.296 255.493C227.669 251.964 232.992 248.358 238.314 244.752C239.473 243.967 240.631 243.182 241.789 242.398C246.554 239.175 250.245 234.936 253.445 230.211C257.164 224.699 260.522 218.954 263.5 213.012C265.174 209.691 266.786 206.34 268.336 202.961C268.551 202.49 268.767 202.02 268.983 201.549C270.63 197.959 272.276 194.373 273.731 190.708C275.59 185.997 277.309 181.24 278.889 176.437C278.994 176.119 279.1 175.8 279.206 175.48C280.164 172.593 281.141 169.647 281.38 166.673C281.791 161.568 281.638 156.397 281.41 151.269C281.275 148.259 280.893 145.257 280.511 142.256C280.375 141.189 280.239 140.122 280.114 139.054C279.819 136.632 279.524 134.209 279.134 131.802C278.434 127.507 277.685 123.223 276.919 118.939C276.298 115.432 275.642 111.935 274.954 108.447C274.668 106.999 274.359 105.554 274.049 104.11C273.536 101.711 273.022 99.313 272.616 96.8989C271.869 92.4604 270.673 88.2494 268.368 84.3045C264.809 78.2121 260.803 72.445 256.628 66.7871C254.25 63.5642 251.71 60.4604 249.171 57.3586L248.664 56.7393C246.028 53.5183 243.39 50.2947 240.599 47.2085C237.939 44.2669 235.114 41.4687 232.287 38.6841C230.528 36.9519 228.709 35.2786 226.89 33.6057C226.284 33.0484 225.678 32.4912 225.075 31.9319C221 28.1166 216.472 24.8115 211.591 22.0903C206.711 19.4059 201.698 16.9686 196.57 14.7876C192.834 13.1958 188.959 11.915 185.09 10.6362C184.315 10.3797 183.539 10.1233 182.765 9.8645C179.584 8.80891 176.398 7.75331 173.141 7.02304C166.747 5.59889 160.316 4.31807 153.878 3.0964Z" fill="#FDE9C2"/>
<path d="M137.846 0C143.103 0.11067 148.342 0.649002 153.512 1.60962C160.018 2.84443 166.518 4.13902 172.981 5.57848C176.273 6.3166 179.493 7.38355 182.708 8.45049C187.393 10.0164 192.128 11.495 196.662 13.4265C201.845 15.631 206.912 18.0945 211.845 20.8078C216.778 23.5582 221.355 26.8988 225.473 30.7552C227.915 33.0179 230.393 35.246 232.763 37.58C235.621 40.3945 238.476 43.2228 241.164 46.196C244.024 49.3578 246.724 52.6621 249.424 55.9618C252.125 59.2615 254.837 62.5567 257.366 65.9851C261.586 71.7039 265.635 77.533 269.232 83.6909C271.562 87.6782 272.77 91.9345 273.526 96.4207C274.184 100.33 275.12 104.197 275.889 108.093C276.585 111.619 277.247 115.154 277.875 118.698C278.649 123.028 279.407 127.358 280.113 131.699C280.508 134.132 280.806 136.581 281.104 139.03C281.585 143.141 282.229 147.25 282.414 151.375C282.645 156.558 282.8 161.785 282.384 166.945C282.116 170.284 280.927 173.588 279.866 176.814C278.269 181.669 276.532 186.477 274.653 191.239C272.99 195.428 271.08 199.517 269.199 203.624C267.633 207.039 266.004 210.425 264.312 213.783C261.302 219.788 257.907 225.595 254.148 231.166C250.914 235.942 247.184 240.226 242.368 243.485C235.815 247.918 229.278 252.377 222.665 256.72C218.279 259.601 213.825 262.378 209.304 265.051C204.791 267.737 200.192 270.278 195.602 272.835C192.572 274.523 189.562 276.27 186.413 277.714C183.669 278.972 180.948 280.4 177.867 280.773C175.326 281.078 172.824 281.596 170.286 281.768C165.394 282.104 160.492 282.371 155.588 282.458C147.735 282.612 139.899 282.654 132.055 282.642C128.84 282.642 125.613 282.483 122.411 282.182C116.944 281.683 111.49 281.032 106.037 280.425C101.974 279.965 98.2732 278.356 94.5612 276.774C86.3312 273.265 78.7386 268.611 71.28 263.761C65.5146 260.013 59.8677 256.086 54.3394 251.981C49.0798 248.072 43.9935 243.933 38.9672 239.723C36.5943 237.741 34.4015 235.555 32.4141 233.19C30.5662 230.989 29.0763 228.49 27.5079 226.062C25.6715 223.229 23.7844 220.414 22.1675 217.457C19.18 211.997 16.2965 206.478 13.517 200.901C11.7222 197.318 10.1145 193.626 8.54613 189.921C6.02825 183.996 3.97931 177.884 2.41803 171.64C1.49408 167.899 0.671762 164.052 0.450014 160.233C0.0388567 153.1 -0.0396791 145.939 0.0157579 138.793C0.0457863 134.424 0.477733 130.055 0.90275 125.686C1.20072 122.598 1.74354 119.528 2.24479 116.463C2.79454 113.101 3.33736 109.735 4.03032 106.4C5.32847 100.132 7.17637 94.0178 9.30376 87.9656C11.8585 80.6879 15.0438 73.7343 19.4949 67.4315C23.1076 62.3152 26.9142 57.3139 30.841 52.4437C33.7307 48.8519 36.9045 45.4786 40.0459 42.0961C42.6537 39.2862 45.2708 36.467 48.112 33.8986C52.1265 30.2677 56.1965 26.6484 60.546 23.4475C63.1493 21.5367 66.3207 20.3801 69.2958 18.9935C72.1539 17.6598 75.049 16.4043 77.981 15.227C82.67 13.3391 87.3729 11.4812 92.1128 9.72439C96.0396 8.27114 99.9871 6.86847 103.992 5.65436C107.298 4.6518 110.691 3.88608 114.057 3.15025C117.51 2.39833 120.986 1.64411 124.476 1.19802C128.907 0.634649 133.386 0.384009 137.846 0ZM154.974 272.934V272.833C156.461 272.741 157.947 272.642 159.434 272.557C160.885 272.472 162.338 272.416 163.786 272.327C168.126 272.03 172.478 271.812 176.804 271.366C178.725 271.162 180.61 270.703 182.408 270C184.358 269.236 186.175 268.119 188.007 267.079C192.994 264.249 198.053 261.526 202.908 258.484C208.244 255.141 213.411 251.523 218.615 247.959C222.18 245.513 225.734 243.041 229.169 240.419C232.403 237.948 235.406 235.165 238.64 232.702C242.012 230.143 244.629 226.954 246.932 223.489C250.82 217.657 254.014 211.435 256.837 205.031C259.84 198.215 262.843 191.4 265.691 184.52C266.973 181.422 267.853 178.159 268.954 174.986C270.299 171.107 271.685 167.239 273.055 163.367C273.965 160.794 274.591 158.175 274.387 155.416C274.246 153.512 274.136 151.605 273.988 149.701C273.743 146.507 273.604 143.297 273.198 140.124C272.292 133.09 271.292 126.068 270.246 119.052C269.553 114.415 268.776 109.79 267.915 105.177C267.414 102.48 266.642 99.8331 266.067 97.1473C265.072 92.2991 263.303 87.641 260.826 83.3506C257.611 77.8204 254.077 72.4903 249.891 67.6453C244.1 60.9447 238.323 54.2165 232.211 47.8103C226.099 41.404 219.551 35.2805 213.125 29.1134C211.566 27.6164 209.866 26.1494 207.976 25.1422C205.622 23.8867 203.044 23.0037 200.494 22.169C193.239 19.7914 186 17.3402 178.659 15.2454C167.992 12.2078 157.254 9.41167 146.515 6.62933C143.93 5.96019 141.202 5.34393 138.581 5.43361C135.005 5.55548 131.406 6.16484 127.904 6.95125C122.324 8.20445 116.773 9.62782 111.289 11.2535C103.868 13.4541 96.5061 15.8915 89.1469 18.2738C85.0908 19.5868 81.0623 20.9733 77.0293 22.3668C74.0565 23.3946 71.0629 24.3811 68.1524 25.5699C64.4566 27.0761 61.5185 29.709 58.5711 32.2866C51.3758 38.5642 45.0052 45.6396 39.0434 53.053C33.7307 59.6501 28.813 66.5508 23.6365 73.2514C18.1575 80.3452 14.7481 88.3059 13.219 97.0945C12.5322 101.043 11.8593 104.995 11.2002 108.948C10.7382 111.802 10.2508 114.658 9.87199 117.525C9.48624 120.622 9.17441 123.736 8.83024 126.854C8.15807 132.961 7.46279 139.066 6.83451 145.178C6.60352 147.533 6.64048 149.922 6.31248 152.261C5.8505 155.48 5.76966 158.582 7.00544 161.688C9.20675 167.207 11.2625 172.767 13.4177 178.295C14.7389 181.689 16.0578 185.085 17.5107 188.424C19.7375 193.55 22.0035 198.664 24.3896 203.718C27.1799 209.63 30.021 215.523 33.0331 221.325C34.4468 224.05 36.133 226.666 38.6161 228.649C40.9075 230.488 43.1573 232.362 45.4025 234.252C49.5603 237.759 53.6164 241.422 57.9081 244.77C62.5441 248.387 67.3278 251.832 72.197 255.136C75.7404 257.539 79.4801 259.67 83.2128 261.779C88.2414 264.619 93.4433 267.107 99.0794 268.562C101.532 269.197 103.953 269.993 106.439 270.457C110.76 271.262 115.098 272.097 119.469 272.497C124.761 272.98 130.094 273.187 135.407 273.221C141.93 273.272 148.453 273.039 154.974 272.931V272.934Z" fill="#FDCFB0"/>
<path d="M142.257 257.351C122.675 257.365 103.408 252.429 86.2452 243.002C69.0823 233.575 54.5807 219.962 44.0878 203.43C33.5948 186.897 27.451 167.98 26.2272 148.437C25.0033 128.893 28.7392 109.358 37.0876 91.6452C45.436 73.9325 58.1261 58.6173 73.9788 47.1227C89.8316 35.628 108.333 28.3269 127.763 25.8975C147.193 23.4682 166.922 25.9896 185.117 33.2274C203.312 40.4652 219.382 52.1845 231.834 67.2965C235.769 72.0591 237.651 78.1898 237.066 84.3398C236.48 90.4898 233.476 96.1555 228.713 100.09C223.951 104.025 217.82 105.907 211.67 105.322C205.52 104.736 199.854 101.732 195.919 96.9693C186.767 85.8564 174.394 77.8553 160.504 74.0687C146.614 70.282 131.892 70.8962 118.366 75.8265C104.84 80.7569 93.1756 89.7607 84.9807 101.597C76.7857 113.434 72.4634 127.521 72.6092 141.917C72.755 156.313 77.3618 170.309 85.7948 181.977C94.2278 193.645 106.072 202.411 119.695 207.067C133.318 211.722 148.05 212.038 161.86 207.971C175.67 203.903 187.879 195.653 196.805 184.357C198.704 181.959 201.057 179.959 203.73 178.47C206.402 176.982 209.342 176.034 212.38 175.682C215.419 175.329 218.497 175.579 221.44 176.416C224.382 177.253 227.131 178.661 229.528 180.561C231.926 182.46 233.927 184.813 235.415 187.486C236.904 190.158 237.852 193.098 238.204 196.137C238.557 199.175 238.307 202.254 237.47 205.196C236.633 208.138 235.224 210.887 233.325 213.285C222.481 227.055 208.646 238.178 192.869 245.812C177.092 253.447 159.784 257.393 142.257 257.351Z" fill="#FECCA1"/>
<path d="M232.26 67.2926C221.36 54.0775 207.673 43.4364 192.178 36.1313C176.684 28.8263 159.766 25.0381 142.636 25.0381C125.506 25.0381 108.588 28.8263 93.0932 36.1313C77.5988 43.4364 63.9116 54.0775 53.0119 67.2926C49.0771 72.0552 47.1953 78.1858 47.7806 84.3359C48.3659 90.4859 51.3703 96.1515 56.1329 100.086C60.8955 104.021 67.0262 105.903 73.1762 105.318C79.3262 104.732 84.9919 101.728 88.9267 96.9654C96.9209 87.2543 107.402 79.8965 119.252 75.6774V140.892C119.252 147.069 121.706 152.994 126.073 157.362C130.441 161.729 136.366 164.183 142.543 164.183C148.72 164.183 154.644 161.729 159.012 157.362C163.38 152.994 165.834 147.069 165.834 140.892V75.6774C177.717 79.8816 188.232 87.2406 196.252 96.9654C200.187 101.728 205.852 104.732 212.002 105.318C218.152 105.903 224.283 104.021 229.046 100.086C233.808 96.1515 236.813 90.4859 237.398 84.3359C237.983 78.1858 236.101 72.0552 232.167 67.2926H232.26Z" fill="#FECCA1"/>
<path d="M224.983 164.747C237.975 164.747 248.507 154.215 248.507 141.223C248.507 128.231 237.975 117.699 224.983 117.699C211.991 117.699 201.459 128.231 201.459 141.223C201.459 154.215 211.991 164.747 224.983 164.747Z" fill="#FECCA1"/>
</svg>
