<svg width="1440" height="711" viewBox="0 0 1440 711" fill="none" xmlns="http://www.w3.org/2000/svg">
<g clip-path="url(#clip0_2736_123606)">
<path opacity="0.2" d="M1064 846.418C1279.94 846.418 1455 671.361 1455 455.418C1455 239.475 1279.94 64.418 1064 64.418C848.057 64.418 673 239.475 673 455.418C673 671.361 848.057 846.418 1064 846.418Z" fill="white"/>
<path opacity="0.11" d="M1063.5 935.418C1328.87 935.418 1544 720.291 1544 454.918C1544 189.545 1328.87 -25.582 1063.5 -25.582C798.127 -25.582 583 189.545 583 454.918C583 720.291 798.127 935.418 1063.5 935.418Z" fill="white"/>
<path opacity="0.2" d="M1064 659.418C1176.67 659.418 1268 568.084 1268 455.418C1268 342.752 1176.67 251.418 1064 251.418C951.334 251.418 860 342.752 860 455.418C860 568.084 951.334 659.418 1064 659.418Z" fill="white"/>
<path style="mix-blend-mode:screen" opacity="0.5" d="M1142.75 847.937L1063.37 455.008L1218.23 830.177L1142.75 847.937ZM1024.38 852.608H1102.47L1063.37 455.008L1024.38 852.608ZM984.056 847.948L1063.42 455.019L908.569 830.177L984.056 847.948ZM871.083 816.502L1063.37 455.008L803.363 782.223L871.083 816.502ZM771.101 760.367L1063.37 455.008L715.886 711.849L771.101 760.367ZM691.134 683.528L1063.43 455.008L652.081 624.088L691.134 683.528ZM636.522 591.118L1063.37 455.008L616.315 524.772L636.522 591.118ZM611 489.331L1063.37 455.019L611 420.74V489.331ZM616.315 385.254L1063.38 455.008L636.522 318.954L616.315 385.254ZM652.094 285.961L1063.37 455.008L691.07 226.487L652.094 285.961ZM715.898 198.166L1063.37 455.008L771.101 149.603L715.898 198.166ZM803.389 127.871L1063.39 455.087L871.006 93.5245L803.389 127.871ZM908.595 79.8717L1063.37 455.008L984.005 62.0893L908.595 79.8717ZM1024.38 57.418L1063.42 455.008L1102.42 57.418H1024.38ZM1142.75 62.078L1063.37 455.008L1218.23 79.8492L1142.75 62.078ZM1255.72 93.5245L1063.37 455.008L1323.37 127.792L1255.72 93.5245ZM1355.6 149.603L1063.37 455.008L1410.8 198.132L1355.6 149.603ZM1435.58 226.498L1063.28 455.019L1474.66 285.939L1435.58 226.498ZM1490.19 318.965L1063.37 455.008L1510.44 385.254L1490.19 318.965ZM1515.75 420.74L1063.37 455.008L1515.74 489.32L1515.75 420.74ZM1510.45 524.817L1063.37 455.008L1490.23 591.118L1510.45 524.817ZM1474.67 624.11L1063.37 455.008L1435.67 683.528L1474.67 624.11ZM1410.8 711.849L1063.37 455.008L1355.6 760.367L1410.8 711.849ZM1323.31 782.144L1063.3 454.929L1255.74 816.491L1323.31 782.144Z" fill="url(#paint0_radial_2736_123606)"/>
</g>
<defs>
<radialGradient id="paint0_radial_2736_123606" cx="0" cy="0" r="1" gradientUnits="userSpaceOnUse" gradientTransform="translate(1061.25 459.961) scale(415.511 365.195)">
<stop stop-color="white"/>
<stop offset="0.18" stop-color="#D6D6D6"/>
<stop offset="0.59" stop-color="#6E6E6E"/>
<stop offset="1"/>
</radialGradient>
<clipPath id="clip0_2736_123606">
<rect width="1440" height="711" fill="white"/>
</clipPath>
</defs>
</svg>
