<svg width="174" height="50" viewBox="0 0 174 50" fill="none" xmlns="http://www.w3.org/2000/svg">
<path d="M24.9574 49.88C20.7538 49.8829 16.6176 48.8233 12.9331 46.7995C9.24869 44.7758 6.13556 41.8535 3.88299 38.3043C1.63041 34.7552 0.311492 30.6942 0.0487636 26.4988C-0.213964 22.3033 0.588027 18.1095 2.38022 14.3071C4.17242 10.5046 6.89666 7.2168 10.2998 4.74918C13.703 2.28157 17.6747 0.714193 21.8459 0.19268C26.0171 -0.328832 30.2524 0.212441 34.1584 1.76621C38.0644 3.31998 41.5142 5.83583 44.1874 9.08C45.0322 10.1024 45.4361 11.4185 45.3105 12.7388C45.1848 14.059 44.5399 15.2753 43.5174 16.12C42.495 16.9647 41.1789 17.3687 39.8587 17.243C38.5384 17.1174 37.3222 16.4724 36.4774 15.45C34.5127 13.0643 31.8564 11.3467 28.8746 10.5338C25.8928 9.72091 22.7323 9.85275 19.8286 10.9112C16.9249 11.9696 14.4209 13.9025 12.6617 16.4435C10.9024 18.9845 9.97451 22.0086 10.0058 25.0991C10.0371 28.1895 11.0261 31.1942 12.8364 33.6991C14.6468 36.2039 17.1894 38.0857 20.114 39.0851C23.0385 40.0845 26.201 40.1523 29.1657 39.2792C32.1304 38.4061 34.7514 36.635 36.6674 34.21C37.0752 33.6952 37.5803 33.2658 38.1541 32.9462C38.7278 32.6267 39.3588 32.4233 40.0112 32.3476C40.6635 32.2719 41.3243 32.3254 41.956 32.5052C42.5876 32.6849 43.1777 32.9872 43.6924 33.395C44.2072 33.8028 44.6367 34.3079 44.9562 34.8816C45.2758 35.4553 45.4792 36.0864 45.5549 36.7387C45.6305 37.391 45.577 38.0519 45.3973 38.6835C45.2176 39.3152 44.9152 39.9052 44.5074 40.42C42.1795 43.3761 39.2096 45.7639 35.8226 47.4029C32.4356 49.0418 28.7201 49.8889 24.9574 49.88Z" fill="#2B5250"/>
<path d="M44.2774 9.08001C41.9375 6.24307 38.9992 3.95869 35.673 2.39047C32.3467 0.822263 28.7148 0.0090332 25.0374 0.0090332C21.36 0.0090332 17.7281 0.822263 14.4018 2.39047C11.0756 3.95869 8.13728 6.24307 5.7974 9.08001C4.95268 10.1024 4.54871 11.4185 4.67436 12.7388C4.80001 14.059 5.44499 15.2753 6.4674 16.12C7.4898 16.9647 8.8059 17.3687 10.1262 17.243C11.4464 17.1174 12.6627 16.4724 13.5074 15.45C15.2235 13.3653 17.4736 11.7858 20.0174 10.88V24.88C20.0174 26.2061 20.5442 27.4779 21.4819 28.4155C22.4195 29.3532 23.6913 29.88 25.0174 29.88C26.3435 29.88 27.6152 29.3532 28.5529 28.4155C29.4906 27.4779 30.0174 26.2061 30.0174 24.88V10.88C32.5684 11.7826 34.8258 13.3623 36.5474 15.45C37.3921 16.4724 38.6084 17.1174 39.9286 17.243C41.2489 17.3687 42.565 16.9647 43.5874 16.12C44.6098 15.2753 45.2548 14.059 45.3804 12.7388C45.5061 11.4185 45.1021 10.1024 44.2574 9.08001H44.2774Z" fill="#4EAEA5"/>
<path d="M42.7175 30C45.5065 30 47.7675 27.7391 47.7675 24.95C47.7675 22.161 45.5065 19.9 42.7175 19.9C39.9284 19.9 37.6675 22.161 37.6675 24.95C37.6675 27.7391 39.9284 30 42.7175 30Z" fill="#E4696A"/>
<path d="M63.0174 32.42C62.9009 32.3074 62.8088 32.1721 62.7468 32.0224C62.6849 31.8727 62.6544 31.7119 62.6574 31.55V15.89H57.0174C56.8652 15.8941 56.7138 15.8672 56.5724 15.8108C56.431 15.7545 56.3026 15.67 56.195 15.5623C56.0874 15.4547 56.0028 15.3263 55.9465 15.1849C55.8901 15.0435 55.8632 14.8921 55.8674 14.74C55.8648 14.5867 55.8926 14.4344 55.9493 14.2919C56.0059 14.1495 56.0902 14.0196 56.1974 13.91C56.3025 13.7989 56.4299 13.7113 56.5712 13.6527C56.7125 13.5941 56.8645 13.5659 57.0174 13.57H70.6174C70.7714 13.5686 70.9241 13.598 71.0667 13.6563C71.2092 13.7146 71.3387 13.8008 71.4476 13.9097C71.5566 14.0186 71.6427 14.1481 71.701 14.2906C71.7593 14.4332 71.7887 14.5859 71.7874 14.74C71.7914 14.8928 71.7632 15.0449 71.7046 15.1861C71.646 15.3274 71.5584 15.4548 71.4474 15.56C71.3377 15.6671 71.2079 15.7514 71.0654 15.808C70.9229 15.8647 70.7706 15.8925 70.6174 15.89H65.0974V31.54C65.1002 31.7028 65.0688 31.8645 65.005 32.0144C64.9413 32.1643 64.8467 32.2991 64.7274 32.41C64.6107 32.5266 64.4718 32.6185 64.3189 32.6804C64.166 32.7422 64.0023 32.7727 63.8374 32.77C63.529 32.764 63.235 32.6385 63.0174 32.42Z" fill="#2B5250"/>
<path d="M75.1775 32.42C75.0632 32.3062 74.9733 32.1705 74.9131 32.0209C74.853 31.8714 74.8238 31.7111 74.8274 31.55V14.69C74.824 14.5259 74.8531 14.3627 74.9132 14.2099C74.9733 14.0571 75.0631 13.9178 75.1775 13.8C75.2888 13.6812 75.4236 13.5869 75.5734 13.5232C75.7232 13.4595 75.8847 13.4277 76.0475 13.43C76.3816 13.43 76.7021 13.5627 76.9384 13.799C77.1747 14.0353 77.3075 14.3558 77.3075 14.69V21.96H87.6675V14.69C87.6647 14.5251 87.6952 14.3613 87.757 14.2084C87.8189 14.0555 87.9108 13.9166 88.0275 13.8C88.1384 13.6807 88.2731 13.5861 88.423 13.5223C88.5729 13.4586 88.7346 13.4271 88.8974 13.43C89.2316 13.43 89.5521 13.5627 89.7884 13.799C90.0247 14.0353 90.1575 14.3558 90.1575 14.69V31.54C90.1603 31.7029 90.1289 31.8645 90.0651 32.0144C90.0014 32.1643 89.9067 32.2991 89.7874 32.41C89.6708 32.5266 89.5319 32.6186 89.379 32.6804C89.2261 32.7423 89.0624 32.7727 88.8974 32.77C88.7352 32.7727 88.574 32.7427 88.4236 32.6819C88.2731 32.621 88.1364 32.5305 88.0217 32.4158C87.9069 32.301 87.8164 32.1643 87.7556 32.0139C87.6947 31.8634 87.6647 31.7023 87.6675 31.54V24.28H77.3075V31.55C77.3097 31.7128 77.2779 31.8742 77.2142 32.024C77.1505 32.1738 77.0563 32.3087 76.9375 32.42C76.8205 32.5361 76.6815 32.6278 76.5287 32.6896C76.3759 32.7514 76.2123 32.7822 76.0475 32.78C75.8856 32.7823 75.7249 32.7516 75.5753 32.6897C75.4257 32.6278 75.2904 32.536 75.1775 32.42Z" fill="#2B5250"/>
<path d="M95.8073 32.28C95.6931 32.1662 95.6032 32.0305 95.543 31.8809C95.4829 31.7314 95.4537 31.5712 95.4573 31.41V14.82C95.4539 14.6559 95.483 14.4927 95.5431 14.3399C95.6032 14.1871 95.693 14.0478 95.8073 13.93C95.9182 13.8107 96.053 13.7161 96.2029 13.6523C96.3528 13.5886 96.5145 13.5571 96.6773 13.56H107.677C107.831 13.5587 107.984 13.588 108.127 13.6463C108.269 13.7047 108.399 13.7908 108.508 13.8997C108.617 14.0086 108.703 14.1381 108.761 14.2807C108.819 14.4232 108.849 14.576 108.847 14.73C108.851 14.8829 108.823 15.0349 108.765 15.1762C108.706 15.3174 108.618 15.4448 108.507 15.55C108.398 15.6571 108.268 15.7414 108.125 15.7981C107.983 15.8547 107.831 15.8826 107.677 15.88H97.9773V21.88H106.687C106.998 21.88 107.295 22.0033 107.515 22.2227C107.734 22.4421 107.857 22.7397 107.857 23.05C107.861 23.2029 107.833 23.3549 107.775 23.4962C107.716 23.6374 107.628 23.7648 107.517 23.87C107.408 23.9771 107.278 24.0614 107.135 24.1181C106.993 24.1747 106.841 24.2026 106.687 24.2H97.9373V30.31H107.637C107.948 30.31 108.245 30.4333 108.465 30.6527C108.684 30.8721 108.807 31.1697 108.807 31.48C108.811 31.6329 108.783 31.7849 108.725 31.9262C108.666 32.0674 108.578 32.1948 108.467 32.3C108.358 32.4071 108.228 32.4914 108.085 32.5481C107.943 32.6047 107.791 32.6326 107.637 32.63H96.6373C96.3255 32.6266 96.0274 32.5009 95.8073 32.28Z" fill="#2B5250"/>
<path d="M122.697 31.72C121.252 30.9324 120.065 29.745 119.277 28.3C118.423 26.7025 117.996 24.9112 118.037 23.1C117.996 21.2887 118.423 19.4974 119.277 17.9C120.065 16.4549 121.252 15.2675 122.697 14.48C124.202 13.6712 125.889 13.2616 127.597 13.29C128.72 13.2753 129.838 13.4235 130.917 13.73C131.932 14.0459 132.909 14.4753 133.827 15.01C134.011 15.1036 134.165 15.2471 134.271 15.4239C134.377 15.6007 134.431 15.8038 134.427 16.01C134.428 16.1439 134.402 16.2767 134.351 16.4004C134.299 16.5241 134.223 16.6362 134.127 16.73C134.027 16.8364 133.903 16.9193 133.767 16.9729C133.63 17.0265 133.484 17.0494 133.337 17.04C133.168 17.0423 133 17.0046 132.847 16.93C132.1 16.5175 131.313 16.1824 130.497 15.93C129.634 15.6982 128.742 15.5871 127.847 15.6C126.448 15.5675 125.067 15.913 123.847 16.6C122.773 17.2165 121.906 18.139 121.357 19.25C120.788 20.4381 120.504 21.7427 120.527 23.06C120.504 24.3772 120.788 25.6818 121.357 26.87C121.906 27.9809 122.773 28.9034 123.847 29.52C125.067 30.207 126.448 30.5524 127.847 30.52C128.742 30.533 129.634 30.422 130.497 30.19C131.313 29.9381 132.101 29.603 132.847 29.19C133 29.1157 133.168 29.078 133.337 29.08C133.483 29.0737 133.628 29.0971 133.763 29.1487C133.899 29.2002 134.023 29.2789 134.127 29.38C134.226 29.4761 134.303 29.5914 134.355 29.7187C134.406 29.846 134.431 29.9826 134.427 30.12C134.431 30.3261 134.377 30.5292 134.271 30.706C134.165 30.8828 134.011 31.0263 133.827 31.12C132.908 31.648 131.932 32.0706 130.917 32.38C129.838 32.6867 128.72 32.8349 127.597 32.82C125.897 32.8761 124.211 32.4975 122.697 31.72Z" fill="#E4696A"/>
<path d="M139.707 32.0099C138.658 31.419 137.806 30.5321 137.257 29.4599C136.668 28.2884 136.373 26.991 136.397 25.6799C136.373 24.3688 136.668 23.0715 137.257 21.8999C137.806 20.8277 138.658 19.9408 139.707 19.3499C140.842 18.7576 142.103 18.4482 143.382 18.4482C144.662 18.4482 145.923 18.7576 147.057 19.3499C148.108 19.943 148.962 20.8291 149.517 21.8999C150.113 23.0695 150.412 24.3676 150.387 25.6799C150.412 26.9922 150.113 28.2904 149.517 29.4599C148.952 30.5364 148.082 31.423 147.017 32.0099C145.883 32.6023 144.622 32.9116 143.342 32.9116C142.063 32.9116 140.802 32.6023 139.667 32.0099H139.707ZM145.537 30.1299C146.246 29.7565 146.833 29.1873 147.227 28.4899C147.704 27.6214 147.935 26.6398 147.897 25.6499C147.933 24.6698 147.701 23.6985 147.227 22.8399C146.836 22.1427 146.248 21.5759 145.537 21.2099C144.87 20.8747 144.134 20.7 143.387 20.6999C142.634 20.6991 141.891 20.8737 141.217 21.2099C140.507 21.5736 139.922 22.1412 139.537 22.8399C139.071 23.7011 138.843 24.6712 138.877 25.6499C138.841 26.6384 139.069 27.6188 139.537 28.4899C139.925 29.189 140.509 29.7592 141.217 30.1299C141.889 30.4735 142.633 30.6517 143.387 30.6499C144.136 30.6474 144.873 30.4657 145.537 30.1199V30.1299Z" fill="#E4696A"/>
<path d="M154.017 15.4498C153.883 15.3207 153.778 15.1652 153.707 14.993C153.637 14.8208 153.603 14.6358 153.607 14.4498V14.3398C153.625 13.979 153.782 13.6392 154.045 13.3913C154.308 13.1435 154.656 13.0068 155.017 13.0098H155.177C155.545 13.0124 155.897 13.1597 156.157 13.4198C156.417 13.6799 156.565 14.032 156.567 14.3998V14.5098C156.565 14.8777 156.417 15.2297 156.157 15.4898C155.897 15.7499 155.545 15.8972 155.177 15.8998H155.017C154.828 15.8996 154.642 15.8593 154.469 15.7818C154.297 15.7042 154.143 15.5911 154.017 15.4498ZM154.177 32.4498C154.061 32.3373 153.969 32.202 153.907 32.0523C153.845 31.9026 153.814 31.7418 153.817 31.5798V19.8198C153.815 19.6549 153.845 19.4911 153.907 19.3382C153.969 19.1853 154.061 19.0465 154.177 18.9298C154.288 18.8105 154.423 18.7159 154.573 18.6522C154.723 18.5884 154.885 18.5569 155.047 18.5598C155.214 18.5542 155.381 18.583 155.536 18.6444C155.691 18.7057 155.833 18.7983 155.951 18.9165C156.069 19.0346 156.161 19.1757 156.223 19.3311C156.284 19.4865 156.313 19.6528 156.307 19.8198V31.5398C156.31 31.7027 156.279 31.8643 156.215 32.0142C156.151 32.1641 156.057 32.2989 155.937 32.4098C155.821 32.5264 155.682 32.6184 155.529 32.6802C155.376 32.7421 155.212 32.7725 155.047 32.7698C154.732 32.769 154.43 32.6432 154.207 32.4198L154.177 32.4498Z" fill="#E4696A"/>
<path d="M161.017 32.4201C160.901 32.3076 160.809 32.1723 160.747 32.0226C160.685 31.8729 160.654 31.7121 160.657 31.5501V19.8201C160.655 19.6552 160.685 19.4914 160.747 19.3385C160.809 19.1857 160.901 19.0468 161.017 18.9301C161.128 18.8108 161.263 18.7162 161.413 18.6525C161.563 18.5887 161.725 18.5573 161.887 18.5601C162.222 18.5601 162.542 18.6929 162.778 18.9292C163.015 19.1655 163.147 19.4859 163.147 19.8201V20.9401C163.791 20.2141 164.548 19.5962 165.387 19.1101C166.258 18.6389 167.238 18.4045 168.227 18.4301C169.148 18.4077 170.055 18.6544 170.837 19.1401C171.573 19.6137 172.159 20.2865 172.527 21.0801C172.925 21.9242 173.127 22.8472 173.117 23.7801V31.5401C173.12 31.703 173.089 31.8646 173.025 32.0145C172.961 32.1644 172.867 32.2992 172.747 32.4101C172.631 32.5267 172.492 32.6187 172.339 32.6805C172.186 32.7424 172.022 32.7729 171.857 32.7701C171.695 32.7728 171.534 32.7429 171.384 32.682C171.233 32.6212 171.096 32.5306 170.982 32.4159C170.867 32.3011 170.776 32.1645 170.716 32.014C170.655 31.8636 170.625 31.7024 170.627 31.5401V24.0101C170.627 21.7901 169.627 20.6801 167.627 20.6801C166.758 20.6666 165.905 20.9139 165.177 21.3901C164.415 21.9179 163.74 22.5625 163.177 23.3001V31.5001C163.18 31.663 163.149 31.8246 163.085 31.9745C163.021 32.1244 162.927 32.2592 162.807 32.3701C162.691 32.4867 162.552 32.5787 162.399 32.6405C162.246 32.7024 162.082 32.7329 161.917 32.7301C161.754 32.7432 161.59 32.7224 161.435 32.669C161.28 32.6157 161.138 32.531 161.017 32.4201Z" fill="#E4696A"/>
</svg>
