<svg width="750" height="483" viewBox="0 0 750 483" fill="none" xmlns="http://www.w3.org/2000/svg">
<g opacity="0.05">
<mask id="mask0_2751_121851" style="mask-type:alpha" maskUnits="userSpaceOnUse" x="0" y="0" width="750" height="483">
<rect width="750" height="483" fill="white"/>
</mask>
<g mask="url(#mask0_2751_121851)">
<path d="M90.2161 700.865C38.6472 700.913 -12.0971 687.924 -57.3012 663.106C-102.505 638.288 -140.702 602.446 -168.343 558.91C-195.983 515.374 -212.17 465.558 -215.4 414.09C-218.629 362.623 -208.796 311.174 -186.814 264.525C-164.832 217.875 -131.414 177.54 -89.667 147.266C-47.9196 116.992 0.803164 97.7626 51.9736 91.3641C103.144 84.9656 155.101 91.606 203.018 110.668C250.934 129.73 293.255 160.595 326.047 200.395C331.239 206.597 335.153 213.764 337.564 221.484C339.975 229.205 340.835 237.325 340.095 245.379C339.356 253.434 337.03 261.262 333.253 268.414C329.476 275.566 324.323 281.9 318.088 287.052C311.854 292.204 304.661 296.073 296.926 298.435C289.191 300.797 281.065 301.606 273.015 300.815C264.966 300.024 257.153 297.649 250.025 293.827C242.897 290.004 236.596 284.81 231.483 278.543C207.384 249.272 174.8 228.196 138.221 218.218C101.642 208.241 62.8693 209.854 27.2453 222.834C-8.37866 235.815 -39.1 259.524 -60.6854 290.695C-82.2708 321.866 -93.6577 358.964 -93.2768 396.878C-92.8958 434.791 -80.7661 471.653 -58.5588 502.384C-36.3515 533.115 -5.15966 556.202 30.7179 568.464C66.5955 580.726 105.393 581.56 141.764 570.849C178.135 560.139 210.289 538.412 233.795 508.663C243.898 495.909 258.653 487.689 274.816 485.814C290.978 483.939 307.223 488.561 319.978 498.663C332.732 508.766 340.951 523.521 342.826 539.683C344.702 555.846 340.08 572.091 329.977 584.845C301.42 621.105 264.99 650.394 223.444 670.498C181.898 690.602 136.324 700.994 90.1698 700.888L90.2161 700.865Z" fill="white"/>
<path d="M327.227 200.373C298.524 165.572 262.481 137.548 221.678 118.311C180.874 99.0732 136.322 89.0972 91.2114 89.0972C46.1008 89.0972 1.54813 99.0732 -39.2549 118.311C-80.0579 137.548 -116.102 165.572 -144.804 200.373C-155.164 212.916 -160.117 229.06 -158.574 245.255C-157.03 261.45 -149.116 276.368 -136.573 286.728C-124.03 297.088 -107.886 302.041 -91.691 300.498C-75.4961 298.954 -60.5777 291.04 -50.2177 278.497C-29.1681 252.925 -1.56494 233.553 29.6411 222.453V394.193C29.4828 402.347 30.9518 410.451 33.9627 418.03C36.9736 425.609 41.4659 432.512 47.1764 438.334C52.8868 444.157 59.701 448.782 67.2204 451.939C74.7397 455.097 82.8131 456.723 90.9684 456.723C99.1238 456.723 107.197 455.097 114.717 451.939C122.236 448.782 129.05 444.157 134.761 438.334C140.471 432.512 144.963 425.609 147.974 418.03C150.985 410.451 152.454 402.347 152.296 394.193V222.476C183.584 233.544 211.27 252.917 232.386 278.521C237.517 284.731 243.822 289.87 250.939 293.645C258.056 297.419 265.848 299.754 273.867 300.517C281.887 301.281 289.979 300.457 297.681 298.093C305.382 295.729 312.543 291.871 318.753 286.74C324.964 281.609 330.103 275.304 333.877 268.187C337.652 261.07 339.987 253.279 340.75 245.259C341.514 237.239 340.69 229.147 338.326 221.445C335.962 213.744 332.104 206.583 326.973 200.373H327.227Z" fill="white"/>
<path d="M308.06 457.011C320.31 457.011 332.286 453.378 342.472 446.572C352.658 439.766 360.597 430.093 365.285 418.774C369.973 407.456 371.2 395.002 368.81 382.987C366.42 370.972 360.521 359.935 351.858 351.273C343.196 342.61 332.159 336.711 320.144 334.321C308.129 331.931 295.674 333.157 284.356 337.846C273.038 342.534 263.364 350.473 256.558 360.659C249.752 370.845 246.12 382.82 246.12 395.071C246.12 411.498 252.645 427.253 264.261 438.869C275.877 450.485 291.632 457.011 308.06 457.011V457.011Z" fill="white"/>
<path d="M401.509 264.824C404.071 265.942 406.768 265.733 409.509 265.733H812.781C815.76 265.733 819.529 266.374 822.255 264.884C823.462 264.228 821.421 262.754 820.512 263.245C817.786 264.735 813.064 263.916 810.085 263.916H408.853C406.648 263.916 404.235 264.214 402.15 263.32C400.66 262.679 400.049 264.184 401.509 264.809V264.824Z" fill="white"/>
<path d="M813.975 271.885C811.174 273.136 807.778 272.645 804.784 272.645H419.507C416.021 272.645 411.299 273.419 408.036 272.138C408.349 272.258 409.064 273.628 409.749 273.971C412.177 274.924 415.172 274.477 417.719 274.477H805.067C808.508 274.477 812.619 275.148 815.822 273.717C815.822 273.717 814.452 271.677 813.975 271.885Z" fill="white"/>
<path d="M415.275 282.523C417.748 283.611 420.519 283.283 423.17 283.283H799.554C802.073 283.514 804.612 283.204 807.002 282.374C807.553 282.136 809.296 280.527 807.807 281.183C804.827 282.494 800.656 281.808 797.379 281.808H427.282C424.064 281.808 420.34 282.36 417.316 281.049C416.735 280.795 414.932 282.374 415.275 282.538V282.523Z" fill="white"/>
<path d="M423.827 290.015C426.225 291.058 428.788 290.819 431.276 290.819H792.226C795.205 290.819 798.453 291.251 801.253 290.03C801.641 289.866 800.3 287.721 799.615 288.019C796.784 289.24 793.313 288.749 790.304 288.749H433.57C430.158 288.749 425.913 289.404 422.74 288.034C422.069 287.751 423.246 289.792 423.827 290.045V290.015Z" fill="white"/>
<path d="M430.514 297.837C434.715 299.506 439.839 298.716 444.249 298.716H776.195C781.781 298.716 787.442 299.237 792.879 297.807C793.937 297.524 791.39 297.45 791.017 297.569C788.078 298.164 785.073 298.375 782.079 298.195H445.425C441.612 298.195 436.487 298.969 433.001 297.554C432.316 297.286 430.663 297.897 430.514 297.837V297.837Z" fill="white"/>
<path d="M441.732 307.402C445.962 309.264 451.489 308.325 456.003 308.325H775.302C777.648 308.543 780.015 308.258 782.243 307.491C783.733 306.865 781.662 305.554 780.754 306.001C778.206 307.119 775.153 306.687 772.426 306.687H452.562C449.582 306.687 445.605 307.327 442.76 306.076C441.523 305.54 440.153 306.746 441.747 307.431L441.732 307.402Z" fill="white"/>
<path d="M453.023 316.263C457.387 317.678 462.154 317.172 466.683 317.172H755.875C760.91 317.172 766.616 317.932 771.472 316.353C772.455 316.04 770.266 314.863 769.55 315.056C764.62 316.65 758.557 315.772 753.417 315.772H463.182C459.979 315.772 456.493 316.144 453.41 315.146C451.92 314.669 451.548 315.772 453.023 316.248V316.263Z" fill="white"/>
<path d="M607.339 -157.828V155.005C607.339 155.616 608.829 157.463 608.829 156.689V-156.13C608.829 -156.741 607.339 -158.588 607.339 -157.813V-157.828Z" fill="white"/>
<path d="M615.562 -156.905V155.393C615.562 156.57 618.14 156.882 618.14 155.735V-156.517C618.14 -157.694 615.562 -158.007 615.562 -156.86V-156.905Z" fill="white"/>
<path d="M597.954 -156.949C597.954 -116.121 597.954 -75.2891 597.954 -34.4519C597.954 6.55413 597.954 47.5602 597.954 88.5662C597.954 99.9871 597.954 111.408 597.954 122.829V148.258C597.954 150.552 597.611 152.935 598.565 155.081C598.967 155.989 601.321 156.57 600.695 155.081C599.727 152.891 600.308 149.464 600.308 147.111V124.274C600.308 114.065 600.308 103.855 600.308 93.646C600.308 73.575 600.308 53.504 600.308 33.433C600.308 -6.87786 600.308 -47.1887 600.308 -87.4995C600.308 -110.341 600.308 -133.183 600.308 -156.025C600.308 -157.023 597.954 -158.066 597.954 -156.978V-156.949Z" fill="white"/>
<path d="M624.546 -156.517C624.546 -116.028 624.546 -75.5433 624.546 -35.0636C624.546 5.41608 624.546 45.9007 624.546 86.3903C624.546 97.8112 624.546 109.232 624.546 120.653C624.546 126.185 624.546 131.721 624.546 137.263C624.546 140.242 624.546 143.182 624.546 146.082V150.238C624.546 151.728 624.903 153.352 624.143 154.707C623.637 155.541 626.125 156.197 626.542 155.527C627.495 153.947 627.108 152.1 627.108 150.298C627.108 147.527 627.108 144.761 627.108 142C627.108 136.985 627.108 131.97 627.108 126.954C627.108 116.745 627.108 106.536 627.108 96.3265C627.108 75.9079 627.108 55.4943 627.108 35.0856C627.108 -5.57283 627.108 -46.2312 627.108 -86.8897C627.108 -109.9 627.108 -132.911 627.108 -155.922C627.108 -156.845 624.56 -157.203 624.56 -156.428L624.546 -156.517Z" fill="white"/>
<path d="M631.576 -156.518C632.38 -154.626 631.755 -151.333 631.755 -149.293C631.755 -146.701 631.755 -144.108 631.755 -141.516C631.755 -136.551 631.755 -131.54 631.755 -126.485C631.755 -116.465 631.755 -106.444 631.755 -96.4237C631.755 -76.3825 631.755 -56.3363 631.755 -36.2852C631.755 3.97603 631.755 44.2372 631.755 84.4984C631.755 95.7306 631.755 106.963 631.755 118.195C631.755 123.727 631.755 129.258 631.755 134.79C631.755 137.769 631.755 140.709 631.755 143.609V147.75C631.972 149.294 631.907 150.864 631.561 152.383C631.129 153.396 633.691 153.56 634.078 152.637C634.779 150.983 634.347 148.853 634.347 147.08C634.347 144.319 634.347 141.553 634.347 138.782C634.347 133.817 634.347 128.807 634.347 123.752C634.347 113.552 634.347 103.358 634.347 93.1683C634.347 72.7795 634.347 52.3908 634.347 32.002C634.347 -8.60682 634.347 -49.2156 634.347 -89.8244C634.347 -101.225 634.347 -112.646 634.347 -124.087C634.347 -129.788 634.347 -135.488 634.347 -141.189C634.347 -143.95 634.347 -146.715 634.347 -149.486C634.347 -151.81 634.972 -154.953 634.049 -157.113C633.676 -158.007 631.069 -157.635 631.576 -156.562V-156.518Z" fill="white"/>
<path d="M589.33 -155.727C588.749 -145.969 589.211 -136.063 589.211 -126.291C589.211 -116.101 589.211 -105.912 589.211 -95.7224C589.211 -75.6911 589.211 -55.6549 589.211 -35.6137C589.211 4.62766 589.211 44.8491 589.211 85.0507C589.211 96.4518 589.211 107.873 589.211 119.313C589.211 124.845 589.211 130.372 589.211 135.894C589.211 138.873 589.211 141.808 589.211 144.698C589.211 146.843 588.63 149.554 589.777 151.446C590.15 152.057 592.623 151.446 592.176 150.671C591.133 148.928 591.758 145.636 591.758 143.67C591.758 141.078 591.758 138.486 591.758 135.894C591.758 130.928 591.758 125.918 591.758 120.863C591.758 110.842 591.758 100.826 591.758 90.8158C591.758 70.7845 591.758 50.7483 591.758 30.7071C591.758 -9.18668 591.758 -49.0854 591.758 -88.989C591.758 -100.211 591.758 -111.439 591.758 -122.671C591.758 -133.814 591.222 -145.12 591.878 -156.248C591.878 -156.859 589.375 -156.606 589.33 -155.742V-155.727Z" fill="white"/>
<path d="M641.245 -156.518C640.664 -146.76 641.126 -136.869 641.126 -127.096C641.126 -117.324 641.126 -107.418 641.126 -97.5708C641.126 -77.7083 641.126 -57.8459 641.126 -37.9834C641.126 1.74146 641.126 41.4664 641.126 81.1913C641.126 92.4136 641.126 103.636 641.126 114.858C641.126 120.38 641.126 125.907 641.126 131.438C641.126 134.199 641.126 136.96 641.126 139.721C641.126 142.328 641.677 145.68 640.396 148.048C640.083 148.629 641.751 150.193 641.692 150.298C642.373 148.781 642.645 147.111 642.481 145.456C642.481 142.864 642.481 140.272 642.481 137.68C642.481 132.714 642.481 127.709 642.481 122.664C642.481 112.653 642.481 102.638 642.481 92.6171C642.481 72.5859 642.481 52.5595 642.481 32.5382C642.481 -7.34561 642.481 -47.2244 642.481 -87.0983C642.481 -98.3206 642.481 -109.543 642.481 -120.765C642.481 -131.908 641.945 -143.215 642.6 -154.343C642.6 -155.043 641.245 -156.309 641.26 -156.458L641.245 -156.518Z" fill="white"/>
<path d="M580.391 -155.221C580.391 -115.586 580.391 -75.9453 580.391 -36.2999C580.391 3.1668 580.391 42.6335 580.391 82.1002C580.391 93.1834 580.391 104.262 580.391 115.335C580.391 120.877 580.391 126.418 580.391 131.96V140.272C580.152 142.502 580.365 144.756 581.016 146.901C581.523 148.123 583.891 147.78 583.266 146.276C582.342 144.026 582.908 140.555 582.908 138.142V130.872C582.908 126.026 582.908 121.18 582.908 116.333C582.908 106.461 582.908 96.5948 582.908 86.7331C582.908 67.1686 582.908 47.609 582.908 28.0545C582.908 -10.8958 582.908 -49.8411 582.908 -88.7814C582.908 -110.769 582.908 -132.752 582.908 -154.73C582.908 -156.026 580.391 -156.622 580.391 -155.192V-155.221Z" fill="white"/>
<path d="M649.361 -154.61C649.927 -145.18 649.48 -135.617 649.48 -126.172C649.48 -116.489 649.48 -106.801 649.48 -97.1083C649.48 -77.9013 649.48 -58.6993 649.48 -39.5022C649.48 -0.919392 649.48 37.6585 649.48 76.2313C649.48 87.1557 649.48 98.0552 649.48 108.93C649.48 114.293 649.48 119.656 649.48 125.018C649.48 127.611 649.48 130.208 649.48 132.81C649.738 135.809 649.491 138.83 648.75 141.748C648.333 142.969 650.806 143.759 651.223 142.522C652.638 138.426 652.028 133.733 652.028 129.473C652.028 124.626 652.028 119.785 652.028 114.948C652.028 105.265 652.028 95.5774 652.028 85.8845C652.028 66.3398 652.028 46.7902 652.028 27.2356C652.028 -11.4962 652.028 -50.2279 652.028 -88.9597C652.028 -99.884 652.028 -110.784 652.028 -121.658C652.028 -132.473 652.549 -143.452 651.908 -154.253C651.908 -155.504 649.287 -155.891 649.361 -154.506V-154.61Z" fill="white"/>
<path d="M463.974 324.516C468.115 325.872 472.51 325.544 476.8 325.544H747.923C751.746 325.707 755.57 325.244 759.244 324.174C760.734 323.667 758.336 324.07 757.904 324.174C754.978 324.867 751.962 325.093 748.966 324.844H482.074C476.919 324.844 471.363 325.47 466.402 323.831C465.732 323.608 464.242 324.576 463.989 324.487L463.974 324.516Z" fill="white"/>
<path d="M572.035 -155.28C571.469 -153.651 571.271 -151.916 571.454 -150.2V-142.931C571.454 -138.084 571.454 -133.238 571.454 -128.392C571.454 -118.699 571.454 -109.006 571.454 -99.3129C571.454 -79.9271 571.454 -60.5612 571.454 -41.2152C571.454 -2.48346 571.454 36.2831 571.454 75.0844C571.454 85.8101 571.454 96.5408 571.454 107.276C571.454 112.818 571.454 118.355 571.454 123.886C571.454 126.478 571.454 129.075 571.454 131.677C571.521 133.987 571.8 136.286 572.289 138.545C572.512 139.796 574.866 140.154 574.598 138.545C574.163 136.471 573.914 134.362 573.853 132.244C573.853 129.651 573.853 127.054 573.853 124.452C573.853 119.775 573.853 115.102 573.853 110.435C573.853 100.92 573.853 91.4014 573.853 81.8773C573.853 62.6703 573.853 43.4584 573.853 24.2415C573.853 -13.8349 573.853 -51.9112 573.853 -89.9875C573.853 -100.713 573.853 -111.444 573.853 -122.18C573.853 -127.542 573.853 -132.905 573.853 -138.268V-146.521C573.853 -148.89 573.302 -152.003 574.315 -154.193C574.836 -155.31 572.602 -156.561 572.006 -155.295L572.035 -155.28Z" fill="white"/>
<path d="M658.287 -153.167C658.287 -116.193 658.287 -79.2188 658.287 -42.2448C658.287 -5.4397 658.287 31.3654 658.287 68.1705C658.287 78.5387 658.287 88.9069 658.287 99.2751C658.287 104.459 658.287 109.643 658.287 114.827C658.287 119.967 659.002 125.717 657.542 130.693C657.2 131.869 659.539 132.927 659.941 131.586C661.103 127.639 660.715 123.408 660.715 119.341C660.715 114.673 660.715 110.011 660.715 105.353C660.715 96.0276 660.715 86.6972 660.715 77.3619C660.715 58.8699 660.715 40.383 660.715 21.901C660.715 -15.2518 660.715 -52.3995 660.715 -89.5423C660.715 -110.626 660.715 -131.705 660.715 -152.779C660.715 -154.001 658.302 -154.656 658.302 -153.152L658.287 -153.167Z" fill="white"/>
<path d="M564.51 -152.988C563.973 -144.05 564.39 -135.007 564.39 -126.084C564.39 -116.908 564.39 -107.731 564.39 -98.5548C564.39 -80.2019 564.39 -61.8291 564.39 -43.4365C564.39 -6.69099 564.39 30.0198 564.39 66.6958C564.39 77.0838 564.39 87.4719 564.39 97.86C564.39 102.885 564.39 107.905 564.39 112.921C564.39 117.673 564.227 122.276 565.448 126.909C565.686 127.803 567.876 128.89 567.489 127.43C566.602 123.166 566.277 118.804 566.521 114.455C566.521 109.777 566.521 105.1 566.521 100.422C566.521 91.4146 566.521 82.412 566.521 73.4143C566.521 55.0614 566.521 36.6886 566.521 18.296C566.521 -18.0722 566.521 -54.4354 566.521 -90.7936C566.521 -101.013 566.521 -111.232 566.521 -121.451C566.521 -131.596 566.044 -141.875 566.64 -152.005C566.64 -152.913 564.584 -154.299 564.51 -153.018V-152.988Z" fill="white"/>
<path d="M479.821 333.693C483.238 334.481 486.75 334.772 490.249 334.557H732.144C736.613 334.557 741.246 335.048 745.551 333.797C746.385 333.559 744.24 332.382 743.614 332.576C739.637 333.737 735.302 333.305 731.205 333.305H494.524C489.683 333.305 484.097 334.02 479.479 332.635C477.766 332.129 478.793 333.395 479.806 333.693H479.821Z" fill="white"/>
<path d="M727.153 341.528C723.295 342.497 719.153 342.184 715.235 342.184H510.538C506.069 342.184 501.302 342.616 496.952 341.513C496.118 341.305 493.883 342.407 495.284 342.765C502.136 344.493 509.778 343.614 516.795 343.614H716.8C720.565 343.794 724.338 343.504 728.032 342.75C729.73 342.318 728.36 341.26 727.153 341.513V341.528Z" fill="white"/>
<path d="M711.037 348.814C704.482 350.184 697.63 349.782 691.016 349.782H535.94C528.223 349.782 520.06 350.527 512.477 348.873C511.539 348.665 509.945 349.007 511.702 349.395C517.661 350.706 523.799 350.527 529.891 350.527H692.759C699.581 350.527 706.508 350.87 713.227 349.469C713.748 349.365 711.618 348.709 711.052 348.829L711.037 348.814Z" fill="white"/>
<path d="M395.135 256.468C396.809 257.173 398.626 257.474 400.438 257.347H546.74C553.175 257.347 559.655 256.96 566.016 258.077C567.506 258.33 567.089 255.842 565.897 255.634C560.995 254.923 556.039 254.663 551.089 254.859C545.444 254.859 539.813 254.859 534.167 254.859H405.503C402.523 254.859 398.337 255.559 395.537 254.204C394.047 253.504 394.047 255.917 395.135 256.453V256.468Z" fill="white"/>
<path d="M823.954 254.993C821.734 255.798 818.636 255.232 816.282 255.232H674.241C668.41 254.969 662.568 255.218 656.782 255.976C656.528 255.976 657.959 257.794 658.629 257.675C663.77 256.957 668.965 256.708 674.151 256.93C679.633 256.93 685.115 256.93 690.538 256.93H816.461C819.217 256.93 823.105 257.63 825.697 256.691C826.054 256.557 824.431 254.785 823.85 254.993H823.954Z" fill="white"/>
<path d="M388.983 247.068C392.543 248.781 397.042 248.051 400.9 248.051H524.782C530.741 248.051 537.236 247.277 542.986 248.722C544.655 249.139 544.476 247.381 543.09 247.038C538.911 246.231 534.648 245.946 530.398 246.189H399.306C396.461 246.189 392.379 246.904 389.772 245.653C388.282 244.968 387.582 246.368 389.027 247.053L388.983 247.068Z" fill="white"/>
<path d="M686.159 357.186C676.685 358.765 666.689 357.931 657.11 357.931H569.219C558.508 357.931 547.38 358.795 536.774 357.186C535.105 356.933 536.193 358.87 537.34 359.048C546.799 360.538 556.706 359.793 566.165 359.793H655.069C660.7 359.793 666.331 359.793 671.977 359.793C677.099 359.983 682.228 359.729 687.306 359.033C688.796 358.78 687.202 357.007 686.159 357.186V357.186Z" fill="white"/>
<path d="M827.484 245.696C825.369 246.635 822.449 246.173 820.185 246.173H695.647C690.463 246.173 684.966 245.651 679.901 246.933C679.529 247.022 680.929 249.018 681.495 248.869C685.964 247.752 690.627 248.109 695.171 248.109H822.3C824.55 248.109 827.172 248.512 829.272 247.588C829.466 247.499 828.11 245.428 827.499 245.696H827.484Z" fill="white"/>
<path d="M383.755 238.681C386.868 240.349 391.203 239.545 394.659 239.545H517.543C520.539 239.33 523.549 239.551 526.482 240.2C527.971 240.632 529.237 238.576 527.629 238.1C523.8 236.968 519.808 237.236 515.845 237.236H392.946C390.429 237.236 387.211 237.802 384.932 236.58C384.794 236.505 384.642 236.458 384.486 236.441C384.33 236.424 384.172 236.438 384.021 236.482C383.87 236.527 383.73 236.6 383.607 236.699C383.485 236.797 383.383 236.919 383.308 237.057C383.233 237.195 383.185 237.346 383.168 237.502C383.152 237.659 383.166 237.817 383.21 237.968C383.254 238.118 383.328 238.259 383.426 238.381C383.525 238.504 383.647 238.605 383.785 238.681H383.755Z" fill="white"/>
<path d="M478.765 -121.898C477.126 -118.918 477.96 -114.36 477.96 -111.008C477.96 -106.36 477.96 -101.713 477.96 -97.0648C477.96 -88.1267 477.96 -79.1886 477.96 -70.2505C477.96 -52.1658 477.96 -34.081 477.96 -15.9962C477.96 -10.832 477.96 -5.66281 477.96 -0.488638C477.96 1.92465 477.96 4.33794 477.96 6.75123C477.96 8.83678 478.661 12.844 477.514 14.7508C477.141 15.3616 478.482 17.4472 478.795 16.9109C479.674 15.4212 479.331 13.9315 479.331 12.2035C479.331 9.96895 479.331 7.73442 479.331 5.485C479.331 0.837183 479.331 -3.81063 479.331 -8.45844C479.331 -17.3965 479.331 -26.3346 479.331 -35.2727C479.331 -53.3575 479.331 -71.4423 479.331 -89.527C479.331 -94.6913 479.331 -99.8605 479.331 -105.035C479.331 -107.448 479.331 -109.861 479.331 -112.274C479.331 -114.673 478.869 -117.548 480.046 -119.723C480.389 -120.363 479.033 -122.404 478.765 -121.883V-121.898Z" fill="white"/>
<path d="M486.616 -126.084C486.085 -124.278 485.918 -122.384 486.124 -120.513V-113.318C486.124 -108.819 486.124 -104.32 486.124 -99.8214C486.124 -90.8237 486.124 -81.826 486.124 -72.8283C486.124 -55.0117 486.124 -37.1951 486.124 -19.3784C486.124 -14.3632 486.124 -9.3479 486.124 -4.33263C486.124 -1.90942 486.124 0.513799 486.124 2.93702C486.124 5.35031 486.377 7.79338 485.364 10.0428C485.364 10.0428 487.748 10.9664 487.897 10.6238C489.506 7.03364 488.656 2.17727 488.656 -1.66611C488.656 -6.16495 488.656 -10.6638 488.656 -15.1626C488.656 -24.1603 488.656 -33.158 488.656 -42.1557C488.656 -59.9723 488.656 -77.7889 488.656 -95.6056C488.656 -100.621 488.656 -105.636 488.656 -110.651V-117.876C488.656 -120.319 488.21 -123.224 489.148 -125.518C489.148 -125.518 486.75 -126.427 486.616 -126.099V-126.084Z" fill="white"/>
<path d="M744.958 -121.705C745.628 -119.843 745.181 -117.236 745.181 -115.255C745.181 -112.831 745.181 -110.413 745.181 -108C745.181 -103.68 745.181 -99.3597 745.181 -95.0397C745.181 -86.0519 745.181 -77.0592 745.181 -68.0615C745.181 -50.4236 745.181 -32.7907 745.181 -15.1628C745.181 -10.1972 745.181 -5.18195 745.181 -0.117023C745.181 2.47503 745.181 5.06708 745.181 7.65913C745.181 9.6702 744.749 12.1282 745.434 13.9903C745.703 14.7351 747.997 15.7928 747.624 14.7798C746.954 12.9177 747.401 10.3108 747.401 8.32949C747.401 5.90627 747.401 3.48802 747.401 1.07473C747.401 -3.24535 747.401 -7.56544 747.401 -11.8855C747.401 -20.8733 747.401 -29.866 747.401 -38.8637C747.401 -56.5015 747.401 -74.1344 747.401 -91.7623C747.401 -96.728 747.401 -101.743 747.401 -106.808C747.401 -109.4 747.401 -111.992 747.401 -114.584C747.401 -116.595 747.833 -119.053 747.148 -120.915C746.879 -121.66 744.585 -122.718 744.958 -121.705V-121.705Z" fill="white"/>
<path d="M735.572 -126.948C737.166 -123.268 736.332 -118.323 736.332 -114.405C736.332 -110.075 736.332 -105.745 736.332 -101.415C736.332 -92.4171 736.332 -83.4145 736.332 -74.4068C736.332 -56.7491 736.332 -39.0914 736.332 -21.4337C736.332 -16.4184 736.332 -11.3982 736.332 -6.37299C736.332 -3.78094 736.332 -1.18393 736.332 1.41805C736.104 3.72532 736.363 6.05468 737.092 8.2557C737.449 9.07503 739.907 8.25571 739.594 7.57045C738.001 3.89093 738.835 -1.05481 738.835 -4.97268C738.835 -9.3027 738.835 -13.6327 738.835 -17.9627C738.835 -26.9604 738.835 -35.9631 738.835 -44.9707C738.835 -62.6284 738.835 -80.2861 738.835 -97.9438C738.835 -102.959 738.835 -107.979 738.835 -113.005C738.835 -115.597 738.835 -118.194 738.835 -120.796C739.062 -123.103 738.804 -125.432 738.075 -127.633C737.717 -128.453 735.26 -127.633 735.572 -126.948V-126.948Z" fill="white"/>
<path d="M469.173 -115.434C468.683 -113.921 468.511 -112.324 468.666 -110.741C468.666 -108.328 468.666 -105.915 468.666 -103.502C468.666 -99.1915 468.666 -94.8764 468.666 -90.5563C468.666 -81.6182 468.666 -72.6453 468.666 -63.6377C468.666 -46.0396 468.666 -28.4414 468.666 -10.8433C468.666 -0.663795 468.666 9.51571 468.666 19.6952C468.666 20.5145 471.258 20.4401 471.258 19.576C471.258 -15.2726 471.258 -50.1213 471.258 -84.97C471.258 -89.9356 471.258 -94.9409 471.258 -99.986C471.258 -102.399 471.258 -104.813 471.258 -107.226C471.258 -109.714 470.752 -112.872 471.72 -115.211C472.063 -116.045 469.515 -116.179 469.202 -115.419L469.173 -115.434Z" fill="white"/>
<path d="M514.665 229.311C511.239 227.821 506.799 228.491 503.12 228.491H388.414C386.09 228.491 382.679 229.117 380.489 228.312C378.999 227.761 379.089 230.189 380.31 230.621C381.899 231.004 383.543 231.105 385.167 230.919H507.172C509.615 230.919 512.237 230.592 514.516 231.62C516.006 232.275 515.857 229.832 514.695 229.311H514.665Z" fill="white"/>
<path d="M828.693 237.204H708.699C704.349 237.204 699.895 236.861 695.709 238.247C694.219 238.738 695.381 240.958 696.632 240.541C701.697 238.872 707.417 239.543 712.676 239.543H829.035C830.674 239.543 830.063 237.204 828.693 237.204Z" fill="white"/>
<path d="M495.584 -130.464C494.616 -128.275 495.093 -125.429 495.093 -123.016C495.093 -120.245 495.093 -117.479 495.093 -114.719C495.093 -109.187 495.093 -103.655 495.093 -98.1235C495.093 -87.0601 495.093 -75.9917 495.093 -64.9184C495.093 -53.8451 495.093 -42.7768 495.093 -31.7134C495.093 -26.1817 495.093 -20.65 495.093 -15.1183C495.093 -12.3475 495.093 -9.58164 495.093 -6.82076C495.093 -4.40747 495.346 -1.96438 494.333 0.28504C494.229 0.508493 496.642 1.22354 496.91 0.642561C497.923 -1.60686 497.67 -4.04994 497.67 -6.46322C497.67 -9.23404 497.67 -11.9999 497.67 -14.7608C497.67 -20.2925 497.67 -25.8242 497.67 -31.3558C497.67 -42.4192 497.67 -53.4876 497.67 -64.5609C497.67 -75.6342 497.67 -86.7026 497.67 -97.7659C497.67 -103.298 497.67 -108.829 497.67 -114.361C497.67 -117.132 497.67 -119.898 497.67 -122.659C497.67 -125.012 497.193 -127.858 498.161 -130.107C498.266 -130.345 495.837 -131.045 495.584 -130.464Z" fill="white"/>
<path d="M460.234 -109.1C459.863 -107.763 459.752 -106.367 459.907 -104.988C459.907 -102.754 459.907 -100.519 459.907 -98.2849C459.907 -93.9847 459.907 -89.6845 459.907 -85.3842C459.907 -76.7838 459.907 -68.1834 459.907 -59.5829C459.907 -42.2132 459.907 -24.8336 459.907 -7.444C459.907 2.35812 459.907 12.1602 459.907 21.9624C459.907 23.3329 462.037 24.033 462.037 22.3348C462.037 0.664843 462.037 -21.0051 462.037 -42.675C462.037 -53.3412 462.037 -64.0023 462.037 -74.6585C462.037 -80.1604 462.037 -85.6623 462.037 -91.1642C462.037 -93.9152 462.037 -96.6661 462.037 -99.4171C462.037 -100.798 462.037 -102.173 462.037 -103.543C461.869 -104.868 461.915 -106.211 462.171 -107.521C462.588 -108.683 460.681 -110.5 460.249 -109.011L460.234 -109.1Z" fill="white"/>
<path d="M505.415 222.011C500.812 220.521 495.509 221.207 490.727 221.207H380.118C378.628 221.387 377.118 221.322 375.649 221.013C375.142 220.834 376.483 222.622 377.005 222.816C379.045 223.56 381.623 223.099 383.783 223.099H490.31C495.554 223.099 501.736 222.19 506.771 223.814C507.292 223.978 505.952 222.175 505.415 222.011Z" fill="white"/>
<path d="M451.698 -102.889C450.972 -100.805 450.698 -98.5914 450.893 -96.3939C450.893 -93.623 450.893 -90.8522 450.893 -88.0814C450.893 -82.8874 450.893 -77.6983 450.893 -72.5142C450.893 -61.9573 450.893 -51.4004 450.893 -40.8436C450.893 -19.5609 450.893 1.72167 450.893 23.0043C450.893 23.8683 453.485 23.7938 453.485 22.8851C453.485 1.95009 453.485 -18.9899 453.485 -39.9348C453.485 -50.313 453.485 -60.6961 453.485 -71.0841C453.485 -76.2782 453.485 -81.4672 453.485 -86.6513C453.485 -89.2434 453.485 -91.8404 453.485 -94.4424C453.485 -97.1387 453.098 -100.133 454.2 -102.665C454.573 -103.529 452.025 -103.664 451.683 -102.889H451.698Z" fill="white"/>
<path d="M496.477 213.148C494.646 212.465 492.691 212.181 490.742 212.314H404.608C393.867 212.314 382.963 212.835 372.237 212.194C370.956 212.12 372.073 214.384 372.982 214.429C382.829 215.01 392.81 214.548 402.672 214.548H487.777C490.757 214.548 494.019 214.042 496.715 215.233C498.086 215.829 497.281 213.52 496.447 213.148H496.477Z" fill="white"/>
<path d="M367.903 205.31C369.944 206.218 372.372 205.876 374.503 205.876H480.747C483.339 205.876 486.706 205.295 489.134 206.308C490.624 206.904 490.162 204.52 489.134 204.088C486.989 203.194 484.575 203.522 482.281 203.522H376.037C373.549 203.522 370.212 204.118 367.903 203.09C366.414 202.45 366.89 204.863 367.903 205.31Z" fill="white"/>
<path d="M444.83 -97.9714C443.966 -95.8859 444.309 -93.5024 444.309 -91.2977C444.309 -89.0929 444.309 -86.4711 444.309 -84.0429C444.309 -79.2064 444.309 -74.3748 444.309 -69.5483C444.309 -59.3688 444.309 -49.1843 444.309 -38.9949C444.309 -18.8047 444.309 1.39045 444.309 21.5906C444.309 22.3056 445.694 23.5272 445.694 23.6761C445.694 3.81368 445.694 -16.0488 445.694 -35.9112C445.694 -45.7531 445.694 -55.5899 445.694 -65.4218C445.694 -70.2584 445.694 -75.0899 445.694 -79.9165C445.694 -82.3298 445.694 -84.748 445.694 -87.1712C445.694 -89.8378 445.128 -93.264 446.171 -95.7667C446.439 -96.4222 444.756 -97.8225 444.83 -97.9863V-97.9714Z" fill="white"/>
<path d="M827.872 229.044H720.898C716.593 229.044 711.96 228.522 707.803 229.863C706.463 230.295 708.772 231.204 709.487 230.965C714.209 229.476 720.108 230.265 725.039 230.265H828.378C830.136 230.265 829.064 229.029 827.872 229.029V229.044Z" fill="white"/>
<path d="M363.983 196.284C365.872 196.933 367.88 197.162 369.867 196.955H473.907C476.484 196.955 479.865 196.388 482.219 197.536C483.709 198.265 484.394 196.046 483.068 195.405C479.404 193.633 474.458 194.467 470.51 194.467H373.681C371.148 194.467 367.201 195.182 364.832 194.139C363.342 193.454 362.642 195.629 363.983 196.269V196.284Z" fill="white"/>
<path d="M362.108 186.868C363.578 187.411 365.15 187.619 366.711 187.478H468.501C470.884 187.478 474.281 186.853 476.545 187.672C476.813 187.776 475.294 186.465 474.772 186.272C472.89 185.859 470.95 185.768 469.037 186.004H368.29C365.996 186.004 362.867 186.57 360.722 185.616C359.769 185.199 361.75 186.689 362.108 186.853V186.868Z" fill="white"/>
<path d="M472 177.783C470.806 177.094 469.421 176.812 468.053 176.978C465.654 176.978 463.241 176.978 460.843 176.978H388.221C378.672 176.978 369.004 177.425 359.485 176.859C357.786 176.755 358.233 178.855 359.738 178.945C368.75 179.481 377.897 179.064 386.939 179.064H466.191C467.219 179.064 469.364 178.677 470.287 179.243C471.464 179.943 473.401 178.647 471.941 177.753L472 177.783Z" fill="white"/>
<path d="M471.422 31.5118C469.485 32.2119 466.476 31.6756 464.405 31.6756H360.589C359.397 31.6756 358.072 33.493 359.755 33.493H466.684C468.431 33.7002 470.201 33.5993 471.913 33.1951C473.403 32.6588 472.941 30.9755 471.422 31.5267V31.5118Z" fill="white"/>
<path d="M435.579 -89.3469C433.985 -85.6972 434.745 -81.0196 434.745 -77.1315C434.745 -72.3049 434.745 -67.4734 434.745 -62.6369C434.745 -52.9738 434.745 -43.3157 434.745 -33.6625C434.745 -24.0094 434.745 -14.3512 434.745 -4.68817C434.745 0.138406 434.745 4.96995 434.745 9.80646V16.5398C434.509 18.4768 434.687 20.4417 435.266 22.3049C435.669 23.1987 438.097 22.3049 437.724 21.4558C436.816 19.4447 437.233 16.6888 437.233 14.5139C437.233 12.1006 437.233 9.68728 437.233 7.27399C437.233 2.78508 437.233 -1.68398 437.233 -6.13316C437.233 -15.4487 437.233 -24.7641 437.233 -34.0796C437.233 -43.3951 437.233 -52.7106 437.233 -62.0261C437.233 -66.515 437.233 -70.9841 437.233 -75.4332C437.233 -77.8465 437.233 -80.2598 437.233 -82.6731C436.971 -84.9653 437.205 -87.2869 437.918 -89.481C438.41 -90.5982 435.922 -90.196 435.564 -89.4065L435.579 -89.3469Z" fill="white"/>
<path d="M467.295 40.1205C465.194 41.0441 462.304 40.5674 460.04 40.5674H356.939C356.492 40.5674 357.728 42.5636 358.428 42.5636H463.645C465.471 42.7659 467.319 42.578 469.067 42.0124C469.44 41.8486 468.01 39.7928 467.295 40.1205Z" fill="white"/>
<path d="M355.703 169.722C357.274 170.273 358.947 170.471 360.604 170.303H466.371C467.861 170.303 468.293 168.412 466.58 168.412H364.968C362.6 168.412 359.352 168.963 357.163 167.994C356.075 167.518 354.183 169.067 355.673 169.722H355.703Z" fill="white"/>
<path d="M827.142 221.535C825.43 221.127 823.661 221.021 821.913 221.222H729.552C725.605 221.222 720.614 220.373 716.964 222.042C715.475 222.697 717.248 224.321 718.335 223.829C720.529 223.115 722.85 222.876 725.143 223.129H819.604C821.689 223.129 824.684 222.593 826.62 223.293C828.11 223.844 828.676 222.072 827.171 221.52L827.142 221.535Z" fill="white"/>
<path d="M465.688 47.5696C463.632 48.4783 460.072 47.8974 457.852 47.8974H357.254C356.538 47.8974 355.272 49.1934 355.108 49.1934H453.621C457.152 49.1934 461.412 49.9829 464.704 48.523C465.166 48.3145 467.133 46.8993 465.673 47.5547L465.688 47.5696Z" fill="white"/>
<path d="M464.359 161.514C462.656 161.084 460.889 160.968 459.145 161.172C456.732 161.172 454.318 161.172 451.905 161.172H355.701C354.212 161.172 354.078 162.483 355.701 162.483H456.002C458.028 162.483 461.111 161.917 463.018 162.602C463.927 162.93 465.997 162.095 464.374 161.514H464.359Z" fill="white"/>
<path d="M460.621 56.2998H353.856C352.366 56.2998 353.17 58.7876 354.511 58.7876H461.217C462.707 58.7876 461.902 56.2998 460.562 56.2998H460.621Z" fill="white"/>
<path d="M458.669 65.4458C456.762 66.131 453.619 65.5948 451.593 65.5948H353.274C352.306 65.5948 350.637 67.4122 352.142 67.4122H453.589C455.318 67.6105 457.067 67.5046 458.759 67.0993C459.995 66.6524 460.323 64.8648 458.759 65.4607L458.669 65.4458Z" fill="white"/>
<path d="M460.053 152.189C451.338 151.667 442.49 152.07 433.745 152.07H354.032C352.543 152.07 353.779 154.081 354.837 154.081H434.535C443.264 154.081 452.113 153.679 460.843 154.2C462.332 154.289 461.081 152.248 460.038 152.189H460.053Z" fill="white"/>
<path d="M457.625 143.162H352.364C350.874 143.162 351.768 145.531 353.019 145.531H458.236C459.725 145.531 458.831 143.162 457.58 143.162H457.625Z" fill="white"/>
<path d="M456.599 135.207H358.28C356.492 135.207 353.96 135.639 352.247 135.014C351.561 134.76 350.101 135.386 349.759 135.252C350.72 135.56 351.735 135.662 352.738 135.55C355.047 135.55 357.341 135.55 359.65 135.55H455.258C455.72 135.55 458.133 135.222 456.554 135.222L456.599 135.207Z" fill="white"/>
<path d="M851.067 106.875H746.044C746.357 106.875 746.908 108.99 747.534 108.99H852.541C852.229 108.99 851.677 106.875 851.052 106.875H851.067Z" fill="white"/>
<path d="M456.448 74.3828C447.927 74.8892 439.301 74.5019 430.765 74.5019H351.931C350.367 74.5019 350.367 75.9171 351.931 75.9171H430.259C438.959 75.9171 447.763 76.3044 456.463 75.7979C457.952 75.7086 458.042 74.3083 456.463 74.3828H456.448Z" fill="white"/>
<path d="M454.468 82.8899H350.19C348.879 82.8899 350.19 85.0499 351.173 85.0499H455.451C456.762 85.0499 455.451 82.8899 454.468 82.8899Z" fill="white"/>
<path d="M851.26 100.2H746.982C745.329 100.2 747.414 101.198 748.099 101.198H852.377C854.031 101.198 851.945 100.2 851.26 100.2Z" fill="white"/>
<path d="M453.769 100.915H349.491C347.912 100.915 347.882 102.405 349.491 102.405H453.769C455.348 102.405 455.378 100.915 453.769 100.915Z" fill="white"/>
<path d="M453.515 108.08H349.252C347.688 108.08 347.524 109.748 349.133 109.748H453.411C454.975 109.748 455.139 108.08 453.53 108.08H453.515Z" fill="white"/>
<path d="M454.706 117.421C452.995 116.983 451.219 116.857 449.463 117.048H350.011C348.298 117.048 348.998 118.762 350.384 118.762H446.722C448.673 118.762 451.876 118.195 453.723 118.866C455.004 119.328 456.33 118.002 454.706 117.376V117.421Z" fill="white"/>
<path d="M454.544 92.468H350.772C350.087 92.468 347.972 93.4363 349.625 93.4363H453.382C454.067 93.4363 456.182 92.468 454.529 92.468H454.544Z" fill="white"/>
<path d="M851.082 91.604C847.76 90.1143 843.112 90.9039 839.522 90.9039H751.005C749.554 90.7672 748.091 90.966 746.73 91.4848C745.612 92.0062 747.355 93.913 748.353 93.4363C750.275 92.5425 753.165 93.0043 755.236 93.0043H844.274C846.062 93.0043 848.862 92.5127 850.56 93.3023C852.259 94.0918 852.363 92.1999 851.082 91.604Z" fill="white"/>
<path d="M453.767 125.569H350.442C349.265 125.569 350.621 127.684 351.44 127.684H454.705C455.882 127.684 454.526 125.569 453.707 125.569H453.767Z" fill="white"/>
<path d="M850.248 116.094H748.487C747.117 116.094 746.402 117.807 748.13 117.807H849.905C851.275 117.807 851.99 116.094 850.262 116.094H850.248Z" fill="white"/>
<path d="M426.789 -81.3179C425.3 -77.8767 426.03 -73.3778 426.03 -69.7132C426.03 -65.6017 426.03 -61.4852 426.03 -57.3637C426.03 -48.6243 426.03 -39.8798 426.03 -31.1304C426.03 -22.5598 426.03 -13.9891 426.03 -5.41847C426.03 -1.12818 426.03 3.15714 426.03 7.43749C426.03 10.8191 425.21 15.2285 426.864 18.3122C427.221 18.9825 429.709 19.4294 429.188 18.4611C428.509 16.7552 428.273 14.9051 428.503 13.0834C428.503 11.0276 428.503 8.97187 428.503 6.91611C428.503 2.80458 428.503 -1.31191 428.503 -5.43337C428.463 -13.7955 428.443 -22.1973 428.443 -30.6388C428.443 -38.8718 428.443 -47.0998 428.443 -55.3229C428.443 -59.4344 428.443 -63.5509 428.443 -67.6724C428.443 -71.6498 427.579 -76.7892 429.188 -80.4985C429.501 -81.2285 427.072 -82.1223 426.73 -81.3327L426.789 -81.3179Z" fill="white"/>
<path d="M825.416 213.461C821.9 212.492 818.071 212.88 814.451 212.88H735.498C732.206 212.88 728.914 212.582 725.83 213.923C724.341 214.593 726.605 214.742 727.32 214.444C729.405 213.535 732.206 213.967 734.441 213.967H810.236C814.407 213.967 819.293 213.297 823.33 214.414C823.956 214.593 826.205 213.684 825.416 213.461V213.461Z" fill="white"/>
<path d="M846.762 124.393C845.376 125.331 842.844 124.84 841.25 124.84H753.612C753.046 124.84 751.228 125.182 750.737 124.84C749.5 124.006 749.098 124.542 750.364 125.391C752.703 126.97 755.444 126.389 758.17 126.389H844.244C845.734 126.389 847.566 126.747 848.907 125.853C849.071 125.734 847.417 123.991 846.762 124.363V124.393Z" fill="white"/>
<path d="M847.522 82.5488C845.997 82.1188 844.404 81.9873 842.83 82.1615C840.595 82.1615 838.361 82.1615 836.141 82.1615H760.003C756.696 82.1615 752.748 81.4911 749.65 82.8616C748.25 83.4724 750.469 84.545 751.423 84.1279C753.24 83.3234 755.892 83.8299 757.858 83.8299H840.178C841.832 83.8299 844.543 83.3383 846.137 83.9193C847.224 84.3066 849.116 83.1298 847.522 82.5488V82.5488Z" fill="white"/>
<path d="M818.844 204.523C816.088 203.51 813.004 203.897 810.114 203.897H742.616C739.384 203.897 736.092 203.51 733.038 204.746C732.338 205.029 734.319 206.489 735.123 206.236C738.475 204.88 742.87 205.565 746.445 205.565H812.915C814.909 205.361 816.923 205.492 818.873 205.953C820.527 206.563 819.916 204.999 818.784 204.582L818.844 204.523Z" fill="white"/>
<path d="M418.417 -72.7379C417.211 -69.6543 417.598 -66.3174 417.598 -63.055C417.598 -59.2811 417.598 -55.5023 417.598 -51.7185C417.598 -43.992 417.598 -36.2655 417.598 -28.539C417.598 -20.9813 417.598 -13.4286 417.598 -5.88092C417.598 -2.10705 417.598 1.67178 417.598 5.45558C417.598 7.64541 416.913 10.6546 418.239 12.5614C419.237 14.051 420.041 12.3379 419.281 11.2355C419.669 11.8016 419.386 11.2355 419.445 10.6844C419.535 9.83524 419.445 8.95633 419.445 8.10721C419.445 6.38911 419.445 4.67101 419.445 2.95291C419.445 -0.652125 419.445 -4.25716 419.445 -7.8622C419.445 -14.9034 419.445 -21.9447 419.445 -28.9859C419.445 -35.8583 419.445 -42.7258 419.445 -49.5882C419.445 -53.1933 419.445 -56.7983 419.445 -60.4033C419.445 -63.8743 418.864 -67.8518 420.16 -71.1142C420.518 -72.0378 418.909 -73.9893 418.417 -72.7379V-72.7379Z" fill="white"/>
<path d="M434.403 23.987C428.558 23.2072 422.656 22.943 416.765 23.1974C410.092 23.1974 403.358 23.1974 396.759 23.1974H366.965C364.881 22.9826 362.775 23.2319 360.798 23.9274C360.172 24.2104 362.481 24.568 363.047 24.3147C364.328 23.9656 365.664 23.8744 366.98 24.0466H414.769C420.892 24.0466 427.059 23.689 433.122 24.7467C433.807 24.8659 436.101 24.27 434.418 23.987H434.403Z" fill="white"/>
<path d="M811.067 195.407C806.166 193.828 800.52 194.558 795.44 194.558H750.005C747.264 194.558 744.478 194.304 741.886 195.377C740.605 195.913 742.094 198.029 743.256 197.537C745.774 196.479 748.694 196.852 751.36 196.852H801.443C804.542 196.852 807.76 196.554 810.754 197.522C812.363 198.043 812.363 195.809 811.067 195.392V195.407Z" fill="white"/>
<path d="M409.078 -61.7444C407.32 -57.2754 408.228 -51.5848 408.228 -46.8476C408.228 -40.9882 408.228 -35.1337 408.228 -29.2842C408.228 -23.6035 408.228 -17.9179 408.228 -12.2273C408.228 -9.29762 408.228 -6.36791 408.228 -3.43819C407.994 -0.805678 408.282 1.84723 409.078 4.36774C409.539 5.5148 412.057 4.75506 411.461 3.44414C410.389 0.807396 410.776 -2.18687 410.791 -4.95768C410.806 -7.72849 410.791 -10.4695 410.791 -13.2254C410.791 -18.3897 410.791 -23.5589 410.791 -28.733C410.791 -33.9072 410.791 -39.0764 410.791 -44.2406C410.791 -46.9916 410.791 -49.7475 410.791 -52.5084C410.791 -55.3537 410.389 -58.4671 411.446 -61.1485C411.997 -62.5488 409.524 -62.9213 409.078 -61.7593V-61.7444Z" fill="white"/>
<path d="M644.031 366.124C622.997 367.182 602.007 366.944 580.973 366.124C579.885 366.124 578.336 367.986 579.885 368.046C601.128 368.88 622.297 369.119 643.54 368.046C644.761 368.046 645.729 366.035 644.031 366.124Z" fill="white"/>
<path d="M417.466 14.9445C413.503 13.4549 409.332 13.8273 405.161 13.8422H375.71C372.075 13.8422 367.308 12.9633 363.971 14.7658C362.854 15.3617 364.82 17.045 365.848 16.4938C367.621 15.5404 370.005 15.8979 371.941 15.8979H403.463C407.932 15.8979 412.907 15.2127 417.123 16.7917C418.717 17.3876 418.807 15.4361 417.466 14.9296V14.9445Z" fill="white"/>
<path d="M408.213 5.69336C405.129 4.44203 401.614 4.90384 398.351 4.91873H376.93C374.114 4.91873 370.45 4.24837 367.828 5.48481C366.755 5.9913 367.828 8.3301 368.975 7.82361C370.443 7.34252 371.999 7.18995 373.533 7.3767H398.024C401.39 7.3767 405.249 6.82553 408.451 8.10665C409.718 8.62804 409.271 6.11047 408.258 5.69336H408.213Z" fill="white"/>
<path d="M477.158 22.245C475.49 22.9898 473.672 22.528 471.899 22.6472C470.127 22.7664 467.996 23.2729 466.015 23.3921C464.377 23.4963 464.734 25.5223 466.343 25.418C468.726 25.2691 471.02 24.6434 473.419 24.6881C475.024 24.8593 476.647 24.6501 478.156 24.0773C479.646 23.3772 478.543 21.6044 477.158 22.2301V22.245Z" fill="white"/>
</g>
</g>
</svg>
