<svg width="1440" height="220" viewBox="0 0 1440 220" fill="none" xmlns="http://www.w3.org/2000/svg">
<rect width="1440" height="220" fill="#138175"/>
<g opacity="0.05">
<mask id="mask0" mask-type="alpha" maskUnits="userSpaceOnUse" x="0" y="0" width="1440" height="220">
<rect width="1440" height="220" fill="white"/>
</mask>
<g mask="url(#mask0)">
<path d="M433.216 645.865C381.647 645.913 330.903 632.924 285.699 608.106C240.495 583.288 202.298 547.446 174.657 503.91C147.017 460.374 130.83 410.558 127.6 359.09C124.371 307.623 134.204 256.174 156.186 209.525C178.168 162.875 211.586 122.54 253.333 92.266C295.08 61.9922 343.803 42.7626 394.974 36.3641C446.144 29.9656 498.101 36.606 546.018 55.668C593.934 74.73 636.255 105.595 669.047 145.395C674.239 151.597 678.153 158.764 680.564 166.484C682.975 174.205 683.835 182.325 683.095 190.379C682.356 198.434 680.03 206.262 676.253 213.414C672.476 220.566 667.323 226.9 661.088 232.052C654.854 237.204 647.661 241.073 639.926 243.435C632.191 245.797 624.065 246.606 616.015 245.815C607.966 245.024 600.153 242.649 593.025 238.827C585.897 235.004 579.596 229.81 574.483 223.543C550.384 194.272 517.8 173.196 481.221 163.218C444.642 153.241 405.869 154.854 370.245 167.834C334.621 180.815 303.9 204.524 282.315 235.695C260.729 266.866 249.342 303.964 249.723 341.878C250.104 379.791 262.234 416.653 284.441 447.384C306.649 478.115 337.84 501.202 373.718 513.464C409.596 525.726 448.393 526.56 484.764 515.849C521.135 505.139 553.289 483.412 576.795 453.663C586.898 440.909 601.653 432.689 617.816 430.814C633.978 428.939 650.223 433.561 662.978 443.663C675.732 453.766 683.951 468.521 685.826 484.683C687.702 500.846 683.08 517.091 672.977 529.845C644.42 566.105 607.99 595.394 566.444 615.498C524.898 635.602 479.324 645.994 433.17 645.888L433.216 645.865Z" fill="white"/>
<path d="M670.227 145.372C641.524 110.571 605.481 82.548 564.677 63.3104C523.874 44.0727 479.322 34.0967 434.211 34.0967C389.101 34.0967 344.548 44.0727 303.745 63.3104C262.942 82.548 226.898 110.571 198.196 145.372C187.836 157.915 182.883 174.06 184.426 190.255C185.97 206.45 193.884 221.368 206.427 231.728C218.97 242.088 235.114 247.041 251.309 245.497C267.504 243.954 282.422 236.04 292.782 223.497C313.832 197.925 341.435 178.553 372.641 167.452V339.193C372.483 347.347 373.952 355.45 376.963 363.029C379.974 370.609 384.466 377.511 390.176 383.334C395.887 389.156 402.701 393.781 410.22 396.939C417.74 400.096 425.813 401.723 433.968 401.723C442.124 401.723 450.197 400.096 457.717 396.939C465.236 393.781 472.05 389.156 477.761 383.334C483.471 377.511 487.963 370.609 490.974 363.029C493.985 355.45 495.454 347.347 495.296 339.193V167.476C526.584 178.543 554.27 197.917 575.386 223.52C580.517 229.731 586.822 234.87 593.939 238.644C601.056 242.418 608.848 244.754 616.867 245.517C624.887 246.28 632.979 245.456 640.681 243.092C648.382 240.729 655.543 236.871 661.753 231.74C667.964 226.608 673.103 220.304 676.877 213.187C680.652 206.069 682.987 198.278 683.75 190.258C684.514 182.238 683.69 174.146 681.326 166.445C678.962 158.743 675.104 151.583 669.973 145.372H670.227Z" fill="white"/>
<path d="M1132.22 253.865C1080.65 253.913 1029.9 240.924 984.699 216.106C939.495 191.288 901.298 155.446 873.657 111.91C846.017 68.3743 829.83 18.558 826.6 -32.9097C823.371 -84.3773 833.204 -135.826 855.186 -182.475C877.168 -229.125 910.586 -269.46 952.333 -299.734C994.08 -330.008 1042.8 -349.237 1093.97 -355.636C1145.14 -362.034 1197.1 -355.394 1245.02 -336.332C1292.93 -317.27 1335.25 -286.405 1368.05 -246.605C1373.24 -240.403 1377.15 -233.236 1379.56 -225.516C1381.97 -217.795 1382.83 -209.675 1382.1 -201.621C1381.36 -193.566 1379.03 -185.738 1375.25 -178.586C1371.48 -171.434 1366.32 -165.1 1360.09 -159.948C1353.85 -154.796 1346.66 -150.927 1338.93 -148.565C1331.19 -146.203 1323.06 -145.394 1315.02 -146.185C1306.97 -146.976 1299.15 -149.351 1292.03 -153.173C1284.9 -156.996 1278.6 -162.19 1273.48 -168.457C1249.38 -197.728 1216.8 -218.804 1180.22 -228.782C1143.64 -238.759 1104.87 -237.146 1069.25 -224.166C1033.62 -211.185 1002.9 -187.476 981.315 -156.305C959.729 -125.134 948.342 -88.0356 948.723 -50.1224C949.104 -12.2091 961.234 24.6529 983.441 55.3839C1005.65 86.1149 1036.84 109.202 1072.72 121.464C1108.6 133.726 1147.39 134.56 1183.76 123.849C1220.13 113.139 1252.29 91.4122 1275.8 61.6631C1285.9 48.9085 1300.65 40.6895 1316.82 38.8142C1332.98 36.9389 1349.22 41.5609 1361.98 51.6633C1374.73 61.7658 1382.95 76.5211 1384.83 92.6834C1386.7 108.846 1382.08 125.091 1371.98 137.845C1343.42 174.105 1306.99 203.394 1265.44 223.498C1223.9 243.602 1178.32 253.994 1132.17 253.888L1132.22 253.865Z" fill="white"/>
<path d="M1369.23 -246.628C1340.52 -281.429 1304.48 -309.452 1263.68 -328.69C1222.87 -347.927 1178.32 -357.903 1133.21 -357.903C1088.1 -357.903 1043.55 -347.927 1002.75 -328.69C961.942 -309.452 925.898 -281.429 897.196 -246.628C886.836 -234.085 881.883 -217.94 883.426 -201.745C884.97 -185.55 892.884 -170.632 905.427 -160.272C917.97 -149.912 934.114 -144.959 950.309 -146.503C966.504 -148.046 981.422 -155.96 991.782 -168.503C1012.83 -194.075 1040.44 -213.447 1071.64 -224.548V-52.8073C1071.48 -44.6534 1072.95 -36.5498 1075.96 -28.9706C1078.97 -21.3914 1083.47 -14.4886 1089.18 -8.66623C1094.89 -2.84378 1101.7 1.78143 1109.22 4.9389C1116.74 8.09634 1124.81 9.72269 1132.97 9.72269C1141.12 9.72269 1149.2 8.09634 1156.72 4.9389C1164.24 1.78143 1171.05 -2.84378 1176.76 -8.66623C1182.47 -14.4886 1186.96 -21.3914 1189.97 -28.9706C1192.99 -36.5498 1194.45 -44.6534 1194.3 -52.8073V-224.524C1225.58 -213.457 1253.27 -194.083 1274.39 -168.48C1279.52 -162.269 1285.82 -157.13 1292.94 -153.356C1300.06 -149.582 1307.85 -147.246 1315.87 -146.483C1323.89 -145.72 1331.98 -146.544 1339.68 -148.908C1347.38 -151.271 1354.54 -155.129 1360.75 -160.26C1366.96 -165.392 1372.1 -171.696 1375.88 -178.813C1379.65 -185.931 1381.99 -193.722 1382.75 -201.742C1383.51 -209.762 1382.69 -217.854 1380.33 -225.555C1377.96 -233.257 1374.1 -240.417 1368.97 -246.628H1369.23Z" fill="white"/>
<path d="M1350.06 10.0114C1362.31 10.0114 1374.29 6.37868 1384.47 -0.427406C1394.66 -7.23348 1402.6 -16.9072 1407.28 -28.2253C1411.97 -39.5434 1413.2 -51.9976 1410.81 -64.0128C1408.42 -76.028 1402.52 -87.0647 1393.86 -95.7272C1385.2 -104.39 1374.16 -110.289 1362.14 -112.679C1350.13 -115.069 1337.67 -113.842 1326.36 -109.154C1315.04 -104.466 1305.36 -96.527 1298.56 -86.341C1291.75 -76.155 1288.12 -64.1795 1288.12 -51.9289C1288.12 -35.5013 1294.64 -19.7466 1306.26 -8.1305C1317.88 3.48554 1333.63 10.0114 1350.06 10.0114Z" fill="white"/>
<path d="M749.509 53.824C752.071 54.9413 754.768 54.7328 757.509 54.7328H1160.78C1163.76 54.7328 1167.53 55.3733 1170.26 53.8836C1171.46 53.2282 1169.42 51.7534 1168.51 52.245C1165.79 53.7347 1161.06 52.9154 1158.08 52.9154H756.853C754.648 52.9154 752.235 53.2133 750.15 52.3194C748.66 51.6789 748.049 53.1835 749.509 53.8091V53.824Z" fill="white"/>
<path d="M1161.97 60.8851C1159.17 62.1364 1155.78 61.6448 1152.78 61.6448H767.507C764.021 61.6448 759.299 62.4195 756.036 61.1383C756.349 61.2575 757.064 62.628 757.749 62.9707C760.177 63.9241 763.172 63.4772 765.719 63.4772H1153.07C1156.51 63.4772 1160.62 64.1475 1163.82 62.7174C1163.82 62.7174 1162.45 60.6765 1161.97 60.8851Z" fill="white"/>
<path d="M763.275 71.5237C765.748 72.6112 768.519 72.2834 771.171 72.2834H1147.55C1150.07 72.5146 1152.61 72.2047 1155 71.3747C1155.55 71.1364 1157.3 69.5275 1155.81 70.183C1152.83 71.4939 1148.66 70.8086 1145.38 70.8086H775.282C772.065 70.8086 768.34 71.3598 765.316 70.0489C764.735 69.7957 762.933 71.3747 763.275 71.5386V71.5237Z" fill="white"/>
<path d="M771.827 79.0148C774.225 80.0575 776.788 79.8192 779.276 79.8192H1140.23C1143.21 79.8192 1146.45 80.2512 1149.25 79.0297C1149.64 78.8658 1148.3 76.7206 1147.61 77.0186C1144.78 78.2401 1141.31 77.7485 1138.3 77.7485H781.57C778.158 77.7485 773.913 78.404 770.74 77.0335C770.069 76.7505 771.246 78.7913 771.827 79.0445V79.0148Z" fill="white"/>
<path d="M778.514 86.8368C782.715 88.5052 787.839 87.7157 792.249 87.7157H1124.19C1129.78 87.7157 1135.44 88.2371 1140.88 86.807C1141.94 86.524 1139.39 86.4495 1139.02 86.5687C1136.08 87.1638 1133.07 87.3741 1130.08 87.1943H793.425C789.612 87.1943 784.487 87.969 781.001 86.5538C780.316 86.2856 778.663 86.8964 778.514 86.8368Z" fill="white"/>
<path d="M789.732 96.4015C793.962 98.2636 799.489 97.3251 804.003 97.3251H1123.3C1125.65 97.5427 1128.01 97.2584 1130.24 96.4909C1131.73 95.8652 1129.66 94.5543 1128.75 95.0012C1126.21 96.1185 1123.15 95.6864 1120.43 95.6864H800.562C797.582 95.6864 793.605 96.327 790.76 95.0757C789.523 94.5394 788.153 95.746 789.747 96.4313L789.732 96.4015Z" fill="white"/>
<path d="M801.022 105.264C805.387 106.679 810.154 106.172 814.682 106.172H1103.87C1108.91 106.172 1114.62 106.932 1119.47 105.353C1120.45 105.04 1118.27 103.863 1117.55 104.057C1112.62 105.651 1106.56 104.772 1101.42 104.772H811.182C807.979 104.772 804.493 105.144 801.409 104.146C799.92 103.67 799.547 104.772 801.022 105.249V105.264Z" fill="white"/>
<path d="M811.975 113.517C816.116 114.872 820.51 114.545 824.801 114.545H1095.92C1099.75 114.707 1103.57 114.244 1107.24 113.174C1108.73 112.668 1106.34 113.07 1105.9 113.174C1102.98 113.867 1099.96 114.093 1096.97 113.844H830.074C824.92 113.844 819.363 114.47 814.403 112.831C813.732 112.608 812.243 113.576 811.99 113.487L811.975 113.517Z" fill="white"/>
<path d="M827.821 122.693C831.238 123.481 834.75 123.772 838.249 123.557H1080.14C1084.61 123.557 1089.25 124.048 1093.55 122.797C1094.39 122.558 1092.24 121.382 1091.61 121.575C1087.64 122.737 1083.3 122.305 1079.21 122.305H842.524C837.683 122.305 832.097 123.02 827.479 121.635C825.766 121.128 826.793 122.395 827.806 122.693H827.821Z" fill="white"/>
<path d="M1075.15 130.528C1071.29 131.496 1067.15 131.184 1063.24 131.184H858.538C854.069 131.184 849.302 131.616 844.952 130.513C844.118 130.305 841.883 131.407 843.284 131.765C850.136 133.493 857.778 132.614 864.795 132.614H1064.8C1068.57 132.794 1072.34 132.504 1076.03 131.75C1077.73 131.318 1076.36 130.26 1075.15 130.513V130.528Z" fill="white"/>
<path d="M1059.04 137.814C1052.48 139.185 1045.63 138.782 1039.02 138.782H883.94C876.223 138.782 868.06 139.527 860.477 137.874C859.539 137.665 857.945 138.008 859.702 138.395C865.661 139.706 871.799 139.527 877.891 139.527H1040.76C1047.58 139.527 1054.51 139.87 1061.23 138.47C1061.75 138.365 1059.62 137.71 1059.05 137.829L1059.04 137.814Z" fill="white"/>
<path d="M743.135 45.4679C744.809 46.1724 746.626 46.4735 748.438 46.3468H894.74C901.175 46.3468 907.655 45.9594 914.016 47.0767C915.506 47.3299 915.089 44.8422 913.897 44.6336C908.995 43.9224 904.039 43.663 899.089 43.859C893.444 43.859 887.813 43.859 882.167 43.859H753.503C750.523 43.859 746.337 44.5591 743.537 43.2035C742.047 42.5034 742.047 44.9167 743.135 45.4529V45.4679Z" fill="white"/>
<path d="M1171.95 43.9936C1169.73 44.798 1166.64 44.232 1164.28 44.232H1022.24C1016.41 43.9693 1010.57 44.2185 1004.78 44.9768C1004.53 44.9768 1005.96 46.7942 1006.63 46.6751C1011.77 45.9572 1016.97 45.7079 1022.15 45.9302C1027.63 45.9302 1033.12 45.9302 1038.54 45.9302H1164.46C1167.22 45.9302 1171.1 46.6304 1173.7 45.6919C1174.05 45.5578 1172.43 43.785 1171.85 43.9936H1171.95Z" fill="white"/>
<path d="M736.983 36.0679C740.543 37.7811 745.042 37.0511 748.901 37.0511H872.783C878.741 37.0511 885.236 36.2765 890.987 37.7215C892.655 38.1386 892.476 36.3807 891.091 36.0381C886.912 35.2306 882.648 34.9453 878.399 35.189H747.307C744.461 35.189 740.38 35.904 737.773 34.6527C736.283 33.9675 735.583 35.3678 737.028 36.053L736.983 36.0679Z" fill="white"/>
<path d="M1034.16 146.186C1024.68 147.765 1014.69 146.931 1005.11 146.931H917.219C906.508 146.931 895.38 147.795 884.774 146.186C883.105 145.933 884.193 147.869 885.34 148.048C894.799 149.538 904.706 148.793 914.165 148.793H1003.07C1008.7 148.793 1014.33 148.793 1019.98 148.793C1025.1 148.983 1030.23 148.729 1035.31 148.033C1036.8 147.78 1035.2 146.007 1034.16 146.186Z" fill="white"/>
<path d="M1175.48 34.6958C1173.37 35.6343 1170.45 35.1725 1168.19 35.1725H1043.65C1038.46 35.1725 1032.97 34.6511 1027.9 35.9322C1027.53 36.0216 1028.93 38.0178 1029.5 37.8689C1033.96 36.7516 1038.63 37.1091 1043.17 37.1091H1170.3C1172.55 37.1091 1175.17 37.5113 1177.27 36.5877C1177.47 36.4983 1176.11 34.4277 1175.5 34.6958H1175.48Z" fill="white"/>
<path d="M731.755 27.6804C734.869 29.3489 739.204 28.5444 742.66 28.5444H865.544C868.539 28.3301 871.55 28.5509 874.482 29.1999C875.972 29.6319 877.238 27.5761 875.629 27.0994C871.801 25.9673 867.808 26.2354 863.846 26.2354H740.947C738.429 26.2354 735.211 26.8015 732.932 25.58C732.794 25.5047 732.643 25.4573 732.487 25.4405C732.33 25.4237 732.172 25.4377 732.022 25.482C731.871 25.5263 731.73 25.5998 731.608 25.6984C731.486 25.797 731.384 25.9188 731.309 26.0567C731.233 26.1946 731.186 26.346 731.169 26.5022C731.152 26.6585 731.166 26.8165 731.211 26.9673C731.255 27.1181 731.328 27.2586 731.427 27.381C731.526 27.5034 731.647 27.6051 731.785 27.6804H731.755Z" fill="white"/>
<path d="M862.665 18.3105C859.239 16.8208 854.799 17.4912 851.12 17.4912H736.414C734.09 17.4912 730.679 18.1168 728.489 17.3124C726.999 16.7612 727.089 19.1894 728.31 19.6214C729.899 20.0043 731.543 20.1051 733.167 19.9193H855.172C857.615 19.9193 860.237 19.5916 862.516 20.6195C864.006 21.275 863.857 18.8319 862.695 18.3105H862.665Z" fill="white"/>
<path d="M1176.69 26.2035H1056.7C1052.35 26.2035 1047.89 25.8609 1043.71 27.2463C1042.22 27.7379 1043.38 29.9576 1044.63 29.5405C1049.7 27.872 1055.42 28.5423 1060.68 28.5423H1177.04C1178.67 28.5423 1178.06 26.2035 1176.69 26.2035Z" fill="white"/>
<path d="M853.416 11.0107C848.813 9.52097 843.509 10.2062 838.727 10.2062H728.118C726.628 10.3866 725.118 10.3211 723.649 10.0125C723.143 9.83378 724.484 11.6214 725.005 11.8151C727.046 12.5599 729.623 12.0981 731.783 12.0981H838.31C843.554 12.0981 849.736 11.1894 854.771 12.8132C855.293 12.977 853.952 11.1745 853.416 11.0107Z" fill="white"/>
<path d="M844.477 2.14758C842.647 1.46473 840.691 1.18033 838.742 1.31336H752.609C741.868 1.31336 730.964 1.83474 720.238 1.19418C718.957 1.1197 720.074 3.38402 720.983 3.42871C730.829 4.00968 740.81 3.54788 750.672 3.54788H835.778C838.757 3.54788 842.019 3.0414 844.716 4.23315C846.086 4.82902 845.282 2.52 844.448 2.14758H844.477Z" fill="white"/>
<path d="M1175.87 18.0432H1068.9C1064.59 18.0432 1059.96 17.5218 1055.8 18.8625C1054.46 19.2945 1056.77 20.2032 1057.49 19.9648C1062.21 18.4751 1068.11 19.2647 1073.04 19.2647H1176.38C1178.14 19.2647 1177.06 18.0283 1175.87 18.0283V18.0432Z" fill="white"/>
<path d="M1175.14 10.5357C1173.43 10.1277 1171.66 10.0219 1169.91 10.2229H1077.55C1073.6 10.2229 1068.61 9.37376 1064.96 11.0422C1063.47 11.6977 1065.25 13.3214 1066.34 12.8298C1068.53 12.115 1070.85 11.8763 1073.14 12.1297H1167.6C1169.69 12.1297 1172.68 11.5934 1174.62 12.2936C1176.11 12.8447 1176.68 11.072 1175.17 10.5208L1175.14 10.5357Z" fill="white"/>
<path d="M1173.42 2.46119C1169.9 1.4929 1166.07 1.88022 1162.45 1.88022H1083.5C1080.21 1.88022 1076.91 1.58228 1073.83 2.92299C1072.34 3.59335 1074.6 3.74233 1075.32 3.44439C1077.41 2.53568 1080.21 2.96768 1082.44 2.96768H1158.24C1162.41 2.96768 1167.29 2.29733 1171.33 3.41459C1171.96 3.59335 1174.21 2.68465 1173.42 2.46119Z" fill="white"/>
<path d="M992.031 155.124C970.997 156.182 950.007 155.943 928.973 155.124C927.885 155.124 926.336 156.986 927.885 157.046C949.128 157.88 970.297 158.118 991.54 157.046C992.761 157.046 993.729 155.035 992.031 155.124Z" fill="white"/>
<mask id="mask1" mask-type="alpha" maskUnits="userSpaceOnUse" x="1252" y="-180" width="349" height="349">
<circle cx="1426.5" cy="-5.5" r="174.5" fill="white"/>
</mask>
<g mask="url(#mask1)">
<path d="M1430.91 164.193C1431.74 164.193 1432.41 163.52 1432.41 162.689C1432.41 161.859 1431.74 161.186 1430.91 161.186C1430.08 161.186 1429.4 161.859 1429.4 162.689C1429.4 163.52 1430.08 164.193 1430.91 164.193Z" fill="white"/>
<path d="M1414.07 164.193C1414.9 164.193 1415.57 163.52 1415.57 162.689C1415.57 161.859 1414.9 161.186 1414.07 161.186C1413.23 161.186 1412.56 161.859 1412.56 162.689C1412.56 163.52 1413.23 164.193 1414.07 164.193Z" fill="white"/>
<path d="M1397.23 164.193C1398.06 164.193 1398.73 163.52 1398.73 162.689C1398.73 161.859 1398.06 161.186 1397.23 161.186C1396.39 161.186 1395.72 161.859 1395.72 162.689C1395.72 163.52 1396.39 164.193 1397.23 164.193Z" fill="white"/>
<path d="M1380.38 164.193C1381.21 164.193 1381.89 163.52 1381.89 162.689C1381.89 161.859 1381.21 161.186 1380.38 161.186C1379.55 161.186 1378.88 161.859 1378.88 162.689C1378.88 163.52 1379.55 164.193 1380.38 164.193Z" fill="white"/>
<path d="M1363.54 164.193C1364.38 164.193 1365.05 163.52 1365.05 162.689C1365.05 161.859 1364.38 161.186 1363.54 161.186C1362.71 161.186 1362.04 161.859 1362.04 162.689C1362.04 163.52 1362.71 164.193 1363.54 164.193Z" fill="white"/>
<path d="M1346.7 164.193C1347.53 164.193 1348.21 163.52 1348.21 162.689C1348.21 161.859 1347.53 161.186 1346.7 161.186C1345.87 161.186 1345.2 161.859 1345.2 162.689C1345.2 163.52 1345.87 164.193 1346.7 164.193Z" fill="white"/>
<path d="M1329.86 164.193C1330.69 164.193 1331.37 163.52 1331.37 162.689C1331.37 161.859 1330.69 161.186 1329.86 161.186C1329.03 161.186 1328.36 161.859 1328.36 162.689C1328.36 163.52 1329.03 164.193 1329.86 164.193Z" fill="white"/>
<path d="M1313.02 164.193C1313.85 164.193 1314.53 163.52 1314.53 162.689C1314.53 161.859 1313.85 161.186 1313.02 161.186C1312.19 161.186 1311.52 161.859 1311.52 162.689C1311.52 163.52 1312.19 164.193 1313.02 164.193Z" fill="white"/>
<path d="M1296.18 164.193C1297.01 164.193 1297.69 163.52 1297.69 162.689C1297.69 161.859 1297.01 161.186 1296.18 161.186C1295.35 161.186 1294.68 161.859 1294.68 162.689C1294.68 163.52 1295.35 164.193 1296.18 164.193Z" fill="white"/>
<path d="M1279.34 164.193C1280.17 164.193 1280.85 163.52 1280.85 162.689C1280.85 161.859 1280.17 161.186 1279.34 161.186C1278.51 161.186 1277.84 161.859 1277.84 162.689C1277.84 163.52 1278.51 164.193 1279.34 164.193Z" fill="white"/>
<path d="M1262.5 164.193C1263.33 164.193 1264.01 163.52 1264.01 162.689C1264.01 161.859 1263.33 161.186 1262.5 161.186C1261.67 161.186 1261 161.859 1261 162.689C1261 163.52 1261.67 164.193 1262.5 164.193Z" fill="white"/>
<path d="M1430.91 147.353C1431.74 147.353 1432.41 146.68 1432.41 145.849C1432.41 145.019 1431.74 144.346 1430.91 144.346C1430.08 144.346 1429.4 145.019 1429.4 145.849C1429.4 146.68 1430.08 147.353 1430.91 147.353Z" fill="white"/>
<path d="M1414.07 147.353C1414.9 147.353 1415.57 146.68 1415.57 145.849C1415.57 145.019 1414.9 144.346 1414.07 144.346C1413.23 144.346 1412.56 145.019 1412.56 145.849C1412.56 146.68 1413.23 147.353 1414.07 147.353Z" fill="white"/>
<path d="M1397.23 147.353C1398.06 147.353 1398.73 146.68 1398.73 145.849C1398.73 145.019 1398.06 144.346 1397.23 144.346C1396.39 144.346 1395.72 145.019 1395.72 145.849C1395.72 146.68 1396.39 147.353 1397.23 147.353Z" fill="white"/>
<path d="M1380.38 147.353C1381.21 147.353 1381.89 146.68 1381.89 145.849C1381.89 145.019 1381.21 144.346 1380.38 144.346C1379.55 144.346 1378.88 145.019 1378.88 145.849C1378.88 146.68 1379.55 147.353 1380.38 147.353Z" fill="white"/>
<path d="M1363.54 147.353C1364.38 147.353 1365.05 146.68 1365.05 145.849C1365.05 145.019 1364.38 144.346 1363.54 144.346C1362.71 144.346 1362.04 145.019 1362.04 145.849C1362.04 146.68 1362.71 147.353 1363.54 147.353Z" fill="white"/>
<path d="M1346.7 147.353C1347.53 147.353 1348.21 146.68 1348.21 145.849C1348.21 145.019 1347.53 144.346 1346.7 144.346C1345.87 144.346 1345.2 145.019 1345.2 145.849C1345.2 146.68 1345.87 147.353 1346.7 147.353Z" fill="white"/>
<path d="M1329.86 147.353C1330.69 147.353 1331.37 146.68 1331.37 145.849C1331.37 145.019 1330.69 144.346 1329.86 144.346C1329.03 144.346 1328.36 145.019 1328.36 145.849C1328.36 146.68 1329.03 147.353 1329.86 147.353Z" fill="white"/>
<path d="M1313.02 147.353C1313.85 147.353 1314.53 146.68 1314.53 145.849C1314.53 145.019 1313.85 144.346 1313.02 144.346C1312.19 144.346 1311.52 145.019 1311.52 145.849C1311.52 146.68 1312.19 147.353 1313.02 147.353Z" fill="white"/>
<path d="M1296.18 147.353C1297.01 147.353 1297.69 146.68 1297.69 145.849C1297.69 145.019 1297.01 144.346 1296.18 144.346C1295.35 144.346 1294.68 145.019 1294.68 145.849C1294.68 146.68 1295.35 147.353 1296.18 147.353Z" fill="white"/>
<path d="M1279.34 147.353C1280.17 147.353 1280.85 146.68 1280.85 145.849C1280.85 145.019 1280.17 144.346 1279.34 144.346C1278.51 144.346 1277.84 145.019 1277.84 145.849C1277.84 146.68 1278.51 147.353 1279.34 147.353Z" fill="white"/>
<path d="M1262.5 147.353C1263.33 147.353 1264.01 146.68 1264.01 145.849C1264.01 145.019 1263.33 144.346 1262.5 144.346C1261.67 144.346 1261 145.019 1261 145.849C1261 146.68 1261.67 147.353 1262.5 147.353Z" fill="white"/>
<path d="M1430.91 130.513C1431.74 130.513 1432.41 129.84 1432.41 129.009C1432.41 128.179 1431.74 127.506 1430.91 127.506C1430.08 127.506 1429.4 128.179 1429.4 129.009C1429.4 129.84 1430.08 130.513 1430.91 130.513Z" fill="white"/>
<path d="M1414.07 130.513C1414.9 130.513 1415.57 129.84 1415.57 129.009C1415.57 128.179 1414.9 127.506 1414.07 127.506C1413.23 127.506 1412.56 128.179 1412.56 129.009C1412.56 129.84 1413.23 130.513 1414.07 130.513Z" fill="white"/>
<path d="M1397.23 130.513C1398.06 130.513 1398.73 129.84 1398.73 129.009C1398.73 128.179 1398.06 127.506 1397.23 127.506C1396.39 127.506 1395.72 128.179 1395.72 129.009C1395.72 129.84 1396.39 130.513 1397.23 130.513Z" fill="white"/>
<path d="M1380.38 130.513C1381.21 130.513 1381.89 129.84 1381.89 129.009C1381.89 128.179 1381.21 127.506 1380.38 127.506C1379.55 127.506 1378.88 128.179 1378.88 129.009C1378.88 129.84 1379.55 130.513 1380.38 130.513Z" fill="white"/>
<path d="M1363.54 130.513C1364.38 130.513 1365.05 129.84 1365.05 129.009C1365.05 128.179 1364.38 127.506 1363.54 127.506C1362.71 127.506 1362.04 128.179 1362.04 129.009C1362.04 129.84 1362.71 130.513 1363.54 130.513Z" fill="white"/>
<path d="M1346.7 130.513C1347.53 130.513 1348.21 129.84 1348.21 129.009C1348.21 128.179 1347.53 127.506 1346.7 127.506C1345.87 127.506 1345.2 128.179 1345.2 129.009C1345.2 129.84 1345.87 130.513 1346.7 130.513Z" fill="white"/>
<path d="M1329.86 130.513C1330.69 130.513 1331.37 129.84 1331.37 129.009C1331.37 128.179 1330.69 127.506 1329.86 127.506C1329.03 127.506 1328.36 128.179 1328.36 129.009C1328.36 129.84 1329.03 130.513 1329.86 130.513Z" fill="white"/>
<path d="M1313.02 130.513C1313.85 130.513 1314.53 129.84 1314.53 129.009C1314.53 128.179 1313.85 127.506 1313.02 127.506C1312.19 127.506 1311.52 128.179 1311.52 129.009C1311.52 129.84 1312.19 130.513 1313.02 130.513Z" fill="white"/>
<path d="M1296.18 130.513C1297.01 130.513 1297.69 129.84 1297.69 129.009C1297.69 128.179 1297.01 127.506 1296.18 127.506C1295.35 127.506 1294.68 128.179 1294.68 129.009C1294.68 129.84 1295.35 130.513 1296.18 130.513Z" fill="white"/>
<path d="M1279.34 130.513C1280.17 130.513 1280.85 129.84 1280.85 129.009C1280.85 128.179 1280.17 127.506 1279.34 127.506C1278.51 127.506 1277.84 128.179 1277.84 129.009C1277.84 129.84 1278.51 130.513 1279.34 130.513Z" fill="white"/>
<path d="M1262.5 130.513C1263.33 130.513 1264.01 129.84 1264.01 129.009C1264.01 128.179 1263.33 127.506 1262.5 127.506C1261.67 127.506 1261 128.179 1261 129.009C1261 129.84 1261.67 130.513 1262.5 130.513Z" fill="white"/>
<path d="M1430.91 113.672C1431.74 113.672 1432.41 112.999 1432.41 112.169C1432.41 111.338 1431.74 110.665 1430.91 110.665C1430.08 110.665 1429.4 111.338 1429.4 112.169C1429.4 112.999 1430.08 113.672 1430.91 113.672Z" fill="white"/>
<path d="M1414.07 113.672C1414.9 113.672 1415.57 112.999 1415.57 112.169C1415.57 111.338 1414.9 110.665 1414.07 110.665C1413.23 110.665 1412.56 111.338 1412.56 112.169C1412.56 112.999 1413.23 113.672 1414.07 113.672Z" fill="white"/>
<path d="M1397.23 113.672C1398.06 113.672 1398.73 112.999 1398.73 112.169C1398.73 111.338 1398.06 110.665 1397.23 110.665C1396.39 110.665 1395.72 111.338 1395.72 112.169C1395.72 112.999 1396.39 113.672 1397.23 113.672Z" fill="white"/>
<path d="M1380.38 113.672C1381.21 113.672 1381.89 112.999 1381.89 112.169C1381.89 111.338 1381.21 110.665 1380.38 110.665C1379.55 110.665 1378.88 111.338 1378.88 112.169C1378.88 112.999 1379.55 113.672 1380.38 113.672Z" fill="white"/>
<path d="M1363.54 113.672C1364.38 113.672 1365.05 112.999 1365.05 112.169C1365.05 111.338 1364.38 110.665 1363.54 110.665C1362.71 110.665 1362.04 111.338 1362.04 112.169C1362.04 112.999 1362.71 113.672 1363.54 113.672Z" fill="white"/>
<path d="M1346.7 113.672C1347.53 113.672 1348.21 112.999 1348.21 112.169C1348.21 111.338 1347.53 110.665 1346.7 110.665C1345.87 110.665 1345.2 111.338 1345.2 112.169C1345.2 112.999 1345.87 113.672 1346.7 113.672Z" fill="white"/>
<path d="M1329.86 113.672C1330.69 113.672 1331.37 112.999 1331.37 112.169C1331.37 111.338 1330.69 110.665 1329.86 110.665C1329.03 110.665 1328.36 111.338 1328.36 112.169C1328.36 112.999 1329.03 113.672 1329.86 113.672Z" fill="white"/>
<path d="M1313.02 113.672C1313.85 113.672 1314.53 112.999 1314.53 112.169C1314.53 111.338 1313.85 110.665 1313.02 110.665C1312.19 110.665 1311.52 111.338 1311.52 112.169C1311.52 112.999 1312.19 113.672 1313.02 113.672Z" fill="white"/>
<path d="M1296.18 113.672C1297.01 113.672 1297.69 112.999 1297.69 112.169C1297.69 111.338 1297.01 110.665 1296.18 110.665C1295.35 110.665 1294.68 111.338 1294.68 112.169C1294.68 112.999 1295.35 113.672 1296.18 113.672Z" fill="white"/>
<path d="M1279.34 113.672C1280.17 113.672 1280.85 112.999 1280.85 112.169C1280.85 111.338 1280.17 110.665 1279.34 110.665C1278.51 110.665 1277.84 111.338 1277.84 112.169C1277.84 112.999 1278.51 113.672 1279.34 113.672Z" fill="white"/>
<path d="M1262.5 113.672C1263.33 113.672 1264.01 112.999 1264.01 112.169C1264.01 111.338 1263.33 110.665 1262.5 110.665C1261.67 110.665 1261 111.338 1261 112.169C1261 112.999 1261.67 113.672 1262.5 113.672Z" fill="white"/>
<path d="M1430.91 96.8314C1431.74 96.8314 1432.41 96.1582 1432.41 95.3278C1432.41 94.4974 1431.74 93.8242 1430.91 93.8242C1430.08 93.8242 1429.4 94.4974 1429.4 95.3278C1429.4 96.1582 1430.08 96.8314 1430.91 96.8314Z" fill="white"/>
<path d="M1414.07 96.8314C1414.9 96.8314 1415.57 96.1582 1415.57 95.3278C1415.57 94.4974 1414.9 93.8242 1414.07 93.8242C1413.23 93.8242 1412.56 94.4974 1412.56 95.3278C1412.56 96.1582 1413.23 96.8314 1414.07 96.8314Z" fill="white"/>
<path d="M1397.23 96.8314C1398.06 96.8314 1398.73 96.1582 1398.73 95.3278C1398.73 94.4974 1398.06 93.8242 1397.23 93.8242C1396.39 93.8242 1395.72 94.4974 1395.72 95.3278C1395.72 96.1582 1396.39 96.8314 1397.23 96.8314Z" fill="white"/>
<path d="M1380.38 96.8314C1381.21 96.8314 1381.89 96.1582 1381.89 95.3278C1381.89 94.4974 1381.21 93.8242 1380.38 93.8242C1379.55 93.8242 1378.88 94.4974 1378.88 95.3278C1378.88 96.1582 1379.55 96.8314 1380.38 96.8314Z" fill="white"/>
<path d="M1363.54 96.8314C1364.38 96.8314 1365.05 96.1582 1365.05 95.3278C1365.05 94.4974 1364.38 93.8242 1363.54 93.8242C1362.71 93.8242 1362.04 94.4974 1362.04 95.3278C1362.04 96.1582 1362.71 96.8314 1363.54 96.8314Z" fill="white"/>
<path d="M1346.7 96.8314C1347.53 96.8314 1348.21 96.1582 1348.21 95.3278C1348.21 94.4974 1347.53 93.8242 1346.7 93.8242C1345.87 93.8242 1345.2 94.4974 1345.2 95.3278C1345.2 96.1582 1345.87 96.8314 1346.7 96.8314Z" fill="white"/>
<path d="M1329.86 96.8314C1330.69 96.8314 1331.37 96.1582 1331.37 95.3278C1331.37 94.4974 1330.69 93.8242 1329.86 93.8242C1329.03 93.8242 1328.36 94.4974 1328.36 95.3278C1328.36 96.1582 1329.03 96.8314 1329.86 96.8314Z" fill="white"/>
<path d="M1313.02 96.8314C1313.85 96.8314 1314.53 96.1582 1314.53 95.3278C1314.53 94.4974 1313.85 93.8242 1313.02 93.8242C1312.19 93.8242 1311.52 94.4974 1311.52 95.3278C1311.52 96.1582 1312.19 96.8314 1313.02 96.8314Z" fill="white"/>
<path d="M1296.18 96.8314C1297.01 96.8314 1297.69 96.1582 1297.69 95.3278C1297.69 94.4974 1297.01 93.8242 1296.18 93.8242C1295.35 93.8242 1294.68 94.4974 1294.68 95.3278C1294.68 96.1582 1295.35 96.8314 1296.18 96.8314Z" fill="white"/>
<path d="M1279.34 96.8314C1280.17 96.8314 1280.85 96.1582 1280.85 95.3278C1280.85 94.4974 1280.17 93.8242 1279.34 93.8242C1278.51 93.8242 1277.84 94.4974 1277.84 95.3278C1277.84 96.1582 1278.51 96.8314 1279.34 96.8314Z" fill="white"/>
<path d="M1262.5 96.8314C1263.33 96.8314 1264.01 96.1582 1264.01 95.3278C1264.01 94.4974 1263.33 93.8242 1262.5 93.8242C1261.67 93.8242 1261 94.4974 1261 95.3278C1261 96.1582 1261.67 96.8314 1262.5 96.8314Z" fill="white"/>
<path d="M1430.91 79.9916C1431.74 79.9916 1432.41 79.3184 1432.41 78.488C1432.41 77.6576 1431.74 76.9844 1430.91 76.9844C1430.08 76.9844 1429.4 77.6576 1429.4 78.488C1429.4 79.3184 1430.08 79.9916 1430.91 79.9916Z" fill="white"/>
<path d="M1414.07 79.9916C1414.9 79.9916 1415.57 79.3184 1415.57 78.488C1415.57 77.6576 1414.9 76.9844 1414.07 76.9844C1413.23 76.9844 1412.56 77.6576 1412.56 78.488C1412.56 79.3184 1413.23 79.9916 1414.07 79.9916Z" fill="white"/>
<path d="M1397.23 79.9916C1398.06 79.9916 1398.73 79.3184 1398.73 78.488C1398.73 77.6576 1398.06 76.9844 1397.23 76.9844C1396.39 76.9844 1395.72 77.6576 1395.72 78.488C1395.72 79.3184 1396.39 79.9916 1397.23 79.9916Z" fill="white"/>
<path d="M1380.38 79.9916C1381.21 79.9916 1381.89 79.3184 1381.89 78.488C1381.89 77.6576 1381.21 76.9844 1380.38 76.9844C1379.55 76.9844 1378.88 77.6576 1378.88 78.488C1378.88 79.3184 1379.55 79.9916 1380.38 79.9916Z" fill="white"/>
<path d="M1363.54 79.9916C1364.38 79.9916 1365.05 79.3184 1365.05 78.488C1365.05 77.6576 1364.38 76.9844 1363.54 76.9844C1362.71 76.9844 1362.04 77.6576 1362.04 78.488C1362.04 79.3184 1362.71 79.9916 1363.54 79.9916Z" fill="white"/>
<path d="M1346.7 79.9916C1347.53 79.9916 1348.21 79.3184 1348.21 78.488C1348.21 77.6576 1347.53 76.9844 1346.7 76.9844C1345.87 76.9844 1345.2 77.6576 1345.2 78.488C1345.2 79.3184 1345.87 79.9916 1346.7 79.9916Z" fill="white"/>
<path d="M1329.86 79.9916C1330.69 79.9916 1331.37 79.3184 1331.37 78.488C1331.37 77.6576 1330.69 76.9844 1329.86 76.9844C1329.03 76.9844 1328.36 77.6576 1328.36 78.488C1328.36 79.3184 1329.03 79.9916 1329.86 79.9916Z" fill="white"/>
<path d="M1313.02 79.9916C1313.85 79.9916 1314.53 79.3184 1314.53 78.488C1314.53 77.6576 1313.85 76.9844 1313.02 76.9844C1312.19 76.9844 1311.52 77.6576 1311.52 78.488C1311.52 79.3184 1312.19 79.9916 1313.02 79.9916Z" fill="white"/>
<path d="M1296.18 79.9916C1297.01 79.9916 1297.69 79.3184 1297.69 78.488C1297.69 77.6576 1297.01 76.9844 1296.18 76.9844C1295.35 76.9844 1294.68 77.6576 1294.68 78.488C1294.68 79.3184 1295.35 79.9916 1296.18 79.9916Z" fill="white"/>
<path d="M1279.34 79.9916C1280.17 79.9916 1280.85 79.3184 1280.85 78.488C1280.85 77.6576 1280.17 76.9844 1279.34 76.9844C1278.51 76.9844 1277.84 77.6576 1277.84 78.488C1277.84 79.3184 1278.51 79.9916 1279.34 79.9916Z" fill="white"/>
<path d="M1262.5 79.9916C1263.33 79.9916 1264.01 79.3184 1264.01 78.488C1264.01 77.6576 1263.33 76.9844 1262.5 76.9844C1261.67 76.9844 1261 77.6576 1261 78.488C1261 79.3184 1261.67 79.9916 1262.5 79.9916Z" fill="white"/>
<path d="M1430.91 63.1517C1431.74 63.1517 1432.41 62.4785 1432.41 61.6481C1432.41 60.8177 1431.74 60.1445 1430.91 60.1445C1430.08 60.1445 1429.4 60.8177 1429.4 61.6481C1429.4 62.4785 1430.08 63.1517 1430.91 63.1517Z" fill="white"/>
<path d="M1414.07 63.1517C1414.9 63.1517 1415.57 62.4785 1415.57 61.6481C1415.57 60.8177 1414.9 60.1445 1414.07 60.1445C1413.23 60.1445 1412.56 60.8177 1412.56 61.6481C1412.56 62.4785 1413.23 63.1517 1414.07 63.1517Z" fill="white"/>
<path d="M1397.23 63.1517C1398.06 63.1517 1398.73 62.4785 1398.73 61.6481C1398.73 60.8177 1398.06 60.1445 1397.23 60.1445C1396.39 60.1445 1395.72 60.8177 1395.72 61.6481C1395.72 62.4785 1396.39 63.1517 1397.23 63.1517Z" fill="white"/>
<path d="M1380.38 63.1517C1381.21 63.1517 1381.89 62.4785 1381.89 61.6481C1381.89 60.8177 1381.21 60.1445 1380.38 60.1445C1379.55 60.1445 1378.88 60.8177 1378.88 61.6481C1378.88 62.4785 1379.55 63.1517 1380.38 63.1517Z" fill="white"/>
<path d="M1363.54 63.1517C1364.38 63.1517 1365.05 62.4785 1365.05 61.6481C1365.05 60.8177 1364.38 60.1445 1363.54 60.1445C1362.71 60.1445 1362.04 60.8177 1362.04 61.6481C1362.04 62.4785 1362.71 63.1517 1363.54 63.1517Z" fill="white"/>
<path d="M1346.7 63.1517C1347.53 63.1517 1348.21 62.4785 1348.21 61.6481C1348.21 60.8177 1347.53 60.1445 1346.7 60.1445C1345.87 60.1445 1345.2 60.8177 1345.2 61.6481C1345.2 62.4785 1345.87 63.1517 1346.7 63.1517Z" fill="white"/>
<path d="M1329.86 63.1517C1330.69 63.1517 1331.37 62.4785 1331.37 61.6481C1331.37 60.8177 1330.69 60.1445 1329.86 60.1445C1329.03 60.1445 1328.36 60.8177 1328.36 61.6481C1328.36 62.4785 1329.03 63.1517 1329.86 63.1517Z" fill="white"/>
<path d="M1313.02 63.1517C1313.85 63.1517 1314.53 62.4785 1314.53 61.6481C1314.53 60.8177 1313.85 60.1445 1313.02 60.1445C1312.19 60.1445 1311.52 60.8177 1311.52 61.6481C1311.52 62.4785 1312.19 63.1517 1313.02 63.1517Z" fill="white"/>
<path d="M1296.18 63.1517C1297.01 63.1517 1297.69 62.4785 1297.69 61.6481C1297.69 60.8177 1297.01 60.1445 1296.18 60.1445C1295.35 60.1445 1294.68 60.8177 1294.68 61.6481C1294.68 62.4785 1295.35 63.1517 1296.18 63.1517Z" fill="white"/>
<path d="M1279.34 63.1517C1280.17 63.1517 1280.85 62.4785 1280.85 61.6481C1280.85 60.8177 1280.17 60.1445 1279.34 60.1445C1278.51 60.1445 1277.84 60.8177 1277.84 61.6481C1277.84 62.4785 1278.51 63.1517 1279.34 63.1517Z" fill="white"/>
<path d="M1262.5 63.1517C1263.33 63.1517 1264.01 62.4785 1264.01 61.6481C1264.01 60.8177 1263.33 60.1445 1262.5 60.1445C1261.67 60.1445 1261 60.8177 1261 61.6481C1261 62.4785 1261.67 63.1517 1262.5 63.1517Z" fill="white"/>
<path d="M1430.91 46.3119C1431.74 46.3119 1432.41 45.6387 1432.41 44.8083C1432.41 43.9779 1431.74 43.3047 1430.91 43.3047C1430.08 43.3047 1429.4 43.9779 1429.4 44.8083C1429.4 45.6387 1430.08 46.3119 1430.91 46.3119Z" fill="white"/>
<path d="M1414.07 46.3119C1414.9 46.3119 1415.57 45.6387 1415.57 44.8083C1415.57 43.9779 1414.9 43.3047 1414.07 43.3047C1413.23 43.3047 1412.56 43.9779 1412.56 44.8083C1412.56 45.6387 1413.23 46.3119 1414.07 46.3119Z" fill="white"/>
<path d="M1397.23 46.3119C1398.06 46.3119 1398.73 45.6387 1398.73 44.8083C1398.73 43.9779 1398.06 43.3047 1397.23 43.3047C1396.39 43.3047 1395.72 43.9779 1395.72 44.8083C1395.72 45.6387 1396.39 46.3119 1397.23 46.3119Z" fill="white"/>
<path d="M1380.38 46.3119C1381.21 46.3119 1381.89 45.6387 1381.89 44.8083C1381.89 43.9779 1381.21 43.3047 1380.38 43.3047C1379.55 43.3047 1378.88 43.9779 1378.88 44.8083C1378.88 45.6387 1379.55 46.3119 1380.38 46.3119Z" fill="white"/>
<path d="M1363.54 46.3119C1364.38 46.3119 1365.05 45.6387 1365.05 44.8083C1365.05 43.9779 1364.38 43.3047 1363.54 43.3047C1362.71 43.3047 1362.04 43.9779 1362.04 44.8083C1362.04 45.6387 1362.71 46.3119 1363.54 46.3119Z" fill="white"/>
<path d="M1346.7 46.3119C1347.53 46.3119 1348.21 45.6387 1348.21 44.8083C1348.21 43.9779 1347.53 43.3047 1346.7 43.3047C1345.87 43.3047 1345.2 43.9779 1345.2 44.8083C1345.2 45.6387 1345.87 46.3119 1346.7 46.3119Z" fill="white"/>
<path d="M1329.86 46.3119C1330.69 46.3119 1331.37 45.6387 1331.37 44.8083C1331.37 43.9779 1330.69 43.3047 1329.86 43.3047C1329.03 43.3047 1328.36 43.9779 1328.36 44.8083C1328.36 45.6387 1329.03 46.3119 1329.86 46.3119Z" fill="white"/>
<path d="M1313.02 46.3119C1313.85 46.3119 1314.53 45.6387 1314.53 44.8083C1314.53 43.9779 1313.85 43.3047 1313.02 43.3047C1312.19 43.3047 1311.52 43.9779 1311.52 44.8083C1311.52 45.6387 1312.19 46.3119 1313.02 46.3119Z" fill="white"/>
<path d="M1296.18 46.3119C1297.01 46.3119 1297.69 45.6387 1297.69 44.8083C1297.69 43.9779 1297.01 43.3047 1296.18 43.3047C1295.35 43.3047 1294.68 43.9779 1294.68 44.8083C1294.68 45.6387 1295.35 46.3119 1296.18 46.3119Z" fill="white"/>
<path d="M1279.34 46.3119C1280.17 46.3119 1280.85 45.6387 1280.85 44.8083C1280.85 43.9779 1280.17 43.3047 1279.34 43.3047C1278.51 43.3047 1277.84 43.9779 1277.84 44.8083C1277.84 45.6387 1278.51 46.3119 1279.34 46.3119Z" fill="white"/>
<path d="M1262.5 46.3119C1263.33 46.3119 1264.01 45.6387 1264.01 44.8083C1264.01 43.9779 1263.33 43.3047 1262.5 43.3047C1261.67 43.3047 1261 43.9779 1261 44.8083C1261 45.6387 1261.67 46.3119 1262.5 46.3119Z" fill="white"/>
<path d="M1430.91 29.471C1431.74 29.471 1432.41 28.7979 1432.41 27.9675C1432.41 27.137 1431.74 26.4639 1430.91 26.4639C1430.08 26.4639 1429.4 27.137 1429.4 27.9675C1429.4 28.7979 1430.08 29.471 1430.91 29.471Z" fill="white"/>
<path d="M1414.07 29.471C1414.9 29.471 1415.57 28.7979 1415.57 27.9675C1415.57 27.137 1414.9 26.4639 1414.07 26.4639C1413.23 26.4639 1412.56 27.137 1412.56 27.9675C1412.56 28.7979 1413.23 29.471 1414.07 29.471Z" fill="white"/>
<path d="M1397.23 29.471C1398.06 29.471 1398.73 28.7979 1398.73 27.9675C1398.73 27.137 1398.06 26.4639 1397.23 26.4639C1396.39 26.4639 1395.72 27.137 1395.72 27.9675C1395.72 28.7979 1396.39 29.471 1397.23 29.471Z" fill="white"/>
<path d="M1380.38 29.471C1381.21 29.471 1381.89 28.7979 1381.89 27.9675C1381.89 27.137 1381.21 26.4639 1380.38 26.4639C1379.55 26.4639 1378.88 27.137 1378.88 27.9675C1378.88 28.7979 1379.55 29.471 1380.38 29.471Z" fill="white"/>
<path d="M1363.54 29.471C1364.38 29.471 1365.05 28.7979 1365.05 27.9675C1365.05 27.137 1364.38 26.4639 1363.54 26.4639C1362.71 26.4639 1362.04 27.137 1362.04 27.9675C1362.04 28.7979 1362.71 29.471 1363.54 29.471Z" fill="white"/>
<path d="M1346.7 29.471C1347.53 29.471 1348.21 28.7979 1348.21 27.9675C1348.21 27.137 1347.53 26.4639 1346.7 26.4639C1345.87 26.4639 1345.2 27.137 1345.2 27.9675C1345.2 28.7979 1345.87 29.471 1346.7 29.471Z" fill="white"/>
<path d="M1329.86 29.471C1330.69 29.471 1331.37 28.7979 1331.37 27.9675C1331.37 27.137 1330.69 26.4639 1329.86 26.4639C1329.03 26.4639 1328.36 27.137 1328.36 27.9675C1328.36 28.7979 1329.03 29.471 1329.86 29.471Z" fill="white"/>
<path d="M1313.02 29.471C1313.85 29.471 1314.53 28.7979 1314.53 27.9675C1314.53 27.137 1313.85 26.4639 1313.02 26.4639C1312.19 26.4639 1311.52 27.137 1311.52 27.9675C1311.52 28.7979 1312.19 29.471 1313.02 29.471Z" fill="white"/>
<path d="M1296.18 29.471C1297.01 29.471 1297.69 28.7979 1297.69 27.9675C1297.69 27.137 1297.01 26.4639 1296.18 26.4639C1295.35 26.4639 1294.68 27.137 1294.68 27.9675C1294.68 28.7979 1295.35 29.471 1296.18 29.471Z" fill="white"/>
<path d="M1279.34 29.471C1280.17 29.471 1280.85 28.7979 1280.85 27.9675C1280.85 27.137 1280.17 26.4639 1279.34 26.4639C1278.51 26.4639 1277.84 27.137 1277.84 27.9675C1277.84 28.7979 1278.51 29.471 1279.34 29.471Z" fill="white"/>
<path d="M1262.5 29.471C1263.33 29.471 1264.01 28.7979 1264.01 27.9675C1264.01 27.137 1263.33 26.4639 1262.5 26.4639C1261.67 26.4639 1261 27.137 1261 27.9675C1261 28.7979 1261.67 29.471 1262.5 29.471Z" fill="white"/>
<path d="M1430.91 12.6312C1431.74 12.6312 1432.41 11.958 1432.41 11.1276C1432.41 10.2972 1431.74 9.62402 1430.91 9.62402C1430.08 9.62402 1429.4 10.2972 1429.4 11.1276C1429.4 11.958 1430.08 12.6312 1430.91 12.6312Z" fill="white"/>
<path d="M1414.07 12.6312C1414.9 12.6312 1415.57 11.958 1415.57 11.1276C1415.57 10.2972 1414.9 9.62402 1414.07 9.62402C1413.23 9.62402 1412.56 10.2972 1412.56 11.1276C1412.56 11.958 1413.23 12.6312 1414.07 12.6312Z" fill="white"/>
<path d="M1397.23 12.6312C1398.06 12.6312 1398.73 11.958 1398.73 11.1276C1398.73 10.2972 1398.06 9.62402 1397.23 9.62402C1396.39 9.62402 1395.72 10.2972 1395.72 11.1276C1395.72 11.958 1396.39 12.6312 1397.23 12.6312Z" fill="white"/>
<path d="M1380.38 12.6312C1381.21 12.6312 1381.89 11.958 1381.89 11.1276C1381.89 10.2972 1381.21 9.62402 1380.38 9.62402C1379.55 9.62402 1378.88 10.2972 1378.88 11.1276C1378.88 11.958 1379.55 12.6312 1380.38 12.6312Z" fill="white"/>
<path d="M1363.54 12.6312C1364.38 12.6312 1365.05 11.958 1365.05 11.1276C1365.05 10.2972 1364.38 9.62402 1363.54 9.62402C1362.71 9.62402 1362.04 10.2972 1362.04 11.1276C1362.04 11.958 1362.71 12.6312 1363.54 12.6312Z" fill="white"/>
<path d="M1346.7 12.6312C1347.53 12.6312 1348.21 11.958 1348.21 11.1276C1348.21 10.2972 1347.53 9.62402 1346.7 9.62402C1345.87 9.62402 1345.2 10.2972 1345.2 11.1276C1345.2 11.958 1345.87 12.6312 1346.7 12.6312Z" fill="white"/>
<path d="M1329.86 12.6312C1330.69 12.6312 1331.37 11.958 1331.37 11.1276C1331.37 10.2972 1330.69 9.62402 1329.86 9.62402C1329.03 9.62402 1328.36 10.2972 1328.36 11.1276C1328.36 11.958 1329.03 12.6312 1329.86 12.6312Z" fill="white"/>
<path d="M1313.02 12.6312C1313.85 12.6312 1314.53 11.958 1314.53 11.1276C1314.53 10.2972 1313.85 9.62402 1313.02 9.62402C1312.19 9.62402 1311.52 10.2972 1311.52 11.1276C1311.52 11.958 1312.19 12.6312 1313.02 12.6312Z" fill="white"/>
<path d="M1296.18 12.6312C1297.01 12.6312 1297.69 11.958 1297.69 11.1276C1297.69 10.2972 1297.01 9.62402 1296.18 9.62402C1295.35 9.62402 1294.68 10.2972 1294.68 11.1276C1294.68 11.958 1295.35 12.6312 1296.18 12.6312Z" fill="white"/>
<path d="M1279.34 12.6312C1280.17 12.6312 1280.85 11.958 1280.85 11.1276C1280.85 10.2972 1280.17 9.62402 1279.34 9.62402C1278.51 9.62402 1277.84 10.2972 1277.84 11.1276C1277.84 11.958 1278.51 12.6312 1279.34 12.6312Z" fill="white"/>
<path d="M1262.5 12.6312C1263.33 12.6312 1264.01 11.958 1264.01 11.1276C1264.01 10.2972 1263.33 9.62402 1262.5 9.62402C1261.67 9.62402 1261 10.2972 1261 11.1276C1261 11.958 1261.67 12.6312 1262.5 12.6312Z" fill="white"/>
</g>
<path d="M65.042 70.1769V392.303C65.042 392.932 66.5759 394.834 66.5759 394.036V71.9256C66.5759 71.2967 65.042 69.3946 65.042 70.1923V70.1769Z" fill="white"/>
<path d="M73.5098 71.1281V392.702C73.5098 393.913 76.1635 394.236 76.1635 393.054V71.5269C76.1635 70.3151 73.5098 69.993 73.5098 71.1741V71.1281Z" fill="white"/>
<path d="M55.3781 71.0829C55.3781 113.123 55.3781 155.168 55.3781 197.218C55.3781 239.442 55.3781 281.666 55.3781 323.89C55.3781 335.65 55.3781 347.411 55.3781 359.171V385.355C55.3781 387.717 55.0253 390.171 56.007 392.38C56.4212 393.316 58.8448 393.914 58.2006 392.38C57.2035 390.125 57.8017 386.597 57.8017 384.174V360.659C57.8017 350.146 57.8017 339.633 57.8017 329.121C57.8017 308.454 57.8017 287.787 57.8017 267.119C57.8017 225.611 57.8017 184.103 57.8017 142.595C57.8017 119.074 57.8017 95.5542 57.8017 72.0339C57.8017 71.0062 55.3781 69.9324 55.3781 71.0522V71.0829Z" fill="white"/>
<path d="M82.7603 71.5259C82.7603 113.218 82.7603 154.905 82.7603 196.587C82.7603 238.269 82.7603 279.957 82.7603 321.649C82.7603 333.409 82.7603 345.169 82.7603 356.929C82.7603 362.625 82.7603 368.326 82.7603 374.033C82.7603 377.1 82.7603 380.127 82.7603 383.113V387.393C82.7603 388.927 83.1284 390.599 82.3461 391.995C81.8245 392.854 84.3862 393.529 84.8157 392.839C85.7974 391.213 85.3986 389.311 85.3986 387.454C85.3986 384.601 85.3986 381.753 85.3986 378.91C85.3986 373.746 85.3986 368.582 85.3986 363.418C85.3986 352.905 85.3986 342.393 85.3986 331.88C85.3986 310.855 85.3986 289.835 85.3986 268.82C85.3986 226.954 85.3986 185.088 85.3986 143.222C85.3986 119.528 85.3986 95.8336 85.3986 72.1395C85.3986 71.1884 82.7756 70.8203 82.7756 71.6179L82.7603 71.5259Z" fill="white"/>
<path d="M89.9986 71.5266C90.8269 73.4746 90.1827 76.8646 90.1827 78.9661C90.1827 81.6352 90.1827 84.3042 90.1827 86.9733C90.1827 92.0864 90.1827 97.2455 90.1827 102.451C90.1827 112.769 90.1827 123.087 90.1827 133.405C90.1827 154.042 90.1827 174.683 90.1827 195.33C90.1827 236.787 90.1827 278.244 90.1827 319.701C90.1827 331.267 90.1827 342.833 90.1827 354.399C90.1827 360.095 90.1827 365.791 90.1827 371.487C90.1827 374.555 90.1827 377.582 90.1827 380.568V384.832C90.4069 386.421 90.3394 388.038 89.9833 389.603C89.5384 390.646 92.1768 390.815 92.5756 389.863C93.2965 388.161 92.8517 385.967 92.8517 384.142C92.8517 381.299 92.8517 378.451 92.8517 375.598C92.8517 370.485 92.8517 365.326 92.8517 360.121C92.8517 349.618 92.8517 339.121 92.8517 328.629C92.8517 307.634 92.8517 286.64 92.8517 265.646C92.8517 223.831 92.8517 182.016 92.8517 140.201C92.8517 128.461 92.8517 116.701 92.8517 104.92C92.8517 99.0504 92.8517 93.1806 92.8517 87.3107C92.8517 84.4678 92.8517 81.6198 92.8517 78.7667C92.8517 76.3738 93.496 73.1372 92.5449 70.913C92.1614 69.9926 89.4771 70.3761 89.9986 71.4805V71.5266Z" fill="white"/>
<path d="M46.4982 72.3408C45.9 82.3881 46.3755 92.5887 46.3755 102.651C46.3755 113.143 46.3755 123.636 46.3755 134.128C46.3755 154.754 46.3755 175.385 46.3755 196.022C46.3755 237.458 46.3755 278.875 46.3755 320.27C46.3755 332.01 46.3755 343.77 46.3755 355.551C46.3755 361.247 46.3755 366.938 46.3755 372.623C46.3755 375.691 46.3755 378.713 46.3755 381.689C46.3755 383.898 45.7772 386.69 46.9584 388.638C47.3419 389.267 49.8882 388.638 49.428 387.84C48.3543 386.045 48.9985 382.655 48.9985 380.631C48.9985 377.961 48.9985 375.292 48.9985 372.623C48.9985 367.51 48.9985 362.351 48.9985 357.146C48.9985 346.828 48.9985 336.515 48.9985 326.207C48.9985 305.58 48.9985 284.949 48.9985 264.312C48.9985 223.234 48.9985 182.15 48.9985 141.061C48.9985 129.505 48.9985 117.945 48.9985 106.379C48.9985 94.905 48.4463 83.2624 49.1212 71.804C49.1212 71.175 46.5442 71.4358 46.4982 72.3255V72.3408Z" fill="white"/>
<path d="M99.9547 71.5264C99.3564 81.5736 99.8319 91.7589 99.8319 101.822C99.8319 111.884 99.8319 122.085 99.8319 132.224C99.8319 152.676 99.8319 173.129 99.8319 193.581C99.8319 234.486 99.8319 275.391 99.8319 316.296C99.8319 327.852 99.8319 339.407 99.8319 350.963C99.8319 356.649 99.8319 362.339 99.8319 368.035C99.8319 370.878 99.8319 373.721 99.8319 376.564C99.8319 379.249 100.399 382.7 99.0803 385.139C98.7582 385.737 100.476 387.348 100.415 387.455C101.117 385.893 101.397 384.174 101.228 382.47C101.228 379.801 101.228 377.132 101.228 374.463C101.228 369.35 101.228 364.196 101.228 359.001C101.228 348.693 101.228 338.379 101.228 328.061C101.228 307.435 101.228 286.814 101.228 266.198C101.228 225.129 101.228 184.066 101.228 143.008C101.228 131.452 101.228 119.896 101.228 108.341C101.228 96.8669 100.676 85.2244 101.351 73.7659C101.351 73.045 99.9547 71.7411 99.97 71.5877L99.9547 71.5264Z" fill="white"/>
<path d="M37.2939 72.8617C37.2939 113.675 37.2939 154.492 37.2939 195.316C37.2939 235.955 37.2939 276.593 37.2939 317.232C37.2939 328.645 37.2939 340.052 37.2939 351.455C37.2939 357.161 37.2939 362.867 37.2939 368.573V377.133C37.0483 379.428 37.2674 381.75 37.9382 383.959C38.4597 385.216 40.8986 384.864 40.2544 383.314C39.3034 380.998 39.8863 377.424 39.8863 374.939V367.453C39.8863 362.463 39.8863 357.473 39.8863 352.482C39.8863 342.317 39.8863 332.158 39.8863 322.003C39.8863 301.857 39.8863 281.717 39.8863 261.581C39.8863 221.474 39.8863 181.372 39.8863 141.275C39.8863 118.634 39.8863 95.9985 39.8863 73.3679C39.8863 72.0334 37.2939 71.4198 37.2939 72.8924V72.8617Z" fill="white"/>
<path d="M108.312 73.4905C108.895 83.2003 108.435 93.0482 108.435 102.773C108.435 112.744 108.435 122.72 108.435 132.7C108.435 152.478 108.435 172.25 108.435 192.017C108.435 231.746 108.435 271.47 108.435 311.189C108.435 322.437 108.435 333.661 108.435 344.858C108.435 350.381 108.435 355.903 108.435 361.425C108.435 364.094 108.435 366.768 108.435 369.447C108.701 372.536 108.446 375.647 107.683 378.651C107.254 379.909 109.8 380.722 110.23 379.449C111.687 375.23 111.058 370.398 111.058 366.011C111.058 361.021 111.058 356.036 111.058 351.056C111.058 341.085 111.058 331.109 111.058 321.129C111.058 301.003 111.058 280.873 111.058 260.738C111.058 220.855 111.058 180.973 111.058 141.091C111.058 129.842 111.058 118.619 111.058 107.421C111.058 96.2847 111.595 84.9797 110.935 73.8587C110.935 72.5702 108.236 72.1713 108.312 73.5979V73.4905Z" fill="white"/>
<path d="M28.6909 72.8009C28.1081 74.479 27.9038 76.2652 28.0927 78.0316V85.5172C28.0927 90.5076 28.0927 95.498 28.0927 100.488C28.0927 110.469 28.0927 120.45 28.0927 130.431C28.0927 150.392 28.0927 170.333 28.0927 190.254C28.0927 230.136 28.0927 270.054 28.0927 310.008C28.0927 321.052 28.0927 332.102 28.0927 343.156C28.0927 348.863 28.0927 354.564 28.0927 360.26C28.0927 362.929 28.0927 365.603 28.0927 368.282C28.1613 370.661 28.4488 373.028 28.9517 375.354C29.1818 376.642 31.6054 377.01 31.3293 375.354C30.8818 373.218 30.6251 371.046 30.5623 368.865C30.5623 366.196 30.5623 363.522 30.5623 360.843C30.5623 356.026 30.5623 351.215 30.5623 346.408C30.5623 336.612 30.5623 326.81 30.5623 317.003C30.5623 297.225 30.5623 277.443 30.5623 257.655C30.5623 218.448 30.5623 179.24 30.5623 140.033C30.5623 128.989 30.5623 117.939 30.5623 106.885C30.5623 101.363 30.5623 95.8405 30.5623 90.3184V81.8204C30.5623 79.3814 29.9947 76.1755 31.0378 73.9207C31.5747 72.7702 29.2738 71.4817 28.6602 72.7855L28.6909 72.8009Z" fill="white"/>
<path d="M117.503 74.9764C117.503 113.049 117.503 151.121 117.503 189.193C117.503 227.091 117.503 264.99 117.503 302.888C117.503 313.564 117.503 324.24 117.503 334.917C117.503 340.255 117.503 345.593 117.503 350.931C117.503 356.223 118.24 362.144 116.736 367.267C116.384 368.479 118.792 369.568 119.206 368.188C120.402 364.123 120.004 359.766 120.004 355.579C120.004 350.772 120.004 345.971 120.004 341.175C120.004 331.573 120.004 321.965 120.004 312.352C120.004 293.311 120.004 274.275 120.004 255.244C120.004 216.988 120.004 178.737 120.004 140.491C120.004 118.78 120.004 97.0753 120.004 75.3753C120.004 74.1174 117.519 73.4425 117.519 74.9918L117.503 74.9764Z" fill="white"/>
<path d="M20.941 75.1612C20.3888 84.3648 20.8183 93.6758 20.8183 102.864C20.8183 112.313 20.8183 121.762 20.8183 131.211C20.8183 150.109 20.8183 169.028 20.8183 187.967C20.8183 225.804 20.8183 263.605 20.8183 301.37C20.8183 312.067 20.8183 322.763 20.8183 333.46C20.8183 338.635 20.8183 343.804 20.8183 348.968C20.8183 353.861 20.6496 358.601 21.9074 363.372C22.1528 364.292 24.4077 365.412 24.0089 363.909C23.0958 359.518 22.7606 355.026 23.0118 350.548C23.0118 345.732 23.0118 340.915 23.0118 336.098C23.0118 326.823 23.0118 317.553 23.0118 308.288C23.0118 289.39 23.0118 270.472 23.0118 251.533C23.0118 214.084 23.0118 176.641 23.0118 139.203C23.0118 128.68 23.0118 118.157 23.0118 107.635C23.0118 97.1885 22.521 86.6044 23.1346 76.1736C23.1346 75.2379 21.0177 73.8114 20.941 75.1306V75.1612Z" fill="white"/>
<path d="M213.559 111.746C214.556 113.602 214.265 115.796 214.265 117.882C214.265 120.183 214.265 122.489 214.265 124.8C214.265 129.586 214.265 134.372 214.265 139.157C214.265 148.555 214.265 157.953 214.265 167.351C214.265 186.147 214.265 204.948 214.265 223.754C214.265 228.867 214.265 234.011 214.265 239.185C214.265 241.844 214.265 244.503 214.265 247.162C214.037 249.171 214.333 251.206 215.124 253.067C215.553 253.865 218.192 253.282 217.624 252.331C216.627 250.475 216.918 248.281 216.918 246.195C216.918 243.894 216.918 241.588 216.918 239.277C216.918 234.491 216.918 229.705 216.918 224.92C216.918 215.522 216.918 206.124 216.918 196.726C216.918 177.93 216.918 159.129 216.918 140.323C216.918 135.21 216.918 130.066 216.918 124.892C216.918 122.233 216.918 119.574 216.918 116.915C217.146 114.906 216.851 112.871 216.059 111.01C215.63 110.212 212.992 110.795 213.559 111.746Z" fill="white"/>
<path d="M206.749 107.373C207.439 109.29 206.979 111.975 206.979 114.015C206.979 116.51 206.979 119 206.979 121.485C206.979 125.933 206.979 130.382 206.979 134.83C206.979 144.085 206.979 153.345 206.979 162.61C206.979 180.771 206.979 198.928 206.979 217.08C206.979 222.193 206.979 227.357 206.979 232.572C206.979 235.241 206.979 237.91 206.979 240.579C206.979 242.65 206.534 245.181 207.24 247.099C207.516 247.866 209.878 248.955 209.495 247.912C208.805 245.994 209.265 243.31 209.265 241.27C209.265 238.775 209.265 236.284 209.265 233.8C209.265 229.351 209.265 224.903 209.265 220.454C209.265 211.2 209.265 201.94 209.265 192.675C209.265 174.513 209.265 156.356 209.265 138.205C209.265 133.092 209.265 127.928 209.265 122.712C209.265 120.043 209.265 117.374 209.265 114.705C209.265 112.634 209.71 110.103 209.004 108.186C208.728 107.419 206.366 106.33 206.749 107.373Z" fill="white"/>
<path d="M197.085 101.975C198.726 105.763 197.867 110.856 197.867 114.89C197.867 119.349 197.867 123.808 197.867 128.266C197.867 137.531 197.867 146.801 197.867 156.076C197.867 174.259 197.867 192.441 197.867 210.623C197.867 215.787 197.867 220.957 197.867 226.131C197.867 228.8 197.867 231.474 197.867 234.154C197.633 236.529 197.899 238.928 198.649 241.194C199.018 242.038 201.549 241.194 201.226 240.489C199.585 236.7 200.444 231.607 200.444 227.573C200.444 223.114 200.444 218.656 200.444 214.197C200.444 204.932 200.444 195.662 200.444 186.387C200.444 168.205 200.444 150.023 200.444 131.84C200.444 126.676 200.444 121.507 200.444 116.332C200.444 113.663 200.444 110.989 200.444 108.31C200.679 105.934 200.412 103.535 199.662 101.269C199.294 100.425 196.763 101.269 197.085 101.975Z" fill="white"/>
<path d="M223.116 118.266C224.113 119.923 223.499 123.328 223.499 125.199C223.499 127.51 223.499 129.816 223.499 132.117C223.499 136.729 223.499 141.331 223.499 145.923C223.499 154.799 223.499 163.675 223.499 172.552C223.499 190.489 223.499 208.42 223.499 226.347C223.499 231.46 223.499 236.609 223.499 241.794C223.499 246.395 223.008 251.181 223.775 255.676C223.944 256.642 226.583 256.826 226.383 255.676C225.616 251.166 226.138 246.227 226.138 241.671C226.138 237.115 226.138 232.789 226.138 228.356C226.138 219.153 226.138 209.918 226.138 200.653C226.138 182.543 226.138 164.432 226.138 146.322C226.138 141.208 226.138 136.06 226.138 130.875C226.138 128.216 226.138 125.552 226.138 122.883C226.138 121.058 226.475 119.401 225.509 117.79C225.018 116.977 222.441 117.054 223.116 118.22V118.266Z" fill="white"/>
<path d="M188.08 97.3124C188.595 99.798 188.77 102.342 188.601 104.875C188.601 107.718 188.601 110.555 188.601 113.388C188.601 119.064 188.601 124.744 188.601 130.43C188.601 141.791 188.601 153.148 188.601 164.499C188.601 175.85 188.601 187.206 188.601 198.567C188.601 204.243 188.601 209.923 188.601 215.609C188.601 220.671 187.666 226.623 189.645 231.393C190.028 232.329 192.59 231.593 192.237 230.749C190.273 225.979 191.194 220.012 191.194 214.965C191.194 209.289 191.194 203.609 191.194 197.923C191.194 186.562 191.194 175.205 191.194 163.854C191.194 152.503 191.194 141.147 191.194 129.786C191.194 124.11 191.194 118.43 191.194 112.744C191.194 109.901 191.194 107.063 191.194 104.23C191.363 101.698 191.187 99.1537 190.672 96.6681C190.412 95.7324 187.819 96.3767 188.08 97.3124Z" fill="white"/>
<path d="M232.81 124.386C233.093 125.764 233.15 127.178 232.979 128.574C232.979 129.995 232.979 131.417 232.979 132.838C232.979 135.681 232.979 138.524 232.979 141.367C232.979 147.053 232.979 152.738 232.979 158.424C232.979 169.438 232.979 180.456 232.979 191.48C232.979 202.504 232.979 213.523 232.979 224.537C232.979 230.222 232.979 235.908 232.979 241.594C232.979 244.437 232.979 247.28 232.979 250.123C232.728 252.217 232.837 254.339 233.301 256.396C233.577 257.163 235.387 258.697 234.835 257.087C234.552 255.709 234.495 254.295 234.666 252.899C234.666 251.477 234.666 250.056 234.666 248.635C234.666 245.792 234.666 242.949 234.666 240.106C234.666 234.42 234.666 228.734 234.666 223.049C234.666 212.035 234.666 201.016 234.666 189.992C234.666 178.969 234.666 167.95 234.666 156.936C234.666 151.25 234.666 145.565 234.666 139.879C234.666 137.036 234.666 134.193 234.666 131.35C234.917 129.256 234.808 127.134 234.344 125.076C234.068 124.309 232.258 122.775 232.81 124.386Z" fill="white"/>
<path d="M179.675 94.5348C179.675 116.194 179.675 137.848 179.675 159.497C179.675 170.142 179.675 180.793 179.675 191.449C179.675 196.776 179.675 202.099 179.675 207.417C179.675 210.26 179.675 213.098 179.675 215.93C179.486 218.126 179.785 220.336 180.55 222.403C181.056 223.523 183.387 222.204 182.85 221.054C181.731 218.569 182.145 215.577 182.145 212.924C182.145 210.27 182.145 207.954 182.145 205.469C182.145 200.141 182.145 194.818 182.145 189.501C182.145 178.855 182.145 168.204 182.145 157.549C182.145 136.248 182.145 114.946 182.145 93.6451C182.145 92.3566 179.66 93.323 179.66 94.5195L179.675 94.5348Z" fill="white"/>
<path d="M241.138 130.599C242.319 133.206 241.89 136.29 241.89 139.081C241.89 141.577 241.89 144.072 241.89 146.567C241.89 151.905 241.89 157.248 241.89 162.597C241.89 172.925 241.89 183.254 241.89 193.582C241.89 203.91 241.89 214.239 241.89 224.567C241.89 229.905 241.89 235.249 241.89 240.597C241.89 243.092 241.89 245.587 241.89 248.083C241.89 249.504 241.89 250.931 241.89 252.362C242.094 253.62 242.026 254.907 241.69 256.136C241.276 256.903 243.608 258.222 244.022 257.455C244.911 255.814 244.298 253.053 244.298 251.212C244.298 248.359 244.298 245.511 244.298 242.668C244.298 237.33 244.298 231.987 244.298 226.638C244.298 215.952 244.298 205.271 244.298 194.594C244.298 183.918 244.298 173.237 244.298 162.551C244.298 157.212 244.298 151.869 244.298 146.521C244.298 143.668 244.298 140.82 244.298 137.977C244.519 135.698 244.231 133.397 243.454 131.243C243.132 130.537 240.693 129.709 241.138 130.645V130.599Z" fill="white"/>
<path d="M170.102 90.1327C170.931 92.4029 170.348 95.6242 170.348 98.0478C170.348 100.471 170.348 103.033 170.348 105.533C170.348 110.882 170.348 116.23 170.348 121.578C170.348 131.917 170.348 142.256 170.348 152.594C170.348 162.933 170.348 173.272 170.348 183.611C170.348 188.959 170.348 194.307 170.348 199.655C170.348 202.151 170.348 204.646 170.348 207.141C170.348 209.626 170.087 212.142 171.13 214.458C171.452 215.179 173.968 214.366 173.723 213.798C172.679 211.482 172.94 208.966 172.94 206.481C172.94 203.997 172.94 201.496 172.94 198.996C172.94 193.648 172.94 188.299 172.94 182.951C172.94 172.612 172.94 162.274 172.94 151.935C172.94 141.596 172.94 131.257 172.94 120.919C172.94 115.57 172.94 110.222 172.94 104.874C172.94 102.379 172.94 99.8834 172.94 97.3882C172.94 94.9646 173.523 91.7433 172.695 89.4731C172.434 88.7675 169.872 89.4731 170.102 90.1327Z" fill="white"/>
<path d="M160.624 85.9301C161.836 88.1696 161.361 91.1148 161.361 93.5998C161.361 96.0847 161.361 98.5697 161.361 101.055C161.361 106.025 161.361 111 161.361 115.98C161.361 126.278 161.361 136.581 161.361 146.889C161.361 157.197 161.361 167.499 161.361 177.797C161.361 182.767 161.361 187.742 161.361 192.722C161.361 195.207 161.361 197.692 161.361 200.177C161.361 202.248 160.808 204.779 161.913 206.666C162.45 207.556 165.073 207.172 164.49 206.19C163.278 204.15 164.045 200.3 164.045 197.999C164.045 195.698 164.045 193.029 164.045 190.544C164.045 185.574 164.045 180.599 164.045 175.619C164.045 165.321 164.045 155.018 164.045 144.71C164.045 134.402 164.045 124.099 164.045 113.802C164.045 108.832 164.045 103.857 164.045 98.8765C164.045 96.3915 164.045 93.9065 164.045 91.4216C164.277 89.4032 163.987 87.3591 163.201 85.4853C162.711 84.5649 160.133 84.933 160.624 85.9608V85.9301Z" fill="white"/>
<path d="M152.492 83.3677C152.492 103.258 152.492 123.153 152.492 143.053C152.492 153.003 152.492 162.948 152.492 172.888C152.492 177.858 152.492 182.833 152.492 187.813V194.747C152.249 196.807 152.432 198.895 153.029 200.882C153.366 201.649 155.821 202.554 155.36 201.511C154.409 199.348 154.87 196.465 154.87 194.118V186.739C154.87 181.769 154.87 176.794 154.87 171.814C154.87 162.222 154.87 152.63 154.87 143.038C154.87 123.495 154.87 103.958 154.87 84.4261C154.87 83.5058 152.477 82.4167 152.477 83.3831L152.492 83.3677Z" fill="white"/>
<path d="M249.987 138.682C250.743 141.058 250.999 143.565 250.738 146.045C250.738 148.519 250.738 150.994 250.738 153.469C250.738 158.418 250.738 163.363 250.738 168.302C250.738 177.843 250.738 187.379 250.738 196.91C250.738 206.441 250.738 215.977 250.738 225.518C250.738 230.467 250.738 235.412 250.738 240.351C250.738 242.826 250.738 245.3 250.738 247.775C250.738 249.861 251.398 253.082 250.293 254.923C249.787 255.782 252.38 256.258 252.84 255.475C253.867 253.742 253.407 251.518 253.407 249.57C253.407 247.095 253.407 244.62 253.407 242.146C253.407 237.032 253.407 231.919 253.407 226.806C253.407 216.917 253.407 207.024 253.407 197.125C253.407 187.226 253.407 177.332 253.407 167.443C253.407 162.494 253.407 157.549 253.407 152.61C253.407 150.135 253.407 147.66 253.407 145.186C253.611 142.929 253.334 140.655 252.594 138.513C252.241 137.685 249.526 137.761 250.002 138.682H249.987Z" fill="white"/>
<path d="M144.576 80.7312C145.359 82.8787 144.76 86.1613 144.76 88.4008C144.76 90.6404 144.76 93.3861 144.76 95.8711C144.76 100.493 144.76 105.095 144.76 109.676C144.76 119.463 144.76 129.244 144.76 139.021C144.76 148.623 144.76 158.231 144.76 167.843C144.76 172.65 144.76 177.451 144.76 182.247C144.76 184.742 144.76 187.232 144.76 189.717C144.525 191.704 144.629 193.717 145.067 195.669C145.313 196.344 147.721 197.203 147.368 196.267C146.586 194.119 147.184 190.837 147.184 188.597C147.184 186.358 147.184 183.612 147.184 181.127C147.184 176.505 147.184 171.903 147.184 167.322C147.184 157.535 147.184 147.754 147.184 137.978C147.184 128.375 147.184 118.768 147.184 109.155C147.184 104.349 147.184 99.5474 147.184 94.7513C147.184 92.2561 147.184 89.766 147.184 87.2811C147.419 85.2941 147.315 83.2817 146.877 81.3294C146.632 80.6545 144.223 79.7955 144.576 80.7312Z" fill="white"/>
<path d="M2.36719 79.7322C2.36719 98.5382 2.36719 117.344 2.36719 136.15C2.36719 145.354 2.36719 154.557 2.36719 163.761C2.36719 168.373 2.36719 172.975 2.36719 177.566C2.36719 180.051 2.36719 182.536 2.36719 185.021C2.36719 187.338 2.95008 190.436 2.15244 192.614C1.64624 193.995 4.22326 194.716 4.72945 193.32C5.16245 191.304 5.25576 189.23 5.00555 187.184C5.00555 184.699 5.00555 182.214 5.00555 179.729C5.00555 175.117 5.00555 170.515 5.00555 165.924C5.00555 156.342 5.00555 146.76 5.00555 137.178C5.00555 118.014 5.00555 98.8552 5.00555 79.7015C5.00555 78.275 2.36719 78.0449 2.36719 79.5941V79.7322Z" fill="white"/>
<path d="M126.263 76.1296C127.214 78.2771 126.723 81.2376 126.723 83.5538V90.9934C126.723 95.6054 126.723 100.207 126.723 104.799C126.723 114.371 126.723 123.942 126.723 133.514C126.723 143.086 126.723 152.657 126.723 162.229C126.723 166.841 126.723 171.443 126.723 176.035V183.505C126.508 185.399 126.696 187.318 127.275 189.134C127.613 189.886 130.236 189.702 129.852 188.828C128.901 186.68 129.392 183.72 129.392 181.403V173.918C129.392 169.306 129.392 164.704 129.392 160.112C129.392 150.541 129.392 140.969 129.392 131.397C129.392 121.825 129.392 112.254 129.392 102.682C129.392 98.0699 129.392 93.4681 129.392 88.8766V81.4063C129.607 79.5119 129.419 77.5933 128.84 75.7768C128.502 75.0251 125.879 75.2092 126.263 76.0836V76.1296Z" fill="white"/>
<path d="M135.664 79.2893C135.664 98.4123 135.664 117.535 135.664 136.658C135.664 146.22 135.664 155.781 135.664 165.343C135.664 169.945 135.664 174.546 135.664 179.148C135.664 181.623 135.664 184.103 135.664 186.588C135.664 188.367 135.235 190.377 136.186 191.957C136.615 192.678 139.146 192.739 138.778 192.125C137.704 190.346 138.302 187.048 138.302 184.962C138.302 182.876 138.302 180.36 138.302 178.059C138.302 173.284 138.302 168.503 138.302 163.717C138.302 154.513 138.302 145.31 138.302 136.106C138.302 117.341 138.302 98.5759 138.302 79.8108C138.302 78.9211 135.664 78.599 135.664 79.32V79.2893Z" fill="white"/>
<path d="M12.1075 76.4344C11.2332 78.4132 11.6013 80.8521 11.6013 82.969V89.933C11.6013 94.7393 11.6013 99.5457 11.6013 104.352C11.6013 113.556 11.6013 122.81 11.6013 132.116C11.6013 150.984 11.6013 169.846 11.6013 188.703C11.6013 189.056 14.2704 189.071 14.2704 188.703C14.2704 169.836 14.2704 150.973 14.2704 132.116C14.2704 122.913 14.2704 113.658 14.2704 104.352C14.2704 99.7297 14.2704 95.1279 14.2704 90.5466V82.9997C14.2704 80.8521 13.9023 78.3979 14.7766 76.4651C14.7766 76.4651 12.353 75.8669 12.1075 76.4651V76.4344Z" fill="white"/>
<path d="M258.994 147.226C260.65 150.999 259.73 156.306 259.73 160.341C259.73 164.375 259.73 168.854 259.73 173.103C259.73 181.959 259.73 190.82 259.73 199.686C259.73 208.552 259.73 217.413 259.73 226.269C259.73 230.523 259.73 234.777 259.73 239.031V245.413C259.73 247.575 260.175 250.444 259.254 252.453C258.595 253.987 261.218 254.125 261.801 252.837C262.385 251.064 262.579 249.185 262.368 247.33V240.949C262.368 236.337 262.368 231.735 262.368 227.143C262.368 217.94 262.368 208.736 262.368 199.533C262.368 190.329 262.368 181.125 262.368 171.922C262.368 167.31 262.368 162.708 262.368 158.116C262.368 154.404 263.074 150.002 261.54 146.52C260.942 145.17 258.472 145.983 258.994 147.333V147.226Z" fill="white"/>
<path d="M268.32 156.643C269.777 159.956 269.087 164.313 269.087 167.81C269.087 171.706 269.087 175.603 269.087 179.499C269.087 187.117 269.087 194.736 269.087 202.354C269.087 209.973 269.087 217.591 269.087 225.21C269.087 229.106 269.087 233.002 269.087 236.898C269.087 240.411 269.777 244.66 268.304 247.943C268.151 248.296 270.421 247.774 270.743 247.053C272.277 243.755 271.526 239.552 271.526 236.009C271.526 232.113 271.526 228.216 271.526 224.32C271.526 216.344 271.526 208.372 271.526 200.406C271.526 192.614 271.526 184.816 271.526 177.014C271.526 173.118 271.526 169.221 271.526 165.325C271.526 162.119 272.047 158.515 270.728 155.493C270.467 154.91 268.044 156.014 268.32 156.643Z" fill="white"/>
<path d="M275.484 164.82C276.727 167.489 276.527 170.265 276.527 173.134C276.527 176.488 276.527 179.842 276.527 183.196C276.527 189.731 276.527 196.265 276.527 202.8C276.527 209.161 276.527 215.521 276.527 221.882C276.527 225.236 276.527 228.591 276.527 231.945C276.527 235.243 276.911 238.679 275.484 241.731C275.361 241.992 277.616 241.593 277.938 240.903C278.881 238.383 279.238 235.681 278.981 233.003C278.981 229.649 278.981 226.295 278.981 222.941C278.981 216.232 278.981 209.519 278.981 202.8C278.981 196.265 278.981 189.731 278.981 183.196C278.981 179.842 278.981 176.488 278.981 173.134C278.981 169.959 279.319 166.707 277.938 163.761C277.693 163.24 275.254 164.314 275.484 164.82Z" fill="white"/>
<path d="M285.131 176.312C286.22 180.622 285.882 185.178 285.867 189.595C285.852 194.013 285.867 198.293 285.867 202.634C285.867 206.975 285.867 210.978 285.867 215.151C285.867 219.323 286.158 223.848 285.1 228.051C284.947 228.649 286.757 230.183 286.803 229.999C287.861 225.781 287.585 221.409 287.57 217.099C287.554 212.789 287.57 208.064 287.57 203.539C287.57 199.014 287.57 194.504 287.57 189.979C287.802 185.957 287.528 181.922 286.757 177.968C286.619 177.431 284.993 175.836 285.115 176.327L285.131 176.312Z" fill="white"/>
</g>
</g>
</svg>
