<svg width="251" height="168" viewBox="0 0 251 168" fill="none" xmlns="http://www.w3.org/2000/svg">
<path fill-rule="evenodd" clip-rule="evenodd" d="M227.749 109.984L238.103 108.305C238.967 108.167 239.851 108.378 240.561 108.89C241.272 109.402 241.75 110.174 241.893 111.038L246.231 137.789L229.354 140.525L225.016 113.773C224.878 112.909 225.089 112.025 225.601 111.315C226.113 110.605 226.885 110.127 227.749 109.984Z" fill="#61C1B8"/>
<path fill-rule="evenodd" clip-rule="evenodd" d="M225.014 113.772L229.077 138.822L245.954 136.086C240.054 135.351 247.434 126.513 237.748 126.225C228.063 125.938 234.592 112.025 225.014 113.772Z" fill="url(#paint0_linear)"/>
<path fill-rule="evenodd" clip-rule="evenodd" d="M189.329 11.8842C200.28 24.5055 189.223 52.0279 164.634 73.3562C140.044 94.6844 111.231 101.742 100.279 89.1233C98.7373 87.3439 97.5408 85.4819 95.8211 83.4997C84.8692 70.8785 95.9262 43.356 120.516 22.0278C145.106 0.699529 173.918 -6.35816 184.87 6.26059C185.174 6.6093 185.46 6.97049 185.729 7.34423L189.329 11.8842Z" fill="#61C1B8"/>
<path fill-rule="evenodd" clip-rule="evenodd" d="M172.203 98.0687L182.557 96.3894C183.423 96.2507 184.308 96.4607 185.019 96.9734C185.731 97.4861 186.21 98.2597 186.352 99.1249L193.997 146.256L177.12 148.992L169.475 101.86C169.337 100.996 169.546 100.113 170.057 99.4022C170.568 98.6918 171.34 98.2124 172.203 98.0687Z" fill="#61C1B8"/>
<path fill-rule="evenodd" clip-rule="evenodd" d="M199.642 101.964L209.995 100.285C210.86 100.148 211.744 100.358 212.454 100.87C213.164 101.382 213.643 102.154 213.785 103.018L220.111 142.021L203.234 144.756L196.908 105.754C196.771 104.889 196.981 104.005 197.493 103.295C198.006 102.586 198.778 102.107 199.642 101.964Z" fill="#61C1B8"/>
<path fill-rule="evenodd" clip-rule="evenodd" d="M172.877 147.933L249.915 135.444C250.141 135.408 250.372 135.463 250.557 135.597C250.742 135.731 250.867 135.932 250.904 136.158C250.94 136.383 250.885 136.614 250.752 136.799C250.618 136.985 250.416 137.109 250.19 137.146L173.152 149.635C172.926 149.671 172.695 149.616 172.51 149.483C172.325 149.349 172.2 149.147 172.163 148.922C172.127 148.696 172.182 148.465 172.316 148.28C172.449 148.095 172.651 147.97 172.877 147.933Z" fill="#1EABC1"/>
<path d="M52.5937 134.079C64.594 134.079 74.3221 124.353 74.3221 112.356C74.3221 100.358 64.594 90.6318 52.5937 90.6318C40.5934 90.6318 30.8652 100.358 30.8652 112.356C30.8652 124.353 40.5934 134.079 52.5937 134.079Z" fill="#61C1B8"/>
<path fill-rule="evenodd" clip-rule="evenodd" d="M50.8266 132.17C55.1241 132.17 59.3251 130.896 62.8984 128.509C66.4716 126.122 69.2566 122.729 70.9012 118.76C72.5458 114.79 72.9761 110.422 72.1377 106.208C71.2993 101.994 69.2298 98.1235 66.191 95.0854C63.1522 92.0473 59.2806 89.9783 55.0657 89.1401C50.8507 88.3019 46.4819 88.7321 42.5115 90.3763C38.5411 92.0205 35.1476 94.8049 32.7601 98.3773C30.3725 101.95 29.0981 106.15 29.0981 110.446C29.1114 116.204 31.4049 121.722 35.4769 125.793C39.5489 129.864 45.0679 132.157 50.8266 132.17Z" fill="url(#paint1_linear)"/>
<path fill-rule="evenodd" clip-rule="evenodd" d="M50.8264 88.7256C56.3065 88.7207 61.5846 90.7939 65.5958 94.5269L50.8264 110.449L48.3882 88.8632C49.1977 88.7722 50.0117 88.7263 50.8264 88.7256Z" fill="#1EABC1"/>
<path fill-rule="evenodd" clip-rule="evenodd" d="M50.8264 88.7256C51.6401 88.7255 52.4533 88.7706 53.2621 88.8607L50.8264 110.449L48.3882 88.8632C49.1977 88.7722 50.0117 88.7263 50.8264 88.7256Z" fill="#61C1B8"/>
<path fill-rule="evenodd" clip-rule="evenodd" d="M192.191 135.173C182.977 134.039 193.536 117.381 180.944 116.527C168.245 115.666 179.082 98.8854 169.502 100.632C169.414 101.035 169.403 101.451 169.469 101.859L176.839 147.291L193.716 144.555L192.191 135.173Z" fill="url(#paint2_linear)"/>
<path fill-rule="evenodd" clip-rule="evenodd" d="M196.909 105.757L202.276 138.856L202.957 143.058L219.834 140.323C210.461 139.467 220.485 123.404 209.32 121.755C209.015 121.71 208.692 121.675 208.354 121.652C195.652 120.791 206.489 104.01 196.909 105.757Z" fill="url(#paint3_linear)"/>
<path opacity="0.5" d="M63.6167 70.9012C68.5164 70.9012 72.4883 66.9302 72.4883 62.0317C72.4883 57.1331 68.5164 53.1621 63.6167 53.1621C58.7171 53.1621 54.7451 57.1331 54.7451 62.0317C54.7451 66.9302 58.7171 70.9012 63.6167 70.9012Z" fill="#FF9E02"/>
<path opacity="0.5" d="M10.326 33.3331C16.0289 33.3331 20.6521 28.711 20.6521 23.0093C20.6521 17.3077 16.0289 12.6855 10.326 12.6855C4.62312 12.6855 0 17.3077 0 23.0093C0 28.711 4.62312 33.3331 10.326 33.3331Z" fill="#61C1B8"/>
<path opacity="0.5" d="M207.895 76.4268C213.598 76.4268 218.221 71.8047 218.221 66.1031C218.221 60.4014 213.598 55.7793 207.895 55.7793C202.192 55.7793 197.569 60.4014 197.569 66.1031C197.569 71.8047 202.192 76.4268 207.895 76.4268Z" fill="#FF9E02"/>
<path opacity="0.5" d="M80.6743 1.81055H75.2096C73.7884 1.81055 72.6362 2.96244 72.6362 4.38337V9.8468C72.6362 11.2677 73.7884 12.4196 75.2096 12.4196H80.6743C82.0955 12.4196 83.2476 11.2677 83.2476 9.8468V4.38337C83.2476 2.96244 82.0955 1.81055 80.6743 1.81055Z" fill="#138175"/>
<path opacity="0.5" d="M19.6002 76.5156H17.112C16.4649 76.5156 15.9404 77.04 15.9404 77.6869V80.1746C15.9404 80.8215 16.4649 81.3459 17.112 81.3459H19.6002C20.2472 81.3459 20.7717 80.8215 20.7717 80.1746V77.6869C20.7717 77.04 20.2472 76.5156 19.6002 76.5156Z" fill="#450059"/>
<path opacity="0.5" d="M149.149 100.047H146.331C145.599 100.047 145.006 100.64 145.006 101.371V104.189C145.006 104.92 145.599 105.513 146.331 105.513H149.149C149.881 105.513 150.473 104.92 150.473 104.189V101.371C150.473 100.64 149.881 100.047 149.149 100.047Z" fill="#138175"/>
<path opacity="0.5" d="M101.836 107.197H93.8054C92.7754 107.197 91.9404 108.032 91.9404 109.062V117.09C91.9404 118.12 92.7754 118.955 93.8054 118.955H101.836C102.866 118.955 103.701 118.12 103.701 117.09V109.062C103.701 108.032 102.866 107.197 101.836 107.197Z" fill="#138175"/>
<path fill-rule="evenodd" clip-rule="evenodd" d="M92.4062 153.951L107.266 167.268L111.241 158.298L100.196 144.248L92.4062 153.951Z" fill="white"/>
<path opacity="0.8" fill-rule="evenodd" clip-rule="evenodd" d="M58.3723 34.1912L54.5623 31.2329L57.5212 27.4238C57.6465 27.2624 57.7027 27.058 57.6774 26.8552C57.652 26.6525 57.5472 26.4681 57.386 26.3426L57.1357 26.1524C56.9743 26.0271 56.7697 25.9708 56.567 25.9962C56.3642 26.0215 56.1798 26.1264 56.0542 26.2876L53.0954 30.0967L49.2854 27.1385C49.124 27.0131 48.9195 26.957 48.7167 26.9823C48.5139 27.0077 48.3295 27.1124 48.204 27.2736L48.0137 27.5239C47.8884 27.6853 47.8322 27.8897 47.8575 28.0925C47.8829 28.2952 47.9877 28.4796 48.1489 28.6051L51.9589 31.5633L49 35.3725C48.8747 35.5338 48.8184 35.7383 48.8438 35.941C48.8691 36.1438 48.9739 36.3282 49.1352 36.4537L49.3855 36.6439C49.5469 36.7693 49.7514 36.8254 49.9542 36.8001C50.157 36.7747 50.3414 36.67 50.4669 36.5087L53.4258 32.6996L57.2358 35.6578C57.3971 35.7832 57.6017 35.8394 57.8045 35.814C58.0073 35.7887 58.1917 35.6839 58.3172 35.5227L58.5075 35.2724C58.6328 35.1111 58.689 34.9066 58.6637 34.7038C58.6383 34.5011 58.5335 34.3167 58.3723 34.1912Z" fill="#FBFBFB"/>
<path opacity="0.8" fill-rule="evenodd" clip-rule="evenodd" d="M11.6244 91.5046L8.84332 88.7241L11.6244 85.9436C11.6828 85.8852 11.7291 85.8159 11.7607 85.7397C11.7922 85.6635 11.8085 85.5819 11.8085 85.4993C11.8085 85.4168 11.7922 85.3351 11.7607 85.2589C11.7291 85.1827 11.6828 85.1134 11.6244 85.0551L11.4467 84.8774C11.3884 84.8191 11.3191 84.7728 11.2428 84.7412C11.1666 84.7096 11.0849 84.6934 11.0024 84.6934C10.9199 84.6934 10.8381 84.7096 10.7619 84.7412C10.6857 84.7728 10.6164 84.8191 10.558 84.8774L7.77693 87.6579L5.00584 84.8849C4.94749 84.8266 4.8782 84.7803 4.80196 84.7487C4.72572 84.7171 4.64403 84.7009 4.5615 84.7009C4.47898 84.7009 4.39726 84.7171 4.32102 84.7487C4.24478 84.7803 4.17552 84.8266 4.11717 84.8849L3.93945 85.0626C3.88109 85.1209 3.83478 85.1902 3.80319 85.2664C3.77161 85.3427 3.75537 85.4244 3.75537 85.5069C3.75537 85.5894 3.77161 85.671 3.80319 85.7472C3.83478 85.8235 3.88109 85.8927 3.93945 85.9511L6.72056 88.7316L3.93945 91.5121C3.88109 91.5704 3.83478 91.6397 3.80319 91.7159C3.77161 91.7921 3.75537 91.8738 3.75537 91.9563C3.75537 92.0388 3.77161 92.1205 3.80319 92.1967C3.83478 92.273 3.88109 92.3422 3.93945 92.4006L4.11717 92.5783C4.17552 92.6366 4.24478 92.6829 4.32102 92.7144C4.39726 92.746 4.47898 92.7623 4.5615 92.7623C4.64403 92.7623 4.72572 92.746 4.80196 92.7144C4.8782 92.6829 4.94749 92.6366 5.00584 92.5783L7.78695 89.7977L10.5681 92.5783C10.6264 92.6366 10.6957 92.6829 10.7719 92.7144C10.8482 92.746 10.9299 92.7623 11.0124 92.7623C11.0949 92.7623 11.1766 92.746 11.2529 92.7144C11.3291 92.6829 11.3984 92.6366 11.4567 92.5783L11.6345 92.4006C11.6933 92.3414 11.7398 92.2712 11.7712 92.1939C11.8026 92.1166 11.8182 92.0339 11.8173 91.9505C11.8164 91.8671 11.7988 91.7847 11.7657 91.7082C11.7326 91.6316 11.6846 91.5624 11.6244 91.5046Z" fill="#FBFBFB"/>
<path opacity="0.8" fill-rule="evenodd" clip-rule="evenodd" d="M159.982 165.613L157.744 163.376L159.879 161.241C159.968 161.145 160.016 161.019 160.012 160.888C160.009 160.758 159.955 160.634 159.862 160.543L159.719 160.4C159.628 160.307 159.504 160.252 159.373 160.249C159.243 160.246 159.116 160.294 159.021 160.382L156.885 162.517L154.647 160.28C154.556 160.186 154.432 160.132 154.302 160.129C154.171 160.126 154.045 160.174 153.949 160.262L153.814 160.397C153.725 160.493 153.677 160.619 153.679 160.75C153.682 160.88 153.736 161.004 153.829 161.096L156.067 163.333L153.931 165.468C153.843 165.564 153.795 165.69 153.798 165.821C153.802 165.951 153.856 166.075 153.949 166.166L154.092 166.309C154.183 166.402 154.307 166.456 154.437 166.46C154.568 166.463 154.694 166.415 154.79 166.326L156.925 164.192L159.163 166.429C159.254 166.522 159.378 166.576 159.509 166.58C159.639 166.583 159.766 166.535 159.862 166.446L159.999 166.309C160.087 166.213 160.135 166.087 160.131 165.957C160.128 165.828 160.074 165.704 159.982 165.613Z" fill="#FBFBFB"/>
<path fill-rule="evenodd" clip-rule="evenodd" d="M170.136 0.0419922L138.094 45.8845L146.157 48.555L178.199 1.65374C175.618 0.677142 172.894 0.132603 170.136 0.0419922Z" fill="#1EABC1"/>
<path fill-rule="evenodd" clip-rule="evenodd" d="M188.815 15.1217C191.028 29.3147 180.001 50.5354 160.175 67.7292C135.586 89.0575 106.773 96.1152 95.821 83.4964C84.8692 70.8776 95.9262 43.3526 120.516 22.0243C138.62 6.32209 159.009 -1.64165 172.877 0.282958L140.334 44.8792L188.815 15.1217Z" fill="url(#paint4_linear)"/>
<path opacity="0.8" fill-rule="evenodd" clip-rule="evenodd" d="M98.7325 29.2321L96.5972 27.0973L98.7325 24.9624C98.7774 24.9176 98.813 24.8643 98.8373 24.8057C98.8616 24.7471 98.8741 24.6842 98.8741 24.6208C98.8741 24.5573 98.8616 24.4945 98.8373 24.4359C98.813 24.3773 98.7774 24.324 98.7325 24.2792L98.5948 24.1415C98.55 24.0966 98.4967 24.0611 98.4381 24.0368C98.3794 24.0125 98.3166 24 98.2531 24C98.1897 24 98.1268 24.0125 98.0682 24.0368C98.0096 24.0611 97.9563 24.0966 97.9114 24.1415L95.7761 26.2764L93.6408 24.1415C93.596 24.0966 93.5427 24.0611 93.4841 24.0368C93.4255 24.0125 93.3626 24 93.2992 24C93.2357 24 93.1728 24.0125 93.1142 24.0368C93.0556 24.0611 93.0023 24.0966 92.9575 24.1415L92.8198 24.2767C92.7749 24.3215 92.7393 24.3748 92.715 24.4334C92.6907 24.492 92.6782 24.5548 92.6782 24.6183C92.6782 24.6817 92.6907 24.7446 92.715 24.8032C92.7393 24.8618 92.7749 24.9151 92.8198 24.9599L94.9551 27.0948L92.8198 29.2296C92.7749 29.2744 92.7393 29.3277 92.715 29.3863C92.6907 29.4449 92.6782 29.5078 92.6782 29.5712C92.6782 29.6347 92.6907 29.6975 92.715 29.7561C92.7393 29.8147 92.7749 29.868 92.8198 29.9128L92.9575 30.0505C93.0023 30.0954 93.0556 30.1309 93.1142 30.1552C93.1728 30.1795 93.2357 30.192 93.2992 30.192C93.3626 30.192 93.4255 30.1795 93.4841 30.1552C93.5427 30.1309 93.596 30.0954 93.6408 30.0505L95.7761 27.9157L97.9114 30.0505C97.9563 30.0954 98.0096 30.1309 98.0682 30.1552C98.1268 30.1795 98.1897 30.192 98.2531 30.192C98.3166 30.192 98.3794 30.1795 98.4381 30.1552C98.4967 30.1309 98.55 30.0954 98.5948 30.0505L98.7325 29.9128C98.8224 29.8223 98.8728 29.7 98.8728 29.5725C98.8728 29.445 98.8224 29.3226 98.7325 29.2321Z" fill="#FBFBFB"/>
<defs>
<linearGradient id="paint0_linear" x1="250.259" y1="123.095" x2="245.108" y2="135.496" gradientUnits="userSpaceOnUse">
<stop stop-color="#61C19E"/>
<stop offset="1" stop-color="#348880"/>
</linearGradient>
<linearGradient id="paint1_linear" x1="81.4892" y1="105.057" x2="73.7604" y2="127.458" gradientUnits="userSpaceOnUse">
<stop stop-color="#61C19E"/>
<stop offset="1" stop-color="#348880"/>
</linearGradient>
<linearGradient id="paint2_linear" x1="198.709" y1="118.095" x2="186.265" y2="136.816" gradientUnits="userSpaceOnUse">
<stop stop-color="#61C19E"/>
<stop offset="1" stop-color="#348880"/>
</linearGradient>
<linearGradient id="paint3_linear" x1="224.547" y1="119.702" x2="215.312" y2="136.093" gradientUnits="userSpaceOnUse">
<stop stop-color="#61C19E"/>
<stop offset="1" stop-color="#348880"/>
</linearGradient>
<linearGradient id="paint4_linear" x1="209.14" y1="33.7455" x2="194.197" y2="80.7845" gradientUnits="userSpaceOnUse">
<stop stop-color="#61C19E"/>
<stop offset="1" stop-color="#348880"/>
</linearGradient>
</defs>
</svg>
