<svg width="342" height="217" viewBox="0 0 342 217" fill="none" xmlns="http://www.w3.org/2000/svg">
<path opacity="0.3" d="M25.7205 216.903C25.7205 216.903 -3.28729 162.809 28.4526 104.248C56.624 52.2834 101.063 93.6017 126.237 40.7326C160.584 -31.3691 331.954 -3.2159 310.251 107.713C299.754 161.389 357.923 163.352 336.275 217L25.7205 216.903Z" fill="#61C1B8"/>
<path d="M258.115 108.826C258.115 108.826 251.675 100.309 258.519 95.5776C258.519 95.5776 263.454 93.003 267.315 93.4762C267.315 93.4762 261.238 102.341 262.966 103.357C264.681 104.387 269.016 93.003 269.016 93.003C269.016 93.003 279.902 92.6273 283.29 94.5199C283.29 94.5199 273.56 101.506 275.484 102.077C277.407 102.647 287.862 95.8559 287.862 95.8559C287.862 95.8559 297.828 98.1939 296.908 104.303C295.988 110.413 292.392 112.083 290.887 111.832C289.367 111.568 280.655 107.615 280.39 108.854C280.111 110.093 285.241 114.504 288.991 114.936C288.991 114.936 281.394 122.311 276.822 119.765C272.236 117.218 272.069 113.613 269.211 112.083C266.353 110.552 263.844 110.399 264.973 111.846C266.102 113.293 271.344 114.949 272.849 118.025C274.341 121.101 275.735 123.202 270.898 122.158C266.061 121.115 258.338 117.051 258.255 112.945C258.115 108.826 258.115 108.826 258.115 108.826Z" fill="#138175"/>
<path d="M291.947 104.136C291.947 104.136 264.654 101.381 258.116 108.812C258.116 108.812 256.527 112.723 252.192 116.105L251.439 117.802C251.439 117.802 256.499 113.113 258.214 112.904C258.214 112.932 256.165 103.079 291.947 104.136Z" fill="#138175"/>
<path d="M252.192 116.119C252.192 116.119 246.044 120.085 245.152 127.809L246.212 127.976C246.212 127.976 248.595 120.085 252.178 117.163C255.774 114.226 252.192 116.119 252.192 116.119Z" fill="#138175"/>
<path d="M226.559 88.4665C226.559 88.4665 212.285 80.4923 218.948 69.6652C218.948 69.6652 224.273 63.0131 229.988 61.3153C229.988 61.3153 226.949 77.4585 229.988 77.8343C233.027 78.21 232.079 59.6036 232.079 59.6036C232.079 59.6036 247.105 52.3808 253.002 52.9514C253.002 52.9514 243.676 68.7189 246.729 68.3292C249.768 67.9535 260.236 51.9912 260.236 51.9912C260.236 51.9912 275.639 49.1383 278.12 58.2536C280.588 67.369 276.601 71.9336 274.315 72.5042C272.029 73.0748 257.379 72.88 257.769 74.7865C258.145 76.6792 268.042 79.7269 273.562 78.0152C273.562 78.0152 267.471 93.0173 259.483 92.2658C251.496 91.5004 249.015 86.5739 244.08 86.1842C239.132 85.8085 235.522 87.1306 237.989 88.4665C240.456 89.8025 248.834 88.898 252.82 92.2936C256.821 95.6893 260.055 97.7767 252.625 99.2936C245.21 100.811 231.883 99.8642 229.221 94.1723C226.559 88.4665 226.559 88.4665 226.559 88.4665Z" fill="#95DC8F"/>
<path d="M271.068 61.1064C271.068 61.1064 231.118 74.021 226.559 88.4525C226.559 88.4525 226.754 94.9098 222.754 102.313V105.166C222.754 105.166 226.936 95.4804 229.222 94.1444C229.222 94.1583 220.273 81.6195 271.068 61.1064Z" fill="#138175"/>
<path d="M222.753 102.328C222.753 102.328 216.592 111.666 220.105 123.036L221.694 122.604C221.694 122.604 220.161 110.079 223.381 103.789C226.587 97.4848 222.753 102.328 222.753 102.328Z" fill="#138175"/>
<path d="M151.314 92.5436C151.314 92.5436 167.916 85.5296 161.936 72.8655C161.936 72.8655 156.904 64.9331 150.854 62.3724C150.854 62.3724 152.234 80.4362 148.847 80.4779C145.46 80.5197 148.764 60.2432 148.764 60.2432C148.764 60.2432 133.165 50.5155 126.642 50.432C126.642 50.432 134.95 68.8297 131.66 68.0504C128.37 67.2711 118.836 48.5115 118.836 48.5115C118.836 48.5115 102.29 43.5294 98.4843 53.2153C94.6649 62.9013 98.4982 68.3844 100.924 69.289C103.349 70.1936 119.435 71.7522 118.78 73.784C118.139 75.8159 106.918 77.959 101.091 75.4123C101.091 75.4123 105.942 92.5853 114.793 92.7245C123.645 92.8637 126.948 87.7424 132.413 87.9233C137.877 88.1042 141.682 89.9968 138.811 91.1519C135.939 92.307 126.879 90.3169 122.084 93.5456C117.288 96.7742 113.497 98.6808 121.442 101.241C129.388 103.802 144.094 104.373 147.704 98.4581C151.314 92.5436 151.314 92.5436 151.314 92.5436Z" fill="#95DC8F"/>
<path d="M105.858 57.1953C105.858 57.1953 148.067 76.1775 151.315 92.5573C151.315 92.5573 150.325 99.613 153.796 108.213L153.447 111.331C153.447 111.331 150.032 100.211 147.69 98.4719C147.704 98.4719 159.023 85.8217 105.858 57.1953Z" fill="#138175"/>
<path d="M153.81 108.2C153.81 108.2 159.427 119.18 154.2 131.218L152.513 130.564C152.513 130.564 155.72 117.023 152.946 109.731C150.172 102.439 153.81 108.2 153.81 108.2Z" fill="#138175"/>
<path d="M117.261 133.263C114.333 129.032 113.999 125.108 113.999 125.108C113.999 125.108 122.111 119.29 117.33 113.167C117.33 113.167 113.636 109.493 110.054 108.839C110.054 108.839 113.009 118.442 111.183 118.873C109.357 119.318 108.66 107.948 108.66 107.948C108.66 107.948 99.0419 104.595 95.5013 105.346C95.5013 105.346 102.248 114.281 100.366 114.267C98.4982 114.239 91.0407 105.263 91.0407 105.263C91.0407 105.263 81.4922 104.581 80.614 110.286C79.7359 115.992 82.4819 118.483 83.9037 118.678C85.3255 118.873 94.2188 117.746 94.1073 118.929C94.0098 120.112 88.211 122.63 84.7401 121.962C84.7401 121.962 89.4655 130.66 94.2607 129.658C99.0558 128.656 100.227 125.483 103.196 124.913C106.179 124.342 108.465 124.899 107.043 125.887C105.635 126.861 100.492 126.889 98.2891 129.227C96.1007 131.565 94.2746 133.054 98.8885 133.471C103.502 133.889 111.518 132.4 112.744 128.754C112.8 128.601 112.842 128.448 112.898 128.295C112.828 128.587 112.744 128.754 112.744 128.754C113.636 129.143 115.142 131.314 116.201 132.984C116.355 133.277 116.605 133.666 116.954 134.195C117.093 134.432 117.219 134.64 117.302 134.78C119.338 138.565 119.268 145.509 119.268 145.509L120.258 145.662C121.651 138.509 117.261 133.263 117.261 133.263Z" fill="#138175"/>
<path d="M101.606 112.904L181.144 65.3646C185.535 62.7483 191 62.7483 195.39 65.3646L274.928 112.904V190.391L101.606 181.707V112.904Z" fill="#ED7D2B"/>
<path d="M259.999 78.5713H116.521V202.373H259.999V78.5713Z" fill="#FCECDB"/>
<path d="M122.376 85.4464C123.192 85.4464 123.854 84.786 123.854 83.9713C123.854 83.1565 123.192 82.4961 122.376 82.4961C121.56 82.4961 120.898 83.1565 120.898 83.9713C120.898 84.786 121.56 85.4464 122.376 85.4464Z" fill="#EFCBAB"/>
<path d="M254.061 85.4464C254.877 85.4464 255.539 84.786 255.539 83.9713C255.539 83.1565 254.877 82.4961 254.061 82.4961C253.245 82.4961 252.583 83.1565 252.583 83.9713C252.583 84.786 253.245 85.4464 254.061 85.4464Z" fill="#EFCBAB"/>
<path d="M254.061 83.8184H122.376V84.1385H254.061V83.8184Z" fill="#EFCBAB"/>
<path d="M122.543 83.3867H122.223V214.857H122.543V83.3867Z" fill="#EFCBAB"/>
<path d="M254.269 83.3867H253.949V214.857H254.269V83.3867Z" fill="#EFCBAB"/>
<path d="M274.929 112.695V216.29H101.607V112.695L188.268 164.493L274.929 112.695Z" fill="#FFAB2F"/>
<path d="M101.606 216.29L180.991 159.469C185.34 156.352 191.195 156.352 195.544 159.469L274.928 216.29H101.606Z" fill="#ED7D2B"/>
<path d="M214.725 95.7311H162.41C161.658 95.7311 161.03 95.1048 161.03 94.3533C161.03 93.6018 161.658 92.9756 162.41 92.9756H214.725C215.477 92.9756 216.105 93.6018 216.105 94.3533C216.105 95.1048 215.477 95.7311 214.725 95.7311Z" fill="#EFCBAB"/>
<path d="M228.19 101.255H148.931C148.178 101.255 147.551 100.629 147.551 99.8777C147.551 99.1262 148.178 98.5 148.931 98.5H228.19C228.957 98.5 229.57 99.1262 229.57 99.8777C229.584 100.643 228.957 101.255 228.19 101.255Z" fill="#EFCBAB"/>
<path d="M217.917 118.414H160.571C160.027 118.414 159.567 117.969 159.567 117.412C159.567 116.869 160.013 116.41 160.571 116.41H217.917C218.461 116.41 218.921 116.855 218.921 117.412C218.921 117.969 218.461 118.414 217.917 118.414Z" fill="#EFCBAB"/>
<path d="M166.328 123.633H150.158C149.614 123.633 149.154 123.188 149.154 122.631C149.154 122.088 149.6 121.629 150.158 121.629H166.328C166.871 121.629 167.331 122.074 167.331 122.631C167.331 123.174 166.871 123.633 166.328 123.633Z" fill="#EFCBAB"/>
<path d="M190.708 123.633H171.165C170.621 123.633 170.161 123.188 170.161 122.631C170.161 122.088 170.607 121.629 171.165 121.629H190.708C191.251 121.629 191.711 122.074 191.711 122.631C191.711 123.174 191.265 123.633 190.708 123.633Z" fill="#EFCBAB"/>
<path d="M228.33 123.633H194.555C194.011 123.633 193.551 123.188 193.551 122.631C193.551 122.088 193.997 121.629 194.555 121.629H228.33C228.874 121.629 229.334 122.074 229.334 122.631C229.334 123.174 228.874 123.633 228.33 123.633Z" fill="#EFCBAB"/>
<path d="M190.847 129.687H159.428C158.884 129.687 158.424 129.241 158.424 128.685C158.424 128.142 158.87 127.683 159.428 127.683H190.847C191.391 127.683 191.851 128.128 191.851 128.685C191.837 129.241 191.391 129.687 190.847 129.687Z" fill="#EFCBAB"/>
<path d="M219.06 129.687H194.318C193.774 129.687 193.314 129.241 193.314 128.685C193.314 128.142 193.761 127.683 194.318 127.683H219.06C219.604 127.683 220.064 128.128 220.064 128.685C220.05 129.241 219.604 129.687 219.06 129.687Z" fill="#EFCBAB"/>
<path d="M199.67 142.003C197.774 143.576 195.753 144.87 193.634 146.067C193.816 145.51 193.969 144.912 193.941 144.397C193.899 143.673 193.328 143.367 192.756 143.061C192.617 142.991 192.477 142.908 192.352 142.824C192.575 142.601 192.687 142.309 192.547 141.975C192.31 141.432 191.627 141.516 191.39 142.017C191.348 142.114 191.32 142.198 191.307 142.295C191.209 142.24 191.139 142.198 191.083 142.114C191.432 141.46 191.767 140.792 192.073 140.124C192.143 139.971 192.059 139.79 191.934 139.693C191.432 139.317 190.735 139.442 190.331 139.916C189.843 140.486 189.968 141.349 190.205 141.989C190.219 142.031 190.233 142.073 190.261 142.128C189.815 142.935 189.327 143.715 188.811 144.466C188.77 144.411 188.714 144.369 188.658 144.327C188.519 144.202 188.379 144.021 188.254 143.84C188.491 143.228 188.644 142.574 188.7 141.892C188.728 141.586 188.421 141.446 188.17 141.53C187.473 141.794 187.097 142.504 187.18 143.228C187.208 143.478 187.292 143.715 187.404 143.937C187.25 144.271 187.069 144.605 186.846 144.926C186.707 145.134 186.804 145.343 186.971 145.44C186.748 146.206 186.428 146.985 185.912 147.528C185.48 147.973 184.671 148.321 184.156 147.778C183.821 147.444 183.779 146.874 183.737 146.428C183.626 145.329 183.542 144.188 183.584 143.089C183.598 142.56 183.654 142.031 183.835 141.544C183.947 141.238 184.1 140.764 184.253 141.307C184.323 141.572 184.225 141.975 184.197 142.24C184.156 142.713 184.88 142.768 184.936 142.295C184.992 141.739 185.243 140.584 184.616 140.236C184.1 139.943 183.612 140.361 183.375 140.792C182.511 142.351 182.859 144.48 182.985 146.164C183.082 147.514 183.598 149.156 185.313 148.739C186.93 148.335 187.529 146.303 187.905 144.898C187.933 144.814 187.919 144.731 187.891 144.661C187.891 144.647 187.905 144.633 187.905 144.633C187.975 144.703 188.045 144.772 188.114 144.842C188.212 144.926 188.296 145.009 188.393 145.106C188.226 145.343 188.045 145.58 187.877 145.802C187.78 145.928 187.808 146.136 187.905 146.248C188.449 146.902 189.425 146.415 189.411 145.607C189.411 145.427 189.355 145.26 189.285 145.106C189.801 144.369 190.275 143.617 190.721 142.838C190.958 143.061 191.251 143.214 191.599 143.186C191.627 143.186 191.655 143.186 191.669 143.172C191.864 143.367 192.087 143.534 192.31 143.659C192.519 143.77 192.756 143.854 192.951 144.007C193.3 144.299 193.202 144.619 193.119 145.023C193.021 145.552 192.854 146.095 192.687 146.609C191.948 147.027 191.223 147.57 190.972 148.419C190.749 149.198 190.944 150.019 191.613 150.492C191.808 150.631 192.073 150.52 192.171 150.311C192.589 149.281 192.965 148.238 193.286 147.18C193.3 147.152 193.314 147.11 193.314 147.083C193.969 146.707 194.652 146.387 195.293 145.997C197.008 144.981 198.639 143.826 200.172 142.56C200.52 142.254 200.033 141.697 199.67 142.003ZM190.721 141.029C190.721 140.737 190.874 140.194 191.209 140.208C191.056 140.542 190.902 140.862 190.735 141.196C190.735 141.126 190.721 141.085 190.721 141.029ZM191.655 149.518C191.348 148.933 191.794 148.224 192.296 147.751C192.101 148.349 191.892 148.933 191.655 149.518Z" fill="#F99746"/>
<path opacity="0.5" d="M185.173 27.7344L192.645 44.1977L165.1 56.653L157.629 40.2036L175.137 42.1937L185.173 27.7344Z" fill="#CDE0FB"/>
<path opacity="0.5" d="M157.629 40.2053L185.159 27.75L176.921 41.597C176.266 42.6825 175.011 43.267 173.757 43.0443L157.629 40.2053Z" fill="#B1CFF2"/>
<path opacity="0.5" d="M23.2802 135.198L27.2111 145.719L9.6057 152.274L5.6748 141.753L16.4499 143.743L23.2802 135.198Z" fill="#CDE0FB"/>
<path opacity="0.5" d="M5.6748 141.753L23.2802 135.198L17.579 143.437C17.133 144.091 16.3245 144.397 15.5578 144.202L5.6748 141.753Z" fill="#B1CFF2"/>
<path opacity="0.5" d="M324.789 72.5741L319.269 93.2263L284.699 84.0275L290.219 63.3613L304.744 78.2938L324.789 72.5741Z" fill="#CDE0FB"/>
<path opacity="0.5" d="M290.22 63.3613L324.789 72.5741L306.849 79.087C305.428 79.602 303.852 79.1845 302.863 78.0433L290.22 63.3613Z" fill="#B1CFF2"/>
<path d="M15.6978 181.736C14.8615 181.736 14.053 181.722 13.2863 181.694C13.2027 181.694 13.133 181.625 13.133 181.527C13.133 181.444 13.2027 181.374 13.3003 181.374C14.0669 181.402 14.8754 181.402 15.6978 181.402C15.7815 181.402 15.8512 181.471 15.8512 181.569C15.8512 181.652 15.7815 181.736 15.6978 181.736ZM18.1093 181.708C18.0257 181.708 17.956 181.638 17.956 181.555C17.956 181.471 18.0257 181.388 18.1093 181.388C18.876 181.374 19.6845 181.36 20.5209 181.332C20.6184 181.318 20.6881 181.402 20.6881 181.485C20.6881 181.569 20.6184 181.652 20.5348 181.652C19.6984 181.68 18.876 181.694 18.1093 181.708ZM10.8888 181.597C10.8888 181.597 10.8748 181.597 10.8888 181.597C10.0245 181.541 9.21604 181.485 8.47726 181.402C8.39362 181.388 8.32393 181.318 8.33786 181.221C8.3518 181.137 8.4215 181.068 8.51908 181.082C9.25786 181.165 10.0663 181.221 10.9027 181.277C10.9863 181.277 11.056 181.36 11.056 181.444C11.0421 181.527 10.9724 181.597 10.8888 181.597ZM22.9184 181.555C22.8348 181.555 22.7651 181.485 22.7651 181.402C22.7651 181.318 22.8348 181.235 22.9184 181.235C23.6851 181.193 24.4936 181.151 25.316 181.11C25.3996 181.11 25.4833 181.165 25.4833 181.263C25.4833 181.346 25.4275 181.43 25.3299 181.43C24.5075 181.471 23.699 181.513 22.9184 181.555C22.9324 181.555 22.9184 181.555 22.9184 181.555ZM27.7275 181.277C27.6439 181.277 27.5742 181.207 27.5742 181.124C27.5742 181.04 27.6299 180.957 27.7275 180.957C28.522 180.901 29.3166 180.845 30.1251 180.79C30.2087 180.79 30.2923 180.845 30.2923 180.943C30.2923 181.026 30.2366 181.11 30.139 181.11C29.3305 181.165 28.536 181.221 27.7275 181.277C27.7414 181.277 27.7414 181.277 27.7275 181.277ZM6.10757 181.068C6.09363 181.068 6.09363 181.068 6.07969 181.068C5.18757 180.915 4.40697 180.72 3.72394 180.497C3.6403 180.469 3.59849 180.386 3.62637 180.302C3.65424 180.219 3.73788 180.177 3.82152 180.205C4.4906 180.414 5.27121 180.609 6.13545 180.762C6.21908 180.776 6.27484 180.859 6.2609 180.943C6.24696 181.012 6.17727 181.068 6.10757 181.068ZM32.5366 180.915C32.4529 180.915 32.3832 180.845 32.3832 180.762C32.3693 180.678 32.439 180.595 32.5226 180.595C33.3172 180.525 34.1117 180.456 34.9202 180.386C35.0038 180.372 35.0875 180.442 35.1014 180.525C35.1154 180.609 35.0457 180.692 34.962 180.706C34.1396 180.776 33.3451 180.845 32.5366 180.915C32.5505 180.915 32.5366 180.915 32.5366 180.915ZM37.3317 180.483C37.2481 180.483 37.1784 180.428 37.1784 180.344C37.1644 180.261 37.2341 180.177 37.3178 180.163C38.1123 180.08 38.9069 180.01 39.7153 179.927C39.799 179.913 39.8826 179.982 39.8965 180.066C39.9105 180.149 39.8408 180.233 39.7572 180.247C38.9487 180.33 38.1541 180.414 37.3596 180.483C37.3456 180.483 37.3456 180.483 37.3317 180.483ZM42.1268 179.982C42.0432 179.982 41.9735 179.927 41.9735 179.843C41.9596 179.76 42.0293 179.676 42.1129 179.662C42.9074 179.579 43.702 179.495 44.5105 179.398C44.5941 179.384 44.6777 179.454 44.6917 179.537C44.7056 179.621 44.6359 179.704 44.5523 179.718C43.7438 179.801 42.9493 179.899 42.1547 179.982C42.1408 179.982 42.1268 179.982 42.1268 179.982ZM1.60516 179.481C1.57728 179.481 1.53546 179.467 1.50758 179.454C1.04759 179.12 0.713041 178.73 0.503951 178.312C0.364558 178.006 0.239104 177.7 0.141528 177.408C0.11365 177.324 0.155468 177.227 0.253043 177.213C0.336679 177.185 0.434254 177.227 0.448194 177.324C0.53183 177.603 0.657284 177.895 0.782738 178.187C0.95001 178.549 1.25668 178.897 1.67486 179.203C1.74455 179.259 1.75849 179.356 1.71667 179.426C1.70274 179.467 1.64698 179.481 1.60516 179.481ZM46.908 179.454C46.8244 179.454 46.7547 179.398 46.7547 179.314C46.7408 179.231 46.8105 179.147 46.8941 179.133C47.6886 179.036 48.4832 178.953 49.2917 178.855C49.3753 178.841 49.4589 178.911 49.4729 178.994C49.4868 179.078 49.4171 179.161 49.3335 179.175C48.5389 179.273 47.7305 179.37 46.9359 179.454C46.922 179.454 46.922 179.454 46.908 179.454ZM51.6892 178.869C51.6056 178.869 51.5359 178.813 51.5359 178.73C51.522 178.646 51.5917 178.563 51.6753 178.549C52.4698 178.452 53.2644 178.354 54.0589 178.243C54.1426 178.229 54.2262 178.298 54.2401 178.382C54.2541 178.465 54.1844 178.549 54.1007 178.563C53.3062 178.66 52.5117 178.772 51.7171 178.869C51.7032 178.869 51.7032 178.869 51.6892 178.869ZM56.4565 178.257C56.3729 178.257 56.3032 178.201 56.3032 178.118C56.2892 178.034 56.3589 177.951 56.4426 177.937C57.2371 177.825 58.0316 177.728 58.8262 177.617C58.9098 177.603 58.9935 177.672 59.0074 177.756C59.0213 177.839 58.9516 177.923 58.868 177.937C58.0735 178.048 57.2789 178.145 56.4844 178.257C56.4704 178.257 56.4704 178.257 56.4565 178.257ZM61.2377 177.617C61.1541 177.617 61.0844 177.561 61.0844 177.477C61.0704 177.394 61.1401 177.31 61.2237 177.296C62.0183 177.185 62.8128 177.074 63.6074 176.962C63.691 176.949 63.7747 177.004 63.7886 177.102C63.8025 177.185 63.7468 177.269 63.6492 177.283C62.8547 177.394 62.0601 177.505 61.2656 177.617C61.2516 177.617 61.2516 177.617 61.2377 177.617ZM66.0049 176.935C65.9213 176.935 65.8516 176.879 65.8516 176.795C65.8377 176.712 65.8934 176.628 65.991 176.615C66.7856 176.503 67.5801 176.392 68.3746 176.267C68.4583 176.253 68.5419 176.308 68.5558 176.406C68.5698 176.489 68.514 176.573 68.4165 176.587C67.6219 176.698 66.8274 176.823 66.0328 176.935C66.0328 176.935 66.0189 176.935 66.0049 176.935ZM70.7722 176.239C70.6886 176.239 70.6189 176.183 70.6189 176.1C70.6049 176.016 70.6607 175.933 70.7583 175.919C71.5528 175.793 72.3474 175.682 73.1419 175.557C73.2255 175.543 73.3092 175.599 73.3231 175.696C73.337 175.78 73.2813 175.863 73.1837 175.877C72.3892 176.002 71.5946 176.114 70.8001 176.239C70.7861 176.239 70.7861 176.239 70.7722 176.239ZM75.5395 175.529C75.4558 175.529 75.4001 175.473 75.3861 175.39C75.3722 175.306 75.428 175.223 75.5255 175.209C76.3201 175.084 77.1146 174.958 77.9092 174.847C77.9928 174.833 78.0764 174.889 78.0904 174.986C78.1043 175.07 78.0485 175.153 77.951 175.167C77.1564 175.292 76.3619 175.418 75.5673 175.529C75.5534 175.529 75.5534 175.529 75.5395 175.529ZM0.155468 175.153C0.141528 175.153 0.127589 175.153 0.127589 175.153C0.0439528 175.139 -0.0118046 175.056 0.00213472 174.958C0.155468 174.193 0.517891 173.455 1.07546 172.774C1.13122 172.704 1.2288 172.69 1.29849 172.746C1.36819 172.801 1.38213 172.899 1.32637 172.968C0.796678 173.609 0.462133 174.304 0.32274 175.014C0.294861 175.112 0.225164 175.153 0.155468 175.153ZM80.2928 174.778C80.2091 174.778 80.1534 174.722 80.1395 174.638C80.1255 174.555 80.1813 174.471 80.2788 174.457C81.0734 174.332 81.8679 174.207 82.6625 174.082C82.7461 174.068 82.8298 174.123 82.8437 174.221C82.8576 174.304 82.8019 174.388 82.7043 174.402C81.9237 174.527 81.1291 174.652 80.3207 174.778C80.3207 174.778 80.3067 174.778 80.2928 174.778ZM85.06 174.026C84.9764 174.026 84.9206 173.97 84.9067 173.887C84.8928 173.803 84.9485 173.72 85.0461 173.706C85.8406 173.581 86.6352 173.442 87.4297 173.316C87.5134 173.302 87.597 173.358 87.6109 173.442C87.6249 173.525 87.5691 173.609 87.4855 173.622C86.7049 173.748 85.9103 173.887 85.1019 174.012C85.074 174.026 85.06 174.026 85.06 174.026ZM89.8134 173.247C89.7297 173.247 89.674 173.191 89.66 173.108C89.6461 173.024 89.7018 172.941 89.7855 172.927C90.594 172.787 91.3746 172.662 92.1552 172.537C92.2388 172.523 92.3224 172.579 92.3364 172.662C92.3503 172.746 92.2946 172.829 92.2109 172.843C91.4303 172.968 90.6358 173.108 89.8412 173.233C89.8273 173.247 89.8134 173.247 89.8134 173.247ZM94.5667 172.453C94.483 172.453 94.4273 172.398 94.4133 172.314C94.3994 172.231 94.4552 172.147 94.5388 172.133C95.3473 171.994 96.1418 171.869 96.9085 171.73C96.9921 171.716 97.0758 171.772 97.0897 171.855C97.1036 171.939 97.0479 172.022 96.9642 172.036C96.1836 172.175 95.3891 172.3 94.5946 172.44C94.5806 172.453 94.5667 172.453 94.5667 172.453ZM99.3061 171.632C99.2364 171.632 99.1667 171.577 99.1527 171.493C99.1388 171.41 99.1945 171.326 99.2782 171.312C100.087 171.173 100.881 171.034 101.648 170.895C101.731 170.881 101.815 170.937 101.829 171.02C101.843 171.104 101.787 171.187 101.704 171.201C100.937 171.34 100.142 171.479 99.3339 171.618C99.3339 171.632 99.32 171.632 99.3061 171.632ZM2.97122 171.438C2.91546 171.438 2.87364 171.41 2.84576 171.368C2.79 171.298 2.81788 171.201 2.88758 171.145C3.48697 170.728 4.19788 170.31 4.99242 169.935C5.07606 169.893 5.17363 169.935 5.20151 170.004C5.24333 170.088 5.20151 170.185 5.13181 170.213C4.35121 170.589 3.66818 170.992 3.06879 171.41C3.02697 171.438 2.99909 171.438 2.97122 171.438ZM104.059 170.797C103.99 170.797 103.92 170.742 103.906 170.672C103.892 170.589 103.948 170.505 104.031 170.491C104.854 170.352 105.648 170.199 106.401 170.074C106.485 170.06 106.568 170.116 106.582 170.199C106.596 170.283 106.541 170.366 106.457 170.38C105.69 170.519 104.896 170.658 104.087 170.797C104.073 170.797 104.073 170.797 104.059 170.797ZM108.813 169.962C108.743 169.962 108.673 169.907 108.659 169.837C108.645 169.754 108.701 169.67 108.785 169.656C109.621 169.503 110.416 169.364 111.154 169.225C111.238 169.211 111.322 169.267 111.336 169.35C111.35 169.434 111.294 169.517 111.21 169.531C110.471 169.67 109.677 169.809 108.841 169.962C108.827 169.948 108.813 169.962 108.813 169.962ZM7.26453 169.294C7.19484 169.294 7.13908 169.253 7.1112 169.197C7.08332 169.113 7.12514 169.016 7.20878 168.988C7.91968 168.724 8.68635 168.473 9.50877 168.223C9.59241 168.195 9.68998 168.251 9.70392 168.334C9.7318 168.418 9.67604 168.501 9.59241 168.529C8.78392 168.766 8.01726 169.03 7.32029 169.28C7.30635 169.294 7.27847 169.294 7.26453 169.294ZM113.552 169.086C113.482 169.086 113.413 169.03 113.399 168.96C113.385 168.877 113.441 168.793 113.524 168.78C114.43 168.613 115.225 168.459 115.894 168.334C115.978 168.32 116.061 168.376 116.075 168.459C116.089 168.543 116.033 168.626 115.95 168.64C115.281 168.766 114.472 168.919 113.58 169.086C113.58 169.086 113.566 169.086 113.552 169.086ZM118.319 168.195C118.25 168.195 118.18 168.139 118.166 168.07C118.152 167.986 118.208 167.903 118.291 167.889C118.459 167.861 118.542 167.833 118.57 167.833C118.668 167.805 118.765 167.889 118.765 167.986C118.765 168.125 118.751 168.125 118.361 168.195C118.333 168.195 118.319 168.195 118.319 168.195ZM11.8785 167.903C11.8088 167.903 11.7391 167.847 11.7251 167.778C11.6972 167.694 11.753 167.611 11.8366 167.583C12.5894 167.402 13.3839 167.221 14.1924 167.054C14.276 167.04 14.3597 167.096 14.3875 167.179C14.4015 167.263 14.3457 167.346 14.2621 167.374C13.4536 167.541 12.6591 167.722 11.9203 167.903C11.9063 167.903 11.8924 167.903 11.8785 167.903ZM16.6039 166.929C16.5203 166.929 16.4645 166.873 16.4506 166.789C16.4366 166.706 16.4924 166.622 16.576 166.609C17.3427 166.469 18.1512 166.344 18.9596 166.233C19.0433 166.219 19.1269 166.275 19.1409 166.372C19.1548 166.455 19.099 166.539 19.0015 166.553C18.193 166.664 17.3845 166.803 16.6178 166.929C16.6178 166.929 16.6178 166.929 16.6039 166.929ZM21.3851 166.247C21.3015 166.247 21.2318 166.191 21.2318 166.108C21.2178 166.024 21.2875 165.941 21.3712 165.927C22.1657 165.829 22.9742 165.746 23.7687 165.662C23.8524 165.648 23.936 165.718 23.9499 165.801C23.9639 165.885 23.8942 165.968 23.8105 165.982C23.016 166.066 22.2075 166.149 21.413 166.247C21.399 166.247 21.3851 166.247 21.3851 166.247ZM26.1802 165.774C26.0966 165.774 26.0269 165.704 26.0269 165.62C26.0269 165.537 26.0827 165.453 26.1802 165.453C27.6717 165.342 28.5917 165.3 28.6057 165.3C28.6893 165.286 28.7729 165.37 28.7729 165.453C28.7729 165.537 28.7033 165.62 28.6196 165.62C28.6057 165.62 27.6857 165.648 26.1802 165.774C26.1942 165.774 26.1802 165.774 26.1802 165.774Z" fill="#AFCDFB"/>
<path d="M123.672 176.628L143.438 165.453L125.415 166.511L126.795 169.559L123.073 173.678L123.672 176.628Z" fill="#AFCDFB"/>
<path d="M143.438 165.453L122.724 169.238L107.642 179.704L143.438 165.453Z" fill="white"/>
<path d="M125.415 166.511L143.439 165.453L124.579 159.942L125.415 166.511Z" fill="white"/>
<path d="M230.546 29.753L252.989 33.3017L238.227 22.9199L237.418 26.1625L231.926 27.0671L230.546 29.753Z" fill="#AFCDFB"/>
<path d="M252.988 33.302L234.421 23.3794L216.104 22.1826L252.988 33.302Z" fill="white"/>
<path d="M238.227 22.9199L252.988 33.3017L241.684 17.2559L238.227 22.9199Z" fill="white"/>
<path d="M294.304 216.151H279.193C278.385 215.469 279.751 213.91 281.187 213.799C281.814 213.757 282.595 213.882 283.487 214.077C283.696 211.322 284.881 198.922 289.355 199.423C294.387 199.98 289.355 204.878 287.933 207.787C286.874 209.93 285.773 213.019 285.257 214.481C285.661 214.564 286.093 214.662 286.526 214.731C287.195 212.685 289.676 205.811 292.826 206.214C296.534 206.687 295.042 209.443 292.422 211.085C290.498 212.296 288.129 213.994 286.999 214.829C287.947 214.982 288.951 215.093 289.955 215.065C292.561 214.982 293.816 215.747 294.304 216.151Z" fill="#20B58D"/>
<path d="M89.3533 216.456C89.3533 216.456 83.6103 200.703 79.5679 202.053C75.5394 203.389 89.3533 216.456 89.3533 216.456Z" fill="#20B58D"/>
<path d="M87.1508 216.456C86.663 216.456 77.4908 206.952 76.8775 209.443C76.2642 211.934 87.1508 216.456 87.1508 216.456Z" fill="#20B58D"/>
<path d="M96.9221 216.456C96.9221 216.456 93.1306 212.991 88.3354 213.896C83.5403 214.8 81.4912 215.788 78.4664 215.106C75.4555 214.425 73.9082 216.47 73.9082 216.47H96.9221V216.456Z" fill="#20B58D"/>
<path d="M142.881 210.167H113.023C111.35 210.167 109.998 208.817 109.998 207.147V199.02C109.998 197.35 111.35 196 113.023 196H142.881C144.554 196 145.906 197.35 145.906 199.02V207.147C145.892 208.817 144.54 210.167 142.881 210.167Z" fill="#FCECDB"/>
<path d="M136.803 199.535H114.305C114.054 199.535 113.845 199.326 113.845 199.075C113.845 198.825 114.054 198.616 114.305 198.616H136.803C137.054 198.616 137.263 198.825 137.263 199.075C137.263 199.326 137.054 199.535 136.803 199.535Z" fill="#EFCBAB"/>
<path d="M118.292 201.497H114.305C114.054 201.497 113.845 201.288 113.845 201.037C113.845 200.787 114.054 200.578 114.305 200.578H118.292C118.543 200.578 118.752 200.787 118.752 201.037C118.752 201.288 118.557 201.497 118.292 201.497Z" fill="#EFCBAB"/>
<path d="M130.865 201.497H119.881C119.63 201.497 119.421 201.288 119.421 201.037C119.421 200.787 119.63 200.578 119.881 200.578H130.865C131.116 200.578 131.325 200.787 131.325 201.037C131.325 201.288 131.116 201.497 130.865 201.497Z" fill="#EFCBAB"/>
<path d="M136.803 205.143H114.305C114.054 205.143 113.845 204.934 113.845 204.684C113.845 204.433 114.054 204.225 114.305 204.225H136.803C137.054 204.225 137.263 204.433 137.263 204.684C137.263 204.934 137.054 205.143 136.803 205.143Z" fill="#EFCBAB"/>
<path d="M122.474 207.105H114.305C114.054 207.105 113.845 206.896 113.845 206.646C113.845 206.395 114.054 206.187 114.305 206.187H122.474C122.725 206.187 122.934 206.395 122.934 206.646C122.934 206.896 122.725 207.105 122.474 207.105Z" fill="#EFCBAB"/>
<path d="M132.413 207.105H124.245C123.994 207.105 123.785 206.896 123.785 206.646C123.785 206.395 123.994 206.187 124.245 206.187H132.413C132.664 206.187 132.873 206.395 132.873 206.646C132.859 206.896 132.664 207.105 132.413 207.105Z" fill="#EFCBAB"/>
</svg>
